G75*
%MOIN*%
%OFA0B0*%
%FSLAX25Y25*%
%IPPOS*%
%LPD*%
%AMOC8*
5,1,8,0,0,1.08239X$1,22.5*
%
%ADD10C,0.13398*%
%ADD11C,0.06800*%
%ADD12C,0.08200*%
%ADD13R,0.08477X0.08477*%
%ADD14R,0.07400X0.07400*%
D10*
X0021800Y0021800D03*
X0208650Y0340698D03*
X0351800Y0021800D03*
D11*
X0301800Y0028800D02*
X0301800Y0034800D01*
X0291800Y0034800D02*
X0291800Y0028800D01*
X0231800Y0113800D02*
X0231800Y0119800D01*
X0221800Y0119800D02*
X0221800Y0113800D01*
X0211800Y0113800D02*
X0211800Y0119800D01*
X0201800Y0119800D02*
X0201800Y0113800D01*
X0199800Y0036800D02*
X0193800Y0036800D01*
X0193800Y0026800D02*
X0199800Y0026800D01*
X0074800Y0046800D02*
X0068800Y0046800D01*
X0068800Y0056800D02*
X0074800Y0056800D01*
X0074800Y0066800D02*
X0068800Y0066800D01*
X0068800Y0076800D02*
X0074800Y0076800D01*
X0074800Y0086800D02*
X0068800Y0086800D01*
X0068800Y0096800D02*
X0074800Y0096800D01*
X0074800Y0106800D02*
X0068800Y0106800D01*
X0068800Y0116800D02*
X0074800Y0116800D01*
X0074800Y0126800D02*
X0068800Y0126800D01*
X0068800Y0136800D02*
X0074800Y0136800D01*
X0074800Y0146800D02*
X0068800Y0146800D01*
X0068800Y0156800D02*
X0074800Y0156800D01*
X0074800Y0166800D02*
X0068800Y0166800D01*
X0068800Y0176800D02*
X0074800Y0176800D01*
X0078800Y0206800D02*
X0084800Y0206800D01*
X0084800Y0216800D02*
X0078800Y0216800D01*
X0078800Y0226800D02*
X0084800Y0226800D01*
X0084800Y0236800D02*
X0078800Y0236800D01*
X0078800Y0246800D02*
X0084800Y0246800D01*
X0084800Y0256800D02*
X0078800Y0256800D01*
X0049800Y0256800D02*
X0043800Y0256800D01*
X0043800Y0246800D02*
X0049800Y0246800D01*
X0049800Y0236800D02*
X0043800Y0236800D01*
X0043800Y0226800D02*
X0049800Y0226800D01*
X0049800Y0216800D02*
X0043800Y0216800D01*
X0043800Y0206800D02*
X0049800Y0206800D01*
X0044800Y0291800D02*
X0038800Y0291800D01*
X0038800Y0301800D02*
X0044800Y0301800D01*
X0044800Y0311800D02*
X0038800Y0311800D01*
X0038800Y0321800D02*
X0044800Y0321800D01*
X0044800Y0331800D02*
X0038800Y0331800D01*
X0038800Y0341800D02*
X0044800Y0341800D01*
X0083800Y0341800D02*
X0089800Y0341800D01*
X0089800Y0331800D02*
X0083800Y0331800D01*
X0083800Y0321800D02*
X0089800Y0321800D01*
X0089800Y0311800D02*
X0083800Y0311800D01*
X0083800Y0301800D02*
X0089800Y0301800D01*
X0089800Y0291800D02*
X0083800Y0291800D01*
X0171800Y0338800D02*
X0171800Y0344800D01*
X0181800Y0344800D02*
X0181800Y0338800D01*
X0201800Y0229800D02*
X0201800Y0223800D01*
X0211800Y0223800D02*
X0211800Y0229800D01*
X0221800Y0229800D02*
X0221800Y0223800D01*
X0231800Y0223800D02*
X0231800Y0229800D01*
X0338800Y0191800D02*
X0344800Y0191800D01*
X0344800Y0181800D02*
X0338800Y0181800D01*
X0301800Y0338800D02*
X0301800Y0344800D01*
X0291800Y0344800D02*
X0291800Y0338800D01*
D12*
X0321800Y0252800D03*
X0321800Y0242800D03*
X0321800Y0232800D03*
X0321800Y0222800D03*
X0321800Y0212800D03*
X0321800Y0202800D03*
X0321800Y0192800D03*
X0321800Y0182800D03*
X0321800Y0172800D03*
X0321800Y0162800D03*
X0321800Y0146800D03*
X0321800Y0136800D03*
X0321800Y0126800D03*
X0321800Y0116800D03*
X0321800Y0106800D03*
X0321800Y0096800D03*
X0321800Y0086800D03*
X0321800Y0076800D03*
X0131800Y0076800D03*
X0131800Y0086800D03*
X0131800Y0096800D03*
X0131800Y0106800D03*
X0131800Y0116800D03*
X0131800Y0126800D03*
X0131800Y0146800D03*
X0131800Y0156800D03*
X0131800Y0166800D03*
X0131800Y0176800D03*
X0131800Y0186800D03*
X0131800Y0196800D03*
X0131800Y0206800D03*
X0131800Y0216800D03*
D13*
X0086800Y0166800D03*
X0051800Y0176800D03*
X0086800Y0106800D03*
X0086800Y0096800D03*
X0086800Y0086800D03*
X0086800Y0076800D03*
X0086800Y0066800D03*
X0116800Y0046800D03*
X0051800Y0056800D03*
X0251800Y0116800D03*
X0291800Y0156800D03*
X0301800Y0156800D03*
X0301800Y0186800D03*
X0291800Y0186800D03*
X0266800Y0226800D03*
X0341800Y0276800D03*
D14*
X0051800Y0141800D03*
M02*
