%
M48
M72
T01C0.02362
T02C0.04000
T03C0.05118
T04C0.12598
%
T01
X51800Y141800
T02
X71800Y136800
X71800Y146800
X71800Y156800
X71800Y166800
X71800Y176800
X81800Y206800
X81800Y216800
X81800Y226800
X81800Y236800
X81800Y246800
X81800Y256800
X46800Y256800
X46800Y246800
X46800Y236800
X46800Y226800
X46800Y216800
X46800Y206800
X71800Y126800
X71800Y116800
X71800Y106800
X71800Y96800
X71800Y86800
X71800Y76800
X71800Y66800
X71800Y56800
X71800Y46800
X131800Y76800
X131800Y86800
X131800Y96800
X131800Y106800
X131800Y116800
X131800Y126800
X131800Y146800
X131800Y156800
X131800Y166800
X131800Y176800
X131800Y186800
X131800Y196800
X131800Y206800
X131800Y216800
X201800Y226800
X211800Y226800
X221800Y226800
X231800Y226800
X321800Y222800
X321800Y212800
X321800Y202800
X321800Y192800
X321800Y182800
X321800Y172800
X321800Y162800
X321800Y146800
X321800Y136800
X321800Y126800
X321800Y116800
X321800Y106800
X321800Y96800
X321800Y86800
X321800Y76800
X301800Y31800
X291800Y31800
X231800Y116800
X221800Y116800
X211800Y116800
X201800Y116800
X196800Y36800
X196800Y26800
X341800Y181800
X341800Y191800
X321800Y232800
X321800Y242800
X321800Y252800
X301800Y341800
X291800Y341800
X181800Y341800
X171800Y341800
X86800Y341800
X86800Y331800
X86800Y321800
X86800Y311800
X86800Y301800
X86800Y291800
X41800Y291800
X41800Y301800
X41800Y311800
X41800Y321800
X41800Y331800
X41800Y341800
T03
X51800Y176800
X86800Y166800
X86800Y106800
X86800Y96800
X86800Y86800
X86800Y76800
X86800Y66800
X116800Y46800
X51800Y56800
X251800Y116800
X291800Y156800
X301800Y156800
X301800Y186800
X291800Y186800
X266800Y226800
X341800Y276800
T04
X21800Y21800
X208650Y340698
X351800Y21800
M30
