G75*
%MOIN*%
%OFA0B0*%
%FSLAX25Y25*%
%IPPOS*%
%LPD*%
%AMOC8*
5,1,8,0,0,1.08239X$1,22.5*
%
%ADD10C,0.06000*%
%ADD11C,0.07400*%
%ADD12C,0.01600*%
%ADD13R,0.07677X0.07677*%
%ADD14C,0.04000*%
%ADD15C,0.06600*%
%ADD16R,0.06600X0.06600*%
D10*
X0068800Y0046800D02*
X0074800Y0046800D01*
X0074800Y0056800D02*
X0068800Y0056800D01*
X0068800Y0066800D02*
X0074800Y0066800D01*
X0074800Y0076800D02*
X0068800Y0076800D01*
X0068800Y0086800D02*
X0074800Y0086800D01*
X0074800Y0096800D02*
X0068800Y0096800D01*
X0068800Y0106800D02*
X0074800Y0106800D01*
X0074800Y0116800D02*
X0068800Y0116800D01*
X0068800Y0126800D02*
X0074800Y0126800D01*
X0074800Y0136800D02*
X0068800Y0136800D01*
X0068800Y0146800D02*
X0074800Y0146800D01*
X0074800Y0156800D02*
X0068800Y0156800D01*
X0068800Y0166800D02*
X0074800Y0166800D01*
X0074800Y0176800D02*
X0068800Y0176800D01*
X0078800Y0206800D02*
X0084800Y0206800D01*
X0084800Y0216800D02*
X0078800Y0216800D01*
X0078800Y0226800D02*
X0084800Y0226800D01*
X0084800Y0236800D02*
X0078800Y0236800D01*
X0078800Y0246800D02*
X0084800Y0246800D01*
X0084800Y0256800D02*
X0078800Y0256800D01*
X0049800Y0256800D02*
X0043800Y0256800D01*
X0043800Y0246800D02*
X0049800Y0246800D01*
X0049800Y0236800D02*
X0043800Y0236800D01*
X0043800Y0226800D02*
X0049800Y0226800D01*
X0049800Y0216800D02*
X0043800Y0216800D01*
X0043800Y0206800D02*
X0049800Y0206800D01*
X0044800Y0291800D02*
X0038800Y0291800D01*
X0038800Y0301800D02*
X0044800Y0301800D01*
X0044800Y0311800D02*
X0038800Y0311800D01*
X0038800Y0321800D02*
X0044800Y0321800D01*
X0044800Y0331800D02*
X0038800Y0331800D01*
X0038800Y0341800D02*
X0044800Y0341800D01*
X0083800Y0341800D02*
X0089800Y0341800D01*
X0089800Y0331800D02*
X0083800Y0331800D01*
X0083800Y0321800D02*
X0089800Y0321800D01*
X0089800Y0311800D02*
X0083800Y0311800D01*
X0083800Y0301800D02*
X0089800Y0301800D01*
X0089800Y0291800D02*
X0083800Y0291800D01*
X0171800Y0338800D02*
X0171800Y0344800D01*
X0181800Y0344800D02*
X0181800Y0338800D01*
X0201800Y0229800D02*
X0201800Y0223800D01*
X0211800Y0223800D02*
X0211800Y0229800D01*
X0221800Y0229800D02*
X0221800Y0223800D01*
X0231800Y0223800D02*
X0231800Y0229800D01*
X0338800Y0191800D02*
X0344800Y0191800D01*
X0344800Y0181800D02*
X0338800Y0181800D01*
X0231800Y0119800D02*
X0231800Y0113800D01*
X0221800Y0113800D02*
X0221800Y0119800D01*
X0211800Y0119800D02*
X0211800Y0113800D01*
X0201800Y0113800D02*
X0201800Y0119800D01*
X0199800Y0036800D02*
X0193800Y0036800D01*
X0193800Y0026800D02*
X0199800Y0026800D01*
X0291800Y0028800D02*
X0291800Y0034800D01*
X0301800Y0034800D02*
X0301800Y0028800D01*
X0301800Y0338800D02*
X0301800Y0344800D01*
X0291800Y0344800D02*
X0291800Y0338800D01*
D11*
X0321800Y0252800D03*
X0321800Y0242800D03*
X0321800Y0232800D03*
X0321800Y0222800D03*
X0321800Y0212800D03*
X0321800Y0202800D03*
X0321800Y0192800D03*
X0321800Y0182800D03*
X0321800Y0172800D03*
X0321800Y0162800D03*
X0321800Y0146800D03*
X0321800Y0136800D03*
X0321800Y0126800D03*
X0321800Y0116800D03*
X0321800Y0106800D03*
X0321800Y0096800D03*
X0321800Y0086800D03*
X0321800Y0076800D03*
X0131800Y0076800D03*
X0131800Y0086800D03*
X0131800Y0096800D03*
X0131800Y0106800D03*
X0131800Y0116800D03*
X0131800Y0126800D03*
X0131800Y0146800D03*
X0131800Y0156800D03*
X0131800Y0166800D03*
X0131800Y0176800D03*
X0131800Y0186800D03*
X0131800Y0196800D03*
X0131800Y0206800D03*
X0131800Y0216800D03*
D12*
X0028615Y0012918D02*
X0027717Y0012400D01*
X0345883Y0012400D01*
X0344985Y0012918D01*
X0342918Y0014985D01*
X0341457Y0017516D01*
X0340701Y0020339D01*
X0340701Y0023261D01*
X0341457Y0026084D01*
X0342918Y0028615D01*
X0344985Y0030682D01*
X0347516Y0032143D01*
X0350339Y0032899D01*
X0353261Y0032899D01*
X0356084Y0032143D01*
X0358615Y0030682D01*
X0360531Y0028766D01*
X0360531Y0365531D01*
X0012400Y0365531D01*
X0012400Y0260885D01*
X0013401Y0261887D01*
X0015607Y0262800D01*
X0039993Y0262800D01*
X0042408Y0263800D01*
X0051192Y0263800D01*
X0053765Y0262734D01*
X0055734Y0260765D01*
X0056800Y0258192D01*
X0056800Y0255408D01*
X0055734Y0252835D01*
X0054699Y0251800D01*
X0055734Y0250765D01*
X0056800Y0248192D01*
X0056800Y0245408D01*
X0055734Y0242835D01*
X0053765Y0240866D01*
X0052877Y0240498D01*
X0052927Y0240461D01*
X0053461Y0239927D01*
X0053905Y0239316D01*
X0054248Y0238643D01*
X0054482Y0237924D01*
X0054600Y0237178D01*
X0054600Y0237000D01*
X0047000Y0237000D01*
X0047000Y0236600D01*
X0054600Y0236600D01*
X0054600Y0236422D01*
X0054482Y0235676D01*
X0054248Y0234957D01*
X0053905Y0234284D01*
X0053771Y0234100D01*
X0074829Y0234100D01*
X0074695Y0234284D01*
X0074352Y0234957D01*
X0074118Y0235676D01*
X0074000Y0236422D01*
X0074000Y0236600D01*
X0081600Y0236600D01*
X0081600Y0237000D01*
X0074000Y0237000D01*
X0074000Y0237178D01*
X0074118Y0237924D01*
X0074352Y0238643D01*
X0074695Y0239316D01*
X0075139Y0239927D01*
X0075673Y0240461D01*
X0075723Y0240498D01*
X0074835Y0240866D01*
X0072866Y0242835D01*
X0071800Y0245408D01*
X0071800Y0248192D01*
X0072866Y0250765D01*
X0073901Y0251800D01*
X0072866Y0252835D01*
X0071800Y0255408D01*
X0071800Y0258192D01*
X0072866Y0260765D01*
X0074835Y0262734D01*
X0077408Y0263800D01*
X0086192Y0263800D01*
X0088607Y0262800D01*
X0302993Y0262800D01*
X0305199Y0261887D01*
X0306887Y0260199D01*
X0307800Y0257993D01*
X0307800Y0194073D01*
X0307904Y0194030D01*
X0309030Y0192904D01*
X0309639Y0191434D01*
X0309639Y0182166D01*
X0309030Y0180696D01*
X0307904Y0179570D01*
X0306434Y0178961D01*
X0297166Y0178961D01*
X0296800Y0179113D01*
X0296434Y0178961D01*
X0287166Y0178961D01*
X0285696Y0179570D01*
X0284570Y0180696D01*
X0283961Y0182166D01*
X0283961Y0191434D01*
X0284570Y0192904D01*
X0285696Y0194030D01*
X0285800Y0194073D01*
X0285800Y0240800D01*
X0088607Y0240800D01*
X0087877Y0240498D01*
X0087927Y0240461D01*
X0088461Y0239927D01*
X0088905Y0239316D01*
X0089248Y0238643D01*
X0089482Y0237924D01*
X0089600Y0237178D01*
X0089600Y0237000D01*
X0082000Y0237000D01*
X0082000Y0236600D01*
X0089600Y0236600D01*
X0089600Y0236422D01*
X0089482Y0235676D01*
X0089248Y0234957D01*
X0088905Y0234284D01*
X0088461Y0233673D01*
X0087927Y0233139D01*
X0087877Y0233102D01*
X0088765Y0232734D01*
X0090734Y0230765D01*
X0091800Y0228192D01*
X0091800Y0225408D01*
X0090734Y0222835D01*
X0090699Y0222800D01*
X0102993Y0222800D01*
X0105199Y0221887D01*
X0106887Y0220199D01*
X0107800Y0217993D01*
X0107800Y0145607D01*
X0106887Y0143401D01*
X0106285Y0142800D01*
X0125122Y0142800D01*
X0124100Y0145268D01*
X0124100Y0148332D01*
X0125272Y0151162D01*
X0125911Y0151800D01*
X0125272Y0152438D01*
X0124100Y0155268D01*
X0124100Y0158332D01*
X0125272Y0161162D01*
X0125911Y0161800D01*
X0125272Y0162438D01*
X0124100Y0165268D01*
X0124100Y0168332D01*
X0125272Y0171162D01*
X0125911Y0171800D01*
X0125272Y0172438D01*
X0124100Y0175268D01*
X0124100Y0178332D01*
X0125272Y0181162D01*
X0125911Y0181800D01*
X0125272Y0182438D01*
X0124100Y0185268D01*
X0124100Y0188332D01*
X0125272Y0191162D01*
X0125911Y0191800D01*
X0125272Y0192438D01*
X0124100Y0195268D01*
X0124100Y0198332D01*
X0125272Y0201162D01*
X0125911Y0201800D01*
X0125272Y0202438D01*
X0124100Y0205268D01*
X0124100Y0208332D01*
X0125272Y0211162D01*
X0125911Y0211800D01*
X0125272Y0212438D01*
X0124100Y0215268D01*
X0124100Y0218332D01*
X0125272Y0221162D01*
X0127438Y0223328D01*
X0130268Y0224500D01*
X0133332Y0224500D01*
X0136162Y0223328D01*
X0138328Y0221162D01*
X0139500Y0218332D01*
X0139500Y0215268D01*
X0138328Y0212438D01*
X0137689Y0211800D01*
X0138328Y0211162D01*
X0139500Y0208332D01*
X0139500Y0205268D01*
X0138328Y0202438D01*
X0137689Y0201800D01*
X0138328Y0201162D01*
X0139500Y0198332D01*
X0139500Y0195268D01*
X0138328Y0192438D01*
X0137689Y0191800D01*
X0138328Y0191162D01*
X0139500Y0188332D01*
X0139500Y0185268D01*
X0138328Y0182438D01*
X0137689Y0181800D01*
X0138328Y0181162D01*
X0139500Y0178332D01*
X0139500Y0175268D01*
X0138328Y0172438D01*
X0137689Y0171800D01*
X0138328Y0171162D01*
X0139500Y0168332D01*
X0139500Y0165268D01*
X0138328Y0162438D01*
X0137689Y0161800D01*
X0138328Y0161162D01*
X0139500Y0158332D01*
X0139500Y0155268D01*
X0138328Y0152438D01*
X0137689Y0151800D01*
X0138328Y0151162D01*
X0139500Y0148332D01*
X0139500Y0145268D01*
X0138478Y0142800D01*
X0240800Y0142800D01*
X0240800Y0173993D01*
X0241713Y0176199D01*
X0243401Y0177887D01*
X0245607Y0178800D01*
X0315122Y0178800D01*
X0314100Y0181268D01*
X0314100Y0184332D01*
X0315272Y0187162D01*
X0315911Y0187800D01*
X0315272Y0188438D01*
X0314100Y0191268D01*
X0314100Y0194332D01*
X0315272Y0197162D01*
X0315911Y0197800D01*
X0315272Y0198438D01*
X0314100Y0201268D01*
X0314100Y0204332D01*
X0315272Y0207162D01*
X0315911Y0207800D01*
X0315272Y0208438D01*
X0314100Y0211268D01*
X0314100Y0214332D01*
X0315272Y0217162D01*
X0315911Y0217800D01*
X0315272Y0218438D01*
X0314100Y0221268D01*
X0314100Y0224332D01*
X0315272Y0227162D01*
X0315911Y0227800D01*
X0315272Y0228438D01*
X0314100Y0231268D01*
X0314100Y0234332D01*
X0315272Y0237162D01*
X0315911Y0237800D01*
X0315272Y0238438D01*
X0314100Y0241268D01*
X0314100Y0244332D01*
X0315272Y0247162D01*
X0315911Y0247800D01*
X0315272Y0248438D01*
X0314100Y0251268D01*
X0314100Y0254332D01*
X0315272Y0257162D01*
X0317438Y0259328D01*
X0320268Y0260500D01*
X0323332Y0260500D01*
X0326162Y0259328D01*
X0328328Y0257162D01*
X0329500Y0254332D01*
X0329500Y0251268D01*
X0328328Y0248438D01*
X0327689Y0247800D01*
X0328328Y0247162D01*
X0329500Y0244332D01*
X0329500Y0241268D01*
X0328328Y0238438D01*
X0327689Y0237800D01*
X0328328Y0237162D01*
X0329500Y0234332D01*
X0329500Y0231268D01*
X0328328Y0228438D01*
X0327689Y0227800D01*
X0328328Y0227162D01*
X0329500Y0224332D01*
X0329500Y0221268D01*
X0328328Y0218438D01*
X0327689Y0217800D01*
X0328328Y0217162D01*
X0329500Y0214332D01*
X0329500Y0211268D01*
X0328328Y0208438D01*
X0327689Y0207800D01*
X0328328Y0207162D01*
X0329500Y0204332D01*
X0329500Y0201268D01*
X0328328Y0198438D01*
X0327689Y0197800D01*
X0328328Y0197162D01*
X0329500Y0194332D01*
X0329500Y0191268D01*
X0328328Y0188438D01*
X0327689Y0187800D01*
X0328328Y0187162D01*
X0329500Y0184332D01*
X0329500Y0181268D01*
X0328328Y0178438D01*
X0327689Y0177800D01*
X0328328Y0177162D01*
X0329500Y0174332D01*
X0329500Y0171268D01*
X0328328Y0168438D01*
X0327689Y0167800D01*
X0328328Y0167162D01*
X0329500Y0164332D01*
X0329500Y0161268D01*
X0328328Y0158438D01*
X0326162Y0156272D01*
X0323332Y0155100D01*
X0320268Y0155100D01*
X0317438Y0156272D01*
X0315272Y0158438D01*
X0314100Y0161268D01*
X0314100Y0164332D01*
X0315122Y0166800D01*
X0252800Y0166800D01*
X0252800Y0135607D01*
X0251887Y0133401D01*
X0250199Y0131713D01*
X0247993Y0130800D01*
X0138478Y0130800D01*
X0139500Y0128332D01*
X0139500Y0125268D01*
X0138328Y0122438D01*
X0137689Y0121800D01*
X0138328Y0121162D01*
X0139500Y0118332D01*
X0139500Y0115268D01*
X0138328Y0112438D01*
X0137689Y0111800D01*
X0138328Y0111162D01*
X0139500Y0108332D01*
X0139500Y0105268D01*
X0138328Y0102438D01*
X0137689Y0101800D01*
X0138328Y0101162D01*
X0139500Y0098332D01*
X0139500Y0095268D01*
X0138328Y0092438D01*
X0137689Y0091800D01*
X0138328Y0091162D01*
X0139500Y0088332D01*
X0139500Y0085268D01*
X0138328Y0082438D01*
X0137689Y0081800D01*
X0138328Y0081162D01*
X0139500Y0078332D01*
X0139500Y0075268D01*
X0138328Y0072438D01*
X0136162Y0070272D01*
X0133332Y0069100D01*
X0130268Y0069100D01*
X0127438Y0070272D01*
X0126911Y0070800D01*
X0100607Y0070800D01*
X0098401Y0071713D01*
X0096713Y0073401D01*
X0095800Y0075607D01*
X0095800Y0110800D01*
X0094639Y0110800D01*
X0094639Y0102166D01*
X0094487Y0101800D01*
X0094639Y0101434D01*
X0094639Y0092166D01*
X0094487Y0091800D01*
X0094639Y0091434D01*
X0094639Y0082166D01*
X0094487Y0081800D01*
X0094639Y0081434D01*
X0094639Y0072166D01*
X0094487Y0071800D01*
X0094639Y0071434D01*
X0094639Y0062166D01*
X0094030Y0060696D01*
X0092904Y0059570D01*
X0091434Y0058961D01*
X0082166Y0058961D01*
X0081340Y0059304D01*
X0081800Y0058192D01*
X0081800Y0055408D01*
X0080734Y0052835D01*
X0078765Y0050866D01*
X0077877Y0050498D01*
X0077927Y0050461D01*
X0078461Y0049927D01*
X0078905Y0049316D01*
X0079248Y0048643D01*
X0079482Y0047924D01*
X0079600Y0047178D01*
X0079600Y0047000D01*
X0072000Y0047000D01*
X0072000Y0046600D01*
X0079600Y0046600D01*
X0079600Y0046422D01*
X0079482Y0045676D01*
X0079248Y0044957D01*
X0078905Y0044284D01*
X0078461Y0043673D01*
X0077927Y0043139D01*
X0077461Y0042800D01*
X0108961Y0042800D01*
X0108961Y0051434D01*
X0109570Y0052904D01*
X0110696Y0054030D01*
X0112166Y0054639D01*
X0121434Y0054639D01*
X0122734Y0054100D01*
X0244500Y0054100D01*
X0244500Y0110866D01*
X0243961Y0112166D01*
X0243961Y0121434D01*
X0244570Y0122904D01*
X0245696Y0124030D01*
X0247166Y0124639D01*
X0256434Y0124639D01*
X0257904Y0124030D01*
X0259030Y0122904D01*
X0259639Y0121434D01*
X0259639Y0112166D01*
X0259100Y0110866D01*
X0259100Y0045348D01*
X0257989Y0042665D01*
X0255935Y0040611D01*
X0253252Y0039500D01*
X0206258Y0039500D01*
X0206800Y0038192D01*
X0206800Y0035408D01*
X0205734Y0032835D01*
X0204699Y0031800D01*
X0205734Y0030765D01*
X0206800Y0028192D01*
X0206800Y0025408D01*
X0205734Y0022835D01*
X0203765Y0020866D01*
X0201192Y0019800D01*
X0192408Y0019800D01*
X0189993Y0020800D01*
X0032899Y0020800D01*
X0032899Y0020339D01*
X0032143Y0017516D01*
X0030682Y0014985D01*
X0028615Y0012918D01*
X0028891Y0013194D02*
X0344709Y0013194D01*
X0343111Y0014793D02*
X0030489Y0014793D01*
X0031493Y0016391D02*
X0342107Y0016391D01*
X0341330Y0017990D02*
X0032270Y0017990D01*
X0032698Y0019588D02*
X0340902Y0019588D01*
X0340701Y0021187D02*
X0204086Y0021187D01*
X0205685Y0022785D02*
X0288029Y0022785D01*
X0287835Y0022866D02*
X0290408Y0021800D01*
X0293192Y0021800D01*
X0295765Y0022866D01*
X0296800Y0023901D01*
X0297835Y0022866D01*
X0300408Y0021800D01*
X0303192Y0021800D01*
X0305765Y0022866D01*
X0307734Y0024835D01*
X0308800Y0027408D01*
X0308800Y0036192D01*
X0307800Y0038607D01*
X0307800Y0149527D01*
X0307904Y0149570D01*
X0309030Y0150696D01*
X0309639Y0152166D01*
X0309639Y0161434D01*
X0309030Y0162904D01*
X0307904Y0164030D01*
X0306434Y0164639D01*
X0297166Y0164639D01*
X0296800Y0164487D01*
X0296434Y0164639D01*
X0287166Y0164639D01*
X0285696Y0164030D01*
X0284570Y0162904D01*
X0283961Y0161434D01*
X0283961Y0152166D01*
X0284570Y0150696D01*
X0285696Y0149570D01*
X0285800Y0149527D01*
X0285800Y0038607D01*
X0284800Y0036192D01*
X0284800Y0027408D01*
X0285866Y0024835D01*
X0287835Y0022866D01*
X0286317Y0024384D02*
X0206376Y0024384D01*
X0206800Y0025982D02*
X0285390Y0025982D01*
X0284800Y0027581D02*
X0206800Y0027581D01*
X0206391Y0029179D02*
X0284800Y0029179D01*
X0284800Y0030778D02*
X0205722Y0030778D01*
X0205276Y0032376D02*
X0284800Y0032376D01*
X0284800Y0033975D02*
X0206206Y0033975D01*
X0206800Y0035573D02*
X0284800Y0035573D01*
X0285206Y0037172D02*
X0206800Y0037172D01*
X0206561Y0038770D02*
X0285800Y0038770D01*
X0285800Y0040369D02*
X0255349Y0040369D01*
X0257291Y0041967D02*
X0285800Y0041967D01*
X0285800Y0043566D02*
X0258362Y0043566D01*
X0259024Y0045164D02*
X0285800Y0045164D01*
X0285800Y0046763D02*
X0259100Y0046763D01*
X0259100Y0048361D02*
X0285800Y0048361D01*
X0285800Y0049960D02*
X0259100Y0049960D01*
X0259100Y0051558D02*
X0285800Y0051558D01*
X0285800Y0053157D02*
X0259100Y0053157D01*
X0259100Y0054755D02*
X0285800Y0054755D01*
X0285800Y0056354D02*
X0259100Y0056354D01*
X0259100Y0057952D02*
X0285800Y0057952D01*
X0285800Y0059551D02*
X0259100Y0059551D01*
X0259100Y0061149D02*
X0285800Y0061149D01*
X0285800Y0062748D02*
X0259100Y0062748D01*
X0259100Y0064346D02*
X0285800Y0064346D01*
X0285800Y0065945D02*
X0259100Y0065945D01*
X0259100Y0067543D02*
X0285800Y0067543D01*
X0285800Y0069142D02*
X0259100Y0069142D01*
X0259100Y0070740D02*
X0285800Y0070740D01*
X0285800Y0072339D02*
X0259100Y0072339D01*
X0259100Y0073937D02*
X0285800Y0073937D01*
X0285800Y0075536D02*
X0259100Y0075536D01*
X0259100Y0077134D02*
X0285800Y0077134D01*
X0285800Y0078733D02*
X0259100Y0078733D01*
X0259100Y0080332D02*
X0285800Y0080332D01*
X0285800Y0081930D02*
X0259100Y0081930D01*
X0259100Y0083529D02*
X0285800Y0083529D01*
X0285800Y0085127D02*
X0259100Y0085127D01*
X0259100Y0086726D02*
X0285800Y0086726D01*
X0285800Y0088324D02*
X0259100Y0088324D01*
X0259100Y0089923D02*
X0285800Y0089923D01*
X0285800Y0091521D02*
X0259100Y0091521D01*
X0259100Y0093120D02*
X0285800Y0093120D01*
X0285800Y0094718D02*
X0259100Y0094718D01*
X0259100Y0096317D02*
X0285800Y0096317D01*
X0285800Y0097915D02*
X0259100Y0097915D01*
X0259100Y0099514D02*
X0285800Y0099514D01*
X0285800Y0101112D02*
X0259100Y0101112D01*
X0259100Y0102711D02*
X0285800Y0102711D01*
X0285800Y0104309D02*
X0259100Y0104309D01*
X0259100Y0105908D02*
X0285800Y0105908D01*
X0285800Y0107506D02*
X0259100Y0107506D01*
X0259100Y0109105D02*
X0285800Y0109105D01*
X0285800Y0110703D02*
X0259100Y0110703D01*
X0259639Y0112302D02*
X0285800Y0112302D01*
X0285800Y0113900D02*
X0259639Y0113900D01*
X0259639Y0115499D02*
X0285800Y0115499D01*
X0285800Y0117097D02*
X0259639Y0117097D01*
X0259639Y0118696D02*
X0285800Y0118696D01*
X0285800Y0120294D02*
X0259639Y0120294D01*
X0259449Y0121893D02*
X0285800Y0121893D01*
X0285800Y0123491D02*
X0258443Y0123491D01*
X0251568Y0133082D02*
X0285800Y0133082D01*
X0285800Y0131484D02*
X0249645Y0131484D01*
X0252417Y0134681D02*
X0285800Y0134681D01*
X0285800Y0136279D02*
X0252800Y0136279D01*
X0252800Y0137878D02*
X0285800Y0137878D01*
X0285800Y0139476D02*
X0252800Y0139476D01*
X0252800Y0141075D02*
X0285800Y0141075D01*
X0285800Y0142673D02*
X0252800Y0142673D01*
X0252800Y0144272D02*
X0285800Y0144272D01*
X0285800Y0145870D02*
X0252800Y0145870D01*
X0252800Y0147469D02*
X0285800Y0147469D01*
X0285800Y0149068D02*
X0252800Y0149068D01*
X0252800Y0150666D02*
X0284600Y0150666D01*
X0283961Y0152265D02*
X0252800Y0152265D01*
X0252800Y0153863D02*
X0283961Y0153863D01*
X0283961Y0155462D02*
X0252800Y0155462D01*
X0252800Y0157060D02*
X0283961Y0157060D01*
X0283961Y0158659D02*
X0252800Y0158659D01*
X0252800Y0160257D02*
X0283961Y0160257D01*
X0284136Y0161856D02*
X0252800Y0161856D01*
X0252800Y0163454D02*
X0285120Y0163454D01*
X0286012Y0179439D02*
X0139041Y0179439D01*
X0139500Y0177841D02*
X0243355Y0177841D01*
X0241757Y0176242D02*
X0139500Y0176242D01*
X0139241Y0174644D02*
X0241069Y0174644D01*
X0240800Y0173045D02*
X0138579Y0173045D01*
X0138043Y0171447D02*
X0240800Y0171447D01*
X0240800Y0169848D02*
X0138872Y0169848D01*
X0139500Y0168250D02*
X0240800Y0168250D01*
X0240800Y0166651D02*
X0139500Y0166651D01*
X0139411Y0165053D02*
X0240800Y0165053D01*
X0240800Y0163454D02*
X0138748Y0163454D01*
X0137745Y0161856D02*
X0240800Y0161856D01*
X0240800Y0160257D02*
X0138702Y0160257D01*
X0139365Y0158659D02*
X0240800Y0158659D01*
X0240800Y0157060D02*
X0139500Y0157060D01*
X0139500Y0155462D02*
X0240800Y0155462D01*
X0240800Y0153863D02*
X0138918Y0153863D01*
X0138154Y0152265D02*
X0240800Y0152265D01*
X0240800Y0150666D02*
X0138533Y0150666D01*
X0139195Y0149068D02*
X0240800Y0149068D01*
X0240800Y0147469D02*
X0139500Y0147469D01*
X0139500Y0145870D02*
X0240800Y0145870D01*
X0240800Y0144272D02*
X0139087Y0144272D01*
X0138856Y0129885D02*
X0285800Y0129885D01*
X0285800Y0128287D02*
X0139500Y0128287D01*
X0139500Y0126688D02*
X0200138Y0126688D01*
X0200408Y0126800D02*
X0197835Y0125734D01*
X0195866Y0123765D01*
X0194800Y0121192D01*
X0194800Y0112408D01*
X0195866Y0109835D01*
X0197835Y0107866D01*
X0200408Y0106800D01*
X0203192Y0106800D01*
X0205765Y0107866D01*
X0206800Y0108901D01*
X0207835Y0107866D01*
X0210408Y0106800D01*
X0213192Y0106800D01*
X0215765Y0107866D01*
X0216800Y0108901D01*
X0217835Y0107866D01*
X0220408Y0106800D01*
X0223192Y0106800D01*
X0225765Y0107866D01*
X0226800Y0108901D01*
X0227835Y0107866D01*
X0230408Y0106800D01*
X0233192Y0106800D01*
X0235765Y0107866D01*
X0237734Y0109835D01*
X0238800Y0112408D01*
X0238800Y0121192D01*
X0237734Y0123765D01*
X0235765Y0125734D01*
X0233192Y0126800D01*
X0230408Y0126800D01*
X0227835Y0125734D01*
X0226800Y0124699D01*
X0225765Y0125734D01*
X0223192Y0126800D01*
X0220408Y0126800D01*
X0217835Y0125734D01*
X0216800Y0124699D01*
X0215765Y0125734D01*
X0213192Y0126800D01*
X0210408Y0126800D01*
X0207835Y0125734D01*
X0206800Y0124699D01*
X0205765Y0125734D01*
X0203192Y0126800D01*
X0200408Y0126800D01*
X0203462Y0126688D02*
X0210138Y0126688D01*
X0213462Y0126688D02*
X0220138Y0126688D01*
X0223462Y0126688D02*
X0230138Y0126688D01*
X0233462Y0126688D02*
X0285800Y0126688D01*
X0285800Y0125090D02*
X0236410Y0125090D01*
X0237848Y0123491D02*
X0245157Y0123491D01*
X0244151Y0121893D02*
X0238510Y0121893D01*
X0238800Y0120294D02*
X0243961Y0120294D01*
X0243961Y0118696D02*
X0238800Y0118696D01*
X0238800Y0117097D02*
X0243961Y0117097D01*
X0243961Y0115499D02*
X0238800Y0115499D01*
X0238800Y0113900D02*
X0243961Y0113900D01*
X0243961Y0112302D02*
X0238756Y0112302D01*
X0238094Y0110703D02*
X0244500Y0110703D01*
X0244500Y0109105D02*
X0237004Y0109105D01*
X0234897Y0107506D02*
X0244500Y0107506D01*
X0244500Y0105908D02*
X0139500Y0105908D01*
X0139500Y0107506D02*
X0198703Y0107506D01*
X0196596Y0109105D02*
X0139180Y0109105D01*
X0138518Y0110703D02*
X0195506Y0110703D01*
X0194844Y0112302D02*
X0138191Y0112302D01*
X0138933Y0113900D02*
X0194800Y0113900D01*
X0194800Y0115499D02*
X0139500Y0115499D01*
X0139500Y0117097D02*
X0194800Y0117097D01*
X0194800Y0118696D02*
X0139349Y0118696D01*
X0138687Y0120294D02*
X0194800Y0120294D01*
X0195090Y0121893D02*
X0137782Y0121893D01*
X0138764Y0123491D02*
X0195752Y0123491D01*
X0197190Y0125090D02*
X0139426Y0125090D01*
X0124513Y0144272D02*
X0107247Y0144272D01*
X0107800Y0145870D02*
X0124100Y0145870D01*
X0124100Y0147469D02*
X0107800Y0147469D01*
X0107800Y0149068D02*
X0124405Y0149068D01*
X0125067Y0150666D02*
X0107800Y0150666D01*
X0107800Y0152265D02*
X0125446Y0152265D01*
X0124682Y0153863D02*
X0107800Y0153863D01*
X0107800Y0155462D02*
X0124100Y0155462D01*
X0124100Y0157060D02*
X0107800Y0157060D01*
X0107800Y0158659D02*
X0124235Y0158659D01*
X0124898Y0160257D02*
X0107800Y0160257D01*
X0107800Y0161856D02*
X0125855Y0161856D01*
X0124851Y0163454D02*
X0107800Y0163454D01*
X0107800Y0165053D02*
X0124189Y0165053D01*
X0124100Y0166651D02*
X0107800Y0166651D01*
X0107800Y0168250D02*
X0124100Y0168250D01*
X0124728Y0169848D02*
X0107800Y0169848D01*
X0107800Y0171447D02*
X0125557Y0171447D01*
X0125021Y0173045D02*
X0107800Y0173045D01*
X0107800Y0174644D02*
X0124359Y0174644D01*
X0124100Y0176242D02*
X0107800Y0176242D01*
X0107800Y0177841D02*
X0124100Y0177841D01*
X0124559Y0179439D02*
X0107800Y0179439D01*
X0107800Y0181038D02*
X0125221Y0181038D01*
X0125190Y0182636D02*
X0107800Y0182636D01*
X0107800Y0184235D02*
X0124528Y0184235D01*
X0124100Y0185833D02*
X0107800Y0185833D01*
X0107800Y0187432D02*
X0124100Y0187432D01*
X0124389Y0189030D02*
X0107800Y0189030D01*
X0107800Y0190629D02*
X0125052Y0190629D01*
X0125483Y0192227D02*
X0107800Y0192227D01*
X0107800Y0193826D02*
X0124698Y0193826D01*
X0124100Y0195424D02*
X0107800Y0195424D01*
X0107800Y0197023D02*
X0124100Y0197023D01*
X0124220Y0198621D02*
X0107800Y0198621D01*
X0107800Y0200220D02*
X0124882Y0200220D01*
X0125892Y0201818D02*
X0107800Y0201818D01*
X0107800Y0203417D02*
X0124867Y0203417D01*
X0124205Y0205015D02*
X0107800Y0205015D01*
X0107800Y0206614D02*
X0124100Y0206614D01*
X0124100Y0208212D02*
X0107800Y0208212D01*
X0107800Y0209811D02*
X0124713Y0209811D01*
X0125520Y0211409D02*
X0107800Y0211409D01*
X0107800Y0213008D02*
X0125036Y0213008D01*
X0124374Y0214606D02*
X0107800Y0214606D01*
X0107800Y0216205D02*
X0124100Y0216205D01*
X0124100Y0217803D02*
X0107800Y0217803D01*
X0107217Y0219402D02*
X0124543Y0219402D01*
X0125205Y0221001D02*
X0106085Y0221001D01*
X0103479Y0222599D02*
X0126710Y0222599D01*
X0129538Y0224198D02*
X0091299Y0224198D01*
X0091800Y0225796D02*
X0194800Y0225796D01*
X0194800Y0224198D02*
X0134062Y0224198D01*
X0136890Y0222599D02*
X0194800Y0222599D01*
X0194800Y0222408D02*
X0195866Y0219835D01*
X0197835Y0217866D01*
X0200408Y0216800D01*
X0203192Y0216800D01*
X0205765Y0217866D01*
X0206800Y0218901D01*
X0207835Y0217866D01*
X0210408Y0216800D01*
X0213192Y0216800D01*
X0215765Y0217866D01*
X0216800Y0218901D01*
X0217835Y0217866D01*
X0220408Y0216800D01*
X0223192Y0216800D01*
X0225765Y0217866D01*
X0227734Y0219835D01*
X0228102Y0220723D01*
X0228139Y0220673D01*
X0228673Y0220139D01*
X0229284Y0219695D01*
X0229957Y0219352D01*
X0230676Y0219118D01*
X0231422Y0219000D01*
X0231600Y0219000D01*
X0231600Y0226600D01*
X0232000Y0226600D01*
X0232000Y0227000D01*
X0236600Y0227000D01*
X0236600Y0230178D01*
X0236482Y0230924D01*
X0236248Y0231643D01*
X0235905Y0232316D01*
X0235461Y0232927D01*
X0234927Y0233461D01*
X0234316Y0233905D01*
X0233643Y0234248D01*
X0232924Y0234482D01*
X0232178Y0234600D01*
X0232000Y0234600D01*
X0232000Y0227000D01*
X0231600Y0227000D01*
X0231600Y0234600D01*
X0231422Y0234600D01*
X0230676Y0234482D01*
X0229957Y0234248D01*
X0229284Y0233905D01*
X0228673Y0233461D01*
X0228139Y0232927D01*
X0228102Y0232877D01*
X0227734Y0233765D01*
X0225765Y0235734D01*
X0223192Y0236800D01*
X0220408Y0236800D01*
X0217835Y0235734D01*
X0216800Y0234699D01*
X0215765Y0235734D01*
X0213192Y0236800D01*
X0210408Y0236800D01*
X0207835Y0235734D01*
X0206800Y0234699D01*
X0205765Y0235734D01*
X0203192Y0236800D01*
X0200408Y0236800D01*
X0197835Y0235734D01*
X0195866Y0233765D01*
X0194800Y0231192D01*
X0194800Y0222408D01*
X0195383Y0221001D02*
X0138395Y0221001D01*
X0139057Y0219402D02*
X0196298Y0219402D01*
X0197985Y0217803D02*
X0139500Y0217803D01*
X0139500Y0216205D02*
X0285800Y0216205D01*
X0285800Y0217803D02*
X0225615Y0217803D01*
X0227301Y0219402D02*
X0229859Y0219402D01*
X0231600Y0219402D02*
X0232000Y0219402D01*
X0232000Y0219000D02*
X0232178Y0219000D01*
X0232924Y0219118D01*
X0233643Y0219352D01*
X0234316Y0219695D01*
X0234927Y0220139D01*
X0235461Y0220673D01*
X0235905Y0221284D01*
X0236248Y0221957D01*
X0236482Y0222676D01*
X0236600Y0223422D01*
X0236600Y0226600D01*
X0232000Y0226600D01*
X0232000Y0219000D01*
X0233741Y0219402D02*
X0285800Y0219402D01*
X0285800Y0221001D02*
X0235699Y0221001D01*
X0236457Y0222599D02*
X0285800Y0222599D01*
X0285800Y0224198D02*
X0236600Y0224198D01*
X0236600Y0225796D02*
X0285800Y0225796D01*
X0285800Y0227395D02*
X0236600Y0227395D01*
X0236600Y0228993D02*
X0285800Y0228993D01*
X0285800Y0230592D02*
X0236534Y0230592D01*
X0235969Y0232190D02*
X0285800Y0232190D01*
X0285800Y0233789D02*
X0234476Y0233789D01*
X0232000Y0233789D02*
X0231600Y0233789D01*
X0231600Y0232190D02*
X0232000Y0232190D01*
X0232000Y0230592D02*
X0231600Y0230592D01*
X0231600Y0228993D02*
X0232000Y0228993D01*
X0232000Y0227395D02*
X0231600Y0227395D01*
X0231600Y0225796D02*
X0232000Y0225796D01*
X0232000Y0224198D02*
X0231600Y0224198D01*
X0231600Y0222599D02*
X0232000Y0222599D01*
X0232000Y0221001D02*
X0231600Y0221001D01*
X0229124Y0233789D02*
X0227711Y0233789D01*
X0226112Y0235387D02*
X0285800Y0235387D01*
X0285800Y0236986D02*
X0082000Y0236986D01*
X0081600Y0236986D02*
X0047000Y0236986D01*
X0046600Y0236986D02*
X0032800Y0236986D01*
X0032800Y0238584D02*
X0039333Y0238584D01*
X0039352Y0238643D02*
X0039118Y0237924D01*
X0039000Y0237178D01*
X0039000Y0237000D01*
X0046600Y0237000D01*
X0046600Y0236600D01*
X0039000Y0236600D01*
X0039000Y0236422D01*
X0039118Y0235676D01*
X0039352Y0234957D01*
X0039695Y0234284D01*
X0040139Y0233673D01*
X0040673Y0233139D01*
X0040723Y0233102D01*
X0039835Y0232734D01*
X0037866Y0230765D01*
X0036800Y0228192D01*
X0036800Y0225408D01*
X0037866Y0222835D01*
X0037901Y0222800D01*
X0035607Y0222800D01*
X0033401Y0221887D01*
X0032800Y0221285D01*
X0032800Y0240800D01*
X0039993Y0240800D01*
X0040723Y0240498D01*
X0040673Y0240461D01*
X0040139Y0239927D01*
X0039695Y0239316D01*
X0039352Y0238643D01*
X0040394Y0240183D02*
X0032800Y0240183D01*
X0032800Y0235387D02*
X0039212Y0235387D01*
X0040055Y0233789D02*
X0032800Y0233789D01*
X0032800Y0232190D02*
X0039291Y0232190D01*
X0037794Y0230592D02*
X0032800Y0230592D01*
X0032800Y0228993D02*
X0037132Y0228993D01*
X0036800Y0227395D02*
X0032800Y0227395D01*
X0032800Y0225796D02*
X0036800Y0225796D01*
X0037301Y0224198D02*
X0032800Y0224198D01*
X0032800Y0222599D02*
X0035121Y0222599D01*
X0054699Y0211800D02*
X0055734Y0212835D01*
X0056800Y0215408D01*
X0056800Y0218192D01*
X0056258Y0219500D01*
X0059500Y0219500D01*
X0059500Y0199100D01*
X0050348Y0199100D01*
X0047665Y0197989D01*
X0045611Y0195935D01*
X0044500Y0193252D01*
X0044500Y0182734D01*
X0043961Y0181434D01*
X0043961Y0172166D01*
X0044570Y0170696D01*
X0045696Y0169570D01*
X0047166Y0168961D01*
X0056434Y0168961D01*
X0057904Y0169570D01*
X0059030Y0170696D01*
X0059639Y0172166D01*
X0059639Y0181434D01*
X0059100Y0182734D01*
X0059100Y0184500D01*
X0068252Y0184500D01*
X0070935Y0185611D01*
X0072989Y0187665D01*
X0074100Y0190348D01*
X0074100Y0201601D01*
X0074835Y0200866D01*
X0077408Y0199800D01*
X0086192Y0199800D01*
X0088765Y0200866D01*
X0090734Y0202835D01*
X0091800Y0205408D01*
X0091800Y0208192D01*
X0090734Y0210765D01*
X0090699Y0210800D01*
X0095800Y0210800D01*
X0095800Y0152800D01*
X0080699Y0152800D01*
X0080734Y0152835D01*
X0081800Y0155408D01*
X0081800Y0158192D01*
X0081340Y0159304D01*
X0082166Y0158961D01*
X0091434Y0158961D01*
X0092904Y0159570D01*
X0094030Y0160696D01*
X0094639Y0162166D01*
X0094639Y0171434D01*
X0094030Y0172904D01*
X0092904Y0174030D01*
X0091434Y0174639D01*
X0082166Y0174639D01*
X0080866Y0174100D01*
X0078771Y0174100D01*
X0078905Y0174284D01*
X0079248Y0174957D01*
X0079482Y0175676D01*
X0079600Y0176422D01*
X0079600Y0176600D01*
X0072000Y0176600D01*
X0072000Y0177000D01*
X0071600Y0177000D01*
X0071600Y0181600D01*
X0068422Y0181600D01*
X0067676Y0181482D01*
X0066957Y0181248D01*
X0066284Y0180905D01*
X0065673Y0180461D01*
X0065139Y0179927D01*
X0064695Y0179316D01*
X0064352Y0178643D01*
X0064118Y0177924D01*
X0064000Y0177178D01*
X0064000Y0177000D01*
X0071600Y0177000D01*
X0071600Y0176600D01*
X0064000Y0176600D01*
X0064000Y0176422D01*
X0064118Y0175676D01*
X0064352Y0174957D01*
X0064695Y0174284D01*
X0065139Y0173673D01*
X0065673Y0173139D01*
X0065723Y0173102D01*
X0064835Y0172734D01*
X0062866Y0170765D01*
X0061800Y0168192D01*
X0061800Y0165408D01*
X0062866Y0162835D01*
X0062901Y0162800D01*
X0042800Y0162800D01*
X0042800Y0199800D01*
X0051192Y0199800D01*
X0053765Y0200866D01*
X0055734Y0202835D01*
X0056800Y0205408D01*
X0056800Y0208192D01*
X0055734Y0210765D01*
X0054699Y0211800D01*
X0055090Y0211409D02*
X0059500Y0211409D01*
X0059500Y0209811D02*
X0056130Y0209811D01*
X0056792Y0208212D02*
X0059500Y0208212D01*
X0059500Y0206614D02*
X0056800Y0206614D01*
X0056638Y0205015D02*
X0059500Y0205015D01*
X0059500Y0203417D02*
X0055975Y0203417D01*
X0054718Y0201818D02*
X0059500Y0201818D01*
X0059500Y0200220D02*
X0052206Y0200220D01*
X0049192Y0198621D02*
X0042800Y0198621D01*
X0042800Y0197023D02*
X0046699Y0197023D01*
X0045400Y0195424D02*
X0042800Y0195424D01*
X0042800Y0193826D02*
X0044738Y0193826D01*
X0044500Y0192227D02*
X0042800Y0192227D01*
X0042800Y0190629D02*
X0044500Y0190629D01*
X0044500Y0189030D02*
X0042800Y0189030D01*
X0042800Y0187432D02*
X0044500Y0187432D01*
X0044500Y0185833D02*
X0042800Y0185833D01*
X0042800Y0184235D02*
X0044500Y0184235D01*
X0044459Y0182636D02*
X0042800Y0182636D01*
X0042800Y0181038D02*
X0043961Y0181038D01*
X0043961Y0179439D02*
X0042800Y0179439D01*
X0042800Y0177841D02*
X0043961Y0177841D01*
X0043961Y0176242D02*
X0042800Y0176242D01*
X0042800Y0174644D02*
X0043961Y0174644D01*
X0043961Y0173045D02*
X0042800Y0173045D01*
X0042800Y0171447D02*
X0044259Y0171447D01*
X0045418Y0169848D02*
X0042800Y0169848D01*
X0042800Y0168250D02*
X0061824Y0168250D01*
X0061800Y0166651D02*
X0042800Y0166651D01*
X0042800Y0165053D02*
X0061947Y0165053D01*
X0062609Y0163454D02*
X0042800Y0163454D01*
X0058182Y0169848D02*
X0062486Y0169848D01*
X0063547Y0171447D02*
X0059341Y0171447D01*
X0059639Y0173045D02*
X0065585Y0173045D01*
X0064512Y0174644D02*
X0059639Y0174644D01*
X0059639Y0176242D02*
X0064029Y0176242D01*
X0064105Y0177841D02*
X0059639Y0177841D01*
X0059639Y0179439D02*
X0064784Y0179439D01*
X0066544Y0181038D02*
X0059639Y0181038D01*
X0059141Y0182636D02*
X0095800Y0182636D01*
X0095800Y0181038D02*
X0077056Y0181038D01*
X0077316Y0180905D02*
X0076643Y0181248D01*
X0075924Y0181482D01*
X0075178Y0181600D01*
X0072000Y0181600D01*
X0072000Y0177000D01*
X0079600Y0177000D01*
X0079600Y0177178D01*
X0079482Y0177924D01*
X0079248Y0178643D01*
X0078905Y0179316D01*
X0078461Y0179927D01*
X0077927Y0180461D01*
X0077316Y0180905D01*
X0078816Y0179439D02*
X0095800Y0179439D01*
X0095800Y0177841D02*
X0079495Y0177841D01*
X0079571Y0176242D02*
X0095800Y0176242D01*
X0095800Y0174644D02*
X0079088Y0174644D01*
X0072000Y0177841D02*
X0071600Y0177841D01*
X0071600Y0179439D02*
X0072000Y0179439D01*
X0072000Y0181038D02*
X0071600Y0181038D01*
X0071157Y0185833D02*
X0095800Y0185833D01*
X0095800Y0184235D02*
X0059100Y0184235D01*
X0072756Y0187432D02*
X0095800Y0187432D01*
X0095800Y0189030D02*
X0073554Y0189030D01*
X0074100Y0190629D02*
X0095800Y0190629D01*
X0095800Y0192227D02*
X0074100Y0192227D01*
X0074100Y0193826D02*
X0095800Y0193826D01*
X0095800Y0195424D02*
X0074100Y0195424D01*
X0074100Y0197023D02*
X0095800Y0197023D01*
X0095800Y0198621D02*
X0074100Y0198621D01*
X0074100Y0200220D02*
X0076394Y0200220D01*
X0087206Y0200220D02*
X0095800Y0200220D01*
X0095800Y0201818D02*
X0089718Y0201818D01*
X0090975Y0203417D02*
X0095800Y0203417D01*
X0095800Y0205015D02*
X0091638Y0205015D01*
X0091800Y0206614D02*
X0095800Y0206614D01*
X0095800Y0208212D02*
X0091792Y0208212D01*
X0091130Y0209811D02*
X0095800Y0209811D01*
X0091800Y0227395D02*
X0194800Y0227395D01*
X0194800Y0228993D02*
X0091468Y0228993D01*
X0090806Y0230592D02*
X0194800Y0230592D01*
X0195213Y0232190D02*
X0089309Y0232190D01*
X0088545Y0233789D02*
X0195889Y0233789D01*
X0197488Y0235387D02*
X0089388Y0235387D01*
X0089267Y0238584D02*
X0285800Y0238584D01*
X0285800Y0240183D02*
X0088206Y0240183D01*
X0075394Y0240183D02*
X0053206Y0240183D01*
X0054267Y0238584D02*
X0074333Y0238584D01*
X0074212Y0235387D02*
X0054388Y0235387D01*
X0054681Y0241781D02*
X0073919Y0241781D01*
X0072640Y0243380D02*
X0055960Y0243380D01*
X0056622Y0244978D02*
X0071978Y0244978D01*
X0071800Y0246577D02*
X0056800Y0246577D01*
X0056800Y0248175D02*
X0071800Y0248175D01*
X0072455Y0249774D02*
X0056145Y0249774D01*
X0055127Y0251372D02*
X0073473Y0251372D01*
X0072809Y0252971D02*
X0055791Y0252971D01*
X0056453Y0254569D02*
X0072147Y0254569D01*
X0071800Y0256168D02*
X0056800Y0256168D01*
X0056800Y0257766D02*
X0071800Y0257766D01*
X0072286Y0259365D02*
X0056314Y0259365D01*
X0055536Y0260963D02*
X0073064Y0260963D01*
X0074662Y0262562D02*
X0053938Y0262562D01*
X0071713Y0278401D02*
X0070800Y0280607D01*
X0070800Y0295800D01*
X0050699Y0295800D01*
X0050734Y0295765D01*
X0051800Y0293192D01*
X0051800Y0290408D01*
X0050734Y0287835D01*
X0048765Y0285866D01*
X0046192Y0284800D01*
X0037408Y0284800D01*
X0034993Y0285800D01*
X0025607Y0285800D01*
X0023401Y0286713D01*
X0021713Y0288401D01*
X0020800Y0290607D01*
X0020800Y0357993D01*
X0021713Y0360199D01*
X0023401Y0361887D01*
X0025607Y0362800D01*
X0302993Y0362800D01*
X0305199Y0361887D01*
X0306887Y0360199D01*
X0307800Y0357993D01*
X0307800Y0348607D01*
X0308800Y0346192D01*
X0308800Y0337408D01*
X0307734Y0334835D01*
X0305765Y0332866D01*
X0303192Y0331800D01*
X0300408Y0331800D01*
X0297835Y0332866D01*
X0297800Y0332901D01*
X0297800Y0280607D01*
X0296887Y0278401D01*
X0295199Y0276713D01*
X0292993Y0275800D01*
X0075607Y0275800D01*
X0073401Y0276713D01*
X0071713Y0278401D01*
X0071653Y0278547D02*
X0012400Y0278547D01*
X0012400Y0280145D02*
X0070991Y0280145D01*
X0070800Y0281744D02*
X0012400Y0281744D01*
X0012400Y0283342D02*
X0070800Y0283342D01*
X0070800Y0284941D02*
X0046533Y0284941D01*
X0049439Y0286539D02*
X0070800Y0286539D01*
X0070800Y0288138D02*
X0050860Y0288138D01*
X0051522Y0289737D02*
X0070800Y0289737D01*
X0070800Y0291335D02*
X0051800Y0291335D01*
X0051800Y0292934D02*
X0070800Y0292934D01*
X0070800Y0294532D02*
X0051245Y0294532D01*
X0037067Y0284941D02*
X0012400Y0284941D01*
X0012400Y0286539D02*
X0023821Y0286539D01*
X0021977Y0288138D02*
X0012400Y0288138D01*
X0012400Y0289737D02*
X0021160Y0289737D01*
X0020800Y0291335D02*
X0012400Y0291335D01*
X0012400Y0292934D02*
X0020800Y0292934D01*
X0020800Y0294532D02*
X0012400Y0294532D01*
X0012400Y0296131D02*
X0020800Y0296131D01*
X0020800Y0297729D02*
X0012400Y0297729D01*
X0012400Y0299328D02*
X0020800Y0299328D01*
X0020800Y0300926D02*
X0012400Y0300926D01*
X0012400Y0302525D02*
X0020800Y0302525D01*
X0020800Y0304123D02*
X0012400Y0304123D01*
X0012400Y0305722D02*
X0020800Y0305722D01*
X0020800Y0307320D02*
X0012400Y0307320D01*
X0012400Y0308919D02*
X0020800Y0308919D01*
X0020800Y0310517D02*
X0012400Y0310517D01*
X0012400Y0312116D02*
X0020800Y0312116D01*
X0020800Y0313714D02*
X0012400Y0313714D01*
X0012400Y0315313D02*
X0020800Y0315313D01*
X0020800Y0316911D02*
X0012400Y0316911D01*
X0012400Y0318510D02*
X0020800Y0318510D01*
X0020800Y0320108D02*
X0012400Y0320108D01*
X0012400Y0321707D02*
X0020800Y0321707D01*
X0020800Y0323305D02*
X0012400Y0323305D01*
X0012400Y0324904D02*
X0020800Y0324904D01*
X0020800Y0326502D02*
X0012400Y0326502D01*
X0012400Y0328101D02*
X0020800Y0328101D01*
X0020800Y0329699D02*
X0012400Y0329699D01*
X0012400Y0331298D02*
X0020800Y0331298D01*
X0020800Y0332896D02*
X0012400Y0332896D01*
X0012400Y0334495D02*
X0020800Y0334495D01*
X0020800Y0336093D02*
X0012400Y0336093D01*
X0012400Y0337692D02*
X0020800Y0337692D01*
X0020800Y0339290D02*
X0012400Y0339290D01*
X0012400Y0340889D02*
X0020800Y0340889D01*
X0020800Y0342487D02*
X0012400Y0342487D01*
X0012400Y0344086D02*
X0020800Y0344086D01*
X0020800Y0345684D02*
X0012400Y0345684D01*
X0012400Y0347283D02*
X0020800Y0347283D01*
X0020800Y0348881D02*
X0012400Y0348881D01*
X0012400Y0350480D02*
X0020800Y0350480D01*
X0020800Y0352078D02*
X0012400Y0352078D01*
X0012400Y0353677D02*
X0020800Y0353677D01*
X0020800Y0355275D02*
X0012400Y0355275D01*
X0012400Y0356874D02*
X0020800Y0356874D01*
X0020998Y0358472D02*
X0012400Y0358472D01*
X0012400Y0360071D02*
X0021661Y0360071D01*
X0023184Y0361670D02*
X0012400Y0361670D01*
X0012400Y0363268D02*
X0360531Y0363268D01*
X0360531Y0361670D02*
X0305416Y0361670D01*
X0306939Y0360071D02*
X0360531Y0360071D01*
X0360531Y0358472D02*
X0307602Y0358472D01*
X0307800Y0356874D02*
X0360531Y0356874D01*
X0360531Y0355275D02*
X0307800Y0355275D01*
X0307800Y0353677D02*
X0360531Y0353677D01*
X0360531Y0352078D02*
X0307800Y0352078D01*
X0307800Y0350480D02*
X0360531Y0350480D01*
X0360531Y0348881D02*
X0307800Y0348881D01*
X0308348Y0347283D02*
X0360531Y0347283D01*
X0360531Y0345684D02*
X0308800Y0345684D01*
X0308800Y0344086D02*
X0360531Y0344086D01*
X0360531Y0342487D02*
X0308800Y0342487D01*
X0308800Y0340889D02*
X0360531Y0340889D01*
X0360531Y0339290D02*
X0308800Y0339290D01*
X0308800Y0337692D02*
X0360531Y0337692D01*
X0360531Y0336093D02*
X0308256Y0336093D01*
X0307394Y0334495D02*
X0360531Y0334495D01*
X0360531Y0332896D02*
X0305796Y0332896D01*
X0297804Y0332896D02*
X0297800Y0332896D01*
X0297800Y0331298D02*
X0360531Y0331298D01*
X0360531Y0329699D02*
X0297800Y0329699D01*
X0297800Y0328101D02*
X0360531Y0328101D01*
X0360531Y0326502D02*
X0297800Y0326502D01*
X0297800Y0324904D02*
X0360531Y0324904D01*
X0360531Y0323305D02*
X0297800Y0323305D01*
X0297800Y0321707D02*
X0360531Y0321707D01*
X0360531Y0320108D02*
X0297800Y0320108D01*
X0297800Y0318510D02*
X0360531Y0318510D01*
X0360531Y0316911D02*
X0297800Y0316911D01*
X0297800Y0315313D02*
X0360531Y0315313D01*
X0360531Y0313714D02*
X0297800Y0313714D01*
X0297800Y0312116D02*
X0360531Y0312116D01*
X0360531Y0310517D02*
X0297800Y0310517D01*
X0297800Y0308919D02*
X0360531Y0308919D01*
X0360531Y0307320D02*
X0297800Y0307320D01*
X0297800Y0305722D02*
X0360531Y0305722D01*
X0360531Y0304123D02*
X0297800Y0304123D01*
X0297800Y0302525D02*
X0360531Y0302525D01*
X0360531Y0300926D02*
X0297800Y0300926D01*
X0297800Y0299328D02*
X0360531Y0299328D01*
X0360531Y0297729D02*
X0297800Y0297729D01*
X0297800Y0296131D02*
X0360531Y0296131D01*
X0360531Y0294532D02*
X0297800Y0294532D01*
X0297800Y0292934D02*
X0360531Y0292934D01*
X0360531Y0291335D02*
X0297800Y0291335D01*
X0297800Y0289737D02*
X0360531Y0289737D01*
X0360531Y0288138D02*
X0297800Y0288138D01*
X0297800Y0286539D02*
X0360531Y0286539D01*
X0360531Y0284941D02*
X0297800Y0284941D01*
X0297800Y0283342D02*
X0335008Y0283342D01*
X0334570Y0282904D02*
X0333961Y0281434D01*
X0333961Y0272166D01*
X0334500Y0270866D01*
X0334500Y0197399D01*
X0332866Y0195765D01*
X0331800Y0193192D01*
X0331800Y0190408D01*
X0332866Y0187835D01*
X0334835Y0185866D01*
X0335723Y0185498D01*
X0335673Y0185461D01*
X0335139Y0184927D01*
X0334695Y0184316D01*
X0334352Y0183643D01*
X0334118Y0182924D01*
X0334000Y0182178D01*
X0334000Y0182000D01*
X0341600Y0182000D01*
X0341600Y0181600D01*
X0342000Y0181600D01*
X0342000Y0182000D01*
X0349600Y0182000D01*
X0349600Y0182178D01*
X0349482Y0182924D01*
X0349248Y0183643D01*
X0348905Y0184316D01*
X0348461Y0184927D01*
X0347927Y0185461D01*
X0347877Y0185498D01*
X0348765Y0185866D01*
X0350734Y0187835D01*
X0351800Y0190408D01*
X0351800Y0193192D01*
X0350734Y0195765D01*
X0349100Y0197399D01*
X0349100Y0270866D01*
X0349639Y0272166D01*
X0349639Y0281434D01*
X0349030Y0282904D01*
X0347904Y0284030D01*
X0346434Y0284639D01*
X0337166Y0284639D01*
X0335696Y0284030D01*
X0334570Y0282904D01*
X0334090Y0281744D02*
X0297800Y0281744D01*
X0297609Y0280145D02*
X0333961Y0280145D01*
X0333961Y0278547D02*
X0296947Y0278547D01*
X0295434Y0276948D02*
X0333961Y0276948D01*
X0333961Y0275350D02*
X0012400Y0275350D01*
X0012400Y0276948D02*
X0073166Y0276948D01*
X0015032Y0262562D02*
X0012400Y0262562D01*
X0012400Y0264160D02*
X0334500Y0264160D01*
X0334500Y0262562D02*
X0303568Y0262562D01*
X0306122Y0260963D02*
X0334500Y0260963D01*
X0334500Y0259365D02*
X0326072Y0259365D01*
X0327723Y0257766D02*
X0334500Y0257766D01*
X0334500Y0256168D02*
X0328739Y0256168D01*
X0329402Y0254569D02*
X0334500Y0254569D01*
X0334500Y0252971D02*
X0329500Y0252971D01*
X0329500Y0251372D02*
X0334500Y0251372D01*
X0334500Y0249774D02*
X0328881Y0249774D01*
X0328065Y0248175D02*
X0334500Y0248175D01*
X0334500Y0246577D02*
X0328570Y0246577D01*
X0329232Y0244978D02*
X0334500Y0244978D01*
X0334500Y0243380D02*
X0329500Y0243380D01*
X0329500Y0241781D02*
X0334500Y0241781D01*
X0334500Y0240183D02*
X0329050Y0240183D01*
X0328388Y0238584D02*
X0334500Y0238584D01*
X0334500Y0236986D02*
X0328401Y0236986D01*
X0329063Y0235387D02*
X0334500Y0235387D01*
X0334500Y0233789D02*
X0329500Y0233789D01*
X0329500Y0232190D02*
X0334500Y0232190D01*
X0334500Y0230592D02*
X0329220Y0230592D01*
X0328558Y0228993D02*
X0334500Y0228993D01*
X0334500Y0227395D02*
X0328095Y0227395D01*
X0328893Y0225796D02*
X0334500Y0225796D01*
X0334500Y0224198D02*
X0329500Y0224198D01*
X0329500Y0222599D02*
X0334500Y0222599D01*
X0334500Y0221001D02*
X0329389Y0221001D01*
X0328727Y0219402D02*
X0334500Y0219402D01*
X0334500Y0217803D02*
X0327693Y0217803D01*
X0328724Y0216205D02*
X0334500Y0216205D01*
X0334500Y0214606D02*
X0329386Y0214606D01*
X0329500Y0213008D02*
X0334500Y0213008D01*
X0334500Y0211409D02*
X0329500Y0211409D01*
X0328896Y0209811D02*
X0334500Y0209811D01*
X0334500Y0208212D02*
X0328102Y0208212D01*
X0328555Y0206614D02*
X0334500Y0206614D01*
X0334500Y0205015D02*
X0329217Y0205015D01*
X0329500Y0203417D02*
X0334500Y0203417D01*
X0334500Y0201818D02*
X0329500Y0201818D01*
X0329066Y0200220D02*
X0334500Y0200220D01*
X0334500Y0198621D02*
X0328404Y0198621D01*
X0328385Y0197023D02*
X0334123Y0197023D01*
X0332725Y0195424D02*
X0329047Y0195424D01*
X0329500Y0193826D02*
X0332062Y0193826D01*
X0331800Y0192227D02*
X0329500Y0192227D01*
X0329235Y0190629D02*
X0331800Y0190629D01*
X0332370Y0189030D02*
X0328573Y0189030D01*
X0328058Y0187432D02*
X0333269Y0187432D01*
X0334913Y0185833D02*
X0328878Y0185833D01*
X0329500Y0184235D02*
X0334653Y0184235D01*
X0334073Y0182636D02*
X0329500Y0182636D01*
X0329404Y0181038D02*
X0334061Y0181038D01*
X0334118Y0180676D02*
X0334352Y0179957D01*
X0334695Y0179284D01*
X0335139Y0178673D01*
X0335673Y0178139D01*
X0336284Y0177695D01*
X0336957Y0177352D01*
X0337676Y0177118D01*
X0338422Y0177000D01*
X0341600Y0177000D01*
X0341600Y0181600D01*
X0334000Y0181600D01*
X0334000Y0181422D01*
X0334118Y0180676D01*
X0334616Y0179439D02*
X0328742Y0179439D01*
X0327730Y0177841D02*
X0336083Y0177841D01*
X0329371Y0174644D02*
X0360531Y0174644D01*
X0360531Y0176242D02*
X0328709Y0176242D01*
X0329500Y0173045D02*
X0360531Y0173045D01*
X0360531Y0171447D02*
X0329500Y0171447D01*
X0328912Y0169848D02*
X0360531Y0169848D01*
X0360531Y0168250D02*
X0328139Y0168250D01*
X0328539Y0166651D02*
X0360531Y0166651D01*
X0360531Y0165053D02*
X0329201Y0165053D01*
X0329500Y0163454D02*
X0360531Y0163454D01*
X0360531Y0161856D02*
X0329500Y0161856D01*
X0329081Y0160257D02*
X0360531Y0160257D01*
X0360531Y0158659D02*
X0328419Y0158659D01*
X0326949Y0157060D02*
X0360531Y0157060D01*
X0360531Y0155462D02*
X0324204Y0155462D01*
X0323332Y0154500D02*
X0320268Y0154500D01*
X0317438Y0153328D01*
X0315272Y0151162D01*
X0314100Y0148332D01*
X0314100Y0145268D01*
X0315272Y0142438D01*
X0315911Y0141800D01*
X0315272Y0141162D01*
X0314100Y0138332D01*
X0314100Y0135268D01*
X0315272Y0132438D01*
X0315911Y0131800D01*
X0315272Y0131162D01*
X0314100Y0128332D01*
X0314100Y0125268D01*
X0315272Y0122438D01*
X0315911Y0121800D01*
X0315272Y0121162D01*
X0314100Y0118332D01*
X0314100Y0115268D01*
X0315272Y0112438D01*
X0315911Y0111800D01*
X0315272Y0111162D01*
X0314100Y0108332D01*
X0314100Y0105268D01*
X0315272Y0102438D01*
X0315911Y0101800D01*
X0315272Y0101162D01*
X0314100Y0098332D01*
X0314100Y0095268D01*
X0315272Y0092438D01*
X0315911Y0091800D01*
X0315272Y0091162D01*
X0314100Y0088332D01*
X0314100Y0085268D01*
X0315272Y0082438D01*
X0315911Y0081800D01*
X0315272Y0081162D01*
X0314100Y0078332D01*
X0314100Y0075268D01*
X0315272Y0072438D01*
X0317438Y0070272D01*
X0320268Y0069100D01*
X0323332Y0069100D01*
X0326162Y0070272D01*
X0328328Y0072438D01*
X0329500Y0075268D01*
X0329500Y0078332D01*
X0328328Y0081162D01*
X0327689Y0081800D01*
X0328328Y0082438D01*
X0329500Y0085268D01*
X0329500Y0088332D01*
X0328328Y0091162D01*
X0327689Y0091800D01*
X0328328Y0092438D01*
X0329500Y0095268D01*
X0329500Y0098332D01*
X0328328Y0101162D01*
X0327689Y0101800D01*
X0328328Y0102438D01*
X0329500Y0105268D01*
X0329500Y0108332D01*
X0328328Y0111162D01*
X0327689Y0111800D01*
X0328328Y0112438D01*
X0329500Y0115268D01*
X0329500Y0118332D01*
X0328328Y0121162D01*
X0327689Y0121800D01*
X0328328Y0122438D01*
X0329500Y0125268D01*
X0329500Y0128332D01*
X0328328Y0131162D01*
X0327689Y0131800D01*
X0328328Y0132438D01*
X0329500Y0135268D01*
X0329500Y0138332D01*
X0328328Y0141162D01*
X0327689Y0141800D01*
X0328328Y0142438D01*
X0329500Y0145268D01*
X0329500Y0148332D01*
X0328328Y0151162D01*
X0326162Y0153328D01*
X0323332Y0154500D01*
X0324869Y0153863D02*
X0360531Y0153863D01*
X0360531Y0152265D02*
X0327225Y0152265D01*
X0328533Y0150666D02*
X0360531Y0150666D01*
X0360531Y0149068D02*
X0329195Y0149068D01*
X0329500Y0147469D02*
X0360531Y0147469D01*
X0360531Y0145870D02*
X0329500Y0145870D01*
X0329087Y0144272D02*
X0360531Y0144272D01*
X0360531Y0142673D02*
X0328425Y0142673D01*
X0328364Y0141075D02*
X0360531Y0141075D01*
X0360531Y0139476D02*
X0329026Y0139476D01*
X0329500Y0137878D02*
X0360531Y0137878D01*
X0360531Y0136279D02*
X0329500Y0136279D01*
X0329257Y0134681D02*
X0360531Y0134681D01*
X0360531Y0133082D02*
X0328595Y0133082D01*
X0328006Y0131484D02*
X0360531Y0131484D01*
X0360531Y0129885D02*
X0328856Y0129885D01*
X0329500Y0128287D02*
X0360531Y0128287D01*
X0360531Y0126688D02*
X0329500Y0126688D01*
X0329426Y0125090D02*
X0360531Y0125090D01*
X0360531Y0123491D02*
X0328764Y0123491D01*
X0327782Y0121893D02*
X0360531Y0121893D01*
X0360531Y0120294D02*
X0328687Y0120294D01*
X0329349Y0118696D02*
X0360531Y0118696D01*
X0360531Y0117097D02*
X0329500Y0117097D01*
X0329500Y0115499D02*
X0360531Y0115499D01*
X0360531Y0113900D02*
X0328933Y0113900D01*
X0328191Y0112302D02*
X0360531Y0112302D01*
X0360531Y0110703D02*
X0328518Y0110703D01*
X0329180Y0109105D02*
X0360531Y0109105D01*
X0360531Y0107506D02*
X0329500Y0107506D01*
X0329500Y0105908D02*
X0360531Y0105908D01*
X0360531Y0104309D02*
X0329103Y0104309D01*
X0328441Y0102711D02*
X0360531Y0102711D01*
X0360531Y0101112D02*
X0328348Y0101112D01*
X0329010Y0099514D02*
X0360531Y0099514D01*
X0360531Y0097915D02*
X0329500Y0097915D01*
X0329500Y0096317D02*
X0360531Y0096317D01*
X0360531Y0094718D02*
X0329272Y0094718D01*
X0328610Y0093120D02*
X0360531Y0093120D01*
X0360531Y0091521D02*
X0327968Y0091521D01*
X0328841Y0089923D02*
X0360531Y0089923D01*
X0360531Y0088324D02*
X0329500Y0088324D01*
X0329500Y0086726D02*
X0360531Y0086726D01*
X0360531Y0085127D02*
X0329441Y0085127D01*
X0328779Y0083529D02*
X0360531Y0083529D01*
X0360531Y0081930D02*
X0327819Y0081930D01*
X0328672Y0080332D02*
X0360531Y0080332D01*
X0360531Y0078733D02*
X0329334Y0078733D01*
X0329500Y0077134D02*
X0360531Y0077134D01*
X0360531Y0075536D02*
X0329500Y0075536D01*
X0328949Y0073937D02*
X0360531Y0073937D01*
X0360531Y0072339D02*
X0328228Y0072339D01*
X0326630Y0070740D02*
X0360531Y0070740D01*
X0360531Y0069142D02*
X0323433Y0069142D01*
X0320167Y0069142D02*
X0307800Y0069142D01*
X0307800Y0070740D02*
X0316970Y0070740D01*
X0315372Y0072339D02*
X0307800Y0072339D01*
X0307800Y0073937D02*
X0314651Y0073937D01*
X0314100Y0075536D02*
X0307800Y0075536D01*
X0307800Y0077134D02*
X0314100Y0077134D01*
X0314266Y0078733D02*
X0307800Y0078733D01*
X0307800Y0080332D02*
X0314928Y0080332D01*
X0315781Y0081930D02*
X0307800Y0081930D01*
X0307800Y0083529D02*
X0314821Y0083529D01*
X0314159Y0085127D02*
X0307800Y0085127D01*
X0307800Y0086726D02*
X0314100Y0086726D01*
X0314100Y0088324D02*
X0307800Y0088324D01*
X0307800Y0089923D02*
X0314759Y0089923D01*
X0315632Y0091521D02*
X0307800Y0091521D01*
X0307800Y0093120D02*
X0314990Y0093120D01*
X0314328Y0094718D02*
X0307800Y0094718D01*
X0307800Y0096317D02*
X0314100Y0096317D01*
X0314100Y0097915D02*
X0307800Y0097915D01*
X0307800Y0099514D02*
X0314590Y0099514D01*
X0315252Y0101112D02*
X0307800Y0101112D01*
X0307800Y0102711D02*
X0315159Y0102711D01*
X0314497Y0104309D02*
X0307800Y0104309D01*
X0307800Y0105908D02*
X0314100Y0105908D01*
X0314100Y0107506D02*
X0307800Y0107506D01*
X0307800Y0109105D02*
X0314420Y0109105D01*
X0315082Y0110703D02*
X0307800Y0110703D01*
X0307800Y0112302D02*
X0315409Y0112302D01*
X0314667Y0113900D02*
X0307800Y0113900D01*
X0307800Y0115499D02*
X0314100Y0115499D01*
X0314100Y0117097D02*
X0307800Y0117097D01*
X0307800Y0118696D02*
X0314251Y0118696D01*
X0314913Y0120294D02*
X0307800Y0120294D01*
X0307800Y0121893D02*
X0315818Y0121893D01*
X0314836Y0123491D02*
X0307800Y0123491D01*
X0307800Y0125090D02*
X0314174Y0125090D01*
X0314100Y0126688D02*
X0307800Y0126688D01*
X0307800Y0128287D02*
X0314100Y0128287D01*
X0314744Y0129885D02*
X0307800Y0129885D01*
X0307800Y0131484D02*
X0315594Y0131484D01*
X0315005Y0133082D02*
X0307800Y0133082D01*
X0307800Y0134681D02*
X0314343Y0134681D01*
X0314100Y0136279D02*
X0307800Y0136279D01*
X0307800Y0137878D02*
X0314100Y0137878D01*
X0314574Y0139476D02*
X0307800Y0139476D01*
X0307800Y0141075D02*
X0315236Y0141075D01*
X0315175Y0142673D02*
X0307800Y0142673D01*
X0307800Y0144272D02*
X0314513Y0144272D01*
X0314100Y0145870D02*
X0307800Y0145870D01*
X0307800Y0147469D02*
X0314100Y0147469D01*
X0314405Y0149068D02*
X0307800Y0149068D01*
X0309000Y0150666D02*
X0315067Y0150666D01*
X0316375Y0152265D02*
X0309639Y0152265D01*
X0309639Y0153863D02*
X0318731Y0153863D01*
X0319395Y0155462D02*
X0309639Y0155462D01*
X0309639Y0157060D02*
X0316650Y0157060D01*
X0315181Y0158659D02*
X0309639Y0158659D01*
X0309639Y0160257D02*
X0314519Y0160257D01*
X0314100Y0161856D02*
X0309464Y0161856D01*
X0308480Y0163454D02*
X0314100Y0163454D01*
X0314399Y0165053D02*
X0252800Y0165053D01*
X0252800Y0166651D02*
X0315061Y0166651D01*
X0314858Y0179439D02*
X0307588Y0179439D01*
X0309171Y0181038D02*
X0314196Y0181038D01*
X0314100Y0182636D02*
X0309639Y0182636D01*
X0309639Y0184235D02*
X0314100Y0184235D01*
X0314722Y0185833D02*
X0309639Y0185833D01*
X0309639Y0187432D02*
X0315542Y0187432D01*
X0315027Y0189030D02*
X0309639Y0189030D01*
X0309639Y0190629D02*
X0314365Y0190629D01*
X0314100Y0192227D02*
X0309310Y0192227D01*
X0308108Y0193826D02*
X0314100Y0193826D01*
X0314553Y0195424D02*
X0307800Y0195424D01*
X0307800Y0197023D02*
X0315215Y0197023D01*
X0315196Y0198621D02*
X0307800Y0198621D01*
X0307800Y0200220D02*
X0314534Y0200220D01*
X0314100Y0201818D02*
X0307800Y0201818D01*
X0307800Y0203417D02*
X0314100Y0203417D01*
X0314383Y0205015D02*
X0307800Y0205015D01*
X0307800Y0206614D02*
X0315045Y0206614D01*
X0315498Y0208212D02*
X0307800Y0208212D01*
X0307800Y0209811D02*
X0314704Y0209811D01*
X0314100Y0211409D02*
X0307800Y0211409D01*
X0307800Y0213008D02*
X0314100Y0213008D01*
X0314214Y0214606D02*
X0307800Y0214606D01*
X0307800Y0216205D02*
X0314876Y0216205D01*
X0315907Y0217803D02*
X0307800Y0217803D01*
X0307800Y0219402D02*
X0314873Y0219402D01*
X0314211Y0221001D02*
X0307800Y0221001D01*
X0307800Y0222599D02*
X0314100Y0222599D01*
X0314100Y0224198D02*
X0307800Y0224198D01*
X0307800Y0225796D02*
X0314707Y0225796D01*
X0315505Y0227395D02*
X0307800Y0227395D01*
X0307800Y0228993D02*
X0315042Y0228993D01*
X0314380Y0230592D02*
X0307800Y0230592D01*
X0307800Y0232190D02*
X0314100Y0232190D01*
X0314100Y0233789D02*
X0307800Y0233789D01*
X0307800Y0235387D02*
X0314537Y0235387D01*
X0315199Y0236986D02*
X0307800Y0236986D01*
X0307800Y0238584D02*
X0315212Y0238584D01*
X0314550Y0240183D02*
X0307800Y0240183D01*
X0307800Y0241781D02*
X0314100Y0241781D01*
X0314100Y0243380D02*
X0307800Y0243380D01*
X0307800Y0244978D02*
X0314368Y0244978D01*
X0315030Y0246577D02*
X0307800Y0246577D01*
X0307800Y0248175D02*
X0315535Y0248175D01*
X0314719Y0249774D02*
X0307800Y0249774D01*
X0307800Y0251372D02*
X0314100Y0251372D01*
X0314100Y0252971D02*
X0307800Y0252971D01*
X0307800Y0254569D02*
X0314198Y0254569D01*
X0314861Y0256168D02*
X0307800Y0256168D01*
X0307800Y0257766D02*
X0315877Y0257766D01*
X0317528Y0259365D02*
X0307232Y0259365D01*
X0334500Y0265759D02*
X0012400Y0265759D01*
X0012400Y0267357D02*
X0334500Y0267357D01*
X0334500Y0268956D02*
X0012400Y0268956D01*
X0012400Y0270554D02*
X0334500Y0270554D01*
X0333967Y0272153D02*
X0012400Y0272153D01*
X0012400Y0273751D02*
X0333961Y0273751D01*
X0349100Y0270554D02*
X0360531Y0270554D01*
X0360531Y0268956D02*
X0349100Y0268956D01*
X0349100Y0267357D02*
X0360531Y0267357D01*
X0360531Y0265759D02*
X0349100Y0265759D01*
X0349100Y0264160D02*
X0360531Y0264160D01*
X0360531Y0262562D02*
X0349100Y0262562D01*
X0349100Y0260963D02*
X0360531Y0260963D01*
X0360531Y0259365D02*
X0349100Y0259365D01*
X0349100Y0257766D02*
X0360531Y0257766D01*
X0360531Y0256168D02*
X0349100Y0256168D01*
X0349100Y0254569D02*
X0360531Y0254569D01*
X0360531Y0252971D02*
X0349100Y0252971D01*
X0349100Y0251372D02*
X0360531Y0251372D01*
X0360531Y0249774D02*
X0349100Y0249774D01*
X0349100Y0248175D02*
X0360531Y0248175D01*
X0360531Y0246577D02*
X0349100Y0246577D01*
X0349100Y0244978D02*
X0360531Y0244978D01*
X0360531Y0243380D02*
X0349100Y0243380D01*
X0349100Y0241781D02*
X0360531Y0241781D01*
X0360531Y0240183D02*
X0349100Y0240183D01*
X0349100Y0238584D02*
X0360531Y0238584D01*
X0360531Y0236986D02*
X0349100Y0236986D01*
X0349100Y0235387D02*
X0360531Y0235387D01*
X0360531Y0233789D02*
X0349100Y0233789D01*
X0349100Y0232190D02*
X0360531Y0232190D01*
X0360531Y0230592D02*
X0349100Y0230592D01*
X0349100Y0228993D02*
X0360531Y0228993D01*
X0360531Y0227395D02*
X0349100Y0227395D01*
X0349100Y0225796D02*
X0360531Y0225796D01*
X0360531Y0224198D02*
X0349100Y0224198D01*
X0349100Y0222599D02*
X0360531Y0222599D01*
X0360531Y0221001D02*
X0349100Y0221001D01*
X0349100Y0219402D02*
X0360531Y0219402D01*
X0360531Y0217803D02*
X0349100Y0217803D01*
X0349100Y0216205D02*
X0360531Y0216205D01*
X0360531Y0214606D02*
X0349100Y0214606D01*
X0349100Y0213008D02*
X0360531Y0213008D01*
X0360531Y0211409D02*
X0349100Y0211409D01*
X0349100Y0209811D02*
X0360531Y0209811D01*
X0360531Y0208212D02*
X0349100Y0208212D01*
X0349100Y0206614D02*
X0360531Y0206614D01*
X0360531Y0205015D02*
X0349100Y0205015D01*
X0349100Y0203417D02*
X0360531Y0203417D01*
X0360531Y0201818D02*
X0349100Y0201818D01*
X0349100Y0200220D02*
X0360531Y0200220D01*
X0360531Y0198621D02*
X0349100Y0198621D01*
X0349477Y0197023D02*
X0360531Y0197023D01*
X0360531Y0195424D02*
X0350875Y0195424D01*
X0351538Y0193826D02*
X0360531Y0193826D01*
X0360531Y0192227D02*
X0351800Y0192227D01*
X0351800Y0190629D02*
X0360531Y0190629D01*
X0360531Y0189030D02*
X0351229Y0189030D01*
X0350331Y0187432D02*
X0360531Y0187432D01*
X0360531Y0185833D02*
X0348687Y0185833D01*
X0348947Y0184235D02*
X0360531Y0184235D01*
X0360531Y0182636D02*
X0349527Y0182636D01*
X0349600Y0181600D02*
X0342000Y0181600D01*
X0342000Y0177000D01*
X0345178Y0177000D01*
X0345924Y0177118D01*
X0346643Y0177352D01*
X0347316Y0177695D01*
X0347927Y0178139D01*
X0348461Y0178673D01*
X0348905Y0179284D01*
X0349248Y0179957D01*
X0349482Y0180676D01*
X0349600Y0181422D01*
X0349600Y0181600D01*
X0349539Y0181038D02*
X0360531Y0181038D01*
X0360531Y0179439D02*
X0348984Y0179439D01*
X0347517Y0177841D02*
X0360531Y0177841D01*
X0346800Y0181800D02*
X0341800Y0181800D01*
X0341600Y0181038D02*
X0342000Y0181038D01*
X0342000Y0179439D02*
X0341600Y0179439D01*
X0341600Y0177841D02*
X0342000Y0177841D01*
X0284429Y0181038D02*
X0138379Y0181038D01*
X0138410Y0182636D02*
X0283961Y0182636D01*
X0283961Y0184235D02*
X0139072Y0184235D01*
X0139500Y0185833D02*
X0283961Y0185833D01*
X0283961Y0187432D02*
X0139500Y0187432D01*
X0139211Y0189030D02*
X0283961Y0189030D01*
X0283961Y0190629D02*
X0138548Y0190629D01*
X0138117Y0192227D02*
X0284290Y0192227D01*
X0285492Y0193826D02*
X0138902Y0193826D01*
X0139500Y0195424D02*
X0285800Y0195424D01*
X0285800Y0197023D02*
X0139500Y0197023D01*
X0139380Y0198621D02*
X0285800Y0198621D01*
X0285800Y0200220D02*
X0138718Y0200220D01*
X0137708Y0201818D02*
X0285800Y0201818D01*
X0285800Y0203417D02*
X0138733Y0203417D01*
X0139395Y0205015D02*
X0285800Y0205015D01*
X0285800Y0206614D02*
X0139500Y0206614D01*
X0139500Y0208212D02*
X0285800Y0208212D01*
X0285800Y0209811D02*
X0138887Y0209811D01*
X0138080Y0211409D02*
X0285800Y0211409D01*
X0285800Y0213008D02*
X0138564Y0213008D01*
X0139226Y0214606D02*
X0285800Y0214606D01*
X0349633Y0272153D02*
X0360531Y0272153D01*
X0360531Y0273751D02*
X0349639Y0273751D01*
X0349639Y0275350D02*
X0360531Y0275350D01*
X0360531Y0276948D02*
X0349639Y0276948D01*
X0349639Y0278547D02*
X0360531Y0278547D01*
X0360531Y0280145D02*
X0349639Y0280145D01*
X0349510Y0281744D02*
X0360531Y0281744D01*
X0360531Y0283342D02*
X0348592Y0283342D01*
X0360531Y0364867D02*
X0012400Y0364867D01*
X0012400Y0260963D02*
X0012478Y0260963D01*
X0056299Y0219402D02*
X0059500Y0219402D01*
X0059500Y0217803D02*
X0056800Y0217803D01*
X0056800Y0216205D02*
X0059500Y0216205D01*
X0059500Y0214606D02*
X0056468Y0214606D01*
X0055806Y0213008D02*
X0059500Y0213008D01*
X0093889Y0173045D02*
X0095800Y0173045D01*
X0095800Y0171447D02*
X0094633Y0171447D01*
X0094639Y0169848D02*
X0095800Y0169848D01*
X0095800Y0168250D02*
X0094639Y0168250D01*
X0094639Y0166651D02*
X0095800Y0166651D01*
X0095800Y0165053D02*
X0094639Y0165053D01*
X0094639Y0163454D02*
X0095800Y0163454D01*
X0095800Y0161856D02*
X0094510Y0161856D01*
X0093591Y0160257D02*
X0095800Y0160257D01*
X0095800Y0158659D02*
X0081607Y0158659D01*
X0081800Y0157060D02*
X0095800Y0157060D01*
X0095800Y0155462D02*
X0081800Y0155462D01*
X0081160Y0153863D02*
X0095800Y0153863D01*
X0095800Y0110703D02*
X0094639Y0110703D01*
X0094639Y0109105D02*
X0095800Y0109105D01*
X0095800Y0107506D02*
X0094639Y0107506D01*
X0094639Y0105908D02*
X0095800Y0105908D01*
X0095800Y0104309D02*
X0094639Y0104309D01*
X0094639Y0102711D02*
X0095800Y0102711D01*
X0095800Y0101112D02*
X0094639Y0101112D01*
X0094639Y0099514D02*
X0095800Y0099514D01*
X0095800Y0097915D02*
X0094639Y0097915D01*
X0094639Y0096317D02*
X0095800Y0096317D01*
X0095800Y0094718D02*
X0094639Y0094718D01*
X0094639Y0093120D02*
X0095800Y0093120D01*
X0095800Y0091521D02*
X0094603Y0091521D01*
X0094639Y0089923D02*
X0095800Y0089923D01*
X0095800Y0088324D02*
X0094639Y0088324D01*
X0094639Y0086726D02*
X0095800Y0086726D01*
X0095800Y0085127D02*
X0094639Y0085127D01*
X0094639Y0083529D02*
X0095800Y0083529D01*
X0095800Y0081930D02*
X0094541Y0081930D01*
X0094639Y0080332D02*
X0095800Y0080332D01*
X0095800Y0078733D02*
X0094639Y0078733D01*
X0094639Y0077134D02*
X0095800Y0077134D01*
X0095829Y0075536D02*
X0094639Y0075536D01*
X0094639Y0073937D02*
X0096491Y0073937D01*
X0097776Y0072339D02*
X0094639Y0072339D01*
X0094639Y0070740D02*
X0126970Y0070740D01*
X0130167Y0069142D02*
X0094639Y0069142D01*
X0094639Y0067543D02*
X0244500Y0067543D01*
X0244500Y0065945D02*
X0094639Y0065945D01*
X0094639Y0064346D02*
X0244500Y0064346D01*
X0244500Y0062748D02*
X0094639Y0062748D01*
X0094218Y0061149D02*
X0244500Y0061149D01*
X0244500Y0059551D02*
X0092857Y0059551D01*
X0081800Y0057952D02*
X0244500Y0057952D01*
X0244500Y0056354D02*
X0081800Y0056354D01*
X0081530Y0054755D02*
X0244500Y0054755D01*
X0244500Y0069142D02*
X0133433Y0069142D01*
X0136630Y0070740D02*
X0244500Y0070740D01*
X0244500Y0072339D02*
X0138228Y0072339D01*
X0138949Y0073937D02*
X0244500Y0073937D01*
X0244500Y0075536D02*
X0139500Y0075536D01*
X0139500Y0077134D02*
X0244500Y0077134D01*
X0244500Y0078733D02*
X0139334Y0078733D01*
X0138672Y0080332D02*
X0244500Y0080332D01*
X0244500Y0081930D02*
X0137819Y0081930D01*
X0138779Y0083529D02*
X0244500Y0083529D01*
X0244500Y0085127D02*
X0139441Y0085127D01*
X0139500Y0086726D02*
X0244500Y0086726D01*
X0244500Y0088324D02*
X0139500Y0088324D01*
X0138841Y0089923D02*
X0244500Y0089923D01*
X0244500Y0091521D02*
X0137968Y0091521D01*
X0138610Y0093120D02*
X0244500Y0093120D01*
X0244500Y0094718D02*
X0139272Y0094718D01*
X0139500Y0096317D02*
X0244500Y0096317D01*
X0244500Y0097915D02*
X0139500Y0097915D01*
X0139010Y0099514D02*
X0244500Y0099514D01*
X0244500Y0101112D02*
X0138348Y0101112D01*
X0138441Y0102711D02*
X0244500Y0102711D01*
X0244500Y0104309D02*
X0139103Y0104309D01*
X0109823Y0053157D02*
X0080868Y0053157D01*
X0079458Y0051558D02*
X0109013Y0051558D01*
X0108961Y0049960D02*
X0078428Y0049960D01*
X0079340Y0048361D02*
X0108961Y0048361D01*
X0108961Y0046763D02*
X0072000Y0046763D01*
X0071600Y0046763D02*
X0047800Y0046763D01*
X0047800Y0048361D02*
X0064260Y0048361D01*
X0064352Y0048643D02*
X0064118Y0047924D01*
X0064000Y0047178D01*
X0064000Y0047000D01*
X0071600Y0047000D01*
X0071600Y0046600D01*
X0064000Y0046600D01*
X0064000Y0046422D01*
X0064118Y0045676D01*
X0064352Y0044957D01*
X0064695Y0044284D01*
X0065139Y0043673D01*
X0065673Y0043139D01*
X0066139Y0042800D01*
X0047800Y0042800D01*
X0047800Y0048961D01*
X0056434Y0048961D01*
X0057734Y0049500D01*
X0064829Y0049500D01*
X0064695Y0049316D01*
X0064352Y0048643D01*
X0064284Y0045164D02*
X0047800Y0045164D01*
X0047800Y0043566D02*
X0065246Y0043566D01*
X0078354Y0043566D02*
X0108961Y0043566D01*
X0108961Y0045164D02*
X0079316Y0045164D01*
X0204897Y0107506D02*
X0208703Y0107506D01*
X0214897Y0107506D02*
X0218703Y0107506D01*
X0224897Y0107506D02*
X0228703Y0107506D01*
X0227190Y0125090D02*
X0226410Y0125090D01*
X0217190Y0125090D02*
X0216410Y0125090D01*
X0207190Y0125090D02*
X0206410Y0125090D01*
X0205615Y0217803D02*
X0207985Y0217803D01*
X0215615Y0217803D02*
X0217985Y0217803D01*
X0217488Y0235387D02*
X0216112Y0235387D01*
X0207488Y0235387D02*
X0206112Y0235387D01*
X0307800Y0067543D02*
X0360531Y0067543D01*
X0360531Y0065945D02*
X0307800Y0065945D01*
X0307800Y0064346D02*
X0360531Y0064346D01*
X0360531Y0062748D02*
X0307800Y0062748D01*
X0307800Y0061149D02*
X0360531Y0061149D01*
X0360531Y0059551D02*
X0307800Y0059551D01*
X0307800Y0057952D02*
X0360531Y0057952D01*
X0360531Y0056354D02*
X0307800Y0056354D01*
X0307800Y0054755D02*
X0360531Y0054755D01*
X0360531Y0053157D02*
X0307800Y0053157D01*
X0307800Y0051558D02*
X0360531Y0051558D01*
X0360531Y0049960D02*
X0307800Y0049960D01*
X0307800Y0048361D02*
X0360531Y0048361D01*
X0360531Y0046763D02*
X0307800Y0046763D01*
X0307800Y0045164D02*
X0360531Y0045164D01*
X0360531Y0043566D02*
X0307800Y0043566D01*
X0307800Y0041967D02*
X0360531Y0041967D01*
X0360531Y0040369D02*
X0307800Y0040369D01*
X0307800Y0038770D02*
X0360531Y0038770D01*
X0360531Y0037172D02*
X0308394Y0037172D01*
X0308800Y0035573D02*
X0360531Y0035573D01*
X0360531Y0033975D02*
X0308800Y0033975D01*
X0308800Y0032376D02*
X0348387Y0032376D01*
X0345151Y0030778D02*
X0308800Y0030778D01*
X0308800Y0029179D02*
X0343483Y0029179D01*
X0342321Y0027581D02*
X0308800Y0027581D01*
X0308210Y0025982D02*
X0341430Y0025982D01*
X0341002Y0024384D02*
X0307283Y0024384D01*
X0305571Y0022785D02*
X0340701Y0022785D01*
X0355213Y0032376D02*
X0360531Y0032376D01*
X0360531Y0030778D02*
X0358449Y0030778D01*
X0360117Y0029179D02*
X0360531Y0029179D01*
X0298029Y0022785D02*
X0295571Y0022785D01*
D13*
X0251800Y0116800D03*
X0291800Y0156800D03*
X0301800Y0156800D03*
X0301800Y0186800D03*
X0291800Y0186800D03*
X0266800Y0226800D03*
X0341800Y0276800D03*
X0116800Y0046800D03*
X0086800Y0066800D03*
X0086800Y0076800D03*
X0086800Y0086800D03*
X0086800Y0096800D03*
X0086800Y0106800D03*
X0051800Y0056800D03*
X0086800Y0166800D03*
X0051800Y0176800D03*
D14*
X0036800Y0156800D02*
X0071800Y0156800D01*
X0071800Y0146800D02*
X0101800Y0146800D01*
X0101800Y0216800D01*
X0081800Y0216800D01*
X0081800Y0246800D02*
X0291800Y0246800D01*
X0291800Y0186800D01*
X0301800Y0186800D02*
X0301800Y0256800D01*
X0081800Y0256800D01*
X0076800Y0281800D02*
X0291800Y0281800D01*
X0291800Y0341800D01*
X0301800Y0341800D02*
X0301800Y0356800D01*
X0026800Y0356800D01*
X0026800Y0291800D01*
X0041800Y0291800D01*
X0041800Y0301800D02*
X0076800Y0301800D01*
X0076800Y0281800D01*
X0086800Y0291800D02*
X0181800Y0291800D01*
X0181800Y0341800D01*
X0171800Y0341800D02*
X0171800Y0301800D01*
X0086800Y0301800D01*
X0046800Y0256800D02*
X0016800Y0256800D01*
X0016800Y0136800D01*
X0031800Y0136800D01*
X0031800Y0026800D01*
X0196800Y0026800D01*
X0196800Y0036800D02*
X0041800Y0036800D01*
X0041800Y0146800D01*
X0026800Y0146800D01*
X0026800Y0246800D01*
X0046800Y0246800D01*
X0046800Y0216800D02*
X0036800Y0216800D01*
X0036800Y0156800D01*
X0071800Y0136800D02*
X0246800Y0136800D01*
X0246800Y0171800D01*
X0246800Y0172800D01*
X0321800Y0172800D01*
X0301800Y0156800D02*
X0301800Y0031800D01*
X0291800Y0031800D02*
X0291800Y0156800D01*
X0131800Y0086800D02*
X0111800Y0086800D01*
X0111800Y0126800D01*
X0071800Y0126800D01*
X0071800Y0116800D02*
X0101800Y0116800D01*
X0101800Y0076800D01*
X0131800Y0076800D01*
X0086800Y0076800D02*
X0071800Y0076800D01*
X0071800Y0086800D02*
X0086800Y0086800D01*
X0086800Y0096800D02*
X0071800Y0096800D01*
X0071800Y0106800D02*
X0086800Y0106800D01*
X0086800Y0066800D02*
X0071800Y0066800D01*
D15*
X0071800Y0056800D02*
X0051800Y0056800D01*
X0051800Y0141800D01*
X0071800Y0166800D02*
X0086800Y0166800D01*
X0066800Y0191800D02*
X0066800Y0226800D01*
X0081800Y0226800D01*
X0066800Y0226800D02*
X0046800Y0226800D01*
X0051800Y0191800D02*
X0066800Y0191800D01*
X0051800Y0191800D02*
X0051800Y0176800D01*
X0116800Y0046800D02*
X0251800Y0046800D01*
X0251800Y0116800D01*
X0341800Y0191800D02*
X0341800Y0276800D01*
D16*
X0051800Y0141800D03*
M02*
