G75*
%MOIN*%
%OFA0B0*%
%FSLAX25Y25*%
%IPPOS*%
%LPD*%
%AMOC8*
5,1,8,0,0,1.08239X$1,22.5*
%
%ADD10C,0.01600*%
%ADD11C,0.00000*%
%ADD12C,0.06000*%
%ADD13C,0.07400*%
%ADD14C,0.04000*%
%ADD15R,0.07677X0.07677*%
%ADD16C,0.06600*%
%ADD17R,0.06600X0.06600*%
D10*
X0006800Y0006800D02*
X0006800Y0371131D01*
X0366131Y0371131D01*
X0366131Y0006800D01*
X0006800Y0006800D01*
X0012400Y0027717D02*
X0012400Y0365531D01*
X0360531Y0365531D01*
X0360531Y0028766D01*
X0358615Y0030682D01*
X0356084Y0032143D01*
X0353261Y0032899D01*
X0350339Y0032899D01*
X0347516Y0032143D01*
X0344985Y0030682D01*
X0342918Y0028615D01*
X0341457Y0026084D01*
X0340701Y0023261D01*
X0340701Y0020339D01*
X0341457Y0017516D01*
X0342918Y0014985D01*
X0344985Y0012918D01*
X0345883Y0012400D01*
X0027717Y0012400D01*
X0028615Y0012918D01*
X0030682Y0014985D01*
X0032143Y0017516D01*
X0032899Y0020339D01*
X0032899Y0023261D01*
X0032143Y0026084D01*
X0030682Y0028615D01*
X0028615Y0030682D01*
X0026084Y0032143D01*
X0023261Y0032899D01*
X0020339Y0032899D01*
X0017516Y0032143D01*
X0014985Y0030682D01*
X0012918Y0028615D01*
X0012400Y0027717D01*
X0012400Y0029179D02*
X0013483Y0029179D01*
X0012400Y0030778D02*
X0015151Y0030778D01*
X0012400Y0032376D02*
X0018387Y0032376D01*
X0012400Y0033975D02*
X0044500Y0033975D01*
X0044500Y0035573D02*
X0012400Y0035573D01*
X0012400Y0037172D02*
X0044500Y0037172D01*
X0044500Y0038770D02*
X0012400Y0038770D01*
X0012400Y0040369D02*
X0044500Y0040369D01*
X0044500Y0041967D02*
X0012400Y0041967D01*
X0012400Y0043566D02*
X0044500Y0043566D01*
X0044500Y0045164D02*
X0012400Y0045164D01*
X0012400Y0046763D02*
X0044500Y0046763D01*
X0044500Y0048361D02*
X0012400Y0048361D01*
X0012400Y0049960D02*
X0044500Y0049960D01*
X0044500Y0050866D02*
X0044500Y0020348D01*
X0045611Y0017665D01*
X0047665Y0015611D01*
X0050348Y0014500D01*
X0118252Y0014500D01*
X0120935Y0015611D01*
X0122989Y0017665D01*
X0124100Y0020348D01*
X0124100Y0040866D01*
X0124297Y0041342D01*
X0125607Y0040800D01*
X0187901Y0040800D01*
X0187866Y0040765D01*
X0186800Y0038192D01*
X0186800Y0035408D01*
X0187866Y0032835D01*
X0188901Y0031800D01*
X0187866Y0030765D01*
X0186800Y0028192D01*
X0186800Y0025408D01*
X0187866Y0022835D01*
X0189835Y0020866D01*
X0192408Y0019800D01*
X0201192Y0019800D01*
X0203765Y0020866D01*
X0205734Y0022835D01*
X0206800Y0025408D01*
X0206800Y0028192D01*
X0205734Y0030765D01*
X0204699Y0031800D01*
X0205734Y0032835D01*
X0206800Y0035408D01*
X0206800Y0038192D01*
X0205734Y0040765D01*
X0205699Y0040800D01*
X0282993Y0040800D01*
X0285199Y0041713D01*
X0286887Y0043401D01*
X0287800Y0045607D01*
X0287800Y0132993D01*
X0286887Y0135199D01*
X0285199Y0136887D01*
X0282993Y0137800D01*
X0220607Y0137800D01*
X0218401Y0136887D01*
X0216713Y0135199D01*
X0215800Y0132993D01*
X0215800Y0125699D01*
X0215765Y0125734D01*
X0213192Y0126800D01*
X0210408Y0126800D01*
X0207835Y0125734D01*
X0207800Y0125699D01*
X0207800Y0137993D01*
X0206887Y0140199D01*
X0205199Y0141887D01*
X0202993Y0142800D01*
X0138478Y0142800D01*
X0139500Y0145268D01*
X0139500Y0148332D01*
X0138328Y0151162D01*
X0137689Y0151800D01*
X0138328Y0152438D01*
X0139500Y0155268D01*
X0139500Y0158332D01*
X0138328Y0161162D01*
X0137689Y0161800D01*
X0138328Y0162438D01*
X0139500Y0165268D01*
X0139500Y0168332D01*
X0138328Y0171162D01*
X0137689Y0171800D01*
X0138328Y0172438D01*
X0139500Y0175268D01*
X0139500Y0178332D01*
X0138328Y0181162D01*
X0137689Y0181800D01*
X0138328Y0182438D01*
X0139500Y0185268D01*
X0139500Y0188332D01*
X0138328Y0191162D01*
X0137689Y0191800D01*
X0138328Y0192438D01*
X0139500Y0195268D01*
X0139500Y0198332D01*
X0138328Y0201162D01*
X0137689Y0201800D01*
X0138328Y0202438D01*
X0139500Y0205268D01*
X0139500Y0208332D01*
X0138328Y0211162D01*
X0137689Y0211800D01*
X0138328Y0212438D01*
X0139500Y0215268D01*
X0139500Y0218332D01*
X0138328Y0221162D01*
X0136162Y0223328D01*
X0133332Y0224500D01*
X0130268Y0224500D01*
X0127438Y0223328D01*
X0125272Y0221162D01*
X0124100Y0218332D01*
X0124100Y0215268D01*
X0125272Y0212438D01*
X0125911Y0211800D01*
X0125272Y0211162D01*
X0124100Y0208332D01*
X0124100Y0205268D01*
X0125272Y0202438D01*
X0125911Y0201800D01*
X0125272Y0201162D01*
X0124100Y0198332D01*
X0124100Y0195268D01*
X0125272Y0192438D01*
X0125911Y0191800D01*
X0125272Y0191162D01*
X0124100Y0188332D01*
X0124100Y0185268D01*
X0125272Y0182438D01*
X0125911Y0181800D01*
X0125272Y0181162D01*
X0124100Y0178332D01*
X0124100Y0175268D01*
X0125272Y0172438D01*
X0125911Y0171800D01*
X0125272Y0171162D01*
X0124100Y0168332D01*
X0124100Y0165268D01*
X0125272Y0162438D01*
X0125911Y0161800D01*
X0125272Y0161162D01*
X0124100Y0158332D01*
X0124100Y0155268D01*
X0125272Y0152438D01*
X0125911Y0151800D01*
X0125272Y0151162D01*
X0124100Y0148332D01*
X0124100Y0145268D01*
X0125122Y0142800D01*
X0115607Y0142800D01*
X0113401Y0141887D01*
X0112800Y0141285D01*
X0112800Y0235800D01*
X0195800Y0235800D01*
X0195800Y0233607D01*
X0194800Y0231192D01*
X0194800Y0222408D01*
X0195866Y0219835D01*
X0197835Y0217866D01*
X0200408Y0216800D01*
X0203192Y0216800D01*
X0205765Y0217866D01*
X0206800Y0218901D01*
X0207835Y0217866D01*
X0210408Y0216800D01*
X0213192Y0216800D01*
X0215765Y0217866D01*
X0216800Y0218901D01*
X0217835Y0217866D01*
X0220408Y0216800D01*
X0223192Y0216800D01*
X0225765Y0217866D01*
X0227734Y0219835D01*
X0228102Y0220723D01*
X0228139Y0220673D01*
X0228673Y0220139D01*
X0229284Y0219695D01*
X0229957Y0219352D01*
X0230676Y0219118D01*
X0231422Y0219000D01*
X0231600Y0219000D01*
X0231600Y0226600D01*
X0232000Y0226600D01*
X0232000Y0227000D01*
X0231600Y0227000D01*
X0231600Y0234600D01*
X0231422Y0234600D01*
X0230676Y0234482D01*
X0229957Y0234248D01*
X0229284Y0233905D01*
X0228673Y0233461D01*
X0228139Y0232927D01*
X0228102Y0232877D01*
X0227734Y0233765D01*
X0225765Y0235734D01*
X0223192Y0236800D01*
X0220408Y0236800D01*
X0217835Y0235734D01*
X0217800Y0235699D01*
X0217800Y0252993D01*
X0216887Y0255199D01*
X0215199Y0256887D01*
X0212993Y0257800D01*
X0210607Y0257800D01*
X0097993Y0257800D01*
X0095607Y0257800D01*
X0093401Y0256887D01*
X0091713Y0255199D01*
X0091800Y0255408D01*
X0091800Y0258192D01*
X0090734Y0260765D01*
X0088765Y0262734D01*
X0086192Y0263800D01*
X0077408Y0263800D01*
X0074835Y0262734D01*
X0074100Y0261999D01*
X0074100Y0349500D01*
X0166601Y0349500D01*
X0165866Y0348765D01*
X0164800Y0346192D01*
X0164800Y0337408D01*
X0165866Y0334835D01*
X0167835Y0332866D01*
X0170408Y0331800D01*
X0173192Y0331800D01*
X0175765Y0332866D01*
X0176800Y0333901D01*
X0177835Y0332866D01*
X0180408Y0331800D01*
X0183192Y0331800D01*
X0185765Y0332866D01*
X0187734Y0334835D01*
X0188800Y0337408D01*
X0188800Y0346192D01*
X0187734Y0348765D01*
X0186999Y0349500D01*
X0201756Y0349500D01*
X0199768Y0347513D01*
X0198307Y0344982D01*
X0197551Y0342159D01*
X0197551Y0339236D01*
X0198307Y0336413D01*
X0199768Y0333883D01*
X0201835Y0331816D01*
X0204366Y0330355D01*
X0207189Y0329598D01*
X0210111Y0329598D01*
X0212934Y0330355D01*
X0215465Y0331816D01*
X0217532Y0333883D01*
X0218993Y0336413D01*
X0219749Y0339236D01*
X0219749Y0342159D01*
X0218993Y0344982D01*
X0217532Y0347513D01*
X0215544Y0349500D01*
X0286601Y0349500D01*
X0285866Y0348765D01*
X0284800Y0346192D01*
X0284800Y0337408D01*
X0285866Y0334835D01*
X0287835Y0332866D01*
X0290408Y0331800D01*
X0293192Y0331800D01*
X0295765Y0332866D01*
X0296800Y0333901D01*
X0297835Y0332866D01*
X0300408Y0331800D01*
X0303192Y0331800D01*
X0305765Y0332866D01*
X0307734Y0334835D01*
X0308800Y0337408D01*
X0308800Y0346192D01*
X0307734Y0348765D01*
X0306999Y0349500D01*
X0334500Y0349500D01*
X0334500Y0282734D01*
X0333961Y0281434D01*
X0333961Y0272166D01*
X0334570Y0270696D01*
X0335696Y0269570D01*
X0337166Y0268961D01*
X0346434Y0268961D01*
X0347904Y0269570D01*
X0349030Y0270696D01*
X0349639Y0272166D01*
X0349639Y0281434D01*
X0349100Y0282734D01*
X0349100Y0358252D01*
X0347989Y0360935D01*
X0345935Y0362989D01*
X0343252Y0364100D01*
X0065348Y0364100D01*
X0062665Y0362989D01*
X0060611Y0360935D01*
X0059500Y0358252D01*
X0059500Y0195348D01*
X0060611Y0192665D01*
X0062665Y0190611D01*
X0065348Y0189500D01*
X0079500Y0189500D01*
X0079500Y0177809D01*
X0079482Y0177924D01*
X0079248Y0178643D01*
X0078905Y0179316D01*
X0078461Y0179927D01*
X0077927Y0180461D01*
X0077316Y0180905D01*
X0076643Y0181248D01*
X0075924Y0181482D01*
X0075178Y0181600D01*
X0072000Y0181600D01*
X0072000Y0177000D01*
X0071600Y0177000D01*
X0071600Y0181600D01*
X0068422Y0181600D01*
X0067676Y0181482D01*
X0066957Y0181248D01*
X0066284Y0180905D01*
X0065673Y0180461D01*
X0065139Y0179927D01*
X0064695Y0179316D01*
X0064352Y0178643D01*
X0064118Y0177924D01*
X0064000Y0177178D01*
X0064000Y0177000D01*
X0071600Y0177000D01*
X0071600Y0176600D01*
X0064000Y0176600D01*
X0064000Y0176422D01*
X0064118Y0175676D01*
X0064352Y0174957D01*
X0064695Y0174284D01*
X0065139Y0173673D01*
X0065673Y0173139D01*
X0065723Y0173102D01*
X0064835Y0172734D01*
X0062866Y0170765D01*
X0061800Y0168192D01*
X0061800Y0165408D01*
X0062866Y0162835D01*
X0063901Y0161800D01*
X0062866Y0160765D01*
X0061800Y0158192D01*
X0061800Y0155408D01*
X0062866Y0152835D01*
X0063901Y0151800D01*
X0062866Y0150765D01*
X0061800Y0148192D01*
X0061800Y0145408D01*
X0062866Y0142835D01*
X0063901Y0141800D01*
X0062866Y0140765D01*
X0061800Y0138192D01*
X0061800Y0135408D01*
X0062866Y0132835D01*
X0063901Y0131800D01*
X0062866Y0130765D01*
X0061800Y0128192D01*
X0061800Y0125408D01*
X0062866Y0122835D01*
X0063901Y0121800D01*
X0062866Y0120765D01*
X0061800Y0118192D01*
X0061800Y0115408D01*
X0062866Y0112835D01*
X0063901Y0111800D01*
X0062866Y0110765D01*
X0061800Y0108192D01*
X0061800Y0105408D01*
X0062866Y0102835D01*
X0063901Y0101800D01*
X0062866Y0100765D01*
X0061800Y0098192D01*
X0061800Y0095408D01*
X0062866Y0092835D01*
X0063901Y0091800D01*
X0062866Y0090765D01*
X0061800Y0088192D01*
X0061800Y0085408D01*
X0062866Y0082835D01*
X0063901Y0081800D01*
X0062866Y0080765D01*
X0061800Y0078192D01*
X0061800Y0075408D01*
X0062866Y0072835D01*
X0063901Y0071800D01*
X0062866Y0070765D01*
X0061800Y0068192D01*
X0061800Y0065408D01*
X0062866Y0062835D01*
X0063901Y0061800D01*
X0062866Y0060765D01*
X0061800Y0058192D01*
X0061800Y0055408D01*
X0062866Y0052835D01*
X0064835Y0050866D01*
X0065723Y0050498D01*
X0065673Y0050461D01*
X0065139Y0049927D01*
X0064695Y0049316D01*
X0064352Y0048643D01*
X0064118Y0047924D01*
X0064000Y0047178D01*
X0064000Y0047000D01*
X0071600Y0047000D01*
X0071600Y0046600D01*
X0072000Y0046600D01*
X0072000Y0047000D01*
X0079600Y0047000D01*
X0079600Y0047178D01*
X0079482Y0047924D01*
X0079248Y0048643D01*
X0078905Y0049316D01*
X0078461Y0049927D01*
X0077927Y0050461D01*
X0077877Y0050498D01*
X0078765Y0050866D01*
X0080734Y0052835D01*
X0081341Y0054300D01*
X0081713Y0053401D01*
X0083401Y0051713D01*
X0085607Y0050800D01*
X0108961Y0050800D01*
X0108961Y0042166D01*
X0109500Y0040866D01*
X0109500Y0029100D01*
X0059100Y0029100D01*
X0059100Y0050866D01*
X0059639Y0052166D01*
X0059639Y0061434D01*
X0059030Y0062904D01*
X0057904Y0064030D01*
X0056434Y0064639D01*
X0047166Y0064639D01*
X0045696Y0064030D01*
X0044570Y0062904D01*
X0043961Y0061434D01*
X0043961Y0052166D01*
X0044500Y0050866D01*
X0044213Y0051558D02*
X0012400Y0051558D01*
X0012400Y0053157D02*
X0043961Y0053157D01*
X0043961Y0054755D02*
X0012400Y0054755D01*
X0012400Y0056354D02*
X0043961Y0056354D01*
X0043961Y0057952D02*
X0012400Y0057952D01*
X0012400Y0059551D02*
X0043961Y0059551D01*
X0043961Y0061149D02*
X0012400Y0061149D01*
X0012400Y0062748D02*
X0044506Y0062748D01*
X0046460Y0064346D02*
X0012400Y0064346D01*
X0012400Y0065945D02*
X0061800Y0065945D01*
X0061800Y0067543D02*
X0012400Y0067543D01*
X0012400Y0069142D02*
X0062193Y0069142D01*
X0062855Y0070740D02*
X0012400Y0070740D01*
X0012400Y0072339D02*
X0063362Y0072339D01*
X0062409Y0073937D02*
X0012400Y0073937D01*
X0012400Y0075536D02*
X0061800Y0075536D01*
X0061800Y0077134D02*
X0012400Y0077134D01*
X0012400Y0078733D02*
X0062024Y0078733D01*
X0062686Y0080332D02*
X0012400Y0080332D01*
X0012400Y0081930D02*
X0063770Y0081930D01*
X0062578Y0083529D02*
X0012400Y0083529D01*
X0012400Y0085127D02*
X0061916Y0085127D01*
X0061800Y0086726D02*
X0012400Y0086726D01*
X0012400Y0088324D02*
X0061855Y0088324D01*
X0062517Y0089923D02*
X0012400Y0089923D01*
X0012400Y0091521D02*
X0063622Y0091521D01*
X0062748Y0093120D02*
X0012400Y0093120D01*
X0012400Y0094718D02*
X0062086Y0094718D01*
X0061800Y0096317D02*
X0012400Y0096317D01*
X0012400Y0097915D02*
X0061800Y0097915D01*
X0062347Y0099514D02*
X0012400Y0099514D01*
X0012400Y0101112D02*
X0063213Y0101112D01*
X0062990Y0102711D02*
X0012400Y0102711D01*
X0012400Y0104309D02*
X0062255Y0104309D01*
X0061800Y0105908D02*
X0012400Y0105908D01*
X0012400Y0107506D02*
X0061800Y0107506D01*
X0062178Y0109105D02*
X0012400Y0109105D01*
X0012400Y0110703D02*
X0062840Y0110703D01*
X0063399Y0112302D02*
X0012400Y0112302D01*
X0012400Y0113900D02*
X0062424Y0113900D01*
X0061800Y0115499D02*
X0012400Y0115499D01*
X0012400Y0117097D02*
X0061800Y0117097D01*
X0062009Y0118696D02*
X0012400Y0118696D01*
X0012400Y0120294D02*
X0062671Y0120294D01*
X0063808Y0121893D02*
X0012400Y0121893D01*
X0012400Y0123491D02*
X0062594Y0123491D01*
X0061932Y0125090D02*
X0012400Y0125090D01*
X0012400Y0126688D02*
X0061800Y0126688D01*
X0061839Y0128287D02*
X0012400Y0128287D01*
X0012400Y0129885D02*
X0062501Y0129885D01*
X0063584Y0131484D02*
X0012400Y0131484D01*
X0012400Y0133082D02*
X0062763Y0133082D01*
X0062101Y0134681D02*
X0056332Y0134681D01*
X0055896Y0134500D02*
X0057366Y0135109D01*
X0058491Y0136234D01*
X0059100Y0137704D01*
X0059100Y0145896D01*
X0059100Y0170866D01*
X0059639Y0172166D01*
X0059639Y0181434D01*
X0059030Y0182904D01*
X0057904Y0184030D01*
X0056434Y0184639D01*
X0047166Y0184639D01*
X0045696Y0184030D01*
X0044570Y0182904D01*
X0043961Y0181434D01*
X0043961Y0172166D01*
X0044500Y0170866D01*
X0044500Y0137704D01*
X0045109Y0136234D01*
X0046234Y0135109D01*
X0047704Y0134500D01*
X0055896Y0134500D01*
X0058510Y0136279D02*
X0061800Y0136279D01*
X0061800Y0137878D02*
X0059100Y0137878D01*
X0059100Y0139476D02*
X0062332Y0139476D01*
X0063175Y0141075D02*
X0059100Y0141075D01*
X0059100Y0142673D02*
X0063027Y0142673D01*
X0062270Y0144272D02*
X0059100Y0144272D01*
X0059100Y0145870D02*
X0061800Y0145870D01*
X0061800Y0147469D02*
X0059100Y0147469D01*
X0059100Y0149068D02*
X0062162Y0149068D01*
X0062825Y0150666D02*
X0059100Y0150666D01*
X0059100Y0152265D02*
X0063436Y0152265D01*
X0062440Y0153863D02*
X0059100Y0153863D01*
X0059100Y0155462D02*
X0061800Y0155462D01*
X0061800Y0157060D02*
X0059100Y0157060D01*
X0059100Y0158659D02*
X0061993Y0158659D01*
X0062655Y0160257D02*
X0059100Y0160257D01*
X0059100Y0161856D02*
X0063845Y0161856D01*
X0062609Y0163454D02*
X0059100Y0163454D01*
X0059100Y0165053D02*
X0061947Y0165053D01*
X0061800Y0166651D02*
X0059100Y0166651D01*
X0059100Y0168250D02*
X0061824Y0168250D01*
X0062486Y0169848D02*
X0059100Y0169848D01*
X0059341Y0171447D02*
X0063547Y0171447D01*
X0065585Y0173045D02*
X0059639Y0173045D01*
X0059639Y0174644D02*
X0064512Y0174644D01*
X0064029Y0176242D02*
X0059639Y0176242D01*
X0059639Y0177841D02*
X0064105Y0177841D01*
X0064784Y0179439D02*
X0059639Y0179439D01*
X0059639Y0181038D02*
X0066544Y0181038D01*
X0071600Y0181038D02*
X0072000Y0181038D01*
X0072000Y0179439D02*
X0071600Y0179439D01*
X0071600Y0177841D02*
X0072000Y0177841D01*
X0077056Y0181038D02*
X0079500Y0181038D01*
X0079500Y0182636D02*
X0059141Y0182636D01*
X0057409Y0184235D02*
X0079500Y0184235D01*
X0079500Y0185833D02*
X0012400Y0185833D01*
X0012400Y0184235D02*
X0046191Y0184235D01*
X0044459Y0182636D02*
X0012400Y0182636D01*
X0012400Y0181038D02*
X0043961Y0181038D01*
X0043961Y0179439D02*
X0012400Y0179439D01*
X0012400Y0177841D02*
X0043961Y0177841D01*
X0043961Y0176242D02*
X0012400Y0176242D01*
X0012400Y0174644D02*
X0043961Y0174644D01*
X0043961Y0173045D02*
X0012400Y0173045D01*
X0012400Y0171447D02*
X0044259Y0171447D01*
X0044500Y0169848D02*
X0012400Y0169848D01*
X0012400Y0168250D02*
X0044500Y0168250D01*
X0044500Y0166651D02*
X0012400Y0166651D01*
X0012400Y0165053D02*
X0044500Y0165053D01*
X0044500Y0163454D02*
X0012400Y0163454D01*
X0012400Y0161856D02*
X0044500Y0161856D01*
X0044500Y0160257D02*
X0012400Y0160257D01*
X0012400Y0158659D02*
X0044500Y0158659D01*
X0044500Y0157060D02*
X0012400Y0157060D01*
X0012400Y0155462D02*
X0044500Y0155462D01*
X0044500Y0153863D02*
X0012400Y0153863D01*
X0012400Y0152265D02*
X0044500Y0152265D01*
X0044500Y0150666D02*
X0012400Y0150666D01*
X0012400Y0149068D02*
X0044500Y0149068D01*
X0044500Y0147469D02*
X0012400Y0147469D01*
X0012400Y0145870D02*
X0044500Y0145870D01*
X0044500Y0144272D02*
X0012400Y0144272D01*
X0012400Y0142673D02*
X0044500Y0142673D01*
X0044500Y0141075D02*
X0012400Y0141075D01*
X0012400Y0139476D02*
X0044500Y0139476D01*
X0044500Y0137878D02*
X0012400Y0137878D01*
X0012400Y0136279D02*
X0045090Y0136279D01*
X0047268Y0134681D02*
X0012400Y0134681D01*
X0012400Y0187432D02*
X0079500Y0187432D01*
X0079500Y0189030D02*
X0012400Y0189030D01*
X0012400Y0190629D02*
X0062647Y0190629D01*
X0061049Y0192227D02*
X0012400Y0192227D01*
X0012400Y0193826D02*
X0060130Y0193826D01*
X0059500Y0195424D02*
X0012400Y0195424D01*
X0012400Y0197023D02*
X0059500Y0197023D01*
X0059500Y0198621D02*
X0012400Y0198621D01*
X0012400Y0200220D02*
X0041394Y0200220D01*
X0042408Y0199800D02*
X0051192Y0199800D01*
X0053765Y0200866D01*
X0055734Y0202835D01*
X0056800Y0205408D01*
X0056800Y0208192D01*
X0055734Y0210765D01*
X0054699Y0211800D01*
X0055734Y0212835D01*
X0056800Y0215408D01*
X0056800Y0218192D01*
X0055734Y0220765D01*
X0054699Y0221800D01*
X0055734Y0222835D01*
X0056800Y0225408D01*
X0056800Y0228192D01*
X0055734Y0230765D01*
X0053765Y0232734D01*
X0052877Y0233102D01*
X0052927Y0233139D01*
X0053461Y0233673D01*
X0053905Y0234284D01*
X0054248Y0234957D01*
X0054482Y0235676D01*
X0054600Y0236422D01*
X0054600Y0236600D01*
X0047000Y0236600D01*
X0047000Y0237000D01*
X0054600Y0237000D01*
X0054600Y0237178D01*
X0054482Y0237924D01*
X0054248Y0238643D01*
X0053905Y0239316D01*
X0053461Y0239927D01*
X0052927Y0240461D01*
X0052877Y0240498D01*
X0053765Y0240866D01*
X0055734Y0242835D01*
X0056800Y0245408D01*
X0056800Y0248192D01*
X0055734Y0250765D01*
X0054699Y0251800D01*
X0055734Y0252835D01*
X0056800Y0255408D01*
X0056800Y0258192D01*
X0055734Y0260765D01*
X0053765Y0262734D01*
X0051192Y0263800D01*
X0042408Y0263800D01*
X0039835Y0262734D01*
X0037866Y0260765D01*
X0036800Y0258192D01*
X0036800Y0255408D01*
X0037866Y0252835D01*
X0038901Y0251800D01*
X0037866Y0250765D01*
X0036800Y0248192D01*
X0036800Y0245408D01*
X0037866Y0242835D01*
X0039835Y0240866D01*
X0040723Y0240498D01*
X0040673Y0240461D01*
X0040139Y0239927D01*
X0039695Y0239316D01*
X0039352Y0238643D01*
X0039118Y0237924D01*
X0039000Y0237178D01*
X0039000Y0237000D01*
X0046600Y0237000D01*
X0046600Y0236600D01*
X0039000Y0236600D01*
X0039000Y0236422D01*
X0039118Y0235676D01*
X0039352Y0234957D01*
X0039695Y0234284D01*
X0040139Y0233673D01*
X0040673Y0233139D01*
X0040723Y0233102D01*
X0039835Y0232734D01*
X0037866Y0230765D01*
X0036800Y0228192D01*
X0036800Y0225408D01*
X0037866Y0222835D01*
X0038901Y0221800D01*
X0037866Y0220765D01*
X0036800Y0218192D01*
X0036800Y0215408D01*
X0037866Y0212835D01*
X0038901Y0211800D01*
X0037866Y0210765D01*
X0036800Y0208192D01*
X0036800Y0205408D01*
X0037866Y0202835D01*
X0039835Y0200866D01*
X0042408Y0199800D01*
X0038882Y0201818D02*
X0012400Y0201818D01*
X0012400Y0203417D02*
X0037625Y0203417D01*
X0036962Y0205015D02*
X0012400Y0205015D01*
X0012400Y0206614D02*
X0036800Y0206614D01*
X0036808Y0208212D02*
X0012400Y0208212D01*
X0012400Y0209811D02*
X0037470Y0209811D01*
X0038510Y0211409D02*
X0012400Y0211409D01*
X0012400Y0213008D02*
X0037794Y0213008D01*
X0037132Y0214606D02*
X0012400Y0214606D01*
X0012400Y0216205D02*
X0036800Y0216205D01*
X0036800Y0217803D02*
X0012400Y0217803D01*
X0012400Y0219402D02*
X0037301Y0219402D01*
X0038101Y0221001D02*
X0012400Y0221001D01*
X0012400Y0222599D02*
X0038101Y0222599D01*
X0037301Y0224198D02*
X0012400Y0224198D01*
X0012400Y0225796D02*
X0036800Y0225796D01*
X0036800Y0227395D02*
X0012400Y0227395D01*
X0012400Y0228993D02*
X0037132Y0228993D01*
X0037794Y0230592D02*
X0012400Y0230592D01*
X0012400Y0232190D02*
X0039291Y0232190D01*
X0040055Y0233789D02*
X0012400Y0233789D01*
X0012400Y0235387D02*
X0039212Y0235387D01*
X0039333Y0238584D02*
X0012400Y0238584D01*
X0012400Y0236986D02*
X0046600Y0236986D01*
X0047000Y0236986D02*
X0059500Y0236986D01*
X0059500Y0238584D02*
X0054267Y0238584D01*
X0053206Y0240183D02*
X0059500Y0240183D01*
X0059500Y0241781D02*
X0054681Y0241781D01*
X0055960Y0243380D02*
X0059500Y0243380D01*
X0059500Y0244978D02*
X0056622Y0244978D01*
X0056800Y0246577D02*
X0059500Y0246577D01*
X0059500Y0248175D02*
X0056800Y0248175D01*
X0056145Y0249774D02*
X0059500Y0249774D01*
X0059500Y0251372D02*
X0055127Y0251372D01*
X0055791Y0252971D02*
X0059500Y0252971D01*
X0059500Y0254569D02*
X0056453Y0254569D01*
X0056800Y0256168D02*
X0059500Y0256168D01*
X0059500Y0257766D02*
X0056800Y0257766D01*
X0056314Y0259365D02*
X0059500Y0259365D01*
X0059500Y0260963D02*
X0055536Y0260963D01*
X0053938Y0262562D02*
X0059500Y0262562D01*
X0059500Y0264160D02*
X0012400Y0264160D01*
X0012400Y0262562D02*
X0039662Y0262562D01*
X0038064Y0260963D02*
X0012400Y0260963D01*
X0012400Y0259365D02*
X0037286Y0259365D01*
X0036800Y0257766D02*
X0012400Y0257766D01*
X0012400Y0256168D02*
X0036800Y0256168D01*
X0037147Y0254569D02*
X0012400Y0254569D01*
X0012400Y0252971D02*
X0037809Y0252971D01*
X0038473Y0251372D02*
X0012400Y0251372D01*
X0012400Y0249774D02*
X0037455Y0249774D01*
X0036800Y0248175D02*
X0012400Y0248175D01*
X0012400Y0246577D02*
X0036800Y0246577D01*
X0036978Y0244978D02*
X0012400Y0244978D01*
X0012400Y0243380D02*
X0037640Y0243380D01*
X0038919Y0241781D02*
X0012400Y0241781D01*
X0012400Y0240183D02*
X0040394Y0240183D01*
X0053545Y0233789D02*
X0059500Y0233789D01*
X0059500Y0235387D02*
X0054388Y0235387D01*
X0054309Y0232190D02*
X0059500Y0232190D01*
X0059500Y0230592D02*
X0055806Y0230592D01*
X0056468Y0228993D02*
X0059500Y0228993D01*
X0059500Y0227395D02*
X0056800Y0227395D01*
X0056800Y0225796D02*
X0059500Y0225796D01*
X0059500Y0224198D02*
X0056299Y0224198D01*
X0055498Y0222599D02*
X0059500Y0222599D01*
X0059500Y0221001D02*
X0055499Y0221001D01*
X0056299Y0219402D02*
X0059500Y0219402D01*
X0059500Y0217803D02*
X0056800Y0217803D01*
X0056800Y0216205D02*
X0059500Y0216205D01*
X0059500Y0214606D02*
X0056468Y0214606D01*
X0055806Y0213008D02*
X0059500Y0213008D01*
X0059500Y0211409D02*
X0055090Y0211409D01*
X0056130Y0209811D02*
X0059500Y0209811D01*
X0059500Y0208212D02*
X0056792Y0208212D01*
X0056800Y0206614D02*
X0059500Y0206614D01*
X0059500Y0205015D02*
X0056638Y0205015D01*
X0055975Y0203417D02*
X0059500Y0203417D01*
X0059500Y0201818D02*
X0054718Y0201818D01*
X0052206Y0200220D02*
X0059500Y0200220D01*
X0078816Y0179439D02*
X0079500Y0179439D01*
X0079495Y0177841D02*
X0079500Y0177841D01*
X0112800Y0177841D02*
X0124100Y0177841D01*
X0124100Y0176242D02*
X0112800Y0176242D01*
X0112800Y0174644D02*
X0124359Y0174644D01*
X0125021Y0173045D02*
X0112800Y0173045D01*
X0112800Y0171447D02*
X0125557Y0171447D01*
X0124728Y0169848D02*
X0112800Y0169848D01*
X0112800Y0168250D02*
X0124100Y0168250D01*
X0124100Y0166651D02*
X0112800Y0166651D01*
X0112800Y0165053D02*
X0124189Y0165053D01*
X0124851Y0163454D02*
X0112800Y0163454D01*
X0112800Y0161856D02*
X0125855Y0161856D01*
X0124898Y0160257D02*
X0112800Y0160257D01*
X0112800Y0158659D02*
X0124235Y0158659D01*
X0124100Y0157060D02*
X0112800Y0157060D01*
X0112800Y0155462D02*
X0124100Y0155462D01*
X0124682Y0153863D02*
X0112800Y0153863D01*
X0112800Y0152265D02*
X0125446Y0152265D01*
X0125067Y0150666D02*
X0112800Y0150666D01*
X0112800Y0149068D02*
X0124405Y0149068D01*
X0124100Y0147469D02*
X0112800Y0147469D01*
X0112800Y0145870D02*
X0124100Y0145870D01*
X0124513Y0144272D02*
X0112800Y0144272D01*
X0112800Y0142673D02*
X0115301Y0142673D01*
X0138154Y0152265D02*
X0283961Y0152265D01*
X0283961Y0152166D02*
X0284570Y0150696D01*
X0285696Y0149570D01*
X0287166Y0148961D01*
X0296434Y0148961D01*
X0296800Y0149113D01*
X0297166Y0148961D01*
X0306434Y0148961D01*
X0307904Y0149570D01*
X0309030Y0150696D01*
X0309639Y0152166D01*
X0309639Y0161434D01*
X0309030Y0162904D01*
X0307904Y0164030D01*
X0307800Y0164073D01*
X0307800Y0179527D01*
X0307904Y0179570D01*
X0309030Y0180696D01*
X0309639Y0182166D01*
X0309639Y0191434D01*
X0309030Y0192904D01*
X0307904Y0194030D01*
X0306434Y0194639D01*
X0297166Y0194639D01*
X0296800Y0194487D01*
X0296434Y0194639D01*
X0287166Y0194639D01*
X0285696Y0194030D01*
X0284570Y0192904D01*
X0283961Y0191434D01*
X0283961Y0182166D01*
X0284570Y0180696D01*
X0285696Y0179570D01*
X0285800Y0179527D01*
X0285800Y0164073D01*
X0285696Y0164030D01*
X0284570Y0162904D01*
X0283961Y0161434D01*
X0283961Y0152166D01*
X0284600Y0150666D02*
X0138533Y0150666D01*
X0139195Y0149068D02*
X0286910Y0149068D01*
X0283961Y0153863D02*
X0138918Y0153863D01*
X0139500Y0155462D02*
X0283961Y0155462D01*
X0283961Y0157060D02*
X0139500Y0157060D01*
X0139365Y0158659D02*
X0283961Y0158659D01*
X0283961Y0160257D02*
X0138702Y0160257D01*
X0137745Y0161856D02*
X0284136Y0161856D01*
X0285120Y0163454D02*
X0138748Y0163454D01*
X0139411Y0165053D02*
X0285800Y0165053D01*
X0285800Y0166651D02*
X0139500Y0166651D01*
X0139500Y0168250D02*
X0285800Y0168250D01*
X0285800Y0169848D02*
X0138872Y0169848D01*
X0138043Y0171447D02*
X0285800Y0171447D01*
X0285800Y0173045D02*
X0138579Y0173045D01*
X0139241Y0174644D02*
X0285800Y0174644D01*
X0285800Y0176242D02*
X0139500Y0176242D01*
X0139500Y0177841D02*
X0285800Y0177841D01*
X0285800Y0179439D02*
X0139041Y0179439D01*
X0138379Y0181038D02*
X0284429Y0181038D01*
X0283961Y0182636D02*
X0138410Y0182636D01*
X0139072Y0184235D02*
X0283961Y0184235D01*
X0283961Y0185833D02*
X0139500Y0185833D01*
X0139500Y0187432D02*
X0283961Y0187432D01*
X0283961Y0189030D02*
X0139211Y0189030D01*
X0138548Y0190629D02*
X0283961Y0190629D01*
X0284290Y0192227D02*
X0138117Y0192227D01*
X0138902Y0193826D02*
X0285492Y0193826D01*
X0308108Y0193826D02*
X0314100Y0193826D01*
X0314100Y0194332D02*
X0314100Y0191268D01*
X0315272Y0188438D01*
X0315911Y0187800D01*
X0315272Y0187162D01*
X0314100Y0184332D01*
X0314100Y0181268D01*
X0315272Y0178438D01*
X0315911Y0177800D01*
X0315272Y0177162D01*
X0314100Y0174332D01*
X0314100Y0171268D01*
X0315272Y0168438D01*
X0315911Y0167800D01*
X0315272Y0167162D01*
X0314100Y0164332D01*
X0314100Y0161268D01*
X0315272Y0158438D01*
X0317438Y0156272D01*
X0320268Y0155100D01*
X0323332Y0155100D01*
X0326162Y0156272D01*
X0328328Y0158438D01*
X0329500Y0161268D01*
X0329500Y0164332D01*
X0328328Y0167162D01*
X0327689Y0167800D01*
X0328328Y0168438D01*
X0329500Y0171268D01*
X0329500Y0174332D01*
X0328328Y0177162D01*
X0327689Y0177800D01*
X0328328Y0178438D01*
X0329500Y0181268D01*
X0329500Y0184332D01*
X0328328Y0187162D01*
X0327689Y0187800D01*
X0328328Y0188438D01*
X0329500Y0191268D01*
X0329500Y0194332D01*
X0328328Y0197162D01*
X0327689Y0197800D01*
X0328328Y0198438D01*
X0329500Y0201268D01*
X0329500Y0204332D01*
X0328328Y0207162D01*
X0327689Y0207800D01*
X0328328Y0208438D01*
X0329500Y0211268D01*
X0329500Y0214332D01*
X0328328Y0217162D01*
X0327689Y0217800D01*
X0328328Y0218438D01*
X0329500Y0221268D01*
X0329500Y0224332D01*
X0328328Y0227162D01*
X0327689Y0227800D01*
X0328328Y0228438D01*
X0329500Y0231268D01*
X0329500Y0234332D01*
X0328328Y0237162D01*
X0327689Y0237800D01*
X0328328Y0238438D01*
X0329500Y0241268D01*
X0329500Y0244332D01*
X0328328Y0247162D01*
X0327689Y0247800D01*
X0328328Y0248438D01*
X0329500Y0251268D01*
X0329500Y0254332D01*
X0328328Y0257162D01*
X0326162Y0259328D01*
X0323332Y0260500D01*
X0320268Y0260500D01*
X0317438Y0259328D01*
X0315272Y0257162D01*
X0314100Y0254332D01*
X0314100Y0251268D01*
X0315272Y0248438D01*
X0315911Y0247800D01*
X0315272Y0247162D01*
X0314100Y0244332D01*
X0314100Y0241268D01*
X0315272Y0238438D01*
X0315911Y0237800D01*
X0315272Y0237162D01*
X0314100Y0234332D01*
X0314100Y0231268D01*
X0315272Y0228438D01*
X0315911Y0227800D01*
X0315272Y0227162D01*
X0314100Y0224332D01*
X0314100Y0221268D01*
X0315272Y0218438D01*
X0315911Y0217800D01*
X0315272Y0217162D01*
X0314100Y0214332D01*
X0314100Y0211268D01*
X0315272Y0208438D01*
X0315911Y0207800D01*
X0315272Y0207162D01*
X0314100Y0204332D01*
X0314100Y0201268D01*
X0315272Y0198438D01*
X0315911Y0197800D01*
X0315272Y0197162D01*
X0314100Y0194332D01*
X0314553Y0195424D02*
X0139500Y0195424D01*
X0139500Y0197023D02*
X0315215Y0197023D01*
X0315196Y0198621D02*
X0139380Y0198621D01*
X0138718Y0200220D02*
X0314534Y0200220D01*
X0314100Y0201818D02*
X0137708Y0201818D01*
X0138733Y0203417D02*
X0314100Y0203417D01*
X0314383Y0205015D02*
X0139395Y0205015D01*
X0139500Y0206614D02*
X0315045Y0206614D01*
X0315498Y0208212D02*
X0139500Y0208212D01*
X0138887Y0209811D02*
X0314704Y0209811D01*
X0314100Y0211409D02*
X0138080Y0211409D01*
X0138564Y0213008D02*
X0314100Y0213008D01*
X0314214Y0214606D02*
X0139226Y0214606D01*
X0139500Y0216205D02*
X0314876Y0216205D01*
X0315907Y0217803D02*
X0225615Y0217803D01*
X0227301Y0219402D02*
X0229859Y0219402D01*
X0231600Y0219402D02*
X0232000Y0219402D01*
X0232000Y0219000D02*
X0232178Y0219000D01*
X0232924Y0219118D01*
X0233643Y0219352D01*
X0234316Y0219695D01*
X0234927Y0220139D01*
X0235461Y0220673D01*
X0235905Y0221284D01*
X0236248Y0221957D01*
X0236482Y0222676D01*
X0236600Y0223422D01*
X0236600Y0226600D01*
X0232000Y0226600D01*
X0232000Y0219000D01*
X0233741Y0219402D02*
X0314873Y0219402D01*
X0314211Y0221001D02*
X0235699Y0221001D01*
X0236457Y0222599D02*
X0314100Y0222599D01*
X0314100Y0224198D02*
X0236600Y0224198D01*
X0236600Y0225796D02*
X0314707Y0225796D01*
X0315505Y0227395D02*
X0236600Y0227395D01*
X0236600Y0227000D02*
X0236600Y0230178D01*
X0236482Y0230924D01*
X0236248Y0231643D01*
X0235905Y0232316D01*
X0235461Y0232927D01*
X0234927Y0233461D01*
X0234316Y0233905D01*
X0233643Y0234248D01*
X0232924Y0234482D01*
X0232178Y0234600D01*
X0232000Y0234600D01*
X0232000Y0227000D01*
X0236600Y0227000D01*
X0236600Y0228993D02*
X0315042Y0228993D01*
X0314380Y0230592D02*
X0236534Y0230592D01*
X0235969Y0232190D02*
X0314100Y0232190D01*
X0314100Y0233789D02*
X0234476Y0233789D01*
X0232000Y0233789D02*
X0231600Y0233789D01*
X0231600Y0232190D02*
X0232000Y0232190D01*
X0232000Y0230592D02*
X0231600Y0230592D01*
X0231600Y0228993D02*
X0232000Y0228993D01*
X0232000Y0227395D02*
X0231600Y0227395D01*
X0231600Y0225796D02*
X0232000Y0225796D01*
X0232000Y0224198D02*
X0231600Y0224198D01*
X0231600Y0222599D02*
X0232000Y0222599D01*
X0232000Y0221001D02*
X0231600Y0221001D01*
X0229124Y0233789D02*
X0227711Y0233789D01*
X0226112Y0235387D02*
X0314537Y0235387D01*
X0315199Y0236986D02*
X0217800Y0236986D01*
X0217800Y0238584D02*
X0315212Y0238584D01*
X0314550Y0240183D02*
X0217800Y0240183D01*
X0217800Y0241781D02*
X0314100Y0241781D01*
X0314100Y0243380D02*
X0217800Y0243380D01*
X0217800Y0244978D02*
X0314368Y0244978D01*
X0315030Y0246577D02*
X0217800Y0246577D01*
X0217800Y0248175D02*
X0315535Y0248175D01*
X0314719Y0249774D02*
X0217800Y0249774D01*
X0217800Y0251372D02*
X0314100Y0251372D01*
X0314100Y0252971D02*
X0217800Y0252971D01*
X0217147Y0254569D02*
X0314198Y0254569D01*
X0314861Y0256168D02*
X0215917Y0256168D01*
X0213075Y0257766D02*
X0315877Y0257766D01*
X0317528Y0259365D02*
X0091314Y0259365D01*
X0091800Y0257766D02*
X0095525Y0257766D01*
X0092682Y0256168D02*
X0091800Y0256168D01*
X0090536Y0260963D02*
X0360531Y0260963D01*
X0360531Y0259365D02*
X0326072Y0259365D01*
X0327723Y0257766D02*
X0360531Y0257766D01*
X0360531Y0256168D02*
X0328739Y0256168D01*
X0329402Y0254569D02*
X0360531Y0254569D01*
X0360531Y0252971D02*
X0329500Y0252971D01*
X0329500Y0251372D02*
X0360531Y0251372D01*
X0360531Y0249774D02*
X0328881Y0249774D01*
X0328065Y0248175D02*
X0360531Y0248175D01*
X0360531Y0246577D02*
X0328570Y0246577D01*
X0329232Y0244978D02*
X0360531Y0244978D01*
X0360531Y0243380D02*
X0329500Y0243380D01*
X0329500Y0241781D02*
X0360531Y0241781D01*
X0360531Y0240183D02*
X0329050Y0240183D01*
X0328388Y0238584D02*
X0360531Y0238584D01*
X0360531Y0236986D02*
X0328401Y0236986D01*
X0329063Y0235387D02*
X0360531Y0235387D01*
X0360531Y0233789D02*
X0329500Y0233789D01*
X0329500Y0232190D02*
X0360531Y0232190D01*
X0360531Y0230592D02*
X0329220Y0230592D01*
X0328558Y0228993D02*
X0360531Y0228993D01*
X0360531Y0227395D02*
X0328095Y0227395D01*
X0328893Y0225796D02*
X0360531Y0225796D01*
X0360531Y0224198D02*
X0329500Y0224198D01*
X0329500Y0222599D02*
X0360531Y0222599D01*
X0360531Y0221001D02*
X0329389Y0221001D01*
X0328727Y0219402D02*
X0360531Y0219402D01*
X0360531Y0217803D02*
X0327693Y0217803D01*
X0328724Y0216205D02*
X0360531Y0216205D01*
X0360531Y0214606D02*
X0329386Y0214606D01*
X0329500Y0213008D02*
X0360531Y0213008D01*
X0360531Y0211409D02*
X0329500Y0211409D01*
X0328896Y0209811D02*
X0360531Y0209811D01*
X0360531Y0208212D02*
X0328102Y0208212D01*
X0328555Y0206614D02*
X0360531Y0206614D01*
X0360531Y0205015D02*
X0329217Y0205015D01*
X0329500Y0203417D02*
X0360531Y0203417D01*
X0360531Y0201818D02*
X0329500Y0201818D01*
X0329066Y0200220D02*
X0360531Y0200220D01*
X0360531Y0198621D02*
X0346624Y0198621D01*
X0346192Y0198800D02*
X0337408Y0198800D01*
X0334835Y0197734D01*
X0332866Y0195765D01*
X0331800Y0193192D01*
X0331800Y0190408D01*
X0332866Y0187835D01*
X0334835Y0185866D01*
X0335723Y0185498D01*
X0335673Y0185461D01*
X0335139Y0184927D01*
X0334695Y0184316D01*
X0334352Y0183643D01*
X0334118Y0182924D01*
X0334000Y0182178D01*
X0334000Y0182000D01*
X0341600Y0182000D01*
X0341600Y0181600D01*
X0342000Y0181600D01*
X0342000Y0182000D01*
X0349600Y0182000D01*
X0349600Y0182178D01*
X0349482Y0182924D01*
X0349248Y0183643D01*
X0348905Y0184316D01*
X0348461Y0184927D01*
X0347927Y0185461D01*
X0347877Y0185498D01*
X0348765Y0185866D01*
X0350734Y0187835D01*
X0351800Y0190408D01*
X0351800Y0193192D01*
X0350734Y0195765D01*
X0348765Y0197734D01*
X0346192Y0198800D01*
X0349477Y0197023D02*
X0360531Y0197023D01*
X0360531Y0195424D02*
X0350875Y0195424D01*
X0351538Y0193826D02*
X0360531Y0193826D01*
X0360531Y0192227D02*
X0351800Y0192227D01*
X0351800Y0190629D02*
X0360531Y0190629D01*
X0360531Y0189030D02*
X0351229Y0189030D01*
X0350331Y0187432D02*
X0360531Y0187432D01*
X0360531Y0185833D02*
X0348687Y0185833D01*
X0348947Y0184235D02*
X0360531Y0184235D01*
X0360531Y0182636D02*
X0349527Y0182636D01*
X0349600Y0181600D02*
X0342000Y0181600D01*
X0342000Y0177000D01*
X0345178Y0177000D01*
X0345924Y0177118D01*
X0346643Y0177352D01*
X0347316Y0177695D01*
X0347927Y0178139D01*
X0348461Y0178673D01*
X0348905Y0179284D01*
X0349248Y0179957D01*
X0349482Y0180676D01*
X0349600Y0181422D01*
X0349600Y0181600D01*
X0349539Y0181038D02*
X0360531Y0181038D01*
X0360531Y0179439D02*
X0348984Y0179439D01*
X0347517Y0177841D02*
X0360531Y0177841D01*
X0360531Y0176242D02*
X0328709Y0176242D01*
X0329371Y0174644D02*
X0360531Y0174644D01*
X0360531Y0173045D02*
X0329500Y0173045D01*
X0329500Y0171447D02*
X0360531Y0171447D01*
X0360531Y0169848D02*
X0328912Y0169848D01*
X0328139Y0168250D02*
X0360531Y0168250D01*
X0360531Y0166651D02*
X0328539Y0166651D01*
X0329201Y0165053D02*
X0360531Y0165053D01*
X0360531Y0163454D02*
X0329500Y0163454D01*
X0329500Y0161856D02*
X0360531Y0161856D01*
X0360531Y0160257D02*
X0329081Y0160257D01*
X0328419Y0158659D02*
X0360531Y0158659D01*
X0360531Y0157060D02*
X0326949Y0157060D01*
X0324204Y0155462D02*
X0360531Y0155462D01*
X0360531Y0153863D02*
X0324869Y0153863D01*
X0326162Y0153328D02*
X0323332Y0154500D01*
X0320268Y0154500D01*
X0317438Y0153328D01*
X0315272Y0151162D01*
X0314100Y0148332D01*
X0314100Y0145268D01*
X0315272Y0142438D01*
X0315911Y0141800D01*
X0315272Y0141162D01*
X0314100Y0138332D01*
X0314100Y0135268D01*
X0315272Y0132438D01*
X0315911Y0131800D01*
X0315272Y0131162D01*
X0314100Y0128332D01*
X0314100Y0125268D01*
X0315272Y0122438D01*
X0315911Y0121800D01*
X0315272Y0121162D01*
X0314100Y0118332D01*
X0314100Y0115268D01*
X0315272Y0112438D01*
X0315911Y0111800D01*
X0315272Y0111162D01*
X0314100Y0108332D01*
X0314100Y0105268D01*
X0315272Y0102438D01*
X0315911Y0101800D01*
X0315272Y0101162D01*
X0314100Y0098332D01*
X0314100Y0095268D01*
X0315272Y0092438D01*
X0315911Y0091800D01*
X0315272Y0091162D01*
X0314100Y0088332D01*
X0314100Y0085268D01*
X0315272Y0082438D01*
X0315911Y0081800D01*
X0315272Y0081162D01*
X0314100Y0078332D01*
X0314100Y0075268D01*
X0315272Y0072438D01*
X0317438Y0070272D01*
X0320268Y0069100D01*
X0323332Y0069100D01*
X0326162Y0070272D01*
X0328328Y0072438D01*
X0329500Y0075268D01*
X0329500Y0078332D01*
X0328328Y0081162D01*
X0327689Y0081800D01*
X0328328Y0082438D01*
X0329500Y0085268D01*
X0329500Y0088332D01*
X0328328Y0091162D01*
X0327689Y0091800D01*
X0328328Y0092438D01*
X0329500Y0095268D01*
X0329500Y0098332D01*
X0328328Y0101162D01*
X0327689Y0101800D01*
X0328328Y0102438D01*
X0329500Y0105268D01*
X0329500Y0108332D01*
X0328328Y0111162D01*
X0327689Y0111800D01*
X0328328Y0112438D01*
X0329500Y0115268D01*
X0329500Y0118332D01*
X0328328Y0121162D01*
X0327689Y0121800D01*
X0328328Y0122438D01*
X0329500Y0125268D01*
X0329500Y0128332D01*
X0328328Y0131162D01*
X0327689Y0131800D01*
X0328328Y0132438D01*
X0329500Y0135268D01*
X0329500Y0138332D01*
X0328328Y0141162D01*
X0327689Y0141800D01*
X0328328Y0142438D01*
X0329500Y0145268D01*
X0329500Y0148332D01*
X0328328Y0151162D01*
X0326162Y0153328D01*
X0327225Y0152265D02*
X0360531Y0152265D01*
X0360531Y0150666D02*
X0328533Y0150666D01*
X0329195Y0149068D02*
X0360531Y0149068D01*
X0360531Y0147469D02*
X0329500Y0147469D01*
X0329500Y0145870D02*
X0360531Y0145870D01*
X0360531Y0144272D02*
X0329087Y0144272D01*
X0328425Y0142673D02*
X0360531Y0142673D01*
X0360531Y0141075D02*
X0328364Y0141075D01*
X0329026Y0139476D02*
X0360531Y0139476D01*
X0360531Y0137878D02*
X0329500Y0137878D01*
X0329500Y0136279D02*
X0360531Y0136279D01*
X0360531Y0134681D02*
X0329257Y0134681D01*
X0328595Y0133082D02*
X0360531Y0133082D01*
X0360531Y0131484D02*
X0328006Y0131484D01*
X0328856Y0129885D02*
X0360531Y0129885D01*
X0360531Y0128287D02*
X0329500Y0128287D01*
X0329500Y0126688D02*
X0360531Y0126688D01*
X0360531Y0125090D02*
X0329426Y0125090D01*
X0328764Y0123491D02*
X0360531Y0123491D01*
X0360531Y0121893D02*
X0327782Y0121893D01*
X0328687Y0120294D02*
X0360531Y0120294D01*
X0360531Y0118696D02*
X0329349Y0118696D01*
X0329500Y0117097D02*
X0360531Y0117097D01*
X0360531Y0115499D02*
X0329500Y0115499D01*
X0328933Y0113900D02*
X0360531Y0113900D01*
X0360531Y0112302D02*
X0328191Y0112302D01*
X0328518Y0110703D02*
X0360531Y0110703D01*
X0360531Y0109105D02*
X0329180Y0109105D01*
X0329500Y0107506D02*
X0360531Y0107506D01*
X0360531Y0105908D02*
X0329500Y0105908D01*
X0329103Y0104309D02*
X0360531Y0104309D01*
X0360531Y0102711D02*
X0328441Y0102711D01*
X0328348Y0101112D02*
X0360531Y0101112D01*
X0360531Y0099514D02*
X0329010Y0099514D01*
X0329500Y0097915D02*
X0360531Y0097915D01*
X0360531Y0096317D02*
X0329500Y0096317D01*
X0329272Y0094718D02*
X0360531Y0094718D01*
X0360531Y0093120D02*
X0328610Y0093120D01*
X0327968Y0091521D02*
X0360531Y0091521D01*
X0360531Y0089923D02*
X0328841Y0089923D01*
X0329500Y0088324D02*
X0360531Y0088324D01*
X0360531Y0086726D02*
X0329500Y0086726D01*
X0329441Y0085127D02*
X0360531Y0085127D01*
X0360531Y0083529D02*
X0328779Y0083529D01*
X0327819Y0081930D02*
X0360531Y0081930D01*
X0360531Y0080332D02*
X0328672Y0080332D01*
X0329334Y0078733D02*
X0360531Y0078733D01*
X0360531Y0077134D02*
X0329500Y0077134D01*
X0329500Y0075536D02*
X0360531Y0075536D01*
X0360531Y0073937D02*
X0328949Y0073937D01*
X0328228Y0072339D02*
X0360531Y0072339D01*
X0360531Y0070740D02*
X0326630Y0070740D01*
X0323433Y0069142D02*
X0360531Y0069142D01*
X0360531Y0067543D02*
X0287800Y0067543D01*
X0287800Y0065945D02*
X0360531Y0065945D01*
X0360531Y0064346D02*
X0287800Y0064346D01*
X0287800Y0062748D02*
X0360531Y0062748D01*
X0360531Y0061149D02*
X0287800Y0061149D01*
X0287800Y0059551D02*
X0360531Y0059551D01*
X0360531Y0057952D02*
X0287800Y0057952D01*
X0287800Y0056354D02*
X0360531Y0056354D01*
X0360531Y0054755D02*
X0287800Y0054755D01*
X0287800Y0053157D02*
X0360531Y0053157D01*
X0360531Y0051558D02*
X0287800Y0051558D01*
X0287800Y0049960D02*
X0360531Y0049960D01*
X0360531Y0048361D02*
X0287800Y0048361D01*
X0287800Y0046763D02*
X0360531Y0046763D01*
X0360531Y0045164D02*
X0287617Y0045164D01*
X0286955Y0043566D02*
X0360531Y0043566D01*
X0360531Y0041967D02*
X0285453Y0041967D01*
X0287469Y0040369D02*
X0205899Y0040369D01*
X0206561Y0038770D02*
X0285871Y0038770D01*
X0285866Y0038765D02*
X0284800Y0036192D01*
X0284800Y0027408D01*
X0285866Y0024835D01*
X0287835Y0022866D01*
X0290408Y0021800D01*
X0293192Y0021800D01*
X0295765Y0022866D01*
X0296800Y0023901D01*
X0297835Y0022866D01*
X0300408Y0021800D01*
X0303192Y0021800D01*
X0305765Y0022866D01*
X0307734Y0024835D01*
X0308800Y0027408D01*
X0308800Y0036192D01*
X0307734Y0038765D01*
X0305765Y0040734D01*
X0303192Y0041800D01*
X0300408Y0041800D01*
X0297835Y0040734D01*
X0296800Y0039699D01*
X0295765Y0040734D01*
X0293192Y0041800D01*
X0290408Y0041800D01*
X0287835Y0040734D01*
X0285866Y0038765D01*
X0285206Y0037172D02*
X0206800Y0037172D01*
X0206800Y0035573D02*
X0284800Y0035573D01*
X0284800Y0033975D02*
X0206206Y0033975D01*
X0205276Y0032376D02*
X0284800Y0032376D01*
X0284800Y0030778D02*
X0205722Y0030778D01*
X0206391Y0029179D02*
X0284800Y0029179D01*
X0284800Y0027581D02*
X0206800Y0027581D01*
X0206800Y0025982D02*
X0285390Y0025982D01*
X0286317Y0024384D02*
X0206376Y0024384D01*
X0205685Y0022785D02*
X0288029Y0022785D01*
X0295571Y0022785D02*
X0298029Y0022785D01*
X0305571Y0022785D02*
X0340701Y0022785D01*
X0340701Y0021187D02*
X0204086Y0021187D01*
X0189514Y0021187D02*
X0124100Y0021187D01*
X0124100Y0022785D02*
X0187915Y0022785D01*
X0187224Y0024384D02*
X0124100Y0024384D01*
X0124100Y0025982D02*
X0186800Y0025982D01*
X0186800Y0027581D02*
X0124100Y0027581D01*
X0124100Y0029179D02*
X0187209Y0029179D01*
X0187878Y0030778D02*
X0124100Y0030778D01*
X0124100Y0032376D02*
X0188324Y0032376D01*
X0187394Y0033975D02*
X0124100Y0033975D01*
X0124100Y0035573D02*
X0186800Y0035573D01*
X0186800Y0037172D02*
X0124100Y0037172D01*
X0124100Y0038770D02*
X0187039Y0038770D01*
X0187701Y0040369D02*
X0124100Y0040369D01*
X0109500Y0040369D02*
X0059100Y0040369D01*
X0059100Y0041967D02*
X0109044Y0041967D01*
X0108961Y0043566D02*
X0078354Y0043566D01*
X0078461Y0043673D02*
X0077927Y0043139D01*
X0077316Y0042695D01*
X0076643Y0042352D01*
X0075924Y0042118D01*
X0075178Y0042000D01*
X0072000Y0042000D01*
X0072000Y0046600D01*
X0079600Y0046600D01*
X0079600Y0046422D01*
X0079482Y0045676D01*
X0079248Y0044957D01*
X0078905Y0044284D01*
X0078461Y0043673D01*
X0079316Y0045164D02*
X0108961Y0045164D01*
X0108961Y0046763D02*
X0072000Y0046763D01*
X0071600Y0046763D02*
X0059100Y0046763D01*
X0059100Y0048361D02*
X0064260Y0048361D01*
X0064000Y0046600D02*
X0064000Y0046422D01*
X0064118Y0045676D01*
X0064352Y0044957D01*
X0064695Y0044284D01*
X0065139Y0043673D01*
X0065673Y0043139D01*
X0066284Y0042695D01*
X0066957Y0042352D01*
X0067676Y0042118D01*
X0068422Y0042000D01*
X0071600Y0042000D01*
X0071600Y0046600D01*
X0064000Y0046600D01*
X0064284Y0045164D02*
X0059100Y0045164D01*
X0059100Y0043566D02*
X0065246Y0043566D01*
X0071600Y0043566D02*
X0072000Y0043566D01*
X0072000Y0045164D02*
X0071600Y0045164D01*
X0065172Y0049960D02*
X0059100Y0049960D01*
X0059387Y0051558D02*
X0064142Y0051558D01*
X0062732Y0053157D02*
X0059639Y0053157D01*
X0059639Y0054755D02*
X0062070Y0054755D01*
X0061800Y0056354D02*
X0059639Y0056354D01*
X0059639Y0057952D02*
X0061800Y0057952D01*
X0062363Y0059551D02*
X0059639Y0059551D01*
X0059639Y0061149D02*
X0063250Y0061149D01*
X0062953Y0062748D02*
X0059094Y0062748D01*
X0057140Y0064346D02*
X0062240Y0064346D01*
X0078428Y0049960D02*
X0108961Y0049960D01*
X0108961Y0048361D02*
X0079340Y0048361D01*
X0079458Y0051558D02*
X0083776Y0051558D01*
X0081958Y0053157D02*
X0080868Y0053157D01*
X0059100Y0038770D02*
X0109500Y0038770D01*
X0109500Y0037172D02*
X0059100Y0037172D01*
X0059100Y0035573D02*
X0109500Y0035573D01*
X0109500Y0033975D02*
X0059100Y0033975D01*
X0059100Y0032376D02*
X0109500Y0032376D01*
X0109500Y0030778D02*
X0059100Y0030778D01*
X0059100Y0029179D02*
X0109500Y0029179D01*
X0123123Y0017990D02*
X0341330Y0017990D01*
X0340902Y0019588D02*
X0123785Y0019588D01*
X0121715Y0016391D02*
X0342107Y0016391D01*
X0343111Y0014793D02*
X0118958Y0014793D01*
X0049642Y0014793D02*
X0030489Y0014793D01*
X0031493Y0016391D02*
X0046885Y0016391D01*
X0045477Y0017990D02*
X0032270Y0017990D01*
X0032698Y0019588D02*
X0044815Y0019588D01*
X0044500Y0021187D02*
X0032899Y0021187D01*
X0032899Y0022785D02*
X0044500Y0022785D01*
X0044500Y0024384D02*
X0032598Y0024384D01*
X0032170Y0025982D02*
X0044500Y0025982D01*
X0044500Y0027581D02*
X0031279Y0027581D01*
X0030117Y0029179D02*
X0044500Y0029179D01*
X0044500Y0030778D02*
X0028449Y0030778D01*
X0025213Y0032376D02*
X0044500Y0032376D01*
X0028891Y0013194D02*
X0344709Y0013194D01*
X0341002Y0024384D02*
X0307283Y0024384D01*
X0308210Y0025982D02*
X0341430Y0025982D01*
X0342321Y0027581D02*
X0308800Y0027581D01*
X0308800Y0029179D02*
X0343483Y0029179D01*
X0345151Y0030778D02*
X0308800Y0030778D01*
X0308800Y0032376D02*
X0348387Y0032376D01*
X0355213Y0032376D02*
X0360531Y0032376D01*
X0360531Y0030778D02*
X0358449Y0030778D01*
X0360117Y0029179D02*
X0360531Y0029179D01*
X0360531Y0033975D02*
X0308800Y0033975D01*
X0308800Y0035573D02*
X0360531Y0035573D01*
X0360531Y0037172D02*
X0308394Y0037172D01*
X0307729Y0038770D02*
X0360531Y0038770D01*
X0360531Y0040369D02*
X0306131Y0040369D01*
X0297469Y0040369D02*
X0296131Y0040369D01*
X0287800Y0069142D02*
X0320167Y0069142D01*
X0316970Y0070740D02*
X0287800Y0070740D01*
X0287800Y0072339D02*
X0315372Y0072339D01*
X0314651Y0073937D02*
X0287800Y0073937D01*
X0287800Y0075536D02*
X0314100Y0075536D01*
X0314100Y0077134D02*
X0287800Y0077134D01*
X0287800Y0078733D02*
X0314266Y0078733D01*
X0314928Y0080332D02*
X0287800Y0080332D01*
X0287800Y0081930D02*
X0315781Y0081930D01*
X0314821Y0083529D02*
X0287800Y0083529D01*
X0287800Y0085127D02*
X0314159Y0085127D01*
X0314100Y0086726D02*
X0287800Y0086726D01*
X0287800Y0088324D02*
X0314100Y0088324D01*
X0314759Y0089923D02*
X0287800Y0089923D01*
X0287800Y0091521D02*
X0315632Y0091521D01*
X0314990Y0093120D02*
X0287800Y0093120D01*
X0287800Y0094718D02*
X0314328Y0094718D01*
X0314100Y0096317D02*
X0287800Y0096317D01*
X0287800Y0097915D02*
X0314100Y0097915D01*
X0314590Y0099514D02*
X0287800Y0099514D01*
X0287800Y0101112D02*
X0315252Y0101112D01*
X0315159Y0102711D02*
X0287800Y0102711D01*
X0287800Y0104309D02*
X0314497Y0104309D01*
X0314100Y0105908D02*
X0287800Y0105908D01*
X0287800Y0107506D02*
X0314100Y0107506D01*
X0314420Y0109105D02*
X0287800Y0109105D01*
X0287800Y0110703D02*
X0315082Y0110703D01*
X0315409Y0112302D02*
X0287800Y0112302D01*
X0287800Y0113900D02*
X0314667Y0113900D01*
X0314100Y0115499D02*
X0287800Y0115499D01*
X0287800Y0117097D02*
X0314100Y0117097D01*
X0314251Y0118696D02*
X0287800Y0118696D01*
X0287800Y0120294D02*
X0314913Y0120294D01*
X0315818Y0121893D02*
X0287800Y0121893D01*
X0287800Y0123491D02*
X0314836Y0123491D01*
X0314174Y0125090D02*
X0287800Y0125090D01*
X0287800Y0126688D02*
X0314100Y0126688D01*
X0314100Y0128287D02*
X0287800Y0128287D01*
X0287800Y0129885D02*
X0314744Y0129885D01*
X0315594Y0131484D02*
X0287800Y0131484D01*
X0287763Y0133082D02*
X0315005Y0133082D01*
X0314343Y0134681D02*
X0287101Y0134681D01*
X0285806Y0136279D02*
X0314100Y0136279D01*
X0314100Y0137878D02*
X0207800Y0137878D01*
X0207800Y0136279D02*
X0217794Y0136279D01*
X0216499Y0134681D02*
X0207800Y0134681D01*
X0207800Y0133082D02*
X0215837Y0133082D01*
X0215800Y0131484D02*
X0207800Y0131484D01*
X0207800Y0129885D02*
X0215800Y0129885D01*
X0215800Y0128287D02*
X0207800Y0128287D01*
X0207800Y0126688D02*
X0210138Y0126688D01*
X0213462Y0126688D02*
X0215800Y0126688D01*
X0207186Y0139476D02*
X0314574Y0139476D01*
X0315236Y0141075D02*
X0206010Y0141075D01*
X0203299Y0142673D02*
X0315175Y0142673D01*
X0314513Y0144272D02*
X0139087Y0144272D01*
X0139500Y0145870D02*
X0314100Y0145870D01*
X0314100Y0147469D02*
X0139500Y0147469D01*
X0124559Y0179439D02*
X0112800Y0179439D01*
X0112800Y0181038D02*
X0125221Y0181038D01*
X0125190Y0182636D02*
X0112800Y0182636D01*
X0112800Y0184235D02*
X0124528Y0184235D01*
X0124100Y0185833D02*
X0112800Y0185833D01*
X0112800Y0187432D02*
X0124100Y0187432D01*
X0124389Y0189030D02*
X0112800Y0189030D01*
X0112800Y0190629D02*
X0125052Y0190629D01*
X0125483Y0192227D02*
X0112800Y0192227D01*
X0112800Y0193826D02*
X0124698Y0193826D01*
X0124100Y0195424D02*
X0112800Y0195424D01*
X0112800Y0197023D02*
X0124100Y0197023D01*
X0124220Y0198621D02*
X0112800Y0198621D01*
X0112800Y0200220D02*
X0124882Y0200220D01*
X0125892Y0201818D02*
X0112800Y0201818D01*
X0112800Y0203417D02*
X0124867Y0203417D01*
X0124205Y0205015D02*
X0112800Y0205015D01*
X0112800Y0206614D02*
X0124100Y0206614D01*
X0124100Y0208212D02*
X0112800Y0208212D01*
X0112800Y0209811D02*
X0124713Y0209811D01*
X0125520Y0211409D02*
X0112800Y0211409D01*
X0112800Y0213008D02*
X0125036Y0213008D01*
X0124374Y0214606D02*
X0112800Y0214606D01*
X0112800Y0216205D02*
X0124100Y0216205D01*
X0124100Y0217803D02*
X0112800Y0217803D01*
X0112800Y0219402D02*
X0124543Y0219402D01*
X0125205Y0221001D02*
X0112800Y0221001D01*
X0112800Y0222599D02*
X0126710Y0222599D01*
X0129538Y0224198D02*
X0112800Y0224198D01*
X0112800Y0225796D02*
X0194800Y0225796D01*
X0194800Y0224198D02*
X0134062Y0224198D01*
X0136890Y0222599D02*
X0194800Y0222599D01*
X0195383Y0221001D02*
X0138395Y0221001D01*
X0139057Y0219402D02*
X0196298Y0219402D01*
X0197985Y0217803D02*
X0139500Y0217803D01*
X0112800Y0227395D02*
X0194800Y0227395D01*
X0194800Y0228993D02*
X0112800Y0228993D01*
X0112800Y0230592D02*
X0194800Y0230592D01*
X0195213Y0232190D02*
X0112800Y0232190D01*
X0112800Y0233789D02*
X0195800Y0233789D01*
X0195800Y0235387D02*
X0112800Y0235387D01*
X0090800Y0235387D02*
X0089388Y0235387D01*
X0089482Y0235676D02*
X0089600Y0236422D01*
X0089600Y0236600D01*
X0082000Y0236600D01*
X0082000Y0237000D01*
X0089600Y0237000D01*
X0089600Y0237178D01*
X0089482Y0237924D01*
X0089248Y0238643D01*
X0088905Y0239316D01*
X0088461Y0239927D01*
X0087927Y0240461D01*
X0087877Y0240498D01*
X0088765Y0240866D01*
X0090734Y0242835D01*
X0090800Y0242993D01*
X0090800Y0230607D01*
X0090734Y0230765D01*
X0088765Y0232734D01*
X0087877Y0233102D01*
X0087927Y0233139D01*
X0088461Y0233673D01*
X0088905Y0234284D01*
X0089248Y0234957D01*
X0089482Y0235676D01*
X0090800Y0236986D02*
X0082000Y0236986D01*
X0088206Y0240183D02*
X0090800Y0240183D01*
X0090800Y0241781D02*
X0089681Y0241781D01*
X0089267Y0238584D02*
X0090800Y0238584D01*
X0090800Y0233789D02*
X0088545Y0233789D01*
X0089309Y0232190D02*
X0090800Y0232190D01*
X0088938Y0262562D02*
X0360531Y0262562D01*
X0360531Y0264160D02*
X0074100Y0264160D01*
X0074100Y0262562D02*
X0074662Y0262562D01*
X0074100Y0265759D02*
X0360531Y0265759D01*
X0360531Y0267357D02*
X0074100Y0267357D01*
X0074100Y0268956D02*
X0360531Y0268956D01*
X0360531Y0270554D02*
X0348888Y0270554D01*
X0349633Y0272153D02*
X0360531Y0272153D01*
X0360531Y0273751D02*
X0349639Y0273751D01*
X0349639Y0275350D02*
X0360531Y0275350D01*
X0360531Y0276948D02*
X0349639Y0276948D01*
X0349639Y0278547D02*
X0360531Y0278547D01*
X0360531Y0280145D02*
X0349639Y0280145D01*
X0349510Y0281744D02*
X0360531Y0281744D01*
X0360531Y0283342D02*
X0349100Y0283342D01*
X0349100Y0284941D02*
X0360531Y0284941D01*
X0360531Y0286539D02*
X0349100Y0286539D01*
X0349100Y0288138D02*
X0360531Y0288138D01*
X0360531Y0289737D02*
X0349100Y0289737D01*
X0349100Y0291335D02*
X0360531Y0291335D01*
X0360531Y0292934D02*
X0349100Y0292934D01*
X0349100Y0294532D02*
X0360531Y0294532D01*
X0360531Y0296131D02*
X0349100Y0296131D01*
X0349100Y0297729D02*
X0360531Y0297729D01*
X0360531Y0299328D02*
X0349100Y0299328D01*
X0349100Y0300926D02*
X0360531Y0300926D01*
X0360531Y0302525D02*
X0349100Y0302525D01*
X0349100Y0304123D02*
X0360531Y0304123D01*
X0360531Y0305722D02*
X0349100Y0305722D01*
X0349100Y0307320D02*
X0360531Y0307320D01*
X0360531Y0308919D02*
X0349100Y0308919D01*
X0349100Y0310517D02*
X0360531Y0310517D01*
X0360531Y0312116D02*
X0349100Y0312116D01*
X0349100Y0313714D02*
X0360531Y0313714D01*
X0360531Y0315313D02*
X0349100Y0315313D01*
X0349100Y0316911D02*
X0360531Y0316911D01*
X0360531Y0318510D02*
X0349100Y0318510D01*
X0349100Y0320108D02*
X0360531Y0320108D01*
X0360531Y0321707D02*
X0349100Y0321707D01*
X0349100Y0323305D02*
X0360531Y0323305D01*
X0360531Y0324904D02*
X0349100Y0324904D01*
X0349100Y0326502D02*
X0360531Y0326502D01*
X0360531Y0328101D02*
X0349100Y0328101D01*
X0349100Y0329699D02*
X0360531Y0329699D01*
X0360531Y0331298D02*
X0349100Y0331298D01*
X0349100Y0332896D02*
X0360531Y0332896D01*
X0360531Y0334495D02*
X0349100Y0334495D01*
X0349100Y0336093D02*
X0360531Y0336093D01*
X0360531Y0337692D02*
X0349100Y0337692D01*
X0349100Y0339290D02*
X0360531Y0339290D01*
X0360531Y0340889D02*
X0349100Y0340889D01*
X0349100Y0342487D02*
X0360531Y0342487D01*
X0360531Y0344086D02*
X0349100Y0344086D01*
X0349100Y0345684D02*
X0360531Y0345684D01*
X0360531Y0347283D02*
X0349100Y0347283D01*
X0349100Y0348881D02*
X0360531Y0348881D01*
X0360531Y0350480D02*
X0349100Y0350480D01*
X0349100Y0352078D02*
X0360531Y0352078D01*
X0360531Y0353677D02*
X0349100Y0353677D01*
X0349100Y0355275D02*
X0360531Y0355275D01*
X0360531Y0356874D02*
X0349100Y0356874D01*
X0349009Y0358472D02*
X0360531Y0358472D01*
X0360531Y0360071D02*
X0348347Y0360071D01*
X0347254Y0361670D02*
X0360531Y0361670D01*
X0360531Y0363268D02*
X0345261Y0363268D01*
X0334500Y0348881D02*
X0307618Y0348881D01*
X0308348Y0347283D02*
X0334500Y0347283D01*
X0334500Y0345684D02*
X0308800Y0345684D01*
X0308800Y0344086D02*
X0334500Y0344086D01*
X0334500Y0342487D02*
X0308800Y0342487D01*
X0308800Y0340889D02*
X0334500Y0340889D01*
X0334500Y0339290D02*
X0308800Y0339290D01*
X0308800Y0337692D02*
X0334500Y0337692D01*
X0334500Y0336093D02*
X0308256Y0336093D01*
X0307394Y0334495D02*
X0334500Y0334495D01*
X0334500Y0332896D02*
X0305796Y0332896D01*
X0297804Y0332896D02*
X0295796Y0332896D01*
X0287804Y0332896D02*
X0216545Y0332896D01*
X0217885Y0334495D02*
X0286206Y0334495D01*
X0285344Y0336093D02*
X0218808Y0336093D01*
X0219335Y0337692D02*
X0284800Y0337692D01*
X0284800Y0339290D02*
X0219749Y0339290D01*
X0219749Y0340889D02*
X0284800Y0340889D01*
X0284800Y0342487D02*
X0219661Y0342487D01*
X0219233Y0344086D02*
X0284800Y0344086D01*
X0284800Y0345684D02*
X0218587Y0345684D01*
X0217664Y0347283D02*
X0285252Y0347283D01*
X0285982Y0348881D02*
X0216163Y0348881D01*
X0201137Y0348881D02*
X0187618Y0348881D01*
X0188348Y0347283D02*
X0199636Y0347283D01*
X0198713Y0345684D02*
X0188800Y0345684D01*
X0188800Y0344086D02*
X0198067Y0344086D01*
X0197639Y0342487D02*
X0188800Y0342487D01*
X0188800Y0340889D02*
X0197551Y0340889D01*
X0197551Y0339290D02*
X0188800Y0339290D01*
X0188800Y0337692D02*
X0197965Y0337692D01*
X0198492Y0336093D02*
X0188256Y0336093D01*
X0187394Y0334495D02*
X0199415Y0334495D01*
X0200755Y0332896D02*
X0185796Y0332896D01*
X0177804Y0332896D02*
X0175796Y0332896D01*
X0167804Y0332896D02*
X0096800Y0332896D01*
X0096800Y0333192D02*
X0096800Y0330408D01*
X0095734Y0327835D01*
X0094699Y0326800D01*
X0095734Y0325765D01*
X0096800Y0323192D01*
X0096800Y0320408D01*
X0095734Y0317835D01*
X0094699Y0316800D01*
X0095734Y0315765D01*
X0096800Y0313192D01*
X0096800Y0310408D01*
X0095734Y0307835D01*
X0094699Y0306800D01*
X0095734Y0305765D01*
X0096800Y0303192D01*
X0096800Y0300408D01*
X0095734Y0297835D01*
X0094699Y0296800D01*
X0095734Y0295765D01*
X0096800Y0293192D01*
X0096800Y0290408D01*
X0095734Y0287835D01*
X0093765Y0285866D01*
X0091192Y0284800D01*
X0082408Y0284800D01*
X0079835Y0285866D01*
X0077866Y0287835D01*
X0076800Y0290408D01*
X0076800Y0293192D01*
X0077866Y0295765D01*
X0078901Y0296800D01*
X0077866Y0297835D01*
X0076800Y0300408D01*
X0076800Y0303192D01*
X0077866Y0305765D01*
X0078901Y0306800D01*
X0077866Y0307835D01*
X0076800Y0310408D01*
X0076800Y0313192D01*
X0077866Y0315765D01*
X0078901Y0316800D01*
X0077866Y0317835D01*
X0076800Y0320408D01*
X0076800Y0323192D01*
X0077866Y0325765D01*
X0078901Y0326800D01*
X0077866Y0327835D01*
X0076800Y0330408D01*
X0076800Y0333192D01*
X0077866Y0335765D01*
X0078901Y0336800D01*
X0077866Y0337835D01*
X0076800Y0340408D01*
X0076800Y0343192D01*
X0077866Y0345765D01*
X0079835Y0347734D01*
X0082408Y0348800D01*
X0091192Y0348800D01*
X0093765Y0347734D01*
X0095734Y0345765D01*
X0096800Y0343192D01*
X0096800Y0340408D01*
X0095734Y0337835D01*
X0094699Y0336800D01*
X0095734Y0335765D01*
X0096800Y0333192D01*
X0096261Y0334495D02*
X0166206Y0334495D01*
X0165344Y0336093D02*
X0095406Y0336093D01*
X0095591Y0337692D02*
X0164800Y0337692D01*
X0164800Y0339290D02*
X0096337Y0339290D01*
X0096800Y0340889D02*
X0164800Y0340889D01*
X0164800Y0342487D02*
X0096800Y0342487D01*
X0096430Y0344086D02*
X0164800Y0344086D01*
X0164800Y0345684D02*
X0095768Y0345684D01*
X0094217Y0347283D02*
X0165252Y0347283D01*
X0165982Y0348881D02*
X0074100Y0348881D01*
X0074100Y0347283D02*
X0079383Y0347283D01*
X0077832Y0345684D02*
X0074100Y0345684D01*
X0074100Y0344086D02*
X0077170Y0344086D01*
X0076800Y0342487D02*
X0074100Y0342487D01*
X0074100Y0340889D02*
X0076800Y0340889D01*
X0077263Y0339290D02*
X0074100Y0339290D01*
X0074100Y0337692D02*
X0078009Y0337692D01*
X0078194Y0336093D02*
X0074100Y0336093D01*
X0074100Y0334495D02*
X0077339Y0334495D01*
X0076800Y0332896D02*
X0074100Y0332896D01*
X0074100Y0331298D02*
X0076800Y0331298D01*
X0077093Y0329699D02*
X0074100Y0329699D01*
X0074100Y0328101D02*
X0077756Y0328101D01*
X0078603Y0326502D02*
X0074100Y0326502D01*
X0074100Y0324904D02*
X0077509Y0324904D01*
X0076847Y0323305D02*
X0074100Y0323305D01*
X0074100Y0321707D02*
X0076800Y0321707D01*
X0076924Y0320108D02*
X0074100Y0320108D01*
X0074100Y0318510D02*
X0077586Y0318510D01*
X0078789Y0316911D02*
X0074100Y0316911D01*
X0074100Y0315313D02*
X0077678Y0315313D01*
X0077016Y0313714D02*
X0074100Y0313714D01*
X0074100Y0312116D02*
X0076800Y0312116D01*
X0076800Y0310517D02*
X0074100Y0310517D01*
X0074100Y0308919D02*
X0077417Y0308919D01*
X0078380Y0307320D02*
X0074100Y0307320D01*
X0074100Y0305722D02*
X0077848Y0305722D01*
X0077186Y0304123D02*
X0074100Y0304123D01*
X0074100Y0302525D02*
X0076800Y0302525D01*
X0076800Y0300926D02*
X0074100Y0300926D01*
X0074100Y0299328D02*
X0077247Y0299328D01*
X0077971Y0297729D02*
X0074100Y0297729D01*
X0074100Y0296131D02*
X0078231Y0296131D01*
X0077355Y0294532D02*
X0074100Y0294532D01*
X0074100Y0292934D02*
X0076800Y0292934D01*
X0076800Y0291335D02*
X0074100Y0291335D01*
X0074100Y0289737D02*
X0077078Y0289737D01*
X0077740Y0288138D02*
X0074100Y0288138D01*
X0074100Y0286539D02*
X0079161Y0286539D01*
X0082067Y0284941D02*
X0074100Y0284941D01*
X0074100Y0283342D02*
X0334500Y0283342D01*
X0334500Y0284941D02*
X0091533Y0284941D01*
X0094439Y0286539D02*
X0334500Y0286539D01*
X0334500Y0288138D02*
X0095860Y0288138D01*
X0096522Y0289737D02*
X0334500Y0289737D01*
X0334500Y0291335D02*
X0096800Y0291335D01*
X0096800Y0292934D02*
X0334500Y0292934D01*
X0334500Y0294532D02*
X0096245Y0294532D01*
X0095369Y0296131D02*
X0334500Y0296131D01*
X0334500Y0297729D02*
X0095629Y0297729D01*
X0096353Y0299328D02*
X0334500Y0299328D01*
X0334500Y0300926D02*
X0096800Y0300926D01*
X0096800Y0302525D02*
X0334500Y0302525D01*
X0334500Y0304123D02*
X0096414Y0304123D01*
X0095752Y0305722D02*
X0334500Y0305722D01*
X0334500Y0307320D02*
X0095220Y0307320D01*
X0096183Y0308919D02*
X0334500Y0308919D01*
X0334500Y0310517D02*
X0096800Y0310517D01*
X0096800Y0312116D02*
X0334500Y0312116D01*
X0334500Y0313714D02*
X0096584Y0313714D01*
X0095922Y0315313D02*
X0334500Y0315313D01*
X0334500Y0316911D02*
X0094811Y0316911D01*
X0096014Y0318510D02*
X0334500Y0318510D01*
X0334500Y0320108D02*
X0096676Y0320108D01*
X0096800Y0321707D02*
X0334500Y0321707D01*
X0334500Y0323305D02*
X0096753Y0323305D01*
X0096091Y0324904D02*
X0334500Y0324904D01*
X0334500Y0326502D02*
X0094997Y0326502D01*
X0095844Y0328101D02*
X0334500Y0328101D01*
X0334500Y0329699D02*
X0210488Y0329699D01*
X0206812Y0329699D02*
X0096507Y0329699D01*
X0096800Y0331298D02*
X0202733Y0331298D01*
X0214567Y0331298D02*
X0334500Y0331298D01*
X0360531Y0364867D02*
X0012400Y0364867D01*
X0012400Y0363268D02*
X0063339Y0363268D01*
X0061346Y0361670D02*
X0012400Y0361670D01*
X0012400Y0360071D02*
X0060253Y0360071D01*
X0059591Y0358472D02*
X0012400Y0358472D01*
X0012400Y0356874D02*
X0059500Y0356874D01*
X0059500Y0355275D02*
X0012400Y0355275D01*
X0012400Y0353677D02*
X0059500Y0353677D01*
X0059500Y0352078D02*
X0012400Y0352078D01*
X0012400Y0350480D02*
X0059500Y0350480D01*
X0059500Y0348881D02*
X0012400Y0348881D01*
X0012400Y0347283D02*
X0034383Y0347283D01*
X0034835Y0347734D02*
X0032866Y0345765D01*
X0031800Y0343192D01*
X0031800Y0340408D01*
X0032866Y0337835D01*
X0033901Y0336800D01*
X0032866Y0335765D01*
X0031800Y0333192D01*
X0031800Y0330408D01*
X0032866Y0327835D01*
X0033901Y0326800D01*
X0032866Y0325765D01*
X0031800Y0323192D01*
X0031800Y0320408D01*
X0032866Y0317835D01*
X0033901Y0316800D01*
X0032866Y0315765D01*
X0031800Y0313192D01*
X0031800Y0310408D01*
X0032866Y0307835D01*
X0033901Y0306800D01*
X0032866Y0305765D01*
X0031800Y0303192D01*
X0031800Y0300408D01*
X0032866Y0297835D01*
X0033901Y0296800D01*
X0032866Y0295765D01*
X0031800Y0293192D01*
X0031800Y0290408D01*
X0032866Y0287835D01*
X0034835Y0285866D01*
X0037408Y0284800D01*
X0046192Y0284800D01*
X0048765Y0285866D01*
X0050734Y0287835D01*
X0051800Y0290408D01*
X0051800Y0293192D01*
X0050734Y0295765D01*
X0049699Y0296800D01*
X0050734Y0297835D01*
X0051800Y0300408D01*
X0051800Y0303192D01*
X0050734Y0305765D01*
X0049699Y0306800D01*
X0050734Y0307835D01*
X0051800Y0310408D01*
X0051800Y0313192D01*
X0050734Y0315765D01*
X0049699Y0316800D01*
X0050734Y0317835D01*
X0051800Y0320408D01*
X0051800Y0323192D01*
X0050734Y0325765D01*
X0049699Y0326800D01*
X0050734Y0327835D01*
X0051800Y0330408D01*
X0051800Y0333192D01*
X0050734Y0335765D01*
X0049699Y0336800D01*
X0050734Y0337835D01*
X0051800Y0340408D01*
X0051800Y0343192D01*
X0050734Y0345765D01*
X0048765Y0347734D01*
X0046192Y0348800D01*
X0037408Y0348800D01*
X0034835Y0347734D01*
X0032832Y0345684D02*
X0012400Y0345684D01*
X0012400Y0344086D02*
X0032170Y0344086D01*
X0031800Y0342487D02*
X0012400Y0342487D01*
X0012400Y0340889D02*
X0031800Y0340889D01*
X0032263Y0339290D02*
X0012400Y0339290D01*
X0012400Y0337692D02*
X0033009Y0337692D01*
X0033194Y0336093D02*
X0012400Y0336093D01*
X0012400Y0334495D02*
X0032339Y0334495D01*
X0031800Y0332896D02*
X0012400Y0332896D01*
X0012400Y0331298D02*
X0031800Y0331298D01*
X0032093Y0329699D02*
X0012400Y0329699D01*
X0012400Y0328101D02*
X0032756Y0328101D01*
X0033603Y0326502D02*
X0012400Y0326502D01*
X0012400Y0324904D02*
X0032509Y0324904D01*
X0031847Y0323305D02*
X0012400Y0323305D01*
X0012400Y0321707D02*
X0031800Y0321707D01*
X0031924Y0320108D02*
X0012400Y0320108D01*
X0012400Y0318510D02*
X0032586Y0318510D01*
X0033789Y0316911D02*
X0012400Y0316911D01*
X0012400Y0315313D02*
X0032678Y0315313D01*
X0032016Y0313714D02*
X0012400Y0313714D01*
X0012400Y0312116D02*
X0031800Y0312116D01*
X0031800Y0310517D02*
X0012400Y0310517D01*
X0012400Y0308919D02*
X0032417Y0308919D01*
X0033380Y0307320D02*
X0012400Y0307320D01*
X0012400Y0305722D02*
X0032848Y0305722D01*
X0032186Y0304123D02*
X0012400Y0304123D01*
X0012400Y0302525D02*
X0031800Y0302525D01*
X0031800Y0300926D02*
X0012400Y0300926D01*
X0012400Y0299328D02*
X0032247Y0299328D01*
X0032971Y0297729D02*
X0012400Y0297729D01*
X0012400Y0296131D02*
X0033231Y0296131D01*
X0032355Y0294532D02*
X0012400Y0294532D01*
X0012400Y0292934D02*
X0031800Y0292934D01*
X0031800Y0291335D02*
X0012400Y0291335D01*
X0012400Y0289737D02*
X0032078Y0289737D01*
X0032740Y0288138D02*
X0012400Y0288138D01*
X0012400Y0286539D02*
X0034161Y0286539D01*
X0037067Y0284941D02*
X0012400Y0284941D01*
X0012400Y0283342D02*
X0059500Y0283342D01*
X0059500Y0281744D02*
X0012400Y0281744D01*
X0012400Y0280145D02*
X0059500Y0280145D01*
X0059500Y0278547D02*
X0012400Y0278547D01*
X0012400Y0276948D02*
X0059500Y0276948D01*
X0059500Y0275350D02*
X0012400Y0275350D01*
X0012400Y0273751D02*
X0059500Y0273751D01*
X0059500Y0272153D02*
X0012400Y0272153D01*
X0012400Y0270554D02*
X0059500Y0270554D01*
X0059500Y0268956D02*
X0012400Y0268956D01*
X0012400Y0267357D02*
X0059500Y0267357D01*
X0059500Y0265759D02*
X0012400Y0265759D01*
X0046533Y0284941D02*
X0059500Y0284941D01*
X0059500Y0286539D02*
X0049439Y0286539D01*
X0050860Y0288138D02*
X0059500Y0288138D01*
X0059500Y0289737D02*
X0051522Y0289737D01*
X0051800Y0291335D02*
X0059500Y0291335D01*
X0059500Y0292934D02*
X0051800Y0292934D01*
X0051245Y0294532D02*
X0059500Y0294532D01*
X0059500Y0296131D02*
X0050369Y0296131D01*
X0050629Y0297729D02*
X0059500Y0297729D01*
X0059500Y0299328D02*
X0051353Y0299328D01*
X0051800Y0300926D02*
X0059500Y0300926D01*
X0059500Y0302525D02*
X0051800Y0302525D01*
X0051414Y0304123D02*
X0059500Y0304123D01*
X0059500Y0305722D02*
X0050752Y0305722D01*
X0050220Y0307320D02*
X0059500Y0307320D01*
X0059500Y0308919D02*
X0051183Y0308919D01*
X0051800Y0310517D02*
X0059500Y0310517D01*
X0059500Y0312116D02*
X0051800Y0312116D01*
X0051584Y0313714D02*
X0059500Y0313714D01*
X0059500Y0315313D02*
X0050922Y0315313D01*
X0049811Y0316911D02*
X0059500Y0316911D01*
X0059500Y0318510D02*
X0051014Y0318510D01*
X0051676Y0320108D02*
X0059500Y0320108D01*
X0059500Y0321707D02*
X0051800Y0321707D01*
X0051753Y0323305D02*
X0059500Y0323305D01*
X0059500Y0324904D02*
X0051091Y0324904D01*
X0049997Y0326502D02*
X0059500Y0326502D01*
X0059500Y0328101D02*
X0050844Y0328101D01*
X0051507Y0329699D02*
X0059500Y0329699D01*
X0059500Y0331298D02*
X0051800Y0331298D01*
X0051800Y0332896D02*
X0059500Y0332896D01*
X0059500Y0334495D02*
X0051261Y0334495D01*
X0050406Y0336093D02*
X0059500Y0336093D01*
X0059500Y0337692D02*
X0050591Y0337692D01*
X0051337Y0339290D02*
X0059500Y0339290D01*
X0059500Y0340889D02*
X0051800Y0340889D01*
X0051800Y0342487D02*
X0059500Y0342487D01*
X0059500Y0344086D02*
X0051430Y0344086D01*
X0050768Y0345684D02*
X0059500Y0345684D01*
X0059500Y0347283D02*
X0049217Y0347283D01*
X0074100Y0281744D02*
X0334090Y0281744D01*
X0333961Y0280145D02*
X0074100Y0280145D01*
X0074100Y0278547D02*
X0333961Y0278547D01*
X0333961Y0276948D02*
X0074100Y0276948D01*
X0074100Y0275350D02*
X0333961Y0275350D01*
X0333961Y0273751D02*
X0074100Y0273751D01*
X0074100Y0272153D02*
X0333967Y0272153D01*
X0334712Y0270554D02*
X0074100Y0270554D01*
X0205615Y0217803D02*
X0207985Y0217803D01*
X0215615Y0217803D02*
X0217985Y0217803D01*
X0296690Y0149068D02*
X0296910Y0149068D01*
X0306690Y0149068D02*
X0314405Y0149068D01*
X0315067Y0150666D02*
X0309000Y0150666D01*
X0309639Y0152265D02*
X0316375Y0152265D01*
X0318731Y0153863D02*
X0309639Y0153863D01*
X0309639Y0155462D02*
X0319395Y0155462D01*
X0316650Y0157060D02*
X0309639Y0157060D01*
X0309639Y0158659D02*
X0315181Y0158659D01*
X0314519Y0160257D02*
X0309639Y0160257D01*
X0309464Y0161856D02*
X0314100Y0161856D01*
X0314100Y0163454D02*
X0308480Y0163454D01*
X0307800Y0165053D02*
X0314399Y0165053D01*
X0315061Y0166651D02*
X0307800Y0166651D01*
X0307800Y0168250D02*
X0315461Y0168250D01*
X0314688Y0169848D02*
X0307800Y0169848D01*
X0307800Y0171447D02*
X0314100Y0171447D01*
X0314100Y0173045D02*
X0307800Y0173045D01*
X0307800Y0174644D02*
X0314229Y0174644D01*
X0314891Y0176242D02*
X0307800Y0176242D01*
X0307800Y0177841D02*
X0315870Y0177841D01*
X0314858Y0179439D02*
X0307800Y0179439D01*
X0309171Y0181038D02*
X0314196Y0181038D01*
X0314100Y0182636D02*
X0309639Y0182636D01*
X0309639Y0184235D02*
X0314100Y0184235D01*
X0314722Y0185833D02*
X0309639Y0185833D01*
X0309639Y0187432D02*
X0315542Y0187432D01*
X0315027Y0189030D02*
X0309639Y0189030D01*
X0309639Y0190629D02*
X0314365Y0190629D01*
X0314100Y0192227D02*
X0309310Y0192227D01*
X0328058Y0187432D02*
X0333269Y0187432D01*
X0332370Y0189030D02*
X0328573Y0189030D01*
X0329235Y0190629D02*
X0331800Y0190629D01*
X0331800Y0192227D02*
X0329500Y0192227D01*
X0329500Y0193826D02*
X0332062Y0193826D01*
X0332725Y0195424D02*
X0329047Y0195424D01*
X0328385Y0197023D02*
X0334123Y0197023D01*
X0336976Y0198621D02*
X0328404Y0198621D01*
X0328878Y0185833D02*
X0334913Y0185833D01*
X0334653Y0184235D02*
X0329500Y0184235D01*
X0329500Y0182636D02*
X0334073Y0182636D01*
X0334000Y0181600D02*
X0334000Y0181422D01*
X0334118Y0180676D01*
X0334352Y0179957D01*
X0334695Y0179284D01*
X0335139Y0178673D01*
X0335673Y0178139D01*
X0336284Y0177695D01*
X0336957Y0177352D01*
X0337676Y0177118D01*
X0338422Y0177000D01*
X0341600Y0177000D01*
X0341600Y0181600D01*
X0334000Y0181600D01*
X0334061Y0181038D02*
X0329404Y0181038D01*
X0328742Y0179439D02*
X0334616Y0179439D01*
X0336083Y0177841D02*
X0327730Y0177841D01*
X0341600Y0177841D02*
X0342000Y0177841D01*
X0342000Y0179439D02*
X0341600Y0179439D01*
X0341600Y0181038D02*
X0342000Y0181038D01*
D11*
X0345501Y0021800D02*
X0345503Y0021958D01*
X0345509Y0022116D01*
X0345519Y0022274D01*
X0345533Y0022432D01*
X0345551Y0022589D01*
X0345572Y0022746D01*
X0345598Y0022902D01*
X0345628Y0023058D01*
X0345661Y0023213D01*
X0345699Y0023366D01*
X0345740Y0023519D01*
X0345785Y0023671D01*
X0345834Y0023822D01*
X0345887Y0023971D01*
X0345943Y0024119D01*
X0346003Y0024265D01*
X0346067Y0024410D01*
X0346135Y0024553D01*
X0346206Y0024695D01*
X0346280Y0024835D01*
X0346358Y0024972D01*
X0346440Y0025108D01*
X0346524Y0025242D01*
X0346613Y0025373D01*
X0346704Y0025502D01*
X0346799Y0025629D01*
X0346896Y0025754D01*
X0346997Y0025876D01*
X0347101Y0025995D01*
X0347208Y0026112D01*
X0347318Y0026226D01*
X0347431Y0026337D01*
X0347546Y0026446D01*
X0347664Y0026551D01*
X0347785Y0026653D01*
X0347908Y0026753D01*
X0348034Y0026849D01*
X0348162Y0026942D01*
X0348292Y0027032D01*
X0348425Y0027118D01*
X0348560Y0027202D01*
X0348696Y0027281D01*
X0348835Y0027358D01*
X0348976Y0027430D01*
X0349118Y0027500D01*
X0349262Y0027565D01*
X0349408Y0027627D01*
X0349555Y0027685D01*
X0349704Y0027740D01*
X0349854Y0027791D01*
X0350005Y0027838D01*
X0350157Y0027881D01*
X0350310Y0027920D01*
X0350465Y0027956D01*
X0350620Y0027987D01*
X0350776Y0028015D01*
X0350932Y0028039D01*
X0351089Y0028059D01*
X0351247Y0028075D01*
X0351404Y0028087D01*
X0351563Y0028095D01*
X0351721Y0028099D01*
X0351879Y0028099D01*
X0352037Y0028095D01*
X0352196Y0028087D01*
X0352353Y0028075D01*
X0352511Y0028059D01*
X0352668Y0028039D01*
X0352824Y0028015D01*
X0352980Y0027987D01*
X0353135Y0027956D01*
X0353290Y0027920D01*
X0353443Y0027881D01*
X0353595Y0027838D01*
X0353746Y0027791D01*
X0353896Y0027740D01*
X0354045Y0027685D01*
X0354192Y0027627D01*
X0354338Y0027565D01*
X0354482Y0027500D01*
X0354624Y0027430D01*
X0354765Y0027358D01*
X0354904Y0027281D01*
X0355040Y0027202D01*
X0355175Y0027118D01*
X0355308Y0027032D01*
X0355438Y0026942D01*
X0355566Y0026849D01*
X0355692Y0026753D01*
X0355815Y0026653D01*
X0355936Y0026551D01*
X0356054Y0026446D01*
X0356169Y0026337D01*
X0356282Y0026226D01*
X0356392Y0026112D01*
X0356499Y0025995D01*
X0356603Y0025876D01*
X0356704Y0025754D01*
X0356801Y0025629D01*
X0356896Y0025502D01*
X0356987Y0025373D01*
X0357076Y0025242D01*
X0357160Y0025108D01*
X0357242Y0024972D01*
X0357320Y0024835D01*
X0357394Y0024695D01*
X0357465Y0024553D01*
X0357533Y0024410D01*
X0357597Y0024265D01*
X0357657Y0024119D01*
X0357713Y0023971D01*
X0357766Y0023822D01*
X0357815Y0023671D01*
X0357860Y0023519D01*
X0357901Y0023366D01*
X0357939Y0023213D01*
X0357972Y0023058D01*
X0358002Y0022902D01*
X0358028Y0022746D01*
X0358049Y0022589D01*
X0358067Y0022432D01*
X0358081Y0022274D01*
X0358091Y0022116D01*
X0358097Y0021958D01*
X0358099Y0021800D01*
X0358097Y0021642D01*
X0358091Y0021484D01*
X0358081Y0021326D01*
X0358067Y0021168D01*
X0358049Y0021011D01*
X0358028Y0020854D01*
X0358002Y0020698D01*
X0357972Y0020542D01*
X0357939Y0020387D01*
X0357901Y0020234D01*
X0357860Y0020081D01*
X0357815Y0019929D01*
X0357766Y0019778D01*
X0357713Y0019629D01*
X0357657Y0019481D01*
X0357597Y0019335D01*
X0357533Y0019190D01*
X0357465Y0019047D01*
X0357394Y0018905D01*
X0357320Y0018765D01*
X0357242Y0018628D01*
X0357160Y0018492D01*
X0357076Y0018358D01*
X0356987Y0018227D01*
X0356896Y0018098D01*
X0356801Y0017971D01*
X0356704Y0017846D01*
X0356603Y0017724D01*
X0356499Y0017605D01*
X0356392Y0017488D01*
X0356282Y0017374D01*
X0356169Y0017263D01*
X0356054Y0017154D01*
X0355936Y0017049D01*
X0355815Y0016947D01*
X0355692Y0016847D01*
X0355566Y0016751D01*
X0355438Y0016658D01*
X0355308Y0016568D01*
X0355175Y0016482D01*
X0355040Y0016398D01*
X0354904Y0016319D01*
X0354765Y0016242D01*
X0354624Y0016170D01*
X0354482Y0016100D01*
X0354338Y0016035D01*
X0354192Y0015973D01*
X0354045Y0015915D01*
X0353896Y0015860D01*
X0353746Y0015809D01*
X0353595Y0015762D01*
X0353443Y0015719D01*
X0353290Y0015680D01*
X0353135Y0015644D01*
X0352980Y0015613D01*
X0352824Y0015585D01*
X0352668Y0015561D01*
X0352511Y0015541D01*
X0352353Y0015525D01*
X0352196Y0015513D01*
X0352037Y0015505D01*
X0351879Y0015501D01*
X0351721Y0015501D01*
X0351563Y0015505D01*
X0351404Y0015513D01*
X0351247Y0015525D01*
X0351089Y0015541D01*
X0350932Y0015561D01*
X0350776Y0015585D01*
X0350620Y0015613D01*
X0350465Y0015644D01*
X0350310Y0015680D01*
X0350157Y0015719D01*
X0350005Y0015762D01*
X0349854Y0015809D01*
X0349704Y0015860D01*
X0349555Y0015915D01*
X0349408Y0015973D01*
X0349262Y0016035D01*
X0349118Y0016100D01*
X0348976Y0016170D01*
X0348835Y0016242D01*
X0348696Y0016319D01*
X0348560Y0016398D01*
X0348425Y0016482D01*
X0348292Y0016568D01*
X0348162Y0016658D01*
X0348034Y0016751D01*
X0347908Y0016847D01*
X0347785Y0016947D01*
X0347664Y0017049D01*
X0347546Y0017154D01*
X0347431Y0017263D01*
X0347318Y0017374D01*
X0347208Y0017488D01*
X0347101Y0017605D01*
X0346997Y0017724D01*
X0346896Y0017846D01*
X0346799Y0017971D01*
X0346704Y0018098D01*
X0346613Y0018227D01*
X0346524Y0018358D01*
X0346440Y0018492D01*
X0346358Y0018628D01*
X0346280Y0018765D01*
X0346206Y0018905D01*
X0346135Y0019047D01*
X0346067Y0019190D01*
X0346003Y0019335D01*
X0345943Y0019481D01*
X0345887Y0019629D01*
X0345834Y0019778D01*
X0345785Y0019929D01*
X0345740Y0020081D01*
X0345699Y0020234D01*
X0345661Y0020387D01*
X0345628Y0020542D01*
X0345598Y0020698D01*
X0345572Y0020854D01*
X0345551Y0021011D01*
X0345533Y0021168D01*
X0345519Y0021326D01*
X0345509Y0021484D01*
X0345503Y0021642D01*
X0345501Y0021800D01*
X0202351Y0340698D02*
X0202353Y0340856D01*
X0202359Y0341014D01*
X0202369Y0341172D01*
X0202383Y0341330D01*
X0202401Y0341487D01*
X0202422Y0341644D01*
X0202448Y0341800D01*
X0202478Y0341956D01*
X0202511Y0342111D01*
X0202549Y0342264D01*
X0202590Y0342417D01*
X0202635Y0342569D01*
X0202684Y0342720D01*
X0202737Y0342869D01*
X0202793Y0343017D01*
X0202853Y0343163D01*
X0202917Y0343308D01*
X0202985Y0343451D01*
X0203056Y0343593D01*
X0203130Y0343733D01*
X0203208Y0343870D01*
X0203290Y0344006D01*
X0203374Y0344140D01*
X0203463Y0344271D01*
X0203554Y0344400D01*
X0203649Y0344527D01*
X0203746Y0344652D01*
X0203847Y0344774D01*
X0203951Y0344893D01*
X0204058Y0345010D01*
X0204168Y0345124D01*
X0204281Y0345235D01*
X0204396Y0345344D01*
X0204514Y0345449D01*
X0204635Y0345551D01*
X0204758Y0345651D01*
X0204884Y0345747D01*
X0205012Y0345840D01*
X0205142Y0345930D01*
X0205275Y0346016D01*
X0205410Y0346100D01*
X0205546Y0346179D01*
X0205685Y0346256D01*
X0205826Y0346328D01*
X0205968Y0346398D01*
X0206112Y0346463D01*
X0206258Y0346525D01*
X0206405Y0346583D01*
X0206554Y0346638D01*
X0206704Y0346689D01*
X0206855Y0346736D01*
X0207007Y0346779D01*
X0207160Y0346818D01*
X0207315Y0346854D01*
X0207470Y0346885D01*
X0207626Y0346913D01*
X0207782Y0346937D01*
X0207939Y0346957D01*
X0208097Y0346973D01*
X0208254Y0346985D01*
X0208413Y0346993D01*
X0208571Y0346997D01*
X0208729Y0346997D01*
X0208887Y0346993D01*
X0209046Y0346985D01*
X0209203Y0346973D01*
X0209361Y0346957D01*
X0209518Y0346937D01*
X0209674Y0346913D01*
X0209830Y0346885D01*
X0209985Y0346854D01*
X0210140Y0346818D01*
X0210293Y0346779D01*
X0210445Y0346736D01*
X0210596Y0346689D01*
X0210746Y0346638D01*
X0210895Y0346583D01*
X0211042Y0346525D01*
X0211188Y0346463D01*
X0211332Y0346398D01*
X0211474Y0346328D01*
X0211615Y0346256D01*
X0211754Y0346179D01*
X0211890Y0346100D01*
X0212025Y0346016D01*
X0212158Y0345930D01*
X0212288Y0345840D01*
X0212416Y0345747D01*
X0212542Y0345651D01*
X0212665Y0345551D01*
X0212786Y0345449D01*
X0212904Y0345344D01*
X0213019Y0345235D01*
X0213132Y0345124D01*
X0213242Y0345010D01*
X0213349Y0344893D01*
X0213453Y0344774D01*
X0213554Y0344652D01*
X0213651Y0344527D01*
X0213746Y0344400D01*
X0213837Y0344271D01*
X0213926Y0344140D01*
X0214010Y0344006D01*
X0214092Y0343870D01*
X0214170Y0343733D01*
X0214244Y0343593D01*
X0214315Y0343451D01*
X0214383Y0343308D01*
X0214447Y0343163D01*
X0214507Y0343017D01*
X0214563Y0342869D01*
X0214616Y0342720D01*
X0214665Y0342569D01*
X0214710Y0342417D01*
X0214751Y0342264D01*
X0214789Y0342111D01*
X0214822Y0341956D01*
X0214852Y0341800D01*
X0214878Y0341644D01*
X0214899Y0341487D01*
X0214917Y0341330D01*
X0214931Y0341172D01*
X0214941Y0341014D01*
X0214947Y0340856D01*
X0214949Y0340698D01*
X0214947Y0340540D01*
X0214941Y0340382D01*
X0214931Y0340224D01*
X0214917Y0340066D01*
X0214899Y0339909D01*
X0214878Y0339752D01*
X0214852Y0339596D01*
X0214822Y0339440D01*
X0214789Y0339285D01*
X0214751Y0339132D01*
X0214710Y0338979D01*
X0214665Y0338827D01*
X0214616Y0338676D01*
X0214563Y0338527D01*
X0214507Y0338379D01*
X0214447Y0338233D01*
X0214383Y0338088D01*
X0214315Y0337945D01*
X0214244Y0337803D01*
X0214170Y0337663D01*
X0214092Y0337526D01*
X0214010Y0337390D01*
X0213926Y0337256D01*
X0213837Y0337125D01*
X0213746Y0336996D01*
X0213651Y0336869D01*
X0213554Y0336744D01*
X0213453Y0336622D01*
X0213349Y0336503D01*
X0213242Y0336386D01*
X0213132Y0336272D01*
X0213019Y0336161D01*
X0212904Y0336052D01*
X0212786Y0335947D01*
X0212665Y0335845D01*
X0212542Y0335745D01*
X0212416Y0335649D01*
X0212288Y0335556D01*
X0212158Y0335466D01*
X0212025Y0335380D01*
X0211890Y0335296D01*
X0211754Y0335217D01*
X0211615Y0335140D01*
X0211474Y0335068D01*
X0211332Y0334998D01*
X0211188Y0334933D01*
X0211042Y0334871D01*
X0210895Y0334813D01*
X0210746Y0334758D01*
X0210596Y0334707D01*
X0210445Y0334660D01*
X0210293Y0334617D01*
X0210140Y0334578D01*
X0209985Y0334542D01*
X0209830Y0334511D01*
X0209674Y0334483D01*
X0209518Y0334459D01*
X0209361Y0334439D01*
X0209203Y0334423D01*
X0209046Y0334411D01*
X0208887Y0334403D01*
X0208729Y0334399D01*
X0208571Y0334399D01*
X0208413Y0334403D01*
X0208254Y0334411D01*
X0208097Y0334423D01*
X0207939Y0334439D01*
X0207782Y0334459D01*
X0207626Y0334483D01*
X0207470Y0334511D01*
X0207315Y0334542D01*
X0207160Y0334578D01*
X0207007Y0334617D01*
X0206855Y0334660D01*
X0206704Y0334707D01*
X0206554Y0334758D01*
X0206405Y0334813D01*
X0206258Y0334871D01*
X0206112Y0334933D01*
X0205968Y0334998D01*
X0205826Y0335068D01*
X0205685Y0335140D01*
X0205546Y0335217D01*
X0205410Y0335296D01*
X0205275Y0335380D01*
X0205142Y0335466D01*
X0205012Y0335556D01*
X0204884Y0335649D01*
X0204758Y0335745D01*
X0204635Y0335845D01*
X0204514Y0335947D01*
X0204396Y0336052D01*
X0204281Y0336161D01*
X0204168Y0336272D01*
X0204058Y0336386D01*
X0203951Y0336503D01*
X0203847Y0336622D01*
X0203746Y0336744D01*
X0203649Y0336869D01*
X0203554Y0336996D01*
X0203463Y0337125D01*
X0203374Y0337256D01*
X0203290Y0337390D01*
X0203208Y0337526D01*
X0203130Y0337663D01*
X0203056Y0337803D01*
X0202985Y0337945D01*
X0202917Y0338088D01*
X0202853Y0338233D01*
X0202793Y0338379D01*
X0202737Y0338527D01*
X0202684Y0338676D01*
X0202635Y0338827D01*
X0202590Y0338979D01*
X0202549Y0339132D01*
X0202511Y0339285D01*
X0202478Y0339440D01*
X0202448Y0339596D01*
X0202422Y0339752D01*
X0202401Y0339909D01*
X0202383Y0340066D01*
X0202369Y0340224D01*
X0202359Y0340382D01*
X0202353Y0340540D01*
X0202351Y0340698D01*
X0015501Y0021800D02*
X0015503Y0021958D01*
X0015509Y0022116D01*
X0015519Y0022274D01*
X0015533Y0022432D01*
X0015551Y0022589D01*
X0015572Y0022746D01*
X0015598Y0022902D01*
X0015628Y0023058D01*
X0015661Y0023213D01*
X0015699Y0023366D01*
X0015740Y0023519D01*
X0015785Y0023671D01*
X0015834Y0023822D01*
X0015887Y0023971D01*
X0015943Y0024119D01*
X0016003Y0024265D01*
X0016067Y0024410D01*
X0016135Y0024553D01*
X0016206Y0024695D01*
X0016280Y0024835D01*
X0016358Y0024972D01*
X0016440Y0025108D01*
X0016524Y0025242D01*
X0016613Y0025373D01*
X0016704Y0025502D01*
X0016799Y0025629D01*
X0016896Y0025754D01*
X0016997Y0025876D01*
X0017101Y0025995D01*
X0017208Y0026112D01*
X0017318Y0026226D01*
X0017431Y0026337D01*
X0017546Y0026446D01*
X0017664Y0026551D01*
X0017785Y0026653D01*
X0017908Y0026753D01*
X0018034Y0026849D01*
X0018162Y0026942D01*
X0018292Y0027032D01*
X0018425Y0027118D01*
X0018560Y0027202D01*
X0018696Y0027281D01*
X0018835Y0027358D01*
X0018976Y0027430D01*
X0019118Y0027500D01*
X0019262Y0027565D01*
X0019408Y0027627D01*
X0019555Y0027685D01*
X0019704Y0027740D01*
X0019854Y0027791D01*
X0020005Y0027838D01*
X0020157Y0027881D01*
X0020310Y0027920D01*
X0020465Y0027956D01*
X0020620Y0027987D01*
X0020776Y0028015D01*
X0020932Y0028039D01*
X0021089Y0028059D01*
X0021247Y0028075D01*
X0021404Y0028087D01*
X0021563Y0028095D01*
X0021721Y0028099D01*
X0021879Y0028099D01*
X0022037Y0028095D01*
X0022196Y0028087D01*
X0022353Y0028075D01*
X0022511Y0028059D01*
X0022668Y0028039D01*
X0022824Y0028015D01*
X0022980Y0027987D01*
X0023135Y0027956D01*
X0023290Y0027920D01*
X0023443Y0027881D01*
X0023595Y0027838D01*
X0023746Y0027791D01*
X0023896Y0027740D01*
X0024045Y0027685D01*
X0024192Y0027627D01*
X0024338Y0027565D01*
X0024482Y0027500D01*
X0024624Y0027430D01*
X0024765Y0027358D01*
X0024904Y0027281D01*
X0025040Y0027202D01*
X0025175Y0027118D01*
X0025308Y0027032D01*
X0025438Y0026942D01*
X0025566Y0026849D01*
X0025692Y0026753D01*
X0025815Y0026653D01*
X0025936Y0026551D01*
X0026054Y0026446D01*
X0026169Y0026337D01*
X0026282Y0026226D01*
X0026392Y0026112D01*
X0026499Y0025995D01*
X0026603Y0025876D01*
X0026704Y0025754D01*
X0026801Y0025629D01*
X0026896Y0025502D01*
X0026987Y0025373D01*
X0027076Y0025242D01*
X0027160Y0025108D01*
X0027242Y0024972D01*
X0027320Y0024835D01*
X0027394Y0024695D01*
X0027465Y0024553D01*
X0027533Y0024410D01*
X0027597Y0024265D01*
X0027657Y0024119D01*
X0027713Y0023971D01*
X0027766Y0023822D01*
X0027815Y0023671D01*
X0027860Y0023519D01*
X0027901Y0023366D01*
X0027939Y0023213D01*
X0027972Y0023058D01*
X0028002Y0022902D01*
X0028028Y0022746D01*
X0028049Y0022589D01*
X0028067Y0022432D01*
X0028081Y0022274D01*
X0028091Y0022116D01*
X0028097Y0021958D01*
X0028099Y0021800D01*
X0028097Y0021642D01*
X0028091Y0021484D01*
X0028081Y0021326D01*
X0028067Y0021168D01*
X0028049Y0021011D01*
X0028028Y0020854D01*
X0028002Y0020698D01*
X0027972Y0020542D01*
X0027939Y0020387D01*
X0027901Y0020234D01*
X0027860Y0020081D01*
X0027815Y0019929D01*
X0027766Y0019778D01*
X0027713Y0019629D01*
X0027657Y0019481D01*
X0027597Y0019335D01*
X0027533Y0019190D01*
X0027465Y0019047D01*
X0027394Y0018905D01*
X0027320Y0018765D01*
X0027242Y0018628D01*
X0027160Y0018492D01*
X0027076Y0018358D01*
X0026987Y0018227D01*
X0026896Y0018098D01*
X0026801Y0017971D01*
X0026704Y0017846D01*
X0026603Y0017724D01*
X0026499Y0017605D01*
X0026392Y0017488D01*
X0026282Y0017374D01*
X0026169Y0017263D01*
X0026054Y0017154D01*
X0025936Y0017049D01*
X0025815Y0016947D01*
X0025692Y0016847D01*
X0025566Y0016751D01*
X0025438Y0016658D01*
X0025308Y0016568D01*
X0025175Y0016482D01*
X0025040Y0016398D01*
X0024904Y0016319D01*
X0024765Y0016242D01*
X0024624Y0016170D01*
X0024482Y0016100D01*
X0024338Y0016035D01*
X0024192Y0015973D01*
X0024045Y0015915D01*
X0023896Y0015860D01*
X0023746Y0015809D01*
X0023595Y0015762D01*
X0023443Y0015719D01*
X0023290Y0015680D01*
X0023135Y0015644D01*
X0022980Y0015613D01*
X0022824Y0015585D01*
X0022668Y0015561D01*
X0022511Y0015541D01*
X0022353Y0015525D01*
X0022196Y0015513D01*
X0022037Y0015505D01*
X0021879Y0015501D01*
X0021721Y0015501D01*
X0021563Y0015505D01*
X0021404Y0015513D01*
X0021247Y0015525D01*
X0021089Y0015541D01*
X0020932Y0015561D01*
X0020776Y0015585D01*
X0020620Y0015613D01*
X0020465Y0015644D01*
X0020310Y0015680D01*
X0020157Y0015719D01*
X0020005Y0015762D01*
X0019854Y0015809D01*
X0019704Y0015860D01*
X0019555Y0015915D01*
X0019408Y0015973D01*
X0019262Y0016035D01*
X0019118Y0016100D01*
X0018976Y0016170D01*
X0018835Y0016242D01*
X0018696Y0016319D01*
X0018560Y0016398D01*
X0018425Y0016482D01*
X0018292Y0016568D01*
X0018162Y0016658D01*
X0018034Y0016751D01*
X0017908Y0016847D01*
X0017785Y0016947D01*
X0017664Y0017049D01*
X0017546Y0017154D01*
X0017431Y0017263D01*
X0017318Y0017374D01*
X0017208Y0017488D01*
X0017101Y0017605D01*
X0016997Y0017724D01*
X0016896Y0017846D01*
X0016799Y0017971D01*
X0016704Y0018098D01*
X0016613Y0018227D01*
X0016524Y0018358D01*
X0016440Y0018492D01*
X0016358Y0018628D01*
X0016280Y0018765D01*
X0016206Y0018905D01*
X0016135Y0019047D01*
X0016067Y0019190D01*
X0016003Y0019335D01*
X0015943Y0019481D01*
X0015887Y0019629D01*
X0015834Y0019778D01*
X0015785Y0019929D01*
X0015740Y0020081D01*
X0015699Y0020234D01*
X0015661Y0020387D01*
X0015628Y0020542D01*
X0015598Y0020698D01*
X0015572Y0020854D01*
X0015551Y0021011D01*
X0015533Y0021168D01*
X0015519Y0021326D01*
X0015509Y0021484D01*
X0015503Y0021642D01*
X0015501Y0021800D01*
D12*
X0068800Y0046800D02*
X0074800Y0046800D01*
X0074800Y0056800D02*
X0068800Y0056800D01*
X0068800Y0066800D02*
X0074800Y0066800D01*
X0074800Y0076800D02*
X0068800Y0076800D01*
X0068800Y0086800D02*
X0074800Y0086800D01*
X0074800Y0096800D02*
X0068800Y0096800D01*
X0068800Y0106800D02*
X0074800Y0106800D01*
X0074800Y0116800D02*
X0068800Y0116800D01*
X0068800Y0126800D02*
X0074800Y0126800D01*
X0074800Y0136800D02*
X0068800Y0136800D01*
X0068800Y0146800D02*
X0074800Y0146800D01*
X0074800Y0156800D02*
X0068800Y0156800D01*
X0068800Y0166800D02*
X0074800Y0166800D01*
X0074800Y0176800D02*
X0068800Y0176800D01*
X0078800Y0206800D02*
X0084800Y0206800D01*
X0084800Y0216800D02*
X0078800Y0216800D01*
X0078800Y0226800D02*
X0084800Y0226800D01*
X0084800Y0236800D02*
X0078800Y0236800D01*
X0078800Y0246800D02*
X0084800Y0246800D01*
X0084800Y0256800D02*
X0078800Y0256800D01*
X0049800Y0256800D02*
X0043800Y0256800D01*
X0043800Y0246800D02*
X0049800Y0246800D01*
X0049800Y0236800D02*
X0043800Y0236800D01*
X0043800Y0226800D02*
X0049800Y0226800D01*
X0049800Y0216800D02*
X0043800Y0216800D01*
X0043800Y0206800D02*
X0049800Y0206800D01*
X0044800Y0291800D02*
X0038800Y0291800D01*
X0038800Y0301800D02*
X0044800Y0301800D01*
X0044800Y0311800D02*
X0038800Y0311800D01*
X0038800Y0321800D02*
X0044800Y0321800D01*
X0044800Y0331800D02*
X0038800Y0331800D01*
X0038800Y0341800D02*
X0044800Y0341800D01*
X0083800Y0341800D02*
X0089800Y0341800D01*
X0089800Y0331800D02*
X0083800Y0331800D01*
X0083800Y0321800D02*
X0089800Y0321800D01*
X0089800Y0311800D02*
X0083800Y0311800D01*
X0083800Y0301800D02*
X0089800Y0301800D01*
X0089800Y0291800D02*
X0083800Y0291800D01*
X0171800Y0338800D02*
X0171800Y0344800D01*
X0181800Y0344800D02*
X0181800Y0338800D01*
X0201800Y0229800D02*
X0201800Y0223800D01*
X0211800Y0223800D02*
X0211800Y0229800D01*
X0221800Y0229800D02*
X0221800Y0223800D01*
X0231800Y0223800D02*
X0231800Y0229800D01*
X0338800Y0191800D02*
X0344800Y0191800D01*
X0344800Y0181800D02*
X0338800Y0181800D01*
X0231800Y0119800D02*
X0231800Y0113800D01*
X0221800Y0113800D02*
X0221800Y0119800D01*
X0211800Y0119800D02*
X0211800Y0113800D01*
X0201800Y0113800D02*
X0201800Y0119800D01*
X0199800Y0036800D02*
X0193800Y0036800D01*
X0193800Y0026800D02*
X0199800Y0026800D01*
X0291800Y0028800D02*
X0291800Y0034800D01*
X0301800Y0034800D02*
X0301800Y0028800D01*
X0301800Y0338800D02*
X0301800Y0344800D01*
X0291800Y0344800D02*
X0291800Y0338800D01*
D13*
X0321800Y0252800D03*
X0321800Y0242800D03*
X0321800Y0232800D03*
X0321800Y0222800D03*
X0321800Y0212800D03*
X0321800Y0202800D03*
X0321800Y0192800D03*
X0321800Y0182800D03*
X0321800Y0172800D03*
X0321800Y0162800D03*
X0321800Y0146800D03*
X0321800Y0136800D03*
X0321800Y0126800D03*
X0321800Y0116800D03*
X0321800Y0106800D03*
X0321800Y0096800D03*
X0321800Y0086800D03*
X0321800Y0076800D03*
X0131800Y0076800D03*
X0131800Y0086800D03*
X0131800Y0096800D03*
X0131800Y0106800D03*
X0131800Y0116800D03*
X0131800Y0126800D03*
X0131800Y0146800D03*
X0131800Y0156800D03*
X0131800Y0166800D03*
X0131800Y0176800D03*
X0131800Y0186800D03*
X0131800Y0196800D03*
X0131800Y0206800D03*
X0131800Y0216800D03*
D14*
X0106800Y0241800D02*
X0201800Y0241800D01*
X0201800Y0226800D01*
X0211800Y0226800D02*
X0211800Y0251800D01*
X0096800Y0251800D01*
X0096800Y0106800D01*
X0086800Y0106800D01*
X0086800Y0096800D02*
X0106800Y0096800D01*
X0106800Y0241800D01*
X0116800Y0136800D02*
X0116800Y0086800D01*
X0086800Y0086800D01*
X0086800Y0076800D02*
X0096800Y0076800D01*
X0096800Y0066800D01*
X0136800Y0066800D01*
X0136800Y0056800D01*
X0211800Y0056800D01*
X0211800Y0116800D01*
X0201800Y0116800D02*
X0201800Y0136800D01*
X0116800Y0136800D01*
X0086800Y0066800D02*
X0086800Y0056800D01*
X0126800Y0056800D01*
X0126800Y0046800D01*
X0281800Y0046800D01*
X0281800Y0131800D01*
X0221800Y0131800D01*
X0221800Y0116800D01*
X0291800Y0156800D02*
X0291800Y0186800D01*
X0301800Y0186800D02*
X0301800Y0156800D01*
X0266800Y0226800D02*
X0231800Y0226800D01*
D15*
X0266800Y0226800D03*
X0291800Y0186800D03*
X0301800Y0186800D03*
X0301800Y0156800D03*
X0291800Y0156800D03*
X0251800Y0116800D03*
X0116800Y0046800D03*
X0086800Y0066800D03*
X0086800Y0076800D03*
X0086800Y0086800D03*
X0086800Y0096800D03*
X0086800Y0106800D03*
X0051800Y0056800D03*
X0086800Y0166800D03*
X0051800Y0176800D03*
X0341800Y0276800D03*
D16*
X0341800Y0356800D01*
X0066800Y0356800D01*
X0066800Y0196800D01*
X0086800Y0196800D01*
X0086800Y0166800D01*
X0051800Y0176800D02*
X0051800Y0141800D01*
X0051800Y0056800D02*
X0051800Y0021800D01*
X0116800Y0021800D01*
X0116800Y0046800D01*
X0231800Y0116800D02*
X0251800Y0116800D01*
D17*
X0051800Y0141800D03*
M02*
