G75*
%MOIN*%
%OFA0B0*%
%FSLAX25Y25*%
%IPPOS*%
%LPD*%
%AMOC8*
5,1,8,0,0,1.08239X$1,22.5*
%
%ADD10C,0.00800*%
%ADD11C,0.00600*%
%ADD12C,0.01200*%
%ADD13C,0.00500*%
D10*
X0196800Y0149300D02*
X0199300Y0146800D01*
X0204300Y0146800D01*
X0206800Y0149300D01*
X0209300Y0146800D01*
X0214300Y0146800D01*
X0216800Y0149300D01*
X0219300Y0146800D01*
X0224300Y0146800D01*
X0226800Y0149300D01*
X0229300Y0146800D01*
X0234300Y0146800D01*
X0236800Y0149300D01*
X0239300Y0146800D01*
X0244300Y0146800D01*
X0246800Y0149300D01*
X0249300Y0146800D01*
X0254300Y0146800D01*
X0256800Y0149300D01*
X0259300Y0146800D01*
X0264300Y0146800D01*
X0266800Y0149300D01*
X0269300Y0146800D01*
X0274300Y0146800D01*
X0276800Y0149300D01*
X0276800Y0154300D01*
X0274300Y0156800D01*
X0269300Y0156800D01*
X0266800Y0154300D01*
X0264300Y0156800D01*
X0259300Y0156800D01*
X0256800Y0154300D01*
X0254300Y0156800D01*
X0249300Y0156800D01*
X0246800Y0154300D01*
X0244300Y0156800D01*
X0239300Y0156800D01*
X0236800Y0154300D01*
X0234300Y0156800D01*
X0229300Y0156800D01*
X0226800Y0154300D01*
X0224300Y0156800D01*
X0219300Y0156800D01*
X0216800Y0154300D01*
X0214300Y0156800D01*
X0209300Y0156800D01*
X0206800Y0154300D01*
X0204300Y0156800D01*
X0199300Y0156800D01*
X0196800Y0154300D01*
X0199700Y0160300D02*
X0202903Y0160300D01*
X0204504Y0161901D01*
X0202903Y0163503D01*
X0199700Y0163503D01*
X0199700Y0165456D02*
X0199700Y0168659D01*
X0199700Y0167058D02*
X0204504Y0167058D01*
X0202903Y0165456D01*
X0202102Y0163503D02*
X0202102Y0160300D01*
X0209200Y0160300D02*
X0212403Y0160300D01*
X0214004Y0161901D01*
X0212403Y0163503D01*
X0209200Y0163503D01*
X0209200Y0165456D02*
X0209200Y0168659D01*
X0209200Y0167058D02*
X0214004Y0167058D01*
X0212403Y0165456D01*
X0211602Y0163503D02*
X0211602Y0160300D01*
X0219200Y0160300D02*
X0222403Y0160300D01*
X0224004Y0161901D01*
X0222403Y0163503D01*
X0219200Y0163503D01*
X0219200Y0165456D02*
X0219200Y0168659D01*
X0219200Y0167058D02*
X0224004Y0167058D01*
X0222403Y0165456D01*
X0221602Y0163503D02*
X0221602Y0160300D01*
X0229200Y0160300D02*
X0232403Y0160300D01*
X0234004Y0161901D01*
X0232403Y0163503D01*
X0229200Y0163503D01*
X0229200Y0165456D02*
X0229200Y0168659D01*
X0229200Y0167058D02*
X0234004Y0167058D01*
X0232403Y0165456D01*
X0231602Y0163503D02*
X0231602Y0160300D01*
X0239200Y0160300D02*
X0242403Y0160300D01*
X0244004Y0161901D01*
X0242403Y0163503D01*
X0239200Y0163503D01*
X0239200Y0165456D02*
X0239200Y0168659D01*
X0239200Y0167058D02*
X0244004Y0167058D01*
X0242403Y0165456D01*
X0241602Y0163503D02*
X0241602Y0160300D01*
X0249200Y0160300D02*
X0252403Y0160300D01*
X0254004Y0161901D01*
X0252403Y0163503D01*
X0249200Y0163503D01*
X0249200Y0165456D02*
X0249200Y0168659D01*
X0249200Y0167058D02*
X0254004Y0167058D01*
X0252403Y0165456D01*
X0251602Y0163503D02*
X0251602Y0160300D01*
X0259200Y0160300D02*
X0262403Y0160300D01*
X0264004Y0161901D01*
X0262403Y0163503D01*
X0259200Y0163503D01*
X0260001Y0165456D02*
X0259200Y0166257D01*
X0259200Y0167858D01*
X0260001Y0168659D01*
X0263203Y0168659D01*
X0264004Y0167858D01*
X0264004Y0166257D01*
X0263203Y0165456D01*
X0262403Y0165456D01*
X0261602Y0166257D01*
X0261602Y0168659D01*
X0261602Y0163503D02*
X0261602Y0160300D01*
X0269200Y0160300D02*
X0272403Y0160300D01*
X0274004Y0161901D01*
X0272403Y0163503D01*
X0269200Y0163503D01*
X0270001Y0165456D02*
X0269200Y0166257D01*
X0269200Y0167858D01*
X0270001Y0168659D01*
X0270801Y0168659D01*
X0271602Y0167858D01*
X0271602Y0166257D01*
X0272403Y0165456D01*
X0273203Y0165456D01*
X0274004Y0166257D01*
X0274004Y0167858D01*
X0273203Y0168659D01*
X0272403Y0168659D01*
X0271602Y0167858D01*
X0271602Y0166257D02*
X0270801Y0165456D01*
X0270001Y0165456D01*
X0271602Y0163503D02*
X0271602Y0160300D01*
X0286800Y0154300D02*
X0286800Y0149300D01*
X0289300Y0146800D01*
X0294300Y0146800D01*
X0296800Y0149300D01*
X0299300Y0146800D01*
X0304300Y0146800D01*
X0306800Y0149300D01*
X0309300Y0146800D01*
X0314300Y0146800D01*
X0316800Y0149300D01*
X0319300Y0146800D01*
X0324300Y0146800D01*
X0326800Y0149300D01*
X0329300Y0146800D01*
X0334300Y0146800D01*
X0336800Y0149300D01*
X0339300Y0146800D01*
X0344300Y0146800D01*
X0346800Y0149300D01*
X0349300Y0146800D01*
X0354300Y0146800D01*
X0356800Y0149300D01*
X0359300Y0146800D01*
X0364300Y0146800D01*
X0366800Y0149300D01*
X0366800Y0154300D01*
X0364300Y0156800D01*
X0359300Y0156800D01*
X0356800Y0154300D01*
X0354300Y0156800D01*
X0349300Y0156800D01*
X0346800Y0154300D01*
X0344300Y0156800D01*
X0339300Y0156800D01*
X0336800Y0154300D01*
X0334300Y0156800D01*
X0329300Y0156800D01*
X0326800Y0154300D01*
X0324300Y0156800D01*
X0319300Y0156800D01*
X0316800Y0154300D01*
X0314300Y0156800D01*
X0309300Y0156800D01*
X0306800Y0154300D01*
X0304300Y0156800D01*
X0299300Y0156800D01*
X0296800Y0154300D01*
X0294300Y0156800D01*
X0289300Y0156800D01*
X0286800Y0154300D01*
X0289200Y0160300D02*
X0292403Y0160300D01*
X0294004Y0161901D01*
X0292403Y0163503D01*
X0289200Y0163503D01*
X0289200Y0165456D02*
X0290001Y0165456D01*
X0293203Y0168659D01*
X0294004Y0168659D01*
X0294004Y0165456D01*
X0291602Y0163503D02*
X0291602Y0160300D01*
X0299700Y0161101D02*
X0300501Y0160300D01*
X0302102Y0160300D01*
X0302102Y0162702D01*
X0301301Y0163503D01*
X0300501Y0163503D01*
X0299700Y0162702D01*
X0299700Y0161101D01*
X0302102Y0160300D02*
X0303703Y0161901D01*
X0304504Y0163503D01*
X0309700Y0163503D02*
X0312903Y0163503D01*
X0314504Y0161901D01*
X0312903Y0160300D01*
X0309700Y0160300D01*
X0312102Y0160300D02*
X0312102Y0163503D01*
X0312102Y0165456D02*
X0312903Y0167058D01*
X0312903Y0167858D01*
X0312102Y0168659D01*
X0310501Y0168659D01*
X0309700Y0167858D01*
X0309700Y0166257D01*
X0310501Y0165456D01*
X0312102Y0165456D02*
X0314504Y0165456D01*
X0314504Y0168659D01*
X0319200Y0167858D02*
X0324004Y0167858D01*
X0321602Y0165456D01*
X0321602Y0168659D01*
X0321602Y0163503D02*
X0321602Y0160300D01*
X0322403Y0160300D02*
X0324004Y0161901D01*
X0322403Y0163503D01*
X0319200Y0163503D01*
X0319200Y0160300D02*
X0322403Y0160300D01*
X0329200Y0160300D02*
X0332403Y0160300D01*
X0334004Y0161901D01*
X0332403Y0163503D01*
X0329200Y0163503D01*
X0330001Y0165456D02*
X0329200Y0166257D01*
X0329200Y0167858D01*
X0330001Y0168659D01*
X0330801Y0168659D01*
X0331602Y0167858D01*
X0331602Y0167058D01*
X0331602Y0167858D02*
X0332403Y0168659D01*
X0333203Y0168659D01*
X0334004Y0167858D01*
X0334004Y0166257D01*
X0333203Y0165456D01*
X0331602Y0163503D02*
X0331602Y0160300D01*
X0339200Y0160300D02*
X0342403Y0160300D01*
X0344004Y0161901D01*
X0342403Y0163503D01*
X0339200Y0163503D01*
X0339200Y0165456D02*
X0342403Y0168659D01*
X0343203Y0168659D01*
X0344004Y0167858D01*
X0344004Y0166257D01*
X0343203Y0165456D01*
X0341602Y0163503D02*
X0341602Y0160300D01*
X0350200Y0160300D02*
X0353403Y0160300D01*
X0355004Y0161901D01*
X0353403Y0163503D01*
X0350200Y0163503D01*
X0350200Y0165456D02*
X0350200Y0168659D01*
X0350200Y0167058D02*
X0355004Y0167058D01*
X0353403Y0165456D01*
X0352602Y0163503D02*
X0352602Y0160300D01*
X0359200Y0160300D02*
X0362403Y0160300D01*
X0364004Y0161901D01*
X0362403Y0163503D01*
X0359200Y0163503D01*
X0360001Y0165456D02*
X0363203Y0168659D01*
X0360001Y0168659D01*
X0359200Y0167858D01*
X0359200Y0166257D01*
X0360001Y0165456D01*
X0363203Y0165456D01*
X0364004Y0166257D01*
X0364004Y0167858D01*
X0363203Y0168659D01*
X0361602Y0163503D02*
X0361602Y0160300D01*
X0376800Y0154300D02*
X0376800Y0149300D01*
X0379300Y0146800D01*
X0384300Y0146800D01*
X0386800Y0149300D01*
X0389300Y0146800D01*
X0394300Y0146800D01*
X0396800Y0149300D01*
X0399300Y0146800D01*
X0404300Y0146800D01*
X0406800Y0149300D01*
X0409300Y0146800D01*
X0414300Y0146800D01*
X0416800Y0149300D01*
X0419300Y0146800D01*
X0424300Y0146800D01*
X0426800Y0149300D01*
X0429300Y0146800D01*
X0434300Y0146800D01*
X0436800Y0149300D01*
X0439300Y0146800D01*
X0444300Y0146800D01*
X0446800Y0149300D01*
X0449300Y0146800D01*
X0454300Y0146800D01*
X0456800Y0149300D01*
X0456800Y0154300D01*
X0454300Y0156800D01*
X0449300Y0156800D01*
X0446800Y0154300D01*
X0444300Y0156800D01*
X0439300Y0156800D01*
X0436800Y0154300D01*
X0434300Y0156800D01*
X0429300Y0156800D01*
X0426800Y0154300D01*
X0424300Y0156800D01*
X0419300Y0156800D01*
X0416800Y0154300D01*
X0414300Y0156800D01*
X0409300Y0156800D01*
X0406800Y0154300D01*
X0404300Y0156800D01*
X0399300Y0156800D01*
X0396800Y0154300D01*
X0394300Y0156800D01*
X0389300Y0156800D01*
X0386800Y0154300D01*
X0384300Y0156800D01*
X0379300Y0156800D01*
X0376800Y0154300D01*
X0339200Y0165456D02*
X0339200Y0168659D01*
X0254004Y0171413D02*
X0254004Y0173015D01*
X0253203Y0173816D01*
X0250001Y0170613D01*
X0249200Y0171413D01*
X0249200Y0173015D01*
X0250001Y0173816D01*
X0253203Y0173816D01*
X0254004Y0171413D02*
X0253203Y0170613D01*
X0250001Y0170613D01*
X0244004Y0172214D02*
X0239200Y0172214D01*
X0239200Y0170613D02*
X0239200Y0173816D01*
X0242403Y0170613D02*
X0244004Y0172214D01*
X0234004Y0171413D02*
X0233203Y0170613D01*
X0234004Y0171413D02*
X0234004Y0173015D01*
X0233203Y0173816D01*
X0232403Y0173816D01*
X0229200Y0170613D01*
X0229200Y0173816D01*
X0224004Y0173015D02*
X0223203Y0173816D01*
X0222403Y0173816D01*
X0221602Y0173015D01*
X0220801Y0173816D01*
X0220001Y0173816D01*
X0219200Y0173015D01*
X0219200Y0171413D01*
X0220001Y0170613D01*
X0221602Y0172214D02*
X0221602Y0173015D01*
X0224004Y0173015D02*
X0224004Y0171413D01*
X0223203Y0170613D01*
X0214004Y0173015D02*
X0211602Y0170613D01*
X0211602Y0173816D01*
X0209200Y0173015D02*
X0214004Y0173015D01*
X0204504Y0173816D02*
X0204504Y0170613D01*
X0202102Y0170613D01*
X0202903Y0172214D01*
X0202903Y0173015D01*
X0202102Y0173816D01*
X0200501Y0173816D01*
X0199700Y0173015D01*
X0199700Y0171413D01*
X0200501Y0170613D01*
X0196800Y0169300D02*
X0194300Y0166800D01*
X0179300Y0166800D01*
X0176800Y0169300D01*
X0176800Y0174300D01*
X0179300Y0176800D01*
X0194300Y0176800D01*
X0196800Y0174300D01*
X0196800Y0169300D01*
X0199941Y0179200D02*
X0203144Y0179200D01*
X0199941Y0182403D01*
X0199941Y0183203D01*
X0200742Y0184004D01*
X0202343Y0184004D01*
X0203144Y0183203D01*
X0205097Y0184004D02*
X0208300Y0184004D01*
X0208300Y0181602D01*
X0206699Y0182403D01*
X0205898Y0182403D01*
X0205097Y0181602D01*
X0205097Y0180001D01*
X0205898Y0179200D01*
X0207499Y0179200D01*
X0208300Y0180001D01*
X0207499Y0189200D02*
X0208300Y0190001D01*
X0207499Y0189200D02*
X0205898Y0189200D01*
X0205097Y0190001D01*
X0205097Y0191602D01*
X0205898Y0192403D01*
X0206699Y0192403D01*
X0208300Y0191602D01*
X0208300Y0194004D01*
X0205097Y0194004D01*
X0203144Y0193203D02*
X0203144Y0190001D01*
X0199941Y0193203D01*
X0199941Y0190001D01*
X0200742Y0189200D01*
X0202343Y0189200D01*
X0203144Y0190001D01*
X0203144Y0193203D02*
X0202343Y0194004D01*
X0200742Y0194004D01*
X0199941Y0193203D01*
X0200742Y0199200D02*
X0202343Y0199200D01*
X0203144Y0200001D01*
X0203144Y0200801D01*
X0202343Y0201602D01*
X0200742Y0201602D01*
X0199941Y0200801D01*
X0199941Y0200001D01*
X0200742Y0199200D01*
X0200742Y0201602D02*
X0199941Y0202403D01*
X0199941Y0203203D01*
X0200742Y0204004D01*
X0202343Y0204004D01*
X0203144Y0203203D01*
X0203144Y0202403D01*
X0202343Y0201602D01*
X0205097Y0201602D02*
X0208300Y0201602D01*
X0205898Y0204004D01*
X0205898Y0199200D01*
X0205898Y0209200D02*
X0205898Y0214004D01*
X0208300Y0211602D01*
X0205097Y0211602D01*
X0203144Y0211602D02*
X0201542Y0213203D01*
X0199941Y0214004D01*
X0200742Y0211602D02*
X0203144Y0211602D01*
X0203144Y0210001D01*
X0202343Y0209200D01*
X0200742Y0209200D01*
X0199941Y0210001D01*
X0199941Y0210801D01*
X0200742Y0211602D01*
X0200742Y0219200D02*
X0200742Y0224004D01*
X0203144Y0221602D01*
X0199941Y0221602D01*
X0205097Y0221602D02*
X0208300Y0221602D01*
X0205898Y0224004D01*
X0205898Y0219200D01*
X0205898Y0229200D02*
X0205898Y0234004D01*
X0208300Y0231602D01*
X0205097Y0231602D01*
X0203144Y0233203D02*
X0202343Y0234004D01*
X0200742Y0234004D01*
X0199941Y0233203D01*
X0199941Y0232403D01*
X0203144Y0229200D01*
X0199941Y0229200D01*
X0200742Y0239200D02*
X0202343Y0239200D01*
X0203144Y0240001D01*
X0199941Y0243203D01*
X0199941Y0240001D01*
X0200742Y0239200D01*
X0203144Y0240001D02*
X0203144Y0243203D01*
X0202343Y0244004D01*
X0200742Y0244004D01*
X0199941Y0243203D01*
X0205097Y0241602D02*
X0208300Y0241602D01*
X0205898Y0244004D01*
X0205898Y0239200D01*
X0205898Y0249200D02*
X0207499Y0249200D01*
X0208300Y0250001D01*
X0206699Y0251602D02*
X0205898Y0251602D01*
X0205097Y0250801D01*
X0205097Y0250001D01*
X0205898Y0249200D01*
X0205898Y0251602D02*
X0205097Y0252403D01*
X0205097Y0253203D01*
X0205898Y0254004D01*
X0207499Y0254004D01*
X0208300Y0253203D01*
X0203144Y0253203D02*
X0203144Y0252403D01*
X0202343Y0251602D01*
X0200742Y0251602D01*
X0199941Y0250801D01*
X0199941Y0250001D01*
X0200742Y0249200D01*
X0202343Y0249200D01*
X0203144Y0250001D01*
X0203144Y0250801D01*
X0202343Y0251602D01*
X0200742Y0251602D02*
X0199941Y0252403D01*
X0199941Y0253203D01*
X0200742Y0254004D01*
X0202343Y0254004D01*
X0203144Y0253203D01*
X0202343Y0259200D02*
X0200742Y0259200D01*
X0199941Y0260001D01*
X0199941Y0260801D01*
X0200742Y0261602D01*
X0203144Y0261602D01*
X0203144Y0260001D01*
X0202343Y0259200D01*
X0203144Y0261602D02*
X0201542Y0263203D01*
X0199941Y0264004D01*
X0205097Y0263203D02*
X0205097Y0262403D01*
X0205898Y0261602D01*
X0205097Y0260801D01*
X0205097Y0260001D01*
X0205898Y0259200D01*
X0207499Y0259200D01*
X0208300Y0260001D01*
X0206699Y0261602D02*
X0205898Y0261602D01*
X0205097Y0263203D02*
X0205898Y0264004D01*
X0207499Y0264004D01*
X0208300Y0263203D01*
X0207499Y0269200D02*
X0208300Y0270001D01*
X0207499Y0269200D02*
X0205898Y0269200D01*
X0205097Y0270001D01*
X0205097Y0270801D01*
X0205898Y0271602D01*
X0206699Y0271602D01*
X0205898Y0271602D02*
X0205097Y0272403D01*
X0205097Y0273203D01*
X0205898Y0274004D01*
X0207499Y0274004D01*
X0208300Y0273203D01*
X0203144Y0271602D02*
X0199941Y0271602D01*
X0200742Y0269200D02*
X0200742Y0274004D01*
X0203144Y0271602D01*
X0203144Y0279200D02*
X0199941Y0282403D01*
X0199941Y0283203D01*
X0200742Y0284004D01*
X0202343Y0284004D01*
X0203144Y0283203D01*
X0205097Y0283203D02*
X0205097Y0282403D01*
X0205898Y0281602D01*
X0205097Y0280801D01*
X0205097Y0280001D01*
X0205898Y0279200D01*
X0207499Y0279200D01*
X0208300Y0280001D01*
X0206699Y0281602D02*
X0205898Y0281602D01*
X0205097Y0283203D02*
X0205898Y0284004D01*
X0207499Y0284004D01*
X0208300Y0283203D01*
X0207499Y0289200D02*
X0208300Y0290001D01*
X0207499Y0289200D02*
X0205898Y0289200D01*
X0205097Y0290001D01*
X0205097Y0290801D01*
X0205898Y0291602D01*
X0206699Y0291602D01*
X0205898Y0291602D02*
X0205097Y0292403D01*
X0205097Y0293203D01*
X0205898Y0294004D01*
X0207499Y0294004D01*
X0208300Y0293203D01*
X0203144Y0293203D02*
X0203144Y0290001D01*
X0199941Y0293203D01*
X0199941Y0290001D01*
X0200742Y0289200D01*
X0202343Y0289200D01*
X0203144Y0290001D01*
X0203144Y0293203D02*
X0202343Y0294004D01*
X0200742Y0294004D01*
X0199941Y0293203D01*
X0200742Y0299200D02*
X0202343Y0299200D01*
X0203144Y0300001D01*
X0203144Y0300801D01*
X0202343Y0301602D01*
X0200742Y0301602D01*
X0199941Y0300801D01*
X0199941Y0300001D01*
X0200742Y0299200D01*
X0200742Y0301602D02*
X0199941Y0302403D01*
X0199941Y0303203D01*
X0200742Y0304004D01*
X0202343Y0304004D01*
X0203144Y0303203D01*
X0203144Y0302403D01*
X0202343Y0301602D01*
X0205097Y0302403D02*
X0205097Y0303203D01*
X0205898Y0304004D01*
X0207499Y0304004D01*
X0208300Y0303203D01*
X0205097Y0302403D02*
X0208300Y0299200D01*
X0205097Y0299200D01*
X0205097Y0309200D02*
X0208300Y0309200D01*
X0205097Y0312403D01*
X0205097Y0313203D01*
X0205898Y0314004D01*
X0207499Y0314004D01*
X0208300Y0313203D01*
X0203144Y0311602D02*
X0200742Y0311602D01*
X0199941Y0310801D01*
X0199941Y0310001D01*
X0200742Y0309200D01*
X0202343Y0309200D01*
X0203144Y0310001D01*
X0203144Y0311602D01*
X0201542Y0313203D01*
X0199941Y0314004D01*
X0200742Y0319200D02*
X0200742Y0324004D01*
X0203144Y0321602D01*
X0199941Y0321602D01*
X0205097Y0322403D02*
X0208300Y0319200D01*
X0205097Y0319200D01*
X0205097Y0322403D02*
X0205097Y0323203D01*
X0205898Y0324004D01*
X0207499Y0324004D01*
X0208300Y0323203D01*
X0208300Y0329200D02*
X0205097Y0332403D01*
X0205097Y0333203D01*
X0205898Y0334004D01*
X0207499Y0334004D01*
X0208300Y0333203D01*
X0208300Y0329200D02*
X0205097Y0329200D01*
X0203144Y0329200D02*
X0199941Y0332403D01*
X0199941Y0333203D01*
X0200742Y0334004D01*
X0202343Y0334004D01*
X0203144Y0333203D01*
X0203144Y0329200D02*
X0199941Y0329200D01*
X0194300Y0336800D02*
X0179300Y0336800D01*
X0176800Y0339300D01*
X0176800Y0344300D01*
X0179300Y0346800D01*
X0194300Y0346800D01*
X0196800Y0344300D01*
X0196800Y0339300D01*
X0194300Y0336800D01*
X0216800Y0339300D02*
X0219300Y0336800D01*
X0224300Y0336800D01*
X0226800Y0339300D01*
X0229300Y0336800D01*
X0234300Y0336800D01*
X0236800Y0339300D01*
X0239300Y0336800D01*
X0244300Y0336800D01*
X0246800Y0339300D01*
X0249300Y0336800D01*
X0254300Y0336800D01*
X0256800Y0339300D01*
X0259300Y0336800D01*
X0264300Y0336800D01*
X0266800Y0339300D01*
X0269300Y0336800D01*
X0274300Y0336800D01*
X0276800Y0339300D01*
X0279300Y0336800D01*
X0284300Y0336800D01*
X0286800Y0339300D01*
X0289300Y0336800D01*
X0294300Y0336800D01*
X0296800Y0339300D01*
X0296800Y0344300D01*
X0294300Y0346800D01*
X0289300Y0346800D01*
X0286800Y0344300D01*
X0284300Y0346800D01*
X0279300Y0346800D01*
X0276800Y0344300D01*
X0274300Y0346800D01*
X0269300Y0346800D01*
X0266800Y0344300D01*
X0264300Y0346800D01*
X0259300Y0346800D01*
X0256800Y0344300D01*
X0254300Y0346800D01*
X0249300Y0346800D01*
X0246800Y0344300D01*
X0244300Y0346800D01*
X0239300Y0346800D01*
X0236800Y0344300D01*
X0234300Y0346800D01*
X0229300Y0346800D01*
X0226800Y0344300D01*
X0224300Y0346800D01*
X0219300Y0346800D01*
X0216800Y0344300D01*
X0216800Y0339300D01*
X0219100Y0332746D02*
X0219100Y0329544D01*
X0219100Y0331145D02*
X0223904Y0331145D01*
X0222303Y0329544D01*
X0222303Y0327590D02*
X0223103Y0327590D01*
X0223904Y0326789D01*
X0223904Y0325188D01*
X0223103Y0324387D01*
X0222303Y0327590D02*
X0219100Y0324387D01*
X0219100Y0327590D01*
X0229600Y0327590D02*
X0229600Y0324387D01*
X0232803Y0327590D01*
X0233603Y0327590D01*
X0234404Y0326789D01*
X0234404Y0325188D01*
X0233603Y0324387D01*
X0239600Y0324887D02*
X0239600Y0328090D01*
X0239600Y0326489D02*
X0244404Y0326489D01*
X0242803Y0324887D01*
X0249100Y0324887D02*
X0249100Y0328090D01*
X0249100Y0326489D02*
X0253904Y0326489D01*
X0252303Y0324887D01*
X0259600Y0324887D02*
X0259600Y0328090D01*
X0259600Y0326489D02*
X0264404Y0326489D01*
X0262803Y0324887D01*
X0269100Y0324887D02*
X0269100Y0328090D01*
X0269100Y0326489D02*
X0273904Y0326489D01*
X0272303Y0324887D01*
X0279600Y0324887D02*
X0279600Y0328090D01*
X0279600Y0326489D02*
X0284404Y0326489D01*
X0282803Y0324887D01*
X0289100Y0324887D02*
X0289100Y0328090D01*
X0289100Y0326489D02*
X0293904Y0326489D01*
X0292303Y0324887D01*
X0291502Y0330044D02*
X0291502Y0333246D01*
X0289100Y0332446D02*
X0293904Y0332446D01*
X0291502Y0330044D01*
X0284404Y0330044D02*
X0282002Y0330044D01*
X0282803Y0331645D01*
X0282803Y0332446D01*
X0282002Y0333246D01*
X0280401Y0333246D01*
X0279600Y0332446D01*
X0279600Y0330844D01*
X0280401Y0330044D01*
X0284404Y0330044D02*
X0284404Y0333246D01*
X0273904Y0333246D02*
X0273103Y0331645D01*
X0271502Y0330044D01*
X0271502Y0332446D01*
X0270701Y0333246D01*
X0269901Y0333246D01*
X0269100Y0332446D01*
X0269100Y0330844D01*
X0269901Y0330044D01*
X0271502Y0330044D01*
X0264404Y0330044D02*
X0264404Y0333246D01*
X0263603Y0333246D01*
X0260401Y0330044D01*
X0259600Y0330044D01*
X0253904Y0330844D02*
X0253904Y0332446D01*
X0253103Y0333246D01*
X0252303Y0333246D01*
X0251502Y0332446D01*
X0251502Y0330844D01*
X0252303Y0330044D01*
X0253103Y0330044D01*
X0253904Y0330844D01*
X0251502Y0330844D02*
X0250701Y0330044D01*
X0249901Y0330044D01*
X0249100Y0330844D01*
X0249100Y0332446D01*
X0249901Y0333246D01*
X0250701Y0333246D01*
X0251502Y0332446D01*
X0244404Y0332446D02*
X0244404Y0330844D01*
X0243603Y0330044D01*
X0242803Y0330044D01*
X0242002Y0330844D01*
X0242002Y0333246D01*
X0240401Y0333246D02*
X0243603Y0333246D01*
X0244404Y0332446D01*
X0240401Y0333246D02*
X0239600Y0332446D01*
X0239600Y0330844D01*
X0240401Y0330044D01*
X0234404Y0330344D02*
X0234404Y0331946D01*
X0233603Y0332746D01*
X0230401Y0329544D01*
X0229600Y0330344D01*
X0229600Y0331946D01*
X0230401Y0332746D01*
X0233603Y0332746D01*
X0234404Y0330344D02*
X0233603Y0329544D01*
X0230401Y0329544D01*
X0173900Y0293303D02*
X0173099Y0294104D01*
X0171498Y0294104D01*
X0170697Y0293303D01*
X0170697Y0292503D01*
X0171498Y0291702D01*
X0170697Y0290901D01*
X0170697Y0290101D01*
X0171498Y0289300D01*
X0173099Y0289300D01*
X0173900Y0290101D01*
X0172299Y0291702D02*
X0171498Y0291702D01*
X0168744Y0292503D02*
X0167142Y0294104D01*
X0167142Y0289300D01*
X0165541Y0289300D02*
X0168744Y0289300D01*
X0167943Y0284104D02*
X0166342Y0284104D01*
X0165541Y0283303D01*
X0165541Y0282503D01*
X0166342Y0281702D01*
X0165541Y0280901D01*
X0165541Y0280101D01*
X0166342Y0279300D01*
X0167943Y0279300D01*
X0168744Y0280101D01*
X0170697Y0280101D02*
X0171498Y0279300D01*
X0173099Y0279300D01*
X0173900Y0280101D01*
X0172299Y0281702D02*
X0171498Y0281702D01*
X0170697Y0280901D01*
X0170697Y0280101D01*
X0171498Y0281702D02*
X0170697Y0282503D01*
X0170697Y0283303D01*
X0171498Y0284104D01*
X0173099Y0284104D01*
X0173900Y0283303D01*
X0168744Y0283303D02*
X0167943Y0284104D01*
X0167142Y0281702D02*
X0166342Y0281702D01*
X0165541Y0274104D02*
X0168744Y0274104D01*
X0168744Y0271702D01*
X0167142Y0272503D01*
X0166342Y0272503D01*
X0165541Y0271702D01*
X0165541Y0270101D01*
X0166342Y0269300D01*
X0167943Y0269300D01*
X0168744Y0270101D01*
X0170697Y0270101D02*
X0171498Y0269300D01*
X0173099Y0269300D01*
X0173900Y0270101D01*
X0172299Y0271702D02*
X0171498Y0271702D01*
X0170697Y0270901D01*
X0170697Y0270101D01*
X0171498Y0271702D02*
X0170697Y0272503D01*
X0170697Y0273303D01*
X0171498Y0274104D01*
X0173099Y0274104D01*
X0173900Y0273303D01*
X0173099Y0264104D02*
X0171498Y0264104D01*
X0170697Y0263303D01*
X0170697Y0262503D01*
X0171498Y0261702D01*
X0170697Y0260901D01*
X0170697Y0260101D01*
X0171498Y0259300D01*
X0173099Y0259300D01*
X0173900Y0260101D01*
X0172299Y0261702D02*
X0171498Y0261702D01*
X0173900Y0263303D02*
X0173099Y0264104D01*
X0168744Y0264104D02*
X0165541Y0264104D01*
X0165541Y0263303D01*
X0168744Y0260101D01*
X0168744Y0259300D01*
X0167943Y0254104D02*
X0166342Y0254104D01*
X0165541Y0253303D01*
X0165541Y0250101D01*
X0166342Y0249300D01*
X0167943Y0249300D01*
X0168744Y0250101D01*
X0167943Y0251702D02*
X0165541Y0251702D01*
X0167943Y0251702D02*
X0168744Y0252503D01*
X0168744Y0253303D01*
X0167943Y0254104D01*
X0170697Y0253303D02*
X0170697Y0252503D01*
X0171498Y0251702D01*
X0170697Y0250901D01*
X0170697Y0250101D01*
X0171498Y0249300D01*
X0173099Y0249300D01*
X0173900Y0250101D01*
X0172299Y0251702D02*
X0171498Y0251702D01*
X0170697Y0253303D02*
X0171498Y0254104D01*
X0173099Y0254104D01*
X0173900Y0253303D01*
X0171498Y0244104D02*
X0173900Y0241702D01*
X0170697Y0241702D01*
X0168744Y0242503D02*
X0167142Y0244104D01*
X0167142Y0239300D01*
X0165541Y0239300D02*
X0168744Y0239300D01*
X0171498Y0239300D02*
X0171498Y0244104D01*
X0171498Y0234104D02*
X0173900Y0231702D01*
X0170697Y0231702D01*
X0168744Y0230101D02*
X0167943Y0229300D01*
X0166342Y0229300D01*
X0165541Y0230101D01*
X0165541Y0230901D01*
X0166342Y0231702D01*
X0167142Y0231702D01*
X0166342Y0231702D02*
X0165541Y0232503D01*
X0165541Y0233303D01*
X0166342Y0234104D01*
X0167943Y0234104D01*
X0168744Y0233303D01*
X0171498Y0234104D02*
X0171498Y0229300D01*
X0171498Y0224104D02*
X0173900Y0221702D01*
X0170697Y0221702D01*
X0168744Y0221702D02*
X0167142Y0222503D01*
X0166342Y0222503D01*
X0165541Y0221702D01*
X0165541Y0220101D01*
X0166342Y0219300D01*
X0167943Y0219300D01*
X0168744Y0220101D01*
X0168744Y0221702D02*
X0168744Y0224104D01*
X0165541Y0224104D01*
X0171498Y0224104D02*
X0171498Y0219300D01*
X0171498Y0214104D02*
X0173900Y0211702D01*
X0170697Y0211702D01*
X0168744Y0210101D02*
X0168744Y0209300D01*
X0168744Y0210101D02*
X0165541Y0213303D01*
X0165541Y0214104D01*
X0168744Y0214104D01*
X0171498Y0214104D02*
X0171498Y0209300D01*
X0171498Y0204104D02*
X0173900Y0201702D01*
X0170697Y0201702D01*
X0168744Y0202503D02*
X0167943Y0201702D01*
X0165541Y0201702D01*
X0165541Y0200101D02*
X0165541Y0203303D01*
X0166342Y0204104D01*
X0167943Y0204104D01*
X0168744Y0203303D01*
X0168744Y0202503D01*
X0168744Y0200101D02*
X0167943Y0199300D01*
X0166342Y0199300D01*
X0165541Y0200101D01*
X0171498Y0199300D02*
X0171498Y0204104D01*
X0170697Y0194104D02*
X0173900Y0194104D01*
X0173900Y0191702D01*
X0172299Y0192503D01*
X0171498Y0192503D01*
X0170697Y0191702D01*
X0170697Y0190101D01*
X0171498Y0189300D01*
X0173099Y0189300D01*
X0173900Y0190101D01*
X0168744Y0189300D02*
X0165541Y0189300D01*
X0167142Y0189300D02*
X0167142Y0194104D01*
X0168744Y0192503D01*
X0167943Y0184104D02*
X0166342Y0184104D01*
X0165541Y0183303D01*
X0165541Y0182503D01*
X0166342Y0181702D01*
X0165541Y0180901D01*
X0165541Y0180101D01*
X0166342Y0179300D01*
X0167943Y0179300D01*
X0168744Y0180101D01*
X0170697Y0180101D02*
X0171498Y0179300D01*
X0173099Y0179300D01*
X0173900Y0180101D01*
X0173900Y0181702D02*
X0172299Y0182503D01*
X0171498Y0182503D01*
X0170697Y0181702D01*
X0170697Y0180101D01*
X0173900Y0181702D02*
X0173900Y0184104D01*
X0170697Y0184104D01*
X0168744Y0183303D02*
X0167943Y0184104D01*
X0167142Y0181702D02*
X0166342Y0181702D01*
X0199941Y0279200D02*
X0203144Y0279200D01*
X0309100Y0330844D02*
X0309901Y0330044D01*
X0313103Y0333246D01*
X0309901Y0333246D01*
X0309100Y0332446D01*
X0309100Y0330844D01*
X0309901Y0330044D02*
X0313103Y0330044D01*
X0313904Y0330844D01*
X0313904Y0332446D01*
X0313103Y0333246D01*
X0314300Y0336800D02*
X0309300Y0336800D01*
X0306800Y0339300D01*
X0306800Y0344300D01*
X0309300Y0346800D01*
X0314300Y0346800D01*
X0316800Y0344300D01*
X0319300Y0346800D01*
X0324300Y0346800D01*
X0326800Y0344300D01*
X0329300Y0346800D01*
X0334300Y0346800D01*
X0336800Y0344300D01*
X0339300Y0346800D01*
X0344300Y0346800D01*
X0346800Y0344300D01*
X0349300Y0346800D01*
X0354300Y0346800D01*
X0356800Y0344300D01*
X0359300Y0346800D01*
X0364300Y0346800D01*
X0366800Y0344300D01*
X0369300Y0346800D01*
X0374300Y0346800D01*
X0376800Y0344300D01*
X0379300Y0346800D01*
X0384300Y0346800D01*
X0386800Y0344300D01*
X0386800Y0339300D01*
X0384300Y0336800D01*
X0379300Y0336800D01*
X0376800Y0339300D01*
X0374300Y0336800D01*
X0369300Y0336800D01*
X0366800Y0339300D01*
X0364300Y0336800D01*
X0359300Y0336800D01*
X0356800Y0339300D01*
X0354300Y0336800D01*
X0349300Y0336800D01*
X0346800Y0339300D01*
X0344300Y0336800D01*
X0339300Y0336800D01*
X0336800Y0339300D01*
X0334300Y0336800D01*
X0329300Y0336800D01*
X0326800Y0339300D01*
X0324300Y0336800D01*
X0319300Y0336800D01*
X0316800Y0339300D01*
X0314300Y0336800D01*
X0319100Y0333246D02*
X0319100Y0330044D01*
X0319100Y0331645D02*
X0323904Y0331645D01*
X0322303Y0330044D01*
X0329100Y0330044D02*
X0332303Y0333246D01*
X0333103Y0333246D01*
X0333904Y0332446D01*
X0333904Y0330844D01*
X0333103Y0330044D01*
X0329100Y0330044D02*
X0329100Y0333246D01*
X0339100Y0332446D02*
X0339100Y0330844D01*
X0339901Y0330044D01*
X0341502Y0331645D02*
X0341502Y0332446D01*
X0340701Y0333246D01*
X0339901Y0333246D01*
X0339100Y0332446D01*
X0341502Y0332446D02*
X0342303Y0333246D01*
X0343103Y0333246D01*
X0343904Y0332446D01*
X0343904Y0330844D01*
X0343103Y0330044D01*
X0349100Y0332446D02*
X0353904Y0332446D01*
X0351502Y0330044D01*
X0351502Y0333246D01*
X0359100Y0332446D02*
X0359100Y0330844D01*
X0359901Y0330044D01*
X0361502Y0330044D02*
X0362303Y0331645D01*
X0362303Y0332446D01*
X0361502Y0333246D01*
X0359901Y0333246D01*
X0359100Y0332446D01*
X0361502Y0330044D02*
X0363904Y0330044D01*
X0363904Y0333246D01*
X0369100Y0332446D02*
X0369901Y0333246D01*
X0370701Y0333246D01*
X0371502Y0332446D01*
X0371502Y0330044D01*
X0369901Y0330044D01*
X0369100Y0330844D01*
X0369100Y0332446D01*
X0371502Y0330044D02*
X0373103Y0331645D01*
X0373904Y0333246D01*
X0379100Y0330044D02*
X0379901Y0330044D01*
X0383103Y0333246D01*
X0383904Y0333246D01*
X0383904Y0330044D01*
X0395100Y0330844D02*
X0395901Y0330044D01*
X0396701Y0330044D01*
X0397502Y0330844D01*
X0397502Y0332446D01*
X0396701Y0333246D01*
X0395901Y0333246D01*
X0395100Y0332446D01*
X0395100Y0330844D01*
X0397502Y0330844D02*
X0398303Y0330044D01*
X0399103Y0330044D01*
X0399904Y0330844D01*
X0399904Y0332446D01*
X0399103Y0333246D01*
X0398303Y0333246D01*
X0397502Y0332446D01*
X0395300Y0336800D02*
X0400300Y0336800D01*
X0402800Y0339300D01*
X0405300Y0336800D01*
X0410300Y0336800D01*
X0412800Y0339300D01*
X0415300Y0336800D01*
X0420300Y0336800D01*
X0422800Y0339300D01*
X0425300Y0336800D01*
X0430300Y0336800D01*
X0432800Y0339300D01*
X0435300Y0336800D01*
X0440300Y0336800D01*
X0442800Y0339300D01*
X0445300Y0336800D01*
X0450300Y0336800D01*
X0452800Y0339300D01*
X0455300Y0336800D01*
X0460300Y0336800D01*
X0462800Y0339300D01*
X0465300Y0336800D01*
X0470300Y0336800D01*
X0472800Y0339300D01*
X0475300Y0336800D01*
X0480300Y0336800D01*
X0482800Y0339300D01*
X0485300Y0336800D01*
X0490300Y0336800D01*
X0492800Y0339300D01*
X0492800Y0344300D01*
X0490300Y0346800D01*
X0485300Y0346800D01*
X0482800Y0344300D01*
X0480300Y0346800D01*
X0475300Y0346800D01*
X0472800Y0344300D01*
X0470300Y0346800D01*
X0465300Y0346800D01*
X0462800Y0344300D01*
X0460300Y0346800D01*
X0455300Y0346800D01*
X0452800Y0344300D01*
X0450300Y0346800D01*
X0445300Y0346800D01*
X0442800Y0344300D01*
X0440300Y0346800D01*
X0435300Y0346800D01*
X0432800Y0344300D01*
X0430300Y0346800D01*
X0425300Y0346800D01*
X0422800Y0344300D01*
X0420300Y0346800D01*
X0415300Y0346800D01*
X0412800Y0344300D01*
X0410300Y0346800D01*
X0405300Y0346800D01*
X0402800Y0344300D01*
X0400300Y0346800D01*
X0395300Y0346800D01*
X0392800Y0344300D01*
X0392800Y0339300D01*
X0395300Y0336800D01*
X0405600Y0332446D02*
X0406401Y0333246D01*
X0409603Y0333246D01*
X0410404Y0332446D01*
X0410404Y0330844D01*
X0409603Y0330044D01*
X0408803Y0330044D01*
X0408002Y0330844D01*
X0408002Y0333246D01*
X0405600Y0332446D02*
X0405600Y0330844D01*
X0406401Y0330044D01*
X0415100Y0330844D02*
X0415901Y0330044D01*
X0419103Y0333246D01*
X0415901Y0333246D01*
X0415100Y0332446D01*
X0415100Y0330844D01*
X0415901Y0330044D02*
X0419103Y0330044D01*
X0419904Y0330844D01*
X0419904Y0332446D01*
X0419103Y0333246D01*
X0425600Y0333246D02*
X0425600Y0330044D01*
X0425600Y0331645D02*
X0430404Y0331645D01*
X0428803Y0330044D01*
X0425600Y0328090D02*
X0425600Y0324887D01*
X0425600Y0326489D02*
X0430404Y0326489D01*
X0428803Y0324887D01*
X0435600Y0324887D02*
X0435600Y0328090D01*
X0435600Y0326489D02*
X0440404Y0326489D01*
X0438803Y0324887D01*
X0445600Y0324887D02*
X0445600Y0328090D01*
X0445600Y0326489D02*
X0450404Y0326489D01*
X0448803Y0324887D01*
X0449603Y0330044D02*
X0450404Y0330844D01*
X0450404Y0332446D01*
X0449603Y0333246D01*
X0448803Y0333246D01*
X0448002Y0332446D01*
X0447201Y0333246D01*
X0446401Y0333246D01*
X0445600Y0332446D01*
X0445600Y0330844D01*
X0446401Y0330044D01*
X0448002Y0331645D02*
X0448002Y0332446D01*
X0440404Y0332446D02*
X0440404Y0330844D01*
X0439603Y0330044D01*
X0440404Y0332446D02*
X0439603Y0333246D01*
X0438803Y0333246D01*
X0435600Y0330044D01*
X0435600Y0333246D01*
X0419904Y0326489D02*
X0415100Y0326489D01*
X0415100Y0328090D02*
X0415100Y0324887D01*
X0418303Y0324887D02*
X0419904Y0326489D01*
X0455600Y0328090D02*
X0460404Y0324887D01*
X0455600Y0324887D01*
X0456401Y0322934D02*
X0458002Y0322934D01*
X0458002Y0321332D01*
X0456401Y0319731D02*
X0455600Y0320531D01*
X0455600Y0322133D01*
X0456401Y0322934D01*
X0459603Y0322934D02*
X0460404Y0322133D01*
X0460404Y0320531D01*
X0459603Y0319731D01*
X0456401Y0319731D01*
X0465100Y0319731D02*
X0469904Y0319731D01*
X0469904Y0322133D01*
X0469103Y0322934D01*
X0467502Y0322934D01*
X0466701Y0322133D01*
X0466701Y0319731D01*
X0466701Y0321332D02*
X0465100Y0322934D01*
X0465100Y0324887D02*
X0465100Y0328090D01*
X0465100Y0330044D02*
X0469904Y0330044D01*
X0469904Y0333246D01*
X0467502Y0331645D02*
X0467502Y0330044D01*
X0469904Y0328090D02*
X0469904Y0324887D01*
X0465100Y0324887D01*
X0467502Y0324887D02*
X0467502Y0326489D01*
X0460404Y0328090D02*
X0455600Y0328090D01*
X0455600Y0330044D02*
X0455600Y0332446D01*
X0456401Y0333246D01*
X0459603Y0333246D01*
X0460404Y0332446D01*
X0460404Y0330044D01*
X0455600Y0330044D01*
X0465100Y0317777D02*
X0468303Y0317777D01*
X0469904Y0316176D01*
X0468303Y0314574D01*
X0465100Y0314574D01*
X0467502Y0314574D02*
X0467502Y0317777D01*
D11*
X0433503Y0177201D02*
X0433503Y0174933D01*
X0433503Y0176067D02*
X0430100Y0176067D01*
X0430100Y0173518D02*
X0430100Y0171249D01*
X0433503Y0171249D01*
X0433503Y0173518D01*
X0431801Y0172384D02*
X0431801Y0171249D01*
X0431234Y0169835D02*
X0430667Y0169835D01*
X0430100Y0169268D01*
X0430100Y0168133D01*
X0430667Y0167566D01*
X0431801Y0168133D02*
X0431801Y0169268D01*
X0431234Y0169835D01*
X0432936Y0169835D02*
X0433503Y0169268D01*
X0433503Y0168133D01*
X0432936Y0167566D01*
X0432369Y0167566D01*
X0431801Y0168133D01*
X0430100Y0166152D02*
X0430100Y0163883D01*
X0433503Y0163883D01*
X0433503Y0166152D01*
X0431801Y0165017D02*
X0431801Y0163883D01*
X0431801Y0162469D02*
X0431234Y0161901D01*
X0431234Y0160200D01*
X0430100Y0160200D02*
X0433503Y0160200D01*
X0433503Y0161901D01*
X0432936Y0162469D01*
X0431801Y0162469D01*
X0431234Y0161334D02*
X0430100Y0162469D01*
X0423503Y0161901D02*
X0422936Y0162469D01*
X0422369Y0162469D01*
X0421801Y0161901D01*
X0421234Y0162469D01*
X0420667Y0162469D01*
X0420100Y0161901D01*
X0420100Y0160767D01*
X0420667Y0160200D01*
X0421801Y0161334D02*
X0421801Y0161901D01*
X0423503Y0161901D02*
X0423503Y0160767D01*
X0422936Y0160200D01*
X0420667Y0163883D02*
X0420667Y0164450D01*
X0420100Y0164450D01*
X0420100Y0163883D01*
X0420667Y0163883D01*
X0420667Y0165725D02*
X0420100Y0166292D01*
X0420100Y0167426D01*
X0420667Y0167993D01*
X0421234Y0167993D01*
X0421801Y0167426D01*
X0421801Y0166859D01*
X0421801Y0167426D02*
X0422369Y0167993D01*
X0422936Y0167993D01*
X0423503Y0167426D01*
X0423503Y0166292D01*
X0422936Y0165725D01*
X0423503Y0169408D02*
X0421234Y0169408D01*
X0420100Y0170542D01*
X0421234Y0171676D01*
X0423503Y0171676D01*
X0413503Y0166152D02*
X0411234Y0166152D01*
X0410100Y0165017D01*
X0411234Y0163883D01*
X0413503Y0163883D01*
X0413503Y0162469D02*
X0413503Y0160200D01*
X0411801Y0160200D01*
X0412369Y0161334D01*
X0412369Y0161901D01*
X0411801Y0162469D01*
X0410667Y0162469D01*
X0410100Y0161901D01*
X0410100Y0160767D01*
X0410667Y0160200D01*
X0403503Y0160767D02*
X0402936Y0160200D01*
X0400667Y0160200D01*
X0400100Y0160767D01*
X0400100Y0161901D01*
X0400667Y0162469D01*
X0401801Y0162469D01*
X0401801Y0161334D01*
X0402936Y0162469D02*
X0403503Y0161901D01*
X0403503Y0160767D01*
X0403503Y0163883D02*
X0400100Y0166152D01*
X0403503Y0166152D01*
X0403503Y0167566D02*
X0403503Y0169268D01*
X0402936Y0169835D01*
X0400667Y0169835D01*
X0400100Y0169268D01*
X0400100Y0167566D01*
X0403503Y0167566D01*
X0403503Y0163883D02*
X0400100Y0163883D01*
X0393503Y0163883D02*
X0390100Y0166152D01*
X0393503Y0166152D01*
X0393503Y0167566D02*
X0393503Y0169268D01*
X0392936Y0169835D01*
X0390667Y0169835D01*
X0390100Y0169268D01*
X0390100Y0167566D01*
X0393503Y0167566D01*
X0393503Y0163883D02*
X0390100Y0163883D01*
X0390667Y0162469D02*
X0391801Y0162469D01*
X0391801Y0161334D01*
X0390667Y0160200D02*
X0390100Y0160767D01*
X0390100Y0161901D01*
X0390667Y0162469D01*
X0392936Y0162469D02*
X0393503Y0161901D01*
X0393503Y0160767D01*
X0392936Y0160200D01*
X0390667Y0160200D01*
X0383503Y0160200D02*
X0381234Y0160200D01*
X0380100Y0161334D01*
X0381234Y0162469D01*
X0383503Y0162469D01*
X0382369Y0163883D02*
X0382369Y0164450D01*
X0380100Y0164450D01*
X0380100Y0163883D02*
X0380100Y0165017D01*
X0380100Y0166339D02*
X0382369Y0166339D01*
X0382369Y0168040D01*
X0381801Y0168607D01*
X0380100Y0168607D01*
X0383503Y0164450D02*
X0384070Y0164450D01*
X0196800Y0179300D02*
X0194300Y0176800D01*
X0196800Y0179300D02*
X0196800Y0184300D01*
X0194300Y0186800D01*
X0179300Y0186800D01*
X0176800Y0189300D01*
X0176800Y0194300D01*
X0179300Y0196800D01*
X0194300Y0196800D01*
X0196800Y0199300D01*
X0196800Y0204300D01*
X0194300Y0206800D01*
X0179300Y0206800D01*
X0176800Y0209300D01*
X0176800Y0214300D01*
X0179300Y0216800D01*
X0194300Y0216800D01*
X0196800Y0219300D01*
X0196800Y0224300D01*
X0194300Y0226800D01*
X0179300Y0226800D01*
X0176800Y0229300D01*
X0176800Y0234300D01*
X0179300Y0236800D01*
X0194300Y0236800D01*
X0196800Y0239300D01*
X0196800Y0244300D01*
X0194300Y0246800D01*
X0179300Y0246800D01*
X0176800Y0244300D01*
X0176800Y0239300D01*
X0179300Y0236800D01*
X0179300Y0226800D02*
X0176800Y0224300D01*
X0176800Y0219300D01*
X0179300Y0216800D01*
X0179300Y0206800D02*
X0176800Y0204300D01*
X0176800Y0199300D01*
X0179300Y0196800D01*
X0179300Y0186800D02*
X0176800Y0184300D01*
X0176800Y0179300D01*
X0179300Y0176800D01*
X0174000Y0172036D02*
X0173433Y0172603D01*
X0172299Y0172603D01*
X0171731Y0172036D01*
X0171731Y0170901D02*
X0172866Y0170901D01*
X0171731Y0170901D02*
X0171731Y0169767D01*
X0172299Y0169200D01*
X0173433Y0169200D01*
X0174000Y0169767D01*
X0174000Y0172036D01*
X0170317Y0172603D02*
X0168048Y0169200D01*
X0168048Y0172603D01*
X0166634Y0172603D02*
X0164932Y0172603D01*
X0164365Y0172036D01*
X0164365Y0169767D01*
X0164932Y0169200D01*
X0166634Y0169200D01*
X0166634Y0172603D01*
X0170317Y0172603D02*
X0170317Y0169200D01*
X0194300Y0186800D02*
X0196800Y0189300D01*
X0196800Y0194300D01*
X0194300Y0196800D01*
X0194300Y0206800D02*
X0196800Y0209300D01*
X0196800Y0214300D01*
X0194300Y0216800D01*
X0194300Y0226800D02*
X0196800Y0229300D01*
X0196800Y0234300D01*
X0194300Y0236800D01*
X0194300Y0246800D02*
X0196800Y0249300D01*
X0196800Y0254300D01*
X0194300Y0256800D01*
X0179300Y0256800D01*
X0176800Y0254300D01*
X0176800Y0249300D01*
X0179300Y0246800D01*
X0179300Y0256800D02*
X0176800Y0259300D01*
X0176800Y0264300D01*
X0179300Y0266800D01*
X0194300Y0266800D01*
X0196800Y0269300D01*
X0196800Y0274300D01*
X0194300Y0276800D01*
X0179300Y0276800D01*
X0176800Y0279300D01*
X0176800Y0284300D01*
X0179300Y0286800D01*
X0194300Y0286800D01*
X0196800Y0289300D01*
X0196800Y0294300D01*
X0194300Y0296800D01*
X0179300Y0296800D01*
X0176800Y0299300D01*
X0176800Y0304300D01*
X0179300Y0306800D01*
X0194300Y0306800D01*
X0196800Y0309300D01*
X0196800Y0314300D01*
X0194300Y0316800D01*
X0179300Y0316800D01*
X0176800Y0319300D01*
X0176800Y0324300D01*
X0179300Y0326800D01*
X0194300Y0326800D01*
X0196800Y0329300D01*
X0196800Y0334300D01*
X0194300Y0336800D01*
X0194300Y0326800D02*
X0196800Y0324300D01*
X0196800Y0319300D01*
X0194300Y0316800D01*
X0194300Y0306800D02*
X0196800Y0304300D01*
X0196800Y0299300D01*
X0194300Y0296800D01*
X0194300Y0286800D02*
X0196800Y0284300D01*
X0196800Y0279300D01*
X0194300Y0276800D01*
X0194300Y0266800D02*
X0196800Y0264300D01*
X0196800Y0259300D01*
X0194300Y0256800D01*
X0179300Y0266800D02*
X0176800Y0269300D01*
X0176800Y0274300D01*
X0179300Y0276800D01*
X0179300Y0286800D02*
X0176800Y0289300D01*
X0176800Y0294300D01*
X0179300Y0296800D01*
X0179300Y0306800D02*
X0176800Y0309300D01*
X0176800Y0314300D01*
X0179300Y0316800D01*
X0179300Y0326800D02*
X0176800Y0329300D01*
X0176800Y0334300D01*
X0179300Y0336800D01*
D12*
X0181800Y0347000D02*
X0181800Y0349600D01*
X0191800Y0349600D01*
X0194800Y0349600D01*
X0191800Y0349600D02*
X0191800Y0347100D01*
X0191800Y0166500D02*
X0191800Y0163600D01*
X0181800Y0163600D01*
X0181800Y0166600D01*
X0176800Y0166800D02*
X0165000Y0166800D01*
D13*
X0197326Y0347050D02*
X0196326Y0348051D01*
X0196326Y0350053D01*
X0198327Y0350053D02*
X0198327Y0348051D01*
X0197326Y0347050D01*
X0199548Y0347550D02*
X0200049Y0347050D01*
X0201050Y0347050D01*
X0201550Y0347550D01*
X0201550Y0348551D02*
X0200549Y0349052D01*
X0200049Y0349052D01*
X0199548Y0348551D01*
X0199548Y0347550D01*
X0201550Y0348551D02*
X0201550Y0350053D01*
X0199548Y0350053D01*
M02*
