G75*
%MOIN*%
%OFA0B0*%
%FSLAX25Y25*%
%IPPOS*%
%LPD*%
%AMOC8*
5,1,8,0,0,1.08239X$1,22.5*
%
%ADD10C,0.00600*%
%ADD11R,0.01500X0.02000*%
%ADD12R,0.02000X0.01500*%
D10*
X0056800Y0044300D02*
X0059300Y0041800D01*
X0064300Y0041800D01*
X0066800Y0044300D01*
X0066800Y0049300D01*
X0064300Y0051800D01*
X0059300Y0051800D01*
X0056800Y0049300D01*
X0056800Y0044300D01*
X0066800Y0044300D02*
X0069300Y0041800D01*
X0074300Y0041800D01*
X0076800Y0044300D01*
X0076800Y0049300D01*
X0074300Y0051800D01*
X0069300Y0051800D01*
X0066800Y0049300D01*
X0064300Y0081800D02*
X0059300Y0081800D01*
X0056800Y0084300D01*
X0056800Y0089300D01*
X0059300Y0091800D01*
X0064300Y0091800D01*
X0066800Y0089300D01*
X0069300Y0091800D01*
X0074300Y0091800D01*
X0076800Y0089300D01*
X0076800Y0084300D01*
X0074300Y0081800D01*
X0069300Y0081800D01*
X0066800Y0084300D01*
X0064300Y0081800D01*
X0066800Y0084300D02*
X0066800Y0089300D01*
X0041800Y0089300D02*
X0041800Y0084300D01*
X0039300Y0081800D01*
X0034300Y0081800D01*
X0031800Y0084300D01*
X0029300Y0081800D01*
X0024300Y0081800D01*
X0021800Y0084300D01*
X0021800Y0089300D01*
X0024300Y0091800D01*
X0029300Y0091800D01*
X0031800Y0089300D01*
X0034300Y0091800D01*
X0039300Y0091800D01*
X0041800Y0089300D01*
X0031800Y0089300D02*
X0031800Y0084300D01*
X0096800Y0094300D02*
X0099300Y0091800D01*
X0104300Y0091800D01*
X0106800Y0094300D01*
X0109300Y0091800D01*
X0114300Y0091800D01*
X0116800Y0094300D01*
X0119300Y0091800D01*
X0124300Y0091800D01*
X0126800Y0094300D01*
X0126800Y0099300D01*
X0124300Y0101800D01*
X0119300Y0101800D01*
X0116800Y0099300D01*
X0116800Y0094300D01*
X0116800Y0099300D02*
X0114300Y0101800D01*
X0109300Y0101800D01*
X0106800Y0099300D01*
X0106800Y0094300D01*
X0106800Y0099300D02*
X0104300Y0101800D01*
X0099300Y0101800D01*
X0096800Y0099300D01*
X0096800Y0094300D01*
X0084300Y0151800D02*
X0079300Y0151800D01*
X0076800Y0154300D01*
X0074300Y0151800D01*
X0069300Y0151800D01*
X0066800Y0154300D01*
X0066800Y0159300D01*
X0069300Y0161800D01*
X0074300Y0161800D01*
X0076800Y0159300D01*
X0079300Y0161800D01*
X0084300Y0161800D01*
X0086800Y0159300D01*
X0086800Y0154300D01*
X0084300Y0151800D01*
X0076800Y0154300D02*
X0076800Y0159300D01*
X0078800Y0186800D02*
X0084800Y0186800D01*
X0084860Y0186802D01*
X0084921Y0186807D01*
X0084980Y0186816D01*
X0085039Y0186829D01*
X0085098Y0186845D01*
X0085155Y0186865D01*
X0085210Y0186888D01*
X0085265Y0186915D01*
X0085317Y0186944D01*
X0085368Y0186977D01*
X0085417Y0187013D01*
X0085463Y0187051D01*
X0085507Y0187093D01*
X0085549Y0187137D01*
X0085587Y0187183D01*
X0085623Y0187232D01*
X0085656Y0187283D01*
X0085685Y0187335D01*
X0085712Y0187390D01*
X0085735Y0187445D01*
X0085755Y0187502D01*
X0085771Y0187561D01*
X0085784Y0187620D01*
X0085793Y0187679D01*
X0085798Y0187740D01*
X0085800Y0187800D01*
X0085800Y0189300D01*
X0085300Y0189800D01*
X0085300Y0203800D01*
X0085800Y0204300D01*
X0085800Y0205800D01*
X0085798Y0205860D01*
X0085793Y0205921D01*
X0085784Y0205980D01*
X0085771Y0206039D01*
X0085755Y0206098D01*
X0085735Y0206155D01*
X0085712Y0206210D01*
X0085685Y0206265D01*
X0085656Y0206317D01*
X0085623Y0206368D01*
X0085587Y0206417D01*
X0085549Y0206463D01*
X0085507Y0206507D01*
X0085463Y0206549D01*
X0085417Y0206587D01*
X0085368Y0206623D01*
X0085317Y0206656D01*
X0085265Y0206685D01*
X0085210Y0206712D01*
X0085155Y0206735D01*
X0085098Y0206755D01*
X0085039Y0206771D01*
X0084980Y0206784D01*
X0084921Y0206793D01*
X0084860Y0206798D01*
X0084800Y0206800D01*
X0078800Y0206800D01*
X0078740Y0206798D01*
X0078679Y0206793D01*
X0078620Y0206784D01*
X0078561Y0206771D01*
X0078502Y0206755D01*
X0078445Y0206735D01*
X0078390Y0206712D01*
X0078335Y0206685D01*
X0078283Y0206656D01*
X0078232Y0206623D01*
X0078183Y0206587D01*
X0078137Y0206549D01*
X0078093Y0206507D01*
X0078051Y0206463D01*
X0078013Y0206417D01*
X0077977Y0206368D01*
X0077944Y0206317D01*
X0077915Y0206265D01*
X0077888Y0206210D01*
X0077865Y0206155D01*
X0077845Y0206098D01*
X0077829Y0206039D01*
X0077816Y0205980D01*
X0077807Y0205921D01*
X0077802Y0205860D01*
X0077800Y0205800D01*
X0077800Y0204300D01*
X0078300Y0203800D01*
X0078300Y0189800D01*
X0077800Y0189300D01*
X0077800Y0187800D01*
X0077802Y0187740D01*
X0077807Y0187679D01*
X0077816Y0187620D01*
X0077829Y0187561D01*
X0077845Y0187502D01*
X0077865Y0187445D01*
X0077888Y0187390D01*
X0077915Y0187335D01*
X0077944Y0187283D01*
X0077977Y0187232D01*
X0078013Y0187183D01*
X0078051Y0187137D01*
X0078093Y0187093D01*
X0078137Y0187051D01*
X0078183Y0187013D01*
X0078232Y0186977D01*
X0078283Y0186944D01*
X0078335Y0186915D01*
X0078390Y0186888D01*
X0078445Y0186865D01*
X0078502Y0186845D01*
X0078561Y0186829D01*
X0078620Y0186816D01*
X0078679Y0186807D01*
X0078740Y0186802D01*
X0078800Y0186800D01*
X0116800Y0219300D02*
X0116800Y0224300D01*
X0119300Y0226800D01*
X0116800Y0229300D01*
X0116800Y0234300D01*
X0119300Y0236800D01*
X0116800Y0239300D01*
X0116800Y0244300D01*
X0119300Y0246800D01*
X0116800Y0249300D01*
X0116800Y0254300D01*
X0119300Y0256800D01*
X0116800Y0259300D01*
X0116800Y0264300D01*
X0119300Y0266800D01*
X0116800Y0269300D01*
X0116800Y0274300D01*
X0119300Y0276800D01*
X0116800Y0279300D01*
X0116800Y0284300D01*
X0119300Y0286800D01*
X0116800Y0289300D01*
X0116800Y0294300D01*
X0119300Y0296800D01*
X0116800Y0299300D01*
X0116800Y0304300D01*
X0119300Y0306800D01*
X0116800Y0309300D01*
X0116800Y0314300D01*
X0119300Y0316800D01*
X0116800Y0319300D01*
X0116800Y0324300D01*
X0119300Y0326800D01*
X0116800Y0329300D01*
X0116800Y0334300D01*
X0119300Y0336800D01*
X0124300Y0336800D01*
X0126800Y0334300D01*
X0126800Y0329300D01*
X0124300Y0326800D01*
X0126800Y0324300D01*
X0126800Y0319300D01*
X0124300Y0316800D01*
X0119300Y0316800D01*
X0124300Y0316800D02*
X0126800Y0314300D01*
X0126800Y0309300D01*
X0124300Y0306800D01*
X0126800Y0304300D01*
X0126800Y0299300D01*
X0124300Y0296800D01*
X0126800Y0294300D01*
X0126800Y0289300D01*
X0124300Y0286800D01*
X0119300Y0286800D01*
X0124300Y0286800D02*
X0126800Y0284300D01*
X0126800Y0279300D01*
X0124300Y0276800D01*
X0126800Y0274300D01*
X0126800Y0269300D01*
X0124300Y0266800D01*
X0126800Y0264300D01*
X0126800Y0259300D01*
X0124300Y0256800D01*
X0119300Y0256800D01*
X0124300Y0256800D02*
X0126800Y0254300D01*
X0126800Y0249300D01*
X0124300Y0246800D01*
X0126800Y0244300D01*
X0126800Y0239300D01*
X0124300Y0236800D01*
X0126800Y0234300D01*
X0126800Y0229300D01*
X0124300Y0226800D01*
X0126800Y0224300D01*
X0126800Y0219300D01*
X0124300Y0216800D01*
X0119300Y0216800D01*
X0116800Y0219300D01*
X0119300Y0226800D02*
X0124300Y0226800D01*
X0124300Y0236800D02*
X0119300Y0236800D01*
X0119300Y0246800D02*
X0124300Y0246800D01*
X0124300Y0266800D02*
X0119300Y0266800D01*
X0119300Y0276800D02*
X0124300Y0276800D01*
X0124300Y0296800D02*
X0119300Y0296800D01*
X0119300Y0306800D02*
X0124300Y0306800D01*
X0124300Y0326800D02*
X0119300Y0326800D01*
X0066800Y0324300D02*
X0064300Y0321800D01*
X0059300Y0321800D01*
X0056800Y0324300D01*
X0056800Y0329300D01*
X0059300Y0331800D01*
X0056800Y0334300D01*
X0056800Y0339300D01*
X0059300Y0341800D01*
X0064300Y0341800D01*
X0066800Y0339300D01*
X0066800Y0334300D01*
X0064300Y0331800D01*
X0066800Y0329300D01*
X0066800Y0324300D01*
X0064300Y0321800D02*
X0066800Y0319300D01*
X0066800Y0314300D01*
X0064300Y0311800D01*
X0066800Y0309300D01*
X0066800Y0304300D01*
X0064300Y0301800D01*
X0059300Y0301800D01*
X0056800Y0304300D01*
X0056800Y0309300D01*
X0059300Y0311800D01*
X0056800Y0314300D01*
X0056800Y0319300D01*
X0059300Y0321800D01*
X0059300Y0331800D02*
X0064300Y0331800D01*
X0064300Y0311800D02*
X0059300Y0311800D01*
X0059300Y0296800D02*
X0056800Y0294300D01*
X0056800Y0289300D01*
X0059300Y0286800D01*
X0056800Y0284300D01*
X0056800Y0279300D01*
X0059300Y0276800D01*
X0064300Y0276800D01*
X0066800Y0279300D01*
X0066800Y0284300D01*
X0064300Y0286800D01*
X0059300Y0286800D01*
X0064300Y0286800D02*
X0066800Y0289300D01*
X0066800Y0294300D01*
X0064300Y0296800D01*
X0059300Y0296800D01*
X0059300Y0276800D02*
X0056800Y0274300D01*
X0056800Y0269300D01*
X0059300Y0266800D01*
X0056800Y0264300D01*
X0056800Y0259300D01*
X0059300Y0256800D01*
X0064300Y0256800D01*
X0066800Y0259300D01*
X0066800Y0264300D01*
X0064300Y0266800D01*
X0059300Y0266800D01*
X0064300Y0266800D02*
X0066800Y0269300D01*
X0066800Y0274300D01*
X0064300Y0276800D01*
X0064300Y0381800D02*
X0061800Y0384300D01*
X0061800Y0399300D01*
X0064300Y0401800D01*
X0069300Y0401800D01*
X0071800Y0399300D01*
X0071800Y0384300D01*
X0069300Y0381800D01*
X0064300Y0381800D01*
X0071800Y0384300D02*
X0074300Y0381800D01*
X0079300Y0381800D01*
X0081800Y0384300D01*
X0081800Y0399300D01*
X0084300Y0401800D01*
X0089300Y0401800D01*
X0091800Y0399300D01*
X0091800Y0384300D01*
X0089300Y0381800D01*
X0084300Y0381800D01*
X0081800Y0384300D01*
X0091800Y0384300D02*
X0094300Y0381800D01*
X0099300Y0381800D01*
X0101800Y0384300D01*
X0101800Y0399300D01*
X0099300Y0401800D01*
X0094300Y0401800D01*
X0091800Y0399300D01*
X0081800Y0399300D02*
X0079300Y0401800D01*
X0074300Y0401800D01*
X0071800Y0399300D01*
X0101800Y0399300D02*
X0104300Y0401800D01*
X0109300Y0401800D01*
X0111800Y0399300D01*
X0111800Y0384300D01*
X0109300Y0381800D01*
X0104300Y0381800D01*
X0101800Y0384300D01*
X0111800Y0384300D02*
X0114300Y0381800D01*
X0119300Y0381800D01*
X0121800Y0384300D01*
X0121800Y0399300D01*
X0119300Y0401800D01*
X0114300Y0401800D01*
X0111800Y0399300D01*
X0121800Y0399300D02*
X0124300Y0401800D01*
X0129300Y0401800D01*
X0131800Y0399300D01*
X0131800Y0384300D01*
X0129300Y0381800D01*
X0124300Y0381800D01*
X0121800Y0384300D01*
X0131800Y0384300D02*
X0134300Y0381800D01*
X0139300Y0381800D01*
X0141800Y0384300D01*
X0141800Y0399300D01*
X0139300Y0401800D01*
X0134300Y0401800D01*
X0131800Y0399300D01*
X0141800Y0399300D02*
X0144300Y0401800D01*
X0149300Y0401800D01*
X0151800Y0399300D01*
X0151800Y0384300D01*
X0149300Y0381800D01*
X0144300Y0381800D01*
X0141800Y0384300D01*
X0151800Y0384300D02*
X0154300Y0381800D01*
X0159300Y0381800D01*
X0161800Y0384300D01*
X0161800Y0399300D01*
X0159300Y0401800D01*
X0154300Y0401800D01*
X0151800Y0399300D01*
X0206800Y0399300D02*
X0206800Y0394300D01*
X0209300Y0391800D01*
X0214300Y0391800D01*
X0216800Y0394300D01*
X0219300Y0391800D01*
X0224300Y0391800D01*
X0226800Y0394300D01*
X0226800Y0399300D01*
X0224300Y0401800D01*
X0219300Y0401800D01*
X0216800Y0399300D01*
X0216800Y0394300D01*
X0226800Y0394300D02*
X0229300Y0391800D01*
X0234300Y0391800D01*
X0236800Y0394300D01*
X0239300Y0391800D01*
X0244300Y0391800D01*
X0246800Y0394300D01*
X0249300Y0391800D01*
X0254300Y0391800D01*
X0256800Y0394300D01*
X0256800Y0399300D01*
X0254300Y0401800D01*
X0249300Y0401800D01*
X0246800Y0399300D01*
X0246800Y0394300D01*
X0256800Y0394300D02*
X0259300Y0391800D01*
X0264300Y0391800D01*
X0266800Y0394300D01*
X0269300Y0391800D01*
X0274300Y0391800D01*
X0276800Y0394300D01*
X0279300Y0391800D01*
X0284300Y0391800D01*
X0286800Y0394300D01*
X0286800Y0399300D01*
X0284300Y0401800D01*
X0279300Y0401800D01*
X0276800Y0399300D01*
X0276800Y0394300D01*
X0276800Y0399300D02*
X0274300Y0401800D01*
X0269300Y0401800D01*
X0266800Y0399300D01*
X0266800Y0394300D01*
X0266800Y0399300D02*
X0264300Y0401800D01*
X0259300Y0401800D01*
X0256800Y0399300D01*
X0246800Y0399300D02*
X0244300Y0401800D01*
X0239300Y0401800D01*
X0236800Y0399300D01*
X0236800Y0394300D01*
X0236800Y0399300D02*
X0234300Y0401800D01*
X0229300Y0401800D01*
X0226800Y0399300D01*
X0216800Y0399300D02*
X0214300Y0401800D01*
X0209300Y0401800D01*
X0206800Y0399300D01*
X0264300Y0316800D02*
X0269300Y0316800D01*
X0271800Y0314300D01*
X0271800Y0309300D01*
X0269300Y0306800D01*
X0271800Y0304300D01*
X0271800Y0299300D01*
X0269300Y0296800D01*
X0271800Y0294300D01*
X0271800Y0289300D01*
X0269300Y0286800D01*
X0271800Y0284300D01*
X0271800Y0279300D01*
X0269300Y0276800D01*
X0271800Y0274300D01*
X0271800Y0269300D01*
X0269300Y0266800D01*
X0271800Y0264300D01*
X0271800Y0259300D01*
X0269300Y0256800D01*
X0271800Y0254300D01*
X0271800Y0249300D01*
X0269300Y0246800D01*
X0271800Y0244300D01*
X0271800Y0239300D01*
X0269300Y0236800D01*
X0271800Y0234300D01*
X0271800Y0229300D01*
X0269300Y0226800D01*
X0271800Y0224300D01*
X0271800Y0219300D01*
X0269300Y0216800D01*
X0271800Y0214300D01*
X0271800Y0209300D01*
X0269300Y0206800D01*
X0271800Y0204300D01*
X0271800Y0199300D01*
X0269300Y0196800D01*
X0271800Y0194300D01*
X0271800Y0189300D01*
X0269300Y0186800D01*
X0271800Y0184300D01*
X0271800Y0179300D01*
X0269300Y0176800D01*
X0264300Y0176800D01*
X0261800Y0179300D01*
X0261800Y0184300D01*
X0264300Y0186800D01*
X0261800Y0189300D01*
X0261800Y0194300D01*
X0264300Y0196800D01*
X0269300Y0196800D01*
X0264300Y0196800D02*
X0261800Y0199300D01*
X0261800Y0204300D01*
X0264300Y0206800D01*
X0261800Y0209300D01*
X0261800Y0214300D01*
X0264300Y0216800D01*
X0261800Y0219300D01*
X0261800Y0224300D01*
X0264300Y0226800D01*
X0269300Y0226800D01*
X0264300Y0226800D02*
X0261800Y0229300D01*
X0261800Y0234300D01*
X0264300Y0236800D01*
X0261800Y0239300D01*
X0261800Y0244300D01*
X0264300Y0246800D01*
X0261800Y0249300D01*
X0261800Y0254300D01*
X0264300Y0256800D01*
X0269300Y0256800D01*
X0264300Y0256800D02*
X0261800Y0259300D01*
X0261800Y0264300D01*
X0264300Y0266800D01*
X0261800Y0269300D01*
X0261800Y0274300D01*
X0264300Y0276800D01*
X0261800Y0279300D01*
X0261800Y0284300D01*
X0264300Y0286800D01*
X0269300Y0286800D01*
X0264300Y0286800D02*
X0261800Y0289300D01*
X0261800Y0294300D01*
X0264300Y0296800D01*
X0261800Y0299300D01*
X0261800Y0304300D01*
X0264300Y0306800D01*
X0261800Y0309300D01*
X0261800Y0314300D01*
X0264300Y0316800D01*
X0264300Y0306800D02*
X0269300Y0306800D01*
X0269300Y0296800D02*
X0264300Y0296800D01*
X0264300Y0276800D02*
X0269300Y0276800D01*
X0269300Y0266800D02*
X0264300Y0266800D01*
X0264300Y0246800D02*
X0269300Y0246800D01*
X0269300Y0236800D02*
X0264300Y0236800D01*
X0264300Y0216800D02*
X0269300Y0216800D01*
X0269300Y0206800D02*
X0264300Y0206800D01*
X0264300Y0186800D02*
X0269300Y0186800D01*
X0309300Y0121800D02*
X0306800Y0119300D01*
X0306800Y0114300D01*
X0309300Y0111800D01*
X0314300Y0111800D01*
X0316800Y0114300D01*
X0319300Y0111800D01*
X0324300Y0111800D01*
X0326800Y0114300D01*
X0326800Y0119300D01*
X0324300Y0121800D01*
X0319300Y0121800D01*
X0316800Y0119300D01*
X0316800Y0114300D01*
X0316800Y0119300D02*
X0314300Y0121800D01*
X0309300Y0121800D01*
X0326800Y0119300D02*
X0329300Y0121800D01*
X0334300Y0121800D01*
X0336800Y0119300D01*
X0339300Y0121800D01*
X0344300Y0121800D01*
X0346800Y0119300D01*
X0349300Y0121800D01*
X0354300Y0121800D01*
X0356800Y0119300D01*
X0359300Y0121800D01*
X0364300Y0121800D01*
X0366800Y0119300D01*
X0366800Y0114300D01*
X0364300Y0111800D01*
X0359300Y0111800D01*
X0356800Y0114300D01*
X0354300Y0111800D01*
X0349300Y0111800D01*
X0346800Y0114300D01*
X0344300Y0111800D01*
X0339300Y0111800D01*
X0336800Y0114300D01*
X0334300Y0111800D01*
X0329300Y0111800D01*
X0326800Y0114300D01*
X0336800Y0114300D02*
X0336800Y0119300D01*
X0346800Y0119300D02*
X0346800Y0114300D01*
X0356800Y0114300D02*
X0356800Y0119300D01*
X0389300Y0066800D02*
X0386800Y0064300D01*
X0386800Y0059300D01*
X0389300Y0056800D01*
X0394300Y0056800D01*
X0396800Y0059300D01*
X0399300Y0056800D01*
X0404300Y0056800D01*
X0406800Y0059300D01*
X0406800Y0064300D01*
X0404300Y0066800D01*
X0399300Y0066800D01*
X0396800Y0064300D01*
X0396800Y0059300D01*
X0396800Y0064300D02*
X0394300Y0066800D01*
X0389300Y0066800D01*
X0406800Y0064300D02*
X0409300Y0066800D01*
X0414300Y0066800D01*
X0416800Y0064300D01*
X0419300Y0066800D01*
X0424300Y0066800D01*
X0426800Y0064300D01*
X0429300Y0066800D01*
X0434300Y0066800D01*
X0436800Y0064300D01*
X0439300Y0066800D01*
X0444300Y0066800D01*
X0446800Y0064300D01*
X0446800Y0059300D01*
X0444300Y0056800D01*
X0439300Y0056800D01*
X0436800Y0059300D01*
X0434300Y0056800D01*
X0429300Y0056800D01*
X0426800Y0059300D01*
X0424300Y0056800D01*
X0419300Y0056800D01*
X0416800Y0059300D01*
X0414300Y0056800D01*
X0409300Y0056800D01*
X0406800Y0059300D01*
X0416800Y0059300D02*
X0416800Y0064300D01*
X0426800Y0064300D02*
X0426800Y0059300D01*
X0436800Y0059300D02*
X0436800Y0064300D01*
X0466800Y0054300D02*
X0466800Y0049300D01*
X0469300Y0046800D01*
X0474300Y0046800D01*
X0476800Y0049300D01*
X0479300Y0046800D01*
X0484300Y0046800D01*
X0486800Y0049300D01*
X0486800Y0054300D01*
X0484300Y0056800D01*
X0479300Y0056800D01*
X0476800Y0054300D01*
X0476800Y0049300D01*
X0476800Y0054300D02*
X0474300Y0056800D01*
X0469300Y0056800D01*
X0466800Y0054300D01*
X0486800Y0054300D02*
X0489300Y0056800D01*
X0494300Y0056800D01*
X0496800Y0054300D01*
X0499300Y0056800D01*
X0504300Y0056800D01*
X0506800Y0054300D01*
X0509300Y0056800D01*
X0514300Y0056800D01*
X0516800Y0054300D01*
X0516800Y0049300D01*
X0514300Y0046800D01*
X0509300Y0046800D01*
X0506800Y0049300D01*
X0504300Y0046800D01*
X0499300Y0046800D01*
X0496800Y0049300D01*
X0494300Y0046800D01*
X0489300Y0046800D01*
X0486800Y0049300D01*
X0496800Y0049300D02*
X0496800Y0054300D01*
X0506800Y0054300D02*
X0506800Y0049300D01*
X0541800Y0044800D02*
X0541800Y0038800D01*
X0541802Y0038740D01*
X0541807Y0038679D01*
X0541816Y0038620D01*
X0541829Y0038561D01*
X0541845Y0038502D01*
X0541865Y0038445D01*
X0541888Y0038390D01*
X0541915Y0038335D01*
X0541944Y0038283D01*
X0541977Y0038232D01*
X0542013Y0038183D01*
X0542051Y0038137D01*
X0542093Y0038093D01*
X0542137Y0038051D01*
X0542183Y0038013D01*
X0542232Y0037977D01*
X0542283Y0037944D01*
X0542335Y0037915D01*
X0542390Y0037888D01*
X0542445Y0037865D01*
X0542502Y0037845D01*
X0542561Y0037829D01*
X0542620Y0037816D01*
X0542679Y0037807D01*
X0542740Y0037802D01*
X0542800Y0037800D01*
X0544300Y0037800D01*
X0544800Y0038300D01*
X0558800Y0038300D01*
X0559300Y0037800D01*
X0560800Y0037800D01*
X0560860Y0037802D01*
X0560921Y0037807D01*
X0560980Y0037816D01*
X0561039Y0037829D01*
X0561098Y0037845D01*
X0561155Y0037865D01*
X0561210Y0037888D01*
X0561265Y0037915D01*
X0561317Y0037944D01*
X0561368Y0037977D01*
X0561417Y0038013D01*
X0561463Y0038051D01*
X0561507Y0038093D01*
X0561549Y0038137D01*
X0561587Y0038183D01*
X0561623Y0038232D01*
X0561656Y0038283D01*
X0561685Y0038335D01*
X0561712Y0038390D01*
X0561735Y0038445D01*
X0561755Y0038502D01*
X0561771Y0038561D01*
X0561784Y0038620D01*
X0561793Y0038679D01*
X0561798Y0038740D01*
X0561800Y0038800D01*
X0561800Y0044800D01*
X0561798Y0044860D01*
X0561793Y0044921D01*
X0561784Y0044980D01*
X0561771Y0045039D01*
X0561755Y0045098D01*
X0561735Y0045155D01*
X0561712Y0045210D01*
X0561685Y0045265D01*
X0561656Y0045317D01*
X0561623Y0045368D01*
X0561587Y0045417D01*
X0561549Y0045463D01*
X0561507Y0045507D01*
X0561463Y0045549D01*
X0561417Y0045587D01*
X0561368Y0045623D01*
X0561317Y0045656D01*
X0561265Y0045685D01*
X0561210Y0045712D01*
X0561155Y0045735D01*
X0561098Y0045755D01*
X0561039Y0045771D01*
X0560980Y0045784D01*
X0560921Y0045793D01*
X0560860Y0045798D01*
X0560800Y0045800D01*
X0559300Y0045800D01*
X0558800Y0045300D01*
X0544800Y0045300D01*
X0544300Y0045800D01*
X0542800Y0045800D01*
X0542740Y0045798D01*
X0542679Y0045793D01*
X0542620Y0045784D01*
X0542561Y0045771D01*
X0542502Y0045755D01*
X0542445Y0045735D01*
X0542390Y0045712D01*
X0542335Y0045685D01*
X0542283Y0045656D01*
X0542232Y0045623D01*
X0542183Y0045587D01*
X0542137Y0045549D01*
X0542093Y0045507D01*
X0542051Y0045463D01*
X0542013Y0045417D01*
X0541977Y0045368D01*
X0541944Y0045317D01*
X0541915Y0045265D01*
X0541888Y0045210D01*
X0541865Y0045155D01*
X0541845Y0045098D01*
X0541829Y0045039D01*
X0541816Y0044980D01*
X0541807Y0044921D01*
X0541802Y0044860D01*
X0541800Y0044800D01*
X0529300Y0091800D02*
X0524300Y0091800D01*
X0521800Y0094300D01*
X0521800Y0109300D01*
X0519300Y0111800D01*
X0514300Y0111800D01*
X0511800Y0109300D01*
X0511800Y0094300D01*
X0509300Y0091800D01*
X0504300Y0091800D01*
X0501800Y0094300D01*
X0501800Y0109300D01*
X0499300Y0111800D01*
X0494300Y0111800D01*
X0491800Y0109300D01*
X0491800Y0094300D01*
X0489300Y0091800D01*
X0484300Y0091800D01*
X0481800Y0094300D01*
X0481800Y0109300D01*
X0479300Y0111800D01*
X0474300Y0111800D01*
X0471800Y0109300D01*
X0471800Y0094300D01*
X0469300Y0091800D01*
X0464300Y0091800D01*
X0461800Y0094300D01*
X0459300Y0091800D01*
X0454300Y0091800D01*
X0451800Y0094300D01*
X0451800Y0109300D01*
X0454300Y0111800D01*
X0459300Y0111800D01*
X0461800Y0109300D01*
X0461800Y0094300D01*
X0471800Y0094300D02*
X0474300Y0091800D01*
X0479300Y0091800D01*
X0481800Y0094300D01*
X0491800Y0094300D02*
X0494300Y0091800D01*
X0499300Y0091800D01*
X0501800Y0094300D01*
X0511800Y0094300D02*
X0514300Y0091800D01*
X0519300Y0091800D01*
X0521800Y0094300D01*
X0529300Y0091800D02*
X0531800Y0094300D01*
X0531800Y0109300D01*
X0529300Y0111800D01*
X0524300Y0111800D01*
X0521800Y0109300D01*
X0511800Y0109300D02*
X0509300Y0111800D01*
X0504300Y0111800D01*
X0501800Y0109300D01*
X0491800Y0109300D02*
X0489300Y0111800D01*
X0484300Y0111800D01*
X0481800Y0109300D01*
X0471800Y0109300D02*
X0469300Y0111800D01*
X0464300Y0111800D01*
X0461800Y0109300D01*
X0551800Y0124300D02*
X0554300Y0121800D01*
X0559300Y0121800D01*
X0561800Y0124300D01*
X0564300Y0121800D01*
X0569300Y0121800D01*
X0571800Y0124300D01*
X0571800Y0129300D01*
X0569300Y0131800D01*
X0564300Y0131800D01*
X0561800Y0129300D01*
X0561800Y0124300D01*
X0561800Y0129300D02*
X0559300Y0131800D01*
X0554300Y0131800D01*
X0551800Y0129300D01*
X0551800Y0124300D01*
X0434300Y0391800D02*
X0429300Y0391800D01*
X0426800Y0394300D01*
X0424300Y0391800D01*
X0419300Y0391800D01*
X0416800Y0394300D01*
X0414300Y0391800D01*
X0409300Y0391800D01*
X0406800Y0394300D01*
X0404300Y0391800D01*
X0399300Y0391800D01*
X0396800Y0394300D01*
X0394300Y0391800D01*
X0389300Y0391800D01*
X0386800Y0394300D01*
X0384300Y0391800D01*
X0379300Y0391800D01*
X0376800Y0394300D01*
X0374300Y0391800D01*
X0369300Y0391800D01*
X0366800Y0394300D01*
X0364300Y0391800D01*
X0359300Y0391800D01*
X0356800Y0394300D01*
X0354300Y0391800D01*
X0349300Y0391800D01*
X0346800Y0394300D01*
X0344300Y0391800D01*
X0339300Y0391800D01*
X0336800Y0394300D01*
X0334300Y0391800D01*
X0329300Y0391800D01*
X0326800Y0394300D01*
X0326800Y0399300D01*
X0329300Y0401800D01*
X0334300Y0401800D01*
X0336800Y0399300D01*
X0339300Y0401800D01*
X0344300Y0401800D01*
X0346800Y0399300D01*
X0346800Y0394300D01*
X0336800Y0394300D02*
X0336800Y0399300D01*
X0346800Y0399300D02*
X0349300Y0401800D01*
X0354300Y0401800D01*
X0356800Y0399300D01*
X0359300Y0401800D01*
X0364300Y0401800D01*
X0366800Y0399300D01*
X0369300Y0401800D01*
X0374300Y0401800D01*
X0376800Y0399300D01*
X0376800Y0394300D01*
X0366800Y0394300D02*
X0366800Y0399300D01*
X0376800Y0399300D02*
X0379300Y0401800D01*
X0384300Y0401800D01*
X0386800Y0399300D01*
X0389300Y0401800D01*
X0394300Y0401800D01*
X0396800Y0399300D01*
X0399300Y0401800D01*
X0404300Y0401800D01*
X0406800Y0399300D01*
X0406800Y0394300D01*
X0396800Y0394300D02*
X0396800Y0399300D01*
X0406800Y0399300D02*
X0409300Y0401800D01*
X0414300Y0401800D01*
X0416800Y0399300D01*
X0419300Y0401800D01*
X0424300Y0401800D01*
X0426800Y0399300D01*
X0429300Y0401800D01*
X0434300Y0401800D01*
X0436800Y0399300D01*
X0436800Y0394300D01*
X0434300Y0391800D01*
X0426800Y0394300D02*
X0426800Y0399300D01*
X0416800Y0399300D02*
X0416800Y0394300D01*
X0386800Y0394300D02*
X0386800Y0399300D01*
X0356800Y0399300D02*
X0356800Y0394300D01*
D11*
X0541050Y0041800D03*
X0562550Y0041800D03*
D12*
X0081800Y0186050D03*
X0081800Y0207550D03*
M02*
