%
M48
M72
T01C0.03200
T02C0.04000
T03C0.05118
T04C0.12598
%
T01
X81800Y181800
X81800Y211800
X536800Y41800
X566800Y41800
T02
X511800Y51800
X501800Y51800
X491800Y51800
X481800Y51800
X471800Y51800
X441800Y61800
X431800Y61800
X421800Y61800
X411800Y61800
X401800Y61800
X391800Y61800
X456800Y96800
X466800Y96800
X466800Y106800
X456800Y106800
X476800Y106800
X476800Y96800
X486800Y96800
X496800Y96800
X496800Y106800
X486800Y106800
X506800Y106800
X506800Y96800
X516800Y96800
X516800Y106800
X526800Y106800
X526800Y96800
X556800Y126800
X566800Y126800
X451800Y151800
X441800Y151800
X431800Y151800
X421800Y151800
X411800Y151800
X401800Y151800
X391800Y151800
X381800Y151800
X361800Y151800
X351800Y151800
X341800Y151800
X331800Y151800
X321800Y151800
X311800Y151800
X301800Y151800
X291800Y151800
X271800Y151800
X261800Y151800
X251800Y151800
X241800Y151800
X231800Y151800
X221800Y151800
X211800Y151800
X201800Y151800
X191800Y171800
X191800Y181800
X181800Y181800
X181800Y171800
X181800Y191800
X181800Y201800
X181800Y211800
X191800Y211800
X191800Y201800
X191800Y191800
X191800Y221800
X191800Y231800
X191800Y241800
X181800Y241800
X181800Y231800
X181800Y221800
X181800Y251800
X181800Y261800
X181800Y271800
X181800Y281800
X191800Y281800
X191800Y271800
X191800Y261800
X191800Y251800
X191800Y291800
X191800Y301800
X191800Y311800
X181800Y311800
X181800Y301800
X181800Y291800
X181800Y321800
X181800Y331800
X181800Y341800
X191800Y341800
X191800Y331800
X191800Y321800
X221800Y341800
X231800Y341800
X241800Y341800
X251800Y341800
X261800Y341800
X271800Y341800
X281800Y341800
X291800Y341800
X311800Y341800
X321800Y341800
X331800Y341800
X341800Y341800
X351800Y341800
X361800Y341800
X371800Y341800
X381800Y341800
X397800Y341800
X407800Y341800
X417800Y341800
X427800Y341800
X437800Y341800
X447800Y341800
X457800Y341800
X467800Y341800
X477800Y341800
X487800Y341800
X431800Y396800
X421800Y396800
X411800Y396800
X401800Y396800
X391800Y396800
X381800Y396800
X371800Y396800
X361800Y396800
X351800Y396800
X341800Y396800
X331800Y396800
X281800Y396800
X271800Y396800
X261800Y396800
X251800Y396800
X241800Y396800
X231800Y396800
X221800Y396800
X211800Y396800
X156800Y396800
X156800Y386800
X146800Y386800
X146800Y396800
X136800Y396800
X126800Y396800
X126800Y386800
X136800Y386800
X116800Y386800
X116800Y396800
X106800Y396800
X96800Y396800
X96800Y386800
X106800Y386800
X86800Y386800
X86800Y396800
X76800Y396800
X66800Y396800
X66800Y386800
X76800Y386800
X61800Y336800
X61800Y326800
X61800Y316800
X61800Y306800
X61800Y291800
X61800Y281800
X61800Y271800
X61800Y261800
X121800Y261800
X121800Y251800
X121800Y241800
X121800Y231800
X121800Y221800
X121800Y271800
X121800Y281800
X121800Y291800
X121800Y301800
X121800Y311800
X121800Y321800
X121800Y331800
X266800Y311800
X266800Y301800
X266800Y291800
X266800Y281800
X266800Y271800
X266800Y261800
X266800Y251800
X266800Y241800
X266800Y231800
X266800Y221800
X266800Y211800
X266800Y201800
X266800Y191800
X266800Y181800
X311800Y116800
X321800Y116800
X331800Y116800
X341800Y116800
X351800Y116800
X361800Y116800
X121800Y96800
X111800Y96800
X101800Y96800
X71800Y86800
X61800Y86800
X36800Y86800
X26800Y86800
X61800Y46800
X71800Y46800
X71800Y156800
X81800Y156800
T03
X136800Y191800
X151800Y181800
X211800Y181800
X226800Y191800
X221800Y201800
X221800Y211800
X221800Y221800
X221800Y231800
X221800Y241800
X221800Y251800
X221800Y261800
X241800Y301800
X221800Y311800
X211800Y371800
X281800Y371800
X306800Y271800
X291800Y181800
X401800Y76800
X431800Y31800
X516800Y151800
X487800Y266800
X476800Y276800
X516800Y356800
X191800Y51800
X136800Y41800
X71800Y66800
X61800Y66800
X56800Y111800
X86800Y111800
X46800Y271800
X46800Y316800
T04
X26800Y26800
X26800Y406800
X571800Y406800
X571800Y26800
M30
