G75*
%MOIN*%
%OFA0B0*%
%FSLAX25Y25*%
%IPPOS*%
%LPD*%
%AMOC8*
5,1,8,0,0,1.08239X$1,22.5*
%
%ADD10C,0.06000*%
%ADD11OC8,0.06000*%
%ADD12OC8,0.05200*%
%ADD13C,0.07400*%
%ADD14OC8,0.07400*%
%ADD15R,0.07677X0.07677*%
%ADD16C,0.01600*%
%ADD17C,0.06600*%
%ADD18C,0.04000*%
D10*
X0061800Y0043800D02*
X0061800Y0049800D01*
X0071800Y0049800D02*
X0071800Y0043800D01*
X0071800Y0083800D02*
X0071800Y0089800D01*
X0061800Y0089800D02*
X0061800Y0083800D01*
X0036800Y0083800D02*
X0036800Y0089800D01*
X0026800Y0089800D02*
X0026800Y0083800D01*
X0101800Y0093800D02*
X0101800Y0099800D01*
X0111800Y0099800D02*
X0111800Y0093800D01*
X0121800Y0093800D02*
X0121800Y0099800D01*
X0081800Y0153800D02*
X0081800Y0159800D01*
X0071800Y0159800D02*
X0071800Y0153800D01*
X0118800Y0221800D02*
X0124800Y0221800D01*
X0124800Y0231800D02*
X0118800Y0231800D01*
X0118800Y0241800D02*
X0124800Y0241800D01*
X0124800Y0251800D02*
X0118800Y0251800D01*
X0118800Y0261800D02*
X0124800Y0261800D01*
X0124800Y0271800D02*
X0118800Y0271800D01*
X0118800Y0281800D02*
X0124800Y0281800D01*
X0124800Y0291800D02*
X0118800Y0291800D01*
X0118800Y0301800D02*
X0124800Y0301800D01*
X0124800Y0311800D02*
X0118800Y0311800D01*
X0118800Y0321800D02*
X0124800Y0321800D01*
X0124800Y0331800D02*
X0118800Y0331800D01*
X0064800Y0326800D02*
X0058800Y0326800D01*
X0058800Y0316800D02*
X0064800Y0316800D01*
X0064800Y0306800D02*
X0058800Y0306800D01*
X0058800Y0291800D02*
X0064800Y0291800D01*
X0064800Y0281800D02*
X0058800Y0281800D01*
X0058800Y0271800D02*
X0064800Y0271800D01*
X0064800Y0261800D02*
X0058800Y0261800D01*
X0058800Y0336800D02*
X0064800Y0336800D01*
X0211800Y0393800D02*
X0211800Y0399800D01*
X0221800Y0399800D02*
X0221800Y0393800D01*
X0231800Y0393800D02*
X0231800Y0399800D01*
X0241800Y0399800D02*
X0241800Y0393800D01*
X0251800Y0393800D02*
X0251800Y0399800D01*
X0261800Y0399800D02*
X0261800Y0393800D01*
X0271800Y0393800D02*
X0271800Y0399800D01*
X0281800Y0399800D02*
X0281800Y0393800D01*
X0331800Y0393800D02*
X0331800Y0399800D01*
X0341800Y0399800D02*
X0341800Y0393800D01*
X0351800Y0393800D02*
X0351800Y0399800D01*
X0361800Y0399800D02*
X0361800Y0393800D01*
X0371800Y0393800D02*
X0371800Y0399800D01*
X0381800Y0399800D02*
X0381800Y0393800D01*
X0391800Y0393800D02*
X0391800Y0399800D01*
X0401800Y0399800D02*
X0401800Y0393800D01*
X0411800Y0393800D02*
X0411800Y0399800D01*
X0421800Y0399800D02*
X0421800Y0393800D01*
X0431800Y0393800D02*
X0431800Y0399800D01*
X0269800Y0311800D02*
X0263800Y0311800D01*
X0263800Y0301800D02*
X0269800Y0301800D01*
X0269800Y0291800D02*
X0263800Y0291800D01*
X0263800Y0281800D02*
X0269800Y0281800D01*
X0269800Y0271800D02*
X0263800Y0271800D01*
X0263800Y0261800D02*
X0269800Y0261800D01*
X0269800Y0251800D02*
X0263800Y0251800D01*
X0263800Y0241800D02*
X0269800Y0241800D01*
X0269800Y0231800D02*
X0263800Y0231800D01*
X0263800Y0221800D02*
X0269800Y0221800D01*
X0269800Y0211800D02*
X0263800Y0211800D01*
X0263800Y0201800D02*
X0269800Y0201800D01*
X0269800Y0191800D02*
X0263800Y0191800D01*
X0263800Y0181800D02*
X0269800Y0181800D01*
X0311800Y0119800D02*
X0311800Y0113800D01*
X0321800Y0113800D02*
X0321800Y0119800D01*
X0331800Y0119800D02*
X0331800Y0113800D01*
X0341800Y0113800D02*
X0341800Y0119800D01*
X0351800Y0119800D02*
X0351800Y0113800D01*
X0361800Y0113800D02*
X0361800Y0119800D01*
X0391800Y0064800D02*
X0391800Y0058800D01*
X0401800Y0058800D02*
X0401800Y0064800D01*
X0411800Y0064800D02*
X0411800Y0058800D01*
X0421800Y0058800D02*
X0421800Y0064800D01*
X0431800Y0064800D02*
X0431800Y0058800D01*
X0441800Y0058800D02*
X0441800Y0064800D01*
X0471800Y0054800D02*
X0471800Y0048800D01*
X0481800Y0048800D02*
X0481800Y0054800D01*
X0491800Y0054800D02*
X0491800Y0048800D01*
X0501800Y0048800D02*
X0501800Y0054800D01*
X0511800Y0054800D02*
X0511800Y0048800D01*
X0556800Y0123800D02*
X0556800Y0129800D01*
X0566800Y0129800D02*
X0566800Y0123800D01*
D11*
X0526800Y0106800D03*
X0526800Y0096800D03*
X0516800Y0096800D03*
X0516800Y0106800D03*
X0506800Y0106800D03*
X0506800Y0096800D03*
X0496800Y0096800D03*
X0486800Y0096800D03*
X0486800Y0106800D03*
X0496800Y0106800D03*
X0476800Y0106800D03*
X0476800Y0096800D03*
X0466800Y0096800D03*
X0456800Y0096800D03*
X0456800Y0106800D03*
X0466800Y0106800D03*
X0156800Y0386800D03*
X0156800Y0396800D03*
X0146800Y0396800D03*
X0146800Y0386800D03*
X0136800Y0386800D03*
X0126800Y0386800D03*
X0126800Y0396800D03*
X0136800Y0396800D03*
X0116800Y0396800D03*
X0116800Y0386800D03*
X0106800Y0386800D03*
X0096800Y0386800D03*
X0096800Y0396800D03*
X0106800Y0396800D03*
X0086800Y0396800D03*
X0086800Y0386800D03*
X0076800Y0386800D03*
X0066800Y0386800D03*
X0066800Y0396800D03*
X0076800Y0396800D03*
D12*
X0081800Y0211800D03*
X0081800Y0181800D03*
X0536800Y0041800D03*
X0566800Y0041800D03*
D13*
X0451800Y0151800D03*
X0441800Y0151800D03*
X0431800Y0151800D03*
X0421800Y0151800D03*
X0411800Y0151800D03*
X0401800Y0151800D03*
X0391800Y0151800D03*
X0381800Y0151800D03*
X0361800Y0151800D03*
X0351800Y0151800D03*
X0341800Y0151800D03*
X0331800Y0151800D03*
X0321800Y0151800D03*
X0311800Y0151800D03*
X0301800Y0151800D03*
X0291800Y0151800D03*
X0271800Y0151800D03*
X0261800Y0151800D03*
X0251800Y0151800D03*
X0241800Y0151800D03*
X0231800Y0151800D03*
X0221800Y0151800D03*
X0211800Y0151800D03*
X0201800Y0151800D03*
X0191800Y0171800D03*
X0181800Y0171800D03*
X0181800Y0341800D03*
X0191800Y0341800D03*
X0221800Y0341800D03*
X0231800Y0341800D03*
X0241800Y0341800D03*
X0251800Y0341800D03*
X0261800Y0341800D03*
X0271800Y0341800D03*
X0281800Y0341800D03*
X0291800Y0341800D03*
X0311800Y0341800D03*
X0321800Y0341800D03*
X0331800Y0341800D03*
X0341800Y0341800D03*
X0351800Y0341800D03*
X0361800Y0341800D03*
X0371800Y0341800D03*
X0381800Y0341800D03*
X0397800Y0341800D03*
X0407800Y0341800D03*
X0417800Y0341800D03*
X0427800Y0341800D03*
X0437800Y0341800D03*
X0447800Y0341800D03*
X0457800Y0341800D03*
X0467800Y0341800D03*
X0477800Y0341800D03*
X0487800Y0341800D03*
D14*
X0191800Y0331800D03*
X0191800Y0321800D03*
X0181800Y0321800D03*
X0181800Y0331800D03*
X0181800Y0311800D03*
X0181800Y0301800D03*
X0181800Y0291800D03*
X0191800Y0291800D03*
X0191800Y0301800D03*
X0191800Y0311800D03*
X0191800Y0281800D03*
X0191800Y0271800D03*
X0191800Y0261800D03*
X0191800Y0251800D03*
X0181800Y0251800D03*
X0181800Y0261800D03*
X0181800Y0271800D03*
X0181800Y0281800D03*
X0181800Y0241800D03*
X0181800Y0231800D03*
X0181800Y0221800D03*
X0191800Y0221800D03*
X0191800Y0231800D03*
X0191800Y0241800D03*
X0191800Y0211800D03*
X0191800Y0201800D03*
X0191800Y0191800D03*
X0181800Y0191800D03*
X0181800Y0201800D03*
X0181800Y0211800D03*
X0181800Y0181800D03*
X0191800Y0181800D03*
D15*
X0211800Y0181800D03*
X0226800Y0191800D03*
X0221800Y0201800D03*
X0221800Y0211800D03*
X0221800Y0221800D03*
X0221800Y0231800D03*
X0221800Y0241800D03*
X0221800Y0251800D03*
X0221800Y0261800D03*
X0241800Y0301800D03*
X0221800Y0311800D03*
X0211800Y0371800D03*
X0281800Y0371800D03*
X0306800Y0271800D03*
X0291800Y0181800D03*
X0151800Y0181800D03*
X0136800Y0191800D03*
X0046800Y0271800D03*
X0046800Y0316800D03*
X0056800Y0111800D03*
X0086800Y0111800D03*
X0071800Y0066800D03*
X0061800Y0066800D03*
X0136800Y0041800D03*
X0191800Y0051800D03*
X0401800Y0076800D03*
X0431800Y0031800D03*
X0516800Y0151800D03*
X0487800Y0266800D03*
X0476800Y0276800D03*
X0516800Y0356800D03*
D16*
X0033615Y0017918D02*
X0032717Y0017400D01*
X0565883Y0017400D01*
X0564985Y0017918D01*
X0562918Y0019985D01*
X0561457Y0022516D01*
X0560701Y0025339D01*
X0560701Y0028261D01*
X0561457Y0031084D01*
X0562918Y0033615D01*
X0564503Y0035200D01*
X0564066Y0035200D01*
X0560200Y0039066D01*
X0560200Y0044534D01*
X0560800Y0045134D01*
X0560800Y0047315D01*
X0560199Y0046713D01*
X0557993Y0045800D01*
X0539023Y0045800D01*
X0541200Y0043623D01*
X0541200Y0041800D01*
X0536800Y0041800D01*
X0536800Y0041800D01*
X0541200Y0041800D01*
X0541200Y0039977D01*
X0538623Y0037400D01*
X0536800Y0037400D01*
X0536800Y0041800D01*
X0536800Y0041800D01*
X0536800Y0041800D01*
X0532400Y0041800D01*
X0532400Y0043623D01*
X0534577Y0045800D01*
X0518134Y0045800D01*
X0517734Y0044835D01*
X0515765Y0042866D01*
X0513192Y0041800D01*
X0510408Y0041800D01*
X0507835Y0042866D01*
X0506800Y0043901D01*
X0505765Y0042866D01*
X0503192Y0041800D01*
X0500408Y0041800D01*
X0497835Y0042866D01*
X0496800Y0043901D01*
X0495765Y0042866D01*
X0493192Y0041800D01*
X0490408Y0041800D01*
X0487835Y0042866D01*
X0486800Y0043901D01*
X0485765Y0042866D01*
X0483192Y0041800D01*
X0480408Y0041800D01*
X0477835Y0042866D01*
X0476800Y0043901D01*
X0475765Y0042866D01*
X0473192Y0041800D01*
X0470408Y0041800D01*
X0467835Y0042866D01*
X0465866Y0044835D01*
X0464800Y0047408D01*
X0464800Y0049624D01*
X0464500Y0050348D01*
X0464500Y0059500D01*
X0448800Y0059500D01*
X0448800Y0057408D01*
X0447734Y0054835D01*
X0445765Y0052866D01*
X0443192Y0051800D01*
X0440408Y0051800D01*
X0437835Y0052866D01*
X0437800Y0052901D01*
X0437800Y0039073D01*
X0437904Y0039030D01*
X0439030Y0037904D01*
X0439639Y0036434D01*
X0439639Y0027166D01*
X0439030Y0025696D01*
X0437904Y0024570D01*
X0436434Y0023961D01*
X0427166Y0023961D01*
X0425696Y0024570D01*
X0424570Y0025696D01*
X0423961Y0027166D01*
X0423961Y0036201D01*
X0422993Y0035800D01*
X0144073Y0035800D01*
X0144030Y0035696D01*
X0142904Y0034570D01*
X0141434Y0033961D01*
X0132166Y0033961D01*
X0130696Y0034570D01*
X0129570Y0035696D01*
X0128961Y0037166D01*
X0128961Y0046434D01*
X0129570Y0047904D01*
X0130696Y0049030D01*
X0132166Y0049639D01*
X0141434Y0049639D01*
X0142904Y0049030D01*
X0144030Y0047904D01*
X0144073Y0047800D01*
X0183961Y0047800D01*
X0183961Y0056434D01*
X0184570Y0057904D01*
X0185696Y0059030D01*
X0187166Y0059639D01*
X0196434Y0059639D01*
X0197904Y0059030D01*
X0199030Y0057904D01*
X0199073Y0057800D01*
X0387099Y0057800D01*
X0387000Y0058422D01*
X0387000Y0061600D01*
X0391600Y0061600D01*
X0391600Y0062000D01*
X0391600Y0069600D01*
X0391422Y0069600D01*
X0390676Y0069482D01*
X0389957Y0069248D01*
X0389284Y0068905D01*
X0388673Y0068461D01*
X0388139Y0067927D01*
X0387695Y0067316D01*
X0387352Y0066643D01*
X0387118Y0065924D01*
X0387000Y0065178D01*
X0387000Y0062000D01*
X0391600Y0062000D01*
X0392000Y0062000D01*
X0392000Y0069600D01*
X0392178Y0069600D01*
X0392924Y0069482D01*
X0393643Y0069248D01*
X0394316Y0068905D01*
X0394927Y0068461D01*
X0395461Y0067927D01*
X0395498Y0067877D01*
X0395800Y0068607D01*
X0395800Y0069527D01*
X0395696Y0069570D01*
X0394570Y0070696D01*
X0393961Y0072166D01*
X0393961Y0079500D01*
X0280348Y0079500D01*
X0277665Y0080611D01*
X0275611Y0082665D01*
X0274500Y0085348D01*
X0274500Y0089500D01*
X0127399Y0089500D01*
X0125765Y0087866D01*
X0123192Y0086800D01*
X0120408Y0086800D01*
X0117835Y0087866D01*
X0115866Y0089835D01*
X0115498Y0090723D01*
X0115461Y0090673D01*
X0114927Y0090139D01*
X0114316Y0089695D01*
X0113643Y0089352D01*
X0112924Y0089118D01*
X0112178Y0089000D01*
X0112000Y0089000D01*
X0112000Y0096600D01*
X0111600Y0096600D01*
X0111600Y0089000D01*
X0111422Y0089000D01*
X0110676Y0089118D01*
X0109957Y0089352D01*
X0109284Y0089695D01*
X0108673Y0090139D01*
X0108139Y0090673D01*
X0108102Y0090723D01*
X0107734Y0089835D01*
X0105765Y0087866D01*
X0103192Y0086800D01*
X0100408Y0086800D01*
X0097835Y0087866D01*
X0096201Y0089500D01*
X0085348Y0089500D01*
X0082665Y0090611D01*
X0080611Y0092665D01*
X0079500Y0095348D01*
X0079500Y0105866D01*
X0079100Y0106831D01*
X0079100Y0085348D01*
X0078800Y0084624D01*
X0078800Y0082408D01*
X0077734Y0079835D01*
X0075765Y0077866D01*
X0073192Y0076800D01*
X0070408Y0076800D01*
X0069100Y0077342D01*
X0069100Y0072734D01*
X0069639Y0071434D01*
X0069639Y0062166D01*
X0069030Y0060696D01*
X0067904Y0059570D01*
X0066434Y0058961D01*
X0057166Y0058961D01*
X0055866Y0059500D01*
X0025348Y0059500D01*
X0022665Y0060611D01*
X0020611Y0062665D01*
X0019500Y0065348D01*
X0019500Y0088252D01*
X0019800Y0088976D01*
X0019800Y0091192D01*
X0020866Y0093765D01*
X0022835Y0095734D01*
X0025408Y0096800D01*
X0028192Y0096800D01*
X0029500Y0096258D01*
X0029500Y0113252D01*
X0030611Y0115935D01*
X0032665Y0117989D01*
X0035348Y0119100D01*
X0050866Y0119100D01*
X0052166Y0119639D01*
X0061434Y0119639D01*
X0062904Y0119030D01*
X0064030Y0117904D01*
X0064500Y0116769D01*
X0064500Y0158252D01*
X0064800Y0158976D01*
X0064800Y0161192D01*
X0065866Y0163765D01*
X0067835Y0165734D01*
X0070408Y0166800D01*
X0073192Y0166800D01*
X0074500Y0166258D01*
X0074500Y0183252D01*
X0075611Y0185935D01*
X0077665Y0187989D01*
X0080348Y0189100D01*
X0083252Y0189100D01*
X0085935Y0187989D01*
X0087989Y0185935D01*
X0089100Y0183252D01*
X0089100Y0155348D01*
X0088800Y0154624D01*
X0088800Y0152408D01*
X0087734Y0149835D01*
X0085765Y0147866D01*
X0083192Y0146800D01*
X0080408Y0146800D01*
X0079100Y0147342D01*
X0079100Y0139100D01*
X0159500Y0139100D01*
X0159500Y0163252D01*
X0160611Y0165935D01*
X0162665Y0167989D01*
X0165348Y0169100D01*
X0174584Y0169100D01*
X0174100Y0170268D01*
X0174100Y0173332D01*
X0175122Y0175800D01*
X0159073Y0175800D01*
X0159030Y0175696D01*
X0157904Y0174570D01*
X0156434Y0173961D01*
X0147166Y0173961D01*
X0145696Y0174570D01*
X0144570Y0175696D01*
X0143961Y0177166D01*
X0143961Y0185627D01*
X0142904Y0184570D01*
X0141434Y0183961D01*
X0132166Y0183961D01*
X0130696Y0184570D01*
X0129570Y0185696D01*
X0128961Y0187166D01*
X0128961Y0196434D01*
X0129570Y0197904D01*
X0130696Y0199030D01*
X0132166Y0199639D01*
X0141434Y0199639D01*
X0142904Y0199030D01*
X0144030Y0197904D01*
X0144073Y0197800D01*
X0174911Y0197800D01*
X0174100Y0198611D01*
X0174100Y0204989D01*
X0175911Y0206800D01*
X0174100Y0208611D01*
X0174100Y0214989D01*
X0174911Y0215800D01*
X0128607Y0215800D01*
X0126192Y0214800D01*
X0117408Y0214800D01*
X0114835Y0215866D01*
X0112866Y0217835D01*
X0111800Y0220408D01*
X0111800Y0223192D01*
X0112866Y0225765D01*
X0113901Y0226800D01*
X0112866Y0227835D01*
X0111800Y0230408D01*
X0111800Y0233192D01*
X0112866Y0235765D01*
X0113901Y0236800D01*
X0112866Y0237835D01*
X0111800Y0240408D01*
X0111800Y0243192D01*
X0112866Y0245765D01*
X0113901Y0246800D01*
X0112866Y0247835D01*
X0111800Y0250408D01*
X0111800Y0253192D01*
X0112866Y0255765D01*
X0113901Y0256800D01*
X0112866Y0257835D01*
X0111800Y0260408D01*
X0111800Y0263192D01*
X0112866Y0265765D01*
X0113901Y0266800D01*
X0112866Y0267835D01*
X0111800Y0270408D01*
X0111800Y0273192D01*
X0112866Y0275765D01*
X0113901Y0276800D01*
X0112866Y0277835D01*
X0111800Y0280408D01*
X0111800Y0283192D01*
X0112866Y0285765D01*
X0113901Y0286800D01*
X0112866Y0287835D01*
X0111800Y0290408D01*
X0111800Y0293192D01*
X0112866Y0295765D01*
X0113901Y0296800D01*
X0112866Y0297835D01*
X0111800Y0300408D01*
X0111800Y0303192D01*
X0112866Y0305765D01*
X0113901Y0306800D01*
X0112866Y0307835D01*
X0111800Y0310408D01*
X0111800Y0313192D01*
X0112866Y0315765D01*
X0113901Y0316800D01*
X0112866Y0317835D01*
X0111800Y0320408D01*
X0111800Y0323192D01*
X0112866Y0325765D01*
X0113901Y0326800D01*
X0112866Y0327835D01*
X0111800Y0330408D01*
X0111800Y0333192D01*
X0112866Y0335765D01*
X0114835Y0337734D01*
X0117408Y0338800D01*
X0126192Y0338800D01*
X0128607Y0337800D01*
X0175122Y0337800D01*
X0174100Y0340268D01*
X0174100Y0343332D01*
X0175272Y0346162D01*
X0177438Y0348328D01*
X0180268Y0349500D01*
X0183332Y0349500D01*
X0186162Y0348328D01*
X0186800Y0347689D01*
X0187438Y0348328D01*
X0190268Y0349500D01*
X0193332Y0349500D01*
X0196162Y0348328D01*
X0198328Y0346162D01*
X0199500Y0343332D01*
X0199500Y0340268D01*
X0198328Y0337438D01*
X0197689Y0336800D01*
X0198002Y0336487D01*
X0198401Y0336887D01*
X0200607Y0337800D01*
X0215122Y0337800D01*
X0214100Y0340268D01*
X0214100Y0343332D01*
X0215272Y0346162D01*
X0215800Y0346689D01*
X0215800Y0355800D01*
X0210607Y0355800D01*
X0208401Y0356713D01*
X0206713Y0358401D01*
X0205800Y0360607D01*
X0205800Y0364527D01*
X0205696Y0364570D01*
X0204570Y0365696D01*
X0203961Y0367166D01*
X0203961Y0376434D01*
X0204570Y0377904D01*
X0205696Y0379030D01*
X0205800Y0379073D01*
X0205800Y0389993D01*
X0204800Y0392408D01*
X0204800Y0401192D01*
X0205866Y0403765D01*
X0207835Y0405734D01*
X0210408Y0406800D01*
X0213192Y0406800D01*
X0215765Y0405734D01*
X0216800Y0404699D01*
X0217835Y0405734D01*
X0220408Y0406800D01*
X0223192Y0406800D01*
X0225765Y0405734D01*
X0226800Y0404699D01*
X0227835Y0405734D01*
X0230408Y0406800D01*
X0233192Y0406800D01*
X0235765Y0405734D01*
X0236800Y0404699D01*
X0237835Y0405734D01*
X0240408Y0406800D01*
X0243192Y0406800D01*
X0245765Y0405734D01*
X0246800Y0404699D01*
X0247835Y0405734D01*
X0250408Y0406800D01*
X0253192Y0406800D01*
X0255765Y0405734D01*
X0256800Y0404699D01*
X0257835Y0405734D01*
X0260408Y0406800D01*
X0263192Y0406800D01*
X0265765Y0405734D01*
X0266800Y0404699D01*
X0267835Y0405734D01*
X0270408Y0406800D01*
X0273192Y0406800D01*
X0275765Y0405734D01*
X0276800Y0404699D01*
X0277835Y0405734D01*
X0280408Y0406800D01*
X0283192Y0406800D01*
X0285765Y0405734D01*
X0287734Y0403765D01*
X0288800Y0401192D01*
X0288800Y0392408D01*
X0287800Y0389993D01*
X0287800Y0379073D01*
X0287904Y0379030D01*
X0289030Y0377904D01*
X0289639Y0376434D01*
X0289639Y0367166D01*
X0289030Y0365696D01*
X0287904Y0364570D01*
X0287800Y0364527D01*
X0287800Y0360607D01*
X0286887Y0358401D01*
X0285199Y0356713D01*
X0282993Y0355800D01*
X0267800Y0355800D01*
X0267800Y0350607D01*
X0266887Y0348401D01*
X0266487Y0348002D01*
X0266800Y0347689D01*
X0267438Y0348328D01*
X0270268Y0349500D01*
X0273332Y0349500D01*
X0276162Y0348328D01*
X0276800Y0347689D01*
X0277438Y0348328D01*
X0280268Y0349500D01*
X0283332Y0349500D01*
X0286162Y0348328D01*
X0286800Y0347689D01*
X0287438Y0348328D01*
X0290268Y0349500D01*
X0293332Y0349500D01*
X0296162Y0348328D01*
X0298328Y0346162D01*
X0299500Y0343332D01*
X0299500Y0340268D01*
X0298328Y0337438D01*
X0296162Y0335272D01*
X0293332Y0334100D01*
X0290268Y0334100D01*
X0287438Y0335272D01*
X0286800Y0335911D01*
X0286162Y0335272D01*
X0283332Y0334100D01*
X0280268Y0334100D01*
X0277438Y0335272D01*
X0276800Y0335911D01*
X0276162Y0335272D01*
X0273332Y0334100D01*
X0270268Y0334100D01*
X0267438Y0335272D01*
X0266800Y0335911D01*
X0266162Y0335272D01*
X0263332Y0334100D01*
X0260268Y0334100D01*
X0257800Y0335122D01*
X0257800Y0320607D01*
X0256887Y0318401D01*
X0255199Y0316713D01*
X0252993Y0315800D01*
X0217800Y0315800D01*
X0217800Y0269639D01*
X0226434Y0269639D01*
X0227904Y0269030D01*
X0229030Y0267904D01*
X0229639Y0266434D01*
X0229639Y0257166D01*
X0229487Y0256800D01*
X0229639Y0256434D01*
X0229639Y0247166D01*
X0229487Y0246800D01*
X0229639Y0246434D01*
X0229639Y0237166D01*
X0229487Y0236800D01*
X0229639Y0236434D01*
X0229639Y0227166D01*
X0229487Y0226800D01*
X0229639Y0226434D01*
X0229639Y0217166D01*
X0229487Y0216800D01*
X0229639Y0216434D01*
X0229639Y0207166D01*
X0229487Y0206800D01*
X0229639Y0206434D01*
X0229639Y0199639D01*
X0231434Y0199639D01*
X0232904Y0199030D01*
X0234030Y0197904D01*
X0234500Y0196769D01*
X0234500Y0295866D01*
X0233961Y0297166D01*
X0233961Y0306434D01*
X0234570Y0307904D01*
X0235696Y0309030D01*
X0237166Y0309639D01*
X0246434Y0309639D01*
X0247904Y0309030D01*
X0249030Y0307904D01*
X0249639Y0306434D01*
X0249639Y0297166D01*
X0249100Y0295866D01*
X0249100Y0160348D01*
X0248434Y0158740D01*
X0250268Y0159500D01*
X0253332Y0159500D01*
X0256162Y0158328D01*
X0256800Y0157689D01*
X0257438Y0158328D01*
X0260268Y0159500D01*
X0263332Y0159500D01*
X0266162Y0158328D01*
X0266800Y0157689D01*
X0267438Y0158328D01*
X0270268Y0159500D01*
X0273332Y0159500D01*
X0276162Y0158328D01*
X0278328Y0156162D01*
X0279500Y0153332D01*
X0279500Y0150268D01*
X0278328Y0147438D01*
X0276162Y0145272D01*
X0273332Y0144100D01*
X0270268Y0144100D01*
X0267438Y0145272D01*
X0266800Y0145911D01*
X0266162Y0145272D01*
X0263332Y0144100D01*
X0260268Y0144100D01*
X0257438Y0145272D01*
X0256800Y0145911D01*
X0256162Y0145272D01*
X0253332Y0144100D01*
X0250268Y0144100D01*
X0247438Y0145272D01*
X0246800Y0145911D01*
X0246162Y0145272D01*
X0243332Y0144100D01*
X0240268Y0144100D01*
X0237438Y0145272D01*
X0236800Y0145911D01*
X0236162Y0145272D01*
X0233332Y0144100D01*
X0230268Y0144100D01*
X0227438Y0145272D01*
X0226800Y0145911D01*
X0226162Y0145272D01*
X0223332Y0144100D01*
X0220268Y0144100D01*
X0217438Y0145272D01*
X0216800Y0145911D01*
X0216162Y0145272D01*
X0213332Y0144100D01*
X0210268Y0144100D01*
X0207438Y0145272D01*
X0206800Y0145911D01*
X0206162Y0145272D01*
X0203332Y0144100D01*
X0200268Y0144100D01*
X0197438Y0145272D01*
X0195272Y0147438D01*
X0194100Y0150268D01*
X0194100Y0153332D01*
X0194584Y0154500D01*
X0174100Y0154500D01*
X0174100Y0130348D01*
X0172989Y0127665D01*
X0170935Y0125611D01*
X0168252Y0124500D01*
X0079100Y0124500D01*
X0079100Y0116769D01*
X0079570Y0117904D01*
X0080696Y0119030D01*
X0082166Y0119639D01*
X0091434Y0119639D01*
X0092734Y0119100D01*
X0298252Y0119100D01*
X0300935Y0117989D01*
X0302989Y0115935D01*
X0304100Y0113252D01*
X0304100Y0109100D01*
X0306601Y0109100D01*
X0305866Y0109835D01*
X0304800Y0112408D01*
X0304800Y0121192D01*
X0305800Y0123607D01*
X0305800Y0145122D01*
X0303332Y0144100D01*
X0300268Y0144100D01*
X0297438Y0145272D01*
X0296800Y0145911D01*
X0296162Y0145272D01*
X0293332Y0144100D01*
X0290268Y0144100D01*
X0287438Y0145272D01*
X0285272Y0147438D01*
X0284100Y0150268D01*
X0284100Y0153332D01*
X0285272Y0156162D01*
X0287438Y0158328D01*
X0290268Y0159500D01*
X0293332Y0159500D01*
X0296162Y0158328D01*
X0296800Y0157689D01*
X0297438Y0158328D01*
X0300268Y0159500D01*
X0303332Y0159500D01*
X0306162Y0158328D01*
X0306800Y0157689D01*
X0307438Y0158328D01*
X0310268Y0159500D01*
X0313332Y0159500D01*
X0316162Y0158328D01*
X0316800Y0157689D01*
X0317438Y0158328D01*
X0320268Y0159500D01*
X0323332Y0159500D01*
X0326162Y0158328D01*
X0326800Y0157689D01*
X0327438Y0158328D01*
X0330268Y0159500D01*
X0333332Y0159500D01*
X0336162Y0158328D01*
X0336800Y0157689D01*
X0337438Y0158328D01*
X0340268Y0159500D01*
X0343332Y0159500D01*
X0346162Y0158328D01*
X0346800Y0157689D01*
X0347438Y0158328D01*
X0350268Y0159500D01*
X0353332Y0159500D01*
X0356162Y0158328D01*
X0356800Y0157689D01*
X0357438Y0158328D01*
X0360268Y0159500D01*
X0363332Y0159500D01*
X0366162Y0158328D01*
X0368328Y0156162D01*
X0369500Y0153332D01*
X0369500Y0150268D01*
X0368328Y0147438D01*
X0367800Y0146911D01*
X0367800Y0123607D01*
X0368800Y0121192D01*
X0368800Y0112408D01*
X0367734Y0109835D01*
X0366999Y0109100D01*
X0374500Y0109100D01*
X0374500Y0149303D01*
X0374100Y0150268D01*
X0374100Y0153332D01*
X0375272Y0156162D01*
X0377438Y0158328D01*
X0380268Y0159500D01*
X0383332Y0159500D01*
X0386162Y0158328D01*
X0386800Y0157689D01*
X0387438Y0158328D01*
X0390268Y0159500D01*
X0393332Y0159500D01*
X0396162Y0158328D01*
X0398328Y0156162D01*
X0398355Y0156096D01*
X0398917Y0156504D01*
X0399689Y0156897D01*
X0400512Y0157165D01*
X0401367Y0157300D01*
X0401600Y0157300D01*
X0401600Y0152000D01*
X0402000Y0152000D01*
X0402000Y0157300D01*
X0402233Y0157300D01*
X0403088Y0157165D01*
X0403911Y0156897D01*
X0404683Y0156504D01*
X0405245Y0156096D01*
X0405272Y0156162D01*
X0407438Y0158328D01*
X0410268Y0159500D01*
X0413332Y0159500D01*
X0414500Y0159016D01*
X0414500Y0223252D01*
X0415611Y0225935D01*
X0417665Y0227989D01*
X0420348Y0229100D01*
X0509500Y0229100D01*
X0509500Y0350866D01*
X0508961Y0352166D01*
X0508961Y0361434D01*
X0509570Y0362904D01*
X0510696Y0364030D01*
X0512166Y0364639D01*
X0521434Y0364639D01*
X0522904Y0364030D01*
X0524030Y0362904D01*
X0524639Y0361434D01*
X0524639Y0352166D01*
X0524100Y0350866D01*
X0524100Y0220348D01*
X0522989Y0217665D01*
X0520935Y0215611D01*
X0518252Y0214500D01*
X0429100Y0214500D01*
X0429100Y0192176D01*
X0430607Y0192800D01*
X0557993Y0192800D01*
X0560199Y0191887D01*
X0561887Y0190199D01*
X0562800Y0187993D01*
X0562800Y0135699D01*
X0562835Y0135734D01*
X0565408Y0136800D01*
X0568192Y0136800D01*
X0570765Y0135734D01*
X0572734Y0133765D01*
X0573800Y0131192D01*
X0573800Y0122408D01*
X0572800Y0119993D01*
X0572800Y0045134D01*
X0573400Y0044534D01*
X0573400Y0039066D01*
X0572233Y0037899D01*
X0573261Y0037899D01*
X0576084Y0037143D01*
X0578615Y0035682D01*
X0580682Y0033615D01*
X0581200Y0032717D01*
X0581200Y0400883D01*
X0580682Y0399985D01*
X0578615Y0397918D01*
X0576084Y0396457D01*
X0573261Y0395701D01*
X0570339Y0395701D01*
X0567516Y0396457D01*
X0564985Y0397918D01*
X0562918Y0399985D01*
X0561457Y0402516D01*
X0560701Y0405339D01*
X0560701Y0408261D01*
X0561457Y0411084D01*
X0562918Y0413615D01*
X0564985Y0415682D01*
X0565883Y0416200D01*
X0032717Y0416200D01*
X0033615Y0415682D01*
X0035682Y0413615D01*
X0037143Y0411084D01*
X0037899Y0408261D01*
X0037899Y0405339D01*
X0037143Y0402516D01*
X0035682Y0399985D01*
X0033615Y0397918D01*
X0031084Y0396457D01*
X0028261Y0395701D01*
X0025339Y0395701D01*
X0022516Y0396457D01*
X0019985Y0397918D01*
X0017918Y0399985D01*
X0017400Y0400883D01*
X0017400Y0032717D01*
X0017918Y0033615D01*
X0019985Y0035682D01*
X0022516Y0037143D01*
X0025339Y0037899D01*
X0028261Y0037899D01*
X0031084Y0037143D01*
X0033615Y0035682D01*
X0035682Y0033615D01*
X0037143Y0031084D01*
X0037899Y0028261D01*
X0037899Y0025339D01*
X0037143Y0022516D01*
X0035682Y0019985D01*
X0033615Y0017918D01*
X0033891Y0018194D02*
X0564709Y0018194D01*
X0563111Y0019793D02*
X0035489Y0019793D01*
X0036493Y0021391D02*
X0562107Y0021391D01*
X0561330Y0022990D02*
X0037270Y0022990D01*
X0037698Y0024588D02*
X0425678Y0024588D01*
X0424367Y0026187D02*
X0037899Y0026187D01*
X0037899Y0027785D02*
X0423961Y0027785D01*
X0423961Y0029384D02*
X0037598Y0029384D01*
X0037170Y0030982D02*
X0423961Y0030982D01*
X0423961Y0032581D02*
X0036279Y0032581D01*
X0035117Y0034179D02*
X0131640Y0034179D01*
X0129536Y0035778D02*
X0033449Y0035778D01*
X0030213Y0037376D02*
X0059017Y0037376D01*
X0057835Y0037866D02*
X0060408Y0036800D01*
X0063192Y0036800D01*
X0065765Y0037866D01*
X0067734Y0039835D01*
X0068102Y0040723D01*
X0068139Y0040673D01*
X0068673Y0040139D01*
X0069284Y0039695D01*
X0069957Y0039352D01*
X0070676Y0039118D01*
X0071422Y0039000D01*
X0071600Y0039000D01*
X0071600Y0046600D01*
X0072000Y0046600D01*
X0072000Y0047000D01*
X0071600Y0047000D01*
X0071600Y0054600D01*
X0071422Y0054600D01*
X0070676Y0054482D01*
X0069957Y0054248D01*
X0069284Y0053905D01*
X0068673Y0053461D01*
X0068139Y0052927D01*
X0068102Y0052877D01*
X0067734Y0053765D01*
X0065765Y0055734D01*
X0063192Y0056800D01*
X0060408Y0056800D01*
X0057835Y0055734D01*
X0055866Y0053765D01*
X0054800Y0051192D01*
X0054800Y0042408D01*
X0055866Y0039835D01*
X0057835Y0037866D01*
X0056726Y0038975D02*
X0017400Y0038975D01*
X0017400Y0040573D02*
X0055560Y0040573D01*
X0054898Y0042172D02*
X0017400Y0042172D01*
X0017400Y0043770D02*
X0054800Y0043770D01*
X0054800Y0045369D02*
X0017400Y0045369D01*
X0017400Y0046967D02*
X0054800Y0046967D01*
X0054800Y0048566D02*
X0017400Y0048566D01*
X0017400Y0050164D02*
X0054800Y0050164D01*
X0055036Y0051763D02*
X0017400Y0051763D01*
X0017400Y0053361D02*
X0055698Y0053361D01*
X0057060Y0054960D02*
X0017400Y0054960D01*
X0017400Y0056558D02*
X0059824Y0056558D01*
X0063776Y0056558D02*
X0184013Y0056558D01*
X0183961Y0054960D02*
X0066540Y0054960D01*
X0067902Y0053361D02*
X0068573Y0053361D01*
X0071600Y0053361D02*
X0072000Y0053361D01*
X0072000Y0054600D02*
X0072000Y0047000D01*
X0076600Y0047000D01*
X0076600Y0050178D01*
X0076482Y0050924D01*
X0076248Y0051643D01*
X0075905Y0052316D01*
X0075461Y0052927D01*
X0074927Y0053461D01*
X0074316Y0053905D01*
X0073643Y0054248D01*
X0072924Y0054482D01*
X0072178Y0054600D01*
X0072000Y0054600D01*
X0072000Y0051763D02*
X0071600Y0051763D01*
X0071600Y0050164D02*
X0072000Y0050164D01*
X0072000Y0048566D02*
X0071600Y0048566D01*
X0072000Y0046967D02*
X0129182Y0046967D01*
X0128961Y0045369D02*
X0076600Y0045369D01*
X0076600Y0046600D02*
X0072000Y0046600D01*
X0072000Y0039000D01*
X0072178Y0039000D01*
X0072924Y0039118D01*
X0073643Y0039352D01*
X0074316Y0039695D01*
X0074927Y0040139D01*
X0075461Y0040673D01*
X0075905Y0041284D01*
X0076248Y0041957D01*
X0076482Y0042676D01*
X0076600Y0043422D01*
X0076600Y0046600D01*
X0076600Y0048566D02*
X0130232Y0048566D01*
X0128961Y0043770D02*
X0076600Y0043770D01*
X0076318Y0042172D02*
X0128961Y0042172D01*
X0128961Y0040573D02*
X0075361Y0040573D01*
X0072000Y0040573D02*
X0071600Y0040573D01*
X0071600Y0042172D02*
X0072000Y0042172D01*
X0072000Y0043770D02*
X0071600Y0043770D01*
X0071600Y0045369D02*
X0072000Y0045369D01*
X0068239Y0040573D02*
X0068040Y0040573D01*
X0066874Y0038975D02*
X0128961Y0038975D01*
X0128961Y0037376D02*
X0064583Y0037376D01*
X0076600Y0050164D02*
X0183961Y0050164D01*
X0183961Y0048566D02*
X0143368Y0048566D01*
X0144064Y0035778D02*
X0423961Y0035778D01*
X0423961Y0034179D02*
X0141960Y0034179D01*
X0183961Y0051763D02*
X0076187Y0051763D01*
X0075027Y0053361D02*
X0183961Y0053361D01*
X0184823Y0058157D02*
X0017400Y0058157D01*
X0017400Y0059755D02*
X0024731Y0059755D01*
X0021922Y0061354D02*
X0017400Y0061354D01*
X0017400Y0062952D02*
X0020492Y0062952D01*
X0019830Y0064551D02*
X0017400Y0064551D01*
X0017400Y0066149D02*
X0019500Y0066149D01*
X0019500Y0067748D02*
X0017400Y0067748D01*
X0017400Y0069346D02*
X0019500Y0069346D01*
X0019500Y0070945D02*
X0017400Y0070945D01*
X0017400Y0072543D02*
X0019500Y0072543D01*
X0019500Y0074142D02*
X0017400Y0074142D01*
X0017400Y0075740D02*
X0019500Y0075740D01*
X0019500Y0077339D02*
X0017400Y0077339D01*
X0017400Y0078937D02*
X0019500Y0078937D01*
X0019500Y0080536D02*
X0017400Y0080536D01*
X0017400Y0082134D02*
X0019500Y0082134D01*
X0019500Y0083733D02*
X0017400Y0083733D01*
X0017400Y0085332D02*
X0019500Y0085332D01*
X0019500Y0086930D02*
X0017400Y0086930D01*
X0017400Y0088529D02*
X0019615Y0088529D01*
X0019800Y0090127D02*
X0017400Y0090127D01*
X0017400Y0091726D02*
X0020021Y0091726D01*
X0020683Y0093324D02*
X0017400Y0093324D01*
X0017400Y0094923D02*
X0022023Y0094923D01*
X0024734Y0096521D02*
X0017400Y0096521D01*
X0017400Y0098120D02*
X0029500Y0098120D01*
X0029500Y0099718D02*
X0017400Y0099718D01*
X0017400Y0101317D02*
X0029500Y0101317D01*
X0029500Y0102915D02*
X0017400Y0102915D01*
X0017400Y0104514D02*
X0029500Y0104514D01*
X0029500Y0106112D02*
X0017400Y0106112D01*
X0017400Y0107711D02*
X0029500Y0107711D01*
X0029500Y0109309D02*
X0017400Y0109309D01*
X0017400Y0110908D02*
X0029500Y0110908D01*
X0029500Y0112506D02*
X0017400Y0112506D01*
X0017400Y0114105D02*
X0029853Y0114105D01*
X0030515Y0115703D02*
X0017400Y0115703D01*
X0017400Y0117302D02*
X0031978Y0117302D01*
X0034866Y0118900D02*
X0017400Y0118900D01*
X0017400Y0120499D02*
X0064500Y0120499D01*
X0064500Y0122097D02*
X0017400Y0122097D01*
X0017400Y0123696D02*
X0064500Y0123696D01*
X0064500Y0125294D02*
X0017400Y0125294D01*
X0017400Y0126893D02*
X0064500Y0126893D01*
X0064500Y0128491D02*
X0017400Y0128491D01*
X0017400Y0130090D02*
X0064500Y0130090D01*
X0064500Y0131688D02*
X0017400Y0131688D01*
X0017400Y0133287D02*
X0064500Y0133287D01*
X0064500Y0134885D02*
X0017400Y0134885D01*
X0017400Y0136484D02*
X0064500Y0136484D01*
X0064500Y0138082D02*
X0017400Y0138082D01*
X0017400Y0139681D02*
X0064500Y0139681D01*
X0064500Y0141279D02*
X0017400Y0141279D01*
X0017400Y0142878D02*
X0064500Y0142878D01*
X0064500Y0144476D02*
X0017400Y0144476D01*
X0017400Y0146075D02*
X0064500Y0146075D01*
X0064500Y0147673D02*
X0017400Y0147673D01*
X0017400Y0149272D02*
X0064500Y0149272D01*
X0064500Y0150870D02*
X0017400Y0150870D01*
X0017400Y0152469D02*
X0064500Y0152469D01*
X0064500Y0154068D02*
X0017400Y0154068D01*
X0017400Y0155666D02*
X0064500Y0155666D01*
X0064500Y0157265D02*
X0017400Y0157265D01*
X0017400Y0158863D02*
X0064753Y0158863D01*
X0064800Y0160462D02*
X0017400Y0160462D01*
X0017400Y0162060D02*
X0065159Y0162060D01*
X0065822Y0163659D02*
X0017400Y0163659D01*
X0017400Y0165257D02*
X0067358Y0165257D01*
X0074500Y0166856D02*
X0017400Y0166856D01*
X0017400Y0168454D02*
X0074500Y0168454D01*
X0074500Y0170053D02*
X0017400Y0170053D01*
X0017400Y0171651D02*
X0074500Y0171651D01*
X0074500Y0173250D02*
X0017400Y0173250D01*
X0017400Y0174848D02*
X0074500Y0174848D01*
X0074500Y0176447D02*
X0017400Y0176447D01*
X0017400Y0178045D02*
X0074500Y0178045D01*
X0074500Y0179644D02*
X0017400Y0179644D01*
X0017400Y0181242D02*
X0074500Y0181242D01*
X0074500Y0182841D02*
X0017400Y0182841D01*
X0017400Y0184439D02*
X0074992Y0184439D01*
X0075714Y0186038D02*
X0017400Y0186038D01*
X0017400Y0187636D02*
X0077312Y0187636D01*
X0086287Y0187636D02*
X0128961Y0187636D01*
X0128961Y0189235D02*
X0017400Y0189235D01*
X0017400Y0190833D02*
X0128961Y0190833D01*
X0128961Y0192432D02*
X0017400Y0192432D01*
X0017400Y0194030D02*
X0128961Y0194030D01*
X0128961Y0195629D02*
X0017400Y0195629D01*
X0017400Y0197227D02*
X0129290Y0197227D01*
X0130492Y0198826D02*
X0017400Y0198826D01*
X0017400Y0200424D02*
X0174100Y0200424D01*
X0174100Y0198826D02*
X0143108Y0198826D01*
X0142588Y0184439D02*
X0143961Y0184439D01*
X0143961Y0182841D02*
X0089100Y0182841D01*
X0089100Y0181242D02*
X0143961Y0181242D01*
X0143961Y0179644D02*
X0089100Y0179644D01*
X0089100Y0178045D02*
X0143961Y0178045D01*
X0144259Y0176447D02*
X0089100Y0176447D01*
X0089100Y0174848D02*
X0145418Y0174848D01*
X0158182Y0174848D02*
X0174728Y0174848D01*
X0174100Y0173250D02*
X0089100Y0173250D01*
X0089100Y0171651D02*
X0174100Y0171651D01*
X0174189Y0170053D02*
X0089100Y0170053D01*
X0089100Y0168454D02*
X0163789Y0168454D01*
X0161532Y0166856D02*
X0089100Y0166856D01*
X0089100Y0165257D02*
X0160331Y0165257D01*
X0159668Y0163659D02*
X0089100Y0163659D01*
X0089100Y0162060D02*
X0159500Y0162060D01*
X0159500Y0160462D02*
X0089100Y0160462D01*
X0089100Y0158863D02*
X0159500Y0158863D01*
X0159500Y0157265D02*
X0089100Y0157265D01*
X0089100Y0155666D02*
X0159500Y0155666D01*
X0159500Y0154068D02*
X0088800Y0154068D01*
X0088800Y0152469D02*
X0159500Y0152469D01*
X0159500Y0150870D02*
X0088163Y0150870D01*
X0087171Y0149272D02*
X0159500Y0149272D01*
X0159500Y0147673D02*
X0085301Y0147673D01*
X0079100Y0146075D02*
X0159500Y0146075D01*
X0159500Y0144476D02*
X0079100Y0144476D01*
X0079100Y0142878D02*
X0159500Y0142878D01*
X0159500Y0141279D02*
X0079100Y0141279D01*
X0079100Y0139681D02*
X0159500Y0139681D01*
X0174100Y0139681D02*
X0305800Y0139681D01*
X0305800Y0141279D02*
X0174100Y0141279D01*
X0174100Y0142878D02*
X0305800Y0142878D01*
X0305800Y0144476D02*
X0304240Y0144476D01*
X0299360Y0144476D02*
X0294240Y0144476D01*
X0289360Y0144476D02*
X0274240Y0144476D01*
X0276964Y0146075D02*
X0286636Y0146075D01*
X0285175Y0147673D02*
X0278425Y0147673D01*
X0279087Y0149272D02*
X0284513Y0149272D01*
X0284100Y0150870D02*
X0279500Y0150870D01*
X0279500Y0152469D02*
X0284100Y0152469D01*
X0284405Y0154068D02*
X0279195Y0154068D01*
X0278533Y0155666D02*
X0285067Y0155666D01*
X0286375Y0157265D02*
X0277225Y0157265D01*
X0274869Y0158863D02*
X0288731Y0158863D01*
X0294869Y0158863D02*
X0298731Y0158863D01*
X0304869Y0158863D02*
X0308731Y0158863D01*
X0314869Y0158863D02*
X0318731Y0158863D01*
X0324869Y0158863D02*
X0328731Y0158863D01*
X0334869Y0158863D02*
X0338731Y0158863D01*
X0344869Y0158863D02*
X0348731Y0158863D01*
X0354869Y0158863D02*
X0358731Y0158863D01*
X0364869Y0158863D02*
X0378731Y0158863D01*
X0376375Y0157265D02*
X0367225Y0157265D01*
X0368533Y0155666D02*
X0375067Y0155666D01*
X0374405Y0154068D02*
X0369195Y0154068D01*
X0369500Y0152469D02*
X0374100Y0152469D01*
X0374100Y0150870D02*
X0369500Y0150870D01*
X0369087Y0149272D02*
X0374500Y0149272D01*
X0374500Y0147673D02*
X0368425Y0147673D01*
X0367800Y0146075D02*
X0374500Y0146075D01*
X0374500Y0144476D02*
X0367800Y0144476D01*
X0367800Y0142878D02*
X0374500Y0142878D01*
X0374500Y0141279D02*
X0367800Y0141279D01*
X0367800Y0139681D02*
X0374500Y0139681D01*
X0374500Y0138082D02*
X0367800Y0138082D01*
X0367800Y0136484D02*
X0374500Y0136484D01*
X0374500Y0134885D02*
X0367800Y0134885D01*
X0367800Y0133287D02*
X0374500Y0133287D01*
X0374500Y0131688D02*
X0367800Y0131688D01*
X0367800Y0130090D02*
X0374500Y0130090D01*
X0374500Y0128491D02*
X0367800Y0128491D01*
X0367800Y0126893D02*
X0374500Y0126893D01*
X0374500Y0125294D02*
X0367800Y0125294D01*
X0367800Y0123696D02*
X0374500Y0123696D01*
X0374500Y0122097D02*
X0368425Y0122097D01*
X0368800Y0120499D02*
X0374500Y0120499D01*
X0374500Y0118900D02*
X0368800Y0118900D01*
X0368800Y0117302D02*
X0374500Y0117302D01*
X0374500Y0115703D02*
X0368800Y0115703D01*
X0368800Y0114105D02*
X0374500Y0114105D01*
X0374500Y0112506D02*
X0368800Y0112506D01*
X0368179Y0110908D02*
X0374500Y0110908D01*
X0374500Y0109309D02*
X0367209Y0109309D01*
X0383252Y0094500D02*
X0385935Y0095611D01*
X0387989Y0097665D01*
X0389100Y0100348D01*
X0389100Y0144584D01*
X0390268Y0144100D01*
X0393332Y0144100D01*
X0396162Y0145272D01*
X0398328Y0147438D01*
X0398355Y0147504D01*
X0398917Y0147096D01*
X0399689Y0146703D01*
X0400512Y0146435D01*
X0401367Y0146300D01*
X0401600Y0146300D01*
X0401600Y0151600D01*
X0402000Y0151600D01*
X0402000Y0146300D01*
X0402233Y0146300D01*
X0403088Y0146435D01*
X0403911Y0146703D01*
X0404683Y0147096D01*
X0405245Y0147504D01*
X0405272Y0147438D01*
X0407438Y0145272D01*
X0410268Y0144100D01*
X0413332Y0144100D01*
X0414500Y0144584D01*
X0414500Y0140348D01*
X0415611Y0137665D01*
X0417665Y0135611D01*
X0420348Y0134500D01*
X0468252Y0134500D01*
X0470935Y0135611D01*
X0472989Y0137665D01*
X0474100Y0140348D01*
X0474100Y0159500D01*
X0511831Y0159500D01*
X0510696Y0159030D01*
X0509570Y0157904D01*
X0508961Y0156434D01*
X0508961Y0147166D01*
X0509500Y0145866D01*
X0509500Y0134100D01*
X0395348Y0134100D01*
X0392665Y0132989D01*
X0390611Y0130935D01*
X0389500Y0128252D01*
X0389500Y0094100D01*
X0289100Y0094100D01*
X0289100Y0098252D01*
X0287989Y0100935D01*
X0285935Y0102989D01*
X0283252Y0104100D01*
X0127399Y0104100D01*
X0126999Y0104500D01*
X0289500Y0104500D01*
X0289500Y0100348D01*
X0290611Y0097665D01*
X0292665Y0095611D01*
X0295348Y0094500D01*
X0383252Y0094500D01*
X0384272Y0094923D02*
X0389500Y0094923D01*
X0389500Y0096521D02*
X0386845Y0096521D01*
X0388177Y0098120D02*
X0389500Y0098120D01*
X0389500Y0099718D02*
X0388839Y0099718D01*
X0389100Y0101317D02*
X0389500Y0101317D01*
X0389500Y0102915D02*
X0389100Y0102915D01*
X0389100Y0104514D02*
X0389500Y0104514D01*
X0389500Y0106112D02*
X0389100Y0106112D01*
X0389100Y0107711D02*
X0389500Y0107711D01*
X0389500Y0109309D02*
X0389100Y0109309D01*
X0389100Y0110908D02*
X0389500Y0110908D01*
X0389500Y0112506D02*
X0389100Y0112506D01*
X0389100Y0114105D02*
X0389500Y0114105D01*
X0389500Y0115703D02*
X0389100Y0115703D01*
X0389100Y0117302D02*
X0389500Y0117302D01*
X0389500Y0118900D02*
X0389100Y0118900D01*
X0389100Y0120499D02*
X0389500Y0120499D01*
X0389500Y0122097D02*
X0389100Y0122097D01*
X0389100Y0123696D02*
X0389500Y0123696D01*
X0389500Y0125294D02*
X0389100Y0125294D01*
X0389100Y0126893D02*
X0389500Y0126893D01*
X0389599Y0128491D02*
X0389100Y0128491D01*
X0389100Y0130090D02*
X0390261Y0130090D01*
X0391365Y0131688D02*
X0389100Y0131688D01*
X0389100Y0133287D02*
X0393385Y0133287D01*
X0389100Y0134885D02*
X0419418Y0134885D01*
X0416792Y0136484D02*
X0389100Y0136484D01*
X0389100Y0138082D02*
X0415438Y0138082D01*
X0414776Y0139681D02*
X0389100Y0139681D01*
X0389100Y0141279D02*
X0414500Y0141279D01*
X0414500Y0142878D02*
X0389100Y0142878D01*
X0389100Y0144476D02*
X0389360Y0144476D01*
X0394240Y0144476D02*
X0409360Y0144476D01*
X0406636Y0146075D02*
X0396964Y0146075D01*
X0401600Y0147673D02*
X0402000Y0147673D01*
X0402000Y0149272D02*
X0401600Y0149272D01*
X0401600Y0150870D02*
X0402000Y0150870D01*
X0402000Y0152469D02*
X0401600Y0152469D01*
X0401600Y0154068D02*
X0402000Y0154068D01*
X0402000Y0155666D02*
X0401600Y0155666D01*
X0401600Y0157265D02*
X0402000Y0157265D01*
X0402457Y0157265D02*
X0406375Y0157265D01*
X0408731Y0158863D02*
X0394869Y0158863D01*
X0397225Y0157265D02*
X0401143Y0157265D01*
X0414500Y0160462D02*
X0249100Y0160462D01*
X0249100Y0162060D02*
X0414500Y0162060D01*
X0414500Y0163659D02*
X0249100Y0163659D01*
X0249100Y0165257D02*
X0414500Y0165257D01*
X0414500Y0166856D02*
X0249100Y0166856D01*
X0249100Y0168454D02*
X0414500Y0168454D01*
X0414500Y0170053D02*
X0249100Y0170053D01*
X0249100Y0171651D02*
X0414500Y0171651D01*
X0414500Y0173250D02*
X0249100Y0173250D01*
X0249100Y0174848D02*
X0414500Y0174848D01*
X0414500Y0176447D02*
X0249100Y0176447D01*
X0249100Y0178045D02*
X0260802Y0178045D01*
X0260673Y0178139D02*
X0261284Y0177695D01*
X0261957Y0177352D01*
X0262676Y0177118D01*
X0263422Y0177000D01*
X0266600Y0177000D01*
X0266600Y0181600D01*
X0267000Y0181600D01*
X0267000Y0182000D01*
X0274600Y0182000D01*
X0274600Y0182178D01*
X0274482Y0182924D01*
X0274248Y0183643D01*
X0273905Y0184316D01*
X0273461Y0184927D01*
X0272927Y0185461D01*
X0272877Y0185498D01*
X0273765Y0185866D01*
X0275734Y0187835D01*
X0276800Y0190408D01*
X0276800Y0193192D01*
X0275734Y0195765D01*
X0274699Y0196800D01*
X0275734Y0197835D01*
X0276800Y0200408D01*
X0276800Y0203192D01*
X0275734Y0205765D01*
X0274699Y0206800D01*
X0275734Y0207835D01*
X0276800Y0210408D01*
X0276800Y0213192D01*
X0275734Y0215765D01*
X0274699Y0216800D01*
X0275734Y0217835D01*
X0276800Y0220408D01*
X0276800Y0223192D01*
X0275734Y0225765D01*
X0274699Y0226800D01*
X0275734Y0227835D01*
X0276800Y0230408D01*
X0276800Y0233192D01*
X0275734Y0235765D01*
X0274699Y0236800D01*
X0275734Y0237835D01*
X0276800Y0240408D01*
X0276800Y0243192D01*
X0275734Y0245765D01*
X0274699Y0246800D01*
X0275734Y0247835D01*
X0276800Y0250408D01*
X0276800Y0253192D01*
X0275734Y0255765D01*
X0274699Y0256800D01*
X0275734Y0257835D01*
X0276800Y0260408D01*
X0276800Y0263192D01*
X0275734Y0265765D01*
X0274699Y0266800D01*
X0275734Y0267835D01*
X0276800Y0270408D01*
X0276800Y0273192D01*
X0275734Y0275765D01*
X0274699Y0276800D01*
X0275734Y0277835D01*
X0276800Y0280408D01*
X0276800Y0283192D01*
X0275734Y0285765D01*
X0274699Y0286800D01*
X0275734Y0287835D01*
X0276800Y0290408D01*
X0276800Y0293192D01*
X0275734Y0295765D01*
X0274699Y0296800D01*
X0275734Y0297835D01*
X0276800Y0300408D01*
X0276800Y0303192D01*
X0275734Y0305765D01*
X0273765Y0307734D01*
X0272877Y0308102D01*
X0272927Y0308139D01*
X0273461Y0308673D01*
X0273905Y0309284D01*
X0274248Y0309957D01*
X0274482Y0310676D01*
X0274600Y0311422D01*
X0274600Y0311600D01*
X0267000Y0311600D01*
X0267000Y0312000D01*
X0266600Y0312000D01*
X0266600Y0316600D01*
X0263422Y0316600D01*
X0262676Y0316482D01*
X0261957Y0316248D01*
X0261284Y0315905D01*
X0260673Y0315461D01*
X0260139Y0314927D01*
X0259695Y0314316D01*
X0259352Y0313643D01*
X0259118Y0312924D01*
X0259000Y0312178D01*
X0259000Y0312000D01*
X0266600Y0312000D01*
X0266600Y0311600D01*
X0259000Y0311600D01*
X0259000Y0311422D01*
X0259118Y0310676D01*
X0259352Y0309957D01*
X0259695Y0309284D01*
X0260139Y0308673D01*
X0260673Y0308139D01*
X0260723Y0308102D01*
X0259835Y0307734D01*
X0257866Y0305765D01*
X0256800Y0303192D01*
X0256800Y0300408D01*
X0257866Y0297835D01*
X0258901Y0296800D01*
X0257866Y0295765D01*
X0256800Y0293192D01*
X0256800Y0290408D01*
X0257866Y0287835D01*
X0258901Y0286800D01*
X0257866Y0285765D01*
X0256800Y0283192D01*
X0256800Y0280408D01*
X0257866Y0277835D01*
X0258901Y0276800D01*
X0257866Y0275765D01*
X0256800Y0273192D01*
X0256800Y0270408D01*
X0257866Y0267835D01*
X0258901Y0266800D01*
X0257866Y0265765D01*
X0256800Y0263192D01*
X0256800Y0260408D01*
X0257866Y0257835D01*
X0258901Y0256800D01*
X0257866Y0255765D01*
X0256800Y0253192D01*
X0256800Y0250408D01*
X0257866Y0247835D01*
X0258901Y0246800D01*
X0257866Y0245765D01*
X0256800Y0243192D01*
X0256800Y0240408D01*
X0257866Y0237835D01*
X0258901Y0236800D01*
X0257866Y0235765D01*
X0256800Y0233192D01*
X0256800Y0230408D01*
X0257866Y0227835D01*
X0258901Y0226800D01*
X0257866Y0225765D01*
X0256800Y0223192D01*
X0256800Y0220408D01*
X0257866Y0217835D01*
X0258901Y0216800D01*
X0257866Y0215765D01*
X0256800Y0213192D01*
X0256800Y0210408D01*
X0257866Y0207835D01*
X0258901Y0206800D01*
X0257866Y0205765D01*
X0256800Y0203192D01*
X0256800Y0200408D01*
X0257866Y0197835D01*
X0258901Y0196800D01*
X0257866Y0195765D01*
X0256800Y0193192D01*
X0256800Y0190408D01*
X0257866Y0187835D01*
X0259835Y0185866D01*
X0260723Y0185498D01*
X0260673Y0185461D01*
X0260139Y0184927D01*
X0259695Y0184316D01*
X0259352Y0183643D01*
X0259118Y0182924D01*
X0259000Y0182178D01*
X0259000Y0182000D01*
X0266600Y0182000D01*
X0266600Y0181600D01*
X0259000Y0181600D01*
X0259000Y0181422D01*
X0259118Y0180676D01*
X0259352Y0179957D01*
X0259695Y0179284D01*
X0260139Y0178673D01*
X0260673Y0178139D01*
X0259512Y0179644D02*
X0249100Y0179644D01*
X0249100Y0181242D02*
X0259029Y0181242D01*
X0259105Y0182841D02*
X0249100Y0182841D01*
X0249100Y0184439D02*
X0259784Y0184439D01*
X0259663Y0186038D02*
X0249100Y0186038D01*
X0249100Y0187636D02*
X0258064Y0187636D01*
X0257286Y0189235D02*
X0249100Y0189235D01*
X0249100Y0190833D02*
X0256800Y0190833D01*
X0256800Y0192432D02*
X0249100Y0192432D01*
X0249100Y0194030D02*
X0257147Y0194030D01*
X0257809Y0195629D02*
X0249100Y0195629D01*
X0249100Y0197227D02*
X0258473Y0197227D01*
X0257455Y0198826D02*
X0249100Y0198826D01*
X0249100Y0200424D02*
X0256800Y0200424D01*
X0256800Y0202023D02*
X0249100Y0202023D01*
X0249100Y0203621D02*
X0256978Y0203621D01*
X0257640Y0205220D02*
X0249100Y0205220D01*
X0249100Y0206818D02*
X0258882Y0206818D01*
X0257625Y0208417D02*
X0249100Y0208417D01*
X0249100Y0210015D02*
X0256962Y0210015D01*
X0256800Y0211614D02*
X0249100Y0211614D01*
X0249100Y0213212D02*
X0256808Y0213212D01*
X0257470Y0214811D02*
X0249100Y0214811D01*
X0249100Y0216409D02*
X0258510Y0216409D01*
X0257794Y0218008D02*
X0249100Y0218008D01*
X0249100Y0219606D02*
X0257132Y0219606D01*
X0256800Y0221205D02*
X0249100Y0221205D01*
X0249100Y0222803D02*
X0256800Y0222803D01*
X0257301Y0224402D02*
X0249100Y0224402D01*
X0249100Y0226001D02*
X0258101Y0226001D01*
X0258101Y0227599D02*
X0249100Y0227599D01*
X0249100Y0229198D02*
X0257301Y0229198D01*
X0256800Y0230796D02*
X0249100Y0230796D01*
X0249100Y0232395D02*
X0256800Y0232395D01*
X0257132Y0233993D02*
X0249100Y0233993D01*
X0249100Y0235592D02*
X0257794Y0235592D01*
X0258510Y0237190D02*
X0249100Y0237190D01*
X0249100Y0238789D02*
X0257471Y0238789D01*
X0256808Y0240387D02*
X0249100Y0240387D01*
X0249100Y0241986D02*
X0256800Y0241986D01*
X0256962Y0243584D02*
X0249100Y0243584D01*
X0249100Y0245183D02*
X0257624Y0245183D01*
X0258882Y0246781D02*
X0249100Y0246781D01*
X0249100Y0248380D02*
X0257640Y0248380D01*
X0256978Y0249978D02*
X0249100Y0249978D01*
X0249100Y0251577D02*
X0256800Y0251577D01*
X0256800Y0253175D02*
X0249100Y0253175D01*
X0249100Y0254774D02*
X0257455Y0254774D01*
X0258473Y0256372D02*
X0249100Y0256372D01*
X0249100Y0257971D02*
X0257809Y0257971D01*
X0257147Y0259569D02*
X0249100Y0259569D01*
X0249100Y0261168D02*
X0256800Y0261168D01*
X0256800Y0262766D02*
X0249100Y0262766D01*
X0249100Y0264365D02*
X0257286Y0264365D01*
X0258064Y0265963D02*
X0249100Y0265963D01*
X0249100Y0267562D02*
X0258139Y0267562D01*
X0257317Y0269160D02*
X0249100Y0269160D01*
X0249100Y0270759D02*
X0256800Y0270759D01*
X0256800Y0272357D02*
X0249100Y0272357D01*
X0249100Y0273956D02*
X0257116Y0273956D01*
X0257778Y0275554D02*
X0249100Y0275554D01*
X0249100Y0277153D02*
X0258548Y0277153D01*
X0257486Y0278751D02*
X0249100Y0278751D01*
X0249100Y0280350D02*
X0256824Y0280350D01*
X0256800Y0281948D02*
X0249100Y0281948D01*
X0249100Y0283547D02*
X0256947Y0283547D01*
X0257609Y0285145D02*
X0249100Y0285145D01*
X0249100Y0286744D02*
X0258844Y0286744D01*
X0257655Y0288342D02*
X0249100Y0288342D01*
X0249100Y0289941D02*
X0256993Y0289941D01*
X0256800Y0291539D02*
X0249100Y0291539D01*
X0249100Y0293138D02*
X0256800Y0293138D01*
X0257440Y0294737D02*
X0249100Y0294737D01*
X0249294Y0296335D02*
X0258436Y0296335D01*
X0257825Y0297934D02*
X0249639Y0297934D01*
X0249639Y0299532D02*
X0257163Y0299532D01*
X0256800Y0301131D02*
X0249639Y0301131D01*
X0249639Y0302729D02*
X0256800Y0302729D01*
X0257270Y0304328D02*
X0249639Y0304328D01*
X0249639Y0305926D02*
X0258027Y0305926D01*
X0259625Y0307525D02*
X0249187Y0307525D01*
X0247679Y0309123D02*
X0259812Y0309123D01*
X0259111Y0310722D02*
X0217800Y0310722D01*
X0217800Y0312320D02*
X0259023Y0312320D01*
X0259492Y0313919D02*
X0217800Y0313919D01*
X0217800Y0315517D02*
X0260750Y0315517D01*
X0257016Y0318714D02*
X0401800Y0318714D01*
X0401800Y0317116D02*
X0255601Y0317116D01*
X0257678Y0320313D02*
X0401800Y0320313D01*
X0401800Y0321911D02*
X0257800Y0321911D01*
X0257800Y0323510D02*
X0401800Y0323510D01*
X0401800Y0325108D02*
X0257800Y0325108D01*
X0257800Y0326707D02*
X0401800Y0326707D01*
X0401800Y0328305D02*
X0257800Y0328305D01*
X0257800Y0329904D02*
X0401800Y0329904D01*
X0401800Y0331502D02*
X0257800Y0331502D01*
X0257800Y0333101D02*
X0401800Y0333101D01*
X0401800Y0334699D02*
X0400778Y0334699D01*
X0401800Y0335122D02*
X0399332Y0334100D01*
X0396268Y0334100D01*
X0393438Y0335272D01*
X0391272Y0337438D01*
X0390100Y0340268D01*
X0390100Y0343332D01*
X0391122Y0345800D01*
X0390607Y0345800D01*
X0388401Y0346713D01*
X0387800Y0347315D01*
X0387800Y0346689D01*
X0388328Y0346162D01*
X0389500Y0343332D01*
X0389500Y0340268D01*
X0388328Y0337438D01*
X0386162Y0335272D01*
X0383332Y0334100D01*
X0380268Y0334100D01*
X0377438Y0335272D01*
X0376800Y0335911D01*
X0376162Y0335272D01*
X0373332Y0334100D01*
X0370268Y0334100D01*
X0367438Y0335272D01*
X0366800Y0335911D01*
X0366162Y0335272D01*
X0363332Y0334100D01*
X0360268Y0334100D01*
X0357438Y0335272D01*
X0356800Y0335911D01*
X0356162Y0335272D01*
X0353332Y0334100D01*
X0350268Y0334100D01*
X0347438Y0335272D01*
X0346800Y0335911D01*
X0346162Y0335272D01*
X0343332Y0334100D01*
X0340268Y0334100D01*
X0337438Y0335272D01*
X0336800Y0335911D01*
X0336162Y0335272D01*
X0333332Y0334100D01*
X0330268Y0334100D01*
X0327438Y0335272D01*
X0326800Y0335911D01*
X0326162Y0335272D01*
X0323332Y0334100D01*
X0320268Y0334100D01*
X0317438Y0335272D01*
X0316800Y0335911D01*
X0316162Y0335272D01*
X0313332Y0334100D01*
X0310268Y0334100D01*
X0307438Y0335272D01*
X0305272Y0337438D01*
X0304100Y0340268D01*
X0304100Y0343332D01*
X0305272Y0346162D01*
X0307438Y0348328D01*
X0310268Y0349500D01*
X0313332Y0349500D01*
X0316162Y0348328D01*
X0316800Y0347689D01*
X0317438Y0348328D01*
X0320268Y0349500D01*
X0323332Y0349500D01*
X0325800Y0348478D01*
X0325800Y0389993D01*
X0324800Y0392408D01*
X0324800Y0401192D01*
X0325866Y0403765D01*
X0327835Y0405734D01*
X0330408Y0406800D01*
X0333192Y0406800D01*
X0335765Y0405734D01*
X0336800Y0404699D01*
X0337835Y0405734D01*
X0340408Y0406800D01*
X0343192Y0406800D01*
X0345765Y0405734D01*
X0346800Y0404699D01*
X0347835Y0405734D01*
X0350408Y0406800D01*
X0353192Y0406800D01*
X0355765Y0405734D01*
X0356800Y0404699D01*
X0357835Y0405734D01*
X0360408Y0406800D01*
X0363192Y0406800D01*
X0365765Y0405734D01*
X0366800Y0404699D01*
X0367835Y0405734D01*
X0370408Y0406800D01*
X0373192Y0406800D01*
X0375765Y0405734D01*
X0376800Y0404699D01*
X0377835Y0405734D01*
X0380408Y0406800D01*
X0383192Y0406800D01*
X0385765Y0405734D01*
X0386800Y0404699D01*
X0387835Y0405734D01*
X0390408Y0406800D01*
X0393192Y0406800D01*
X0395765Y0405734D01*
X0396800Y0404699D01*
X0397835Y0405734D01*
X0400408Y0406800D01*
X0403192Y0406800D01*
X0405765Y0405734D01*
X0406800Y0404699D01*
X0407835Y0405734D01*
X0410408Y0406800D01*
X0413192Y0406800D01*
X0415765Y0405734D01*
X0416800Y0404699D01*
X0417835Y0405734D01*
X0420408Y0406800D01*
X0423192Y0406800D01*
X0425765Y0405734D01*
X0426800Y0404699D01*
X0427835Y0405734D01*
X0430408Y0406800D01*
X0433192Y0406800D01*
X0435765Y0405734D01*
X0437734Y0403765D01*
X0438134Y0402800D01*
X0448993Y0402800D01*
X0451199Y0401887D01*
X0452887Y0400199D01*
X0453800Y0397993D01*
X0453800Y0348478D01*
X0456268Y0349500D01*
X0459332Y0349500D01*
X0462162Y0348328D01*
X0462800Y0347689D01*
X0463438Y0348328D01*
X0466268Y0349500D01*
X0469332Y0349500D01*
X0472162Y0348328D01*
X0472800Y0347689D01*
X0473438Y0348328D01*
X0476268Y0349500D01*
X0479332Y0349500D01*
X0482162Y0348328D01*
X0482800Y0347689D01*
X0483438Y0348328D01*
X0486268Y0349500D01*
X0489332Y0349500D01*
X0492162Y0348328D01*
X0494328Y0346162D01*
X0495500Y0343332D01*
X0495500Y0340268D01*
X0494328Y0337438D01*
X0493800Y0336911D01*
X0493800Y0274073D01*
X0493904Y0274030D01*
X0495030Y0272904D01*
X0495639Y0271434D01*
X0495639Y0262166D01*
X0495030Y0260696D01*
X0493904Y0259570D01*
X0492434Y0258961D01*
X0483166Y0258961D01*
X0481696Y0259570D01*
X0480570Y0260696D01*
X0479961Y0262166D01*
X0479961Y0268961D01*
X0472166Y0268961D01*
X0470696Y0269570D01*
X0469570Y0270696D01*
X0468961Y0272166D01*
X0468961Y0281434D01*
X0469570Y0282904D01*
X0470696Y0284030D01*
X0470800Y0284073D01*
X0470800Y0334708D01*
X0469332Y0334100D01*
X0466268Y0334100D01*
X0463438Y0335272D01*
X0462800Y0335911D01*
X0462162Y0335272D01*
X0459332Y0334100D01*
X0456268Y0334100D01*
X0453438Y0335272D01*
X0452800Y0335911D01*
X0452162Y0335272D01*
X0449332Y0334100D01*
X0446268Y0334100D01*
X0443438Y0335272D01*
X0442800Y0335911D01*
X0442162Y0335272D01*
X0439332Y0334100D01*
X0436268Y0334100D01*
X0433438Y0335272D01*
X0432800Y0335911D01*
X0432162Y0335272D01*
X0429332Y0334100D01*
X0426268Y0334100D01*
X0423438Y0335272D01*
X0422800Y0335911D01*
X0422162Y0335272D01*
X0419332Y0334100D01*
X0416268Y0334100D01*
X0413800Y0335122D01*
X0413800Y0270607D01*
X0412887Y0268401D01*
X0411199Y0266713D01*
X0408993Y0265800D01*
X0314073Y0265800D01*
X0314030Y0265696D01*
X0312904Y0264570D01*
X0311434Y0263961D01*
X0302166Y0263961D01*
X0300696Y0264570D01*
X0299570Y0265696D01*
X0298961Y0267166D01*
X0298961Y0276434D01*
X0299570Y0277904D01*
X0300696Y0279030D01*
X0302166Y0279639D01*
X0311434Y0279639D01*
X0312904Y0279030D01*
X0314030Y0277904D01*
X0314073Y0277800D01*
X0401800Y0277800D01*
X0401800Y0335122D01*
X0394822Y0334699D02*
X0384778Y0334699D01*
X0387187Y0336298D02*
X0392413Y0336298D01*
X0391083Y0337896D02*
X0388517Y0337896D01*
X0389180Y0339495D02*
X0390420Y0339495D01*
X0390100Y0341093D02*
X0389500Y0341093D01*
X0389500Y0342692D02*
X0390100Y0342692D01*
X0390497Y0344290D02*
X0389103Y0344290D01*
X0388441Y0345889D02*
X0390392Y0345889D01*
X0378822Y0334699D02*
X0374778Y0334699D01*
X0368822Y0334699D02*
X0364778Y0334699D01*
X0358822Y0334699D02*
X0354778Y0334699D01*
X0348822Y0334699D02*
X0344778Y0334699D01*
X0338822Y0334699D02*
X0334778Y0334699D01*
X0328822Y0334699D02*
X0324778Y0334699D01*
X0318822Y0334699D02*
X0314778Y0334699D01*
X0308822Y0334699D02*
X0294778Y0334699D01*
X0297187Y0336298D02*
X0306413Y0336298D01*
X0305083Y0337896D02*
X0298517Y0337896D01*
X0299180Y0339495D02*
X0304420Y0339495D01*
X0304100Y0341093D02*
X0299500Y0341093D01*
X0299500Y0342692D02*
X0304100Y0342692D01*
X0304497Y0344290D02*
X0299103Y0344290D01*
X0298441Y0345889D02*
X0305159Y0345889D01*
X0306598Y0347487D02*
X0297002Y0347487D01*
X0294331Y0349086D02*
X0309269Y0349086D01*
X0314331Y0349086D02*
X0319269Y0349086D01*
X0324331Y0349086D02*
X0325800Y0349086D01*
X0325800Y0350684D02*
X0267800Y0350684D01*
X0267800Y0352283D02*
X0325800Y0352283D01*
X0325800Y0353881D02*
X0267800Y0353881D01*
X0267800Y0355480D02*
X0325800Y0355480D01*
X0325800Y0357078D02*
X0285564Y0357078D01*
X0287001Y0358677D02*
X0325800Y0358677D01*
X0325800Y0360275D02*
X0287663Y0360275D01*
X0287800Y0361874D02*
X0325800Y0361874D01*
X0325800Y0363472D02*
X0287800Y0363472D01*
X0288405Y0365071D02*
X0325800Y0365071D01*
X0325800Y0366670D02*
X0289433Y0366670D01*
X0289639Y0368268D02*
X0325800Y0368268D01*
X0325800Y0369867D02*
X0289639Y0369867D01*
X0289639Y0371465D02*
X0325800Y0371465D01*
X0325800Y0373064D02*
X0289639Y0373064D01*
X0289639Y0374662D02*
X0325800Y0374662D01*
X0325800Y0376261D02*
X0289639Y0376261D01*
X0289048Y0377859D02*
X0325800Y0377859D01*
X0325800Y0379458D02*
X0287800Y0379458D01*
X0287800Y0381056D02*
X0325800Y0381056D01*
X0325800Y0382655D02*
X0287800Y0382655D01*
X0287800Y0384253D02*
X0325800Y0384253D01*
X0325800Y0385852D02*
X0287800Y0385852D01*
X0287800Y0387450D02*
X0325800Y0387450D01*
X0325800Y0389049D02*
X0287800Y0389049D01*
X0288071Y0390647D02*
X0325529Y0390647D01*
X0324867Y0392246D02*
X0288733Y0392246D01*
X0288800Y0393844D02*
X0324800Y0393844D01*
X0324800Y0395443D02*
X0288800Y0395443D01*
X0288800Y0397041D02*
X0324800Y0397041D01*
X0324800Y0398640D02*
X0288800Y0398640D01*
X0288800Y0400238D02*
X0324800Y0400238D01*
X0325067Y0401837D02*
X0288533Y0401837D01*
X0287871Y0403435D02*
X0325729Y0403435D01*
X0327134Y0405034D02*
X0286466Y0405034D01*
X0283597Y0406632D02*
X0330003Y0406632D01*
X0333597Y0406632D02*
X0340003Y0406632D01*
X0337134Y0405034D02*
X0336466Y0405034D01*
X0343597Y0406632D02*
X0350003Y0406632D01*
X0347134Y0405034D02*
X0346466Y0405034D01*
X0353597Y0406632D02*
X0360003Y0406632D01*
X0357134Y0405034D02*
X0356466Y0405034D01*
X0363597Y0406632D02*
X0370003Y0406632D01*
X0367134Y0405034D02*
X0366466Y0405034D01*
X0373597Y0406632D02*
X0380003Y0406632D01*
X0377134Y0405034D02*
X0376466Y0405034D01*
X0383597Y0406632D02*
X0390003Y0406632D01*
X0387134Y0405034D02*
X0386466Y0405034D01*
X0393597Y0406632D02*
X0400003Y0406632D01*
X0397134Y0405034D02*
X0396466Y0405034D01*
X0403597Y0406632D02*
X0410003Y0406632D01*
X0407134Y0405034D02*
X0406466Y0405034D01*
X0413597Y0406632D02*
X0420003Y0406632D01*
X0417134Y0405034D02*
X0416466Y0405034D01*
X0423597Y0406632D02*
X0430003Y0406632D01*
X0427134Y0405034D02*
X0426466Y0405034D01*
X0433597Y0406632D02*
X0560701Y0406632D01*
X0560701Y0408231D02*
X0037899Y0408231D01*
X0037899Y0406632D02*
X0210003Y0406632D01*
X0207134Y0405034D02*
X0037817Y0405034D01*
X0037389Y0403435D02*
X0205729Y0403435D01*
X0205067Y0401837D02*
X0036751Y0401837D01*
X0035828Y0400238D02*
X0063450Y0400238D01*
X0064812Y0401600D02*
X0062000Y0398788D01*
X0062000Y0397000D01*
X0066600Y0397000D01*
X0066600Y0401600D01*
X0064812Y0401600D01*
X0067000Y0401600D02*
X0067000Y0397000D01*
X0071600Y0397000D01*
X0071600Y0398788D01*
X0068788Y0401600D01*
X0067000Y0401600D01*
X0067000Y0400238D02*
X0066600Y0400238D01*
X0066600Y0398640D02*
X0067000Y0398640D01*
X0067000Y0397041D02*
X0066600Y0397041D01*
X0066600Y0397000D02*
X0067000Y0397000D01*
X0067000Y0396600D01*
X0071600Y0396600D01*
X0071600Y0394812D01*
X0068788Y0392000D01*
X0067000Y0392000D01*
X0067000Y0396600D01*
X0066600Y0396600D01*
X0066600Y0392000D01*
X0064812Y0392000D01*
X0062000Y0394812D01*
X0062000Y0396600D01*
X0066600Y0396600D01*
X0066600Y0397000D01*
X0066600Y0395443D02*
X0067000Y0395443D01*
X0067000Y0393844D02*
X0066600Y0393844D01*
X0066600Y0392246D02*
X0067000Y0392246D01*
X0067000Y0391600D02*
X0068788Y0391600D01*
X0071600Y0388788D01*
X0071600Y0387000D01*
X0067000Y0387000D01*
X0067000Y0386600D01*
X0071600Y0386600D01*
X0071600Y0384812D01*
X0068788Y0382000D01*
X0067000Y0382000D01*
X0067000Y0386600D01*
X0066600Y0386600D01*
X0066600Y0382000D01*
X0064812Y0382000D01*
X0062000Y0384812D01*
X0062000Y0386600D01*
X0066600Y0386600D01*
X0066600Y0387000D01*
X0066600Y0391600D01*
X0064812Y0391600D01*
X0062000Y0388788D01*
X0062000Y0387000D01*
X0066600Y0387000D01*
X0067000Y0387000D01*
X0067000Y0391600D01*
X0067000Y0390647D02*
X0066600Y0390647D01*
X0066600Y0389049D02*
X0067000Y0389049D01*
X0067000Y0387450D02*
X0066600Y0387450D01*
X0066600Y0385852D02*
X0067000Y0385852D01*
X0067000Y0384253D02*
X0066600Y0384253D01*
X0066600Y0382655D02*
X0067000Y0382655D01*
X0069443Y0382655D02*
X0074157Y0382655D01*
X0074812Y0382000D02*
X0076600Y0382000D01*
X0076600Y0386600D01*
X0077000Y0386600D01*
X0077000Y0387000D01*
X0081600Y0387000D01*
X0081600Y0388788D01*
X0078788Y0391600D01*
X0077000Y0391600D01*
X0077000Y0387000D01*
X0076600Y0387000D01*
X0076600Y0391600D01*
X0074812Y0391600D01*
X0072000Y0388788D01*
X0072000Y0387000D01*
X0076600Y0387000D01*
X0076600Y0386600D01*
X0072000Y0386600D01*
X0072000Y0384812D01*
X0074812Y0382000D01*
X0076600Y0382655D02*
X0077000Y0382655D01*
X0077000Y0382000D02*
X0078788Y0382000D01*
X0081600Y0384812D01*
X0081600Y0386600D01*
X0077000Y0386600D01*
X0077000Y0382000D01*
X0077000Y0384253D02*
X0076600Y0384253D01*
X0076600Y0385852D02*
X0077000Y0385852D01*
X0077000Y0387450D02*
X0076600Y0387450D01*
X0076600Y0389049D02*
X0077000Y0389049D01*
X0077000Y0390647D02*
X0076600Y0390647D01*
X0076600Y0392000D02*
X0076600Y0396600D01*
X0077000Y0396600D01*
X0077000Y0397000D01*
X0081600Y0397000D01*
X0081600Y0398788D01*
X0078788Y0401600D01*
X0077000Y0401600D01*
X0077000Y0397000D01*
X0076600Y0397000D01*
X0076600Y0401600D01*
X0074812Y0401600D01*
X0072000Y0398788D01*
X0072000Y0397000D01*
X0076600Y0397000D01*
X0076600Y0396600D01*
X0072000Y0396600D01*
X0072000Y0394812D01*
X0074812Y0392000D01*
X0076600Y0392000D01*
X0076600Y0392246D02*
X0077000Y0392246D01*
X0077000Y0392000D02*
X0078788Y0392000D01*
X0081600Y0394812D01*
X0081600Y0396600D01*
X0077000Y0396600D01*
X0077000Y0392000D01*
X0077000Y0393844D02*
X0076600Y0393844D01*
X0076600Y0395443D02*
X0077000Y0395443D01*
X0077000Y0397041D02*
X0076600Y0397041D01*
X0076600Y0398640D02*
X0077000Y0398640D01*
X0077000Y0400238D02*
X0076600Y0400238D01*
X0073450Y0400238D02*
X0070150Y0400238D01*
X0071600Y0398640D02*
X0072000Y0398640D01*
X0072000Y0397041D02*
X0071600Y0397041D01*
X0071600Y0395443D02*
X0072000Y0395443D01*
X0072968Y0393844D02*
X0070632Y0393844D01*
X0069034Y0392246D02*
X0074566Y0392246D01*
X0073859Y0390647D02*
X0069741Y0390647D01*
X0071340Y0389049D02*
X0072260Y0389049D01*
X0072000Y0387450D02*
X0071600Y0387450D01*
X0071600Y0385852D02*
X0072000Y0385852D01*
X0072559Y0384253D02*
X0071041Y0384253D01*
X0064157Y0382655D02*
X0017400Y0382655D01*
X0017400Y0384253D02*
X0062559Y0384253D01*
X0062000Y0385852D02*
X0017400Y0385852D01*
X0017400Y0387450D02*
X0062000Y0387450D01*
X0062260Y0389049D02*
X0017400Y0389049D01*
X0017400Y0390647D02*
X0063859Y0390647D01*
X0064566Y0392246D02*
X0017400Y0392246D01*
X0017400Y0393844D02*
X0062968Y0393844D01*
X0062000Y0395443D02*
X0017400Y0395443D01*
X0017400Y0397041D02*
X0021504Y0397041D01*
X0019264Y0398640D02*
X0017400Y0398640D01*
X0017400Y0400238D02*
X0017772Y0400238D01*
X0032096Y0397041D02*
X0062000Y0397041D01*
X0062000Y0398640D02*
X0034336Y0398640D01*
X0037479Y0409829D02*
X0561121Y0409829D01*
X0561656Y0411428D02*
X0036944Y0411428D01*
X0036021Y0413026D02*
X0562579Y0413026D01*
X0563928Y0414625D02*
X0034672Y0414625D01*
X0017400Y0381056D02*
X0205800Y0381056D01*
X0205800Y0379458D02*
X0017400Y0379458D01*
X0017400Y0377859D02*
X0204552Y0377859D01*
X0203961Y0376261D02*
X0017400Y0376261D01*
X0017400Y0374662D02*
X0203961Y0374662D01*
X0203961Y0373064D02*
X0017400Y0373064D01*
X0017400Y0371465D02*
X0203961Y0371465D01*
X0203961Y0369867D02*
X0017400Y0369867D01*
X0017400Y0368268D02*
X0203961Y0368268D01*
X0204167Y0366670D02*
X0017400Y0366670D01*
X0017400Y0365071D02*
X0205195Y0365071D01*
X0205800Y0363472D02*
X0017400Y0363472D01*
X0017400Y0361874D02*
X0205800Y0361874D01*
X0205937Y0360275D02*
X0017400Y0360275D01*
X0017400Y0358677D02*
X0206599Y0358677D01*
X0208036Y0357078D02*
X0017400Y0357078D01*
X0017400Y0355480D02*
X0215800Y0355480D01*
X0215800Y0353881D02*
X0017400Y0353881D01*
X0017400Y0352283D02*
X0215800Y0352283D01*
X0215800Y0350684D02*
X0017400Y0350684D01*
X0017400Y0349086D02*
X0179269Y0349086D01*
X0176598Y0347487D02*
X0017400Y0347487D01*
X0017400Y0345889D02*
X0175159Y0345889D01*
X0174497Y0344290D02*
X0017400Y0344290D01*
X0017400Y0342692D02*
X0054792Y0342692D01*
X0054835Y0342734D02*
X0052866Y0340765D01*
X0051800Y0338192D01*
X0051800Y0335408D01*
X0052866Y0332835D01*
X0054835Y0330866D01*
X0055723Y0330498D01*
X0055673Y0330461D01*
X0055139Y0329927D01*
X0054695Y0329316D01*
X0054352Y0328643D01*
X0054118Y0327924D01*
X0054000Y0327178D01*
X0054000Y0327000D01*
X0061600Y0327000D01*
X0061600Y0326600D01*
X0054000Y0326600D01*
X0054000Y0326422D01*
X0054118Y0325676D01*
X0054352Y0324957D01*
X0054695Y0324284D01*
X0055139Y0323673D01*
X0055673Y0323139D01*
X0055723Y0323102D01*
X0054835Y0322734D01*
X0054315Y0322215D01*
X0054030Y0322904D01*
X0052904Y0324030D01*
X0051434Y0324639D01*
X0042166Y0324639D01*
X0040696Y0324030D01*
X0039570Y0322904D01*
X0038961Y0321434D01*
X0038961Y0312166D01*
X0039570Y0310696D01*
X0040696Y0309570D01*
X0040800Y0309527D01*
X0040800Y0279073D01*
X0040696Y0279030D01*
X0039570Y0277904D01*
X0038961Y0276434D01*
X0038961Y0267166D01*
X0039570Y0265696D01*
X0040696Y0264570D01*
X0042166Y0263961D01*
X0051434Y0263961D01*
X0052260Y0264304D01*
X0051800Y0263192D01*
X0051800Y0260408D01*
X0052866Y0257835D01*
X0054835Y0255866D01*
X0057408Y0254800D01*
X0066192Y0254800D01*
X0068765Y0255866D01*
X0070734Y0257835D01*
X0071800Y0260408D01*
X0071800Y0263192D01*
X0070734Y0265765D01*
X0069699Y0266800D01*
X0070734Y0267835D01*
X0071800Y0270408D01*
X0071800Y0273192D01*
X0070734Y0275765D01*
X0068765Y0277734D01*
X0067877Y0278102D01*
X0067927Y0278139D01*
X0068461Y0278673D01*
X0068905Y0279284D01*
X0069248Y0279957D01*
X0069482Y0280676D01*
X0069600Y0281422D01*
X0069600Y0281600D01*
X0062000Y0281600D01*
X0062000Y0282000D01*
X0069600Y0282000D01*
X0069600Y0282178D01*
X0069482Y0282924D01*
X0069248Y0283643D01*
X0068905Y0284316D01*
X0068461Y0284927D01*
X0067927Y0285461D01*
X0067877Y0285498D01*
X0068765Y0285866D01*
X0070734Y0287835D01*
X0071800Y0290408D01*
X0071800Y0293192D01*
X0070734Y0295765D01*
X0068765Y0297734D01*
X0066192Y0298800D01*
X0057408Y0298800D01*
X0054835Y0297734D01*
X0052866Y0295765D01*
X0052800Y0295607D01*
X0052800Y0302993D01*
X0052866Y0302835D01*
X0054835Y0300866D01*
X0057408Y0299800D01*
X0066192Y0299800D01*
X0068765Y0300866D01*
X0070734Y0302835D01*
X0071800Y0305408D01*
X0071800Y0308192D01*
X0070734Y0310765D01*
X0069699Y0311800D01*
X0070734Y0312835D01*
X0071800Y0315408D01*
X0071800Y0318192D01*
X0070734Y0320765D01*
X0068765Y0322734D01*
X0067877Y0323102D01*
X0067927Y0323139D01*
X0068461Y0323673D01*
X0068905Y0324284D01*
X0069248Y0324957D01*
X0069482Y0325676D01*
X0069600Y0326422D01*
X0069600Y0326600D01*
X0062000Y0326600D01*
X0062000Y0327000D01*
X0069600Y0327000D01*
X0069600Y0327178D01*
X0069482Y0327924D01*
X0069248Y0328643D01*
X0068905Y0329316D01*
X0068461Y0329927D01*
X0067927Y0330461D01*
X0067877Y0330498D01*
X0068765Y0330866D01*
X0070734Y0332835D01*
X0071800Y0335408D01*
X0071800Y0338192D01*
X0070734Y0340765D01*
X0068765Y0342734D01*
X0066192Y0343800D01*
X0057408Y0343800D01*
X0054835Y0342734D01*
X0053194Y0341093D02*
X0017400Y0341093D01*
X0017400Y0339495D02*
X0052339Y0339495D01*
X0051800Y0337896D02*
X0017400Y0337896D01*
X0017400Y0336298D02*
X0051800Y0336298D01*
X0052093Y0334699D02*
X0017400Y0334699D01*
X0017400Y0333101D02*
X0052756Y0333101D01*
X0054198Y0331502D02*
X0017400Y0331502D01*
X0017400Y0329904D02*
X0055122Y0329904D01*
X0054242Y0328305D02*
X0017400Y0328305D01*
X0017400Y0326707D02*
X0061600Y0326707D01*
X0062000Y0326707D02*
X0113807Y0326707D01*
X0112671Y0328305D02*
X0069358Y0328305D01*
X0068478Y0329904D02*
X0112009Y0329904D01*
X0111800Y0331502D02*
X0069402Y0331502D01*
X0070844Y0333101D02*
X0111800Y0333101D01*
X0112424Y0334699D02*
X0071507Y0334699D01*
X0071800Y0336298D02*
X0113398Y0336298D01*
X0115226Y0337896D02*
X0071800Y0337896D01*
X0071261Y0339495D02*
X0174420Y0339495D01*
X0174100Y0341093D02*
X0070406Y0341093D01*
X0068808Y0342692D02*
X0174100Y0342692D01*
X0184331Y0349086D02*
X0189269Y0349086D01*
X0194331Y0349086D02*
X0215800Y0349086D01*
X0215800Y0347487D02*
X0197002Y0347487D01*
X0198441Y0345889D02*
X0215159Y0345889D01*
X0214497Y0344290D02*
X0199103Y0344290D01*
X0199500Y0342692D02*
X0214100Y0342692D01*
X0214100Y0341093D02*
X0199500Y0341093D01*
X0199180Y0339495D02*
X0214420Y0339495D01*
X0215083Y0337896D02*
X0198517Y0337896D01*
X0175083Y0337896D02*
X0128374Y0337896D01*
X0112594Y0325108D02*
X0069297Y0325108D01*
X0068298Y0323510D02*
X0111931Y0323510D01*
X0111800Y0321911D02*
X0069588Y0321911D01*
X0070922Y0320313D02*
X0111839Y0320313D01*
X0112501Y0318714D02*
X0071584Y0318714D01*
X0071800Y0317116D02*
X0113585Y0317116D01*
X0112763Y0315517D02*
X0071800Y0315517D01*
X0071183Y0313919D02*
X0112101Y0313919D01*
X0111800Y0312320D02*
X0070220Y0312320D01*
X0070752Y0310722D02*
X0111800Y0310722D01*
X0112332Y0309123D02*
X0071414Y0309123D01*
X0071800Y0307525D02*
X0113176Y0307525D01*
X0113027Y0305926D02*
X0071800Y0305926D01*
X0071353Y0304328D02*
X0112270Y0304328D01*
X0111800Y0302729D02*
X0070629Y0302729D01*
X0069030Y0301131D02*
X0111800Y0301131D01*
X0112163Y0299532D02*
X0052800Y0299532D01*
X0052800Y0297934D02*
X0055316Y0297934D01*
X0053436Y0296335D02*
X0052800Y0296335D01*
X0052800Y0301131D02*
X0054570Y0301131D01*
X0052971Y0302729D02*
X0052800Y0302729D01*
X0040800Y0302729D02*
X0017400Y0302729D01*
X0017400Y0301131D02*
X0040800Y0301131D01*
X0040800Y0299532D02*
X0017400Y0299532D01*
X0017400Y0297934D02*
X0040800Y0297934D01*
X0040800Y0296335D02*
X0017400Y0296335D01*
X0017400Y0294737D02*
X0040800Y0294737D01*
X0040800Y0293138D02*
X0017400Y0293138D01*
X0017400Y0291539D02*
X0040800Y0291539D01*
X0040800Y0289941D02*
X0017400Y0289941D01*
X0017400Y0288342D02*
X0040800Y0288342D01*
X0040800Y0286744D02*
X0017400Y0286744D01*
X0017400Y0285145D02*
X0040800Y0285145D01*
X0040800Y0283547D02*
X0017400Y0283547D01*
X0017400Y0281948D02*
X0040800Y0281948D01*
X0040800Y0280350D02*
X0017400Y0280350D01*
X0017400Y0278751D02*
X0040417Y0278751D01*
X0039259Y0277153D02*
X0017400Y0277153D01*
X0017400Y0275554D02*
X0038961Y0275554D01*
X0038961Y0273956D02*
X0017400Y0273956D01*
X0017400Y0272357D02*
X0038961Y0272357D01*
X0038961Y0270759D02*
X0017400Y0270759D01*
X0017400Y0269160D02*
X0038961Y0269160D01*
X0038961Y0267562D02*
X0017400Y0267562D01*
X0017400Y0265963D02*
X0039459Y0265963D01*
X0041192Y0264365D02*
X0017400Y0264365D01*
X0017400Y0262766D02*
X0051800Y0262766D01*
X0051800Y0261168D02*
X0017400Y0261168D01*
X0017400Y0259569D02*
X0052147Y0259569D01*
X0052809Y0257971D02*
X0017400Y0257971D01*
X0017400Y0256372D02*
X0054328Y0256372D01*
X0069272Y0256372D02*
X0113473Y0256372D01*
X0112809Y0257971D02*
X0070791Y0257971D01*
X0071453Y0259569D02*
X0112147Y0259569D01*
X0111800Y0261168D02*
X0071800Y0261168D01*
X0071800Y0262766D02*
X0111800Y0262766D01*
X0112286Y0264365D02*
X0071314Y0264365D01*
X0070536Y0265963D02*
X0113064Y0265963D01*
X0113139Y0267562D02*
X0070461Y0267562D01*
X0071283Y0269160D02*
X0112317Y0269160D01*
X0111800Y0270759D02*
X0071800Y0270759D01*
X0071800Y0272357D02*
X0111800Y0272357D01*
X0112116Y0273956D02*
X0071484Y0273956D01*
X0070822Y0275554D02*
X0112778Y0275554D01*
X0113548Y0277153D02*
X0069347Y0277153D01*
X0068518Y0278751D02*
X0112486Y0278751D01*
X0111824Y0280350D02*
X0069376Y0280350D01*
X0069279Y0283547D02*
X0111947Y0283547D01*
X0111800Y0281948D02*
X0062000Y0281948D01*
X0061600Y0281948D02*
X0052800Y0281948D01*
X0054000Y0282000D02*
X0061600Y0282000D01*
X0061600Y0281600D01*
X0054000Y0281600D01*
X0054000Y0281422D01*
X0054118Y0280676D01*
X0054352Y0279957D01*
X0054695Y0279284D01*
X0055139Y0278673D01*
X0055673Y0278139D01*
X0055723Y0278102D01*
X0054835Y0277734D01*
X0054315Y0277215D01*
X0054030Y0277904D01*
X0052904Y0279030D01*
X0052800Y0279073D01*
X0052800Y0287993D01*
X0052866Y0287835D01*
X0054835Y0285866D01*
X0055723Y0285498D01*
X0055673Y0285461D01*
X0055139Y0284927D01*
X0054695Y0284316D01*
X0054352Y0283643D01*
X0054118Y0282924D01*
X0054000Y0282178D01*
X0054000Y0282000D01*
X0054321Y0283547D02*
X0052800Y0283547D01*
X0052800Y0285145D02*
X0055357Y0285145D01*
X0053957Y0286744D02*
X0052800Y0286744D01*
X0052800Y0280350D02*
X0054224Y0280350D01*
X0055082Y0278751D02*
X0053183Y0278751D01*
X0068243Y0285145D02*
X0112609Y0285145D01*
X0113844Y0286744D02*
X0069643Y0286744D01*
X0070945Y0288342D02*
X0112655Y0288342D01*
X0111993Y0289941D02*
X0071607Y0289941D01*
X0071800Y0291539D02*
X0111800Y0291539D01*
X0111800Y0293138D02*
X0071800Y0293138D01*
X0071160Y0294737D02*
X0112440Y0294737D01*
X0113436Y0296335D02*
X0070164Y0296335D01*
X0068284Y0297934D02*
X0112825Y0297934D01*
X0055302Y0323510D02*
X0053424Y0323510D01*
X0054303Y0325108D02*
X0017400Y0325108D01*
X0017400Y0323510D02*
X0040176Y0323510D01*
X0039159Y0321911D02*
X0017400Y0321911D01*
X0017400Y0320313D02*
X0038961Y0320313D01*
X0038961Y0318714D02*
X0017400Y0318714D01*
X0017400Y0317116D02*
X0038961Y0317116D01*
X0038961Y0315517D02*
X0017400Y0315517D01*
X0017400Y0313919D02*
X0038961Y0313919D01*
X0038961Y0312320D02*
X0017400Y0312320D01*
X0017400Y0310722D02*
X0039560Y0310722D01*
X0040800Y0309123D02*
X0017400Y0309123D01*
X0017400Y0307525D02*
X0040800Y0307525D01*
X0040800Y0305926D02*
X0017400Y0305926D01*
X0017400Y0304328D02*
X0040800Y0304328D01*
X0017400Y0254774D02*
X0112455Y0254774D01*
X0111800Y0253175D02*
X0017400Y0253175D01*
X0017400Y0251577D02*
X0111800Y0251577D01*
X0111978Y0249978D02*
X0017400Y0249978D01*
X0017400Y0248380D02*
X0112640Y0248380D01*
X0113882Y0246781D02*
X0017400Y0246781D01*
X0017400Y0245183D02*
X0112624Y0245183D01*
X0111962Y0243584D02*
X0017400Y0243584D01*
X0017400Y0241986D02*
X0111800Y0241986D01*
X0111808Y0240387D02*
X0017400Y0240387D01*
X0017400Y0238789D02*
X0112471Y0238789D01*
X0113510Y0237190D02*
X0017400Y0237190D01*
X0017400Y0235592D02*
X0112794Y0235592D01*
X0112132Y0233993D02*
X0017400Y0233993D01*
X0017400Y0232395D02*
X0111800Y0232395D01*
X0111800Y0230796D02*
X0017400Y0230796D01*
X0017400Y0229198D02*
X0112301Y0229198D01*
X0113101Y0227599D02*
X0017400Y0227599D01*
X0017400Y0226001D02*
X0113101Y0226001D01*
X0112301Y0224402D02*
X0017400Y0224402D01*
X0017400Y0222803D02*
X0111800Y0222803D01*
X0111800Y0221205D02*
X0017400Y0221205D01*
X0017400Y0219606D02*
X0112132Y0219606D01*
X0112794Y0218008D02*
X0017400Y0218008D01*
X0017400Y0216409D02*
X0114291Y0216409D01*
X0117381Y0214811D02*
X0085012Y0214811D01*
X0086200Y0213623D02*
X0083623Y0216200D01*
X0081800Y0216200D01*
X0081800Y0211800D01*
X0081800Y0211800D01*
X0086200Y0211800D01*
X0086200Y0213623D01*
X0086200Y0213212D02*
X0174100Y0213212D01*
X0174100Y0211614D02*
X0086200Y0211614D01*
X0086200Y0211800D02*
X0081800Y0211800D01*
X0081800Y0211800D01*
X0081800Y0211800D01*
X0077400Y0211800D01*
X0077400Y0213623D01*
X0079977Y0216200D01*
X0081800Y0216200D01*
X0081800Y0211800D01*
X0081800Y0207400D01*
X0083623Y0207400D01*
X0086200Y0209977D01*
X0086200Y0211800D01*
X0086200Y0210015D02*
X0174100Y0210015D01*
X0174294Y0208417D02*
X0084639Y0208417D01*
X0081800Y0208417D02*
X0081800Y0208417D01*
X0081800Y0207400D02*
X0081800Y0211800D01*
X0081800Y0211800D01*
X0077400Y0211800D01*
X0077400Y0209977D01*
X0079977Y0207400D01*
X0081800Y0207400D01*
X0081800Y0210015D02*
X0081800Y0210015D01*
X0081800Y0211614D02*
X0081800Y0211614D01*
X0081800Y0213212D02*
X0081800Y0213212D01*
X0081800Y0214811D02*
X0081800Y0214811D01*
X0078588Y0214811D02*
X0017400Y0214811D01*
X0017400Y0213212D02*
X0077400Y0213212D01*
X0077400Y0211614D02*
X0017400Y0211614D01*
X0017400Y0210015D02*
X0077400Y0210015D01*
X0078961Y0208417D02*
X0017400Y0208417D01*
X0017400Y0206818D02*
X0175892Y0206818D01*
X0174330Y0205220D02*
X0017400Y0205220D01*
X0017400Y0203621D02*
X0174100Y0203621D01*
X0174100Y0202023D02*
X0017400Y0202023D01*
X0087886Y0186038D02*
X0129429Y0186038D01*
X0131012Y0184439D02*
X0088608Y0184439D01*
X0126219Y0214811D02*
X0174100Y0214811D01*
X0229639Y0214811D02*
X0234500Y0214811D01*
X0234500Y0216409D02*
X0229639Y0216409D01*
X0229639Y0218008D02*
X0234500Y0218008D01*
X0234500Y0219606D02*
X0229639Y0219606D01*
X0229639Y0221205D02*
X0234500Y0221205D01*
X0234500Y0222803D02*
X0229639Y0222803D01*
X0229639Y0224402D02*
X0234500Y0224402D01*
X0234500Y0226001D02*
X0229639Y0226001D01*
X0229639Y0227599D02*
X0234500Y0227599D01*
X0234500Y0229198D02*
X0229639Y0229198D01*
X0229639Y0230796D02*
X0234500Y0230796D01*
X0234500Y0232395D02*
X0229639Y0232395D01*
X0229639Y0233993D02*
X0234500Y0233993D01*
X0234500Y0235592D02*
X0229639Y0235592D01*
X0229639Y0237190D02*
X0234500Y0237190D01*
X0234500Y0238789D02*
X0229639Y0238789D01*
X0229639Y0240387D02*
X0234500Y0240387D01*
X0234500Y0241986D02*
X0229639Y0241986D01*
X0229639Y0243584D02*
X0234500Y0243584D01*
X0234500Y0245183D02*
X0229639Y0245183D01*
X0229495Y0246781D02*
X0234500Y0246781D01*
X0234500Y0248380D02*
X0229639Y0248380D01*
X0229639Y0249978D02*
X0234500Y0249978D01*
X0234500Y0251577D02*
X0229639Y0251577D01*
X0229639Y0253175D02*
X0234500Y0253175D01*
X0234500Y0254774D02*
X0229639Y0254774D01*
X0229639Y0256372D02*
X0234500Y0256372D01*
X0234500Y0257971D02*
X0229639Y0257971D01*
X0229639Y0259569D02*
X0234500Y0259569D01*
X0234500Y0261168D02*
X0229639Y0261168D01*
X0229639Y0262766D02*
X0234500Y0262766D01*
X0234500Y0264365D02*
X0229639Y0264365D01*
X0229639Y0265963D02*
X0234500Y0265963D01*
X0234500Y0267562D02*
X0229172Y0267562D01*
X0227589Y0269160D02*
X0234500Y0269160D01*
X0234500Y0270759D02*
X0217800Y0270759D01*
X0217800Y0272357D02*
X0234500Y0272357D01*
X0234500Y0273956D02*
X0217800Y0273956D01*
X0217800Y0275554D02*
X0234500Y0275554D01*
X0234500Y0277153D02*
X0217800Y0277153D01*
X0217800Y0278751D02*
X0234500Y0278751D01*
X0234500Y0280350D02*
X0217800Y0280350D01*
X0217800Y0281948D02*
X0234500Y0281948D01*
X0234500Y0283547D02*
X0217800Y0283547D01*
X0217800Y0285145D02*
X0234500Y0285145D01*
X0234500Y0286744D02*
X0217800Y0286744D01*
X0217800Y0288342D02*
X0234500Y0288342D01*
X0234500Y0289941D02*
X0217800Y0289941D01*
X0217800Y0291539D02*
X0234500Y0291539D01*
X0234500Y0293138D02*
X0217800Y0293138D01*
X0217800Y0294737D02*
X0234500Y0294737D01*
X0234306Y0296335D02*
X0217800Y0296335D01*
X0217800Y0297934D02*
X0233961Y0297934D01*
X0233961Y0299532D02*
X0217800Y0299532D01*
X0217800Y0301131D02*
X0233961Y0301131D01*
X0233961Y0302729D02*
X0217800Y0302729D01*
X0217800Y0304328D02*
X0233961Y0304328D01*
X0233961Y0305926D02*
X0217800Y0305926D01*
X0217800Y0307525D02*
X0234413Y0307525D01*
X0235921Y0309123D02*
X0217800Y0309123D01*
X0257800Y0334699D02*
X0258822Y0334699D01*
X0264778Y0334699D02*
X0268822Y0334699D01*
X0274778Y0334699D02*
X0278822Y0334699D01*
X0284778Y0334699D02*
X0288822Y0334699D01*
X0289269Y0349086D02*
X0284331Y0349086D01*
X0279269Y0349086D02*
X0274331Y0349086D01*
X0269269Y0349086D02*
X0267170Y0349086D01*
X0267000Y0316600D02*
X0267000Y0312000D01*
X0274600Y0312000D01*
X0274600Y0312178D01*
X0274482Y0312924D01*
X0274248Y0313643D01*
X0273905Y0314316D01*
X0273461Y0314927D01*
X0272927Y0315461D01*
X0272316Y0315905D01*
X0271643Y0316248D01*
X0270924Y0316482D01*
X0270178Y0316600D01*
X0267000Y0316600D01*
X0267000Y0315517D02*
X0266600Y0315517D01*
X0266600Y0313919D02*
X0267000Y0313919D01*
X0267000Y0312320D02*
X0266600Y0312320D01*
X0272850Y0315517D02*
X0401800Y0315517D01*
X0401800Y0313919D02*
X0274108Y0313919D01*
X0274577Y0312320D02*
X0401800Y0312320D01*
X0401800Y0310722D02*
X0274489Y0310722D01*
X0273788Y0309123D02*
X0401800Y0309123D01*
X0401800Y0307525D02*
X0273975Y0307525D01*
X0275573Y0305926D02*
X0401800Y0305926D01*
X0401800Y0304328D02*
X0276330Y0304328D01*
X0276800Y0302729D02*
X0401800Y0302729D01*
X0401800Y0301131D02*
X0276800Y0301131D01*
X0276437Y0299532D02*
X0401800Y0299532D01*
X0401800Y0297934D02*
X0275775Y0297934D01*
X0275164Y0296335D02*
X0401800Y0296335D01*
X0401800Y0294737D02*
X0276160Y0294737D01*
X0276800Y0293138D02*
X0401800Y0293138D01*
X0401800Y0291539D02*
X0276800Y0291539D01*
X0276607Y0289941D02*
X0401800Y0289941D01*
X0401800Y0288342D02*
X0275945Y0288342D01*
X0274756Y0286744D02*
X0401800Y0286744D01*
X0401800Y0285145D02*
X0275991Y0285145D01*
X0276653Y0283547D02*
X0401800Y0283547D01*
X0401800Y0281948D02*
X0276800Y0281948D01*
X0276776Y0280350D02*
X0401800Y0280350D01*
X0401800Y0278751D02*
X0313183Y0278751D01*
X0300417Y0278751D02*
X0276114Y0278751D01*
X0275052Y0277153D02*
X0299259Y0277153D01*
X0298961Y0275554D02*
X0275822Y0275554D01*
X0276484Y0273956D02*
X0298961Y0273956D01*
X0298961Y0272357D02*
X0276800Y0272357D01*
X0276800Y0270759D02*
X0298961Y0270759D01*
X0298961Y0269160D02*
X0276283Y0269160D01*
X0275461Y0267562D02*
X0298961Y0267562D01*
X0299459Y0265963D02*
X0275536Y0265963D01*
X0276314Y0264365D02*
X0301192Y0264365D01*
X0312408Y0264365D02*
X0479961Y0264365D01*
X0479961Y0265963D02*
X0409388Y0265963D01*
X0412047Y0267562D02*
X0479961Y0267562D01*
X0479961Y0262766D02*
X0276800Y0262766D01*
X0276800Y0261168D02*
X0480375Y0261168D01*
X0481698Y0259569D02*
X0276453Y0259569D01*
X0275791Y0257971D02*
X0509500Y0257971D01*
X0509500Y0259569D02*
X0493902Y0259569D01*
X0495225Y0261168D02*
X0509500Y0261168D01*
X0509500Y0262766D02*
X0495639Y0262766D01*
X0495639Y0264365D02*
X0509500Y0264365D01*
X0509500Y0265963D02*
X0495639Y0265963D01*
X0495639Y0267562D02*
X0509500Y0267562D01*
X0509500Y0269160D02*
X0495639Y0269160D01*
X0495639Y0270759D02*
X0509500Y0270759D01*
X0509500Y0272357D02*
X0495256Y0272357D01*
X0493978Y0273956D02*
X0509500Y0273956D01*
X0509500Y0275554D02*
X0493800Y0275554D01*
X0493800Y0277153D02*
X0509500Y0277153D01*
X0509500Y0278751D02*
X0493800Y0278751D01*
X0493800Y0280350D02*
X0509500Y0280350D01*
X0509500Y0281948D02*
X0493800Y0281948D01*
X0493800Y0283547D02*
X0509500Y0283547D01*
X0509500Y0285145D02*
X0493800Y0285145D01*
X0493800Y0286744D02*
X0509500Y0286744D01*
X0509500Y0288342D02*
X0493800Y0288342D01*
X0493800Y0289941D02*
X0509500Y0289941D01*
X0509500Y0291539D02*
X0493800Y0291539D01*
X0493800Y0293138D02*
X0509500Y0293138D01*
X0509500Y0294737D02*
X0493800Y0294737D01*
X0493800Y0296335D02*
X0509500Y0296335D01*
X0509500Y0297934D02*
X0493800Y0297934D01*
X0493800Y0299532D02*
X0509500Y0299532D01*
X0509500Y0301131D02*
X0493800Y0301131D01*
X0493800Y0302729D02*
X0509500Y0302729D01*
X0509500Y0304328D02*
X0493800Y0304328D01*
X0493800Y0305926D02*
X0509500Y0305926D01*
X0509500Y0307525D02*
X0493800Y0307525D01*
X0493800Y0309123D02*
X0509500Y0309123D01*
X0509500Y0310722D02*
X0493800Y0310722D01*
X0493800Y0312320D02*
X0509500Y0312320D01*
X0509500Y0313919D02*
X0493800Y0313919D01*
X0493800Y0315517D02*
X0509500Y0315517D01*
X0509500Y0317116D02*
X0493800Y0317116D01*
X0493800Y0318714D02*
X0509500Y0318714D01*
X0509500Y0320313D02*
X0493800Y0320313D01*
X0493800Y0321911D02*
X0509500Y0321911D01*
X0509500Y0323510D02*
X0493800Y0323510D01*
X0493800Y0325108D02*
X0509500Y0325108D01*
X0509500Y0326707D02*
X0493800Y0326707D01*
X0493800Y0328305D02*
X0509500Y0328305D01*
X0509500Y0329904D02*
X0493800Y0329904D01*
X0493800Y0331502D02*
X0509500Y0331502D01*
X0509500Y0333101D02*
X0493800Y0333101D01*
X0493800Y0334699D02*
X0509500Y0334699D01*
X0509500Y0336298D02*
X0493800Y0336298D01*
X0494517Y0337896D02*
X0509500Y0337896D01*
X0509500Y0339495D02*
X0495180Y0339495D01*
X0495500Y0341093D02*
X0509500Y0341093D01*
X0509500Y0342692D02*
X0495500Y0342692D01*
X0495103Y0344290D02*
X0509500Y0344290D01*
X0509500Y0345889D02*
X0494441Y0345889D01*
X0493002Y0347487D02*
X0509500Y0347487D01*
X0509500Y0349086D02*
X0490331Y0349086D01*
X0485269Y0349086D02*
X0480331Y0349086D01*
X0475269Y0349086D02*
X0470331Y0349086D01*
X0465269Y0349086D02*
X0460331Y0349086D01*
X0455269Y0349086D02*
X0453800Y0349086D01*
X0453800Y0350684D02*
X0509500Y0350684D01*
X0508961Y0352283D02*
X0453800Y0352283D01*
X0453800Y0353881D02*
X0508961Y0353881D01*
X0508961Y0355480D02*
X0453800Y0355480D01*
X0453800Y0357078D02*
X0508961Y0357078D01*
X0508961Y0358677D02*
X0453800Y0358677D01*
X0453800Y0360275D02*
X0508961Y0360275D01*
X0509144Y0361874D02*
X0453800Y0361874D01*
X0453800Y0363472D02*
X0510138Y0363472D01*
X0523462Y0363472D02*
X0581200Y0363472D01*
X0581200Y0361874D02*
X0524456Y0361874D01*
X0524639Y0360275D02*
X0581200Y0360275D01*
X0581200Y0358677D02*
X0524639Y0358677D01*
X0524639Y0357078D02*
X0581200Y0357078D01*
X0581200Y0355480D02*
X0524639Y0355480D01*
X0524639Y0353881D02*
X0581200Y0353881D01*
X0581200Y0352283D02*
X0524639Y0352283D01*
X0524100Y0350684D02*
X0581200Y0350684D01*
X0581200Y0349086D02*
X0524100Y0349086D01*
X0524100Y0347487D02*
X0581200Y0347487D01*
X0581200Y0345889D02*
X0524100Y0345889D01*
X0524100Y0344290D02*
X0581200Y0344290D01*
X0581200Y0342692D02*
X0524100Y0342692D01*
X0524100Y0341093D02*
X0581200Y0341093D01*
X0581200Y0339495D02*
X0524100Y0339495D01*
X0524100Y0337896D02*
X0581200Y0337896D01*
X0581200Y0336298D02*
X0524100Y0336298D01*
X0524100Y0334699D02*
X0581200Y0334699D01*
X0581200Y0333101D02*
X0524100Y0333101D01*
X0524100Y0331502D02*
X0581200Y0331502D01*
X0581200Y0329904D02*
X0524100Y0329904D01*
X0524100Y0328305D02*
X0581200Y0328305D01*
X0581200Y0326707D02*
X0524100Y0326707D01*
X0524100Y0325108D02*
X0581200Y0325108D01*
X0581200Y0323510D02*
X0524100Y0323510D01*
X0524100Y0321911D02*
X0581200Y0321911D01*
X0581200Y0320313D02*
X0524100Y0320313D01*
X0524100Y0318714D02*
X0581200Y0318714D01*
X0581200Y0317116D02*
X0524100Y0317116D01*
X0524100Y0315517D02*
X0581200Y0315517D01*
X0581200Y0313919D02*
X0524100Y0313919D01*
X0524100Y0312320D02*
X0581200Y0312320D01*
X0581200Y0310722D02*
X0524100Y0310722D01*
X0524100Y0309123D02*
X0581200Y0309123D01*
X0581200Y0307525D02*
X0524100Y0307525D01*
X0524100Y0305926D02*
X0581200Y0305926D01*
X0581200Y0304328D02*
X0524100Y0304328D01*
X0524100Y0302729D02*
X0581200Y0302729D01*
X0581200Y0301131D02*
X0524100Y0301131D01*
X0524100Y0299532D02*
X0581200Y0299532D01*
X0581200Y0297934D02*
X0524100Y0297934D01*
X0524100Y0296335D02*
X0581200Y0296335D01*
X0581200Y0294737D02*
X0524100Y0294737D01*
X0524100Y0293138D02*
X0581200Y0293138D01*
X0581200Y0291539D02*
X0524100Y0291539D01*
X0524100Y0289941D02*
X0581200Y0289941D01*
X0581200Y0288342D02*
X0524100Y0288342D01*
X0524100Y0286744D02*
X0581200Y0286744D01*
X0581200Y0285145D02*
X0524100Y0285145D01*
X0524100Y0283547D02*
X0581200Y0283547D01*
X0581200Y0281948D02*
X0524100Y0281948D01*
X0524100Y0280350D02*
X0581200Y0280350D01*
X0581200Y0278751D02*
X0524100Y0278751D01*
X0524100Y0277153D02*
X0581200Y0277153D01*
X0581200Y0275554D02*
X0524100Y0275554D01*
X0524100Y0273956D02*
X0581200Y0273956D01*
X0581200Y0272357D02*
X0524100Y0272357D01*
X0524100Y0270759D02*
X0581200Y0270759D01*
X0581200Y0269160D02*
X0524100Y0269160D01*
X0524100Y0267562D02*
X0581200Y0267562D01*
X0581200Y0265963D02*
X0524100Y0265963D01*
X0524100Y0264365D02*
X0581200Y0264365D01*
X0581200Y0262766D02*
X0524100Y0262766D01*
X0524100Y0261168D02*
X0581200Y0261168D01*
X0581200Y0259569D02*
X0524100Y0259569D01*
X0524100Y0257971D02*
X0581200Y0257971D01*
X0581200Y0256372D02*
X0524100Y0256372D01*
X0524100Y0254774D02*
X0581200Y0254774D01*
X0581200Y0253175D02*
X0524100Y0253175D01*
X0524100Y0251577D02*
X0581200Y0251577D01*
X0581200Y0249978D02*
X0524100Y0249978D01*
X0524100Y0248380D02*
X0581200Y0248380D01*
X0581200Y0246781D02*
X0524100Y0246781D01*
X0524100Y0245183D02*
X0581200Y0245183D01*
X0581200Y0243584D02*
X0524100Y0243584D01*
X0524100Y0241986D02*
X0581200Y0241986D01*
X0581200Y0240387D02*
X0524100Y0240387D01*
X0524100Y0238789D02*
X0581200Y0238789D01*
X0581200Y0237190D02*
X0524100Y0237190D01*
X0524100Y0235592D02*
X0581200Y0235592D01*
X0581200Y0233993D02*
X0524100Y0233993D01*
X0524100Y0232395D02*
X0581200Y0232395D01*
X0581200Y0230796D02*
X0524100Y0230796D01*
X0524100Y0229198D02*
X0581200Y0229198D01*
X0581200Y0227599D02*
X0524100Y0227599D01*
X0524100Y0226001D02*
X0581200Y0226001D01*
X0581200Y0224402D02*
X0524100Y0224402D01*
X0524100Y0222803D02*
X0581200Y0222803D01*
X0581200Y0221205D02*
X0524100Y0221205D01*
X0523793Y0219606D02*
X0581200Y0219606D01*
X0581200Y0218008D02*
X0523131Y0218008D01*
X0521733Y0216409D02*
X0581200Y0216409D01*
X0581200Y0214811D02*
X0519003Y0214811D01*
X0509500Y0229198D02*
X0276299Y0229198D01*
X0276800Y0230796D02*
X0509500Y0230796D01*
X0509500Y0232395D02*
X0276800Y0232395D01*
X0276468Y0233993D02*
X0509500Y0233993D01*
X0509500Y0235592D02*
X0275806Y0235592D01*
X0275090Y0237190D02*
X0509500Y0237190D01*
X0509500Y0238789D02*
X0276129Y0238789D01*
X0276791Y0240387D02*
X0509500Y0240387D01*
X0509500Y0241986D02*
X0276800Y0241986D01*
X0276638Y0243584D02*
X0509500Y0243584D01*
X0509500Y0245183D02*
X0275976Y0245183D01*
X0274718Y0246781D02*
X0509500Y0246781D01*
X0509500Y0248380D02*
X0275960Y0248380D01*
X0276622Y0249978D02*
X0509500Y0249978D01*
X0509500Y0251577D02*
X0276800Y0251577D01*
X0276800Y0253175D02*
X0509500Y0253175D01*
X0509500Y0254774D02*
X0276145Y0254774D01*
X0275127Y0256372D02*
X0509500Y0256372D01*
X0471686Y0269160D02*
X0413201Y0269160D01*
X0413800Y0270759D02*
X0469544Y0270759D01*
X0468961Y0272357D02*
X0413800Y0272357D01*
X0413800Y0273956D02*
X0468961Y0273956D01*
X0468961Y0275554D02*
X0413800Y0275554D01*
X0413800Y0277153D02*
X0468961Y0277153D01*
X0468961Y0278751D02*
X0413800Y0278751D01*
X0413800Y0280350D02*
X0468961Y0280350D01*
X0469174Y0281948D02*
X0413800Y0281948D01*
X0413800Y0283547D02*
X0470213Y0283547D01*
X0470800Y0285145D02*
X0413800Y0285145D01*
X0413800Y0286744D02*
X0470800Y0286744D01*
X0470800Y0288342D02*
X0413800Y0288342D01*
X0413800Y0289941D02*
X0470800Y0289941D01*
X0470800Y0291539D02*
X0413800Y0291539D01*
X0413800Y0293138D02*
X0470800Y0293138D01*
X0470800Y0294737D02*
X0413800Y0294737D01*
X0413800Y0296335D02*
X0470800Y0296335D01*
X0470800Y0297934D02*
X0413800Y0297934D01*
X0413800Y0299532D02*
X0470800Y0299532D01*
X0470800Y0301131D02*
X0413800Y0301131D01*
X0413800Y0302729D02*
X0470800Y0302729D01*
X0470800Y0304328D02*
X0413800Y0304328D01*
X0413800Y0305926D02*
X0470800Y0305926D01*
X0470800Y0307525D02*
X0413800Y0307525D01*
X0413800Y0309123D02*
X0470800Y0309123D01*
X0470800Y0310722D02*
X0413800Y0310722D01*
X0413800Y0312320D02*
X0470800Y0312320D01*
X0470800Y0313919D02*
X0413800Y0313919D01*
X0413800Y0315517D02*
X0470800Y0315517D01*
X0470800Y0317116D02*
X0413800Y0317116D01*
X0413800Y0318714D02*
X0470800Y0318714D01*
X0470800Y0320313D02*
X0413800Y0320313D01*
X0413800Y0321911D02*
X0470800Y0321911D01*
X0470800Y0323510D02*
X0413800Y0323510D01*
X0413800Y0325108D02*
X0470800Y0325108D01*
X0470800Y0326707D02*
X0413800Y0326707D01*
X0413800Y0328305D02*
X0470800Y0328305D01*
X0470800Y0329904D02*
X0413800Y0329904D01*
X0413800Y0331502D02*
X0470800Y0331502D01*
X0470800Y0333101D02*
X0413800Y0333101D01*
X0413800Y0334699D02*
X0414822Y0334699D01*
X0420778Y0334699D02*
X0424822Y0334699D01*
X0430778Y0334699D02*
X0434822Y0334699D01*
X0440778Y0334699D02*
X0444822Y0334699D01*
X0450778Y0334699D02*
X0454822Y0334699D01*
X0460778Y0334699D02*
X0464822Y0334699D01*
X0470778Y0334699D02*
X0470800Y0334699D01*
X0453800Y0365071D02*
X0581200Y0365071D01*
X0581200Y0366670D02*
X0453800Y0366670D01*
X0453800Y0368268D02*
X0581200Y0368268D01*
X0581200Y0369867D02*
X0453800Y0369867D01*
X0453800Y0371465D02*
X0581200Y0371465D01*
X0581200Y0373064D02*
X0453800Y0373064D01*
X0453800Y0374662D02*
X0581200Y0374662D01*
X0581200Y0376261D02*
X0453800Y0376261D01*
X0453800Y0377859D02*
X0581200Y0377859D01*
X0581200Y0379458D02*
X0453800Y0379458D01*
X0453800Y0381056D02*
X0581200Y0381056D01*
X0581200Y0382655D02*
X0453800Y0382655D01*
X0453800Y0384253D02*
X0581200Y0384253D01*
X0581200Y0385852D02*
X0453800Y0385852D01*
X0453800Y0387450D02*
X0581200Y0387450D01*
X0581200Y0389049D02*
X0453800Y0389049D01*
X0453800Y0390647D02*
X0581200Y0390647D01*
X0581200Y0392246D02*
X0453800Y0392246D01*
X0453800Y0393844D02*
X0581200Y0393844D01*
X0581200Y0395443D02*
X0453800Y0395443D01*
X0453800Y0397041D02*
X0566504Y0397041D01*
X0564264Y0398640D02*
X0453532Y0398640D01*
X0452847Y0400238D02*
X0562772Y0400238D01*
X0561849Y0401837D02*
X0451248Y0401837D01*
X0437871Y0403435D02*
X0561211Y0403435D01*
X0560782Y0405034D02*
X0436466Y0405034D01*
X0577096Y0397041D02*
X0581200Y0397041D01*
X0581200Y0398640D02*
X0579336Y0398640D01*
X0580828Y0400238D02*
X0581200Y0400238D01*
X0417275Y0227599D02*
X0275498Y0227599D01*
X0275499Y0226001D02*
X0415677Y0226001D01*
X0414976Y0224402D02*
X0276299Y0224402D01*
X0276800Y0222803D02*
X0414500Y0222803D01*
X0414500Y0221205D02*
X0276800Y0221205D01*
X0276468Y0219606D02*
X0414500Y0219606D01*
X0414500Y0218008D02*
X0275806Y0218008D01*
X0275090Y0216409D02*
X0414500Y0216409D01*
X0414500Y0214811D02*
X0276130Y0214811D01*
X0276792Y0213212D02*
X0414500Y0213212D01*
X0414500Y0211614D02*
X0276800Y0211614D01*
X0276638Y0210015D02*
X0414500Y0210015D01*
X0414500Y0208417D02*
X0275975Y0208417D01*
X0274718Y0206818D02*
X0414500Y0206818D01*
X0414500Y0205220D02*
X0275960Y0205220D01*
X0276622Y0203621D02*
X0414500Y0203621D01*
X0414500Y0202023D02*
X0276800Y0202023D01*
X0276800Y0200424D02*
X0414500Y0200424D01*
X0414500Y0198826D02*
X0276145Y0198826D01*
X0275127Y0197227D02*
X0414500Y0197227D01*
X0414500Y0195629D02*
X0275791Y0195629D01*
X0276453Y0194030D02*
X0414500Y0194030D01*
X0414500Y0192432D02*
X0276800Y0192432D01*
X0276800Y0190833D02*
X0414500Y0190833D01*
X0414500Y0189235D02*
X0276314Y0189235D01*
X0275536Y0187636D02*
X0414500Y0187636D01*
X0414500Y0186038D02*
X0273937Y0186038D01*
X0273816Y0184439D02*
X0414500Y0184439D01*
X0414500Y0182841D02*
X0274495Y0182841D01*
X0274600Y0181600D02*
X0267000Y0181600D01*
X0267000Y0177000D01*
X0270178Y0177000D01*
X0270924Y0177118D01*
X0271643Y0177352D01*
X0272316Y0177695D01*
X0272927Y0178139D01*
X0273461Y0178673D01*
X0273905Y0179284D01*
X0274248Y0179957D01*
X0274482Y0180676D01*
X0274600Y0181422D01*
X0274600Y0181600D01*
X0274571Y0181242D02*
X0414500Y0181242D01*
X0414500Y0179644D02*
X0274088Y0179644D01*
X0272798Y0178045D02*
X0414500Y0178045D01*
X0429100Y0192432D02*
X0429718Y0192432D01*
X0429100Y0194030D02*
X0581200Y0194030D01*
X0581200Y0192432D02*
X0558882Y0192432D01*
X0561252Y0190833D02*
X0581200Y0190833D01*
X0581200Y0189235D02*
X0562286Y0189235D01*
X0562800Y0187636D02*
X0581200Y0187636D01*
X0581200Y0186038D02*
X0562800Y0186038D01*
X0562800Y0184439D02*
X0581200Y0184439D01*
X0581200Y0182841D02*
X0562800Y0182841D01*
X0562800Y0181242D02*
X0581200Y0181242D01*
X0581200Y0179644D02*
X0562800Y0179644D01*
X0562800Y0178045D02*
X0581200Y0178045D01*
X0581200Y0176447D02*
X0562800Y0176447D01*
X0562800Y0174848D02*
X0581200Y0174848D01*
X0581200Y0173250D02*
X0562800Y0173250D01*
X0562800Y0171651D02*
X0581200Y0171651D01*
X0581200Y0170053D02*
X0562800Y0170053D01*
X0562800Y0168454D02*
X0581200Y0168454D01*
X0581200Y0166856D02*
X0562800Y0166856D01*
X0562800Y0165257D02*
X0581200Y0165257D01*
X0581200Y0163659D02*
X0562800Y0163659D01*
X0562800Y0162060D02*
X0581200Y0162060D01*
X0581200Y0160462D02*
X0562800Y0160462D01*
X0562800Y0158863D02*
X0581200Y0158863D01*
X0581200Y0157265D02*
X0562800Y0157265D01*
X0562800Y0155666D02*
X0581200Y0155666D01*
X0581200Y0154068D02*
X0562800Y0154068D01*
X0562800Y0152469D02*
X0581200Y0152469D01*
X0581200Y0150870D02*
X0562800Y0150870D01*
X0562800Y0149272D02*
X0581200Y0149272D01*
X0581200Y0147673D02*
X0562800Y0147673D01*
X0562800Y0146075D02*
X0581200Y0146075D01*
X0581200Y0144476D02*
X0562800Y0144476D01*
X0562800Y0142878D02*
X0581200Y0142878D01*
X0581200Y0141279D02*
X0562800Y0141279D01*
X0562800Y0139681D02*
X0581200Y0139681D01*
X0581200Y0138082D02*
X0562800Y0138082D01*
X0562800Y0136484D02*
X0564644Y0136484D01*
X0568956Y0136484D02*
X0581200Y0136484D01*
X0581200Y0134885D02*
X0571614Y0134885D01*
X0572932Y0133287D02*
X0581200Y0133287D01*
X0581200Y0131688D02*
X0573595Y0131688D01*
X0573800Y0130090D02*
X0581200Y0130090D01*
X0581200Y0128491D02*
X0573800Y0128491D01*
X0573800Y0126893D02*
X0581200Y0126893D01*
X0581200Y0125294D02*
X0573800Y0125294D01*
X0573800Y0123696D02*
X0581200Y0123696D01*
X0581200Y0122097D02*
X0573671Y0122097D01*
X0573009Y0120499D02*
X0581200Y0120499D01*
X0581200Y0118900D02*
X0572800Y0118900D01*
X0572800Y0117302D02*
X0581200Y0117302D01*
X0581200Y0115703D02*
X0572800Y0115703D01*
X0572800Y0114105D02*
X0581200Y0114105D01*
X0581200Y0112506D02*
X0572800Y0112506D01*
X0572800Y0110908D02*
X0581200Y0110908D01*
X0581200Y0109309D02*
X0572800Y0109309D01*
X0572800Y0107711D02*
X0581200Y0107711D01*
X0581200Y0106112D02*
X0572800Y0106112D01*
X0572800Y0104514D02*
X0581200Y0104514D01*
X0581200Y0102915D02*
X0572800Y0102915D01*
X0572800Y0101317D02*
X0581200Y0101317D01*
X0581200Y0099718D02*
X0572800Y0099718D01*
X0572800Y0098120D02*
X0581200Y0098120D01*
X0581200Y0096521D02*
X0572800Y0096521D01*
X0572800Y0094923D02*
X0581200Y0094923D01*
X0581200Y0093324D02*
X0572800Y0093324D01*
X0572800Y0091726D02*
X0581200Y0091726D01*
X0581200Y0090127D02*
X0572800Y0090127D01*
X0572800Y0088529D02*
X0581200Y0088529D01*
X0581200Y0086930D02*
X0572800Y0086930D01*
X0572800Y0085332D02*
X0581200Y0085332D01*
X0581200Y0083733D02*
X0572800Y0083733D01*
X0572800Y0082134D02*
X0581200Y0082134D01*
X0581200Y0080536D02*
X0572800Y0080536D01*
X0572800Y0078937D02*
X0581200Y0078937D01*
X0581200Y0077339D02*
X0572800Y0077339D01*
X0572800Y0075740D02*
X0581200Y0075740D01*
X0581200Y0074142D02*
X0572800Y0074142D01*
X0572800Y0072543D02*
X0581200Y0072543D01*
X0581200Y0070945D02*
X0572800Y0070945D01*
X0572800Y0069346D02*
X0581200Y0069346D01*
X0581200Y0067748D02*
X0572800Y0067748D01*
X0572800Y0066149D02*
X0581200Y0066149D01*
X0581200Y0064551D02*
X0572800Y0064551D01*
X0572800Y0062952D02*
X0581200Y0062952D01*
X0581200Y0061354D02*
X0572800Y0061354D01*
X0572800Y0059755D02*
X0581200Y0059755D01*
X0581200Y0058157D02*
X0572800Y0058157D01*
X0572800Y0056558D02*
X0581200Y0056558D01*
X0581200Y0054960D02*
X0572800Y0054960D01*
X0572800Y0053361D02*
X0581200Y0053361D01*
X0581200Y0051763D02*
X0572800Y0051763D01*
X0572800Y0050164D02*
X0581200Y0050164D01*
X0581200Y0048566D02*
X0572800Y0048566D01*
X0572800Y0046967D02*
X0581200Y0046967D01*
X0581200Y0045369D02*
X0572800Y0045369D01*
X0573400Y0043770D02*
X0581200Y0043770D01*
X0581200Y0042172D02*
X0573400Y0042172D01*
X0573400Y0040573D02*
X0581200Y0040573D01*
X0581200Y0038975D02*
X0573308Y0038975D01*
X0575213Y0037376D02*
X0581200Y0037376D01*
X0581200Y0035778D02*
X0578449Y0035778D01*
X0580117Y0034179D02*
X0581200Y0034179D01*
X0563483Y0034179D02*
X0439639Y0034179D01*
X0439639Y0032581D02*
X0562321Y0032581D01*
X0561430Y0030982D02*
X0439639Y0030982D01*
X0439639Y0029384D02*
X0561002Y0029384D01*
X0560701Y0027785D02*
X0439639Y0027785D01*
X0439233Y0026187D02*
X0560701Y0026187D01*
X0560902Y0024588D02*
X0437922Y0024588D01*
X0439639Y0035778D02*
X0563489Y0035778D01*
X0561890Y0037376D02*
X0439248Y0037376D01*
X0437959Y0038975D02*
X0533403Y0038975D01*
X0532400Y0039977D02*
X0534977Y0037400D01*
X0536800Y0037400D01*
X0536800Y0041800D01*
X0532400Y0041800D01*
X0532400Y0039977D01*
X0532400Y0040573D02*
X0437800Y0040573D01*
X0437800Y0042172D02*
X0469510Y0042172D01*
X0466930Y0043770D02*
X0437800Y0043770D01*
X0437800Y0045369D02*
X0465645Y0045369D01*
X0464982Y0046967D02*
X0437800Y0046967D01*
X0437800Y0048566D02*
X0464800Y0048566D01*
X0464576Y0050164D02*
X0437800Y0050164D01*
X0437800Y0051763D02*
X0464500Y0051763D01*
X0464500Y0053361D02*
X0446261Y0053361D01*
X0447786Y0054960D02*
X0464500Y0054960D01*
X0464500Y0056558D02*
X0448448Y0056558D01*
X0448800Y0058157D02*
X0464500Y0058157D01*
X0476670Y0043770D02*
X0476930Y0043770D01*
X0479510Y0042172D02*
X0474090Y0042172D01*
X0484090Y0042172D02*
X0489510Y0042172D01*
X0486930Y0043770D02*
X0486670Y0043770D01*
X0494090Y0042172D02*
X0499510Y0042172D01*
X0496930Y0043770D02*
X0496670Y0043770D01*
X0504090Y0042172D02*
X0509510Y0042172D01*
X0506930Y0043770D02*
X0506670Y0043770D01*
X0514090Y0042172D02*
X0532400Y0042172D01*
X0532548Y0043770D02*
X0516670Y0043770D01*
X0517955Y0045369D02*
X0534146Y0045369D01*
X0539454Y0045369D02*
X0560800Y0045369D01*
X0560800Y0046967D02*
X0560453Y0046967D01*
X0560200Y0043770D02*
X0541052Y0043770D01*
X0541200Y0042172D02*
X0560200Y0042172D01*
X0560200Y0040573D02*
X0541200Y0040573D01*
X0540197Y0038975D02*
X0560291Y0038975D01*
X0536800Y0038975D02*
X0536800Y0038975D01*
X0536800Y0040573D02*
X0536800Y0040573D01*
X0509500Y0134885D02*
X0469182Y0134885D01*
X0471808Y0136484D02*
X0509500Y0136484D01*
X0509500Y0138082D02*
X0473162Y0138082D01*
X0473824Y0139681D02*
X0509500Y0139681D01*
X0509500Y0141279D02*
X0474100Y0141279D01*
X0474100Y0142878D02*
X0509500Y0142878D01*
X0509500Y0144476D02*
X0474100Y0144476D01*
X0474100Y0146075D02*
X0509413Y0146075D01*
X0508961Y0147673D02*
X0474100Y0147673D01*
X0474100Y0149272D02*
X0508961Y0149272D01*
X0508961Y0150870D02*
X0474100Y0150870D01*
X0474100Y0152469D02*
X0508961Y0152469D01*
X0508961Y0154068D02*
X0474100Y0154068D01*
X0474100Y0155666D02*
X0508961Y0155666D01*
X0509305Y0157265D02*
X0474100Y0157265D01*
X0474100Y0158863D02*
X0510529Y0158863D01*
X0581200Y0195629D02*
X0429100Y0195629D01*
X0429100Y0197227D02*
X0581200Y0197227D01*
X0581200Y0198826D02*
X0429100Y0198826D01*
X0429100Y0200424D02*
X0581200Y0200424D01*
X0581200Y0202023D02*
X0429100Y0202023D01*
X0429100Y0203621D02*
X0581200Y0203621D01*
X0581200Y0205220D02*
X0429100Y0205220D01*
X0429100Y0206818D02*
X0581200Y0206818D01*
X0581200Y0208417D02*
X0429100Y0208417D01*
X0429100Y0210015D02*
X0581200Y0210015D01*
X0581200Y0211614D02*
X0429100Y0211614D01*
X0429100Y0213212D02*
X0581200Y0213212D01*
X0414500Y0144476D02*
X0414240Y0144476D01*
X0388731Y0158863D02*
X0384869Y0158863D01*
X0305800Y0138082D02*
X0174100Y0138082D01*
X0174100Y0136484D02*
X0305800Y0136484D01*
X0305800Y0134885D02*
X0174100Y0134885D01*
X0174100Y0133287D02*
X0305800Y0133287D01*
X0305800Y0131688D02*
X0174100Y0131688D01*
X0173993Y0130090D02*
X0305800Y0130090D01*
X0305800Y0128491D02*
X0173331Y0128491D01*
X0172217Y0126893D02*
X0305800Y0126893D01*
X0305800Y0125294D02*
X0170170Y0125294D01*
X0174100Y0144476D02*
X0199360Y0144476D01*
X0196636Y0146075D02*
X0174100Y0146075D01*
X0174100Y0147673D02*
X0195175Y0147673D01*
X0194513Y0149272D02*
X0174100Y0149272D01*
X0174100Y0150870D02*
X0194100Y0150870D01*
X0194100Y0152469D02*
X0174100Y0152469D01*
X0174100Y0154068D02*
X0194405Y0154068D01*
X0204240Y0144476D02*
X0209360Y0144476D01*
X0214240Y0144476D02*
X0219360Y0144476D01*
X0224240Y0144476D02*
X0229360Y0144476D01*
X0234240Y0144476D02*
X0239360Y0144476D01*
X0244240Y0144476D02*
X0249360Y0144476D01*
X0254240Y0144476D02*
X0259360Y0144476D01*
X0264240Y0144476D02*
X0269360Y0144476D01*
X0268731Y0158863D02*
X0264869Y0158863D01*
X0258731Y0158863D02*
X0254869Y0158863D01*
X0248731Y0158863D02*
X0248485Y0158863D01*
X0266600Y0178045D02*
X0267000Y0178045D01*
X0267000Y0179644D02*
X0266600Y0179644D01*
X0266600Y0181242D02*
X0267000Y0181242D01*
X0234500Y0197227D02*
X0234310Y0197227D01*
X0234500Y0198826D02*
X0233108Y0198826D01*
X0234500Y0200424D02*
X0229639Y0200424D01*
X0229639Y0202023D02*
X0234500Y0202023D01*
X0234500Y0203621D02*
X0229639Y0203621D01*
X0229639Y0205220D02*
X0234500Y0205220D01*
X0234500Y0206818D02*
X0229495Y0206818D01*
X0229639Y0208417D02*
X0234500Y0208417D01*
X0234500Y0210015D02*
X0229639Y0210015D01*
X0229639Y0211614D02*
X0234500Y0211614D01*
X0234500Y0213212D02*
X0229639Y0213212D01*
X0305800Y0123696D02*
X0079100Y0123696D01*
X0079100Y0122097D02*
X0305175Y0122097D01*
X0304800Y0120499D02*
X0079100Y0120499D01*
X0079100Y0118900D02*
X0080566Y0118900D01*
X0079321Y0117302D02*
X0079100Y0117302D01*
X0079100Y0106112D02*
X0079398Y0106112D01*
X0079500Y0104514D02*
X0079100Y0104514D01*
X0079100Y0102915D02*
X0079500Y0102915D01*
X0079500Y0101317D02*
X0079100Y0101317D01*
X0079100Y0099718D02*
X0079500Y0099718D01*
X0079500Y0098120D02*
X0079100Y0098120D01*
X0079100Y0096521D02*
X0079500Y0096521D01*
X0079676Y0094923D02*
X0079100Y0094923D01*
X0079100Y0093324D02*
X0080338Y0093324D01*
X0081551Y0091726D02*
X0079100Y0091726D01*
X0079100Y0090127D02*
X0083834Y0090127D01*
X0079100Y0088529D02*
X0097172Y0088529D01*
X0100094Y0086930D02*
X0079100Y0086930D01*
X0079093Y0085332D02*
X0274507Y0085332D01*
X0274500Y0086930D02*
X0123506Y0086930D01*
X0126428Y0088529D02*
X0274500Y0088529D01*
X0275169Y0083733D02*
X0078800Y0083733D01*
X0078687Y0082134D02*
X0276142Y0082134D01*
X0277847Y0080536D02*
X0078025Y0080536D01*
X0076837Y0078937D02*
X0393961Y0078937D01*
X0393961Y0077339D02*
X0074494Y0077339D01*
X0069106Y0077339D02*
X0069100Y0077339D01*
X0069100Y0075740D02*
X0393961Y0075740D01*
X0393961Y0074142D02*
X0069100Y0074142D01*
X0069179Y0072543D02*
X0393961Y0072543D01*
X0394467Y0070945D02*
X0069639Y0070945D01*
X0069639Y0069346D02*
X0390259Y0069346D01*
X0391600Y0069346D02*
X0392000Y0069346D01*
X0393341Y0069346D02*
X0395800Y0069346D01*
X0392000Y0067748D02*
X0391600Y0067748D01*
X0391600Y0066149D02*
X0392000Y0066149D01*
X0392000Y0064551D02*
X0391600Y0064551D01*
X0391600Y0062952D02*
X0392000Y0062952D01*
X0387000Y0062952D02*
X0069639Y0062952D01*
X0069639Y0064551D02*
X0387000Y0064551D01*
X0387191Y0066149D02*
X0069639Y0066149D01*
X0069639Y0067748D02*
X0388009Y0067748D01*
X0387000Y0061354D02*
X0069302Y0061354D01*
X0068089Y0059755D02*
X0387000Y0059755D01*
X0387042Y0058157D02*
X0198777Y0058157D01*
X0120094Y0086930D02*
X0103506Y0086930D01*
X0106428Y0088529D02*
X0117172Y0088529D01*
X0115745Y0090127D02*
X0114911Y0090127D01*
X0112000Y0090127D02*
X0111600Y0090127D01*
X0111600Y0091726D02*
X0112000Y0091726D01*
X0112000Y0093324D02*
X0111600Y0093324D01*
X0111600Y0094923D02*
X0112000Y0094923D01*
X0112000Y0096521D02*
X0111600Y0096521D01*
X0108689Y0090127D02*
X0107855Y0090127D01*
X0064500Y0117302D02*
X0064279Y0117302D01*
X0064500Y0118900D02*
X0063034Y0118900D01*
X0029500Y0096521D02*
X0028866Y0096521D01*
X0023387Y0037376D02*
X0017400Y0037376D01*
X0017400Y0035778D02*
X0020151Y0035778D01*
X0018483Y0034179D02*
X0017400Y0034179D01*
X0286009Y0102915D02*
X0289500Y0102915D01*
X0289500Y0101317D02*
X0287607Y0101317D01*
X0288493Y0099718D02*
X0289761Y0099718D01*
X0289100Y0098120D02*
X0290423Y0098120D01*
X0289100Y0096521D02*
X0291755Y0096521D01*
X0294328Y0094923D02*
X0289100Y0094923D01*
X0304100Y0109309D02*
X0306391Y0109309D01*
X0305421Y0110908D02*
X0304100Y0110908D01*
X0304100Y0112506D02*
X0304800Y0112506D01*
X0304800Y0114105D02*
X0303747Y0114105D01*
X0303085Y0115703D02*
X0304800Y0115703D01*
X0304800Y0117302D02*
X0301622Y0117302D01*
X0298734Y0118900D02*
X0304800Y0118900D01*
X0205800Y0382655D02*
X0159443Y0382655D01*
X0158788Y0382000D02*
X0161600Y0384812D01*
X0161600Y0386600D01*
X0157000Y0386600D01*
X0157000Y0387000D01*
X0161600Y0387000D01*
X0161600Y0388788D01*
X0158788Y0391600D01*
X0157000Y0391600D01*
X0157000Y0387000D01*
X0156600Y0387000D01*
X0156600Y0391600D01*
X0154812Y0391600D01*
X0152000Y0388788D01*
X0152000Y0387000D01*
X0156600Y0387000D01*
X0156600Y0386600D01*
X0157000Y0386600D01*
X0157000Y0382000D01*
X0158788Y0382000D01*
X0157000Y0382655D02*
X0156600Y0382655D01*
X0156600Y0382000D02*
X0156600Y0386600D01*
X0152000Y0386600D01*
X0152000Y0384812D01*
X0154812Y0382000D01*
X0156600Y0382000D01*
X0156600Y0384253D02*
X0157000Y0384253D01*
X0157000Y0385852D02*
X0156600Y0385852D01*
X0156600Y0387450D02*
X0157000Y0387450D01*
X0157000Y0389049D02*
X0156600Y0389049D01*
X0156600Y0390647D02*
X0157000Y0390647D01*
X0157000Y0392000D02*
X0158788Y0392000D01*
X0161600Y0394812D01*
X0161600Y0396600D01*
X0157000Y0396600D01*
X0157000Y0397000D01*
X0161600Y0397000D01*
X0161600Y0398788D01*
X0158788Y0401600D01*
X0157000Y0401600D01*
X0157000Y0397000D01*
X0156600Y0397000D01*
X0156600Y0401600D01*
X0154812Y0401600D01*
X0152000Y0398788D01*
X0152000Y0397000D01*
X0156600Y0397000D01*
X0156600Y0396600D01*
X0157000Y0396600D01*
X0157000Y0392000D01*
X0157000Y0392246D02*
X0156600Y0392246D01*
X0156600Y0392000D02*
X0156600Y0396600D01*
X0152000Y0396600D01*
X0152000Y0394812D01*
X0154812Y0392000D01*
X0156600Y0392000D01*
X0156600Y0393844D02*
X0157000Y0393844D01*
X0157000Y0395443D02*
X0156600Y0395443D01*
X0156600Y0397041D02*
X0157000Y0397041D01*
X0157000Y0398640D02*
X0156600Y0398640D01*
X0156600Y0400238D02*
X0157000Y0400238D01*
X0160150Y0400238D02*
X0204800Y0400238D01*
X0204800Y0398640D02*
X0161600Y0398640D01*
X0161600Y0397041D02*
X0204800Y0397041D01*
X0204800Y0395443D02*
X0161600Y0395443D01*
X0160632Y0393844D02*
X0204800Y0393844D01*
X0204867Y0392246D02*
X0159034Y0392246D01*
X0159741Y0390647D02*
X0205529Y0390647D01*
X0205800Y0389049D02*
X0161340Y0389049D01*
X0161600Y0387450D02*
X0205800Y0387450D01*
X0205800Y0385852D02*
X0161600Y0385852D01*
X0161041Y0384253D02*
X0205800Y0384253D01*
X0216466Y0405034D02*
X0217134Y0405034D01*
X0220003Y0406632D02*
X0213597Y0406632D01*
X0223597Y0406632D02*
X0230003Y0406632D01*
X0227134Y0405034D02*
X0226466Y0405034D01*
X0233597Y0406632D02*
X0240003Y0406632D01*
X0237134Y0405034D02*
X0236466Y0405034D01*
X0243597Y0406632D02*
X0250003Y0406632D01*
X0247134Y0405034D02*
X0246466Y0405034D01*
X0253597Y0406632D02*
X0260003Y0406632D01*
X0257134Y0405034D02*
X0256466Y0405034D01*
X0263597Y0406632D02*
X0270003Y0406632D01*
X0267134Y0405034D02*
X0266466Y0405034D01*
X0273597Y0406632D02*
X0280003Y0406632D01*
X0277134Y0405034D02*
X0276466Y0405034D01*
X0154566Y0392246D02*
X0149034Y0392246D01*
X0148788Y0392000D02*
X0151600Y0394812D01*
X0151600Y0396600D01*
X0147000Y0396600D01*
X0147000Y0397000D01*
X0151600Y0397000D01*
X0151600Y0398788D01*
X0148788Y0401600D01*
X0147000Y0401600D01*
X0147000Y0397000D01*
X0146600Y0397000D01*
X0146600Y0401600D01*
X0144812Y0401600D01*
X0142000Y0398788D01*
X0142000Y0397000D01*
X0146600Y0397000D01*
X0146600Y0396600D01*
X0147000Y0396600D01*
X0147000Y0392000D01*
X0148788Y0392000D01*
X0148788Y0391600D02*
X0147000Y0391600D01*
X0147000Y0387000D01*
X0151600Y0387000D01*
X0151600Y0388788D01*
X0148788Y0391600D01*
X0149741Y0390647D02*
X0153859Y0390647D01*
X0152260Y0389049D02*
X0151340Y0389049D01*
X0151600Y0387450D02*
X0152000Y0387450D01*
X0151600Y0386600D02*
X0147000Y0386600D01*
X0147000Y0387000D01*
X0146600Y0387000D01*
X0146600Y0391600D01*
X0144812Y0391600D01*
X0142000Y0388788D01*
X0142000Y0387000D01*
X0146600Y0387000D01*
X0146600Y0386600D01*
X0147000Y0386600D01*
X0147000Y0382000D01*
X0148788Y0382000D01*
X0151600Y0384812D01*
X0151600Y0386600D01*
X0151600Y0385852D02*
X0152000Y0385852D01*
X0152559Y0384253D02*
X0151041Y0384253D01*
X0149443Y0382655D02*
X0154157Y0382655D01*
X0147000Y0382655D02*
X0146600Y0382655D01*
X0146600Y0382000D02*
X0146600Y0386600D01*
X0142000Y0386600D01*
X0142000Y0384812D01*
X0144812Y0382000D01*
X0146600Y0382000D01*
X0146600Y0384253D02*
X0147000Y0384253D01*
X0147000Y0385852D02*
X0146600Y0385852D01*
X0146600Y0387450D02*
X0147000Y0387450D01*
X0147000Y0389049D02*
X0146600Y0389049D01*
X0146600Y0390647D02*
X0147000Y0390647D01*
X0146600Y0392000D02*
X0146600Y0396600D01*
X0142000Y0396600D01*
X0142000Y0394812D01*
X0144812Y0392000D01*
X0146600Y0392000D01*
X0146600Y0392246D02*
X0147000Y0392246D01*
X0147000Y0393844D02*
X0146600Y0393844D01*
X0146600Y0395443D02*
X0147000Y0395443D01*
X0147000Y0397041D02*
X0146600Y0397041D01*
X0146600Y0398640D02*
X0147000Y0398640D01*
X0147000Y0400238D02*
X0146600Y0400238D01*
X0143450Y0400238D02*
X0140150Y0400238D01*
X0138788Y0401600D02*
X0137000Y0401600D01*
X0137000Y0397000D01*
X0141600Y0397000D01*
X0141600Y0398788D01*
X0138788Y0401600D01*
X0136600Y0401600D02*
X0136600Y0397000D01*
X0137000Y0397000D01*
X0137000Y0396600D01*
X0141600Y0396600D01*
X0141600Y0394812D01*
X0138788Y0392000D01*
X0137000Y0392000D01*
X0137000Y0396600D01*
X0136600Y0396600D01*
X0136600Y0392000D01*
X0134812Y0392000D01*
X0132000Y0394812D01*
X0132000Y0396600D01*
X0136600Y0396600D01*
X0136600Y0397000D01*
X0132000Y0397000D01*
X0132000Y0398788D01*
X0134812Y0401600D01*
X0136600Y0401600D01*
X0136600Y0400238D02*
X0137000Y0400238D01*
X0137000Y0398640D02*
X0136600Y0398640D01*
X0136600Y0397041D02*
X0137000Y0397041D01*
X0137000Y0395443D02*
X0136600Y0395443D01*
X0136600Y0393844D02*
X0137000Y0393844D01*
X0137000Y0392246D02*
X0136600Y0392246D01*
X0136600Y0391600D02*
X0134812Y0391600D01*
X0132000Y0388788D01*
X0132000Y0387000D01*
X0136600Y0387000D01*
X0136600Y0391600D01*
X0137000Y0391600D02*
X0138788Y0391600D01*
X0141600Y0388788D01*
X0141600Y0387000D01*
X0137000Y0387000D01*
X0137000Y0386600D01*
X0141600Y0386600D01*
X0141600Y0384812D01*
X0138788Y0382000D01*
X0137000Y0382000D01*
X0137000Y0386600D01*
X0136600Y0386600D01*
X0136600Y0382000D01*
X0134812Y0382000D01*
X0132000Y0384812D01*
X0132000Y0386600D01*
X0136600Y0386600D01*
X0136600Y0387000D01*
X0137000Y0387000D01*
X0137000Y0391600D01*
X0137000Y0390647D02*
X0136600Y0390647D01*
X0136600Y0389049D02*
X0137000Y0389049D01*
X0137000Y0387450D02*
X0136600Y0387450D01*
X0136600Y0385852D02*
X0137000Y0385852D01*
X0137000Y0384253D02*
X0136600Y0384253D01*
X0136600Y0382655D02*
X0137000Y0382655D01*
X0139443Y0382655D02*
X0144157Y0382655D01*
X0142559Y0384253D02*
X0141041Y0384253D01*
X0141600Y0385852D02*
X0142000Y0385852D01*
X0142000Y0387450D02*
X0141600Y0387450D01*
X0141340Y0389049D02*
X0142260Y0389049D01*
X0143859Y0390647D02*
X0139741Y0390647D01*
X0139034Y0392246D02*
X0144566Y0392246D01*
X0142968Y0393844D02*
X0140632Y0393844D01*
X0141600Y0395443D02*
X0142000Y0395443D01*
X0142000Y0397041D02*
X0141600Y0397041D01*
X0141600Y0398640D02*
X0142000Y0398640D01*
X0133450Y0400238D02*
X0130150Y0400238D01*
X0128788Y0401600D02*
X0127000Y0401600D01*
X0127000Y0397000D01*
X0131600Y0397000D01*
X0131600Y0398788D01*
X0128788Y0401600D01*
X0126600Y0401600D02*
X0124812Y0401600D01*
X0122000Y0398788D01*
X0122000Y0397000D01*
X0126600Y0397000D01*
X0126600Y0401600D01*
X0126600Y0400238D02*
X0127000Y0400238D01*
X0127000Y0398640D02*
X0126600Y0398640D01*
X0126600Y0397041D02*
X0127000Y0397041D01*
X0127000Y0397000D02*
X0126600Y0397000D01*
X0126600Y0396600D01*
X0127000Y0396600D01*
X0127000Y0397000D01*
X0127000Y0396600D02*
X0131600Y0396600D01*
X0131600Y0394812D01*
X0128788Y0392000D01*
X0127000Y0392000D01*
X0127000Y0396600D01*
X0126600Y0396600D02*
X0126600Y0392000D01*
X0124812Y0392000D01*
X0122000Y0394812D01*
X0122000Y0396600D01*
X0126600Y0396600D01*
X0126600Y0395443D02*
X0127000Y0395443D01*
X0127000Y0393844D02*
X0126600Y0393844D01*
X0126600Y0392246D02*
X0127000Y0392246D01*
X0127000Y0391600D02*
X0128788Y0391600D01*
X0131600Y0388788D01*
X0131600Y0387000D01*
X0127000Y0387000D01*
X0127000Y0386600D01*
X0131600Y0386600D01*
X0131600Y0384812D01*
X0128788Y0382000D01*
X0127000Y0382000D01*
X0127000Y0386600D01*
X0126600Y0386600D01*
X0126600Y0382000D01*
X0124812Y0382000D01*
X0122000Y0384812D01*
X0122000Y0386600D01*
X0126600Y0386600D01*
X0126600Y0387000D01*
X0126600Y0391600D01*
X0124812Y0391600D01*
X0122000Y0388788D01*
X0122000Y0387000D01*
X0126600Y0387000D01*
X0127000Y0387000D01*
X0127000Y0391600D01*
X0127000Y0390647D02*
X0126600Y0390647D01*
X0126600Y0389049D02*
X0127000Y0389049D01*
X0127000Y0387450D02*
X0126600Y0387450D01*
X0126600Y0385852D02*
X0127000Y0385852D01*
X0127000Y0384253D02*
X0126600Y0384253D01*
X0126600Y0382655D02*
X0127000Y0382655D01*
X0129443Y0382655D02*
X0134157Y0382655D01*
X0132559Y0384253D02*
X0131041Y0384253D01*
X0131600Y0385852D02*
X0132000Y0385852D01*
X0132000Y0387450D02*
X0131600Y0387450D01*
X0131340Y0389049D02*
X0132260Y0389049D01*
X0133859Y0390647D02*
X0129741Y0390647D01*
X0129034Y0392246D02*
X0134566Y0392246D01*
X0132968Y0393844D02*
X0130632Y0393844D01*
X0131600Y0395443D02*
X0132000Y0395443D01*
X0132000Y0397041D02*
X0131600Y0397041D01*
X0131600Y0398640D02*
X0132000Y0398640D01*
X0123450Y0400238D02*
X0120150Y0400238D01*
X0118788Y0401600D02*
X0121600Y0398788D01*
X0121600Y0397000D01*
X0117000Y0397000D01*
X0117000Y0396600D01*
X0121600Y0396600D01*
X0121600Y0394812D01*
X0118788Y0392000D01*
X0117000Y0392000D01*
X0117000Y0396600D01*
X0116600Y0396600D01*
X0116600Y0392000D01*
X0114812Y0392000D01*
X0112000Y0394812D01*
X0112000Y0396600D01*
X0116600Y0396600D01*
X0116600Y0397000D01*
X0116600Y0401600D01*
X0114812Y0401600D01*
X0112000Y0398788D01*
X0112000Y0397000D01*
X0116600Y0397000D01*
X0117000Y0397000D01*
X0117000Y0401600D01*
X0118788Y0401600D01*
X0117000Y0400238D02*
X0116600Y0400238D01*
X0116600Y0398640D02*
X0117000Y0398640D01*
X0117000Y0397041D02*
X0116600Y0397041D01*
X0116600Y0395443D02*
X0117000Y0395443D01*
X0117000Y0393844D02*
X0116600Y0393844D01*
X0116600Y0392246D02*
X0117000Y0392246D01*
X0117000Y0391600D02*
X0118788Y0391600D01*
X0121600Y0388788D01*
X0121600Y0387000D01*
X0117000Y0387000D01*
X0117000Y0386600D01*
X0121600Y0386600D01*
X0121600Y0384812D01*
X0118788Y0382000D01*
X0117000Y0382000D01*
X0117000Y0386600D01*
X0116600Y0386600D01*
X0116600Y0382000D01*
X0114812Y0382000D01*
X0112000Y0384812D01*
X0112000Y0386600D01*
X0116600Y0386600D01*
X0116600Y0387000D01*
X0116600Y0391600D01*
X0114812Y0391600D01*
X0112000Y0388788D01*
X0112000Y0387000D01*
X0116600Y0387000D01*
X0117000Y0387000D01*
X0117000Y0391600D01*
X0117000Y0390647D02*
X0116600Y0390647D01*
X0116600Y0389049D02*
X0117000Y0389049D01*
X0117000Y0387450D02*
X0116600Y0387450D01*
X0116600Y0385852D02*
X0117000Y0385852D01*
X0117000Y0384253D02*
X0116600Y0384253D01*
X0116600Y0382655D02*
X0117000Y0382655D01*
X0119443Y0382655D02*
X0124157Y0382655D01*
X0122559Y0384253D02*
X0121041Y0384253D01*
X0121600Y0385852D02*
X0122000Y0385852D01*
X0122000Y0387450D02*
X0121600Y0387450D01*
X0121340Y0389049D02*
X0122260Y0389049D01*
X0123859Y0390647D02*
X0119741Y0390647D01*
X0119034Y0392246D02*
X0124566Y0392246D01*
X0122968Y0393844D02*
X0120632Y0393844D01*
X0121600Y0395443D02*
X0122000Y0395443D01*
X0122000Y0397041D02*
X0121600Y0397041D01*
X0121600Y0398640D02*
X0122000Y0398640D01*
X0114566Y0392246D02*
X0109034Y0392246D01*
X0108788Y0392000D02*
X0111600Y0394812D01*
X0111600Y0396600D01*
X0107000Y0396600D01*
X0107000Y0397000D01*
X0111600Y0397000D01*
X0111600Y0398788D01*
X0108788Y0401600D01*
X0107000Y0401600D01*
X0107000Y0397000D01*
X0106600Y0397000D01*
X0106600Y0401600D01*
X0104812Y0401600D01*
X0102000Y0398788D01*
X0102000Y0397000D01*
X0106600Y0397000D01*
X0106600Y0396600D01*
X0107000Y0396600D01*
X0107000Y0392000D01*
X0108788Y0392000D01*
X0108788Y0391600D02*
X0107000Y0391600D01*
X0107000Y0387000D01*
X0111600Y0387000D01*
X0111600Y0388788D01*
X0108788Y0391600D01*
X0109741Y0390647D02*
X0113859Y0390647D01*
X0112260Y0389049D02*
X0111340Y0389049D01*
X0111600Y0387450D02*
X0112000Y0387450D01*
X0111600Y0386600D02*
X0107000Y0386600D01*
X0107000Y0387000D01*
X0106600Y0387000D01*
X0106600Y0391600D01*
X0104812Y0391600D01*
X0102000Y0388788D01*
X0102000Y0387000D01*
X0106600Y0387000D01*
X0106600Y0386600D01*
X0107000Y0386600D01*
X0107000Y0382000D01*
X0108788Y0382000D01*
X0111600Y0384812D01*
X0111600Y0386600D01*
X0111600Y0385852D02*
X0112000Y0385852D01*
X0112559Y0384253D02*
X0111041Y0384253D01*
X0109443Y0382655D02*
X0114157Y0382655D01*
X0107000Y0382655D02*
X0106600Y0382655D01*
X0106600Y0382000D02*
X0106600Y0386600D01*
X0102000Y0386600D01*
X0102000Y0384812D01*
X0104812Y0382000D01*
X0106600Y0382000D01*
X0106600Y0384253D02*
X0107000Y0384253D01*
X0107000Y0385852D02*
X0106600Y0385852D01*
X0106600Y0387450D02*
X0107000Y0387450D01*
X0107000Y0389049D02*
X0106600Y0389049D01*
X0106600Y0390647D02*
X0107000Y0390647D01*
X0106600Y0392000D02*
X0106600Y0396600D01*
X0102000Y0396600D01*
X0102000Y0394812D01*
X0104812Y0392000D01*
X0106600Y0392000D01*
X0106600Y0392246D02*
X0107000Y0392246D01*
X0107000Y0393844D02*
X0106600Y0393844D01*
X0106600Y0395443D02*
X0107000Y0395443D01*
X0107000Y0397041D02*
X0106600Y0397041D01*
X0106600Y0398640D02*
X0107000Y0398640D01*
X0107000Y0400238D02*
X0106600Y0400238D01*
X0103450Y0400238D02*
X0100150Y0400238D01*
X0098788Y0401600D02*
X0097000Y0401600D01*
X0097000Y0397000D01*
X0101600Y0397000D01*
X0101600Y0398788D01*
X0098788Y0401600D01*
X0096600Y0401600D02*
X0094812Y0401600D01*
X0092000Y0398788D01*
X0092000Y0397000D01*
X0096600Y0397000D01*
X0096600Y0401600D01*
X0096600Y0400238D02*
X0097000Y0400238D01*
X0097000Y0398640D02*
X0096600Y0398640D01*
X0096600Y0397041D02*
X0097000Y0397041D01*
X0097000Y0397000D02*
X0096600Y0397000D01*
X0096600Y0396600D01*
X0097000Y0396600D01*
X0097000Y0397000D01*
X0097000Y0396600D02*
X0101600Y0396600D01*
X0101600Y0394812D01*
X0098788Y0392000D01*
X0097000Y0392000D01*
X0097000Y0396600D01*
X0096600Y0396600D02*
X0096600Y0392000D01*
X0094812Y0392000D01*
X0092000Y0394812D01*
X0092000Y0396600D01*
X0096600Y0396600D01*
X0096600Y0395443D02*
X0097000Y0395443D01*
X0097000Y0393844D02*
X0096600Y0393844D01*
X0096600Y0392246D02*
X0097000Y0392246D01*
X0097000Y0391600D02*
X0098788Y0391600D01*
X0101600Y0388788D01*
X0101600Y0387000D01*
X0097000Y0387000D01*
X0097000Y0386600D01*
X0101600Y0386600D01*
X0101600Y0384812D01*
X0098788Y0382000D01*
X0097000Y0382000D01*
X0097000Y0386600D01*
X0096600Y0386600D01*
X0096600Y0382000D01*
X0094812Y0382000D01*
X0092000Y0384812D01*
X0092000Y0386600D01*
X0096600Y0386600D01*
X0096600Y0387000D01*
X0096600Y0391600D01*
X0094812Y0391600D01*
X0092000Y0388788D01*
X0092000Y0387000D01*
X0096600Y0387000D01*
X0097000Y0387000D01*
X0097000Y0391600D01*
X0097000Y0390647D02*
X0096600Y0390647D01*
X0096600Y0389049D02*
X0097000Y0389049D01*
X0097000Y0387450D02*
X0096600Y0387450D01*
X0096600Y0385852D02*
X0097000Y0385852D01*
X0097000Y0384253D02*
X0096600Y0384253D01*
X0096600Y0382655D02*
X0097000Y0382655D01*
X0099443Y0382655D02*
X0104157Y0382655D01*
X0102559Y0384253D02*
X0101041Y0384253D01*
X0101600Y0385852D02*
X0102000Y0385852D01*
X0102000Y0387450D02*
X0101600Y0387450D01*
X0101340Y0389049D02*
X0102260Y0389049D01*
X0103859Y0390647D02*
X0099741Y0390647D01*
X0099034Y0392246D02*
X0104566Y0392246D01*
X0102968Y0393844D02*
X0100632Y0393844D01*
X0101600Y0395443D02*
X0102000Y0395443D01*
X0102000Y0397041D02*
X0101600Y0397041D01*
X0101600Y0398640D02*
X0102000Y0398640D01*
X0110150Y0400238D02*
X0113450Y0400238D01*
X0112000Y0398640D02*
X0111600Y0398640D01*
X0111600Y0397041D02*
X0112000Y0397041D01*
X0112000Y0395443D02*
X0111600Y0395443D01*
X0110632Y0393844D02*
X0112968Y0393844D01*
X0094566Y0392246D02*
X0089034Y0392246D01*
X0088788Y0392000D02*
X0091600Y0394812D01*
X0091600Y0396600D01*
X0087000Y0396600D01*
X0087000Y0397000D01*
X0091600Y0397000D01*
X0091600Y0398788D01*
X0088788Y0401600D01*
X0087000Y0401600D01*
X0087000Y0397000D01*
X0086600Y0397000D01*
X0086600Y0401600D01*
X0084812Y0401600D01*
X0082000Y0398788D01*
X0082000Y0397000D01*
X0086600Y0397000D01*
X0086600Y0396600D01*
X0087000Y0396600D01*
X0087000Y0392000D01*
X0088788Y0392000D01*
X0088788Y0391600D02*
X0087000Y0391600D01*
X0087000Y0387000D01*
X0091600Y0387000D01*
X0091600Y0388788D01*
X0088788Y0391600D01*
X0089741Y0390647D02*
X0093859Y0390647D01*
X0092260Y0389049D02*
X0091340Y0389049D01*
X0091600Y0387450D02*
X0092000Y0387450D01*
X0091600Y0386600D02*
X0087000Y0386600D01*
X0087000Y0387000D01*
X0086600Y0387000D01*
X0086600Y0391600D01*
X0084812Y0391600D01*
X0082000Y0388788D01*
X0082000Y0387000D01*
X0086600Y0387000D01*
X0086600Y0386600D01*
X0087000Y0386600D01*
X0087000Y0382000D01*
X0088788Y0382000D01*
X0091600Y0384812D01*
X0091600Y0386600D01*
X0091600Y0385852D02*
X0092000Y0385852D01*
X0092559Y0384253D02*
X0091041Y0384253D01*
X0089443Y0382655D02*
X0094157Y0382655D01*
X0087000Y0382655D02*
X0086600Y0382655D01*
X0086600Y0382000D02*
X0086600Y0386600D01*
X0082000Y0386600D01*
X0082000Y0384812D01*
X0084812Y0382000D01*
X0086600Y0382000D01*
X0086600Y0384253D02*
X0087000Y0384253D01*
X0087000Y0385852D02*
X0086600Y0385852D01*
X0086600Y0387450D02*
X0087000Y0387450D01*
X0087000Y0389049D02*
X0086600Y0389049D01*
X0086600Y0390647D02*
X0087000Y0390647D01*
X0086600Y0392000D02*
X0086600Y0396600D01*
X0082000Y0396600D01*
X0082000Y0394812D01*
X0084812Y0392000D01*
X0086600Y0392000D01*
X0086600Y0392246D02*
X0087000Y0392246D01*
X0087000Y0393844D02*
X0086600Y0393844D01*
X0086600Y0395443D02*
X0087000Y0395443D01*
X0087000Y0397041D02*
X0086600Y0397041D01*
X0086600Y0398640D02*
X0087000Y0398640D01*
X0087000Y0400238D02*
X0086600Y0400238D01*
X0083450Y0400238D02*
X0080150Y0400238D01*
X0081600Y0398640D02*
X0082000Y0398640D01*
X0082000Y0397041D02*
X0081600Y0397041D01*
X0081600Y0395443D02*
X0082000Y0395443D01*
X0082968Y0393844D02*
X0080632Y0393844D01*
X0079034Y0392246D02*
X0084566Y0392246D01*
X0083859Y0390647D02*
X0079741Y0390647D01*
X0081340Y0389049D02*
X0082260Y0389049D01*
X0082000Y0387450D02*
X0081600Y0387450D01*
X0081600Y0385852D02*
X0082000Y0385852D01*
X0082559Y0384253D02*
X0081041Y0384253D01*
X0079443Y0382655D02*
X0084157Y0382655D01*
X0090632Y0393844D02*
X0092968Y0393844D01*
X0092000Y0395443D02*
X0091600Y0395443D01*
X0091600Y0397041D02*
X0092000Y0397041D01*
X0092000Y0398640D02*
X0091600Y0398640D01*
X0090150Y0400238D02*
X0093450Y0400238D01*
X0150150Y0400238D02*
X0153450Y0400238D01*
X0152000Y0398640D02*
X0151600Y0398640D01*
X0151600Y0397041D02*
X0152000Y0397041D01*
X0152000Y0395443D02*
X0151600Y0395443D01*
X0150632Y0393844D02*
X0152968Y0393844D01*
D17*
X0241800Y0301800D02*
X0241800Y0161800D01*
X0166800Y0161800D01*
X0166800Y0131800D01*
X0071800Y0131800D01*
X0071800Y0156800D01*
X0081800Y0156800D02*
X0081800Y0181800D01*
X0071800Y0131800D02*
X0071800Y0086800D01*
X0061800Y0086800D02*
X0061800Y0066800D01*
X0026800Y0066800D01*
X0026800Y0086800D01*
X0036800Y0086800D02*
X0036800Y0111800D01*
X0056800Y0111800D01*
X0086800Y0111800D02*
X0086800Y0096800D01*
X0101800Y0096800D01*
X0121800Y0096800D02*
X0281800Y0096800D01*
X0281800Y0086800D01*
X0396800Y0086800D01*
X0396800Y0126800D01*
X0446800Y0126800D01*
X0446800Y0081800D01*
X0456800Y0081800D01*
X0466800Y0081800D01*
X0476800Y0081800D01*
X0486800Y0081800D01*
X0496800Y0081800D01*
X0506800Y0081800D01*
X0516800Y0081800D01*
X0526800Y0081800D01*
X0526800Y0096800D01*
X0526800Y0106800D02*
X0526800Y0126800D01*
X0516800Y0126800D01*
X0516800Y0151800D01*
X0536800Y0141800D02*
X0541800Y0141800D01*
X0541800Y0066800D01*
X0501800Y0066800D01*
X0491800Y0066800D01*
X0481800Y0066800D01*
X0471800Y0066800D01*
X0441800Y0066800D01*
X0441800Y0061800D01*
X0456800Y0081800D02*
X0456800Y0096800D01*
X0466800Y0096800D02*
X0466800Y0081800D01*
X0476800Y0081800D02*
X0476800Y0096800D01*
X0476800Y0106800D02*
X0476800Y0126800D01*
X0486800Y0126800D01*
X0496800Y0126800D01*
X0506800Y0126800D01*
X0516800Y0126800D01*
X0516800Y0106800D01*
X0516800Y0096800D02*
X0516800Y0081800D01*
X0506800Y0081800D02*
X0506800Y0096800D01*
X0506800Y0106800D02*
X0506800Y0126800D01*
X0496800Y0126800D02*
X0496800Y0106800D01*
X0486800Y0106800D02*
X0486800Y0126800D01*
X0476800Y0126800D02*
X0466800Y0126800D01*
X0456800Y0126800D01*
X0456800Y0106800D01*
X0466800Y0106800D02*
X0466800Y0126800D01*
X0456800Y0126800D02*
X0446800Y0126800D01*
X0466800Y0141800D02*
X0421800Y0141800D01*
X0421800Y0151800D01*
X0421800Y0221800D01*
X0516800Y0221800D01*
X0516800Y0356800D01*
X0536800Y0166800D02*
X0466800Y0166800D01*
X0466800Y0141800D01*
X0486800Y0096800D02*
X0486800Y0081800D01*
X0496800Y0081800D02*
X0496800Y0096800D01*
X0491800Y0066800D02*
X0491800Y0051800D01*
X0501800Y0051800D02*
X0501800Y0066800D01*
X0481800Y0066800D02*
X0481800Y0051800D01*
X0471800Y0051800D02*
X0471800Y0066800D01*
X0381800Y0101800D02*
X0376800Y0101800D01*
X0296800Y0101800D01*
X0296800Y0111800D01*
X0086800Y0111800D01*
X0381800Y0101800D02*
X0381800Y0151800D01*
X0536800Y0141800D02*
X0536800Y0166800D01*
D18*
X0556800Y0186800D02*
X0556800Y0126800D01*
X0556800Y0051800D01*
X0511800Y0051800D01*
X0566800Y0041800D02*
X0566800Y0126800D01*
X0556800Y0186800D02*
X0431800Y0186800D01*
X0431800Y0151800D01*
X0361800Y0151800D02*
X0361800Y0116800D01*
X0351800Y0116800D02*
X0351800Y0151800D01*
X0341800Y0151800D02*
X0341800Y0116800D01*
X0331800Y0116800D02*
X0331800Y0151800D01*
X0321800Y0151800D02*
X0321800Y0116800D01*
X0311800Y0116800D02*
X0311800Y0151800D01*
X0226800Y0191800D02*
X0191800Y0191800D01*
X0191800Y0201800D02*
X0221800Y0201800D01*
X0221800Y0211800D02*
X0191800Y0211800D01*
X0191800Y0221800D02*
X0221800Y0221800D01*
X0221800Y0231800D02*
X0191800Y0231800D01*
X0191800Y0241800D02*
X0221800Y0241800D01*
X0221800Y0251800D02*
X0201800Y0251800D01*
X0201800Y0331800D01*
X0241800Y0331800D01*
X0241800Y0341800D01*
X0231800Y0341800D02*
X0231800Y0351800D01*
X0261800Y0351800D01*
X0261800Y0361800D01*
X0271800Y0361800D01*
X0281800Y0361800D01*
X0281800Y0371800D01*
X0281800Y0396800D01*
X0271800Y0396800D02*
X0271800Y0361800D01*
X0261800Y0361800D02*
X0251800Y0361800D01*
X0251800Y0396800D01*
X0261800Y0396800D02*
X0261800Y0361800D01*
X0241800Y0361800D02*
X0231800Y0361800D01*
X0221800Y0361800D01*
X0221800Y0341800D01*
X0211800Y0321800D02*
X0211800Y0261800D01*
X0221800Y0261800D01*
X0181800Y0261800D02*
X0121800Y0261800D01*
X0121800Y0251800D02*
X0181800Y0251800D01*
X0181800Y0241800D02*
X0121800Y0241800D01*
X0121800Y0231800D02*
X0181800Y0231800D01*
X0181800Y0221800D02*
X0121800Y0221800D01*
X0136800Y0191800D02*
X0181800Y0191800D01*
X0181800Y0181800D02*
X0151800Y0181800D01*
X0191800Y0181800D02*
X0211800Y0181800D01*
X0181800Y0271800D02*
X0121800Y0271800D01*
X0121800Y0281800D02*
X0181800Y0281800D01*
X0181800Y0291800D02*
X0121800Y0291800D01*
X0121800Y0301800D02*
X0181800Y0301800D01*
X0181800Y0311800D02*
X0121800Y0311800D01*
X0121800Y0321800D02*
X0181800Y0321800D01*
X0181800Y0331800D02*
X0121800Y0331800D01*
X0046800Y0316800D02*
X0046800Y0271800D01*
X0211800Y0321800D02*
X0251800Y0321800D01*
X0251800Y0341800D01*
X0241800Y0361800D02*
X0241800Y0396800D01*
X0231800Y0396800D02*
X0231800Y0361800D01*
X0221800Y0361800D02*
X0221800Y0396800D01*
X0211800Y0396800D02*
X0211800Y0371800D01*
X0211800Y0361800D01*
X0221800Y0361800D01*
X0331800Y0341800D02*
X0331800Y0396800D01*
X0341800Y0396800D02*
X0341800Y0341800D01*
X0351800Y0341800D02*
X0351800Y0396800D01*
X0361800Y0396800D02*
X0361800Y0341800D01*
X0371800Y0341800D02*
X0371800Y0396800D01*
X0381800Y0396800D02*
X0381800Y0341800D01*
X0391800Y0351800D02*
X0397800Y0351800D01*
X0397800Y0341800D01*
X0407800Y0341800D02*
X0407800Y0271800D01*
X0306800Y0271800D01*
X0417800Y0341800D02*
X0417800Y0361800D01*
X0401800Y0361800D01*
X0401800Y0396800D01*
X0411800Y0396800D02*
X0411800Y0371800D01*
X0426800Y0371800D01*
X0426800Y0341800D01*
X0427800Y0341800D01*
X0437800Y0341800D02*
X0437800Y0381800D01*
X0421800Y0381800D01*
X0421800Y0396800D01*
X0431800Y0396800D02*
X0447800Y0396800D01*
X0447800Y0341800D01*
X0476800Y0341800D02*
X0476800Y0336800D01*
X0476800Y0276800D01*
X0487800Y0266800D02*
X0487800Y0341800D01*
X0477800Y0341800D02*
X0476800Y0341800D01*
X0391800Y0351800D02*
X0391800Y0396800D01*
X0401800Y0076800D02*
X0401800Y0061800D01*
X0411800Y0061800D02*
X0411800Y0051800D01*
X0191800Y0051800D01*
X0136800Y0041800D02*
X0421800Y0041800D01*
X0421800Y0061800D01*
X0431800Y0061800D02*
X0431800Y0031800D01*
M02*
