G75*
%MOIN*%
%OFA0B0*%
%FSLAX25Y25*%
%IPPOS*%
%LPD*%
%AMOC8*
5,1,8,0,0,1.08239X$1,22.5*
%
%ADD10C,0.01600*%
%ADD11C,0.00000*%
%ADD12C,0.06000*%
%ADD13OC8,0.06000*%
%ADD14OC8,0.05200*%
%ADD15C,0.07400*%
%ADD16OC8,0.07400*%
%ADD17C,0.04000*%
%ADD18C,0.06600*%
%ADD19R,0.07677X0.07677*%
D10*
X0011800Y0011800D02*
X0586800Y0011800D01*
X0586800Y0421800D01*
X0011800Y0421800D01*
X0011800Y0011800D01*
X0032717Y0017400D02*
X0565883Y0017400D01*
X0564985Y0017918D01*
X0562918Y0019985D01*
X0561457Y0022516D01*
X0560701Y0025339D01*
X0560701Y0028261D01*
X0561457Y0031084D01*
X0562918Y0033615D01*
X0564503Y0035200D01*
X0564066Y0035200D01*
X0560200Y0039066D01*
X0560200Y0044534D01*
X0564066Y0048400D01*
X0569534Y0048400D01*
X0573400Y0044534D01*
X0573400Y0039066D01*
X0572233Y0037899D01*
X0573261Y0037899D01*
X0576084Y0037143D01*
X0578615Y0035682D01*
X0580682Y0033615D01*
X0581200Y0032717D01*
X0581200Y0400883D01*
X0580682Y0399985D01*
X0578615Y0397918D01*
X0576084Y0396457D01*
X0573261Y0395701D01*
X0570339Y0395701D01*
X0567516Y0396457D01*
X0564985Y0397918D01*
X0562918Y0399985D01*
X0561457Y0402516D01*
X0560701Y0405339D01*
X0560701Y0408261D01*
X0561457Y0411084D01*
X0562918Y0413615D01*
X0564985Y0415682D01*
X0565883Y0416200D01*
X0032717Y0416200D01*
X0033615Y0415682D01*
X0035682Y0413615D01*
X0037143Y0411084D01*
X0037899Y0408261D01*
X0037899Y0405339D01*
X0037143Y0402516D01*
X0035682Y0399985D01*
X0033615Y0397918D01*
X0031084Y0396457D01*
X0028261Y0395701D01*
X0025339Y0395701D01*
X0022516Y0396457D01*
X0019985Y0397918D01*
X0017918Y0399985D01*
X0017400Y0400883D01*
X0017400Y0032717D01*
X0017918Y0033615D01*
X0019985Y0035682D01*
X0022516Y0037143D01*
X0025339Y0037899D01*
X0028261Y0037899D01*
X0031084Y0037143D01*
X0033615Y0035682D01*
X0035682Y0033615D01*
X0037143Y0031084D01*
X0037899Y0028261D01*
X0037899Y0025339D01*
X0037143Y0022516D01*
X0035682Y0019985D01*
X0033615Y0017918D01*
X0032717Y0017400D01*
X0033891Y0018194D02*
X0564709Y0018194D01*
X0563111Y0019793D02*
X0035489Y0019793D01*
X0036493Y0021391D02*
X0562107Y0021391D01*
X0561330Y0022990D02*
X0037270Y0022990D01*
X0037698Y0024588D02*
X0425678Y0024588D01*
X0425696Y0024570D02*
X0427166Y0023961D01*
X0436434Y0023961D01*
X0437904Y0024570D01*
X0439030Y0025696D01*
X0439639Y0027166D01*
X0439639Y0036434D01*
X0439030Y0037904D01*
X0437904Y0039030D01*
X0436434Y0039639D01*
X0427166Y0039639D01*
X0425696Y0039030D01*
X0424570Y0037904D01*
X0424527Y0037800D01*
X0157800Y0037800D01*
X0157800Y0174527D01*
X0157904Y0174570D01*
X0159030Y0175696D01*
X0159639Y0177166D01*
X0159639Y0186434D01*
X0159030Y0187904D01*
X0157904Y0189030D01*
X0156434Y0189639D01*
X0147166Y0189639D01*
X0145696Y0189030D01*
X0144639Y0187973D01*
X0144639Y0196434D01*
X0144030Y0197904D01*
X0142904Y0199030D01*
X0141434Y0199639D01*
X0132166Y0199639D01*
X0130696Y0199030D01*
X0129570Y0197904D01*
X0128961Y0196434D01*
X0128961Y0187166D01*
X0129570Y0185696D01*
X0130696Y0184570D01*
X0130800Y0184527D01*
X0130800Y0049073D01*
X0130696Y0049030D01*
X0129570Y0047904D01*
X0128961Y0046434D01*
X0128961Y0037166D01*
X0129570Y0035696D01*
X0130696Y0034570D01*
X0132166Y0033961D01*
X0141434Y0033961D01*
X0142904Y0034570D01*
X0144030Y0035696D01*
X0144639Y0037166D01*
X0144639Y0046434D01*
X0144030Y0047904D01*
X0142904Y0049030D01*
X0142800Y0049073D01*
X0142800Y0184527D01*
X0142904Y0184570D01*
X0143961Y0185627D01*
X0143961Y0177166D01*
X0144570Y0175696D01*
X0145696Y0174570D01*
X0145800Y0174527D01*
X0145800Y0030607D01*
X0146713Y0028401D01*
X0148401Y0026713D01*
X0150607Y0025800D01*
X0424527Y0025800D01*
X0424570Y0025696D01*
X0425696Y0024570D01*
X0437922Y0024588D02*
X0560902Y0024588D01*
X0560701Y0026187D02*
X0439233Y0026187D01*
X0439639Y0027785D02*
X0560701Y0027785D01*
X0561002Y0029384D02*
X0439639Y0029384D01*
X0439639Y0030982D02*
X0561430Y0030982D01*
X0562321Y0032581D02*
X0439639Y0032581D01*
X0439639Y0034179D02*
X0563483Y0034179D01*
X0563489Y0035778D02*
X0439639Y0035778D01*
X0439248Y0037376D02*
X0561890Y0037376D01*
X0560291Y0038975D02*
X0540197Y0038975D01*
X0541200Y0039977D02*
X0541200Y0041800D01*
X0541200Y0043623D01*
X0538623Y0046200D01*
X0536800Y0046200D01*
X0536800Y0041800D01*
X0541200Y0041800D01*
X0536800Y0041800D01*
X0536800Y0041800D01*
X0536800Y0041800D01*
X0536800Y0037400D01*
X0538623Y0037400D01*
X0541200Y0039977D01*
X0541200Y0040573D02*
X0560200Y0040573D01*
X0560200Y0042172D02*
X0541200Y0042172D01*
X0541052Y0043770D02*
X0560200Y0043770D01*
X0561035Y0045369D02*
X0539454Y0045369D01*
X0536800Y0045369D02*
X0536800Y0045369D01*
X0536800Y0046200D02*
X0534977Y0046200D01*
X0532400Y0043623D01*
X0532400Y0041800D01*
X0536800Y0041800D01*
X0536800Y0041800D01*
X0536800Y0041800D01*
X0536800Y0046200D01*
X0536800Y0043770D02*
X0536800Y0043770D01*
X0536800Y0042172D02*
X0536800Y0042172D01*
X0536800Y0041800D02*
X0532400Y0041800D01*
X0532400Y0039977D01*
X0534977Y0037400D01*
X0536800Y0037400D01*
X0536800Y0041800D01*
X0536800Y0040573D02*
X0536800Y0040573D01*
X0536800Y0038975D02*
X0536800Y0038975D01*
X0533403Y0038975D02*
X0437959Y0038975D01*
X0425641Y0038975D02*
X0157800Y0038975D01*
X0157800Y0040573D02*
X0532400Y0040573D01*
X0532400Y0042172D02*
X0514090Y0042172D01*
X0513192Y0041800D02*
X0515765Y0042866D01*
X0517734Y0044835D01*
X0518800Y0047408D01*
X0518800Y0056192D01*
X0517734Y0058765D01*
X0515765Y0060734D01*
X0513192Y0061800D01*
X0510408Y0061800D01*
X0507835Y0060734D01*
X0506800Y0059699D01*
X0505765Y0060734D01*
X0503192Y0061800D01*
X0500408Y0061800D01*
X0497835Y0060734D01*
X0496800Y0059699D01*
X0495765Y0060734D01*
X0493192Y0061800D01*
X0490408Y0061800D01*
X0487835Y0060734D01*
X0486800Y0059699D01*
X0485765Y0060734D01*
X0483192Y0061800D01*
X0480408Y0061800D01*
X0477835Y0060734D01*
X0476800Y0059699D01*
X0475765Y0060734D01*
X0473192Y0061800D01*
X0470408Y0061800D01*
X0467835Y0060734D01*
X0465866Y0058765D01*
X0464800Y0056192D01*
X0464800Y0047408D01*
X0465866Y0044835D01*
X0467835Y0042866D01*
X0470408Y0041800D01*
X0473192Y0041800D01*
X0475765Y0042866D01*
X0476800Y0043901D01*
X0477835Y0042866D01*
X0480408Y0041800D01*
X0483192Y0041800D01*
X0485765Y0042866D01*
X0486800Y0043901D01*
X0487835Y0042866D01*
X0490408Y0041800D01*
X0493192Y0041800D01*
X0495765Y0042866D01*
X0496800Y0043901D01*
X0497835Y0042866D01*
X0500408Y0041800D01*
X0503192Y0041800D01*
X0505765Y0042866D01*
X0506800Y0043901D01*
X0507835Y0042866D01*
X0510408Y0041800D01*
X0513192Y0041800D01*
X0509510Y0042172D02*
X0504090Y0042172D01*
X0506670Y0043770D02*
X0506930Y0043770D01*
X0499510Y0042172D02*
X0494090Y0042172D01*
X0496670Y0043770D02*
X0496930Y0043770D01*
X0489510Y0042172D02*
X0484090Y0042172D01*
X0486670Y0043770D02*
X0486930Y0043770D01*
X0479510Y0042172D02*
X0474090Y0042172D01*
X0476670Y0043770D02*
X0476930Y0043770D01*
X0469510Y0042172D02*
X0157800Y0042172D01*
X0157800Y0043770D02*
X0466930Y0043770D01*
X0465645Y0045369D02*
X0198703Y0045369D01*
X0199030Y0045696D02*
X0199639Y0047166D01*
X0199639Y0056434D01*
X0199030Y0057904D01*
X0197904Y0059030D01*
X0197800Y0059073D01*
X0197800Y0145122D01*
X0200268Y0144100D01*
X0203332Y0144100D01*
X0206162Y0145272D01*
X0206800Y0145911D01*
X0207438Y0145272D01*
X0210268Y0144100D01*
X0213332Y0144100D01*
X0216162Y0145272D01*
X0216800Y0145911D01*
X0217438Y0145272D01*
X0220268Y0144100D01*
X0223332Y0144100D01*
X0226162Y0145272D01*
X0226800Y0145911D01*
X0227438Y0145272D01*
X0230268Y0144100D01*
X0233332Y0144100D01*
X0236162Y0145272D01*
X0236800Y0145911D01*
X0237438Y0145272D01*
X0240268Y0144100D01*
X0243332Y0144100D01*
X0246162Y0145272D01*
X0246800Y0145911D01*
X0247438Y0145272D01*
X0250268Y0144100D01*
X0253332Y0144100D01*
X0256162Y0145272D01*
X0256800Y0145911D01*
X0257438Y0145272D01*
X0260268Y0144100D01*
X0263332Y0144100D01*
X0266162Y0145272D01*
X0266800Y0145911D01*
X0267438Y0145272D01*
X0270268Y0144100D01*
X0273332Y0144100D01*
X0275800Y0145122D01*
X0275800Y0075607D01*
X0276713Y0073401D01*
X0278401Y0071713D01*
X0280607Y0070800D01*
X0394527Y0070800D01*
X0394570Y0070696D01*
X0395696Y0069570D01*
X0396385Y0069285D01*
X0395866Y0068765D01*
X0395498Y0067877D01*
X0395461Y0067927D01*
X0394927Y0068461D01*
X0394316Y0068905D01*
X0393643Y0069248D01*
X0392924Y0069482D01*
X0392178Y0069600D01*
X0392000Y0069600D01*
X0392000Y0062000D01*
X0391600Y0062000D01*
X0391600Y0069600D01*
X0391422Y0069600D01*
X0390676Y0069482D01*
X0389957Y0069248D01*
X0389284Y0068905D01*
X0388673Y0068461D01*
X0388139Y0067927D01*
X0387695Y0067316D01*
X0387352Y0066643D01*
X0387118Y0065924D01*
X0387000Y0065178D01*
X0387000Y0062000D01*
X0391600Y0062000D01*
X0391600Y0061600D01*
X0392000Y0061600D01*
X0392000Y0054000D01*
X0392178Y0054000D01*
X0392924Y0054118D01*
X0393643Y0054352D01*
X0394316Y0054695D01*
X0394927Y0055139D01*
X0395461Y0055673D01*
X0395498Y0055723D01*
X0395866Y0054835D01*
X0397835Y0052866D01*
X0400408Y0051800D01*
X0403192Y0051800D01*
X0405765Y0052866D01*
X0406800Y0053901D01*
X0407835Y0052866D01*
X0410408Y0051800D01*
X0413192Y0051800D01*
X0415765Y0052866D01*
X0416800Y0053901D01*
X0417835Y0052866D01*
X0420408Y0051800D01*
X0423192Y0051800D01*
X0425765Y0052866D01*
X0426800Y0053901D01*
X0427835Y0052866D01*
X0430408Y0051800D01*
X0433192Y0051800D01*
X0435765Y0052866D01*
X0436800Y0053901D01*
X0437835Y0052866D01*
X0440408Y0051800D01*
X0443192Y0051800D01*
X0445765Y0052866D01*
X0447734Y0054835D01*
X0448800Y0057408D01*
X0448800Y0066192D01*
X0447734Y0068765D01*
X0445765Y0070734D01*
X0443192Y0071800D01*
X0440408Y0071800D01*
X0437835Y0070734D01*
X0436800Y0069699D01*
X0435765Y0070734D01*
X0433192Y0071800D01*
X0430408Y0071800D01*
X0427835Y0070734D01*
X0426800Y0069699D01*
X0425765Y0070734D01*
X0423192Y0071800D01*
X0420408Y0071800D01*
X0417835Y0070734D01*
X0416800Y0069699D01*
X0415765Y0070734D01*
X0413192Y0071800D01*
X0410408Y0071800D01*
X0409296Y0071340D01*
X0409639Y0072166D01*
X0409639Y0081434D01*
X0409030Y0082904D01*
X0407904Y0084030D01*
X0406434Y0084639D01*
X0397166Y0084639D01*
X0395696Y0084030D01*
X0394570Y0082904D01*
X0394527Y0082800D01*
X0287800Y0082800D01*
X0287800Y0145122D01*
X0290268Y0144100D01*
X0293332Y0144100D01*
X0296162Y0145272D01*
X0296800Y0145911D01*
X0297438Y0145272D01*
X0300268Y0144100D01*
X0303332Y0144100D01*
X0306162Y0145272D01*
X0306800Y0145911D01*
X0307438Y0145272D01*
X0310268Y0144100D01*
X0313332Y0144100D01*
X0316162Y0145272D01*
X0316800Y0145911D01*
X0317438Y0145272D01*
X0320268Y0144100D01*
X0323332Y0144100D01*
X0326162Y0145272D01*
X0326800Y0145911D01*
X0327438Y0145272D01*
X0330268Y0144100D01*
X0333332Y0144100D01*
X0336162Y0145272D01*
X0336800Y0145911D01*
X0337438Y0145272D01*
X0340268Y0144100D01*
X0343332Y0144100D01*
X0346162Y0145272D01*
X0346800Y0145911D01*
X0347438Y0145272D01*
X0350268Y0144100D01*
X0353332Y0144100D01*
X0356162Y0145272D01*
X0356800Y0145911D01*
X0357438Y0145272D01*
X0360268Y0144100D01*
X0363332Y0144100D01*
X0366162Y0145272D01*
X0368328Y0147438D01*
X0369500Y0150268D01*
X0369500Y0153332D01*
X0368328Y0156162D01*
X0366162Y0158328D01*
X0363332Y0159500D01*
X0360268Y0159500D01*
X0357438Y0158328D01*
X0356800Y0157689D01*
X0356162Y0158328D01*
X0353332Y0159500D01*
X0350268Y0159500D01*
X0347438Y0158328D01*
X0346800Y0157689D01*
X0346162Y0158328D01*
X0343332Y0159500D01*
X0340268Y0159500D01*
X0337438Y0158328D01*
X0336800Y0157689D01*
X0336162Y0158328D01*
X0333332Y0159500D01*
X0330268Y0159500D01*
X0327438Y0158328D01*
X0326800Y0157689D01*
X0326162Y0158328D01*
X0323332Y0159500D01*
X0320268Y0159500D01*
X0317438Y0158328D01*
X0316800Y0157689D01*
X0316162Y0158328D01*
X0313332Y0159500D01*
X0310268Y0159500D01*
X0307438Y0158328D01*
X0306800Y0157689D01*
X0306162Y0158328D01*
X0303332Y0159500D01*
X0300268Y0159500D01*
X0297438Y0158328D01*
X0296800Y0157689D01*
X0296162Y0158328D01*
X0293332Y0159500D01*
X0290268Y0159500D01*
X0287800Y0158478D01*
X0287800Y0167993D01*
X0286887Y0170199D01*
X0285199Y0171887D01*
X0282993Y0172800D01*
X0232800Y0172800D01*
X0232800Y0184527D01*
X0232904Y0184570D01*
X0234030Y0185696D01*
X0234639Y0187166D01*
X0234639Y0195800D01*
X0257901Y0195800D01*
X0257866Y0195765D01*
X0256800Y0193192D01*
X0256800Y0190408D01*
X0257866Y0187835D01*
X0259835Y0185866D01*
X0260723Y0185498D01*
X0260673Y0185461D01*
X0260139Y0184927D01*
X0259695Y0184316D01*
X0259352Y0183643D01*
X0259118Y0182924D01*
X0259000Y0182178D01*
X0259000Y0182000D01*
X0266600Y0182000D01*
X0266600Y0181600D01*
X0267000Y0181600D01*
X0267000Y0182000D01*
X0274600Y0182000D01*
X0274600Y0182178D01*
X0274482Y0182924D01*
X0274248Y0183643D01*
X0273905Y0184316D01*
X0273771Y0184500D01*
X0509500Y0184500D01*
X0509500Y0157734D01*
X0508961Y0156434D01*
X0508961Y0147166D01*
X0509570Y0145696D01*
X0510696Y0144570D01*
X0512166Y0143961D01*
X0521434Y0143961D01*
X0522904Y0144570D01*
X0524030Y0145696D01*
X0524639Y0147166D01*
X0524639Y0156434D01*
X0524100Y0157734D01*
X0524100Y0193252D01*
X0522989Y0195935D01*
X0520935Y0197989D01*
X0518252Y0199100D01*
X0276258Y0199100D01*
X0276800Y0200408D01*
X0276800Y0203192D01*
X0276713Y0203401D01*
X0278401Y0201713D01*
X0280607Y0200800D01*
X0402993Y0200800D01*
X0405199Y0201713D01*
X0406887Y0203401D01*
X0407800Y0205607D01*
X0407800Y0260800D01*
X0480527Y0260800D01*
X0480570Y0260696D01*
X0481696Y0259570D01*
X0483166Y0258961D01*
X0492434Y0258961D01*
X0493904Y0259570D01*
X0495030Y0260696D01*
X0495639Y0262166D01*
X0495639Y0271434D01*
X0495030Y0272904D01*
X0493904Y0274030D01*
X0492434Y0274639D01*
X0484639Y0274639D01*
X0484639Y0281434D01*
X0484030Y0282904D01*
X0482904Y0284030D01*
X0481434Y0284639D01*
X0472166Y0284639D01*
X0470696Y0284030D01*
X0469570Y0282904D01*
X0469527Y0282800D01*
X0390607Y0282800D01*
X0388401Y0281887D01*
X0386713Y0280199D01*
X0385800Y0277993D01*
X0385800Y0222800D01*
X0297800Y0222800D01*
X0297800Y0262993D01*
X0296887Y0265199D01*
X0296285Y0265800D01*
X0299527Y0265800D01*
X0299570Y0265696D01*
X0300696Y0264570D01*
X0302166Y0263961D01*
X0311434Y0263961D01*
X0312904Y0264570D01*
X0314030Y0265696D01*
X0314639Y0267166D01*
X0314639Y0276434D01*
X0314030Y0277904D01*
X0312904Y0279030D01*
X0311434Y0279639D01*
X0302166Y0279639D01*
X0300696Y0279030D01*
X0299570Y0277904D01*
X0299527Y0277800D01*
X0275699Y0277800D01*
X0275734Y0277835D01*
X0276800Y0280408D01*
X0276800Y0283192D01*
X0275734Y0285765D01*
X0274699Y0286800D01*
X0275734Y0287835D01*
X0276800Y0290408D01*
X0276800Y0293192D01*
X0275734Y0295765D01*
X0274699Y0296800D01*
X0275734Y0297835D01*
X0276800Y0300408D01*
X0276800Y0303192D01*
X0275734Y0305765D01*
X0273765Y0307734D01*
X0272877Y0308102D01*
X0272927Y0308139D01*
X0273461Y0308673D01*
X0273905Y0309284D01*
X0274248Y0309957D01*
X0274482Y0310676D01*
X0274600Y0311422D01*
X0274600Y0311600D01*
X0267000Y0311600D01*
X0267000Y0312000D01*
X0266600Y0312000D01*
X0266600Y0316600D01*
X0263422Y0316600D01*
X0262676Y0316482D01*
X0261957Y0316248D01*
X0261284Y0315905D01*
X0260673Y0315461D01*
X0260139Y0314927D01*
X0259695Y0314316D01*
X0259352Y0313643D01*
X0259118Y0312924D01*
X0259000Y0312178D01*
X0259000Y0312000D01*
X0266600Y0312000D01*
X0266600Y0311600D01*
X0259000Y0311600D01*
X0259000Y0311422D01*
X0259118Y0310676D01*
X0259352Y0309957D01*
X0259695Y0309284D01*
X0259829Y0309100D01*
X0247734Y0309100D01*
X0246434Y0309639D01*
X0237166Y0309639D01*
X0235696Y0309030D01*
X0234570Y0307904D01*
X0233961Y0306434D01*
X0233961Y0297166D01*
X0234570Y0295696D01*
X0235696Y0294570D01*
X0237166Y0293961D01*
X0241201Y0293961D01*
X0240800Y0292993D01*
X0240800Y0267800D01*
X0229073Y0267800D01*
X0229030Y0267904D01*
X0227904Y0269030D01*
X0226434Y0269639D01*
X0217166Y0269639D01*
X0215696Y0269030D01*
X0214570Y0267904D01*
X0213961Y0266434D01*
X0213961Y0257166D01*
X0214113Y0256800D01*
X0213961Y0256434D01*
X0213961Y0247166D01*
X0214113Y0246800D01*
X0213961Y0246434D01*
X0213961Y0237166D01*
X0214113Y0236800D01*
X0213961Y0236434D01*
X0213961Y0227166D01*
X0214113Y0226800D01*
X0213961Y0226434D01*
X0213961Y0217166D01*
X0214113Y0216800D01*
X0213961Y0216434D01*
X0213961Y0207166D01*
X0214113Y0206800D01*
X0213961Y0206434D01*
X0213961Y0197166D01*
X0214570Y0195696D01*
X0215696Y0194570D01*
X0217166Y0193961D01*
X0218961Y0193961D01*
X0218961Y0187973D01*
X0217904Y0189030D01*
X0216434Y0189639D01*
X0207166Y0189639D01*
X0205696Y0189030D01*
X0204570Y0187904D01*
X0203961Y0186434D01*
X0203961Y0177166D01*
X0204570Y0175696D01*
X0205696Y0174570D01*
X0205800Y0174527D01*
X0205800Y0167800D01*
X0198478Y0167800D01*
X0199500Y0170268D01*
X0199500Y0173332D01*
X0198328Y0176162D01*
X0197689Y0176800D01*
X0199500Y0178611D01*
X0199500Y0184989D01*
X0197689Y0186800D01*
X0199500Y0188611D01*
X0199500Y0194989D01*
X0197689Y0196800D01*
X0199500Y0198611D01*
X0199500Y0204989D01*
X0197689Y0206800D01*
X0199500Y0208611D01*
X0199500Y0214989D01*
X0197689Y0216800D01*
X0199500Y0218611D01*
X0199500Y0224989D01*
X0197689Y0226800D01*
X0199500Y0228611D01*
X0199500Y0234989D01*
X0197689Y0236800D01*
X0199500Y0238611D01*
X0199500Y0244989D01*
X0197689Y0246800D01*
X0199500Y0248611D01*
X0199500Y0254989D01*
X0197689Y0256800D01*
X0199500Y0258611D01*
X0199500Y0264989D01*
X0197689Y0266800D01*
X0199500Y0268611D01*
X0199500Y0274989D01*
X0197689Y0276800D01*
X0199500Y0278611D01*
X0199500Y0284989D01*
X0197689Y0286800D01*
X0199500Y0288611D01*
X0199500Y0294989D01*
X0197689Y0296800D01*
X0199500Y0298611D01*
X0199500Y0304989D01*
X0197689Y0306800D01*
X0199500Y0308611D01*
X0199500Y0314989D01*
X0197689Y0316800D01*
X0199500Y0318611D01*
X0199500Y0324989D01*
X0197689Y0326800D01*
X0199500Y0328611D01*
X0199500Y0334989D01*
X0197689Y0336800D01*
X0198328Y0337438D01*
X0199500Y0340268D01*
X0199500Y0343332D01*
X0198328Y0346162D01*
X0196162Y0348328D01*
X0193332Y0349500D01*
X0190268Y0349500D01*
X0187438Y0348328D01*
X0186800Y0347689D01*
X0186162Y0348328D01*
X0183332Y0349500D01*
X0180268Y0349500D01*
X0177438Y0348328D01*
X0175272Y0346162D01*
X0174100Y0343332D01*
X0174100Y0340268D01*
X0175272Y0337438D01*
X0175911Y0336800D01*
X0174100Y0334989D01*
X0174100Y0328611D01*
X0175911Y0326800D01*
X0174100Y0324989D01*
X0174100Y0318611D01*
X0175911Y0316800D01*
X0174100Y0314989D01*
X0174100Y0308611D01*
X0175911Y0306800D01*
X0174100Y0304989D01*
X0174100Y0298611D01*
X0175911Y0296800D01*
X0174100Y0294989D01*
X0174100Y0288611D01*
X0175911Y0286800D01*
X0174100Y0284989D01*
X0174100Y0278611D01*
X0175911Y0276800D01*
X0174100Y0274989D01*
X0174100Y0268611D01*
X0175911Y0266800D01*
X0174100Y0264989D01*
X0174100Y0258611D01*
X0175911Y0256800D01*
X0174100Y0254989D01*
X0174100Y0248611D01*
X0175911Y0246800D01*
X0174100Y0244989D01*
X0174100Y0238611D01*
X0175911Y0236800D01*
X0174100Y0234989D01*
X0174100Y0228611D01*
X0175911Y0226800D01*
X0174100Y0224989D01*
X0174100Y0218611D01*
X0175911Y0216800D01*
X0174100Y0214989D01*
X0174100Y0208611D01*
X0175911Y0206800D01*
X0174100Y0204989D01*
X0174100Y0198611D01*
X0175911Y0196800D01*
X0174100Y0194989D01*
X0174100Y0188611D01*
X0175911Y0186800D01*
X0174100Y0184989D01*
X0174100Y0178611D01*
X0175911Y0176800D01*
X0175272Y0176162D01*
X0174100Y0173332D01*
X0174100Y0170268D01*
X0175272Y0167438D01*
X0177438Y0165272D01*
X0180268Y0164100D01*
X0183332Y0164100D01*
X0186162Y0165272D01*
X0186800Y0165911D01*
X0187113Y0165598D01*
X0186713Y0165199D01*
X0185800Y0162993D01*
X0185800Y0059073D01*
X0185696Y0059030D01*
X0184570Y0057904D01*
X0183961Y0056434D01*
X0183961Y0047166D01*
X0184570Y0045696D01*
X0185696Y0044570D01*
X0187166Y0043961D01*
X0196434Y0043961D01*
X0197904Y0044570D01*
X0199030Y0045696D01*
X0199556Y0046967D02*
X0464982Y0046967D01*
X0464800Y0048566D02*
X0199639Y0048566D01*
X0199639Y0050164D02*
X0464800Y0050164D01*
X0464800Y0051763D02*
X0199639Y0051763D01*
X0199639Y0053361D02*
X0397339Y0053361D01*
X0395814Y0054960D02*
X0394681Y0054960D01*
X0392000Y0054960D02*
X0391600Y0054960D01*
X0391600Y0054000D02*
X0391600Y0061600D01*
X0387000Y0061600D01*
X0387000Y0058422D01*
X0387118Y0057676D01*
X0387352Y0056957D01*
X0387695Y0056284D01*
X0388139Y0055673D01*
X0388673Y0055139D01*
X0389284Y0054695D01*
X0389957Y0054352D01*
X0390676Y0054118D01*
X0391422Y0054000D01*
X0391600Y0054000D01*
X0391600Y0056558D02*
X0392000Y0056558D01*
X0392000Y0058157D02*
X0391600Y0058157D01*
X0391600Y0059755D02*
X0392000Y0059755D01*
X0392000Y0061354D02*
X0391600Y0061354D01*
X0391600Y0062952D02*
X0392000Y0062952D01*
X0392000Y0064551D02*
X0391600Y0064551D01*
X0391600Y0066149D02*
X0392000Y0066149D01*
X0392000Y0067748D02*
X0391600Y0067748D01*
X0391600Y0069346D02*
X0392000Y0069346D01*
X0393341Y0069346D02*
X0396236Y0069346D01*
X0390259Y0069346D02*
X0197800Y0069346D01*
X0197800Y0067748D02*
X0388009Y0067748D01*
X0387191Y0066149D02*
X0197800Y0066149D01*
X0197800Y0064551D02*
X0387000Y0064551D01*
X0387000Y0062952D02*
X0197800Y0062952D01*
X0197800Y0061354D02*
X0387000Y0061354D01*
X0387000Y0059755D02*
X0197800Y0059755D01*
X0198777Y0058157D02*
X0387042Y0058157D01*
X0387555Y0056558D02*
X0199587Y0056558D01*
X0199639Y0054960D02*
X0388919Y0054960D01*
X0406261Y0053361D02*
X0407339Y0053361D01*
X0416261Y0053361D02*
X0417339Y0053361D01*
X0426261Y0053361D02*
X0427339Y0053361D01*
X0436261Y0053361D02*
X0437339Y0053361D01*
X0446261Y0053361D02*
X0464800Y0053361D01*
X0464800Y0054960D02*
X0447786Y0054960D01*
X0448448Y0056558D02*
X0464952Y0056558D01*
X0465614Y0058157D02*
X0448800Y0058157D01*
X0448800Y0059755D02*
X0466856Y0059755D01*
X0469331Y0061354D02*
X0448800Y0061354D01*
X0448800Y0062952D02*
X0581200Y0062952D01*
X0581200Y0061354D02*
X0514269Y0061354D01*
X0516744Y0059755D02*
X0581200Y0059755D01*
X0581200Y0058157D02*
X0517986Y0058157D01*
X0518648Y0056558D02*
X0581200Y0056558D01*
X0581200Y0054960D02*
X0518800Y0054960D01*
X0518800Y0053361D02*
X0581200Y0053361D01*
X0581200Y0051763D02*
X0518800Y0051763D01*
X0518800Y0050164D02*
X0581200Y0050164D01*
X0581200Y0048566D02*
X0518800Y0048566D01*
X0518618Y0046967D02*
X0562633Y0046967D01*
X0570967Y0046967D02*
X0581200Y0046967D01*
X0581200Y0045369D02*
X0572565Y0045369D01*
X0573400Y0043770D02*
X0581200Y0043770D01*
X0581200Y0042172D02*
X0573400Y0042172D01*
X0573400Y0040573D02*
X0581200Y0040573D01*
X0581200Y0038975D02*
X0573308Y0038975D01*
X0575213Y0037376D02*
X0581200Y0037376D01*
X0581200Y0035778D02*
X0578449Y0035778D01*
X0580117Y0034179D02*
X0581200Y0034179D01*
X0581200Y0064551D02*
X0448800Y0064551D01*
X0448800Y0066149D02*
X0581200Y0066149D01*
X0581200Y0067748D02*
X0448156Y0067748D01*
X0447153Y0069346D02*
X0581200Y0069346D01*
X0581200Y0070945D02*
X0445257Y0070945D01*
X0438343Y0070945D02*
X0435257Y0070945D01*
X0428343Y0070945D02*
X0425257Y0070945D01*
X0418343Y0070945D02*
X0415257Y0070945D01*
X0409639Y0072543D02*
X0581200Y0072543D01*
X0581200Y0074142D02*
X0409639Y0074142D01*
X0409639Y0075740D02*
X0581200Y0075740D01*
X0581200Y0077339D02*
X0409639Y0077339D01*
X0409639Y0078937D02*
X0581200Y0078937D01*
X0581200Y0080536D02*
X0409639Y0080536D01*
X0409349Y0082134D02*
X0581200Y0082134D01*
X0581200Y0083733D02*
X0408201Y0083733D01*
X0395399Y0083733D02*
X0287800Y0083733D01*
X0287800Y0085332D02*
X0581200Y0085332D01*
X0581200Y0086930D02*
X0287800Y0086930D01*
X0287800Y0088529D02*
X0581200Y0088529D01*
X0581200Y0090127D02*
X0530027Y0090127D01*
X0529699Y0089800D02*
X0533800Y0093901D01*
X0533800Y0099699D01*
X0531699Y0101800D01*
X0533800Y0103901D01*
X0533800Y0109699D01*
X0529699Y0113800D01*
X0523901Y0113800D01*
X0521800Y0111699D01*
X0519699Y0113800D01*
X0513901Y0113800D01*
X0511800Y0111699D01*
X0509699Y0113800D01*
X0503901Y0113800D01*
X0501800Y0111699D01*
X0499699Y0113800D01*
X0493901Y0113800D01*
X0491800Y0111699D01*
X0489699Y0113800D01*
X0483901Y0113800D01*
X0481800Y0111699D01*
X0479699Y0113800D01*
X0473901Y0113800D01*
X0471800Y0111699D01*
X0469699Y0113800D01*
X0463901Y0113800D01*
X0461800Y0111699D01*
X0459699Y0113800D01*
X0453901Y0113800D01*
X0449800Y0109699D01*
X0449800Y0103901D01*
X0451901Y0101800D01*
X0449800Y0099699D01*
X0449800Y0093901D01*
X0453901Y0089800D01*
X0459699Y0089800D01*
X0461800Y0091901D01*
X0463901Y0089800D01*
X0469699Y0089800D01*
X0471800Y0091901D01*
X0473901Y0089800D01*
X0479699Y0089800D01*
X0481800Y0091901D01*
X0483901Y0089800D01*
X0489699Y0089800D01*
X0491800Y0091901D01*
X0493901Y0089800D01*
X0499699Y0089800D01*
X0501800Y0091901D01*
X0503901Y0089800D01*
X0509699Y0089800D01*
X0511800Y0091901D01*
X0513901Y0089800D01*
X0519699Y0089800D01*
X0521800Y0091901D01*
X0523901Y0089800D01*
X0529699Y0089800D01*
X0531625Y0091726D02*
X0581200Y0091726D01*
X0581200Y0093324D02*
X0533224Y0093324D01*
X0533800Y0094923D02*
X0581200Y0094923D01*
X0581200Y0096521D02*
X0533800Y0096521D01*
X0533800Y0098120D02*
X0581200Y0098120D01*
X0581200Y0099718D02*
X0533781Y0099718D01*
X0532183Y0101317D02*
X0581200Y0101317D01*
X0581200Y0102915D02*
X0532815Y0102915D01*
X0533800Y0104514D02*
X0581200Y0104514D01*
X0581200Y0106112D02*
X0533800Y0106112D01*
X0533800Y0107711D02*
X0581200Y0107711D01*
X0581200Y0109309D02*
X0533800Y0109309D01*
X0532592Y0110908D02*
X0581200Y0110908D01*
X0581200Y0112506D02*
X0530993Y0112506D01*
X0522607Y0112506D02*
X0520993Y0112506D01*
X0512607Y0112506D02*
X0510993Y0112506D01*
X0502607Y0112506D02*
X0500993Y0112506D01*
X0492607Y0112506D02*
X0490993Y0112506D01*
X0482607Y0112506D02*
X0480993Y0112506D01*
X0472607Y0112506D02*
X0470993Y0112506D01*
X0462607Y0112506D02*
X0460993Y0112506D01*
X0452607Y0112506D02*
X0368800Y0112506D01*
X0368800Y0112408D02*
X0368800Y0121192D01*
X0367734Y0123765D01*
X0365765Y0125734D01*
X0363192Y0126800D01*
X0360408Y0126800D01*
X0357835Y0125734D01*
X0356800Y0124699D01*
X0355765Y0125734D01*
X0353192Y0126800D01*
X0350408Y0126800D01*
X0347835Y0125734D01*
X0346800Y0124699D01*
X0345765Y0125734D01*
X0343192Y0126800D01*
X0340408Y0126800D01*
X0337835Y0125734D01*
X0336800Y0124699D01*
X0335765Y0125734D01*
X0333192Y0126800D01*
X0330408Y0126800D01*
X0327835Y0125734D01*
X0326800Y0124699D01*
X0325765Y0125734D01*
X0323192Y0126800D01*
X0320408Y0126800D01*
X0317835Y0125734D01*
X0316800Y0124699D01*
X0315765Y0125734D01*
X0313192Y0126800D01*
X0310408Y0126800D01*
X0307835Y0125734D01*
X0305866Y0123765D01*
X0304800Y0121192D01*
X0304800Y0112408D01*
X0305866Y0109835D01*
X0307835Y0107866D01*
X0310408Y0106800D01*
X0313192Y0106800D01*
X0315765Y0107866D01*
X0316800Y0108901D01*
X0317835Y0107866D01*
X0320408Y0106800D01*
X0323192Y0106800D01*
X0325765Y0107866D01*
X0326800Y0108901D01*
X0327835Y0107866D01*
X0330408Y0106800D01*
X0333192Y0106800D01*
X0335765Y0107866D01*
X0336800Y0108901D01*
X0337835Y0107866D01*
X0340408Y0106800D01*
X0343192Y0106800D01*
X0345765Y0107866D01*
X0346800Y0108901D01*
X0347835Y0107866D01*
X0350408Y0106800D01*
X0353192Y0106800D01*
X0355765Y0107866D01*
X0356800Y0108901D01*
X0357835Y0107866D01*
X0360408Y0106800D01*
X0363192Y0106800D01*
X0365765Y0107866D01*
X0367734Y0109835D01*
X0368800Y0112408D01*
X0368179Y0110908D02*
X0451008Y0110908D01*
X0449800Y0109309D02*
X0367209Y0109309D01*
X0365391Y0107711D02*
X0449800Y0107711D01*
X0449800Y0106112D02*
X0287800Y0106112D01*
X0287800Y0104514D02*
X0449800Y0104514D01*
X0450785Y0102915D02*
X0287800Y0102915D01*
X0287800Y0101317D02*
X0451417Y0101317D01*
X0449819Y0099718D02*
X0287800Y0099718D01*
X0287800Y0098120D02*
X0449800Y0098120D01*
X0449800Y0096521D02*
X0287800Y0096521D01*
X0287800Y0094923D02*
X0449800Y0094923D01*
X0450376Y0093324D02*
X0287800Y0093324D01*
X0287800Y0091726D02*
X0451975Y0091726D01*
X0453573Y0090127D02*
X0287800Y0090127D01*
X0275800Y0090127D02*
X0197800Y0090127D01*
X0197800Y0088529D02*
X0275800Y0088529D01*
X0275800Y0086930D02*
X0197800Y0086930D01*
X0197800Y0085332D02*
X0275800Y0085332D01*
X0275800Y0083733D02*
X0197800Y0083733D01*
X0197800Y0082134D02*
X0275800Y0082134D01*
X0275800Y0080536D02*
X0197800Y0080536D01*
X0197800Y0078937D02*
X0275800Y0078937D01*
X0275800Y0077339D02*
X0197800Y0077339D01*
X0197800Y0075740D02*
X0275800Y0075740D01*
X0276407Y0074142D02*
X0197800Y0074142D01*
X0197800Y0072543D02*
X0277571Y0072543D01*
X0280257Y0070945D02*
X0197800Y0070945D01*
X0185800Y0070945D02*
X0157800Y0070945D01*
X0157800Y0072543D02*
X0185800Y0072543D01*
X0185800Y0074142D02*
X0157800Y0074142D01*
X0157800Y0075740D02*
X0185800Y0075740D01*
X0185800Y0077339D02*
X0157800Y0077339D01*
X0157800Y0078937D02*
X0185800Y0078937D01*
X0185800Y0080536D02*
X0157800Y0080536D01*
X0157800Y0082134D02*
X0185800Y0082134D01*
X0185800Y0083733D02*
X0157800Y0083733D01*
X0157800Y0085332D02*
X0185800Y0085332D01*
X0185800Y0086930D02*
X0157800Y0086930D01*
X0157800Y0088529D02*
X0185800Y0088529D01*
X0185800Y0090127D02*
X0157800Y0090127D01*
X0157800Y0091726D02*
X0185800Y0091726D01*
X0185800Y0093324D02*
X0157800Y0093324D01*
X0157800Y0094923D02*
X0185800Y0094923D01*
X0185800Y0096521D02*
X0157800Y0096521D01*
X0157800Y0098120D02*
X0185800Y0098120D01*
X0185800Y0099718D02*
X0157800Y0099718D01*
X0157800Y0101317D02*
X0185800Y0101317D01*
X0185800Y0102915D02*
X0157800Y0102915D01*
X0157800Y0104514D02*
X0185800Y0104514D01*
X0185800Y0106112D02*
X0157800Y0106112D01*
X0157800Y0107711D02*
X0185800Y0107711D01*
X0185800Y0109309D02*
X0157800Y0109309D01*
X0157800Y0110908D02*
X0185800Y0110908D01*
X0185800Y0112506D02*
X0157800Y0112506D01*
X0157800Y0114105D02*
X0185800Y0114105D01*
X0185800Y0115703D02*
X0157800Y0115703D01*
X0157800Y0117302D02*
X0185800Y0117302D01*
X0185800Y0118900D02*
X0157800Y0118900D01*
X0157800Y0120499D02*
X0185800Y0120499D01*
X0185800Y0122097D02*
X0157800Y0122097D01*
X0157800Y0123696D02*
X0185800Y0123696D01*
X0185800Y0125294D02*
X0157800Y0125294D01*
X0157800Y0126893D02*
X0185800Y0126893D01*
X0185800Y0128491D02*
X0157800Y0128491D01*
X0157800Y0130090D02*
X0185800Y0130090D01*
X0185800Y0131688D02*
X0157800Y0131688D01*
X0157800Y0133287D02*
X0185800Y0133287D01*
X0185800Y0134885D02*
X0157800Y0134885D01*
X0157800Y0136484D02*
X0185800Y0136484D01*
X0185800Y0138082D02*
X0157800Y0138082D01*
X0157800Y0139681D02*
X0185800Y0139681D01*
X0185800Y0141279D02*
X0157800Y0141279D01*
X0157800Y0142878D02*
X0185800Y0142878D01*
X0185800Y0144476D02*
X0157800Y0144476D01*
X0157800Y0146075D02*
X0185800Y0146075D01*
X0185800Y0147673D02*
X0157800Y0147673D01*
X0157800Y0149272D02*
X0185800Y0149272D01*
X0185800Y0150870D02*
X0157800Y0150870D01*
X0157800Y0152469D02*
X0185800Y0152469D01*
X0185800Y0154068D02*
X0157800Y0154068D01*
X0157800Y0155666D02*
X0185800Y0155666D01*
X0185800Y0157265D02*
X0157800Y0157265D01*
X0157800Y0158863D02*
X0185800Y0158863D01*
X0185800Y0160462D02*
X0157800Y0160462D01*
X0157800Y0162060D02*
X0185800Y0162060D01*
X0186076Y0163659D02*
X0157800Y0163659D01*
X0157800Y0165257D02*
X0177475Y0165257D01*
X0175855Y0166856D02*
X0157800Y0166856D01*
X0157800Y0168454D02*
X0174851Y0168454D01*
X0174189Y0170053D02*
X0157800Y0170053D01*
X0157800Y0171651D02*
X0174100Y0171651D01*
X0174100Y0173250D02*
X0157800Y0173250D01*
X0158182Y0174848D02*
X0174728Y0174848D01*
X0175557Y0176447D02*
X0159341Y0176447D01*
X0159639Y0178045D02*
X0174665Y0178045D01*
X0174100Y0179644D02*
X0159639Y0179644D01*
X0159639Y0181242D02*
X0174100Y0181242D01*
X0174100Y0182841D02*
X0159639Y0182841D01*
X0159639Y0184439D02*
X0174100Y0184439D01*
X0175148Y0186038D02*
X0159639Y0186038D01*
X0159141Y0187636D02*
X0175074Y0187636D01*
X0174100Y0189235D02*
X0157409Y0189235D01*
X0146191Y0189235D02*
X0144639Y0189235D01*
X0144639Y0190833D02*
X0174100Y0190833D01*
X0174100Y0192432D02*
X0144639Y0192432D01*
X0144639Y0194030D02*
X0174100Y0194030D01*
X0174739Y0195629D02*
X0144639Y0195629D01*
X0144310Y0197227D02*
X0175483Y0197227D01*
X0174100Y0198826D02*
X0143108Y0198826D01*
X0130492Y0198826D02*
X0017400Y0198826D01*
X0017400Y0200424D02*
X0174100Y0200424D01*
X0174100Y0202023D02*
X0017400Y0202023D01*
X0017400Y0203621D02*
X0174100Y0203621D01*
X0174330Y0205220D02*
X0017400Y0205220D01*
X0017400Y0206818D02*
X0175892Y0206818D01*
X0174294Y0208417D02*
X0084639Y0208417D01*
X0083623Y0207400D02*
X0086200Y0209977D01*
X0086200Y0211800D01*
X0086200Y0213623D01*
X0083623Y0216200D01*
X0081800Y0216200D01*
X0081800Y0211800D01*
X0081800Y0211800D01*
X0086200Y0211800D01*
X0081800Y0211800D01*
X0081800Y0211800D01*
X0081800Y0211800D01*
X0077400Y0211800D01*
X0077400Y0213623D01*
X0079977Y0216200D01*
X0081800Y0216200D01*
X0081800Y0211800D01*
X0081800Y0207400D01*
X0083623Y0207400D01*
X0081800Y0207400D02*
X0081800Y0211800D01*
X0081800Y0211800D01*
X0077400Y0211800D01*
X0077400Y0209977D01*
X0079977Y0207400D01*
X0081800Y0207400D01*
X0081800Y0208417D02*
X0081800Y0208417D01*
X0081800Y0210015D02*
X0081800Y0210015D01*
X0081800Y0211614D02*
X0081800Y0211614D01*
X0081800Y0213212D02*
X0081800Y0213212D01*
X0081800Y0214811D02*
X0081800Y0214811D01*
X0085012Y0214811D02*
X0117381Y0214811D01*
X0117408Y0214800D02*
X0126192Y0214800D01*
X0128765Y0215866D01*
X0130734Y0217835D01*
X0131800Y0220408D01*
X0131800Y0223192D01*
X0130734Y0225765D01*
X0129699Y0226800D01*
X0130734Y0227835D01*
X0131800Y0230408D01*
X0131800Y0233192D01*
X0130734Y0235765D01*
X0129699Y0236800D01*
X0130734Y0237835D01*
X0131800Y0240408D01*
X0131800Y0243192D01*
X0130734Y0245765D01*
X0129699Y0246800D01*
X0130734Y0247835D01*
X0131800Y0250408D01*
X0131800Y0253192D01*
X0130734Y0255765D01*
X0129699Y0256800D01*
X0130734Y0257835D01*
X0131800Y0260408D01*
X0131800Y0263192D01*
X0130734Y0265765D01*
X0129699Y0266800D01*
X0130734Y0267835D01*
X0131800Y0270408D01*
X0131800Y0273192D01*
X0130734Y0275765D01*
X0129699Y0276800D01*
X0130734Y0277835D01*
X0131800Y0280408D01*
X0131800Y0283192D01*
X0130734Y0285765D01*
X0129699Y0286800D01*
X0130734Y0287835D01*
X0131800Y0290408D01*
X0131800Y0293192D01*
X0130734Y0295765D01*
X0129699Y0296800D01*
X0130734Y0297835D01*
X0131800Y0300408D01*
X0131800Y0303192D01*
X0130734Y0305765D01*
X0129699Y0306800D01*
X0130734Y0307835D01*
X0131800Y0310408D01*
X0131800Y0313192D01*
X0130734Y0315765D01*
X0129699Y0316800D01*
X0130734Y0317835D01*
X0131800Y0320408D01*
X0131800Y0323192D01*
X0130734Y0325765D01*
X0129699Y0326800D01*
X0130734Y0327835D01*
X0131800Y0330408D01*
X0131800Y0333192D01*
X0130734Y0335765D01*
X0128765Y0337734D01*
X0126192Y0338800D01*
X0117408Y0338800D01*
X0114835Y0337734D01*
X0112866Y0335765D01*
X0111800Y0333192D01*
X0111800Y0330408D01*
X0112866Y0327835D01*
X0113901Y0326800D01*
X0112866Y0325765D01*
X0111800Y0323192D01*
X0111800Y0320408D01*
X0112866Y0317835D01*
X0113901Y0316800D01*
X0112866Y0315765D01*
X0111800Y0313192D01*
X0111800Y0310408D01*
X0112866Y0307835D01*
X0113901Y0306800D01*
X0112866Y0305765D01*
X0111800Y0303192D01*
X0111800Y0300408D01*
X0112866Y0297835D01*
X0113901Y0296800D01*
X0112866Y0295765D01*
X0111800Y0293192D01*
X0111800Y0290408D01*
X0112866Y0287835D01*
X0113901Y0286800D01*
X0112866Y0285765D01*
X0111800Y0283192D01*
X0111800Y0280408D01*
X0112866Y0277835D01*
X0113901Y0276800D01*
X0112866Y0275765D01*
X0111800Y0273192D01*
X0111800Y0270408D01*
X0112866Y0267835D01*
X0113901Y0266800D01*
X0112866Y0265765D01*
X0111800Y0263192D01*
X0111800Y0260408D01*
X0112866Y0257835D01*
X0113901Y0256800D01*
X0112866Y0255765D01*
X0111800Y0253192D01*
X0111800Y0250408D01*
X0112866Y0247835D01*
X0113901Y0246800D01*
X0112866Y0245765D01*
X0111800Y0243192D01*
X0111800Y0240408D01*
X0112866Y0237835D01*
X0113901Y0236800D01*
X0112866Y0235765D01*
X0111800Y0233192D01*
X0111800Y0230408D01*
X0112866Y0227835D01*
X0113901Y0226800D01*
X0112866Y0225765D01*
X0111800Y0223192D01*
X0111800Y0220408D01*
X0112866Y0217835D01*
X0114835Y0215866D01*
X0117408Y0214800D01*
X0114291Y0216409D02*
X0017400Y0216409D01*
X0017400Y0214811D02*
X0078588Y0214811D01*
X0077400Y0213212D02*
X0017400Y0213212D01*
X0017400Y0211614D02*
X0077400Y0211614D01*
X0077400Y0210015D02*
X0017400Y0210015D01*
X0017400Y0208417D02*
X0078961Y0208417D01*
X0086200Y0210015D02*
X0174100Y0210015D01*
X0174100Y0211614D02*
X0086200Y0211614D01*
X0086200Y0213212D02*
X0174100Y0213212D01*
X0174100Y0214811D02*
X0126219Y0214811D01*
X0129309Y0216409D02*
X0175520Y0216409D01*
X0174703Y0218008D02*
X0130806Y0218008D01*
X0131468Y0219606D02*
X0174100Y0219606D01*
X0174100Y0221205D02*
X0131800Y0221205D01*
X0131800Y0222803D02*
X0174100Y0222803D01*
X0174100Y0224402D02*
X0131299Y0224402D01*
X0130499Y0226001D02*
X0175111Y0226001D01*
X0175112Y0227599D02*
X0130498Y0227599D01*
X0131299Y0229198D02*
X0174100Y0229198D01*
X0174100Y0230796D02*
X0131800Y0230796D01*
X0131800Y0232395D02*
X0174100Y0232395D01*
X0174100Y0233993D02*
X0131468Y0233993D01*
X0130806Y0235592D02*
X0174702Y0235592D01*
X0175520Y0237190D02*
X0130090Y0237190D01*
X0131129Y0238789D02*
X0174100Y0238789D01*
X0174100Y0240387D02*
X0131791Y0240387D01*
X0131800Y0241986D02*
X0174100Y0241986D01*
X0174100Y0243584D02*
X0131638Y0243584D01*
X0130976Y0245183D02*
X0174293Y0245183D01*
X0175892Y0246781D02*
X0129718Y0246781D01*
X0130960Y0248380D02*
X0174331Y0248380D01*
X0174100Y0249978D02*
X0131622Y0249978D01*
X0131800Y0251577D02*
X0174100Y0251577D01*
X0174100Y0253175D02*
X0131800Y0253175D01*
X0131145Y0254774D02*
X0174100Y0254774D01*
X0175483Y0256372D02*
X0130127Y0256372D01*
X0130791Y0257971D02*
X0174740Y0257971D01*
X0174100Y0259569D02*
X0131453Y0259569D01*
X0131800Y0261168D02*
X0174100Y0261168D01*
X0174100Y0262766D02*
X0131800Y0262766D01*
X0131314Y0264365D02*
X0174100Y0264365D01*
X0175074Y0265963D02*
X0130536Y0265963D01*
X0130461Y0267562D02*
X0175149Y0267562D01*
X0174100Y0269160D02*
X0131283Y0269160D01*
X0131800Y0270759D02*
X0174100Y0270759D01*
X0174100Y0272357D02*
X0131800Y0272357D01*
X0131484Y0273956D02*
X0174100Y0273956D01*
X0174665Y0275554D02*
X0130822Y0275554D01*
X0130052Y0277153D02*
X0175558Y0277153D01*
X0174100Y0278751D02*
X0131114Y0278751D01*
X0131776Y0280350D02*
X0174100Y0280350D01*
X0174100Y0281948D02*
X0131800Y0281948D01*
X0131653Y0283547D02*
X0174100Y0283547D01*
X0174256Y0285145D02*
X0130991Y0285145D01*
X0129756Y0286744D02*
X0175855Y0286744D01*
X0174368Y0288342D02*
X0130945Y0288342D01*
X0131607Y0289941D02*
X0174100Y0289941D01*
X0174100Y0291539D02*
X0131800Y0291539D01*
X0131800Y0293138D02*
X0174100Y0293138D01*
X0174100Y0294737D02*
X0131160Y0294737D01*
X0130164Y0296335D02*
X0175446Y0296335D01*
X0174777Y0297934D02*
X0130775Y0297934D01*
X0131437Y0299532D02*
X0174100Y0299532D01*
X0174100Y0301131D02*
X0131800Y0301131D01*
X0131800Y0302729D02*
X0174100Y0302729D01*
X0174100Y0304328D02*
X0131330Y0304328D01*
X0130573Y0305926D02*
X0175037Y0305926D01*
X0175186Y0307525D02*
X0130424Y0307525D01*
X0131268Y0309123D02*
X0174100Y0309123D01*
X0174100Y0310722D02*
X0131800Y0310722D01*
X0131800Y0312320D02*
X0174100Y0312320D01*
X0174100Y0313919D02*
X0131499Y0313919D01*
X0130837Y0315517D02*
X0174628Y0315517D01*
X0175595Y0317116D02*
X0130015Y0317116D01*
X0131099Y0318714D02*
X0174100Y0318714D01*
X0174100Y0320313D02*
X0131761Y0320313D01*
X0131800Y0321911D02*
X0174100Y0321911D01*
X0174100Y0323510D02*
X0131669Y0323510D01*
X0131006Y0325108D02*
X0174219Y0325108D01*
X0175817Y0326707D02*
X0129793Y0326707D01*
X0130929Y0328305D02*
X0174405Y0328305D01*
X0174100Y0329904D02*
X0131591Y0329904D01*
X0131800Y0331502D02*
X0174100Y0331502D01*
X0174100Y0333101D02*
X0131800Y0333101D01*
X0131176Y0334699D02*
X0174100Y0334699D01*
X0175408Y0336298D02*
X0130202Y0336298D01*
X0128374Y0337896D02*
X0175083Y0337896D01*
X0174420Y0339495D02*
X0109100Y0339495D01*
X0109100Y0341093D02*
X0174100Y0341093D01*
X0174100Y0342692D02*
X0109100Y0342692D01*
X0109100Y0344290D02*
X0174497Y0344290D01*
X0175159Y0345889D02*
X0109100Y0345889D01*
X0109100Y0347487D02*
X0176598Y0347487D01*
X0179269Y0349086D02*
X0109100Y0349086D01*
X0109100Y0349500D02*
X0510866Y0349500D01*
X0512166Y0348961D01*
X0521434Y0348961D01*
X0522904Y0349570D01*
X0524030Y0350696D01*
X0524639Y0352166D01*
X0524639Y0361434D01*
X0524030Y0362904D01*
X0522904Y0364030D01*
X0521434Y0364639D01*
X0512166Y0364639D01*
X0510866Y0364100D01*
X0286769Y0364100D01*
X0287904Y0364570D01*
X0289030Y0365696D01*
X0289073Y0365800D01*
X0292993Y0365800D01*
X0295199Y0366713D01*
X0296887Y0368401D01*
X0297800Y0370607D01*
X0297800Y0407993D01*
X0296887Y0410199D01*
X0295199Y0411887D01*
X0292993Y0412800D01*
X0045607Y0412800D01*
X0043401Y0411887D01*
X0041713Y0410199D01*
X0040800Y0407993D01*
X0040800Y0392800D01*
X0035607Y0392800D01*
X0033401Y0391887D01*
X0031713Y0390199D01*
X0030800Y0387993D01*
X0030800Y0260607D01*
X0031713Y0258401D01*
X0033401Y0256713D01*
X0035607Y0255800D01*
X0054993Y0255800D01*
X0057408Y0254800D01*
X0066192Y0254800D01*
X0068765Y0255866D01*
X0070734Y0257835D01*
X0071800Y0260408D01*
X0071800Y0263192D01*
X0070734Y0265765D01*
X0069699Y0266800D01*
X0070734Y0267835D01*
X0071800Y0270408D01*
X0071800Y0273192D01*
X0070734Y0275765D01*
X0068765Y0277734D01*
X0067877Y0278102D01*
X0067927Y0278139D01*
X0068461Y0278673D01*
X0068905Y0279284D01*
X0069248Y0279957D01*
X0069482Y0280676D01*
X0069600Y0281422D01*
X0069600Y0281600D01*
X0062000Y0281600D01*
X0062000Y0282000D01*
X0069600Y0282000D01*
X0069600Y0282178D01*
X0069482Y0282924D01*
X0069248Y0283643D01*
X0068905Y0284316D01*
X0068771Y0284500D01*
X0103252Y0284500D01*
X0105935Y0285611D01*
X0107989Y0287665D01*
X0109100Y0290348D01*
X0109100Y0349500D01*
X0109100Y0337896D02*
X0115226Y0337896D01*
X0113398Y0336298D02*
X0109100Y0336298D01*
X0109100Y0334699D02*
X0112424Y0334699D01*
X0111800Y0333101D02*
X0109100Y0333101D01*
X0109100Y0331502D02*
X0111800Y0331502D01*
X0112009Y0329904D02*
X0109100Y0329904D01*
X0109100Y0328305D02*
X0112671Y0328305D01*
X0113807Y0326707D02*
X0109100Y0326707D01*
X0109100Y0325108D02*
X0112594Y0325108D01*
X0111931Y0323510D02*
X0109100Y0323510D01*
X0109100Y0321911D02*
X0111800Y0321911D01*
X0111839Y0320313D02*
X0109100Y0320313D01*
X0109100Y0318714D02*
X0112501Y0318714D01*
X0113585Y0317116D02*
X0109100Y0317116D01*
X0109100Y0315517D02*
X0112763Y0315517D01*
X0112101Y0313919D02*
X0109100Y0313919D01*
X0109100Y0312320D02*
X0111800Y0312320D01*
X0111800Y0310722D02*
X0109100Y0310722D01*
X0109100Y0309123D02*
X0112332Y0309123D01*
X0113176Y0307525D02*
X0109100Y0307525D01*
X0109100Y0305926D02*
X0113027Y0305926D01*
X0112270Y0304328D02*
X0109100Y0304328D01*
X0109100Y0302729D02*
X0111800Y0302729D01*
X0111800Y0301131D02*
X0109100Y0301131D01*
X0109100Y0299532D02*
X0112163Y0299532D01*
X0112825Y0297934D02*
X0109100Y0297934D01*
X0109100Y0296335D02*
X0113436Y0296335D01*
X0112440Y0294737D02*
X0109100Y0294737D01*
X0109100Y0293138D02*
X0111800Y0293138D01*
X0111800Y0291539D02*
X0109100Y0291539D01*
X0108931Y0289941D02*
X0111993Y0289941D01*
X0112655Y0288342D02*
X0108269Y0288342D01*
X0107068Y0286744D02*
X0113844Y0286744D01*
X0112609Y0285145D02*
X0104810Y0285145D01*
X0111947Y0283547D02*
X0069279Y0283547D01*
X0069376Y0280350D02*
X0111824Y0280350D01*
X0111800Y0281948D02*
X0062000Y0281948D01*
X0061600Y0281948D02*
X0042800Y0281948D01*
X0042800Y0280350D02*
X0054224Y0280350D01*
X0054118Y0280676D02*
X0054352Y0279957D01*
X0054695Y0279284D01*
X0055139Y0278673D01*
X0055673Y0278139D01*
X0055723Y0278102D01*
X0054993Y0277800D01*
X0054073Y0277800D01*
X0054030Y0277904D01*
X0052904Y0279030D01*
X0051434Y0279639D01*
X0042800Y0279639D01*
X0042800Y0300800D01*
X0054993Y0300800D01*
X0057408Y0299800D01*
X0066192Y0299800D01*
X0068765Y0300866D01*
X0070734Y0302835D01*
X0071800Y0305408D01*
X0071800Y0308192D01*
X0070734Y0310765D01*
X0069699Y0311800D01*
X0070734Y0312835D01*
X0071800Y0315408D01*
X0071800Y0318192D01*
X0070734Y0320765D01*
X0068765Y0322734D01*
X0067877Y0323102D01*
X0067927Y0323139D01*
X0068461Y0323673D01*
X0068905Y0324284D01*
X0069248Y0324957D01*
X0069482Y0325676D01*
X0069600Y0326422D01*
X0069600Y0326600D01*
X0062000Y0326600D01*
X0062000Y0327000D01*
X0069600Y0327000D01*
X0069600Y0327178D01*
X0069482Y0327924D01*
X0069248Y0328643D01*
X0068905Y0329316D01*
X0068771Y0329500D01*
X0094500Y0329500D01*
X0094500Y0299100D01*
X0060348Y0299100D01*
X0059624Y0298800D01*
X0057408Y0298800D01*
X0054835Y0297734D01*
X0052866Y0295765D01*
X0051800Y0293192D01*
X0051800Y0290408D01*
X0052866Y0287835D01*
X0054835Y0285866D01*
X0055723Y0285498D01*
X0055673Y0285461D01*
X0055139Y0284927D01*
X0054695Y0284316D01*
X0054352Y0283643D01*
X0054118Y0282924D01*
X0054000Y0282178D01*
X0054000Y0282000D01*
X0061600Y0282000D01*
X0061600Y0281600D01*
X0054000Y0281600D01*
X0054000Y0281422D01*
X0054118Y0280676D01*
X0053183Y0278751D02*
X0055082Y0278751D01*
X0054321Y0283547D02*
X0042800Y0283547D01*
X0042800Y0285145D02*
X0055357Y0285145D01*
X0053957Y0286744D02*
X0042800Y0286744D01*
X0042800Y0288342D02*
X0052655Y0288342D01*
X0051993Y0289941D02*
X0042800Y0289941D01*
X0042800Y0291539D02*
X0051800Y0291539D01*
X0051800Y0293138D02*
X0042800Y0293138D01*
X0042800Y0294737D02*
X0052440Y0294737D01*
X0053436Y0296335D02*
X0042800Y0296335D01*
X0042800Y0297934D02*
X0055316Y0297934D01*
X0042800Y0299532D02*
X0094500Y0299532D01*
X0094500Y0301131D02*
X0069030Y0301131D01*
X0070629Y0302729D02*
X0094500Y0302729D01*
X0094500Y0304328D02*
X0071353Y0304328D01*
X0071800Y0305926D02*
X0094500Y0305926D01*
X0094500Y0307525D02*
X0071800Y0307525D01*
X0071414Y0309123D02*
X0094500Y0309123D01*
X0094500Y0310722D02*
X0070752Y0310722D01*
X0070220Y0312320D02*
X0094500Y0312320D01*
X0094500Y0313919D02*
X0071183Y0313919D01*
X0071800Y0315517D02*
X0094500Y0315517D01*
X0094500Y0317116D02*
X0071800Y0317116D01*
X0071584Y0318714D02*
X0094500Y0318714D01*
X0094500Y0320313D02*
X0070922Y0320313D01*
X0069588Y0321911D02*
X0094500Y0321911D01*
X0094500Y0323510D02*
X0068298Y0323510D01*
X0069297Y0325108D02*
X0094500Y0325108D01*
X0094500Y0326707D02*
X0062000Y0326707D01*
X0061600Y0326707D02*
X0052800Y0326707D01*
X0054000Y0326600D02*
X0054000Y0326422D01*
X0054118Y0325676D01*
X0054352Y0324957D01*
X0054695Y0324284D01*
X0055139Y0323673D01*
X0055673Y0323139D01*
X0055723Y0323102D01*
X0054993Y0322800D01*
X0054073Y0322800D01*
X0054030Y0322904D01*
X0052904Y0324030D01*
X0052800Y0324073D01*
X0052800Y0332993D01*
X0052866Y0332835D01*
X0054835Y0330866D01*
X0055723Y0330498D01*
X0055673Y0330461D01*
X0055139Y0329927D01*
X0054695Y0329316D01*
X0054352Y0328643D01*
X0054118Y0327924D01*
X0054000Y0327178D01*
X0054000Y0327000D01*
X0061600Y0327000D01*
X0061600Y0326600D01*
X0054000Y0326600D01*
X0054303Y0325108D02*
X0052800Y0325108D01*
X0053424Y0323510D02*
X0055302Y0323510D01*
X0054242Y0328305D02*
X0052800Y0328305D01*
X0052800Y0329904D02*
X0055122Y0329904D01*
X0054198Y0331502D02*
X0052800Y0331502D01*
X0069358Y0328305D02*
X0094500Y0328305D01*
X0030800Y0328305D02*
X0017400Y0328305D01*
X0017400Y0326707D02*
X0030800Y0326707D01*
X0030800Y0325108D02*
X0017400Y0325108D01*
X0017400Y0323510D02*
X0030800Y0323510D01*
X0030800Y0321911D02*
X0017400Y0321911D01*
X0017400Y0320313D02*
X0030800Y0320313D01*
X0030800Y0318714D02*
X0017400Y0318714D01*
X0017400Y0317116D02*
X0030800Y0317116D01*
X0030800Y0315517D02*
X0017400Y0315517D01*
X0017400Y0313919D02*
X0030800Y0313919D01*
X0030800Y0312320D02*
X0017400Y0312320D01*
X0017400Y0310722D02*
X0030800Y0310722D01*
X0030800Y0309123D02*
X0017400Y0309123D01*
X0017400Y0307525D02*
X0030800Y0307525D01*
X0030800Y0305926D02*
X0017400Y0305926D01*
X0017400Y0304328D02*
X0030800Y0304328D01*
X0030800Y0302729D02*
X0017400Y0302729D01*
X0017400Y0301131D02*
X0030800Y0301131D01*
X0030800Y0299532D02*
X0017400Y0299532D01*
X0017400Y0297934D02*
X0030800Y0297934D01*
X0030800Y0296335D02*
X0017400Y0296335D01*
X0017400Y0294737D02*
X0030800Y0294737D01*
X0030800Y0293138D02*
X0017400Y0293138D01*
X0017400Y0291539D02*
X0030800Y0291539D01*
X0030800Y0289941D02*
X0017400Y0289941D01*
X0017400Y0288342D02*
X0030800Y0288342D01*
X0030800Y0286744D02*
X0017400Y0286744D01*
X0017400Y0285145D02*
X0030800Y0285145D01*
X0030800Y0283547D02*
X0017400Y0283547D01*
X0017400Y0281948D02*
X0030800Y0281948D01*
X0030800Y0280350D02*
X0017400Y0280350D01*
X0017400Y0278751D02*
X0030800Y0278751D01*
X0030800Y0277153D02*
X0017400Y0277153D01*
X0017400Y0275554D02*
X0030800Y0275554D01*
X0030800Y0273956D02*
X0017400Y0273956D01*
X0017400Y0272357D02*
X0030800Y0272357D01*
X0030800Y0270759D02*
X0017400Y0270759D01*
X0017400Y0269160D02*
X0030800Y0269160D01*
X0030800Y0267562D02*
X0017400Y0267562D01*
X0017400Y0265963D02*
X0030800Y0265963D01*
X0030800Y0264365D02*
X0017400Y0264365D01*
X0017400Y0262766D02*
X0030800Y0262766D01*
X0030800Y0261168D02*
X0017400Y0261168D01*
X0017400Y0259569D02*
X0031230Y0259569D01*
X0032144Y0257971D02*
X0017400Y0257971D01*
X0017400Y0256372D02*
X0034225Y0256372D01*
X0017400Y0254774D02*
X0112455Y0254774D01*
X0111800Y0253175D02*
X0017400Y0253175D01*
X0017400Y0251577D02*
X0111800Y0251577D01*
X0111978Y0249978D02*
X0017400Y0249978D01*
X0017400Y0248380D02*
X0112640Y0248380D01*
X0113882Y0246781D02*
X0017400Y0246781D01*
X0017400Y0245183D02*
X0112624Y0245183D01*
X0111962Y0243584D02*
X0017400Y0243584D01*
X0017400Y0241986D02*
X0111800Y0241986D01*
X0111808Y0240387D02*
X0017400Y0240387D01*
X0017400Y0238789D02*
X0112471Y0238789D01*
X0113510Y0237190D02*
X0017400Y0237190D01*
X0017400Y0235592D02*
X0112794Y0235592D01*
X0112132Y0233993D02*
X0017400Y0233993D01*
X0017400Y0232395D02*
X0111800Y0232395D01*
X0111800Y0230796D02*
X0017400Y0230796D01*
X0017400Y0229198D02*
X0112301Y0229198D01*
X0113101Y0227599D02*
X0017400Y0227599D01*
X0017400Y0226001D02*
X0113101Y0226001D01*
X0112301Y0224402D02*
X0017400Y0224402D01*
X0017400Y0222803D02*
X0111800Y0222803D01*
X0111800Y0221205D02*
X0017400Y0221205D01*
X0017400Y0219606D02*
X0112132Y0219606D01*
X0112794Y0218008D02*
X0017400Y0218008D01*
X0017400Y0197227D02*
X0129290Y0197227D01*
X0128961Y0195629D02*
X0017400Y0195629D01*
X0017400Y0194030D02*
X0128961Y0194030D01*
X0128961Y0192432D02*
X0017400Y0192432D01*
X0017400Y0190833D02*
X0128961Y0190833D01*
X0128961Y0189235D02*
X0017400Y0189235D01*
X0017400Y0187636D02*
X0078302Y0187636D01*
X0079066Y0188400D02*
X0075200Y0184534D01*
X0075200Y0179066D01*
X0079066Y0175200D01*
X0084534Y0175200D01*
X0088400Y0179066D01*
X0088400Y0184534D01*
X0084534Y0188400D01*
X0079066Y0188400D01*
X0076704Y0186038D02*
X0017400Y0186038D01*
X0017400Y0184439D02*
X0075200Y0184439D01*
X0075200Y0182841D02*
X0017400Y0182841D01*
X0017400Y0181242D02*
X0075200Y0181242D01*
X0075200Y0179644D02*
X0017400Y0179644D01*
X0017400Y0178045D02*
X0076221Y0178045D01*
X0077820Y0176447D02*
X0017400Y0176447D01*
X0017400Y0174848D02*
X0130800Y0174848D01*
X0130800Y0173250D02*
X0017400Y0173250D01*
X0017400Y0171651D02*
X0130800Y0171651D01*
X0130800Y0170053D02*
X0017400Y0170053D01*
X0017400Y0168454D02*
X0130800Y0168454D01*
X0130800Y0166856D02*
X0017400Y0166856D01*
X0017400Y0165257D02*
X0067358Y0165257D01*
X0067835Y0165734D02*
X0065866Y0163765D01*
X0064800Y0161192D01*
X0064800Y0152408D01*
X0065866Y0149835D01*
X0067835Y0147866D01*
X0070408Y0146800D01*
X0073192Y0146800D01*
X0075765Y0147866D01*
X0076800Y0148901D01*
X0077835Y0147866D01*
X0080408Y0146800D01*
X0083192Y0146800D01*
X0085765Y0147866D01*
X0087734Y0149835D01*
X0088800Y0152408D01*
X0088800Y0161192D01*
X0087734Y0163765D01*
X0085765Y0165734D01*
X0083192Y0166800D01*
X0080408Y0166800D01*
X0077835Y0165734D01*
X0076800Y0164699D01*
X0075765Y0165734D01*
X0073192Y0166800D01*
X0070408Y0166800D01*
X0067835Y0165734D01*
X0065822Y0163659D02*
X0017400Y0163659D01*
X0017400Y0162060D02*
X0065159Y0162060D01*
X0064800Y0160462D02*
X0017400Y0160462D01*
X0017400Y0158863D02*
X0064800Y0158863D01*
X0064800Y0157265D02*
X0017400Y0157265D01*
X0017400Y0155666D02*
X0064800Y0155666D01*
X0064800Y0154068D02*
X0017400Y0154068D01*
X0017400Y0152469D02*
X0064800Y0152469D01*
X0065437Y0150870D02*
X0017400Y0150870D01*
X0017400Y0149272D02*
X0066429Y0149272D01*
X0068299Y0147673D02*
X0017400Y0147673D01*
X0017400Y0146075D02*
X0130800Y0146075D01*
X0130800Y0147673D02*
X0085301Y0147673D01*
X0087171Y0149272D02*
X0130800Y0149272D01*
X0130800Y0150870D02*
X0088163Y0150870D01*
X0088800Y0152469D02*
X0130800Y0152469D01*
X0130800Y0154068D02*
X0088800Y0154068D01*
X0088800Y0155666D02*
X0130800Y0155666D01*
X0130800Y0157265D02*
X0088800Y0157265D01*
X0088800Y0158863D02*
X0130800Y0158863D01*
X0130800Y0160462D02*
X0088800Y0160462D01*
X0088441Y0162060D02*
X0130800Y0162060D01*
X0130800Y0163659D02*
X0087778Y0163659D01*
X0086242Y0165257D02*
X0130800Y0165257D01*
X0130800Y0176447D02*
X0085780Y0176447D01*
X0087379Y0178045D02*
X0130800Y0178045D01*
X0130800Y0179644D02*
X0088400Y0179644D01*
X0088400Y0181242D02*
X0130800Y0181242D01*
X0130800Y0182841D02*
X0088400Y0182841D01*
X0088400Y0184439D02*
X0130800Y0184439D01*
X0129429Y0186038D02*
X0086896Y0186038D01*
X0085298Y0187636D02*
X0128961Y0187636D01*
X0142800Y0184439D02*
X0143961Y0184439D01*
X0143961Y0182841D02*
X0142800Y0182841D01*
X0142800Y0181242D02*
X0143961Y0181242D01*
X0143961Y0179644D02*
X0142800Y0179644D01*
X0142800Y0178045D02*
X0143961Y0178045D01*
X0144259Y0176447D02*
X0142800Y0176447D01*
X0142800Y0174848D02*
X0145418Y0174848D01*
X0145800Y0173250D02*
X0142800Y0173250D01*
X0142800Y0171651D02*
X0145800Y0171651D01*
X0145800Y0170053D02*
X0142800Y0170053D01*
X0142800Y0168454D02*
X0145800Y0168454D01*
X0145800Y0166856D02*
X0142800Y0166856D01*
X0142800Y0165257D02*
X0145800Y0165257D01*
X0145800Y0163659D02*
X0142800Y0163659D01*
X0142800Y0162060D02*
X0145800Y0162060D01*
X0145800Y0160462D02*
X0142800Y0160462D01*
X0142800Y0158863D02*
X0145800Y0158863D01*
X0145800Y0157265D02*
X0142800Y0157265D01*
X0142800Y0155666D02*
X0145800Y0155666D01*
X0145800Y0154068D02*
X0142800Y0154068D01*
X0142800Y0152469D02*
X0145800Y0152469D01*
X0145800Y0150870D02*
X0142800Y0150870D01*
X0142800Y0149272D02*
X0145800Y0149272D01*
X0145800Y0147673D02*
X0142800Y0147673D01*
X0142800Y0146075D02*
X0145800Y0146075D01*
X0145800Y0144476D02*
X0142800Y0144476D01*
X0142800Y0142878D02*
X0145800Y0142878D01*
X0145800Y0141279D02*
X0142800Y0141279D01*
X0142800Y0139681D02*
X0145800Y0139681D01*
X0145800Y0138082D02*
X0142800Y0138082D01*
X0142800Y0136484D02*
X0145800Y0136484D01*
X0145800Y0134885D02*
X0142800Y0134885D01*
X0142800Y0133287D02*
X0145800Y0133287D01*
X0145800Y0131688D02*
X0142800Y0131688D01*
X0142800Y0130090D02*
X0145800Y0130090D01*
X0145800Y0128491D02*
X0142800Y0128491D01*
X0142800Y0126893D02*
X0145800Y0126893D01*
X0145800Y0125294D02*
X0142800Y0125294D01*
X0142800Y0123696D02*
X0145800Y0123696D01*
X0145800Y0122097D02*
X0142800Y0122097D01*
X0142800Y0120499D02*
X0145800Y0120499D01*
X0145800Y0118900D02*
X0142800Y0118900D01*
X0142800Y0117302D02*
X0145800Y0117302D01*
X0145800Y0115703D02*
X0142800Y0115703D01*
X0142800Y0114105D02*
X0145800Y0114105D01*
X0145800Y0112506D02*
X0142800Y0112506D01*
X0142800Y0110908D02*
X0145800Y0110908D01*
X0145800Y0109309D02*
X0142800Y0109309D01*
X0142800Y0107711D02*
X0145800Y0107711D01*
X0145800Y0106112D02*
X0142800Y0106112D01*
X0142800Y0104514D02*
X0145800Y0104514D01*
X0145800Y0102915D02*
X0142800Y0102915D01*
X0142800Y0101317D02*
X0145800Y0101317D01*
X0145800Y0099718D02*
X0142800Y0099718D01*
X0142800Y0098120D02*
X0145800Y0098120D01*
X0145800Y0096521D02*
X0142800Y0096521D01*
X0142800Y0094923D02*
X0145800Y0094923D01*
X0145800Y0093324D02*
X0142800Y0093324D01*
X0142800Y0091726D02*
X0145800Y0091726D01*
X0145800Y0090127D02*
X0142800Y0090127D01*
X0142800Y0088529D02*
X0145800Y0088529D01*
X0145800Y0086930D02*
X0142800Y0086930D01*
X0142800Y0085332D02*
X0145800Y0085332D01*
X0145800Y0083733D02*
X0142800Y0083733D01*
X0142800Y0082134D02*
X0145800Y0082134D01*
X0145800Y0080536D02*
X0142800Y0080536D01*
X0142800Y0078937D02*
X0145800Y0078937D01*
X0145800Y0077339D02*
X0142800Y0077339D01*
X0142800Y0075740D02*
X0145800Y0075740D01*
X0145800Y0074142D02*
X0142800Y0074142D01*
X0142800Y0072543D02*
X0145800Y0072543D01*
X0145800Y0070945D02*
X0142800Y0070945D01*
X0142800Y0069346D02*
X0145800Y0069346D01*
X0145800Y0067748D02*
X0142800Y0067748D01*
X0142800Y0066149D02*
X0145800Y0066149D01*
X0145800Y0064551D02*
X0142800Y0064551D01*
X0142800Y0062952D02*
X0145800Y0062952D01*
X0145800Y0061354D02*
X0142800Y0061354D01*
X0142800Y0059755D02*
X0145800Y0059755D01*
X0145800Y0058157D02*
X0142800Y0058157D01*
X0142800Y0056558D02*
X0145800Y0056558D01*
X0145800Y0054960D02*
X0142800Y0054960D01*
X0142800Y0053361D02*
X0145800Y0053361D01*
X0145800Y0051763D02*
X0142800Y0051763D01*
X0142800Y0050164D02*
X0145800Y0050164D01*
X0145800Y0048566D02*
X0143368Y0048566D01*
X0144418Y0046967D02*
X0145800Y0046967D01*
X0145800Y0045369D02*
X0144639Y0045369D01*
X0144639Y0043770D02*
X0145800Y0043770D01*
X0145800Y0042172D02*
X0144639Y0042172D01*
X0144639Y0040573D02*
X0145800Y0040573D01*
X0145800Y0038975D02*
X0144639Y0038975D01*
X0144639Y0037376D02*
X0145800Y0037376D01*
X0145800Y0035778D02*
X0144064Y0035778D01*
X0145800Y0034179D02*
X0141960Y0034179D01*
X0145800Y0032581D02*
X0036279Y0032581D01*
X0037170Y0030982D02*
X0145800Y0030982D01*
X0146307Y0029384D02*
X0037598Y0029384D01*
X0037899Y0027785D02*
X0147330Y0027785D01*
X0149673Y0026187D02*
X0037899Y0026187D01*
X0035117Y0034179D02*
X0131640Y0034179D01*
X0129536Y0035778D02*
X0033449Y0035778D01*
X0030213Y0037376D02*
X0059017Y0037376D01*
X0057835Y0037866D02*
X0060408Y0036800D01*
X0063192Y0036800D01*
X0065765Y0037866D01*
X0067734Y0039835D01*
X0068102Y0040723D01*
X0068139Y0040673D01*
X0068673Y0040139D01*
X0069284Y0039695D01*
X0069957Y0039352D01*
X0070676Y0039118D01*
X0071422Y0039000D01*
X0071600Y0039000D01*
X0071600Y0046600D01*
X0072000Y0046600D01*
X0072000Y0047000D01*
X0071600Y0047000D01*
X0071600Y0054600D01*
X0071422Y0054600D01*
X0070676Y0054482D01*
X0069957Y0054248D01*
X0069284Y0053905D01*
X0069100Y0053771D01*
X0069100Y0060866D01*
X0069639Y0062166D01*
X0069639Y0071434D01*
X0069030Y0072904D01*
X0067904Y0074030D01*
X0066434Y0074639D01*
X0057166Y0074639D01*
X0055696Y0074030D01*
X0054570Y0072904D01*
X0053961Y0071434D01*
X0053961Y0062166D01*
X0054500Y0060866D01*
X0054500Y0045348D01*
X0054800Y0044624D01*
X0054800Y0042408D01*
X0055866Y0039835D01*
X0057835Y0037866D01*
X0056726Y0038975D02*
X0017400Y0038975D01*
X0017400Y0040573D02*
X0055560Y0040573D01*
X0054898Y0042172D02*
X0017400Y0042172D01*
X0017400Y0043770D02*
X0054800Y0043770D01*
X0054500Y0045369D02*
X0017400Y0045369D01*
X0017400Y0046967D02*
X0054500Y0046967D01*
X0054500Y0048566D02*
X0017400Y0048566D01*
X0017400Y0050164D02*
X0054500Y0050164D01*
X0054500Y0051763D02*
X0017400Y0051763D01*
X0017400Y0053361D02*
X0054500Y0053361D01*
X0054500Y0054960D02*
X0017400Y0054960D01*
X0017400Y0056558D02*
X0054500Y0056558D01*
X0054500Y0058157D02*
X0017400Y0058157D01*
X0017400Y0059755D02*
X0054500Y0059755D01*
X0054298Y0061354D02*
X0017400Y0061354D01*
X0017400Y0062952D02*
X0053961Y0062952D01*
X0053961Y0064551D02*
X0017400Y0064551D01*
X0017400Y0066149D02*
X0053961Y0066149D01*
X0053961Y0067748D02*
X0017400Y0067748D01*
X0017400Y0069346D02*
X0053961Y0069346D01*
X0053961Y0070945D02*
X0017400Y0070945D01*
X0017400Y0072543D02*
X0054421Y0072543D01*
X0055967Y0074142D02*
X0017400Y0074142D01*
X0017400Y0075740D02*
X0130800Y0075740D01*
X0130800Y0074142D02*
X0067633Y0074142D01*
X0069179Y0072543D02*
X0130800Y0072543D01*
X0130800Y0070945D02*
X0069639Y0070945D01*
X0069639Y0069346D02*
X0130800Y0069346D01*
X0130800Y0067748D02*
X0069639Y0067748D01*
X0069639Y0066149D02*
X0130800Y0066149D01*
X0130800Y0064551D02*
X0069639Y0064551D01*
X0069639Y0062952D02*
X0130800Y0062952D01*
X0130800Y0061354D02*
X0069302Y0061354D01*
X0069100Y0059755D02*
X0130800Y0059755D01*
X0130800Y0058157D02*
X0069100Y0058157D01*
X0069100Y0056558D02*
X0130800Y0056558D01*
X0130800Y0054960D02*
X0069100Y0054960D01*
X0072000Y0054600D02*
X0072000Y0047000D01*
X0076600Y0047000D01*
X0076600Y0050178D01*
X0076482Y0050924D01*
X0076248Y0051643D01*
X0075905Y0052316D01*
X0075461Y0052927D01*
X0074927Y0053461D01*
X0074316Y0053905D01*
X0073643Y0054248D01*
X0072924Y0054482D01*
X0072178Y0054600D01*
X0072000Y0054600D01*
X0072000Y0053361D02*
X0071600Y0053361D01*
X0071600Y0051763D02*
X0072000Y0051763D01*
X0072000Y0050164D02*
X0071600Y0050164D01*
X0071600Y0048566D02*
X0072000Y0048566D01*
X0072000Y0046967D02*
X0129182Y0046967D01*
X0128961Y0045369D02*
X0076600Y0045369D01*
X0076600Y0046600D02*
X0072000Y0046600D01*
X0072000Y0039000D01*
X0072178Y0039000D01*
X0072924Y0039118D01*
X0073643Y0039352D01*
X0074316Y0039695D01*
X0074927Y0040139D01*
X0075461Y0040673D01*
X0075905Y0041284D01*
X0076248Y0041957D01*
X0076482Y0042676D01*
X0076600Y0043422D01*
X0076600Y0046600D01*
X0076600Y0048566D02*
X0130232Y0048566D01*
X0130800Y0050164D02*
X0076600Y0050164D01*
X0076187Y0051763D02*
X0130800Y0051763D01*
X0130800Y0053361D02*
X0075027Y0053361D01*
X0072000Y0045369D02*
X0071600Y0045369D01*
X0071600Y0043770D02*
X0072000Y0043770D01*
X0072000Y0042172D02*
X0071600Y0042172D01*
X0071600Y0040573D02*
X0072000Y0040573D01*
X0075361Y0040573D02*
X0128961Y0040573D01*
X0128961Y0038975D02*
X0066874Y0038975D01*
X0068040Y0040573D02*
X0068239Y0040573D01*
X0064583Y0037376D02*
X0128961Y0037376D01*
X0128961Y0042172D02*
X0076318Y0042172D01*
X0076600Y0043770D02*
X0128961Y0043770D01*
X0157800Y0045369D02*
X0184897Y0045369D01*
X0184044Y0046967D02*
X0157800Y0046967D01*
X0157800Y0048566D02*
X0183961Y0048566D01*
X0183961Y0050164D02*
X0157800Y0050164D01*
X0157800Y0051763D02*
X0183961Y0051763D01*
X0183961Y0053361D02*
X0157800Y0053361D01*
X0157800Y0054960D02*
X0183961Y0054960D01*
X0184013Y0056558D02*
X0157800Y0056558D01*
X0157800Y0058157D02*
X0184823Y0058157D01*
X0185800Y0059755D02*
X0157800Y0059755D01*
X0157800Y0061354D02*
X0185800Y0061354D01*
X0185800Y0062952D02*
X0157800Y0062952D01*
X0157800Y0064551D02*
X0185800Y0064551D01*
X0185800Y0066149D02*
X0157800Y0066149D01*
X0157800Y0067748D02*
X0185800Y0067748D01*
X0185800Y0069346D02*
X0157800Y0069346D01*
X0130800Y0077339D02*
X0074494Y0077339D01*
X0075765Y0077866D02*
X0077734Y0079835D01*
X0078800Y0082408D01*
X0078800Y0091192D01*
X0077734Y0093765D01*
X0075765Y0095734D01*
X0073192Y0096800D01*
X0070408Y0096800D01*
X0067835Y0095734D01*
X0066800Y0094699D01*
X0065765Y0095734D01*
X0063192Y0096800D01*
X0060408Y0096800D01*
X0057835Y0095734D01*
X0055866Y0093765D01*
X0054800Y0091192D01*
X0054800Y0082408D01*
X0055866Y0079835D01*
X0057835Y0077866D01*
X0060408Y0076800D01*
X0063192Y0076800D01*
X0065765Y0077866D01*
X0066800Y0078901D01*
X0067835Y0077866D01*
X0070408Y0076800D01*
X0073192Y0076800D01*
X0075765Y0077866D01*
X0076837Y0078937D02*
X0130800Y0078937D01*
X0130800Y0080536D02*
X0078025Y0080536D01*
X0078687Y0082134D02*
X0130800Y0082134D01*
X0130800Y0083733D02*
X0078800Y0083733D01*
X0078800Y0085332D02*
X0130800Y0085332D01*
X0130800Y0086930D02*
X0123506Y0086930D01*
X0123192Y0086800D02*
X0125765Y0087866D01*
X0127734Y0089835D01*
X0128800Y0092408D01*
X0128800Y0101192D01*
X0127734Y0103765D01*
X0125765Y0105734D01*
X0123192Y0106800D01*
X0120408Y0106800D01*
X0117835Y0105734D01*
X0115866Y0103765D01*
X0115498Y0102877D01*
X0115461Y0102927D01*
X0114927Y0103461D01*
X0114316Y0103905D01*
X0113643Y0104248D01*
X0112924Y0104482D01*
X0112178Y0104600D01*
X0112000Y0104600D01*
X0112000Y0097000D01*
X0111600Y0097000D01*
X0111600Y0104600D01*
X0111422Y0104600D01*
X0110676Y0104482D01*
X0109957Y0104248D01*
X0109284Y0103905D01*
X0108673Y0103461D01*
X0108139Y0102927D01*
X0108102Y0102877D01*
X0107734Y0103765D01*
X0105765Y0105734D01*
X0103192Y0106800D01*
X0100408Y0106800D01*
X0097835Y0105734D01*
X0095866Y0103765D01*
X0094800Y0101192D01*
X0094800Y0092408D01*
X0095866Y0089835D01*
X0097835Y0087866D01*
X0100408Y0086800D01*
X0103192Y0086800D01*
X0105765Y0087866D01*
X0107734Y0089835D01*
X0108102Y0090723D01*
X0108139Y0090673D01*
X0108673Y0090139D01*
X0109284Y0089695D01*
X0109957Y0089352D01*
X0110676Y0089118D01*
X0111422Y0089000D01*
X0111600Y0089000D01*
X0111600Y0096600D01*
X0112000Y0096600D01*
X0112000Y0089000D01*
X0112178Y0089000D01*
X0112924Y0089118D01*
X0113643Y0089352D01*
X0114316Y0089695D01*
X0114927Y0090139D01*
X0115461Y0090673D01*
X0115498Y0090723D01*
X0115866Y0089835D01*
X0117835Y0087866D01*
X0120408Y0086800D01*
X0123192Y0086800D01*
X0120094Y0086930D02*
X0103506Y0086930D01*
X0106428Y0088529D02*
X0117172Y0088529D01*
X0115745Y0090127D02*
X0114911Y0090127D01*
X0112000Y0090127D02*
X0111600Y0090127D01*
X0111600Y0091726D02*
X0112000Y0091726D01*
X0112000Y0093324D02*
X0111600Y0093324D01*
X0111600Y0094923D02*
X0112000Y0094923D01*
X0112000Y0096521D02*
X0111600Y0096521D01*
X0111600Y0098120D02*
X0112000Y0098120D01*
X0112000Y0099718D02*
X0111600Y0099718D01*
X0111600Y0101317D02*
X0112000Y0101317D01*
X0112000Y0102915D02*
X0111600Y0102915D01*
X0111600Y0104514D02*
X0112000Y0104514D01*
X0112723Y0104514D02*
X0116614Y0104514D01*
X0115514Y0102915D02*
X0115470Y0102915D01*
X0118747Y0106112D02*
X0104853Y0106112D01*
X0106986Y0104514D02*
X0110877Y0104514D01*
X0108130Y0102915D02*
X0108086Y0102915D01*
X0098747Y0106112D02*
X0094202Y0106112D01*
X0094030Y0105696D02*
X0094639Y0107166D01*
X0094639Y0116434D01*
X0094030Y0117904D01*
X0092904Y0119030D01*
X0091434Y0119639D01*
X0082166Y0119639D01*
X0080866Y0119100D01*
X0062734Y0119100D01*
X0061434Y0119639D01*
X0052166Y0119639D01*
X0050696Y0119030D01*
X0049570Y0117904D01*
X0048961Y0116434D01*
X0048961Y0107166D01*
X0049570Y0105696D01*
X0050696Y0104570D01*
X0052166Y0103961D01*
X0061434Y0103961D01*
X0062734Y0104500D01*
X0080866Y0104500D01*
X0082166Y0103961D01*
X0091434Y0103961D01*
X0092904Y0104570D01*
X0094030Y0105696D01*
X0092767Y0104514D02*
X0096614Y0104514D01*
X0095514Y0102915D02*
X0017400Y0102915D01*
X0017400Y0101317D02*
X0094851Y0101317D01*
X0094800Y0099718D02*
X0017400Y0099718D01*
X0017400Y0098120D02*
X0094800Y0098120D01*
X0094800Y0096521D02*
X0073866Y0096521D01*
X0076577Y0094923D02*
X0094800Y0094923D01*
X0094800Y0093324D02*
X0077917Y0093324D01*
X0078579Y0091726D02*
X0095083Y0091726D01*
X0095745Y0090127D02*
X0078800Y0090127D01*
X0078800Y0088529D02*
X0097172Y0088529D01*
X0100094Y0086930D02*
X0078800Y0086930D01*
X0069734Y0096521D02*
X0063866Y0096521D01*
X0066577Y0094923D02*
X0067023Y0094923D01*
X0059734Y0096521D02*
X0038866Y0096521D01*
X0038192Y0096800D02*
X0035408Y0096800D01*
X0032835Y0095734D01*
X0031800Y0094699D01*
X0030765Y0095734D01*
X0028192Y0096800D01*
X0025408Y0096800D01*
X0022835Y0095734D01*
X0020866Y0093765D01*
X0019800Y0091192D01*
X0019800Y0082408D01*
X0020866Y0079835D01*
X0022835Y0077866D01*
X0025408Y0076800D01*
X0028192Y0076800D01*
X0030765Y0077866D01*
X0031800Y0078901D01*
X0032835Y0077866D01*
X0035408Y0076800D01*
X0038192Y0076800D01*
X0040765Y0077866D01*
X0042734Y0079835D01*
X0043800Y0082408D01*
X0043800Y0091192D01*
X0042734Y0093765D01*
X0040765Y0095734D01*
X0038192Y0096800D01*
X0034734Y0096521D02*
X0028866Y0096521D01*
X0031577Y0094923D02*
X0032023Y0094923D01*
X0024734Y0096521D02*
X0017400Y0096521D01*
X0017400Y0094923D02*
X0022023Y0094923D01*
X0020683Y0093324D02*
X0017400Y0093324D01*
X0017400Y0091726D02*
X0020021Y0091726D01*
X0019800Y0090127D02*
X0017400Y0090127D01*
X0017400Y0088529D02*
X0019800Y0088529D01*
X0019800Y0086930D02*
X0017400Y0086930D01*
X0017400Y0085332D02*
X0019800Y0085332D01*
X0019800Y0083733D02*
X0017400Y0083733D01*
X0017400Y0082134D02*
X0019913Y0082134D01*
X0020575Y0080536D02*
X0017400Y0080536D01*
X0017400Y0078937D02*
X0021763Y0078937D01*
X0024106Y0077339D02*
X0017400Y0077339D01*
X0029494Y0077339D02*
X0034106Y0077339D01*
X0039494Y0077339D02*
X0059106Y0077339D01*
X0056763Y0078937D02*
X0041837Y0078937D01*
X0043025Y0080536D02*
X0055575Y0080536D01*
X0054913Y0082134D02*
X0043687Y0082134D01*
X0043800Y0083733D02*
X0054800Y0083733D01*
X0054800Y0085332D02*
X0043800Y0085332D01*
X0043800Y0086930D02*
X0054800Y0086930D01*
X0054800Y0088529D02*
X0043800Y0088529D01*
X0043800Y0090127D02*
X0054800Y0090127D01*
X0055021Y0091726D02*
X0043579Y0091726D01*
X0042917Y0093324D02*
X0055683Y0093324D01*
X0057023Y0094923D02*
X0041577Y0094923D01*
X0050833Y0104514D02*
X0017400Y0104514D01*
X0017400Y0106112D02*
X0049398Y0106112D01*
X0048961Y0107711D02*
X0017400Y0107711D01*
X0017400Y0109309D02*
X0048961Y0109309D01*
X0048961Y0110908D02*
X0017400Y0110908D01*
X0017400Y0112506D02*
X0048961Y0112506D01*
X0048961Y0114105D02*
X0017400Y0114105D01*
X0017400Y0115703D02*
X0048961Y0115703D01*
X0049321Y0117302D02*
X0017400Y0117302D01*
X0017400Y0118900D02*
X0050566Y0118900D01*
X0017400Y0120499D02*
X0130800Y0120499D01*
X0130800Y0122097D02*
X0017400Y0122097D01*
X0017400Y0123696D02*
X0130800Y0123696D01*
X0130800Y0125294D02*
X0017400Y0125294D01*
X0017400Y0126893D02*
X0130800Y0126893D01*
X0130800Y0128491D02*
X0017400Y0128491D01*
X0017400Y0130090D02*
X0130800Y0130090D01*
X0130800Y0131688D02*
X0017400Y0131688D01*
X0017400Y0133287D02*
X0130800Y0133287D01*
X0130800Y0134885D02*
X0017400Y0134885D01*
X0017400Y0136484D02*
X0130800Y0136484D01*
X0130800Y0138082D02*
X0017400Y0138082D01*
X0017400Y0139681D02*
X0130800Y0139681D01*
X0130800Y0141279D02*
X0017400Y0141279D01*
X0017400Y0142878D02*
X0130800Y0142878D01*
X0130800Y0144476D02*
X0017400Y0144476D01*
X0075301Y0147673D02*
X0078299Y0147673D01*
X0077358Y0165257D02*
X0076242Y0165257D01*
X0093034Y0118900D02*
X0130800Y0118900D01*
X0130800Y0117302D02*
X0094279Y0117302D01*
X0094639Y0115703D02*
X0130800Y0115703D01*
X0130800Y0114105D02*
X0094639Y0114105D01*
X0094639Y0112506D02*
X0130800Y0112506D01*
X0130800Y0110908D02*
X0094639Y0110908D01*
X0094639Y0109309D02*
X0130800Y0109309D01*
X0130800Y0107711D02*
X0094639Y0107711D01*
X0107855Y0090127D02*
X0108689Y0090127D01*
X0126428Y0088529D02*
X0130800Y0088529D01*
X0130800Y0090127D02*
X0127855Y0090127D01*
X0128517Y0091726D02*
X0130800Y0091726D01*
X0130800Y0093324D02*
X0128800Y0093324D01*
X0128800Y0094923D02*
X0130800Y0094923D01*
X0130800Y0096521D02*
X0128800Y0096521D01*
X0128800Y0098120D02*
X0130800Y0098120D01*
X0130800Y0099718D02*
X0128800Y0099718D01*
X0128749Y0101317D02*
X0130800Y0101317D01*
X0130800Y0102915D02*
X0128086Y0102915D01*
X0126986Y0104514D02*
X0130800Y0104514D01*
X0130800Y0106112D02*
X0124853Y0106112D01*
X0069106Y0077339D02*
X0064494Y0077339D01*
X0023387Y0037376D02*
X0017400Y0037376D01*
X0017400Y0035778D02*
X0020151Y0035778D01*
X0018483Y0034179D02*
X0017400Y0034179D01*
X0197800Y0091726D02*
X0275800Y0091726D01*
X0275800Y0093324D02*
X0197800Y0093324D01*
X0197800Y0094923D02*
X0275800Y0094923D01*
X0275800Y0096521D02*
X0197800Y0096521D01*
X0197800Y0098120D02*
X0275800Y0098120D01*
X0275800Y0099718D02*
X0197800Y0099718D01*
X0197800Y0101317D02*
X0275800Y0101317D01*
X0275800Y0102915D02*
X0197800Y0102915D01*
X0197800Y0104514D02*
X0275800Y0104514D01*
X0275800Y0106112D02*
X0197800Y0106112D01*
X0197800Y0107711D02*
X0275800Y0107711D01*
X0275800Y0109309D02*
X0197800Y0109309D01*
X0197800Y0110908D02*
X0275800Y0110908D01*
X0275800Y0112506D02*
X0197800Y0112506D01*
X0197800Y0114105D02*
X0275800Y0114105D01*
X0275800Y0115703D02*
X0197800Y0115703D01*
X0197800Y0117302D02*
X0275800Y0117302D01*
X0275800Y0118900D02*
X0197800Y0118900D01*
X0197800Y0120499D02*
X0275800Y0120499D01*
X0275800Y0122097D02*
X0197800Y0122097D01*
X0197800Y0123696D02*
X0275800Y0123696D01*
X0275800Y0125294D02*
X0197800Y0125294D01*
X0197800Y0126893D02*
X0275800Y0126893D01*
X0275800Y0128491D02*
X0197800Y0128491D01*
X0197800Y0130090D02*
X0275800Y0130090D01*
X0275800Y0131688D02*
X0197800Y0131688D01*
X0197800Y0133287D02*
X0275800Y0133287D01*
X0275800Y0134885D02*
X0197800Y0134885D01*
X0197800Y0136484D02*
X0275800Y0136484D01*
X0275800Y0138082D02*
X0197800Y0138082D01*
X0197800Y0139681D02*
X0275800Y0139681D01*
X0275800Y0141279D02*
X0197800Y0141279D01*
X0197800Y0142878D02*
X0275800Y0142878D01*
X0275800Y0144476D02*
X0274240Y0144476D01*
X0269360Y0144476D02*
X0264240Y0144476D01*
X0259360Y0144476D02*
X0254240Y0144476D01*
X0249360Y0144476D02*
X0244240Y0144476D01*
X0239360Y0144476D02*
X0234240Y0144476D01*
X0229360Y0144476D02*
X0224240Y0144476D01*
X0219360Y0144476D02*
X0214240Y0144476D01*
X0209360Y0144476D02*
X0204240Y0144476D01*
X0199360Y0144476D02*
X0197800Y0144476D01*
X0186772Y0165257D02*
X0186125Y0165257D01*
X0198748Y0168454D02*
X0205800Y0168454D01*
X0205800Y0170053D02*
X0199411Y0170053D01*
X0199500Y0171651D02*
X0205800Y0171651D01*
X0205800Y0173250D02*
X0199500Y0173250D01*
X0198872Y0174848D02*
X0205418Y0174848D01*
X0204259Y0176447D02*
X0198043Y0176447D01*
X0198935Y0178045D02*
X0203961Y0178045D01*
X0203961Y0179644D02*
X0199500Y0179644D01*
X0199500Y0181242D02*
X0203961Y0181242D01*
X0203961Y0182841D02*
X0199500Y0182841D01*
X0199500Y0184439D02*
X0203961Y0184439D01*
X0203961Y0186038D02*
X0198452Y0186038D01*
X0198526Y0187636D02*
X0204459Y0187636D01*
X0206191Y0189235D02*
X0199500Y0189235D01*
X0199500Y0190833D02*
X0218961Y0190833D01*
X0218961Y0189235D02*
X0217409Y0189235D01*
X0218961Y0192432D02*
X0199500Y0192432D01*
X0199500Y0194030D02*
X0216999Y0194030D01*
X0214637Y0195629D02*
X0198861Y0195629D01*
X0198117Y0197227D02*
X0213961Y0197227D01*
X0213961Y0198826D02*
X0199500Y0198826D01*
X0199500Y0200424D02*
X0213961Y0200424D01*
X0213961Y0202023D02*
X0199500Y0202023D01*
X0199500Y0203621D02*
X0213961Y0203621D01*
X0213961Y0205220D02*
X0199270Y0205220D01*
X0197708Y0206818D02*
X0214105Y0206818D01*
X0213961Y0208417D02*
X0199306Y0208417D01*
X0199500Y0210015D02*
X0213961Y0210015D01*
X0213961Y0211614D02*
X0199500Y0211614D01*
X0199500Y0213212D02*
X0213961Y0213212D01*
X0213961Y0214811D02*
X0199500Y0214811D01*
X0198080Y0216409D02*
X0213961Y0216409D01*
X0213961Y0218008D02*
X0198897Y0218008D01*
X0199500Y0219606D02*
X0213961Y0219606D01*
X0213961Y0221205D02*
X0199500Y0221205D01*
X0199500Y0222803D02*
X0213961Y0222803D01*
X0213961Y0224402D02*
X0199500Y0224402D01*
X0198489Y0226001D02*
X0213961Y0226001D01*
X0213961Y0227599D02*
X0198488Y0227599D01*
X0199500Y0229198D02*
X0213961Y0229198D01*
X0213961Y0230796D02*
X0199500Y0230796D01*
X0199500Y0232395D02*
X0213961Y0232395D01*
X0213961Y0233993D02*
X0199500Y0233993D01*
X0198898Y0235592D02*
X0213961Y0235592D01*
X0213961Y0237190D02*
X0198080Y0237190D01*
X0199500Y0238789D02*
X0213961Y0238789D01*
X0213961Y0240387D02*
X0199500Y0240387D01*
X0199500Y0241986D02*
X0213961Y0241986D01*
X0213961Y0243584D02*
X0199500Y0243584D01*
X0199307Y0245183D02*
X0213961Y0245183D01*
X0214105Y0246781D02*
X0197708Y0246781D01*
X0199269Y0248380D02*
X0213961Y0248380D01*
X0213961Y0249978D02*
X0199500Y0249978D01*
X0199500Y0251577D02*
X0213961Y0251577D01*
X0213961Y0253175D02*
X0199500Y0253175D01*
X0199500Y0254774D02*
X0213961Y0254774D01*
X0213961Y0256372D02*
X0198117Y0256372D01*
X0198860Y0257971D02*
X0213961Y0257971D01*
X0213961Y0259569D02*
X0199500Y0259569D01*
X0199500Y0261168D02*
X0213961Y0261168D01*
X0213961Y0262766D02*
X0199500Y0262766D01*
X0199500Y0264365D02*
X0213961Y0264365D01*
X0213961Y0265963D02*
X0198526Y0265963D01*
X0198451Y0267562D02*
X0214428Y0267562D01*
X0216011Y0269160D02*
X0199500Y0269160D01*
X0199500Y0270759D02*
X0240800Y0270759D01*
X0240800Y0272357D02*
X0199500Y0272357D01*
X0199500Y0273956D02*
X0240800Y0273956D01*
X0240800Y0275554D02*
X0198935Y0275554D01*
X0198042Y0277153D02*
X0240800Y0277153D01*
X0240800Y0278751D02*
X0199500Y0278751D01*
X0199500Y0280350D02*
X0240800Y0280350D01*
X0240800Y0281948D02*
X0199500Y0281948D01*
X0199500Y0283547D02*
X0240800Y0283547D01*
X0240800Y0285145D02*
X0199344Y0285145D01*
X0197745Y0286744D02*
X0240800Y0286744D01*
X0240800Y0288342D02*
X0199232Y0288342D01*
X0199500Y0289941D02*
X0240800Y0289941D01*
X0240800Y0291539D02*
X0199500Y0291539D01*
X0199500Y0293138D02*
X0240860Y0293138D01*
X0235529Y0294737D02*
X0199500Y0294737D01*
X0198154Y0296335D02*
X0234306Y0296335D01*
X0233961Y0297934D02*
X0198823Y0297934D01*
X0199500Y0299532D02*
X0233961Y0299532D01*
X0233961Y0301131D02*
X0199500Y0301131D01*
X0199500Y0302729D02*
X0233961Y0302729D01*
X0233961Y0304328D02*
X0199500Y0304328D01*
X0198563Y0305926D02*
X0233961Y0305926D01*
X0234413Y0307525D02*
X0198414Y0307525D01*
X0199500Y0309123D02*
X0235921Y0309123D01*
X0247679Y0309123D02*
X0259812Y0309123D01*
X0259111Y0310722D02*
X0199500Y0310722D01*
X0199500Y0312320D02*
X0259023Y0312320D01*
X0259492Y0313919D02*
X0199500Y0313919D01*
X0198972Y0315517D02*
X0260750Y0315517D01*
X0266600Y0315517D02*
X0267000Y0315517D01*
X0267000Y0316600D02*
X0267000Y0312000D01*
X0274600Y0312000D01*
X0274600Y0312178D01*
X0274482Y0312924D01*
X0274248Y0313643D01*
X0273905Y0314316D01*
X0273461Y0314927D01*
X0272927Y0315461D01*
X0272316Y0315905D01*
X0271643Y0316248D01*
X0270924Y0316482D01*
X0270178Y0316600D01*
X0267000Y0316600D01*
X0267000Y0313919D02*
X0266600Y0313919D01*
X0266600Y0312320D02*
X0267000Y0312320D01*
X0272850Y0315517D02*
X0581200Y0315517D01*
X0581200Y0313919D02*
X0274108Y0313919D01*
X0274577Y0312320D02*
X0581200Y0312320D01*
X0581200Y0310722D02*
X0274489Y0310722D01*
X0273788Y0309123D02*
X0581200Y0309123D01*
X0581200Y0307525D02*
X0273975Y0307525D01*
X0275573Y0305926D02*
X0581200Y0305926D01*
X0581200Y0304328D02*
X0276330Y0304328D01*
X0276800Y0302729D02*
X0581200Y0302729D01*
X0581200Y0301131D02*
X0276800Y0301131D01*
X0276437Y0299532D02*
X0581200Y0299532D01*
X0581200Y0297934D02*
X0275775Y0297934D01*
X0275164Y0296335D02*
X0581200Y0296335D01*
X0581200Y0294737D02*
X0276160Y0294737D01*
X0276800Y0293138D02*
X0581200Y0293138D01*
X0581200Y0291539D02*
X0276800Y0291539D01*
X0276607Y0289941D02*
X0581200Y0289941D01*
X0581200Y0288342D02*
X0275945Y0288342D01*
X0274756Y0286744D02*
X0581200Y0286744D01*
X0581200Y0285145D02*
X0275991Y0285145D01*
X0276653Y0283547D02*
X0470213Y0283547D01*
X0483387Y0283547D02*
X0581200Y0283547D01*
X0581200Y0281948D02*
X0484426Y0281948D01*
X0484639Y0280350D02*
X0581200Y0280350D01*
X0581200Y0278751D02*
X0484639Y0278751D01*
X0484639Y0277153D02*
X0581200Y0277153D01*
X0581200Y0275554D02*
X0484639Y0275554D01*
X0493978Y0273956D02*
X0581200Y0273956D01*
X0581200Y0272357D02*
X0495256Y0272357D01*
X0495639Y0270759D02*
X0581200Y0270759D01*
X0581200Y0269160D02*
X0495639Y0269160D01*
X0495639Y0267562D02*
X0581200Y0267562D01*
X0581200Y0265963D02*
X0495639Y0265963D01*
X0495639Y0264365D02*
X0581200Y0264365D01*
X0581200Y0262766D02*
X0495639Y0262766D01*
X0495225Y0261168D02*
X0581200Y0261168D01*
X0581200Y0259569D02*
X0493902Y0259569D01*
X0481698Y0259569D02*
X0407800Y0259569D01*
X0407800Y0257971D02*
X0581200Y0257971D01*
X0581200Y0256372D02*
X0407800Y0256372D01*
X0407800Y0254774D02*
X0581200Y0254774D01*
X0581200Y0253175D02*
X0407800Y0253175D01*
X0407800Y0251577D02*
X0581200Y0251577D01*
X0581200Y0249978D02*
X0407800Y0249978D01*
X0407800Y0248380D02*
X0581200Y0248380D01*
X0581200Y0246781D02*
X0407800Y0246781D01*
X0407800Y0245183D02*
X0581200Y0245183D01*
X0581200Y0243584D02*
X0407800Y0243584D01*
X0407800Y0241986D02*
X0581200Y0241986D01*
X0581200Y0240387D02*
X0407800Y0240387D01*
X0407800Y0238789D02*
X0581200Y0238789D01*
X0581200Y0237190D02*
X0407800Y0237190D01*
X0407800Y0235592D02*
X0581200Y0235592D01*
X0581200Y0233993D02*
X0407800Y0233993D01*
X0407800Y0232395D02*
X0581200Y0232395D01*
X0581200Y0230796D02*
X0407800Y0230796D01*
X0407800Y0229198D02*
X0581200Y0229198D01*
X0581200Y0227599D02*
X0407800Y0227599D01*
X0407800Y0226001D02*
X0581200Y0226001D01*
X0581200Y0224402D02*
X0407800Y0224402D01*
X0407800Y0222803D02*
X0581200Y0222803D01*
X0581200Y0221205D02*
X0407800Y0221205D01*
X0407800Y0219606D02*
X0581200Y0219606D01*
X0581200Y0218008D02*
X0407800Y0218008D01*
X0407800Y0216409D02*
X0581200Y0216409D01*
X0581200Y0214811D02*
X0407800Y0214811D01*
X0407800Y0213212D02*
X0581200Y0213212D01*
X0581200Y0211614D02*
X0407800Y0211614D01*
X0407800Y0210015D02*
X0581200Y0210015D01*
X0581200Y0208417D02*
X0407800Y0208417D01*
X0407800Y0206818D02*
X0581200Y0206818D01*
X0581200Y0205220D02*
X0407640Y0205220D01*
X0406978Y0203621D02*
X0581200Y0203621D01*
X0581200Y0202023D02*
X0405508Y0202023D01*
X0385800Y0222803D02*
X0297800Y0222803D01*
X0297800Y0224402D02*
X0385800Y0224402D01*
X0385800Y0226001D02*
X0297800Y0226001D01*
X0297800Y0227599D02*
X0385800Y0227599D01*
X0385800Y0229198D02*
X0297800Y0229198D01*
X0297800Y0230796D02*
X0385800Y0230796D01*
X0385800Y0232395D02*
X0297800Y0232395D01*
X0297800Y0233993D02*
X0385800Y0233993D01*
X0385800Y0235592D02*
X0297800Y0235592D01*
X0297800Y0237190D02*
X0385800Y0237190D01*
X0385800Y0238789D02*
X0297800Y0238789D01*
X0297800Y0240387D02*
X0385800Y0240387D01*
X0385800Y0241986D02*
X0297800Y0241986D01*
X0297800Y0243584D02*
X0385800Y0243584D01*
X0385800Y0245183D02*
X0297800Y0245183D01*
X0297800Y0246781D02*
X0385800Y0246781D01*
X0385800Y0248380D02*
X0297800Y0248380D01*
X0297800Y0249978D02*
X0385800Y0249978D01*
X0385800Y0251577D02*
X0297800Y0251577D01*
X0297800Y0253175D02*
X0385800Y0253175D01*
X0385800Y0254774D02*
X0297800Y0254774D01*
X0297800Y0256372D02*
X0385800Y0256372D01*
X0385800Y0257971D02*
X0297800Y0257971D01*
X0297800Y0259569D02*
X0385800Y0259569D01*
X0385800Y0261168D02*
X0297800Y0261168D01*
X0297800Y0262766D02*
X0385800Y0262766D01*
X0385800Y0264365D02*
X0312408Y0264365D01*
X0314140Y0265963D02*
X0385800Y0265963D01*
X0385800Y0267562D02*
X0314639Y0267562D01*
X0314639Y0269160D02*
X0385800Y0269160D01*
X0385800Y0270759D02*
X0314639Y0270759D01*
X0314639Y0272357D02*
X0385800Y0272357D01*
X0385800Y0273956D02*
X0314639Y0273956D01*
X0314639Y0275554D02*
X0385800Y0275554D01*
X0385800Y0277153D02*
X0314341Y0277153D01*
X0313183Y0278751D02*
X0386114Y0278751D01*
X0386865Y0280350D02*
X0276776Y0280350D01*
X0276800Y0281948D02*
X0388551Y0281948D01*
X0383332Y0334100D02*
X0380268Y0334100D01*
X0377438Y0335272D01*
X0376800Y0335911D01*
X0376162Y0335272D01*
X0373332Y0334100D01*
X0370268Y0334100D01*
X0367438Y0335272D01*
X0366800Y0335911D01*
X0366162Y0335272D01*
X0363332Y0334100D01*
X0360268Y0334100D01*
X0357438Y0335272D01*
X0356800Y0335911D01*
X0356162Y0335272D01*
X0353332Y0334100D01*
X0350268Y0334100D01*
X0347438Y0335272D01*
X0346800Y0335911D01*
X0346162Y0335272D01*
X0343332Y0334100D01*
X0340268Y0334100D01*
X0337438Y0335272D01*
X0336800Y0335911D01*
X0336162Y0335272D01*
X0333332Y0334100D01*
X0330268Y0334100D01*
X0327438Y0335272D01*
X0326800Y0335911D01*
X0326162Y0335272D01*
X0323332Y0334100D01*
X0320268Y0334100D01*
X0317438Y0335272D01*
X0316800Y0335911D01*
X0316162Y0335272D01*
X0313332Y0334100D01*
X0310268Y0334100D01*
X0307438Y0335272D01*
X0305272Y0337438D01*
X0304100Y0340268D01*
X0304100Y0343332D01*
X0305272Y0346162D01*
X0307438Y0348328D01*
X0310268Y0349500D01*
X0313332Y0349500D01*
X0316162Y0348328D01*
X0316800Y0347689D01*
X0317438Y0348328D01*
X0320268Y0349500D01*
X0323332Y0349500D01*
X0326162Y0348328D01*
X0326800Y0347689D01*
X0327438Y0348328D01*
X0330268Y0349500D01*
X0333332Y0349500D01*
X0336162Y0348328D01*
X0336800Y0347689D01*
X0337438Y0348328D01*
X0340268Y0349500D01*
X0343332Y0349500D01*
X0346162Y0348328D01*
X0346800Y0347689D01*
X0347438Y0348328D01*
X0350268Y0349500D01*
X0353332Y0349500D01*
X0356162Y0348328D01*
X0356800Y0347689D01*
X0357438Y0348328D01*
X0360268Y0349500D01*
X0363332Y0349500D01*
X0366162Y0348328D01*
X0366800Y0347689D01*
X0367438Y0348328D01*
X0370268Y0349500D01*
X0373332Y0349500D01*
X0376162Y0348328D01*
X0376800Y0347689D01*
X0377438Y0348328D01*
X0380268Y0349500D01*
X0383332Y0349500D01*
X0386162Y0348328D01*
X0388328Y0346162D01*
X0389500Y0343332D01*
X0389500Y0340268D01*
X0388328Y0337438D01*
X0386162Y0335272D01*
X0383332Y0334100D01*
X0384778Y0334699D02*
X0394822Y0334699D01*
X0393438Y0335272D02*
X0396268Y0334100D01*
X0399332Y0334100D01*
X0402162Y0335272D01*
X0402800Y0335911D01*
X0403438Y0335272D01*
X0406268Y0334100D01*
X0409332Y0334100D01*
X0412162Y0335272D01*
X0412800Y0335911D01*
X0413438Y0335272D01*
X0416268Y0334100D01*
X0419332Y0334100D01*
X0422162Y0335272D01*
X0422800Y0335911D01*
X0423438Y0335272D01*
X0426268Y0334100D01*
X0429332Y0334100D01*
X0432162Y0335272D01*
X0432800Y0335911D01*
X0433438Y0335272D01*
X0436268Y0334100D01*
X0439332Y0334100D01*
X0442162Y0335272D01*
X0442800Y0335911D01*
X0443438Y0335272D01*
X0446268Y0334100D01*
X0449332Y0334100D01*
X0452162Y0335272D01*
X0452800Y0335911D01*
X0453438Y0335272D01*
X0456268Y0334100D01*
X0459332Y0334100D01*
X0462162Y0335272D01*
X0462800Y0335911D01*
X0463438Y0335272D01*
X0466268Y0334100D01*
X0469332Y0334100D01*
X0472162Y0335272D01*
X0472800Y0335911D01*
X0473438Y0335272D01*
X0476268Y0334100D01*
X0479332Y0334100D01*
X0482162Y0335272D01*
X0482800Y0335911D01*
X0483438Y0335272D01*
X0486268Y0334100D01*
X0489332Y0334100D01*
X0492162Y0335272D01*
X0494328Y0337438D01*
X0495500Y0340268D01*
X0495500Y0343332D01*
X0494328Y0346162D01*
X0492162Y0348328D01*
X0489332Y0349500D01*
X0486268Y0349500D01*
X0483438Y0348328D01*
X0482800Y0347689D01*
X0482162Y0348328D01*
X0479332Y0349500D01*
X0476268Y0349500D01*
X0473438Y0348328D01*
X0472800Y0347689D01*
X0472162Y0348328D01*
X0469332Y0349500D01*
X0466268Y0349500D01*
X0463438Y0348328D01*
X0462800Y0347689D01*
X0462162Y0348328D01*
X0459332Y0349500D01*
X0456268Y0349500D01*
X0453438Y0348328D01*
X0452800Y0347689D01*
X0452162Y0348328D01*
X0449332Y0349500D01*
X0446268Y0349500D01*
X0443438Y0348328D01*
X0442800Y0347689D01*
X0442162Y0348328D01*
X0439332Y0349500D01*
X0436268Y0349500D01*
X0433438Y0348328D01*
X0432800Y0347689D01*
X0432162Y0348328D01*
X0429332Y0349500D01*
X0426268Y0349500D01*
X0423438Y0348328D01*
X0422800Y0347689D01*
X0422162Y0348328D01*
X0419332Y0349500D01*
X0416268Y0349500D01*
X0413438Y0348328D01*
X0412800Y0347689D01*
X0412162Y0348328D01*
X0409332Y0349500D01*
X0406268Y0349500D01*
X0403438Y0348328D01*
X0402800Y0347689D01*
X0402162Y0348328D01*
X0399332Y0349500D01*
X0396268Y0349500D01*
X0393438Y0348328D01*
X0391272Y0346162D01*
X0390100Y0343332D01*
X0390100Y0340268D01*
X0391272Y0337438D01*
X0393438Y0335272D01*
X0392413Y0336298D02*
X0387187Y0336298D01*
X0388517Y0337896D02*
X0391083Y0337896D01*
X0390420Y0339495D02*
X0389180Y0339495D01*
X0389500Y0341093D02*
X0390100Y0341093D01*
X0390100Y0342692D02*
X0389500Y0342692D01*
X0389103Y0344290D02*
X0390497Y0344290D01*
X0391159Y0345889D02*
X0388441Y0345889D01*
X0387002Y0347487D02*
X0392598Y0347487D01*
X0395269Y0349086D02*
X0384331Y0349086D01*
X0379269Y0349086D02*
X0374331Y0349086D01*
X0369269Y0349086D02*
X0364331Y0349086D01*
X0359269Y0349086D02*
X0354331Y0349086D01*
X0349269Y0349086D02*
X0344331Y0349086D01*
X0339269Y0349086D02*
X0334331Y0349086D01*
X0329269Y0349086D02*
X0324331Y0349086D01*
X0319269Y0349086D02*
X0314331Y0349086D01*
X0309269Y0349086D02*
X0294331Y0349086D01*
X0293332Y0349500D02*
X0290268Y0349500D01*
X0287438Y0348328D01*
X0286800Y0347689D01*
X0286162Y0348328D01*
X0283332Y0349500D01*
X0280268Y0349500D01*
X0277438Y0348328D01*
X0276800Y0347689D01*
X0276162Y0348328D01*
X0273332Y0349500D01*
X0270268Y0349500D01*
X0267438Y0348328D01*
X0266800Y0347689D01*
X0266162Y0348328D01*
X0263332Y0349500D01*
X0260268Y0349500D01*
X0257438Y0348328D01*
X0256800Y0347689D01*
X0256162Y0348328D01*
X0253332Y0349500D01*
X0250268Y0349500D01*
X0247438Y0348328D01*
X0246800Y0347689D01*
X0246162Y0348328D01*
X0243332Y0349500D01*
X0240268Y0349500D01*
X0237438Y0348328D01*
X0236800Y0347689D01*
X0236162Y0348328D01*
X0233332Y0349500D01*
X0230268Y0349500D01*
X0227438Y0348328D01*
X0226800Y0347689D01*
X0226162Y0348328D01*
X0223332Y0349500D01*
X0220268Y0349500D01*
X0217438Y0348328D01*
X0215272Y0346162D01*
X0214100Y0343332D01*
X0214100Y0340268D01*
X0215272Y0337438D01*
X0217438Y0335272D01*
X0220268Y0334100D01*
X0223332Y0334100D01*
X0226162Y0335272D01*
X0226800Y0335911D01*
X0227438Y0335272D01*
X0230268Y0334100D01*
X0233332Y0334100D01*
X0236162Y0335272D01*
X0236800Y0335911D01*
X0237438Y0335272D01*
X0240268Y0334100D01*
X0243332Y0334100D01*
X0246162Y0335272D01*
X0246800Y0335911D01*
X0247438Y0335272D01*
X0250268Y0334100D01*
X0253332Y0334100D01*
X0256162Y0335272D01*
X0256800Y0335911D01*
X0257438Y0335272D01*
X0260268Y0334100D01*
X0263332Y0334100D01*
X0266162Y0335272D01*
X0266800Y0335911D01*
X0267438Y0335272D01*
X0270268Y0334100D01*
X0273332Y0334100D01*
X0276162Y0335272D01*
X0276800Y0335911D01*
X0277438Y0335272D01*
X0280268Y0334100D01*
X0283332Y0334100D01*
X0286162Y0335272D01*
X0286800Y0335911D01*
X0287438Y0335272D01*
X0290268Y0334100D01*
X0293332Y0334100D01*
X0296162Y0335272D01*
X0298328Y0337438D01*
X0299500Y0340268D01*
X0299500Y0343332D01*
X0298328Y0346162D01*
X0296162Y0348328D01*
X0293332Y0349500D01*
X0289269Y0349086D02*
X0284331Y0349086D01*
X0279269Y0349086D02*
X0274331Y0349086D01*
X0269269Y0349086D02*
X0264331Y0349086D01*
X0259269Y0349086D02*
X0254331Y0349086D01*
X0249269Y0349086D02*
X0244331Y0349086D01*
X0239269Y0349086D02*
X0234331Y0349086D01*
X0229269Y0349086D02*
X0224331Y0349086D01*
X0219269Y0349086D02*
X0194331Y0349086D01*
X0197002Y0347487D02*
X0216598Y0347487D01*
X0215159Y0345889D02*
X0198441Y0345889D01*
X0199103Y0344290D02*
X0214497Y0344290D01*
X0214100Y0342692D02*
X0199500Y0342692D01*
X0199500Y0341093D02*
X0214100Y0341093D01*
X0214420Y0339495D02*
X0199180Y0339495D01*
X0198517Y0337896D02*
X0215083Y0337896D01*
X0216413Y0336298D02*
X0198192Y0336298D01*
X0199500Y0334699D02*
X0218822Y0334699D01*
X0224778Y0334699D02*
X0228822Y0334699D01*
X0234778Y0334699D02*
X0238822Y0334699D01*
X0244778Y0334699D02*
X0248822Y0334699D01*
X0254778Y0334699D02*
X0258822Y0334699D01*
X0264778Y0334699D02*
X0268822Y0334699D01*
X0274778Y0334699D02*
X0278822Y0334699D01*
X0284778Y0334699D02*
X0288822Y0334699D01*
X0294778Y0334699D02*
X0308822Y0334699D01*
X0306413Y0336298D02*
X0297187Y0336298D01*
X0298517Y0337896D02*
X0305083Y0337896D01*
X0304420Y0339495D02*
X0299180Y0339495D01*
X0299500Y0341093D02*
X0304100Y0341093D01*
X0304100Y0342692D02*
X0299500Y0342692D01*
X0299103Y0344290D02*
X0304497Y0344290D01*
X0305159Y0345889D02*
X0298441Y0345889D01*
X0297002Y0347487D02*
X0306598Y0347487D01*
X0314778Y0334699D02*
X0318822Y0334699D01*
X0324778Y0334699D02*
X0328822Y0334699D01*
X0334778Y0334699D02*
X0338822Y0334699D01*
X0344778Y0334699D02*
X0348822Y0334699D01*
X0354778Y0334699D02*
X0358822Y0334699D01*
X0364778Y0334699D02*
X0368822Y0334699D01*
X0374778Y0334699D02*
X0378822Y0334699D01*
X0400778Y0334699D02*
X0404822Y0334699D01*
X0410778Y0334699D02*
X0414822Y0334699D01*
X0420778Y0334699D02*
X0424822Y0334699D01*
X0430778Y0334699D02*
X0434822Y0334699D01*
X0440778Y0334699D02*
X0444822Y0334699D01*
X0450778Y0334699D02*
X0454822Y0334699D01*
X0460778Y0334699D02*
X0464822Y0334699D01*
X0470778Y0334699D02*
X0474822Y0334699D01*
X0480778Y0334699D02*
X0484822Y0334699D01*
X0490778Y0334699D02*
X0581200Y0334699D01*
X0581200Y0333101D02*
X0199500Y0333101D01*
X0199500Y0331502D02*
X0581200Y0331502D01*
X0581200Y0329904D02*
X0199500Y0329904D01*
X0199195Y0328305D02*
X0581200Y0328305D01*
X0581200Y0326707D02*
X0197783Y0326707D01*
X0199381Y0325108D02*
X0581200Y0325108D01*
X0581200Y0323510D02*
X0199500Y0323510D01*
X0199500Y0321911D02*
X0581200Y0321911D01*
X0581200Y0320313D02*
X0199500Y0320313D01*
X0199500Y0318714D02*
X0581200Y0318714D01*
X0581200Y0317116D02*
X0198005Y0317116D01*
X0189269Y0349086D02*
X0184331Y0349086D01*
X0216769Y0364100D02*
X0217904Y0364570D01*
X0219030Y0365696D01*
X0219639Y0367166D01*
X0219639Y0376434D01*
X0219030Y0377904D01*
X0217904Y0379030D01*
X0216434Y0379639D01*
X0207166Y0379639D01*
X0205696Y0379030D01*
X0204570Y0377904D01*
X0204527Y0377800D01*
X0045607Y0377800D01*
X0043401Y0376887D01*
X0042800Y0376285D01*
X0042800Y0380800D01*
X0047993Y0380800D01*
X0050199Y0381713D01*
X0051887Y0383401D01*
X0052800Y0385607D01*
X0052800Y0400800D01*
X0064012Y0400800D01*
X0062000Y0398788D01*
X0062000Y0397000D01*
X0066600Y0397000D01*
X0066600Y0396600D01*
X0067000Y0396600D01*
X0067000Y0397000D01*
X0071600Y0397000D01*
X0071600Y0398788D01*
X0069588Y0400800D01*
X0074012Y0400800D01*
X0072000Y0398788D01*
X0072000Y0397000D01*
X0076600Y0397000D01*
X0076600Y0396600D01*
X0077000Y0396600D01*
X0077000Y0397000D01*
X0081600Y0397000D01*
X0081600Y0398788D01*
X0079588Y0400800D01*
X0084012Y0400800D01*
X0082000Y0398788D01*
X0082000Y0397000D01*
X0086600Y0397000D01*
X0086600Y0396600D01*
X0087000Y0396600D01*
X0087000Y0397000D01*
X0091600Y0397000D01*
X0091600Y0398788D01*
X0089588Y0400800D01*
X0094012Y0400800D01*
X0092000Y0398788D01*
X0092000Y0397000D01*
X0096600Y0397000D01*
X0096600Y0396600D01*
X0097000Y0396600D01*
X0097000Y0397000D01*
X0101600Y0397000D01*
X0101600Y0398788D01*
X0099588Y0400800D01*
X0104012Y0400800D01*
X0102000Y0398788D01*
X0102000Y0397000D01*
X0106600Y0397000D01*
X0106600Y0396600D01*
X0107000Y0396600D01*
X0107000Y0397000D01*
X0111600Y0397000D01*
X0111600Y0398788D01*
X0109588Y0400800D01*
X0114012Y0400800D01*
X0112000Y0398788D01*
X0112000Y0397000D01*
X0116600Y0397000D01*
X0116600Y0396600D01*
X0117000Y0396600D01*
X0117000Y0397000D01*
X0121600Y0397000D01*
X0121600Y0398788D01*
X0119588Y0400800D01*
X0124012Y0400800D01*
X0122000Y0398788D01*
X0122000Y0397000D01*
X0126600Y0397000D01*
X0126600Y0396600D01*
X0127000Y0396600D01*
X0127000Y0397000D01*
X0131600Y0397000D01*
X0131600Y0398788D01*
X0129588Y0400800D01*
X0134012Y0400800D01*
X0132000Y0398788D01*
X0132000Y0397000D01*
X0136600Y0397000D01*
X0136600Y0396600D01*
X0137000Y0396600D01*
X0137000Y0397000D01*
X0141600Y0397000D01*
X0141600Y0398788D01*
X0139588Y0400800D01*
X0144012Y0400800D01*
X0142000Y0398788D01*
X0142000Y0397000D01*
X0146600Y0397000D01*
X0146600Y0396600D01*
X0147000Y0396600D01*
X0147000Y0397000D01*
X0151600Y0397000D01*
X0151600Y0398788D01*
X0149588Y0400800D01*
X0154012Y0400800D01*
X0152000Y0398788D01*
X0152000Y0397000D01*
X0156600Y0397000D01*
X0156600Y0396600D01*
X0157000Y0396600D01*
X0157000Y0397000D01*
X0161600Y0397000D01*
X0161600Y0398788D01*
X0159588Y0400800D01*
X0204800Y0400800D01*
X0204800Y0392408D01*
X0205866Y0389835D01*
X0207835Y0387866D01*
X0210408Y0386800D01*
X0213192Y0386800D01*
X0215765Y0387866D01*
X0216800Y0388901D01*
X0217835Y0387866D01*
X0220408Y0386800D01*
X0223192Y0386800D01*
X0225765Y0387866D01*
X0226800Y0388901D01*
X0227835Y0387866D01*
X0230408Y0386800D01*
X0233192Y0386800D01*
X0235765Y0387866D01*
X0236800Y0388901D01*
X0237835Y0387866D01*
X0240408Y0386800D01*
X0243192Y0386800D01*
X0245765Y0387866D01*
X0246800Y0388901D01*
X0247835Y0387866D01*
X0250408Y0386800D01*
X0253192Y0386800D01*
X0255765Y0387866D01*
X0256800Y0388901D01*
X0257835Y0387866D01*
X0260408Y0386800D01*
X0263192Y0386800D01*
X0265765Y0387866D01*
X0266800Y0388901D01*
X0267835Y0387866D01*
X0270408Y0386800D01*
X0273192Y0386800D01*
X0275765Y0387866D01*
X0276800Y0388901D01*
X0277835Y0387866D01*
X0280408Y0386800D01*
X0283192Y0386800D01*
X0285765Y0387866D01*
X0285800Y0387901D01*
X0285800Y0379639D01*
X0277166Y0379639D01*
X0275696Y0379030D01*
X0274570Y0377904D01*
X0273961Y0376434D01*
X0273961Y0367166D01*
X0274570Y0365696D01*
X0275696Y0364570D01*
X0276831Y0364100D01*
X0216769Y0364100D01*
X0218405Y0365071D02*
X0275195Y0365071D01*
X0274167Y0366670D02*
X0219433Y0366670D01*
X0219639Y0368268D02*
X0273961Y0368268D01*
X0273961Y0369867D02*
X0219639Y0369867D01*
X0219639Y0371465D02*
X0273961Y0371465D01*
X0273961Y0373064D02*
X0219639Y0373064D01*
X0219639Y0374662D02*
X0273961Y0374662D01*
X0273961Y0376261D02*
X0219639Y0376261D01*
X0219048Y0377859D02*
X0274552Y0377859D01*
X0276729Y0379458D02*
X0216871Y0379458D01*
X0218838Y0387450D02*
X0214762Y0387450D01*
X0208838Y0387450D02*
X0161600Y0387450D01*
X0161600Y0387000D02*
X0161600Y0388788D01*
X0158788Y0391600D01*
X0157000Y0391600D01*
X0157000Y0387000D01*
X0161600Y0387000D01*
X0161600Y0386600D02*
X0157000Y0386600D01*
X0157000Y0387000D01*
X0156600Y0387000D01*
X0156600Y0391600D01*
X0154812Y0391600D01*
X0152000Y0388788D01*
X0152000Y0387000D01*
X0156600Y0387000D01*
X0156600Y0386600D01*
X0157000Y0386600D01*
X0157000Y0382000D01*
X0158788Y0382000D01*
X0161600Y0384812D01*
X0161600Y0386600D01*
X0161600Y0385852D02*
X0285800Y0385852D01*
X0285800Y0387450D02*
X0284762Y0387450D01*
X0285800Y0384253D02*
X0161041Y0384253D01*
X0159443Y0382655D02*
X0285800Y0382655D01*
X0285800Y0381056D02*
X0048612Y0381056D01*
X0051140Y0382655D02*
X0064157Y0382655D01*
X0064812Y0382000D02*
X0066600Y0382000D01*
X0066600Y0386600D01*
X0067000Y0386600D01*
X0067000Y0387000D01*
X0071600Y0387000D01*
X0071600Y0388788D01*
X0068788Y0391600D01*
X0067000Y0391600D01*
X0067000Y0387000D01*
X0066600Y0387000D01*
X0066600Y0391600D01*
X0064812Y0391600D01*
X0062000Y0388788D01*
X0062000Y0387000D01*
X0066600Y0387000D01*
X0066600Y0386600D01*
X0062000Y0386600D01*
X0062000Y0384812D01*
X0064812Y0382000D01*
X0066600Y0382655D02*
X0067000Y0382655D01*
X0067000Y0382000D02*
X0068788Y0382000D01*
X0071600Y0384812D01*
X0071600Y0386600D01*
X0067000Y0386600D01*
X0067000Y0382000D01*
X0067000Y0384253D02*
X0066600Y0384253D01*
X0066600Y0385852D02*
X0067000Y0385852D01*
X0067000Y0387450D02*
X0066600Y0387450D01*
X0066600Y0389049D02*
X0067000Y0389049D01*
X0067000Y0390647D02*
X0066600Y0390647D01*
X0066600Y0392000D02*
X0066600Y0396600D01*
X0062000Y0396600D01*
X0062000Y0394812D01*
X0064812Y0392000D01*
X0066600Y0392000D01*
X0066600Y0392246D02*
X0067000Y0392246D01*
X0067000Y0392000D02*
X0068788Y0392000D01*
X0071600Y0394812D01*
X0071600Y0396600D01*
X0067000Y0396600D01*
X0067000Y0392000D01*
X0067000Y0393844D02*
X0066600Y0393844D01*
X0066600Y0395443D02*
X0067000Y0395443D01*
X0069034Y0392246D02*
X0074566Y0392246D01*
X0074812Y0392000D02*
X0076600Y0392000D01*
X0076600Y0396600D01*
X0072000Y0396600D01*
X0072000Y0394812D01*
X0074812Y0392000D01*
X0074812Y0391600D02*
X0072000Y0388788D01*
X0072000Y0387000D01*
X0076600Y0387000D01*
X0076600Y0391600D01*
X0074812Y0391600D01*
X0073859Y0390647D02*
X0069741Y0390647D01*
X0071340Y0389049D02*
X0072260Y0389049D01*
X0072000Y0387450D02*
X0071600Y0387450D01*
X0072000Y0386600D02*
X0072000Y0384812D01*
X0074812Y0382000D01*
X0076600Y0382000D01*
X0076600Y0386600D01*
X0077000Y0386600D01*
X0077000Y0387000D01*
X0081600Y0387000D01*
X0081600Y0388788D01*
X0078788Y0391600D01*
X0077000Y0391600D01*
X0077000Y0387000D01*
X0076600Y0387000D01*
X0076600Y0386600D01*
X0072000Y0386600D01*
X0072000Y0385852D02*
X0071600Y0385852D01*
X0071041Y0384253D02*
X0072559Y0384253D01*
X0074157Y0382655D02*
X0069443Y0382655D01*
X0062559Y0384253D02*
X0052239Y0384253D01*
X0052800Y0385852D02*
X0062000Y0385852D01*
X0062000Y0387450D02*
X0052800Y0387450D01*
X0052800Y0389049D02*
X0062260Y0389049D01*
X0063859Y0390647D02*
X0052800Y0390647D01*
X0052800Y0392246D02*
X0064566Y0392246D01*
X0062968Y0393844D02*
X0052800Y0393844D01*
X0052800Y0395443D02*
X0062000Y0395443D01*
X0062000Y0397041D02*
X0052800Y0397041D01*
X0052800Y0398640D02*
X0062000Y0398640D01*
X0063450Y0400238D02*
X0052800Y0400238D01*
X0040800Y0400238D02*
X0035828Y0400238D01*
X0036751Y0401837D02*
X0040800Y0401837D01*
X0040800Y0403435D02*
X0037389Y0403435D01*
X0037817Y0405034D02*
X0040800Y0405034D01*
X0040800Y0406632D02*
X0037899Y0406632D01*
X0037899Y0408231D02*
X0040898Y0408231D01*
X0041560Y0409829D02*
X0037479Y0409829D01*
X0036944Y0411428D02*
X0042943Y0411428D01*
X0036021Y0413026D02*
X0562579Y0413026D01*
X0561656Y0411428D02*
X0295657Y0411428D01*
X0297040Y0409829D02*
X0561121Y0409829D01*
X0560701Y0408231D02*
X0297702Y0408231D01*
X0297800Y0406632D02*
X0330003Y0406632D01*
X0330408Y0406800D02*
X0327835Y0405734D01*
X0325866Y0403765D01*
X0324800Y0401192D01*
X0324800Y0392408D01*
X0325866Y0389835D01*
X0327835Y0387866D01*
X0330408Y0386800D01*
X0333192Y0386800D01*
X0335765Y0387866D01*
X0336800Y0388901D01*
X0337835Y0387866D01*
X0340408Y0386800D01*
X0343192Y0386800D01*
X0345765Y0387866D01*
X0346800Y0388901D01*
X0347835Y0387866D01*
X0350408Y0386800D01*
X0353192Y0386800D01*
X0355765Y0387866D01*
X0356800Y0388901D01*
X0357835Y0387866D01*
X0360408Y0386800D01*
X0363192Y0386800D01*
X0365765Y0387866D01*
X0366800Y0388901D01*
X0367835Y0387866D01*
X0370408Y0386800D01*
X0373192Y0386800D01*
X0375765Y0387866D01*
X0376800Y0388901D01*
X0377835Y0387866D01*
X0380408Y0386800D01*
X0383192Y0386800D01*
X0385765Y0387866D01*
X0386800Y0388901D01*
X0387835Y0387866D01*
X0390408Y0386800D01*
X0393192Y0386800D01*
X0395765Y0387866D01*
X0396800Y0388901D01*
X0397835Y0387866D01*
X0400408Y0386800D01*
X0403192Y0386800D01*
X0405765Y0387866D01*
X0406800Y0388901D01*
X0407835Y0387866D01*
X0410408Y0386800D01*
X0413192Y0386800D01*
X0415765Y0387866D01*
X0416800Y0388901D01*
X0417835Y0387866D01*
X0420408Y0386800D01*
X0423192Y0386800D01*
X0425765Y0387866D01*
X0426800Y0388901D01*
X0427835Y0387866D01*
X0430408Y0386800D01*
X0433192Y0386800D01*
X0435765Y0387866D01*
X0437734Y0389835D01*
X0438800Y0392408D01*
X0438800Y0401192D01*
X0437734Y0403765D01*
X0435765Y0405734D01*
X0433192Y0406800D01*
X0430408Y0406800D01*
X0427835Y0405734D01*
X0426800Y0404699D01*
X0425765Y0405734D01*
X0423192Y0406800D01*
X0420408Y0406800D01*
X0417835Y0405734D01*
X0416800Y0404699D01*
X0415765Y0405734D01*
X0413192Y0406800D01*
X0410408Y0406800D01*
X0407835Y0405734D01*
X0406800Y0404699D01*
X0405765Y0405734D01*
X0403192Y0406800D01*
X0400408Y0406800D01*
X0397835Y0405734D01*
X0396800Y0404699D01*
X0395765Y0405734D01*
X0393192Y0406800D01*
X0390408Y0406800D01*
X0387835Y0405734D01*
X0386800Y0404699D01*
X0385765Y0405734D01*
X0383192Y0406800D01*
X0380408Y0406800D01*
X0377835Y0405734D01*
X0376800Y0404699D01*
X0375765Y0405734D01*
X0373192Y0406800D01*
X0370408Y0406800D01*
X0367835Y0405734D01*
X0366800Y0404699D01*
X0365765Y0405734D01*
X0363192Y0406800D01*
X0360408Y0406800D01*
X0357835Y0405734D01*
X0356800Y0404699D01*
X0355765Y0405734D01*
X0353192Y0406800D01*
X0350408Y0406800D01*
X0347835Y0405734D01*
X0346800Y0404699D01*
X0345765Y0405734D01*
X0343192Y0406800D01*
X0340408Y0406800D01*
X0337835Y0405734D01*
X0336800Y0404699D01*
X0335765Y0405734D01*
X0333192Y0406800D01*
X0330408Y0406800D01*
X0333597Y0406632D02*
X0340003Y0406632D01*
X0337134Y0405034D02*
X0336466Y0405034D01*
X0343597Y0406632D02*
X0350003Y0406632D01*
X0347134Y0405034D02*
X0346466Y0405034D01*
X0353597Y0406632D02*
X0360003Y0406632D01*
X0357134Y0405034D02*
X0356466Y0405034D01*
X0363597Y0406632D02*
X0370003Y0406632D01*
X0367134Y0405034D02*
X0366466Y0405034D01*
X0373597Y0406632D02*
X0380003Y0406632D01*
X0377134Y0405034D02*
X0376466Y0405034D01*
X0383597Y0406632D02*
X0390003Y0406632D01*
X0387134Y0405034D02*
X0386466Y0405034D01*
X0393597Y0406632D02*
X0400003Y0406632D01*
X0397134Y0405034D02*
X0396466Y0405034D01*
X0403597Y0406632D02*
X0410003Y0406632D01*
X0407134Y0405034D02*
X0406466Y0405034D01*
X0413597Y0406632D02*
X0420003Y0406632D01*
X0417134Y0405034D02*
X0416466Y0405034D01*
X0423597Y0406632D02*
X0430003Y0406632D01*
X0427134Y0405034D02*
X0426466Y0405034D01*
X0433597Y0406632D02*
X0560701Y0406632D01*
X0560782Y0405034D02*
X0436466Y0405034D01*
X0437871Y0403435D02*
X0561211Y0403435D01*
X0561849Y0401837D02*
X0438533Y0401837D01*
X0438800Y0400238D02*
X0562772Y0400238D01*
X0564264Y0398640D02*
X0438800Y0398640D01*
X0438800Y0397041D02*
X0566504Y0397041D01*
X0577096Y0397041D02*
X0581200Y0397041D01*
X0581200Y0395443D02*
X0438800Y0395443D01*
X0438800Y0393844D02*
X0581200Y0393844D01*
X0581200Y0392246D02*
X0438733Y0392246D01*
X0438071Y0390647D02*
X0581200Y0390647D01*
X0581200Y0389049D02*
X0436948Y0389049D01*
X0434762Y0387450D02*
X0581200Y0387450D01*
X0581200Y0385852D02*
X0297800Y0385852D01*
X0297800Y0387450D02*
X0328838Y0387450D01*
X0326652Y0389049D02*
X0297800Y0389049D01*
X0297800Y0390647D02*
X0325529Y0390647D01*
X0324867Y0392246D02*
X0297800Y0392246D01*
X0297800Y0393844D02*
X0324800Y0393844D01*
X0324800Y0395443D02*
X0297800Y0395443D01*
X0297800Y0397041D02*
X0324800Y0397041D01*
X0324800Y0398640D02*
X0297800Y0398640D01*
X0297800Y0400238D02*
X0324800Y0400238D01*
X0325067Y0401837D02*
X0297800Y0401837D01*
X0297800Y0403435D02*
X0325729Y0403435D01*
X0327134Y0405034D02*
X0297800Y0405034D01*
X0278838Y0387450D02*
X0274762Y0387450D01*
X0268838Y0387450D02*
X0264762Y0387450D01*
X0258838Y0387450D02*
X0254762Y0387450D01*
X0248838Y0387450D02*
X0244762Y0387450D01*
X0238838Y0387450D02*
X0234762Y0387450D01*
X0228838Y0387450D02*
X0224762Y0387450D01*
X0206652Y0389049D02*
X0161340Y0389049D01*
X0159741Y0390647D02*
X0205529Y0390647D01*
X0204867Y0392246D02*
X0159034Y0392246D01*
X0158788Y0392000D02*
X0161600Y0394812D01*
X0161600Y0396600D01*
X0157000Y0396600D01*
X0157000Y0392000D01*
X0158788Y0392000D01*
X0157000Y0392246D02*
X0156600Y0392246D01*
X0156600Y0392000D02*
X0156600Y0396600D01*
X0152000Y0396600D01*
X0152000Y0394812D01*
X0154812Y0392000D01*
X0156600Y0392000D01*
X0156600Y0390647D02*
X0157000Y0390647D01*
X0157000Y0389049D02*
X0156600Y0389049D01*
X0156600Y0387450D02*
X0157000Y0387450D01*
X0156600Y0386600D02*
X0152000Y0386600D01*
X0152000Y0384812D01*
X0154812Y0382000D01*
X0156600Y0382000D01*
X0156600Y0386600D01*
X0156600Y0385852D02*
X0157000Y0385852D01*
X0157000Y0384253D02*
X0156600Y0384253D01*
X0156600Y0382655D02*
X0157000Y0382655D01*
X0154157Y0382655D02*
X0149443Y0382655D01*
X0148788Y0382000D02*
X0151600Y0384812D01*
X0151600Y0386600D01*
X0147000Y0386600D01*
X0147000Y0387000D01*
X0151600Y0387000D01*
X0151600Y0388788D01*
X0148788Y0391600D01*
X0147000Y0391600D01*
X0147000Y0387000D01*
X0146600Y0387000D01*
X0146600Y0391600D01*
X0144812Y0391600D01*
X0142000Y0388788D01*
X0142000Y0387000D01*
X0146600Y0387000D01*
X0146600Y0386600D01*
X0147000Y0386600D01*
X0147000Y0382000D01*
X0148788Y0382000D01*
X0147000Y0382655D02*
X0146600Y0382655D01*
X0146600Y0382000D02*
X0146600Y0386600D01*
X0142000Y0386600D01*
X0142000Y0384812D01*
X0144812Y0382000D01*
X0146600Y0382000D01*
X0146600Y0384253D02*
X0147000Y0384253D01*
X0147000Y0385852D02*
X0146600Y0385852D01*
X0146600Y0387450D02*
X0147000Y0387450D01*
X0147000Y0389049D02*
X0146600Y0389049D01*
X0146600Y0390647D02*
X0147000Y0390647D01*
X0147000Y0392000D02*
X0148788Y0392000D01*
X0151600Y0394812D01*
X0151600Y0396600D01*
X0147000Y0396600D01*
X0147000Y0392000D01*
X0147000Y0392246D02*
X0146600Y0392246D01*
X0146600Y0392000D02*
X0146600Y0396600D01*
X0142000Y0396600D01*
X0142000Y0394812D01*
X0144812Y0392000D01*
X0146600Y0392000D01*
X0146600Y0393844D02*
X0147000Y0393844D01*
X0147000Y0395443D02*
X0146600Y0395443D01*
X0144566Y0392246D02*
X0139034Y0392246D01*
X0138788Y0392000D02*
X0141600Y0394812D01*
X0141600Y0396600D01*
X0137000Y0396600D01*
X0137000Y0392000D01*
X0138788Y0392000D01*
X0138788Y0391600D02*
X0137000Y0391600D01*
X0137000Y0387000D01*
X0141600Y0387000D01*
X0141600Y0388788D01*
X0138788Y0391600D01*
X0139741Y0390647D02*
X0143859Y0390647D01*
X0142260Y0389049D02*
X0141340Y0389049D01*
X0141600Y0387450D02*
X0142000Y0387450D01*
X0141600Y0386600D02*
X0137000Y0386600D01*
X0137000Y0387000D01*
X0136600Y0387000D01*
X0136600Y0391600D01*
X0134812Y0391600D01*
X0132000Y0388788D01*
X0132000Y0387000D01*
X0136600Y0387000D01*
X0136600Y0386600D01*
X0137000Y0386600D01*
X0137000Y0382000D01*
X0138788Y0382000D01*
X0141600Y0384812D01*
X0141600Y0386600D01*
X0141600Y0385852D02*
X0142000Y0385852D01*
X0142559Y0384253D02*
X0141041Y0384253D01*
X0139443Y0382655D02*
X0144157Y0382655D01*
X0151041Y0384253D02*
X0152559Y0384253D01*
X0152000Y0385852D02*
X0151600Y0385852D01*
X0151600Y0387450D02*
X0152000Y0387450D01*
X0152260Y0389049D02*
X0151340Y0389049D01*
X0149741Y0390647D02*
X0153859Y0390647D01*
X0154566Y0392246D02*
X0149034Y0392246D01*
X0150632Y0393844D02*
X0152968Y0393844D01*
X0152000Y0395443D02*
X0151600Y0395443D01*
X0151600Y0397041D02*
X0152000Y0397041D01*
X0152000Y0398640D02*
X0151600Y0398640D01*
X0150150Y0400238D02*
X0153450Y0400238D01*
X0156600Y0395443D02*
X0157000Y0395443D01*
X0157000Y0393844D02*
X0156600Y0393844D01*
X0160632Y0393844D02*
X0204800Y0393844D01*
X0204800Y0395443D02*
X0161600Y0395443D01*
X0161600Y0397041D02*
X0204800Y0397041D01*
X0204800Y0398640D02*
X0161600Y0398640D01*
X0160150Y0400238D02*
X0204800Y0400238D01*
X0206729Y0379458D02*
X0042800Y0379458D01*
X0042800Y0377859D02*
X0204552Y0377859D01*
X0142968Y0393844D02*
X0140632Y0393844D01*
X0141600Y0395443D02*
X0142000Y0395443D01*
X0142000Y0397041D02*
X0141600Y0397041D01*
X0141600Y0398640D02*
X0142000Y0398640D01*
X0143450Y0400238D02*
X0140150Y0400238D01*
X0136600Y0396600D02*
X0136600Y0392000D01*
X0134812Y0392000D01*
X0132000Y0394812D01*
X0132000Y0396600D01*
X0136600Y0396600D01*
X0136600Y0395443D02*
X0137000Y0395443D01*
X0137000Y0393844D02*
X0136600Y0393844D01*
X0136600Y0392246D02*
X0137000Y0392246D01*
X0137000Y0390647D02*
X0136600Y0390647D01*
X0136600Y0389049D02*
X0137000Y0389049D01*
X0137000Y0387450D02*
X0136600Y0387450D01*
X0136600Y0386600D02*
X0132000Y0386600D01*
X0132000Y0384812D01*
X0134812Y0382000D01*
X0136600Y0382000D01*
X0136600Y0386600D01*
X0136600Y0385852D02*
X0137000Y0385852D01*
X0137000Y0384253D02*
X0136600Y0384253D01*
X0136600Y0382655D02*
X0137000Y0382655D01*
X0134157Y0382655D02*
X0129443Y0382655D01*
X0128788Y0382000D02*
X0131600Y0384812D01*
X0131600Y0386600D01*
X0127000Y0386600D01*
X0127000Y0387000D01*
X0131600Y0387000D01*
X0131600Y0388788D01*
X0128788Y0391600D01*
X0127000Y0391600D01*
X0127000Y0387000D01*
X0126600Y0387000D01*
X0126600Y0391600D01*
X0124812Y0391600D01*
X0122000Y0388788D01*
X0122000Y0387000D01*
X0126600Y0387000D01*
X0126600Y0386600D01*
X0127000Y0386600D01*
X0127000Y0382000D01*
X0128788Y0382000D01*
X0127000Y0382655D02*
X0126600Y0382655D01*
X0126600Y0382000D02*
X0126600Y0386600D01*
X0122000Y0386600D01*
X0122000Y0384812D01*
X0124812Y0382000D01*
X0126600Y0382000D01*
X0126600Y0384253D02*
X0127000Y0384253D01*
X0127000Y0385852D02*
X0126600Y0385852D01*
X0126600Y0387450D02*
X0127000Y0387450D01*
X0127000Y0389049D02*
X0126600Y0389049D01*
X0126600Y0390647D02*
X0127000Y0390647D01*
X0127000Y0392000D02*
X0128788Y0392000D01*
X0131600Y0394812D01*
X0131600Y0396600D01*
X0127000Y0396600D01*
X0127000Y0392000D01*
X0127000Y0392246D02*
X0126600Y0392246D01*
X0126600Y0392000D02*
X0126600Y0396600D01*
X0122000Y0396600D01*
X0122000Y0394812D01*
X0124812Y0392000D01*
X0126600Y0392000D01*
X0126600Y0393844D02*
X0127000Y0393844D01*
X0127000Y0395443D02*
X0126600Y0395443D01*
X0124566Y0392246D02*
X0119034Y0392246D01*
X0118788Y0392000D02*
X0121600Y0394812D01*
X0121600Y0396600D01*
X0117000Y0396600D01*
X0117000Y0392000D01*
X0118788Y0392000D01*
X0118788Y0391600D02*
X0117000Y0391600D01*
X0117000Y0387000D01*
X0121600Y0387000D01*
X0121600Y0388788D01*
X0118788Y0391600D01*
X0119741Y0390647D02*
X0123859Y0390647D01*
X0122260Y0389049D02*
X0121340Y0389049D01*
X0121600Y0387450D02*
X0122000Y0387450D01*
X0121600Y0386600D02*
X0117000Y0386600D01*
X0117000Y0387000D01*
X0116600Y0387000D01*
X0116600Y0391600D01*
X0114812Y0391600D01*
X0112000Y0388788D01*
X0112000Y0387000D01*
X0116600Y0387000D01*
X0116600Y0386600D01*
X0117000Y0386600D01*
X0117000Y0382000D01*
X0118788Y0382000D01*
X0121600Y0384812D01*
X0121600Y0386600D01*
X0121600Y0385852D02*
X0122000Y0385852D01*
X0122559Y0384253D02*
X0121041Y0384253D01*
X0119443Y0382655D02*
X0124157Y0382655D01*
X0131041Y0384253D02*
X0132559Y0384253D01*
X0132000Y0385852D02*
X0131600Y0385852D01*
X0131600Y0387450D02*
X0132000Y0387450D01*
X0132260Y0389049D02*
X0131340Y0389049D01*
X0129741Y0390647D02*
X0133859Y0390647D01*
X0134566Y0392246D02*
X0129034Y0392246D01*
X0130632Y0393844D02*
X0132968Y0393844D01*
X0132000Y0395443D02*
X0131600Y0395443D01*
X0131600Y0397041D02*
X0132000Y0397041D01*
X0132000Y0398640D02*
X0131600Y0398640D01*
X0130150Y0400238D02*
X0133450Y0400238D01*
X0123450Y0400238D02*
X0120150Y0400238D01*
X0121600Y0398640D02*
X0122000Y0398640D01*
X0122000Y0397041D02*
X0121600Y0397041D01*
X0121600Y0395443D02*
X0122000Y0395443D01*
X0122968Y0393844D02*
X0120632Y0393844D01*
X0117000Y0393844D02*
X0116600Y0393844D01*
X0116600Y0392246D02*
X0117000Y0392246D01*
X0116600Y0392000D02*
X0116600Y0396600D01*
X0112000Y0396600D01*
X0112000Y0394812D01*
X0114812Y0392000D01*
X0116600Y0392000D01*
X0116600Y0390647D02*
X0117000Y0390647D01*
X0117000Y0389049D02*
X0116600Y0389049D01*
X0116600Y0387450D02*
X0117000Y0387450D01*
X0116600Y0386600D02*
X0112000Y0386600D01*
X0112000Y0384812D01*
X0114812Y0382000D01*
X0116600Y0382000D01*
X0116600Y0386600D01*
X0116600Y0385852D02*
X0117000Y0385852D01*
X0117000Y0384253D02*
X0116600Y0384253D01*
X0116600Y0382655D02*
X0117000Y0382655D01*
X0114157Y0382655D02*
X0109443Y0382655D01*
X0108788Y0382000D02*
X0111600Y0384812D01*
X0111600Y0386600D01*
X0107000Y0386600D01*
X0107000Y0387000D01*
X0111600Y0387000D01*
X0111600Y0388788D01*
X0108788Y0391600D01*
X0107000Y0391600D01*
X0107000Y0387000D01*
X0106600Y0387000D01*
X0106600Y0391600D01*
X0104812Y0391600D01*
X0102000Y0388788D01*
X0102000Y0387000D01*
X0106600Y0387000D01*
X0106600Y0386600D01*
X0107000Y0386600D01*
X0107000Y0382000D01*
X0108788Y0382000D01*
X0107000Y0382655D02*
X0106600Y0382655D01*
X0106600Y0382000D02*
X0106600Y0386600D01*
X0102000Y0386600D01*
X0102000Y0384812D01*
X0104812Y0382000D01*
X0106600Y0382000D01*
X0106600Y0384253D02*
X0107000Y0384253D01*
X0107000Y0385852D02*
X0106600Y0385852D01*
X0106600Y0387450D02*
X0107000Y0387450D01*
X0107000Y0389049D02*
X0106600Y0389049D01*
X0106600Y0390647D02*
X0107000Y0390647D01*
X0107000Y0392000D02*
X0108788Y0392000D01*
X0111600Y0394812D01*
X0111600Y0396600D01*
X0107000Y0396600D01*
X0107000Y0392000D01*
X0107000Y0392246D02*
X0106600Y0392246D01*
X0106600Y0392000D02*
X0106600Y0396600D01*
X0102000Y0396600D01*
X0102000Y0394812D01*
X0104812Y0392000D01*
X0106600Y0392000D01*
X0106600Y0393844D02*
X0107000Y0393844D01*
X0107000Y0395443D02*
X0106600Y0395443D01*
X0104566Y0392246D02*
X0099034Y0392246D01*
X0098788Y0392000D02*
X0101600Y0394812D01*
X0101600Y0396600D01*
X0097000Y0396600D01*
X0097000Y0392000D01*
X0098788Y0392000D01*
X0098788Y0391600D02*
X0097000Y0391600D01*
X0097000Y0387000D01*
X0101600Y0387000D01*
X0101600Y0388788D01*
X0098788Y0391600D01*
X0099741Y0390647D02*
X0103859Y0390647D01*
X0102260Y0389049D02*
X0101340Y0389049D01*
X0101600Y0387450D02*
X0102000Y0387450D01*
X0101600Y0386600D02*
X0101600Y0384812D01*
X0098788Y0382000D01*
X0097000Y0382000D01*
X0097000Y0386600D01*
X0097000Y0387000D01*
X0096600Y0387000D01*
X0096600Y0391600D01*
X0094812Y0391600D01*
X0092000Y0388788D01*
X0092000Y0387000D01*
X0096600Y0387000D01*
X0096600Y0386600D01*
X0097000Y0386600D01*
X0101600Y0386600D01*
X0101600Y0385852D02*
X0102000Y0385852D01*
X0102559Y0384253D02*
X0101041Y0384253D01*
X0099443Y0382655D02*
X0104157Y0382655D01*
X0111041Y0384253D02*
X0112559Y0384253D01*
X0112000Y0385852D02*
X0111600Y0385852D01*
X0111600Y0387450D02*
X0112000Y0387450D01*
X0112260Y0389049D02*
X0111340Y0389049D01*
X0109741Y0390647D02*
X0113859Y0390647D01*
X0114566Y0392246D02*
X0109034Y0392246D01*
X0110632Y0393844D02*
X0112968Y0393844D01*
X0112000Y0395443D02*
X0111600Y0395443D01*
X0111600Y0397041D02*
X0112000Y0397041D01*
X0112000Y0398640D02*
X0111600Y0398640D01*
X0110150Y0400238D02*
X0113450Y0400238D01*
X0116600Y0395443D02*
X0117000Y0395443D01*
X0102968Y0393844D02*
X0100632Y0393844D01*
X0101600Y0395443D02*
X0102000Y0395443D01*
X0102000Y0397041D02*
X0101600Y0397041D01*
X0101600Y0398640D02*
X0102000Y0398640D01*
X0103450Y0400238D02*
X0100150Y0400238D01*
X0096600Y0396600D02*
X0092000Y0396600D01*
X0092000Y0394812D01*
X0094812Y0392000D01*
X0096600Y0392000D01*
X0096600Y0396600D01*
X0096600Y0395443D02*
X0097000Y0395443D01*
X0097000Y0393844D02*
X0096600Y0393844D01*
X0096600Y0392246D02*
X0097000Y0392246D01*
X0097000Y0390647D02*
X0096600Y0390647D01*
X0096600Y0389049D02*
X0097000Y0389049D01*
X0097000Y0387450D02*
X0096600Y0387450D01*
X0096600Y0386600D02*
X0092000Y0386600D01*
X0092000Y0384812D01*
X0094812Y0382000D01*
X0096600Y0382000D01*
X0096600Y0386600D01*
X0096600Y0385852D02*
X0097000Y0385852D01*
X0097000Y0384253D02*
X0096600Y0384253D01*
X0096600Y0382655D02*
X0097000Y0382655D01*
X0094157Y0382655D02*
X0089443Y0382655D01*
X0088788Y0382000D02*
X0091600Y0384812D01*
X0091600Y0386600D01*
X0087000Y0386600D01*
X0087000Y0387000D01*
X0091600Y0387000D01*
X0091600Y0388788D01*
X0088788Y0391600D01*
X0087000Y0391600D01*
X0087000Y0387000D01*
X0086600Y0387000D01*
X0086600Y0391600D01*
X0084812Y0391600D01*
X0082000Y0388788D01*
X0082000Y0387000D01*
X0086600Y0387000D01*
X0086600Y0386600D01*
X0087000Y0386600D01*
X0087000Y0382000D01*
X0088788Y0382000D01*
X0087000Y0382655D02*
X0086600Y0382655D01*
X0086600Y0382000D02*
X0086600Y0386600D01*
X0082000Y0386600D01*
X0082000Y0384812D01*
X0084812Y0382000D01*
X0086600Y0382000D01*
X0086600Y0384253D02*
X0087000Y0384253D01*
X0087000Y0385852D02*
X0086600Y0385852D01*
X0086600Y0387450D02*
X0087000Y0387450D01*
X0087000Y0389049D02*
X0086600Y0389049D01*
X0086600Y0390647D02*
X0087000Y0390647D01*
X0087000Y0392000D02*
X0088788Y0392000D01*
X0091600Y0394812D01*
X0091600Y0396600D01*
X0087000Y0396600D01*
X0087000Y0392000D01*
X0087000Y0392246D02*
X0086600Y0392246D01*
X0086600Y0392000D02*
X0086600Y0396600D01*
X0082000Y0396600D01*
X0082000Y0394812D01*
X0084812Y0392000D01*
X0086600Y0392000D01*
X0086600Y0393844D02*
X0087000Y0393844D01*
X0087000Y0395443D02*
X0086600Y0395443D01*
X0084566Y0392246D02*
X0079034Y0392246D01*
X0078788Y0392000D02*
X0081600Y0394812D01*
X0081600Y0396600D01*
X0077000Y0396600D01*
X0077000Y0392000D01*
X0078788Y0392000D01*
X0079741Y0390647D02*
X0083859Y0390647D01*
X0082260Y0389049D02*
X0081340Y0389049D01*
X0081600Y0387450D02*
X0082000Y0387450D01*
X0081600Y0386600D02*
X0077000Y0386600D01*
X0077000Y0382000D01*
X0078788Y0382000D01*
X0081600Y0384812D01*
X0081600Y0386600D01*
X0081600Y0385852D02*
X0082000Y0385852D01*
X0082559Y0384253D02*
X0081041Y0384253D01*
X0079443Y0382655D02*
X0084157Y0382655D01*
X0091041Y0384253D02*
X0092559Y0384253D01*
X0092000Y0385852D02*
X0091600Y0385852D01*
X0091600Y0387450D02*
X0092000Y0387450D01*
X0092260Y0389049D02*
X0091340Y0389049D01*
X0089741Y0390647D02*
X0093859Y0390647D01*
X0094566Y0392246D02*
X0089034Y0392246D01*
X0090632Y0393844D02*
X0092968Y0393844D01*
X0092000Y0395443D02*
X0091600Y0395443D01*
X0091600Y0397041D02*
X0092000Y0397041D01*
X0092000Y0398640D02*
X0091600Y0398640D01*
X0090150Y0400238D02*
X0093450Y0400238D01*
X0083450Y0400238D02*
X0080150Y0400238D01*
X0081600Y0398640D02*
X0082000Y0398640D01*
X0082000Y0397041D02*
X0081600Y0397041D01*
X0081600Y0395443D02*
X0082000Y0395443D01*
X0082968Y0393844D02*
X0080632Y0393844D01*
X0077000Y0393844D02*
X0076600Y0393844D01*
X0076600Y0392246D02*
X0077000Y0392246D01*
X0077000Y0390647D02*
X0076600Y0390647D01*
X0076600Y0389049D02*
X0077000Y0389049D01*
X0077000Y0387450D02*
X0076600Y0387450D01*
X0076600Y0385852D02*
X0077000Y0385852D01*
X0077000Y0384253D02*
X0076600Y0384253D01*
X0076600Y0382655D02*
X0077000Y0382655D01*
X0072968Y0393844D02*
X0070632Y0393844D01*
X0071600Y0395443D02*
X0072000Y0395443D01*
X0072000Y0397041D02*
X0071600Y0397041D01*
X0071600Y0398640D02*
X0072000Y0398640D01*
X0073450Y0400238D02*
X0070150Y0400238D01*
X0076600Y0395443D02*
X0077000Y0395443D01*
X0040800Y0395443D02*
X0017400Y0395443D01*
X0017400Y0397041D02*
X0021504Y0397041D01*
X0019264Y0398640D02*
X0017400Y0398640D01*
X0017400Y0400238D02*
X0017772Y0400238D01*
X0017400Y0393844D02*
X0040800Y0393844D01*
X0040800Y0397041D02*
X0032096Y0397041D01*
X0034336Y0398640D02*
X0040800Y0398640D01*
X0034268Y0392246D02*
X0017400Y0392246D01*
X0017400Y0390647D02*
X0032162Y0390647D01*
X0031237Y0389049D02*
X0017400Y0389049D01*
X0017400Y0387450D02*
X0030800Y0387450D01*
X0030800Y0385852D02*
X0017400Y0385852D01*
X0017400Y0384253D02*
X0030800Y0384253D01*
X0030800Y0382655D02*
X0017400Y0382655D01*
X0017400Y0381056D02*
X0030800Y0381056D01*
X0030800Y0379458D02*
X0017400Y0379458D01*
X0017400Y0377859D02*
X0030800Y0377859D01*
X0030800Y0376261D02*
X0017400Y0376261D01*
X0017400Y0374662D02*
X0030800Y0374662D01*
X0030800Y0373064D02*
X0017400Y0373064D01*
X0017400Y0371465D02*
X0030800Y0371465D01*
X0030800Y0369867D02*
X0017400Y0369867D01*
X0017400Y0368268D02*
X0030800Y0368268D01*
X0030800Y0366670D02*
X0017400Y0366670D01*
X0017400Y0365071D02*
X0030800Y0365071D01*
X0030800Y0363472D02*
X0017400Y0363472D01*
X0017400Y0361874D02*
X0030800Y0361874D01*
X0030800Y0360275D02*
X0017400Y0360275D01*
X0017400Y0358677D02*
X0030800Y0358677D01*
X0030800Y0357078D02*
X0017400Y0357078D01*
X0017400Y0355480D02*
X0030800Y0355480D01*
X0030800Y0353881D02*
X0017400Y0353881D01*
X0017400Y0352283D02*
X0030800Y0352283D01*
X0030800Y0350684D02*
X0017400Y0350684D01*
X0017400Y0349086D02*
X0030800Y0349086D01*
X0030800Y0347487D02*
X0017400Y0347487D01*
X0017400Y0345889D02*
X0030800Y0345889D01*
X0030800Y0344290D02*
X0017400Y0344290D01*
X0017400Y0342692D02*
X0030800Y0342692D01*
X0030800Y0341093D02*
X0017400Y0341093D01*
X0017400Y0339495D02*
X0030800Y0339495D01*
X0030800Y0337896D02*
X0017400Y0337896D01*
X0017400Y0336298D02*
X0030800Y0336298D01*
X0030800Y0334699D02*
X0017400Y0334699D01*
X0017400Y0333101D02*
X0030800Y0333101D01*
X0030800Y0331502D02*
X0017400Y0331502D01*
X0017400Y0329904D02*
X0030800Y0329904D01*
X0068518Y0278751D02*
X0112486Y0278751D01*
X0113548Y0277153D02*
X0069347Y0277153D01*
X0070822Y0275554D02*
X0112778Y0275554D01*
X0112116Y0273956D02*
X0071484Y0273956D01*
X0071800Y0272357D02*
X0111800Y0272357D01*
X0111800Y0270759D02*
X0071800Y0270759D01*
X0071283Y0269160D02*
X0112317Y0269160D01*
X0113139Y0267562D02*
X0070461Y0267562D01*
X0070536Y0265963D02*
X0113064Y0265963D01*
X0112286Y0264365D02*
X0071314Y0264365D01*
X0071800Y0262766D02*
X0111800Y0262766D01*
X0111800Y0261168D02*
X0071800Y0261168D01*
X0071453Y0259569D02*
X0112147Y0259569D01*
X0112809Y0257971D02*
X0070791Y0257971D01*
X0069272Y0256372D02*
X0113473Y0256372D01*
X0227589Y0269160D02*
X0240800Y0269160D01*
X0276114Y0278751D02*
X0300417Y0278751D01*
X0301192Y0264365D02*
X0297232Y0264365D01*
X0278092Y0202023D02*
X0276800Y0202023D01*
X0276800Y0200424D02*
X0581200Y0200424D01*
X0581200Y0198826D02*
X0518914Y0198826D01*
X0521696Y0197227D02*
X0581200Y0197227D01*
X0581200Y0195629D02*
X0523116Y0195629D01*
X0523778Y0194030D02*
X0581200Y0194030D01*
X0581200Y0192432D02*
X0524100Y0192432D01*
X0524100Y0190833D02*
X0581200Y0190833D01*
X0581200Y0189235D02*
X0524100Y0189235D01*
X0524100Y0187636D02*
X0581200Y0187636D01*
X0581200Y0186038D02*
X0524100Y0186038D01*
X0524100Y0184439D02*
X0581200Y0184439D01*
X0581200Y0182841D02*
X0524100Y0182841D01*
X0524100Y0181242D02*
X0581200Y0181242D01*
X0581200Y0179644D02*
X0524100Y0179644D01*
X0524100Y0178045D02*
X0581200Y0178045D01*
X0581200Y0176447D02*
X0524100Y0176447D01*
X0524100Y0174848D02*
X0581200Y0174848D01*
X0581200Y0173250D02*
X0524100Y0173250D01*
X0524100Y0171651D02*
X0581200Y0171651D01*
X0581200Y0170053D02*
X0524100Y0170053D01*
X0524100Y0168454D02*
X0581200Y0168454D01*
X0581200Y0166856D02*
X0524100Y0166856D01*
X0524100Y0165257D02*
X0581200Y0165257D01*
X0581200Y0163659D02*
X0524100Y0163659D01*
X0524100Y0162060D02*
X0581200Y0162060D01*
X0581200Y0160462D02*
X0524100Y0160462D01*
X0524100Y0158863D02*
X0581200Y0158863D01*
X0581200Y0157265D02*
X0524295Y0157265D01*
X0524639Y0155666D02*
X0581200Y0155666D01*
X0581200Y0154068D02*
X0524639Y0154068D01*
X0524639Y0152469D02*
X0581200Y0152469D01*
X0581200Y0150870D02*
X0524639Y0150870D01*
X0524639Y0149272D02*
X0581200Y0149272D01*
X0581200Y0147673D02*
X0524639Y0147673D01*
X0524187Y0146075D02*
X0581200Y0146075D01*
X0581200Y0144476D02*
X0522678Y0144476D01*
X0510922Y0144476D02*
X0454240Y0144476D01*
X0453332Y0144100D02*
X0456162Y0145272D01*
X0458328Y0147438D01*
X0459500Y0150268D01*
X0459500Y0153332D01*
X0458328Y0156162D01*
X0456162Y0158328D01*
X0453332Y0159500D01*
X0450268Y0159500D01*
X0447438Y0158328D01*
X0446800Y0157689D01*
X0446162Y0158328D01*
X0443332Y0159500D01*
X0440268Y0159500D01*
X0437438Y0158328D01*
X0436800Y0157689D01*
X0436162Y0158328D01*
X0433332Y0159500D01*
X0430268Y0159500D01*
X0427438Y0158328D01*
X0426800Y0157689D01*
X0426162Y0158328D01*
X0423332Y0159500D01*
X0420268Y0159500D01*
X0417438Y0158328D01*
X0416800Y0157689D01*
X0416162Y0158328D01*
X0413332Y0159500D01*
X0410268Y0159500D01*
X0407438Y0158328D01*
X0405272Y0156162D01*
X0405245Y0156096D01*
X0404683Y0156504D01*
X0403911Y0156897D01*
X0403088Y0157165D01*
X0402233Y0157300D01*
X0402000Y0157300D01*
X0402000Y0152000D01*
X0401600Y0152000D01*
X0401600Y0157300D01*
X0401367Y0157300D01*
X0400512Y0157165D01*
X0399689Y0156897D01*
X0398917Y0156504D01*
X0398355Y0156096D01*
X0398328Y0156162D01*
X0396162Y0158328D01*
X0393332Y0159500D01*
X0390268Y0159500D01*
X0387438Y0158328D01*
X0386800Y0157689D01*
X0386162Y0158328D01*
X0383332Y0159500D01*
X0380268Y0159500D01*
X0377438Y0158328D01*
X0375272Y0156162D01*
X0374100Y0153332D01*
X0374100Y0150268D01*
X0375272Y0147438D01*
X0377438Y0145272D01*
X0380268Y0144100D01*
X0383332Y0144100D01*
X0386162Y0145272D01*
X0386800Y0145911D01*
X0387438Y0145272D01*
X0390268Y0144100D01*
X0393332Y0144100D01*
X0396162Y0145272D01*
X0398328Y0147438D01*
X0398355Y0147504D01*
X0398917Y0147096D01*
X0399689Y0146703D01*
X0400512Y0146435D01*
X0401367Y0146300D01*
X0401600Y0146300D01*
X0401600Y0151600D01*
X0402000Y0151600D01*
X0402000Y0146300D01*
X0402233Y0146300D01*
X0403088Y0146435D01*
X0403911Y0146703D01*
X0404683Y0147096D01*
X0405245Y0147504D01*
X0405272Y0147438D01*
X0407438Y0145272D01*
X0410268Y0144100D01*
X0413332Y0144100D01*
X0416162Y0145272D01*
X0416800Y0145911D01*
X0417438Y0145272D01*
X0420268Y0144100D01*
X0423332Y0144100D01*
X0426162Y0145272D01*
X0426800Y0145911D01*
X0427438Y0145272D01*
X0430268Y0144100D01*
X0433332Y0144100D01*
X0436162Y0145272D01*
X0436800Y0145911D01*
X0437438Y0145272D01*
X0440268Y0144100D01*
X0443332Y0144100D01*
X0446162Y0145272D01*
X0446800Y0145911D01*
X0447438Y0145272D01*
X0450268Y0144100D01*
X0453332Y0144100D01*
X0449360Y0144476D02*
X0444240Y0144476D01*
X0439360Y0144476D02*
X0434240Y0144476D01*
X0429360Y0144476D02*
X0424240Y0144476D01*
X0419360Y0144476D02*
X0414240Y0144476D01*
X0409360Y0144476D02*
X0394240Y0144476D01*
X0396964Y0146075D02*
X0406636Y0146075D01*
X0402000Y0147673D02*
X0401600Y0147673D01*
X0401600Y0149272D02*
X0402000Y0149272D01*
X0402000Y0150870D02*
X0401600Y0150870D01*
X0401600Y0152469D02*
X0402000Y0152469D01*
X0402000Y0154068D02*
X0401600Y0154068D01*
X0401600Y0155666D02*
X0402000Y0155666D01*
X0402000Y0157265D02*
X0401600Y0157265D01*
X0401143Y0157265D02*
X0397225Y0157265D01*
X0394869Y0158863D02*
X0408731Y0158863D01*
X0406375Y0157265D02*
X0402457Y0157265D01*
X0414869Y0158863D02*
X0418731Y0158863D01*
X0424869Y0158863D02*
X0428731Y0158863D01*
X0434869Y0158863D02*
X0438731Y0158863D01*
X0444869Y0158863D02*
X0448731Y0158863D01*
X0454869Y0158863D02*
X0509500Y0158863D01*
X0509500Y0160462D02*
X0287800Y0160462D01*
X0287800Y0162060D02*
X0509500Y0162060D01*
X0509500Y0163659D02*
X0287800Y0163659D01*
X0287800Y0165257D02*
X0509500Y0165257D01*
X0509500Y0166856D02*
X0287800Y0166856D01*
X0287609Y0168454D02*
X0509500Y0168454D01*
X0509500Y0170053D02*
X0286947Y0170053D01*
X0285434Y0171651D02*
X0509500Y0171651D01*
X0509500Y0173250D02*
X0232800Y0173250D01*
X0232800Y0174848D02*
X0509500Y0174848D01*
X0509500Y0176447D02*
X0232800Y0176447D01*
X0232800Y0178045D02*
X0260802Y0178045D01*
X0260673Y0178139D02*
X0261284Y0177695D01*
X0261957Y0177352D01*
X0262676Y0177118D01*
X0263422Y0177000D01*
X0266600Y0177000D01*
X0266600Y0181600D01*
X0259000Y0181600D01*
X0259000Y0181422D01*
X0259118Y0180676D01*
X0259352Y0179957D01*
X0259695Y0179284D01*
X0260139Y0178673D01*
X0260673Y0178139D01*
X0259512Y0179644D02*
X0232800Y0179644D01*
X0232800Y0181242D02*
X0259029Y0181242D01*
X0259105Y0182841D02*
X0232800Y0182841D01*
X0232800Y0184439D02*
X0259784Y0184439D01*
X0259663Y0186038D02*
X0234171Y0186038D01*
X0234639Y0187636D02*
X0258064Y0187636D01*
X0257286Y0189235D02*
X0234639Y0189235D01*
X0234639Y0190833D02*
X0256800Y0190833D01*
X0256800Y0192432D02*
X0234639Y0192432D01*
X0234639Y0194030D02*
X0257147Y0194030D01*
X0257809Y0195629D02*
X0234639Y0195629D01*
X0266600Y0181242D02*
X0267000Y0181242D01*
X0267000Y0181600D02*
X0267000Y0177000D01*
X0270178Y0177000D01*
X0270924Y0177118D01*
X0271643Y0177352D01*
X0272316Y0177695D01*
X0272927Y0178139D01*
X0273461Y0178673D01*
X0273905Y0179284D01*
X0274248Y0179957D01*
X0274482Y0180676D01*
X0274600Y0181422D01*
X0274600Y0181600D01*
X0267000Y0181600D01*
X0267000Y0179644D02*
X0266600Y0179644D01*
X0266600Y0178045D02*
X0267000Y0178045D01*
X0272798Y0178045D02*
X0509500Y0178045D01*
X0509500Y0179644D02*
X0274088Y0179644D01*
X0274571Y0181242D02*
X0509500Y0181242D01*
X0509500Y0182841D02*
X0274495Y0182841D01*
X0273816Y0184439D02*
X0509500Y0184439D01*
X0509305Y0157265D02*
X0457225Y0157265D01*
X0458533Y0155666D02*
X0508961Y0155666D01*
X0508961Y0154068D02*
X0459195Y0154068D01*
X0459500Y0152469D02*
X0508961Y0152469D01*
X0508961Y0150870D02*
X0459500Y0150870D01*
X0459087Y0149272D02*
X0508961Y0149272D01*
X0508961Y0147673D02*
X0458425Y0147673D01*
X0456964Y0146075D02*
X0509413Y0146075D01*
X0549800Y0131192D02*
X0549800Y0122408D01*
X0550866Y0119835D01*
X0552835Y0117866D01*
X0555408Y0116800D01*
X0558192Y0116800D01*
X0560765Y0117866D01*
X0561800Y0118901D01*
X0562835Y0117866D01*
X0565408Y0116800D01*
X0568192Y0116800D01*
X0570765Y0117866D01*
X0572734Y0119835D01*
X0573800Y0122408D01*
X0573800Y0131192D01*
X0572734Y0133765D01*
X0570765Y0135734D01*
X0568192Y0136800D01*
X0565408Y0136800D01*
X0562835Y0135734D01*
X0561800Y0134699D01*
X0560765Y0135734D01*
X0558192Y0136800D01*
X0555408Y0136800D01*
X0552835Y0135734D01*
X0550866Y0133765D01*
X0549800Y0131192D01*
X0550005Y0131688D02*
X0287800Y0131688D01*
X0287800Y0130090D02*
X0549800Y0130090D01*
X0549800Y0128491D02*
X0287800Y0128491D01*
X0287800Y0126893D02*
X0549800Y0126893D01*
X0549800Y0125294D02*
X0366205Y0125294D01*
X0367763Y0123696D02*
X0549800Y0123696D01*
X0549929Y0122097D02*
X0368425Y0122097D01*
X0368800Y0120499D02*
X0550591Y0120499D01*
X0551800Y0118900D02*
X0368800Y0118900D01*
X0368800Y0117302D02*
X0554196Y0117302D01*
X0559404Y0117302D02*
X0564196Y0117302D01*
X0561800Y0118900D02*
X0561800Y0118900D01*
X0569404Y0117302D02*
X0581200Y0117302D01*
X0581200Y0118900D02*
X0571800Y0118900D01*
X0573009Y0120499D02*
X0581200Y0120499D01*
X0581200Y0122097D02*
X0573671Y0122097D01*
X0573800Y0123696D02*
X0581200Y0123696D01*
X0581200Y0125294D02*
X0573800Y0125294D01*
X0573800Y0126893D02*
X0581200Y0126893D01*
X0581200Y0128491D02*
X0573800Y0128491D01*
X0573800Y0130090D02*
X0581200Y0130090D01*
X0581200Y0131688D02*
X0573595Y0131688D01*
X0572932Y0133287D02*
X0581200Y0133287D01*
X0581200Y0134885D02*
X0571614Y0134885D01*
X0568956Y0136484D02*
X0581200Y0136484D01*
X0581200Y0138082D02*
X0287800Y0138082D01*
X0287800Y0136484D02*
X0554644Y0136484D01*
X0551986Y0134885D02*
X0287800Y0134885D01*
X0287800Y0133287D02*
X0550668Y0133287D01*
X0558956Y0136484D02*
X0564644Y0136484D01*
X0561986Y0134885D02*
X0561614Y0134885D01*
X0581200Y0139681D02*
X0287800Y0139681D01*
X0287800Y0141279D02*
X0581200Y0141279D01*
X0581200Y0142878D02*
X0287800Y0142878D01*
X0287800Y0144476D02*
X0289360Y0144476D01*
X0294240Y0144476D02*
X0299360Y0144476D01*
X0304240Y0144476D02*
X0309360Y0144476D01*
X0314240Y0144476D02*
X0319360Y0144476D01*
X0324240Y0144476D02*
X0329360Y0144476D01*
X0334240Y0144476D02*
X0339360Y0144476D01*
X0344240Y0144476D02*
X0349360Y0144476D01*
X0354240Y0144476D02*
X0359360Y0144476D01*
X0364240Y0144476D02*
X0379360Y0144476D01*
X0376636Y0146075D02*
X0366964Y0146075D01*
X0368425Y0147673D02*
X0375175Y0147673D01*
X0374513Y0149272D02*
X0369087Y0149272D01*
X0369500Y0150870D02*
X0374100Y0150870D01*
X0374100Y0152469D02*
X0369500Y0152469D01*
X0369195Y0154068D02*
X0374405Y0154068D01*
X0375067Y0155666D02*
X0368533Y0155666D01*
X0367225Y0157265D02*
X0376375Y0157265D01*
X0378731Y0158863D02*
X0364869Y0158863D01*
X0358731Y0158863D02*
X0354869Y0158863D01*
X0348731Y0158863D02*
X0344869Y0158863D01*
X0338731Y0158863D02*
X0334869Y0158863D01*
X0328731Y0158863D02*
X0324869Y0158863D01*
X0318731Y0158863D02*
X0314869Y0158863D01*
X0308731Y0158863D02*
X0304869Y0158863D01*
X0298731Y0158863D02*
X0294869Y0158863D01*
X0288731Y0158863D02*
X0287800Y0158863D01*
X0287800Y0125294D02*
X0307395Y0125294D01*
X0305837Y0123696D02*
X0287800Y0123696D01*
X0287800Y0122097D02*
X0305175Y0122097D01*
X0304800Y0120499D02*
X0287800Y0120499D01*
X0287800Y0118900D02*
X0304800Y0118900D01*
X0304800Y0117302D02*
X0287800Y0117302D01*
X0287800Y0115703D02*
X0304800Y0115703D01*
X0304800Y0114105D02*
X0287800Y0114105D01*
X0287800Y0112506D02*
X0304800Y0112506D01*
X0305421Y0110908D02*
X0287800Y0110908D01*
X0287800Y0109309D02*
X0306391Y0109309D01*
X0308209Y0107711D02*
X0287800Y0107711D01*
X0315391Y0107711D02*
X0318209Y0107711D01*
X0325391Y0107711D02*
X0328209Y0107711D01*
X0335391Y0107711D02*
X0338209Y0107711D01*
X0345391Y0107711D02*
X0348209Y0107711D01*
X0355391Y0107711D02*
X0358209Y0107711D01*
X0368800Y0114105D02*
X0581200Y0114105D01*
X0581200Y0115703D02*
X0368800Y0115703D01*
X0357395Y0125294D02*
X0356205Y0125294D01*
X0347395Y0125294D02*
X0346205Y0125294D01*
X0337395Y0125294D02*
X0336205Y0125294D01*
X0327395Y0125294D02*
X0326205Y0125294D01*
X0317395Y0125294D02*
X0316205Y0125294D01*
X0384240Y0144476D02*
X0389360Y0144476D01*
X0388731Y0158863D02*
X0384869Y0158863D01*
X0461625Y0091726D02*
X0461975Y0091726D01*
X0463573Y0090127D02*
X0460027Y0090127D01*
X0470027Y0090127D02*
X0473573Y0090127D01*
X0471975Y0091726D02*
X0471625Y0091726D01*
X0480027Y0090127D02*
X0483573Y0090127D01*
X0481975Y0091726D02*
X0481625Y0091726D01*
X0490027Y0090127D02*
X0493573Y0090127D01*
X0491975Y0091726D02*
X0491625Y0091726D01*
X0500027Y0090127D02*
X0503573Y0090127D01*
X0501975Y0091726D02*
X0501625Y0091726D01*
X0510027Y0090127D02*
X0513573Y0090127D01*
X0511975Y0091726D02*
X0511625Y0091726D01*
X0520027Y0090127D02*
X0523573Y0090127D01*
X0521975Y0091726D02*
X0521625Y0091726D01*
X0509331Y0061354D02*
X0504269Y0061354D01*
X0506744Y0059755D02*
X0506856Y0059755D01*
X0499331Y0061354D02*
X0494269Y0061354D01*
X0496744Y0059755D02*
X0496856Y0059755D01*
X0489331Y0061354D02*
X0484269Y0061354D01*
X0486744Y0059755D02*
X0486856Y0059755D01*
X0479331Y0061354D02*
X0474269Y0061354D01*
X0476744Y0059755D02*
X0476856Y0059755D01*
X0516670Y0043770D02*
X0532548Y0043770D01*
X0534146Y0045369D02*
X0517955Y0045369D01*
X0493187Y0336298D02*
X0581200Y0336298D01*
X0581200Y0337896D02*
X0494517Y0337896D01*
X0495180Y0339495D02*
X0581200Y0339495D01*
X0581200Y0341093D02*
X0495500Y0341093D01*
X0495500Y0342692D02*
X0581200Y0342692D01*
X0581200Y0344290D02*
X0495103Y0344290D01*
X0494441Y0345889D02*
X0581200Y0345889D01*
X0581200Y0347487D02*
X0493002Y0347487D01*
X0490331Y0349086D02*
X0511865Y0349086D01*
X0521735Y0349086D02*
X0581200Y0349086D01*
X0581200Y0350684D02*
X0524018Y0350684D01*
X0524639Y0352283D02*
X0581200Y0352283D01*
X0581200Y0353881D02*
X0524639Y0353881D01*
X0524639Y0355480D02*
X0581200Y0355480D01*
X0581200Y0357078D02*
X0524639Y0357078D01*
X0524639Y0358677D02*
X0581200Y0358677D01*
X0581200Y0360275D02*
X0524639Y0360275D01*
X0524456Y0361874D02*
X0581200Y0361874D01*
X0581200Y0363472D02*
X0523462Y0363472D01*
X0485269Y0349086D02*
X0480331Y0349086D01*
X0475269Y0349086D02*
X0470331Y0349086D01*
X0465269Y0349086D02*
X0460331Y0349086D01*
X0455269Y0349086D02*
X0450331Y0349086D01*
X0445269Y0349086D02*
X0440331Y0349086D01*
X0435269Y0349086D02*
X0430331Y0349086D01*
X0425269Y0349086D02*
X0420331Y0349086D01*
X0415269Y0349086D02*
X0410331Y0349086D01*
X0405269Y0349086D02*
X0400331Y0349086D01*
X0398838Y0387450D02*
X0394762Y0387450D01*
X0388838Y0387450D02*
X0384762Y0387450D01*
X0378838Y0387450D02*
X0374762Y0387450D01*
X0368838Y0387450D02*
X0364762Y0387450D01*
X0358838Y0387450D02*
X0354762Y0387450D01*
X0348838Y0387450D02*
X0344762Y0387450D01*
X0338838Y0387450D02*
X0334762Y0387450D01*
X0297800Y0384253D02*
X0581200Y0384253D01*
X0581200Y0382655D02*
X0297800Y0382655D01*
X0297800Y0381056D02*
X0581200Y0381056D01*
X0581200Y0379458D02*
X0297800Y0379458D01*
X0297800Y0377859D02*
X0581200Y0377859D01*
X0581200Y0376261D02*
X0297800Y0376261D01*
X0297800Y0374662D02*
X0581200Y0374662D01*
X0581200Y0373064D02*
X0297800Y0373064D01*
X0297800Y0371465D02*
X0581200Y0371465D01*
X0581200Y0369867D02*
X0297493Y0369867D01*
X0296753Y0368268D02*
X0581200Y0368268D01*
X0581200Y0366670D02*
X0295093Y0366670D01*
X0288405Y0365071D02*
X0581200Y0365071D01*
X0581200Y0398640D02*
X0579336Y0398640D01*
X0580828Y0400238D02*
X0581200Y0400238D01*
X0563928Y0414625D02*
X0034672Y0414625D01*
X0404762Y0387450D02*
X0408838Y0387450D01*
X0414762Y0387450D02*
X0418838Y0387450D01*
X0424762Y0387450D02*
X0428838Y0387450D01*
D11*
X0565501Y0406800D02*
X0565503Y0406958D01*
X0565509Y0407116D01*
X0565519Y0407274D01*
X0565533Y0407432D01*
X0565551Y0407589D01*
X0565572Y0407746D01*
X0565598Y0407902D01*
X0565628Y0408058D01*
X0565661Y0408213D01*
X0565699Y0408366D01*
X0565740Y0408519D01*
X0565785Y0408671D01*
X0565834Y0408822D01*
X0565887Y0408971D01*
X0565943Y0409119D01*
X0566003Y0409265D01*
X0566067Y0409410D01*
X0566135Y0409553D01*
X0566206Y0409695D01*
X0566280Y0409835D01*
X0566358Y0409972D01*
X0566440Y0410108D01*
X0566524Y0410242D01*
X0566613Y0410373D01*
X0566704Y0410502D01*
X0566799Y0410629D01*
X0566896Y0410754D01*
X0566997Y0410876D01*
X0567101Y0410995D01*
X0567208Y0411112D01*
X0567318Y0411226D01*
X0567431Y0411337D01*
X0567546Y0411446D01*
X0567664Y0411551D01*
X0567785Y0411653D01*
X0567908Y0411753D01*
X0568034Y0411849D01*
X0568162Y0411942D01*
X0568292Y0412032D01*
X0568425Y0412118D01*
X0568560Y0412202D01*
X0568696Y0412281D01*
X0568835Y0412358D01*
X0568976Y0412430D01*
X0569118Y0412500D01*
X0569262Y0412565D01*
X0569408Y0412627D01*
X0569555Y0412685D01*
X0569704Y0412740D01*
X0569854Y0412791D01*
X0570005Y0412838D01*
X0570157Y0412881D01*
X0570310Y0412920D01*
X0570465Y0412956D01*
X0570620Y0412987D01*
X0570776Y0413015D01*
X0570932Y0413039D01*
X0571089Y0413059D01*
X0571247Y0413075D01*
X0571404Y0413087D01*
X0571563Y0413095D01*
X0571721Y0413099D01*
X0571879Y0413099D01*
X0572037Y0413095D01*
X0572196Y0413087D01*
X0572353Y0413075D01*
X0572511Y0413059D01*
X0572668Y0413039D01*
X0572824Y0413015D01*
X0572980Y0412987D01*
X0573135Y0412956D01*
X0573290Y0412920D01*
X0573443Y0412881D01*
X0573595Y0412838D01*
X0573746Y0412791D01*
X0573896Y0412740D01*
X0574045Y0412685D01*
X0574192Y0412627D01*
X0574338Y0412565D01*
X0574482Y0412500D01*
X0574624Y0412430D01*
X0574765Y0412358D01*
X0574904Y0412281D01*
X0575040Y0412202D01*
X0575175Y0412118D01*
X0575308Y0412032D01*
X0575438Y0411942D01*
X0575566Y0411849D01*
X0575692Y0411753D01*
X0575815Y0411653D01*
X0575936Y0411551D01*
X0576054Y0411446D01*
X0576169Y0411337D01*
X0576282Y0411226D01*
X0576392Y0411112D01*
X0576499Y0410995D01*
X0576603Y0410876D01*
X0576704Y0410754D01*
X0576801Y0410629D01*
X0576896Y0410502D01*
X0576987Y0410373D01*
X0577076Y0410242D01*
X0577160Y0410108D01*
X0577242Y0409972D01*
X0577320Y0409835D01*
X0577394Y0409695D01*
X0577465Y0409553D01*
X0577533Y0409410D01*
X0577597Y0409265D01*
X0577657Y0409119D01*
X0577713Y0408971D01*
X0577766Y0408822D01*
X0577815Y0408671D01*
X0577860Y0408519D01*
X0577901Y0408366D01*
X0577939Y0408213D01*
X0577972Y0408058D01*
X0578002Y0407902D01*
X0578028Y0407746D01*
X0578049Y0407589D01*
X0578067Y0407432D01*
X0578081Y0407274D01*
X0578091Y0407116D01*
X0578097Y0406958D01*
X0578099Y0406800D01*
X0578097Y0406642D01*
X0578091Y0406484D01*
X0578081Y0406326D01*
X0578067Y0406168D01*
X0578049Y0406011D01*
X0578028Y0405854D01*
X0578002Y0405698D01*
X0577972Y0405542D01*
X0577939Y0405387D01*
X0577901Y0405234D01*
X0577860Y0405081D01*
X0577815Y0404929D01*
X0577766Y0404778D01*
X0577713Y0404629D01*
X0577657Y0404481D01*
X0577597Y0404335D01*
X0577533Y0404190D01*
X0577465Y0404047D01*
X0577394Y0403905D01*
X0577320Y0403765D01*
X0577242Y0403628D01*
X0577160Y0403492D01*
X0577076Y0403358D01*
X0576987Y0403227D01*
X0576896Y0403098D01*
X0576801Y0402971D01*
X0576704Y0402846D01*
X0576603Y0402724D01*
X0576499Y0402605D01*
X0576392Y0402488D01*
X0576282Y0402374D01*
X0576169Y0402263D01*
X0576054Y0402154D01*
X0575936Y0402049D01*
X0575815Y0401947D01*
X0575692Y0401847D01*
X0575566Y0401751D01*
X0575438Y0401658D01*
X0575308Y0401568D01*
X0575175Y0401482D01*
X0575040Y0401398D01*
X0574904Y0401319D01*
X0574765Y0401242D01*
X0574624Y0401170D01*
X0574482Y0401100D01*
X0574338Y0401035D01*
X0574192Y0400973D01*
X0574045Y0400915D01*
X0573896Y0400860D01*
X0573746Y0400809D01*
X0573595Y0400762D01*
X0573443Y0400719D01*
X0573290Y0400680D01*
X0573135Y0400644D01*
X0572980Y0400613D01*
X0572824Y0400585D01*
X0572668Y0400561D01*
X0572511Y0400541D01*
X0572353Y0400525D01*
X0572196Y0400513D01*
X0572037Y0400505D01*
X0571879Y0400501D01*
X0571721Y0400501D01*
X0571563Y0400505D01*
X0571404Y0400513D01*
X0571247Y0400525D01*
X0571089Y0400541D01*
X0570932Y0400561D01*
X0570776Y0400585D01*
X0570620Y0400613D01*
X0570465Y0400644D01*
X0570310Y0400680D01*
X0570157Y0400719D01*
X0570005Y0400762D01*
X0569854Y0400809D01*
X0569704Y0400860D01*
X0569555Y0400915D01*
X0569408Y0400973D01*
X0569262Y0401035D01*
X0569118Y0401100D01*
X0568976Y0401170D01*
X0568835Y0401242D01*
X0568696Y0401319D01*
X0568560Y0401398D01*
X0568425Y0401482D01*
X0568292Y0401568D01*
X0568162Y0401658D01*
X0568034Y0401751D01*
X0567908Y0401847D01*
X0567785Y0401947D01*
X0567664Y0402049D01*
X0567546Y0402154D01*
X0567431Y0402263D01*
X0567318Y0402374D01*
X0567208Y0402488D01*
X0567101Y0402605D01*
X0566997Y0402724D01*
X0566896Y0402846D01*
X0566799Y0402971D01*
X0566704Y0403098D01*
X0566613Y0403227D01*
X0566524Y0403358D01*
X0566440Y0403492D01*
X0566358Y0403628D01*
X0566280Y0403765D01*
X0566206Y0403905D01*
X0566135Y0404047D01*
X0566067Y0404190D01*
X0566003Y0404335D01*
X0565943Y0404481D01*
X0565887Y0404629D01*
X0565834Y0404778D01*
X0565785Y0404929D01*
X0565740Y0405081D01*
X0565699Y0405234D01*
X0565661Y0405387D01*
X0565628Y0405542D01*
X0565598Y0405698D01*
X0565572Y0405854D01*
X0565551Y0406011D01*
X0565533Y0406168D01*
X0565519Y0406326D01*
X0565509Y0406484D01*
X0565503Y0406642D01*
X0565501Y0406800D01*
X0565501Y0026800D02*
X0565503Y0026958D01*
X0565509Y0027116D01*
X0565519Y0027274D01*
X0565533Y0027432D01*
X0565551Y0027589D01*
X0565572Y0027746D01*
X0565598Y0027902D01*
X0565628Y0028058D01*
X0565661Y0028213D01*
X0565699Y0028366D01*
X0565740Y0028519D01*
X0565785Y0028671D01*
X0565834Y0028822D01*
X0565887Y0028971D01*
X0565943Y0029119D01*
X0566003Y0029265D01*
X0566067Y0029410D01*
X0566135Y0029553D01*
X0566206Y0029695D01*
X0566280Y0029835D01*
X0566358Y0029972D01*
X0566440Y0030108D01*
X0566524Y0030242D01*
X0566613Y0030373D01*
X0566704Y0030502D01*
X0566799Y0030629D01*
X0566896Y0030754D01*
X0566997Y0030876D01*
X0567101Y0030995D01*
X0567208Y0031112D01*
X0567318Y0031226D01*
X0567431Y0031337D01*
X0567546Y0031446D01*
X0567664Y0031551D01*
X0567785Y0031653D01*
X0567908Y0031753D01*
X0568034Y0031849D01*
X0568162Y0031942D01*
X0568292Y0032032D01*
X0568425Y0032118D01*
X0568560Y0032202D01*
X0568696Y0032281D01*
X0568835Y0032358D01*
X0568976Y0032430D01*
X0569118Y0032500D01*
X0569262Y0032565D01*
X0569408Y0032627D01*
X0569555Y0032685D01*
X0569704Y0032740D01*
X0569854Y0032791D01*
X0570005Y0032838D01*
X0570157Y0032881D01*
X0570310Y0032920D01*
X0570465Y0032956D01*
X0570620Y0032987D01*
X0570776Y0033015D01*
X0570932Y0033039D01*
X0571089Y0033059D01*
X0571247Y0033075D01*
X0571404Y0033087D01*
X0571563Y0033095D01*
X0571721Y0033099D01*
X0571879Y0033099D01*
X0572037Y0033095D01*
X0572196Y0033087D01*
X0572353Y0033075D01*
X0572511Y0033059D01*
X0572668Y0033039D01*
X0572824Y0033015D01*
X0572980Y0032987D01*
X0573135Y0032956D01*
X0573290Y0032920D01*
X0573443Y0032881D01*
X0573595Y0032838D01*
X0573746Y0032791D01*
X0573896Y0032740D01*
X0574045Y0032685D01*
X0574192Y0032627D01*
X0574338Y0032565D01*
X0574482Y0032500D01*
X0574624Y0032430D01*
X0574765Y0032358D01*
X0574904Y0032281D01*
X0575040Y0032202D01*
X0575175Y0032118D01*
X0575308Y0032032D01*
X0575438Y0031942D01*
X0575566Y0031849D01*
X0575692Y0031753D01*
X0575815Y0031653D01*
X0575936Y0031551D01*
X0576054Y0031446D01*
X0576169Y0031337D01*
X0576282Y0031226D01*
X0576392Y0031112D01*
X0576499Y0030995D01*
X0576603Y0030876D01*
X0576704Y0030754D01*
X0576801Y0030629D01*
X0576896Y0030502D01*
X0576987Y0030373D01*
X0577076Y0030242D01*
X0577160Y0030108D01*
X0577242Y0029972D01*
X0577320Y0029835D01*
X0577394Y0029695D01*
X0577465Y0029553D01*
X0577533Y0029410D01*
X0577597Y0029265D01*
X0577657Y0029119D01*
X0577713Y0028971D01*
X0577766Y0028822D01*
X0577815Y0028671D01*
X0577860Y0028519D01*
X0577901Y0028366D01*
X0577939Y0028213D01*
X0577972Y0028058D01*
X0578002Y0027902D01*
X0578028Y0027746D01*
X0578049Y0027589D01*
X0578067Y0027432D01*
X0578081Y0027274D01*
X0578091Y0027116D01*
X0578097Y0026958D01*
X0578099Y0026800D01*
X0578097Y0026642D01*
X0578091Y0026484D01*
X0578081Y0026326D01*
X0578067Y0026168D01*
X0578049Y0026011D01*
X0578028Y0025854D01*
X0578002Y0025698D01*
X0577972Y0025542D01*
X0577939Y0025387D01*
X0577901Y0025234D01*
X0577860Y0025081D01*
X0577815Y0024929D01*
X0577766Y0024778D01*
X0577713Y0024629D01*
X0577657Y0024481D01*
X0577597Y0024335D01*
X0577533Y0024190D01*
X0577465Y0024047D01*
X0577394Y0023905D01*
X0577320Y0023765D01*
X0577242Y0023628D01*
X0577160Y0023492D01*
X0577076Y0023358D01*
X0576987Y0023227D01*
X0576896Y0023098D01*
X0576801Y0022971D01*
X0576704Y0022846D01*
X0576603Y0022724D01*
X0576499Y0022605D01*
X0576392Y0022488D01*
X0576282Y0022374D01*
X0576169Y0022263D01*
X0576054Y0022154D01*
X0575936Y0022049D01*
X0575815Y0021947D01*
X0575692Y0021847D01*
X0575566Y0021751D01*
X0575438Y0021658D01*
X0575308Y0021568D01*
X0575175Y0021482D01*
X0575040Y0021398D01*
X0574904Y0021319D01*
X0574765Y0021242D01*
X0574624Y0021170D01*
X0574482Y0021100D01*
X0574338Y0021035D01*
X0574192Y0020973D01*
X0574045Y0020915D01*
X0573896Y0020860D01*
X0573746Y0020809D01*
X0573595Y0020762D01*
X0573443Y0020719D01*
X0573290Y0020680D01*
X0573135Y0020644D01*
X0572980Y0020613D01*
X0572824Y0020585D01*
X0572668Y0020561D01*
X0572511Y0020541D01*
X0572353Y0020525D01*
X0572196Y0020513D01*
X0572037Y0020505D01*
X0571879Y0020501D01*
X0571721Y0020501D01*
X0571563Y0020505D01*
X0571404Y0020513D01*
X0571247Y0020525D01*
X0571089Y0020541D01*
X0570932Y0020561D01*
X0570776Y0020585D01*
X0570620Y0020613D01*
X0570465Y0020644D01*
X0570310Y0020680D01*
X0570157Y0020719D01*
X0570005Y0020762D01*
X0569854Y0020809D01*
X0569704Y0020860D01*
X0569555Y0020915D01*
X0569408Y0020973D01*
X0569262Y0021035D01*
X0569118Y0021100D01*
X0568976Y0021170D01*
X0568835Y0021242D01*
X0568696Y0021319D01*
X0568560Y0021398D01*
X0568425Y0021482D01*
X0568292Y0021568D01*
X0568162Y0021658D01*
X0568034Y0021751D01*
X0567908Y0021847D01*
X0567785Y0021947D01*
X0567664Y0022049D01*
X0567546Y0022154D01*
X0567431Y0022263D01*
X0567318Y0022374D01*
X0567208Y0022488D01*
X0567101Y0022605D01*
X0566997Y0022724D01*
X0566896Y0022846D01*
X0566799Y0022971D01*
X0566704Y0023098D01*
X0566613Y0023227D01*
X0566524Y0023358D01*
X0566440Y0023492D01*
X0566358Y0023628D01*
X0566280Y0023765D01*
X0566206Y0023905D01*
X0566135Y0024047D01*
X0566067Y0024190D01*
X0566003Y0024335D01*
X0565943Y0024481D01*
X0565887Y0024629D01*
X0565834Y0024778D01*
X0565785Y0024929D01*
X0565740Y0025081D01*
X0565699Y0025234D01*
X0565661Y0025387D01*
X0565628Y0025542D01*
X0565598Y0025698D01*
X0565572Y0025854D01*
X0565551Y0026011D01*
X0565533Y0026168D01*
X0565519Y0026326D01*
X0565509Y0026484D01*
X0565503Y0026642D01*
X0565501Y0026800D01*
X0020501Y0026800D02*
X0020503Y0026958D01*
X0020509Y0027116D01*
X0020519Y0027274D01*
X0020533Y0027432D01*
X0020551Y0027589D01*
X0020572Y0027746D01*
X0020598Y0027902D01*
X0020628Y0028058D01*
X0020661Y0028213D01*
X0020699Y0028366D01*
X0020740Y0028519D01*
X0020785Y0028671D01*
X0020834Y0028822D01*
X0020887Y0028971D01*
X0020943Y0029119D01*
X0021003Y0029265D01*
X0021067Y0029410D01*
X0021135Y0029553D01*
X0021206Y0029695D01*
X0021280Y0029835D01*
X0021358Y0029972D01*
X0021440Y0030108D01*
X0021524Y0030242D01*
X0021613Y0030373D01*
X0021704Y0030502D01*
X0021799Y0030629D01*
X0021896Y0030754D01*
X0021997Y0030876D01*
X0022101Y0030995D01*
X0022208Y0031112D01*
X0022318Y0031226D01*
X0022431Y0031337D01*
X0022546Y0031446D01*
X0022664Y0031551D01*
X0022785Y0031653D01*
X0022908Y0031753D01*
X0023034Y0031849D01*
X0023162Y0031942D01*
X0023292Y0032032D01*
X0023425Y0032118D01*
X0023560Y0032202D01*
X0023696Y0032281D01*
X0023835Y0032358D01*
X0023976Y0032430D01*
X0024118Y0032500D01*
X0024262Y0032565D01*
X0024408Y0032627D01*
X0024555Y0032685D01*
X0024704Y0032740D01*
X0024854Y0032791D01*
X0025005Y0032838D01*
X0025157Y0032881D01*
X0025310Y0032920D01*
X0025465Y0032956D01*
X0025620Y0032987D01*
X0025776Y0033015D01*
X0025932Y0033039D01*
X0026089Y0033059D01*
X0026247Y0033075D01*
X0026404Y0033087D01*
X0026563Y0033095D01*
X0026721Y0033099D01*
X0026879Y0033099D01*
X0027037Y0033095D01*
X0027196Y0033087D01*
X0027353Y0033075D01*
X0027511Y0033059D01*
X0027668Y0033039D01*
X0027824Y0033015D01*
X0027980Y0032987D01*
X0028135Y0032956D01*
X0028290Y0032920D01*
X0028443Y0032881D01*
X0028595Y0032838D01*
X0028746Y0032791D01*
X0028896Y0032740D01*
X0029045Y0032685D01*
X0029192Y0032627D01*
X0029338Y0032565D01*
X0029482Y0032500D01*
X0029624Y0032430D01*
X0029765Y0032358D01*
X0029904Y0032281D01*
X0030040Y0032202D01*
X0030175Y0032118D01*
X0030308Y0032032D01*
X0030438Y0031942D01*
X0030566Y0031849D01*
X0030692Y0031753D01*
X0030815Y0031653D01*
X0030936Y0031551D01*
X0031054Y0031446D01*
X0031169Y0031337D01*
X0031282Y0031226D01*
X0031392Y0031112D01*
X0031499Y0030995D01*
X0031603Y0030876D01*
X0031704Y0030754D01*
X0031801Y0030629D01*
X0031896Y0030502D01*
X0031987Y0030373D01*
X0032076Y0030242D01*
X0032160Y0030108D01*
X0032242Y0029972D01*
X0032320Y0029835D01*
X0032394Y0029695D01*
X0032465Y0029553D01*
X0032533Y0029410D01*
X0032597Y0029265D01*
X0032657Y0029119D01*
X0032713Y0028971D01*
X0032766Y0028822D01*
X0032815Y0028671D01*
X0032860Y0028519D01*
X0032901Y0028366D01*
X0032939Y0028213D01*
X0032972Y0028058D01*
X0033002Y0027902D01*
X0033028Y0027746D01*
X0033049Y0027589D01*
X0033067Y0027432D01*
X0033081Y0027274D01*
X0033091Y0027116D01*
X0033097Y0026958D01*
X0033099Y0026800D01*
X0033097Y0026642D01*
X0033091Y0026484D01*
X0033081Y0026326D01*
X0033067Y0026168D01*
X0033049Y0026011D01*
X0033028Y0025854D01*
X0033002Y0025698D01*
X0032972Y0025542D01*
X0032939Y0025387D01*
X0032901Y0025234D01*
X0032860Y0025081D01*
X0032815Y0024929D01*
X0032766Y0024778D01*
X0032713Y0024629D01*
X0032657Y0024481D01*
X0032597Y0024335D01*
X0032533Y0024190D01*
X0032465Y0024047D01*
X0032394Y0023905D01*
X0032320Y0023765D01*
X0032242Y0023628D01*
X0032160Y0023492D01*
X0032076Y0023358D01*
X0031987Y0023227D01*
X0031896Y0023098D01*
X0031801Y0022971D01*
X0031704Y0022846D01*
X0031603Y0022724D01*
X0031499Y0022605D01*
X0031392Y0022488D01*
X0031282Y0022374D01*
X0031169Y0022263D01*
X0031054Y0022154D01*
X0030936Y0022049D01*
X0030815Y0021947D01*
X0030692Y0021847D01*
X0030566Y0021751D01*
X0030438Y0021658D01*
X0030308Y0021568D01*
X0030175Y0021482D01*
X0030040Y0021398D01*
X0029904Y0021319D01*
X0029765Y0021242D01*
X0029624Y0021170D01*
X0029482Y0021100D01*
X0029338Y0021035D01*
X0029192Y0020973D01*
X0029045Y0020915D01*
X0028896Y0020860D01*
X0028746Y0020809D01*
X0028595Y0020762D01*
X0028443Y0020719D01*
X0028290Y0020680D01*
X0028135Y0020644D01*
X0027980Y0020613D01*
X0027824Y0020585D01*
X0027668Y0020561D01*
X0027511Y0020541D01*
X0027353Y0020525D01*
X0027196Y0020513D01*
X0027037Y0020505D01*
X0026879Y0020501D01*
X0026721Y0020501D01*
X0026563Y0020505D01*
X0026404Y0020513D01*
X0026247Y0020525D01*
X0026089Y0020541D01*
X0025932Y0020561D01*
X0025776Y0020585D01*
X0025620Y0020613D01*
X0025465Y0020644D01*
X0025310Y0020680D01*
X0025157Y0020719D01*
X0025005Y0020762D01*
X0024854Y0020809D01*
X0024704Y0020860D01*
X0024555Y0020915D01*
X0024408Y0020973D01*
X0024262Y0021035D01*
X0024118Y0021100D01*
X0023976Y0021170D01*
X0023835Y0021242D01*
X0023696Y0021319D01*
X0023560Y0021398D01*
X0023425Y0021482D01*
X0023292Y0021568D01*
X0023162Y0021658D01*
X0023034Y0021751D01*
X0022908Y0021847D01*
X0022785Y0021947D01*
X0022664Y0022049D01*
X0022546Y0022154D01*
X0022431Y0022263D01*
X0022318Y0022374D01*
X0022208Y0022488D01*
X0022101Y0022605D01*
X0021997Y0022724D01*
X0021896Y0022846D01*
X0021799Y0022971D01*
X0021704Y0023098D01*
X0021613Y0023227D01*
X0021524Y0023358D01*
X0021440Y0023492D01*
X0021358Y0023628D01*
X0021280Y0023765D01*
X0021206Y0023905D01*
X0021135Y0024047D01*
X0021067Y0024190D01*
X0021003Y0024335D01*
X0020943Y0024481D01*
X0020887Y0024629D01*
X0020834Y0024778D01*
X0020785Y0024929D01*
X0020740Y0025081D01*
X0020699Y0025234D01*
X0020661Y0025387D01*
X0020628Y0025542D01*
X0020598Y0025698D01*
X0020572Y0025854D01*
X0020551Y0026011D01*
X0020533Y0026168D01*
X0020519Y0026326D01*
X0020509Y0026484D01*
X0020503Y0026642D01*
X0020501Y0026800D01*
X0020501Y0406800D02*
X0020503Y0406958D01*
X0020509Y0407116D01*
X0020519Y0407274D01*
X0020533Y0407432D01*
X0020551Y0407589D01*
X0020572Y0407746D01*
X0020598Y0407902D01*
X0020628Y0408058D01*
X0020661Y0408213D01*
X0020699Y0408366D01*
X0020740Y0408519D01*
X0020785Y0408671D01*
X0020834Y0408822D01*
X0020887Y0408971D01*
X0020943Y0409119D01*
X0021003Y0409265D01*
X0021067Y0409410D01*
X0021135Y0409553D01*
X0021206Y0409695D01*
X0021280Y0409835D01*
X0021358Y0409972D01*
X0021440Y0410108D01*
X0021524Y0410242D01*
X0021613Y0410373D01*
X0021704Y0410502D01*
X0021799Y0410629D01*
X0021896Y0410754D01*
X0021997Y0410876D01*
X0022101Y0410995D01*
X0022208Y0411112D01*
X0022318Y0411226D01*
X0022431Y0411337D01*
X0022546Y0411446D01*
X0022664Y0411551D01*
X0022785Y0411653D01*
X0022908Y0411753D01*
X0023034Y0411849D01*
X0023162Y0411942D01*
X0023292Y0412032D01*
X0023425Y0412118D01*
X0023560Y0412202D01*
X0023696Y0412281D01*
X0023835Y0412358D01*
X0023976Y0412430D01*
X0024118Y0412500D01*
X0024262Y0412565D01*
X0024408Y0412627D01*
X0024555Y0412685D01*
X0024704Y0412740D01*
X0024854Y0412791D01*
X0025005Y0412838D01*
X0025157Y0412881D01*
X0025310Y0412920D01*
X0025465Y0412956D01*
X0025620Y0412987D01*
X0025776Y0413015D01*
X0025932Y0413039D01*
X0026089Y0413059D01*
X0026247Y0413075D01*
X0026404Y0413087D01*
X0026563Y0413095D01*
X0026721Y0413099D01*
X0026879Y0413099D01*
X0027037Y0413095D01*
X0027196Y0413087D01*
X0027353Y0413075D01*
X0027511Y0413059D01*
X0027668Y0413039D01*
X0027824Y0413015D01*
X0027980Y0412987D01*
X0028135Y0412956D01*
X0028290Y0412920D01*
X0028443Y0412881D01*
X0028595Y0412838D01*
X0028746Y0412791D01*
X0028896Y0412740D01*
X0029045Y0412685D01*
X0029192Y0412627D01*
X0029338Y0412565D01*
X0029482Y0412500D01*
X0029624Y0412430D01*
X0029765Y0412358D01*
X0029904Y0412281D01*
X0030040Y0412202D01*
X0030175Y0412118D01*
X0030308Y0412032D01*
X0030438Y0411942D01*
X0030566Y0411849D01*
X0030692Y0411753D01*
X0030815Y0411653D01*
X0030936Y0411551D01*
X0031054Y0411446D01*
X0031169Y0411337D01*
X0031282Y0411226D01*
X0031392Y0411112D01*
X0031499Y0410995D01*
X0031603Y0410876D01*
X0031704Y0410754D01*
X0031801Y0410629D01*
X0031896Y0410502D01*
X0031987Y0410373D01*
X0032076Y0410242D01*
X0032160Y0410108D01*
X0032242Y0409972D01*
X0032320Y0409835D01*
X0032394Y0409695D01*
X0032465Y0409553D01*
X0032533Y0409410D01*
X0032597Y0409265D01*
X0032657Y0409119D01*
X0032713Y0408971D01*
X0032766Y0408822D01*
X0032815Y0408671D01*
X0032860Y0408519D01*
X0032901Y0408366D01*
X0032939Y0408213D01*
X0032972Y0408058D01*
X0033002Y0407902D01*
X0033028Y0407746D01*
X0033049Y0407589D01*
X0033067Y0407432D01*
X0033081Y0407274D01*
X0033091Y0407116D01*
X0033097Y0406958D01*
X0033099Y0406800D01*
X0033097Y0406642D01*
X0033091Y0406484D01*
X0033081Y0406326D01*
X0033067Y0406168D01*
X0033049Y0406011D01*
X0033028Y0405854D01*
X0033002Y0405698D01*
X0032972Y0405542D01*
X0032939Y0405387D01*
X0032901Y0405234D01*
X0032860Y0405081D01*
X0032815Y0404929D01*
X0032766Y0404778D01*
X0032713Y0404629D01*
X0032657Y0404481D01*
X0032597Y0404335D01*
X0032533Y0404190D01*
X0032465Y0404047D01*
X0032394Y0403905D01*
X0032320Y0403765D01*
X0032242Y0403628D01*
X0032160Y0403492D01*
X0032076Y0403358D01*
X0031987Y0403227D01*
X0031896Y0403098D01*
X0031801Y0402971D01*
X0031704Y0402846D01*
X0031603Y0402724D01*
X0031499Y0402605D01*
X0031392Y0402488D01*
X0031282Y0402374D01*
X0031169Y0402263D01*
X0031054Y0402154D01*
X0030936Y0402049D01*
X0030815Y0401947D01*
X0030692Y0401847D01*
X0030566Y0401751D01*
X0030438Y0401658D01*
X0030308Y0401568D01*
X0030175Y0401482D01*
X0030040Y0401398D01*
X0029904Y0401319D01*
X0029765Y0401242D01*
X0029624Y0401170D01*
X0029482Y0401100D01*
X0029338Y0401035D01*
X0029192Y0400973D01*
X0029045Y0400915D01*
X0028896Y0400860D01*
X0028746Y0400809D01*
X0028595Y0400762D01*
X0028443Y0400719D01*
X0028290Y0400680D01*
X0028135Y0400644D01*
X0027980Y0400613D01*
X0027824Y0400585D01*
X0027668Y0400561D01*
X0027511Y0400541D01*
X0027353Y0400525D01*
X0027196Y0400513D01*
X0027037Y0400505D01*
X0026879Y0400501D01*
X0026721Y0400501D01*
X0026563Y0400505D01*
X0026404Y0400513D01*
X0026247Y0400525D01*
X0026089Y0400541D01*
X0025932Y0400561D01*
X0025776Y0400585D01*
X0025620Y0400613D01*
X0025465Y0400644D01*
X0025310Y0400680D01*
X0025157Y0400719D01*
X0025005Y0400762D01*
X0024854Y0400809D01*
X0024704Y0400860D01*
X0024555Y0400915D01*
X0024408Y0400973D01*
X0024262Y0401035D01*
X0024118Y0401100D01*
X0023976Y0401170D01*
X0023835Y0401242D01*
X0023696Y0401319D01*
X0023560Y0401398D01*
X0023425Y0401482D01*
X0023292Y0401568D01*
X0023162Y0401658D01*
X0023034Y0401751D01*
X0022908Y0401847D01*
X0022785Y0401947D01*
X0022664Y0402049D01*
X0022546Y0402154D01*
X0022431Y0402263D01*
X0022318Y0402374D01*
X0022208Y0402488D01*
X0022101Y0402605D01*
X0021997Y0402724D01*
X0021896Y0402846D01*
X0021799Y0402971D01*
X0021704Y0403098D01*
X0021613Y0403227D01*
X0021524Y0403358D01*
X0021440Y0403492D01*
X0021358Y0403628D01*
X0021280Y0403765D01*
X0021206Y0403905D01*
X0021135Y0404047D01*
X0021067Y0404190D01*
X0021003Y0404335D01*
X0020943Y0404481D01*
X0020887Y0404629D01*
X0020834Y0404778D01*
X0020785Y0404929D01*
X0020740Y0405081D01*
X0020699Y0405234D01*
X0020661Y0405387D01*
X0020628Y0405542D01*
X0020598Y0405698D01*
X0020572Y0405854D01*
X0020551Y0406011D01*
X0020533Y0406168D01*
X0020519Y0406326D01*
X0020509Y0406484D01*
X0020503Y0406642D01*
X0020501Y0406800D01*
D12*
X0058800Y0336800D02*
X0064800Y0336800D01*
X0064800Y0326800D02*
X0058800Y0326800D01*
X0058800Y0316800D02*
X0064800Y0316800D01*
X0064800Y0306800D02*
X0058800Y0306800D01*
X0058800Y0291800D02*
X0064800Y0291800D01*
X0064800Y0281800D02*
X0058800Y0281800D01*
X0058800Y0271800D02*
X0064800Y0271800D01*
X0064800Y0261800D02*
X0058800Y0261800D01*
X0118800Y0261800D02*
X0124800Y0261800D01*
X0124800Y0251800D02*
X0118800Y0251800D01*
X0118800Y0241800D02*
X0124800Y0241800D01*
X0124800Y0231800D02*
X0118800Y0231800D01*
X0118800Y0221800D02*
X0124800Y0221800D01*
X0124800Y0271800D02*
X0118800Y0271800D01*
X0118800Y0281800D02*
X0124800Y0281800D01*
X0124800Y0291800D02*
X0118800Y0291800D01*
X0118800Y0301800D02*
X0124800Y0301800D01*
X0124800Y0311800D02*
X0118800Y0311800D01*
X0118800Y0321800D02*
X0124800Y0321800D01*
X0124800Y0331800D02*
X0118800Y0331800D01*
X0211800Y0393800D02*
X0211800Y0399800D01*
X0221800Y0399800D02*
X0221800Y0393800D01*
X0231800Y0393800D02*
X0231800Y0399800D01*
X0241800Y0399800D02*
X0241800Y0393800D01*
X0251800Y0393800D02*
X0251800Y0399800D01*
X0261800Y0399800D02*
X0261800Y0393800D01*
X0271800Y0393800D02*
X0271800Y0399800D01*
X0281800Y0399800D02*
X0281800Y0393800D01*
X0331800Y0393800D02*
X0331800Y0399800D01*
X0341800Y0399800D02*
X0341800Y0393800D01*
X0351800Y0393800D02*
X0351800Y0399800D01*
X0361800Y0399800D02*
X0361800Y0393800D01*
X0371800Y0393800D02*
X0371800Y0399800D01*
X0381800Y0399800D02*
X0381800Y0393800D01*
X0391800Y0393800D02*
X0391800Y0399800D01*
X0401800Y0399800D02*
X0401800Y0393800D01*
X0411800Y0393800D02*
X0411800Y0399800D01*
X0421800Y0399800D02*
X0421800Y0393800D01*
X0431800Y0393800D02*
X0431800Y0399800D01*
X0269800Y0311800D02*
X0263800Y0311800D01*
X0263800Y0301800D02*
X0269800Y0301800D01*
X0269800Y0291800D02*
X0263800Y0291800D01*
X0263800Y0281800D02*
X0269800Y0281800D01*
X0269800Y0271800D02*
X0263800Y0271800D01*
X0263800Y0261800D02*
X0269800Y0261800D01*
X0269800Y0251800D02*
X0263800Y0251800D01*
X0263800Y0241800D02*
X0269800Y0241800D01*
X0269800Y0231800D02*
X0263800Y0231800D01*
X0263800Y0221800D02*
X0269800Y0221800D01*
X0269800Y0211800D02*
X0263800Y0211800D01*
X0263800Y0201800D02*
X0269800Y0201800D01*
X0269800Y0191800D02*
X0263800Y0191800D01*
X0263800Y0181800D02*
X0269800Y0181800D01*
X0311800Y0119800D02*
X0311800Y0113800D01*
X0321800Y0113800D02*
X0321800Y0119800D01*
X0331800Y0119800D02*
X0331800Y0113800D01*
X0341800Y0113800D02*
X0341800Y0119800D01*
X0351800Y0119800D02*
X0351800Y0113800D01*
X0361800Y0113800D02*
X0361800Y0119800D01*
X0391800Y0064800D02*
X0391800Y0058800D01*
X0401800Y0058800D02*
X0401800Y0064800D01*
X0411800Y0064800D02*
X0411800Y0058800D01*
X0421800Y0058800D02*
X0421800Y0064800D01*
X0431800Y0064800D02*
X0431800Y0058800D01*
X0441800Y0058800D02*
X0441800Y0064800D01*
X0471800Y0054800D02*
X0471800Y0048800D01*
X0481800Y0048800D02*
X0481800Y0054800D01*
X0491800Y0054800D02*
X0491800Y0048800D01*
X0501800Y0048800D02*
X0501800Y0054800D01*
X0511800Y0054800D02*
X0511800Y0048800D01*
X0556800Y0123800D02*
X0556800Y0129800D01*
X0566800Y0129800D02*
X0566800Y0123800D01*
X0121800Y0099800D02*
X0121800Y0093800D01*
X0111800Y0093800D02*
X0111800Y0099800D01*
X0101800Y0099800D02*
X0101800Y0093800D01*
X0071800Y0089800D02*
X0071800Y0083800D01*
X0061800Y0083800D02*
X0061800Y0089800D01*
X0036800Y0089800D02*
X0036800Y0083800D01*
X0026800Y0083800D02*
X0026800Y0089800D01*
X0061800Y0049800D02*
X0061800Y0043800D01*
X0071800Y0043800D02*
X0071800Y0049800D01*
X0071800Y0153800D02*
X0071800Y0159800D01*
X0081800Y0159800D02*
X0081800Y0153800D01*
D13*
X0076800Y0386800D03*
X0066800Y0386800D03*
X0066800Y0396800D03*
X0076800Y0396800D03*
X0086800Y0396800D03*
X0086800Y0386800D03*
X0096800Y0386800D03*
X0106800Y0386800D03*
X0106800Y0396800D03*
X0096800Y0396800D03*
X0116800Y0396800D03*
X0116800Y0386800D03*
X0126800Y0386800D03*
X0136800Y0386800D03*
X0136800Y0396800D03*
X0126800Y0396800D03*
X0146800Y0396800D03*
X0146800Y0386800D03*
X0156800Y0386800D03*
X0156800Y0396800D03*
X0456800Y0106800D03*
X0466800Y0106800D03*
X0466800Y0096800D03*
X0456800Y0096800D03*
X0476800Y0096800D03*
X0476800Y0106800D03*
X0486800Y0106800D03*
X0496800Y0106800D03*
X0496800Y0096800D03*
X0486800Y0096800D03*
X0506800Y0096800D03*
X0506800Y0106800D03*
X0516800Y0106800D03*
X0516800Y0096800D03*
X0526800Y0096800D03*
X0526800Y0106800D03*
D14*
X0536800Y0041800D03*
X0566800Y0041800D03*
X0081800Y0181800D03*
X0081800Y0211800D03*
D15*
X0181800Y0171800D03*
X0191800Y0171800D03*
X0201800Y0151800D03*
X0211800Y0151800D03*
X0221800Y0151800D03*
X0231800Y0151800D03*
X0241800Y0151800D03*
X0251800Y0151800D03*
X0261800Y0151800D03*
X0271800Y0151800D03*
X0291800Y0151800D03*
X0301800Y0151800D03*
X0311800Y0151800D03*
X0321800Y0151800D03*
X0331800Y0151800D03*
X0341800Y0151800D03*
X0351800Y0151800D03*
X0361800Y0151800D03*
X0381800Y0151800D03*
X0391800Y0151800D03*
X0401800Y0151800D03*
X0411800Y0151800D03*
X0421800Y0151800D03*
X0431800Y0151800D03*
X0441800Y0151800D03*
X0451800Y0151800D03*
X0447800Y0341800D03*
X0437800Y0341800D03*
X0427800Y0341800D03*
X0417800Y0341800D03*
X0407800Y0341800D03*
X0397800Y0341800D03*
X0381800Y0341800D03*
X0371800Y0341800D03*
X0361800Y0341800D03*
X0351800Y0341800D03*
X0341800Y0341800D03*
X0331800Y0341800D03*
X0321800Y0341800D03*
X0311800Y0341800D03*
X0291800Y0341800D03*
X0281800Y0341800D03*
X0271800Y0341800D03*
X0261800Y0341800D03*
X0251800Y0341800D03*
X0241800Y0341800D03*
X0231800Y0341800D03*
X0221800Y0341800D03*
X0191800Y0341800D03*
X0181800Y0341800D03*
X0457800Y0341800D03*
X0467800Y0341800D03*
X0477800Y0341800D03*
X0487800Y0341800D03*
D16*
X0191800Y0331800D03*
X0191800Y0321800D03*
X0181800Y0321800D03*
X0181800Y0331800D03*
X0181800Y0311800D03*
X0181800Y0301800D03*
X0181800Y0291800D03*
X0191800Y0291800D03*
X0191800Y0301800D03*
X0191800Y0311800D03*
X0191800Y0281800D03*
X0191800Y0271800D03*
X0191800Y0261800D03*
X0191800Y0251800D03*
X0181800Y0251800D03*
X0181800Y0261800D03*
X0181800Y0271800D03*
X0181800Y0281800D03*
X0181800Y0241800D03*
X0181800Y0231800D03*
X0181800Y0221800D03*
X0191800Y0221800D03*
X0191800Y0231800D03*
X0191800Y0241800D03*
X0191800Y0211800D03*
X0191800Y0201800D03*
X0191800Y0191800D03*
X0181800Y0191800D03*
X0181800Y0201800D03*
X0181800Y0211800D03*
X0181800Y0181800D03*
X0191800Y0181800D03*
D17*
X0211800Y0181800D02*
X0211800Y0161800D01*
X0191800Y0161800D01*
X0191800Y0051800D01*
X0151800Y0031800D02*
X0151800Y0181800D01*
X0136800Y0191800D02*
X0136800Y0041800D01*
X0151800Y0031800D02*
X0431800Y0031800D01*
X0401800Y0076800D02*
X0281800Y0076800D01*
X0281800Y0166800D01*
X0226800Y0166800D01*
X0226800Y0191800D01*
X0221800Y0201800D02*
X0266800Y0201800D01*
X0266800Y0211800D02*
X0221800Y0211800D01*
X0221800Y0221800D02*
X0266800Y0221800D01*
X0266800Y0231800D02*
X0221800Y0231800D01*
X0221800Y0241800D02*
X0266800Y0241800D01*
X0266800Y0251800D02*
X0281800Y0251800D01*
X0281800Y0206800D01*
X0401800Y0206800D01*
X0401800Y0266800D01*
X0487800Y0266800D01*
X0476800Y0276800D02*
X0391800Y0276800D01*
X0391800Y0216800D01*
X0291800Y0216800D01*
X0291800Y0261800D01*
X0266800Y0261800D01*
X0266800Y0271800D02*
X0306800Y0271800D01*
X0266800Y0281800D02*
X0256800Y0281800D01*
X0256800Y0251800D01*
X0221800Y0251800D01*
X0221800Y0261800D02*
X0246800Y0261800D01*
X0246800Y0291800D01*
X0266800Y0291800D01*
X0266800Y0311800D02*
X0221800Y0311800D01*
X0211800Y0371800D02*
X0046800Y0371800D01*
X0046800Y0316800D01*
X0061800Y0316800D01*
X0061800Y0306800D02*
X0036800Y0306800D01*
X0036800Y0386800D01*
X0046800Y0386800D01*
X0046800Y0406800D01*
X0291800Y0406800D01*
X0291800Y0371800D01*
X0281800Y0371800D01*
X0061800Y0271800D02*
X0046800Y0271800D01*
X0036800Y0261800D02*
X0036800Y0306800D01*
X0036800Y0261800D02*
X0061800Y0261800D01*
X0266800Y0181800D02*
X0291800Y0181800D01*
D18*
X0266800Y0191800D02*
X0516800Y0191800D01*
X0516800Y0151800D01*
X0266800Y0301800D02*
X0241800Y0301800D01*
X0101800Y0291800D02*
X0061800Y0291800D01*
X0101800Y0291800D02*
X0101800Y0336800D01*
X0101800Y0356800D01*
X0516800Y0356800D01*
X0101800Y0336800D02*
X0061800Y0336800D01*
X0056800Y0111800D02*
X0086800Y0111800D01*
X0071800Y0066800D02*
X0071800Y0046800D01*
X0061800Y0046800D02*
X0061800Y0066800D01*
D19*
X0061800Y0066800D03*
X0071800Y0066800D03*
X0056800Y0111800D03*
X0086800Y0111800D03*
X0136800Y0041800D03*
X0191800Y0051800D03*
X0211800Y0181800D03*
X0226800Y0191800D03*
X0221800Y0201800D03*
X0221800Y0211800D03*
X0221800Y0221800D03*
X0221800Y0231800D03*
X0221800Y0241800D03*
X0221800Y0251800D03*
X0221800Y0261800D03*
X0241800Y0301800D03*
X0221800Y0311800D03*
X0211800Y0371800D03*
X0281800Y0371800D03*
X0306800Y0271800D03*
X0291800Y0181800D03*
X0151800Y0181800D03*
X0136800Y0191800D03*
X0046800Y0271800D03*
X0046800Y0316800D03*
X0401800Y0076800D03*
X0431800Y0031800D03*
X0516800Y0151800D03*
X0487800Y0266800D03*
X0476800Y0276800D03*
X0516800Y0356800D03*
M02*
