G75*
%MOIN*%
%OFA0B0*%
%FSLAX25Y25*%
%IPPOS*%
%LPD*%
%AMOC8*
5,1,8,0,0,1.08239X$1,22.5*
%
%ADD10C,0.00600*%
%ADD11C,0.00800*%
%ADD12C,0.00100*%
%ADD13C,0.00300*%
%ADD14C,0.00500*%
D10*
X0169300Y0116800D02*
X0171800Y0114300D01*
X0176800Y0114300D01*
X0179300Y0116800D01*
X0179300Y0121800D01*
X0176800Y0124300D01*
X0179300Y0126800D01*
X0179300Y0131800D01*
X0176800Y0134300D01*
X0171800Y0134300D01*
X0169300Y0131800D01*
X0169300Y0126800D01*
X0171800Y0124300D01*
X0176800Y0124300D01*
X0171800Y0124300D02*
X0169300Y0121800D01*
X0169300Y0116800D01*
X0171800Y0134300D02*
X0169300Y0136800D01*
X0169300Y0141800D01*
X0171800Y0144300D01*
X0169300Y0146800D01*
X0169300Y0151800D01*
X0171800Y0154300D01*
X0176800Y0154300D01*
X0179300Y0151800D01*
X0179300Y0146800D01*
X0176800Y0144300D01*
X0179300Y0141800D01*
X0179300Y0136800D01*
X0176800Y0134300D01*
X0176800Y0144300D02*
X0171800Y0144300D01*
X0149300Y0161800D02*
X0149300Y0166800D01*
X0146800Y0169300D01*
X0141800Y0169300D01*
X0139300Y0166800D01*
X0139300Y0161800D01*
X0141800Y0159300D01*
X0146800Y0159300D01*
X0149300Y0161800D01*
X0146800Y0169300D02*
X0149300Y0171800D01*
X0149300Y0176800D01*
X0146800Y0179300D01*
X0141800Y0179300D01*
X0139300Y0176800D01*
X0139300Y0171800D01*
X0141800Y0169300D01*
X0141800Y0179300D02*
X0139300Y0181800D01*
X0139300Y0186800D01*
X0141800Y0189300D01*
X0146800Y0189300D01*
X0149300Y0186800D01*
X0149300Y0181800D01*
X0146800Y0179300D01*
X0134064Y0189615D02*
X0131150Y0189615D01*
X0131150Y0228985D01*
X0134064Y0228985D01*
X0134064Y0189615D01*
X0131150Y0189615D02*
X0111347Y0189615D01*
X0111347Y0228985D01*
X0131150Y0228985D01*
X0141800Y0244300D02*
X0139300Y0246800D01*
X0139300Y0251800D01*
X0141800Y0254300D01*
X0139300Y0256800D01*
X0139300Y0261800D01*
X0141800Y0264300D01*
X0146800Y0264300D01*
X0149300Y0261800D01*
X0149300Y0256800D01*
X0146800Y0254300D01*
X0149300Y0251800D01*
X0149300Y0246800D01*
X0146800Y0244300D01*
X0141800Y0244300D01*
X0141800Y0254300D02*
X0146800Y0254300D01*
X0146800Y0264300D02*
X0149300Y0266800D01*
X0149300Y0271800D01*
X0146800Y0274300D01*
X0149300Y0276800D01*
X0149300Y0281800D01*
X0146800Y0284300D01*
X0149300Y0286800D01*
X0149300Y0291800D01*
X0146800Y0294300D01*
X0149300Y0296800D01*
X0149300Y0301800D01*
X0146800Y0304300D01*
X0141800Y0304300D01*
X0139300Y0301800D01*
X0139300Y0296800D01*
X0141800Y0294300D01*
X0146800Y0294300D01*
X0141800Y0294300D02*
X0139300Y0291800D01*
X0139300Y0286800D01*
X0141800Y0284300D01*
X0146800Y0284300D01*
X0141800Y0284300D02*
X0139300Y0281800D01*
X0139300Y0276800D01*
X0141800Y0274300D01*
X0146800Y0274300D01*
X0141800Y0274300D02*
X0139300Y0271800D01*
X0139300Y0266800D01*
X0141800Y0264300D01*
X0109300Y0261800D02*
X0109300Y0256800D01*
X0106800Y0254300D01*
X0109300Y0251800D01*
X0109300Y0246800D01*
X0106800Y0244300D01*
X0101800Y0244300D01*
X0099300Y0246800D01*
X0099300Y0251800D01*
X0101800Y0254300D01*
X0099300Y0256800D01*
X0099300Y0261800D01*
X0101800Y0264300D01*
X0099300Y0266800D01*
X0099300Y0271800D01*
X0101800Y0274300D01*
X0099300Y0276800D01*
X0099300Y0281800D01*
X0101800Y0284300D01*
X0099300Y0286800D01*
X0099300Y0291800D01*
X0101800Y0294300D01*
X0099300Y0296800D01*
X0099300Y0301800D01*
X0101800Y0304300D01*
X0106800Y0304300D01*
X0109300Y0301800D01*
X0109300Y0296800D01*
X0106800Y0294300D01*
X0109300Y0291800D01*
X0109300Y0286800D01*
X0106800Y0284300D01*
X0101800Y0284300D01*
X0106800Y0284300D02*
X0109300Y0281800D01*
X0109300Y0276800D01*
X0106800Y0274300D01*
X0109300Y0271800D01*
X0109300Y0266800D01*
X0106800Y0264300D01*
X0109300Y0261800D01*
X0106800Y0264300D02*
X0101800Y0264300D01*
X0101800Y0254300D02*
X0106800Y0254300D01*
X0106800Y0274300D02*
X0101800Y0274300D01*
X0101800Y0294300D02*
X0106800Y0294300D01*
X0099064Y0314615D02*
X0096150Y0314615D01*
X0096150Y0353985D01*
X0099064Y0353985D01*
X0099064Y0314615D01*
X0096150Y0314615D02*
X0076347Y0314615D01*
X0076347Y0353985D01*
X0096150Y0353985D01*
X0076347Y0353985D02*
X0069536Y0353985D01*
X0069536Y0314615D01*
X0073493Y0314615D01*
X0075816Y0314615D01*
X0076347Y0314615D01*
X0104536Y0228985D02*
X0111347Y0228985D01*
X0104536Y0228985D02*
X0104536Y0189615D01*
X0108493Y0189615D01*
X0110816Y0189615D01*
X0111347Y0189615D01*
X0201800Y0084300D02*
X0199300Y0081800D01*
X0199300Y0076800D01*
X0201800Y0074300D01*
X0206800Y0074300D01*
X0209300Y0076800D01*
X0211800Y0074300D01*
X0216800Y0074300D01*
X0219300Y0076800D01*
X0219300Y0081800D01*
X0216800Y0084300D01*
X0211800Y0084300D01*
X0209300Y0081800D01*
X0209300Y0076800D01*
X0209300Y0081800D02*
X0206800Y0084300D01*
X0201800Y0084300D01*
X0219300Y0081800D02*
X0221800Y0084300D01*
X0226800Y0084300D01*
X0229300Y0081800D01*
X0231800Y0084300D01*
X0236800Y0084300D01*
X0239300Y0081800D01*
X0239300Y0076800D01*
X0236800Y0074300D01*
X0231800Y0074300D01*
X0229300Y0076800D01*
X0226800Y0074300D01*
X0221800Y0074300D01*
X0219300Y0076800D01*
X0229300Y0076800D02*
X0229300Y0081800D01*
X0519300Y0036800D02*
X0519300Y0031800D01*
X0521800Y0029300D01*
X0526800Y0029300D01*
X0529300Y0031800D01*
X0531800Y0029300D01*
X0536800Y0029300D01*
X0539300Y0031800D01*
X0539300Y0036800D01*
X0536800Y0039300D01*
X0531800Y0039300D01*
X0529300Y0036800D01*
X0529300Y0031800D01*
X0529300Y0036800D02*
X0526800Y0039300D01*
X0521800Y0039300D01*
X0519300Y0036800D01*
X0539300Y0036800D02*
X0541800Y0039300D01*
X0546800Y0039300D01*
X0549300Y0036800D01*
X0551800Y0039300D01*
X0556800Y0039300D01*
X0559300Y0036800D01*
X0559300Y0031800D01*
X0556800Y0029300D01*
X0551800Y0029300D01*
X0549300Y0031800D01*
X0546800Y0029300D01*
X0541800Y0029300D01*
X0539300Y0031800D01*
X0549300Y0031800D02*
X0549300Y0036800D01*
X0571800Y0079300D02*
X0569300Y0081800D01*
X0569300Y0086800D01*
X0571800Y0089300D01*
X0569300Y0091800D01*
X0569300Y0096800D01*
X0571800Y0099300D01*
X0576800Y0099300D01*
X0579300Y0096800D01*
X0579300Y0091800D01*
X0576800Y0089300D01*
X0579300Y0086800D01*
X0579300Y0081800D01*
X0576800Y0079300D01*
X0571800Y0079300D01*
X0571800Y0089300D02*
X0576800Y0089300D01*
X0576800Y0099300D02*
X0579300Y0101800D01*
X0579300Y0106800D01*
X0576800Y0109300D01*
X0579300Y0111800D01*
X0579300Y0116800D01*
X0576800Y0119300D01*
X0571800Y0119300D01*
X0569300Y0116800D01*
X0569300Y0111800D01*
X0571800Y0109300D01*
X0576800Y0109300D01*
X0571800Y0109300D02*
X0569300Y0106800D01*
X0569300Y0101800D01*
X0571800Y0099300D01*
X0586800Y0134300D02*
X0584300Y0136800D01*
X0584300Y0141800D01*
X0586800Y0144300D01*
X0584300Y0146800D01*
X0584300Y0151800D01*
X0586800Y0154300D01*
X0584300Y0156800D01*
X0584300Y0161800D01*
X0586800Y0164300D01*
X0591800Y0164300D01*
X0594300Y0161800D01*
X0594300Y0156800D01*
X0591800Y0154300D01*
X0594300Y0151800D01*
X0594300Y0146800D01*
X0591800Y0144300D01*
X0594300Y0141800D01*
X0594300Y0136800D01*
X0591800Y0134300D01*
X0586800Y0134300D01*
X0586800Y0144300D02*
X0591800Y0144300D01*
X0591800Y0154300D02*
X0586800Y0154300D01*
X0586800Y0254300D02*
X0581800Y0254300D01*
X0579300Y0256800D01*
X0579300Y0261800D01*
X0581800Y0264300D01*
X0586800Y0264300D01*
X0589300Y0261800D01*
X0591800Y0264300D01*
X0596800Y0264300D01*
X0599300Y0261800D01*
X0601800Y0264300D01*
X0606800Y0264300D01*
X0609300Y0261800D01*
X0611800Y0264300D01*
X0616800Y0264300D01*
X0619300Y0261800D01*
X0621800Y0264300D01*
X0626800Y0264300D01*
X0629300Y0261800D01*
X0631800Y0264300D01*
X0636800Y0264300D01*
X0639300Y0261800D01*
X0639300Y0256800D01*
X0636800Y0254300D01*
X0631800Y0254300D01*
X0629300Y0256800D01*
X0626800Y0254300D01*
X0621800Y0254300D01*
X0619300Y0256800D01*
X0619300Y0261800D01*
X0619300Y0256800D02*
X0616800Y0254300D01*
X0611800Y0254300D01*
X0609300Y0256800D01*
X0606800Y0254300D01*
X0601800Y0254300D01*
X0599300Y0256800D01*
X0596800Y0254300D01*
X0591800Y0254300D01*
X0589300Y0256800D01*
X0586800Y0254300D01*
X0589300Y0256800D02*
X0589300Y0261800D01*
X0599300Y0261800D02*
X0599300Y0256800D01*
X0609300Y0256800D02*
X0609300Y0261800D01*
X0604615Y0274536D02*
X0604615Y0277450D01*
X0643985Y0277450D01*
X0643985Y0274536D01*
X0604615Y0274536D01*
X0604615Y0277450D02*
X0604615Y0297253D01*
X0643985Y0297253D01*
X0643985Y0277450D01*
X0629300Y0261800D02*
X0629300Y0256800D01*
X0664300Y0256800D02*
X0664300Y0261800D01*
X0666800Y0264300D01*
X0671800Y0264300D01*
X0674300Y0261800D01*
X0676800Y0264300D01*
X0681800Y0264300D01*
X0684300Y0261800D01*
X0686800Y0264300D01*
X0691800Y0264300D01*
X0694300Y0261800D01*
X0696800Y0264300D01*
X0701800Y0264300D01*
X0704300Y0261800D01*
X0706800Y0264300D01*
X0711800Y0264300D01*
X0714300Y0261800D01*
X0716800Y0264300D01*
X0721800Y0264300D01*
X0724300Y0261800D01*
X0724300Y0256800D01*
X0721800Y0254300D01*
X0716800Y0254300D01*
X0714300Y0256800D01*
X0711800Y0254300D01*
X0706800Y0254300D01*
X0704300Y0256800D01*
X0704300Y0261800D01*
X0704300Y0256800D02*
X0701800Y0254300D01*
X0696800Y0254300D01*
X0694300Y0256800D01*
X0691800Y0254300D01*
X0686800Y0254300D01*
X0684300Y0256800D01*
X0681800Y0254300D01*
X0676800Y0254300D01*
X0674300Y0256800D01*
X0671800Y0254300D01*
X0666800Y0254300D01*
X0664300Y0256800D01*
X0674300Y0256800D02*
X0674300Y0261800D01*
X0684300Y0261800D02*
X0684300Y0256800D01*
X0694300Y0256800D02*
X0694300Y0261800D01*
X0699615Y0274536D02*
X0699615Y0277450D01*
X0738985Y0277450D01*
X0738985Y0274536D01*
X0699615Y0274536D01*
X0699615Y0277450D02*
X0699615Y0297253D01*
X0738985Y0297253D01*
X0738985Y0277450D01*
X0738985Y0297253D02*
X0738985Y0304064D01*
X0699615Y0304064D01*
X0699615Y0300107D01*
X0699615Y0297784D01*
X0699615Y0297253D01*
X0714300Y0261800D02*
X0714300Y0256800D01*
X0643985Y0297253D02*
X0643985Y0304064D01*
X0604615Y0304064D01*
X0604615Y0300107D01*
X0604615Y0297784D01*
X0604615Y0297253D01*
X0614615Y0584536D02*
X0614615Y0587450D01*
X0653985Y0587450D01*
X0653985Y0584536D01*
X0614615Y0584536D01*
X0614615Y0587450D02*
X0614615Y0607253D01*
X0653985Y0607253D01*
X0653985Y0587450D01*
X0653985Y0607253D02*
X0653985Y0614064D01*
X0614615Y0614064D01*
X0614615Y0610107D01*
X0614615Y0607784D01*
X0614615Y0607253D01*
X0593985Y0607253D02*
X0593985Y0587450D01*
X0554615Y0587450D01*
X0554615Y0607253D01*
X0593985Y0607253D01*
X0593985Y0614064D01*
X0554615Y0614064D01*
X0554615Y0610107D01*
X0554615Y0607784D01*
X0554615Y0607253D01*
X0554615Y0587450D02*
X0554615Y0584536D01*
X0593985Y0584536D01*
X0593985Y0587450D01*
X0591800Y0634300D02*
X0589300Y0636800D01*
X0589300Y0641800D01*
X0591800Y0644300D01*
X0596800Y0644300D01*
X0599300Y0641800D01*
X0601800Y0644300D01*
X0606800Y0644300D01*
X0609300Y0641800D01*
X0611800Y0644300D01*
X0616800Y0644300D01*
X0619300Y0641800D01*
X0621800Y0644300D01*
X0626800Y0644300D01*
X0629300Y0641800D01*
X0631800Y0644300D01*
X0636800Y0644300D01*
X0639300Y0641800D01*
X0641800Y0644300D01*
X0646800Y0644300D01*
X0649300Y0641800D01*
X0649300Y0636800D01*
X0646800Y0634300D01*
X0641800Y0634300D01*
X0639300Y0636800D01*
X0636800Y0634300D01*
X0631800Y0634300D01*
X0629300Y0636800D01*
X0629300Y0641800D01*
X0629300Y0636800D02*
X0626800Y0634300D01*
X0621800Y0634300D01*
X0619300Y0636800D01*
X0616800Y0634300D01*
X0611800Y0634300D01*
X0609300Y0636800D01*
X0606800Y0634300D01*
X0601800Y0634300D01*
X0599300Y0636800D01*
X0596800Y0634300D01*
X0591800Y0634300D01*
X0599300Y0636800D02*
X0599300Y0641800D01*
X0609300Y0641800D02*
X0609300Y0636800D01*
X0619300Y0636800D02*
X0619300Y0641800D01*
X0639300Y0641800D02*
X0639300Y0636800D01*
X0664300Y0636800D02*
X0664300Y0641800D01*
X0666800Y0644300D01*
X0671800Y0644300D01*
X0674300Y0641800D01*
X0676800Y0644300D01*
X0681800Y0644300D01*
X0684300Y0641800D01*
X0686800Y0644300D01*
X0691800Y0644300D01*
X0694300Y0641800D01*
X0696800Y0644300D01*
X0701800Y0644300D01*
X0704300Y0641800D01*
X0706800Y0644300D01*
X0711800Y0644300D01*
X0714300Y0641800D01*
X0716800Y0644300D01*
X0721800Y0644300D01*
X0724300Y0641800D01*
X0724300Y0636800D01*
X0721800Y0634300D01*
X0716800Y0634300D01*
X0714300Y0636800D01*
X0711800Y0634300D01*
X0706800Y0634300D01*
X0704300Y0636800D01*
X0704300Y0641800D01*
X0704300Y0636800D02*
X0701800Y0634300D01*
X0696800Y0634300D01*
X0694300Y0636800D01*
X0691800Y0634300D01*
X0686800Y0634300D01*
X0684300Y0636800D01*
X0681800Y0634300D01*
X0676800Y0634300D01*
X0674300Y0636800D01*
X0671800Y0634300D01*
X0666800Y0634300D01*
X0664300Y0636800D01*
X0674300Y0636800D02*
X0674300Y0641800D01*
X0684300Y0641800D02*
X0684300Y0636800D01*
X0694300Y0636800D02*
X0694300Y0641800D01*
X0714300Y0641800D02*
X0714300Y0636800D01*
X0728985Y0614064D02*
X0728985Y0607253D01*
X0689615Y0607253D01*
X0689615Y0607784D01*
X0689615Y0610107D01*
X0689615Y0614064D01*
X0728985Y0614064D01*
X0728985Y0607253D02*
X0728985Y0587450D01*
X0689615Y0587450D01*
X0689615Y0607253D01*
X0689615Y0587450D02*
X0689615Y0584536D01*
X0728985Y0584536D01*
X0728985Y0587450D01*
X0404300Y0641800D02*
X0401800Y0639300D01*
X0396800Y0639300D01*
X0394300Y0641800D01*
X0391800Y0639300D01*
X0386800Y0639300D01*
X0384300Y0641800D01*
X0381800Y0639300D01*
X0376800Y0639300D01*
X0374300Y0641800D01*
X0374300Y0646800D01*
X0376800Y0649300D01*
X0381800Y0649300D01*
X0384300Y0646800D01*
X0386800Y0649300D01*
X0391800Y0649300D01*
X0394300Y0646800D01*
X0396800Y0649300D01*
X0401800Y0649300D01*
X0404300Y0646800D01*
X0404300Y0641800D01*
X0394300Y0641800D02*
X0394300Y0646800D01*
X0384300Y0646800D02*
X0384300Y0641800D01*
X0364300Y0641800D02*
X0361800Y0639300D01*
X0356800Y0639300D01*
X0354300Y0641800D01*
X0351800Y0639300D01*
X0346800Y0639300D01*
X0344300Y0641800D01*
X0341800Y0639300D01*
X0336800Y0639300D01*
X0334300Y0641800D01*
X0331800Y0639300D01*
X0326800Y0639300D01*
X0324300Y0641800D01*
X0324300Y0646800D01*
X0326800Y0649300D01*
X0331800Y0649300D01*
X0334300Y0646800D01*
X0336800Y0649300D01*
X0341800Y0649300D01*
X0344300Y0646800D01*
X0344300Y0641800D01*
X0344300Y0646800D02*
X0346800Y0649300D01*
X0351800Y0649300D01*
X0354300Y0646800D01*
X0356800Y0649300D01*
X0361800Y0649300D01*
X0364300Y0646800D01*
X0364300Y0641800D01*
X0354300Y0641800D02*
X0354300Y0646800D01*
X0334300Y0646800D02*
X0334300Y0641800D01*
X0286800Y0539300D02*
X0289300Y0536800D01*
X0289300Y0531800D01*
X0286800Y0529300D01*
X0289300Y0526800D01*
X0289300Y0521800D01*
X0286800Y0519300D01*
X0281800Y0519300D01*
X0279300Y0521800D01*
X0279300Y0526800D01*
X0281800Y0529300D01*
X0279300Y0531800D01*
X0279300Y0536800D01*
X0281800Y0539300D01*
X0286800Y0539300D01*
X0286800Y0529300D02*
X0281800Y0529300D01*
X0281800Y0519300D02*
X0279300Y0516800D01*
X0279300Y0511800D01*
X0281800Y0509300D01*
X0279300Y0506800D01*
X0279300Y0501800D01*
X0281800Y0499300D01*
X0286800Y0499300D01*
X0289300Y0501800D01*
X0289300Y0506800D01*
X0286800Y0509300D01*
X0281800Y0509300D01*
X0286800Y0509300D02*
X0289300Y0511800D01*
X0289300Y0516800D01*
X0286800Y0519300D01*
X0239300Y0516800D02*
X0239300Y0511800D01*
X0236800Y0509300D01*
X0239300Y0506800D01*
X0239300Y0501800D01*
X0236800Y0499300D01*
X0231800Y0499300D01*
X0229300Y0501800D01*
X0229300Y0506800D01*
X0231800Y0509300D01*
X0229300Y0511800D01*
X0229300Y0516800D01*
X0231800Y0519300D01*
X0229300Y0521800D01*
X0229300Y0526800D01*
X0231800Y0529300D01*
X0229300Y0531800D01*
X0229300Y0536800D01*
X0231800Y0539300D01*
X0236800Y0539300D01*
X0239300Y0536800D01*
X0239300Y0531800D01*
X0236800Y0529300D01*
X0239300Y0526800D01*
X0239300Y0521800D01*
X0236800Y0519300D01*
X0231800Y0519300D01*
X0236800Y0519300D02*
X0239300Y0516800D01*
X0236800Y0509300D02*
X0231800Y0509300D01*
X0231800Y0529300D02*
X0236800Y0529300D01*
X0236800Y0474300D02*
X0231800Y0474300D01*
X0229300Y0471800D01*
X0229300Y0466800D01*
X0231800Y0464300D01*
X0229300Y0461800D01*
X0229300Y0456800D01*
X0231800Y0454300D01*
X0236800Y0454300D01*
X0239300Y0456800D01*
X0239300Y0461800D01*
X0236800Y0464300D01*
X0231800Y0464300D01*
X0236800Y0464300D02*
X0239300Y0466800D01*
X0239300Y0471800D01*
X0236800Y0474300D01*
X0236800Y0454300D02*
X0239300Y0451800D01*
X0239300Y0446800D01*
X0236800Y0444300D01*
X0239300Y0441800D01*
X0239300Y0436800D01*
X0236800Y0434300D01*
X0231800Y0434300D01*
X0229300Y0436800D01*
X0229300Y0441800D01*
X0231800Y0444300D01*
X0229300Y0446800D01*
X0229300Y0451800D01*
X0231800Y0454300D01*
X0231800Y0444300D02*
X0236800Y0444300D01*
X0269300Y0441800D02*
X0269300Y0436800D01*
X0271800Y0434300D01*
X0276800Y0434300D01*
X0279300Y0436800D01*
X0279300Y0441800D01*
X0276800Y0444300D01*
X0271800Y0444300D01*
X0269300Y0441800D01*
X0271800Y0444300D02*
X0269300Y0446800D01*
X0269300Y0451800D01*
X0271800Y0454300D01*
X0269300Y0456800D01*
X0269300Y0461800D01*
X0271800Y0464300D01*
X0269300Y0466800D01*
X0269300Y0471800D01*
X0271800Y0474300D01*
X0276800Y0474300D01*
X0279300Y0471800D01*
X0279300Y0466800D01*
X0276800Y0464300D01*
X0279300Y0461800D01*
X0279300Y0456800D01*
X0276800Y0454300D01*
X0271800Y0454300D01*
X0276800Y0454300D02*
X0279300Y0451800D01*
X0279300Y0446800D01*
X0276800Y0444300D01*
X0276800Y0464300D02*
X0271800Y0464300D01*
X0154300Y0461800D02*
X0151800Y0459300D01*
X0146800Y0459300D01*
X0144300Y0461800D01*
X0144300Y0466800D01*
X0146800Y0469300D01*
X0144300Y0471800D01*
X0144300Y0476800D01*
X0146800Y0479300D01*
X0144300Y0481800D01*
X0144300Y0486800D01*
X0146800Y0489300D01*
X0144300Y0491800D01*
X0144300Y0496800D01*
X0146800Y0499300D01*
X0144300Y0501800D01*
X0144300Y0506800D01*
X0146800Y0509300D01*
X0151800Y0509300D01*
X0154300Y0506800D01*
X0154300Y0501800D01*
X0151800Y0499300D01*
X0154300Y0496800D01*
X0154300Y0491800D01*
X0151800Y0489300D01*
X0146800Y0489300D01*
X0151800Y0489300D02*
X0154300Y0486800D01*
X0154300Y0481800D01*
X0151800Y0479300D01*
X0154300Y0476800D01*
X0154300Y0471800D01*
X0151800Y0469300D01*
X0154300Y0466800D01*
X0154300Y0461800D01*
X0151800Y0459300D02*
X0154300Y0456800D01*
X0154300Y0451800D01*
X0151800Y0449300D01*
X0154300Y0446800D01*
X0154300Y0441800D01*
X0151800Y0439300D01*
X0146800Y0439300D01*
X0144300Y0441800D01*
X0144300Y0446800D01*
X0146800Y0449300D01*
X0144300Y0451800D01*
X0144300Y0456800D01*
X0146800Y0459300D01*
X0146800Y0449300D02*
X0151800Y0449300D01*
X0151800Y0469300D02*
X0146800Y0469300D01*
X0146800Y0479300D02*
X0151800Y0479300D01*
X0151800Y0499300D02*
X0146800Y0499300D01*
X0073985Y0519536D02*
X0034615Y0519536D01*
X0034615Y0522450D01*
X0073985Y0522450D01*
X0073985Y0519536D01*
X0073985Y0522450D02*
X0073985Y0542253D01*
X0034615Y0542253D01*
X0034615Y0542784D01*
X0034615Y0545107D01*
X0034615Y0549064D01*
X0073985Y0549064D01*
X0073985Y0542253D01*
X0066800Y0574300D02*
X0061800Y0574300D01*
X0059300Y0576800D01*
X0056800Y0574300D01*
X0051800Y0574300D01*
X0049300Y0576800D01*
X0046800Y0574300D01*
X0041800Y0574300D01*
X0039300Y0576800D01*
X0039300Y0581800D01*
X0041800Y0584300D01*
X0046800Y0584300D01*
X0049300Y0581800D01*
X0051800Y0584300D01*
X0056800Y0584300D01*
X0059300Y0581800D01*
X0061800Y0584300D01*
X0066800Y0584300D01*
X0069300Y0581800D01*
X0069300Y0576800D01*
X0066800Y0574300D01*
X0059300Y0576800D02*
X0059300Y0581800D01*
X0049300Y0581800D02*
X0049300Y0576800D01*
X0034615Y0542253D02*
X0034615Y0522450D01*
X0041800Y0484300D02*
X0039300Y0481800D01*
X0039300Y0476800D01*
X0041800Y0474300D01*
X0039300Y0471800D01*
X0039300Y0466800D01*
X0041800Y0464300D01*
X0046800Y0464300D01*
X0049300Y0466800D01*
X0049300Y0471800D01*
X0046800Y0474300D01*
X0041800Y0474300D01*
X0046800Y0474300D02*
X0049300Y0476800D01*
X0049300Y0481800D01*
X0046800Y0484300D01*
X0041800Y0484300D01*
X0149300Y0591800D02*
X0149300Y0596800D01*
X0151800Y0599300D01*
X0149300Y0601800D01*
X0149300Y0606800D01*
X0151800Y0609300D01*
X0156800Y0609300D01*
X0159300Y0606800D01*
X0159300Y0601800D01*
X0156800Y0599300D01*
X0159300Y0596800D01*
X0159300Y0591800D01*
X0156800Y0589300D01*
X0151800Y0589300D01*
X0149300Y0591800D01*
X0151800Y0599300D02*
X0156800Y0599300D01*
X0128985Y0614536D02*
X0128985Y0618493D01*
X0128985Y0620816D01*
X0128985Y0621347D01*
X0089615Y0621347D01*
X0089615Y0641150D01*
X0128985Y0641150D01*
X0128985Y0621347D01*
X0128985Y0614536D02*
X0089615Y0614536D01*
X0089615Y0621347D01*
X0073985Y0621347D02*
X0034615Y0621347D01*
X0034615Y0641150D01*
X0073985Y0641150D01*
X0073985Y0621347D01*
X0073985Y0620816D01*
X0073985Y0618493D01*
X0073985Y0614536D01*
X0034615Y0614536D01*
X0034615Y0621347D01*
X0034615Y0641150D02*
X0034615Y0644064D01*
X0073985Y0644064D01*
X0073985Y0641150D01*
X0089615Y0641150D02*
X0089615Y0644064D01*
X0128985Y0644064D01*
X0128985Y0641150D01*
D11*
X0159300Y0587300D02*
X0159300Y0584300D01*
X0158300Y0584300D01*
X0159300Y0584300D02*
X0159300Y0581300D01*
X0179300Y0581300D01*
X0179300Y0584300D01*
X0180300Y0584300D01*
X0179300Y0584300D02*
X0179300Y0587300D01*
X0159300Y0587300D01*
X0047300Y0444300D02*
X0044300Y0444300D01*
X0044300Y0445300D01*
X0044300Y0444300D02*
X0041300Y0444300D01*
X0041300Y0424300D01*
X0044300Y0424300D01*
X0044300Y0423300D01*
X0044300Y0424300D02*
X0047300Y0424300D01*
X0047300Y0444300D01*
X0529300Y0242300D02*
X0529300Y0239300D01*
X0528300Y0239300D01*
X0529300Y0239300D02*
X0529300Y0236300D01*
X0549300Y0236300D01*
X0549300Y0239300D01*
X0550300Y0239300D01*
X0549300Y0239300D02*
X0549300Y0242300D01*
X0529300Y0242300D01*
D12*
X0176046Y0409084D02*
X0175813Y0408850D01*
X0175346Y0408850D01*
X0175112Y0409084D01*
X0174665Y0408850D02*
X0173731Y0408850D01*
X0174198Y0408850D02*
X0174198Y0410251D01*
X0173731Y0409784D01*
X0173284Y0410018D02*
X0173051Y0410251D01*
X0172350Y0410251D01*
X0172350Y0408850D01*
X0173051Y0408850D01*
X0173284Y0409084D01*
X0173284Y0410018D01*
X0175112Y0410018D02*
X0175346Y0410251D01*
X0175813Y0410251D01*
X0176046Y0410018D01*
X0176046Y0409784D01*
X0175813Y0409551D01*
X0176046Y0409317D01*
X0176046Y0409084D01*
X0175813Y0409551D02*
X0175579Y0409551D01*
X0175346Y0418850D02*
X0175112Y0419084D01*
X0175346Y0418850D02*
X0175813Y0418850D01*
X0176046Y0419084D01*
X0176046Y0419317D01*
X0175813Y0419551D01*
X0175579Y0419551D01*
X0175813Y0419551D02*
X0176046Y0419784D01*
X0176046Y0420018D01*
X0175813Y0420251D01*
X0175346Y0420251D01*
X0175112Y0420018D01*
X0174665Y0420251D02*
X0174665Y0419317D01*
X0174198Y0418850D01*
X0173731Y0419317D01*
X0173731Y0420251D01*
X0173284Y0420018D02*
X0173284Y0419784D01*
X0173051Y0419551D01*
X0173284Y0419317D01*
X0173284Y0419084D01*
X0173051Y0418850D01*
X0172584Y0418850D01*
X0172350Y0419084D01*
X0172817Y0419551D02*
X0173051Y0419551D01*
X0173284Y0420018D02*
X0173051Y0420251D01*
X0172584Y0420251D01*
X0172350Y0420018D01*
X0172784Y0428850D02*
X0172784Y0429784D01*
X0172317Y0430251D01*
X0171850Y0429784D01*
X0171850Y0428850D01*
X0171850Y0429551D02*
X0172784Y0429551D01*
X0173231Y0429317D02*
X0173932Y0429317D01*
X0174165Y0429551D01*
X0174165Y0430018D01*
X0173932Y0430251D01*
X0173231Y0430251D01*
X0173231Y0428850D01*
X0173698Y0429317D02*
X0174165Y0428850D01*
X0174612Y0428850D02*
X0175546Y0428850D01*
X0175994Y0428850D02*
X0175994Y0430251D01*
X0176928Y0430251D01*
X0176461Y0429551D02*
X0175994Y0429551D01*
X0175546Y0430251D02*
X0174612Y0430251D01*
X0174612Y0428850D01*
X0174612Y0429551D02*
X0175079Y0429551D01*
X0174965Y0438850D02*
X0174731Y0439084D01*
X0175665Y0440018D01*
X0175665Y0439084D01*
X0175432Y0438850D01*
X0174965Y0438850D01*
X0174731Y0439084D02*
X0174731Y0440018D01*
X0174965Y0440251D01*
X0175432Y0440251D01*
X0175665Y0440018D01*
X0174284Y0439784D02*
X0174284Y0438850D01*
X0174284Y0439551D02*
X0173350Y0439551D01*
X0173350Y0439784D02*
X0173817Y0440251D01*
X0174284Y0439784D01*
X0173350Y0439784D02*
X0173350Y0438850D01*
X0173350Y0448850D02*
X0173350Y0449784D01*
X0173817Y0450251D01*
X0174284Y0449784D01*
X0174284Y0448850D01*
X0174731Y0448850D02*
X0175665Y0448850D01*
X0175198Y0448850D02*
X0175198Y0450251D01*
X0174731Y0449784D01*
X0174284Y0449551D02*
X0173350Y0449551D01*
X0173350Y0458850D02*
X0173350Y0459784D01*
X0173817Y0460251D01*
X0174284Y0459784D01*
X0174284Y0458850D01*
X0174731Y0458850D02*
X0175665Y0459784D01*
X0175665Y0460018D01*
X0175432Y0460251D01*
X0174965Y0460251D01*
X0174731Y0460018D01*
X0174284Y0459551D02*
X0173350Y0459551D01*
X0174731Y0458850D02*
X0175665Y0458850D01*
X0175432Y0468850D02*
X0174965Y0468850D01*
X0174731Y0469084D01*
X0174284Y0468850D02*
X0174284Y0469784D01*
X0173817Y0470251D01*
X0173350Y0469784D01*
X0173350Y0468850D01*
X0173350Y0469551D02*
X0174284Y0469551D01*
X0174731Y0470018D02*
X0174965Y0470251D01*
X0175432Y0470251D01*
X0175665Y0470018D01*
X0175665Y0469784D01*
X0175432Y0469551D01*
X0175665Y0469317D01*
X0175665Y0469084D01*
X0175432Y0468850D01*
X0175432Y0469551D02*
X0175198Y0469551D01*
X0175432Y0478850D02*
X0175432Y0480251D01*
X0174731Y0479551D01*
X0175665Y0479551D01*
X0174284Y0479551D02*
X0173350Y0479551D01*
X0173350Y0479784D02*
X0173817Y0480251D01*
X0174284Y0479784D01*
X0174284Y0478850D01*
X0173350Y0478850D02*
X0173350Y0479784D01*
X0173350Y0488850D02*
X0173350Y0489784D01*
X0173817Y0490251D01*
X0174284Y0489784D01*
X0174284Y0488850D01*
X0174731Y0489084D02*
X0174965Y0488850D01*
X0175432Y0488850D01*
X0175665Y0489084D01*
X0175665Y0489551D01*
X0175432Y0489784D01*
X0175198Y0489784D01*
X0174731Y0489551D01*
X0174731Y0490251D01*
X0175665Y0490251D01*
X0174284Y0489551D02*
X0173350Y0489551D01*
X0173350Y0498850D02*
X0173350Y0499784D01*
X0173817Y0500251D01*
X0174284Y0499784D01*
X0174284Y0498850D01*
X0174731Y0499084D02*
X0174965Y0498850D01*
X0175432Y0498850D01*
X0175665Y0499084D01*
X0175665Y0499317D01*
X0175432Y0499551D01*
X0174731Y0499551D01*
X0174731Y0499084D01*
X0174731Y0499551D02*
X0175198Y0500018D01*
X0175665Y0500251D01*
X0174284Y0499551D02*
X0173350Y0499551D01*
X0173350Y0508850D02*
X0173350Y0509784D01*
X0173817Y0510251D01*
X0174284Y0509784D01*
X0174284Y0508850D01*
X0174731Y0508850D02*
X0174731Y0509084D01*
X0175665Y0510018D01*
X0175665Y0510251D01*
X0174731Y0510251D01*
X0174284Y0509551D02*
X0173350Y0509551D01*
X0173965Y0518850D02*
X0173731Y0519084D01*
X0173965Y0518850D02*
X0174432Y0518850D01*
X0174665Y0519084D01*
X0174665Y0519551D01*
X0174432Y0519784D01*
X0174198Y0519784D01*
X0173731Y0519551D01*
X0173731Y0520251D01*
X0174665Y0520251D01*
X0175112Y0520251D02*
X0175112Y0519317D01*
X0175579Y0518850D01*
X0176046Y0519317D01*
X0176046Y0520251D01*
X0173284Y0519551D02*
X0172350Y0519551D01*
X0172817Y0520018D02*
X0172817Y0519084D01*
X0173284Y0528850D02*
X0172817Y0529317D01*
X0173051Y0529317D02*
X0172350Y0529317D01*
X0172350Y0528850D02*
X0172350Y0530251D01*
X0173051Y0530251D01*
X0173284Y0530018D01*
X0173284Y0529551D01*
X0173051Y0529317D01*
X0173731Y0529084D02*
X0173965Y0528850D01*
X0174432Y0528850D01*
X0174665Y0529084D01*
X0174665Y0529317D01*
X0174432Y0529551D01*
X0173965Y0529551D01*
X0173731Y0529784D01*
X0173731Y0530018D01*
X0173965Y0530251D01*
X0174432Y0530251D01*
X0174665Y0530018D01*
X0175112Y0530251D02*
X0176046Y0530251D01*
X0175579Y0530251D02*
X0175579Y0528850D01*
X0175813Y0538850D02*
X0176046Y0539084D01*
X0176046Y0540018D01*
X0175813Y0540251D01*
X0175112Y0540251D01*
X0175112Y0538850D01*
X0175813Y0538850D01*
X0174665Y0538850D02*
X0174665Y0540251D01*
X0173731Y0540251D02*
X0173731Y0538850D01*
X0173284Y0539084D02*
X0173051Y0538850D01*
X0172584Y0538850D01*
X0172350Y0539084D01*
X0172350Y0540018D01*
X0172584Y0540251D01*
X0173051Y0540251D01*
X0173284Y0540018D01*
X0173284Y0539551D02*
X0172817Y0539551D01*
X0173284Y0539551D02*
X0173284Y0539084D01*
X0173731Y0540251D02*
X0174665Y0538850D01*
X0169750Y0542817D02*
X0169283Y0543284D01*
X0168349Y0543284D01*
X0168349Y0543731D02*
X0168349Y0544198D01*
X0168349Y0543965D02*
X0169750Y0543965D01*
X0169750Y0544198D02*
X0169750Y0543731D01*
X0169750Y0542817D02*
X0169283Y0542350D01*
X0168349Y0542350D01*
X0168349Y0544652D02*
X0169750Y0545586D01*
X0168349Y0545586D01*
X0168349Y0544652D02*
X0169750Y0544652D01*
X0120251Y0544402D02*
X0118850Y0544402D01*
X0118850Y0544869D02*
X0118850Y0543935D01*
X0118850Y0543021D02*
X0120251Y0543021D01*
X0120251Y0543488D02*
X0120251Y0542554D01*
X0120251Y0542106D02*
X0118850Y0541172D01*
X0118850Y0542106D02*
X0120251Y0541172D01*
X0120251Y0544402D02*
X0119784Y0544869D01*
X0120018Y0545316D02*
X0120251Y0545549D01*
X0120251Y0546250D01*
X0118850Y0546250D01*
X0118850Y0545549D01*
X0119084Y0545316D01*
X0120018Y0545316D01*
X0116928Y0540251D02*
X0115994Y0538850D01*
X0115546Y0538850D02*
X0115079Y0539317D01*
X0115313Y0539317D02*
X0114612Y0539317D01*
X0114612Y0538850D02*
X0114612Y0540251D01*
X0115313Y0540251D01*
X0115546Y0540018D01*
X0115546Y0539551D01*
X0115313Y0539317D01*
X0115994Y0540251D02*
X0116928Y0538850D01*
X0114165Y0539084D02*
X0113932Y0538850D01*
X0113465Y0538850D01*
X0113231Y0539084D01*
X0113231Y0540018D01*
X0113465Y0540251D01*
X0113932Y0540251D01*
X0114165Y0540018D01*
X0114165Y0539084D01*
X0112784Y0539084D02*
X0112551Y0538850D01*
X0111850Y0538850D01*
X0111850Y0540251D01*
X0112551Y0540251D01*
X0112784Y0540018D01*
X0112784Y0539084D01*
X0113051Y0530251D02*
X0113284Y0530018D01*
X0113284Y0529551D01*
X0113051Y0529317D01*
X0112350Y0529317D01*
X0112350Y0528850D02*
X0112350Y0530251D01*
X0113051Y0530251D01*
X0113731Y0530018D02*
X0113731Y0529784D01*
X0113965Y0529551D01*
X0114432Y0529551D01*
X0114665Y0529317D01*
X0114665Y0529084D01*
X0114432Y0528850D01*
X0113965Y0528850D01*
X0113731Y0529084D01*
X0113284Y0528850D02*
X0112817Y0529317D01*
X0113731Y0530018D02*
X0113965Y0530251D01*
X0114432Y0530251D01*
X0114665Y0530018D01*
X0115112Y0530251D02*
X0116046Y0530251D01*
X0115579Y0530251D02*
X0115579Y0528850D01*
X0115813Y0520251D02*
X0115112Y0520251D01*
X0115112Y0518850D01*
X0115813Y0518850D01*
X0116046Y0519084D01*
X0116046Y0520018D01*
X0115813Y0520251D01*
X0114665Y0520251D02*
X0114665Y0518850D01*
X0113731Y0520251D01*
X0113731Y0518850D01*
X0113284Y0519084D02*
X0113284Y0519551D01*
X0112817Y0519551D01*
X0112350Y0520018D02*
X0112350Y0519084D01*
X0112584Y0518850D01*
X0113051Y0518850D01*
X0113284Y0519084D01*
X0113284Y0520018D02*
X0113051Y0520251D01*
X0112584Y0520251D01*
X0112350Y0520018D01*
X0112850Y0510251D02*
X0113551Y0510251D01*
X0113784Y0510018D01*
X0113784Y0509084D01*
X0113551Y0508850D01*
X0112850Y0508850D01*
X0112850Y0510251D01*
X0114231Y0510018D02*
X0114465Y0510251D01*
X0114932Y0510251D01*
X0115165Y0510018D01*
X0115165Y0509784D01*
X0114231Y0508850D01*
X0115165Y0508850D01*
X0114932Y0500251D02*
X0115165Y0500018D01*
X0115165Y0499784D01*
X0114932Y0499551D01*
X0115165Y0499317D01*
X0115165Y0499084D01*
X0114932Y0498850D01*
X0114465Y0498850D01*
X0114231Y0499084D01*
X0113784Y0499084D02*
X0113784Y0500018D01*
X0113551Y0500251D01*
X0112850Y0500251D01*
X0112850Y0498850D01*
X0113551Y0498850D01*
X0113784Y0499084D01*
X0114698Y0499551D02*
X0114932Y0499551D01*
X0114932Y0500251D02*
X0114465Y0500251D01*
X0114231Y0500018D01*
X0113551Y0490251D02*
X0112850Y0490251D01*
X0112850Y0488850D01*
X0113551Y0488850D01*
X0113784Y0489084D01*
X0113784Y0490018D01*
X0113551Y0490251D01*
X0114231Y0489551D02*
X0115165Y0489551D01*
X0114932Y0490251D02*
X0114231Y0489551D01*
X0114932Y0490251D02*
X0114932Y0488850D01*
X0115165Y0480251D02*
X0114231Y0480251D01*
X0114231Y0479551D01*
X0114698Y0479784D01*
X0114932Y0479784D01*
X0115165Y0479551D01*
X0115165Y0479084D01*
X0114932Y0478850D01*
X0114465Y0478850D01*
X0114231Y0479084D01*
X0113784Y0479084D02*
X0113784Y0480018D01*
X0113551Y0480251D01*
X0112850Y0480251D01*
X0112850Y0478850D01*
X0113551Y0478850D01*
X0113784Y0479084D01*
X0113551Y0470251D02*
X0112850Y0470251D01*
X0112850Y0468850D01*
X0113551Y0468850D01*
X0113784Y0469084D01*
X0113784Y0470018D01*
X0113551Y0470251D01*
X0114231Y0469551D02*
X0114932Y0469551D01*
X0115165Y0469317D01*
X0115165Y0469084D01*
X0114932Y0468850D01*
X0114465Y0468850D01*
X0114231Y0469084D01*
X0114231Y0469551D01*
X0114698Y0470018D01*
X0115165Y0470251D01*
X0115165Y0460251D02*
X0115165Y0460018D01*
X0114231Y0459084D01*
X0114231Y0458850D01*
X0113784Y0459084D02*
X0113784Y0460018D01*
X0113551Y0460251D01*
X0112850Y0460251D01*
X0112850Y0458850D01*
X0113551Y0458850D01*
X0113784Y0459084D01*
X0114231Y0460251D02*
X0115165Y0460251D01*
X0114932Y0450251D02*
X0115165Y0450018D01*
X0115165Y0449784D01*
X0114932Y0449551D01*
X0114465Y0449551D01*
X0114231Y0449784D01*
X0114231Y0450018D01*
X0114465Y0450251D01*
X0114932Y0450251D01*
X0114932Y0449551D02*
X0115165Y0449317D01*
X0115165Y0449084D01*
X0114932Y0448850D01*
X0114465Y0448850D01*
X0114231Y0449084D01*
X0114231Y0449317D01*
X0114465Y0449551D01*
X0113784Y0450018D02*
X0113551Y0450251D01*
X0112850Y0450251D01*
X0112850Y0448850D01*
X0113551Y0448850D01*
X0113784Y0449084D01*
X0113784Y0450018D01*
X0113551Y0440251D02*
X0112850Y0440251D01*
X0112850Y0438850D01*
X0113551Y0438850D01*
X0113784Y0439084D01*
X0113784Y0440018D01*
X0113551Y0440251D01*
X0114231Y0440018D02*
X0114231Y0439784D01*
X0114465Y0439551D01*
X0115165Y0439551D01*
X0115165Y0440018D02*
X0114932Y0440251D01*
X0114465Y0440251D01*
X0114231Y0440018D01*
X0115165Y0440018D02*
X0115165Y0439084D01*
X0114932Y0438850D01*
X0114465Y0438850D01*
X0114231Y0439084D01*
X0114198Y0430251D02*
X0113731Y0429784D01*
X0113284Y0430018D02*
X0113051Y0430251D01*
X0112350Y0430251D01*
X0112350Y0428850D01*
X0113051Y0428850D01*
X0113284Y0429084D01*
X0113284Y0430018D01*
X0114198Y0430251D02*
X0114198Y0428850D01*
X0113731Y0428850D02*
X0114665Y0428850D01*
X0115112Y0429084D02*
X0116046Y0430018D01*
X0116046Y0429084D01*
X0115813Y0428850D01*
X0115346Y0428850D01*
X0115112Y0429084D01*
X0115112Y0430018D01*
X0115346Y0430251D01*
X0115813Y0430251D01*
X0116046Y0430018D01*
X0115579Y0420251D02*
X0115579Y0418850D01*
X0115112Y0418850D02*
X0116046Y0418850D01*
X0115112Y0419784D02*
X0115579Y0420251D01*
X0114198Y0420251D02*
X0114198Y0418850D01*
X0113731Y0418850D02*
X0114665Y0418850D01*
X0113731Y0419784D02*
X0114198Y0420251D01*
X0113284Y0420018D02*
X0113051Y0420251D01*
X0112350Y0420251D01*
X0112350Y0418850D01*
X0113051Y0418850D01*
X0113284Y0419084D01*
X0113284Y0420018D01*
X0113051Y0410251D02*
X0112350Y0410251D01*
X0112350Y0408850D01*
X0113051Y0408850D01*
X0113284Y0409084D01*
X0113284Y0410018D01*
X0113051Y0410251D01*
X0113731Y0409784D02*
X0114198Y0410251D01*
X0114198Y0408850D01*
X0113731Y0408850D02*
X0114665Y0408850D01*
X0115112Y0408850D02*
X0116046Y0409784D01*
X0116046Y0410018D01*
X0115813Y0410251D01*
X0115346Y0410251D01*
X0115112Y0410018D01*
X0115112Y0408850D02*
X0116046Y0408850D01*
D13*
X0072882Y0344143D02*
X0072884Y0344227D01*
X0072890Y0344310D01*
X0072900Y0344393D01*
X0072914Y0344476D01*
X0072931Y0344558D01*
X0072953Y0344639D01*
X0072978Y0344718D01*
X0073007Y0344797D01*
X0073040Y0344874D01*
X0073076Y0344949D01*
X0073116Y0345023D01*
X0073159Y0345095D01*
X0073206Y0345164D01*
X0073256Y0345231D01*
X0073309Y0345296D01*
X0073365Y0345358D01*
X0073423Y0345418D01*
X0073485Y0345475D01*
X0073549Y0345528D01*
X0073616Y0345579D01*
X0073685Y0345626D01*
X0073756Y0345671D01*
X0073829Y0345711D01*
X0073904Y0345748D01*
X0073981Y0345782D01*
X0074059Y0345812D01*
X0074138Y0345838D01*
X0074219Y0345861D01*
X0074301Y0345879D01*
X0074383Y0345894D01*
X0074466Y0345905D01*
X0074549Y0345912D01*
X0074633Y0345915D01*
X0074717Y0345914D01*
X0074800Y0345909D01*
X0074884Y0345900D01*
X0074966Y0345887D01*
X0075048Y0345871D01*
X0075129Y0345850D01*
X0075210Y0345826D01*
X0075288Y0345798D01*
X0075366Y0345766D01*
X0075442Y0345730D01*
X0075516Y0345691D01*
X0075588Y0345649D01*
X0075658Y0345603D01*
X0075726Y0345554D01*
X0075791Y0345502D01*
X0075854Y0345447D01*
X0075914Y0345389D01*
X0075972Y0345328D01*
X0076026Y0345264D01*
X0076078Y0345198D01*
X0076126Y0345130D01*
X0076171Y0345059D01*
X0076212Y0344986D01*
X0076251Y0344912D01*
X0076285Y0344836D01*
X0076316Y0344758D01*
X0076343Y0344679D01*
X0076367Y0344598D01*
X0076386Y0344517D01*
X0076402Y0344435D01*
X0076414Y0344352D01*
X0076422Y0344268D01*
X0076426Y0344185D01*
X0076426Y0344101D01*
X0076422Y0344018D01*
X0076414Y0343934D01*
X0076402Y0343851D01*
X0076386Y0343769D01*
X0076367Y0343688D01*
X0076343Y0343607D01*
X0076316Y0343528D01*
X0076285Y0343450D01*
X0076251Y0343374D01*
X0076212Y0343300D01*
X0076171Y0343227D01*
X0076126Y0343156D01*
X0076078Y0343088D01*
X0076026Y0343022D01*
X0075972Y0342958D01*
X0075914Y0342897D01*
X0075854Y0342839D01*
X0075791Y0342784D01*
X0075726Y0342732D01*
X0075658Y0342683D01*
X0075588Y0342637D01*
X0075516Y0342595D01*
X0075442Y0342556D01*
X0075366Y0342520D01*
X0075288Y0342488D01*
X0075210Y0342460D01*
X0075129Y0342436D01*
X0075048Y0342415D01*
X0074966Y0342399D01*
X0074884Y0342386D01*
X0074800Y0342377D01*
X0074717Y0342372D01*
X0074633Y0342371D01*
X0074549Y0342374D01*
X0074466Y0342381D01*
X0074383Y0342392D01*
X0074301Y0342407D01*
X0074219Y0342425D01*
X0074138Y0342448D01*
X0074059Y0342474D01*
X0073981Y0342504D01*
X0073904Y0342538D01*
X0073829Y0342575D01*
X0073756Y0342615D01*
X0073685Y0342660D01*
X0073616Y0342707D01*
X0073549Y0342758D01*
X0073485Y0342811D01*
X0073423Y0342868D01*
X0073365Y0342928D01*
X0073309Y0342990D01*
X0073256Y0343055D01*
X0073206Y0343122D01*
X0073159Y0343191D01*
X0073116Y0343263D01*
X0073076Y0343337D01*
X0073040Y0343412D01*
X0073007Y0343489D01*
X0072978Y0343568D01*
X0072953Y0343647D01*
X0072931Y0343728D01*
X0072914Y0343810D01*
X0072900Y0343893D01*
X0072890Y0343976D01*
X0072884Y0344059D01*
X0072882Y0344143D01*
X0072882Y0324457D02*
X0072884Y0324541D01*
X0072890Y0324624D01*
X0072900Y0324707D01*
X0072914Y0324790D01*
X0072931Y0324872D01*
X0072953Y0324953D01*
X0072978Y0325032D01*
X0073007Y0325111D01*
X0073040Y0325188D01*
X0073076Y0325263D01*
X0073116Y0325337D01*
X0073159Y0325409D01*
X0073206Y0325478D01*
X0073256Y0325545D01*
X0073309Y0325610D01*
X0073365Y0325672D01*
X0073423Y0325732D01*
X0073485Y0325789D01*
X0073549Y0325842D01*
X0073616Y0325893D01*
X0073685Y0325940D01*
X0073756Y0325985D01*
X0073829Y0326025D01*
X0073904Y0326062D01*
X0073981Y0326096D01*
X0074059Y0326126D01*
X0074138Y0326152D01*
X0074219Y0326175D01*
X0074301Y0326193D01*
X0074383Y0326208D01*
X0074466Y0326219D01*
X0074549Y0326226D01*
X0074633Y0326229D01*
X0074717Y0326228D01*
X0074800Y0326223D01*
X0074884Y0326214D01*
X0074966Y0326201D01*
X0075048Y0326185D01*
X0075129Y0326164D01*
X0075210Y0326140D01*
X0075288Y0326112D01*
X0075366Y0326080D01*
X0075442Y0326044D01*
X0075516Y0326005D01*
X0075588Y0325963D01*
X0075658Y0325917D01*
X0075726Y0325868D01*
X0075791Y0325816D01*
X0075854Y0325761D01*
X0075914Y0325703D01*
X0075972Y0325642D01*
X0076026Y0325578D01*
X0076078Y0325512D01*
X0076126Y0325444D01*
X0076171Y0325373D01*
X0076212Y0325300D01*
X0076251Y0325226D01*
X0076285Y0325150D01*
X0076316Y0325072D01*
X0076343Y0324993D01*
X0076367Y0324912D01*
X0076386Y0324831D01*
X0076402Y0324749D01*
X0076414Y0324666D01*
X0076422Y0324582D01*
X0076426Y0324499D01*
X0076426Y0324415D01*
X0076422Y0324332D01*
X0076414Y0324248D01*
X0076402Y0324165D01*
X0076386Y0324083D01*
X0076367Y0324002D01*
X0076343Y0323921D01*
X0076316Y0323842D01*
X0076285Y0323764D01*
X0076251Y0323688D01*
X0076212Y0323614D01*
X0076171Y0323541D01*
X0076126Y0323470D01*
X0076078Y0323402D01*
X0076026Y0323336D01*
X0075972Y0323272D01*
X0075914Y0323211D01*
X0075854Y0323153D01*
X0075791Y0323098D01*
X0075726Y0323046D01*
X0075658Y0322997D01*
X0075588Y0322951D01*
X0075516Y0322909D01*
X0075442Y0322870D01*
X0075366Y0322834D01*
X0075288Y0322802D01*
X0075210Y0322774D01*
X0075129Y0322750D01*
X0075048Y0322729D01*
X0074966Y0322713D01*
X0074884Y0322700D01*
X0074800Y0322691D01*
X0074717Y0322686D01*
X0074633Y0322685D01*
X0074549Y0322688D01*
X0074466Y0322695D01*
X0074383Y0322706D01*
X0074301Y0322721D01*
X0074219Y0322739D01*
X0074138Y0322762D01*
X0074059Y0322788D01*
X0073981Y0322818D01*
X0073904Y0322852D01*
X0073829Y0322889D01*
X0073756Y0322929D01*
X0073685Y0322974D01*
X0073616Y0323021D01*
X0073549Y0323072D01*
X0073485Y0323125D01*
X0073423Y0323182D01*
X0073365Y0323242D01*
X0073309Y0323304D01*
X0073256Y0323369D01*
X0073206Y0323436D01*
X0073159Y0323505D01*
X0073116Y0323577D01*
X0073076Y0323651D01*
X0073040Y0323726D01*
X0073007Y0323803D01*
X0072978Y0323882D01*
X0072953Y0323961D01*
X0072931Y0324042D01*
X0072914Y0324124D01*
X0072900Y0324207D01*
X0072890Y0324290D01*
X0072884Y0324373D01*
X0072882Y0324457D01*
X0073493Y0314615D02*
X0072883Y0312331D01*
X0076426Y0312331D01*
X0075816Y0314615D01*
X0107882Y0219143D02*
X0107884Y0219227D01*
X0107890Y0219310D01*
X0107900Y0219393D01*
X0107914Y0219476D01*
X0107931Y0219558D01*
X0107953Y0219639D01*
X0107978Y0219718D01*
X0108007Y0219797D01*
X0108040Y0219874D01*
X0108076Y0219949D01*
X0108116Y0220023D01*
X0108159Y0220095D01*
X0108206Y0220164D01*
X0108256Y0220231D01*
X0108309Y0220296D01*
X0108365Y0220358D01*
X0108423Y0220418D01*
X0108485Y0220475D01*
X0108549Y0220528D01*
X0108616Y0220579D01*
X0108685Y0220626D01*
X0108756Y0220671D01*
X0108829Y0220711D01*
X0108904Y0220748D01*
X0108981Y0220782D01*
X0109059Y0220812D01*
X0109138Y0220838D01*
X0109219Y0220861D01*
X0109301Y0220879D01*
X0109383Y0220894D01*
X0109466Y0220905D01*
X0109549Y0220912D01*
X0109633Y0220915D01*
X0109717Y0220914D01*
X0109800Y0220909D01*
X0109884Y0220900D01*
X0109966Y0220887D01*
X0110048Y0220871D01*
X0110129Y0220850D01*
X0110210Y0220826D01*
X0110288Y0220798D01*
X0110366Y0220766D01*
X0110442Y0220730D01*
X0110516Y0220691D01*
X0110588Y0220649D01*
X0110658Y0220603D01*
X0110726Y0220554D01*
X0110791Y0220502D01*
X0110854Y0220447D01*
X0110914Y0220389D01*
X0110972Y0220328D01*
X0111026Y0220264D01*
X0111078Y0220198D01*
X0111126Y0220130D01*
X0111171Y0220059D01*
X0111212Y0219986D01*
X0111251Y0219912D01*
X0111285Y0219836D01*
X0111316Y0219758D01*
X0111343Y0219679D01*
X0111367Y0219598D01*
X0111386Y0219517D01*
X0111402Y0219435D01*
X0111414Y0219352D01*
X0111422Y0219268D01*
X0111426Y0219185D01*
X0111426Y0219101D01*
X0111422Y0219018D01*
X0111414Y0218934D01*
X0111402Y0218851D01*
X0111386Y0218769D01*
X0111367Y0218688D01*
X0111343Y0218607D01*
X0111316Y0218528D01*
X0111285Y0218450D01*
X0111251Y0218374D01*
X0111212Y0218300D01*
X0111171Y0218227D01*
X0111126Y0218156D01*
X0111078Y0218088D01*
X0111026Y0218022D01*
X0110972Y0217958D01*
X0110914Y0217897D01*
X0110854Y0217839D01*
X0110791Y0217784D01*
X0110726Y0217732D01*
X0110658Y0217683D01*
X0110588Y0217637D01*
X0110516Y0217595D01*
X0110442Y0217556D01*
X0110366Y0217520D01*
X0110288Y0217488D01*
X0110210Y0217460D01*
X0110129Y0217436D01*
X0110048Y0217415D01*
X0109966Y0217399D01*
X0109884Y0217386D01*
X0109800Y0217377D01*
X0109717Y0217372D01*
X0109633Y0217371D01*
X0109549Y0217374D01*
X0109466Y0217381D01*
X0109383Y0217392D01*
X0109301Y0217407D01*
X0109219Y0217425D01*
X0109138Y0217448D01*
X0109059Y0217474D01*
X0108981Y0217504D01*
X0108904Y0217538D01*
X0108829Y0217575D01*
X0108756Y0217615D01*
X0108685Y0217660D01*
X0108616Y0217707D01*
X0108549Y0217758D01*
X0108485Y0217811D01*
X0108423Y0217868D01*
X0108365Y0217928D01*
X0108309Y0217990D01*
X0108256Y0218055D01*
X0108206Y0218122D01*
X0108159Y0218191D01*
X0108116Y0218263D01*
X0108076Y0218337D01*
X0108040Y0218412D01*
X0108007Y0218489D01*
X0107978Y0218568D01*
X0107953Y0218647D01*
X0107931Y0218728D01*
X0107914Y0218810D01*
X0107900Y0218893D01*
X0107890Y0218976D01*
X0107884Y0219059D01*
X0107882Y0219143D01*
X0107882Y0199457D02*
X0107884Y0199541D01*
X0107890Y0199624D01*
X0107900Y0199707D01*
X0107914Y0199790D01*
X0107931Y0199872D01*
X0107953Y0199953D01*
X0107978Y0200032D01*
X0108007Y0200111D01*
X0108040Y0200188D01*
X0108076Y0200263D01*
X0108116Y0200337D01*
X0108159Y0200409D01*
X0108206Y0200478D01*
X0108256Y0200545D01*
X0108309Y0200610D01*
X0108365Y0200672D01*
X0108423Y0200732D01*
X0108485Y0200789D01*
X0108549Y0200842D01*
X0108616Y0200893D01*
X0108685Y0200940D01*
X0108756Y0200985D01*
X0108829Y0201025D01*
X0108904Y0201062D01*
X0108981Y0201096D01*
X0109059Y0201126D01*
X0109138Y0201152D01*
X0109219Y0201175D01*
X0109301Y0201193D01*
X0109383Y0201208D01*
X0109466Y0201219D01*
X0109549Y0201226D01*
X0109633Y0201229D01*
X0109717Y0201228D01*
X0109800Y0201223D01*
X0109884Y0201214D01*
X0109966Y0201201D01*
X0110048Y0201185D01*
X0110129Y0201164D01*
X0110210Y0201140D01*
X0110288Y0201112D01*
X0110366Y0201080D01*
X0110442Y0201044D01*
X0110516Y0201005D01*
X0110588Y0200963D01*
X0110658Y0200917D01*
X0110726Y0200868D01*
X0110791Y0200816D01*
X0110854Y0200761D01*
X0110914Y0200703D01*
X0110972Y0200642D01*
X0111026Y0200578D01*
X0111078Y0200512D01*
X0111126Y0200444D01*
X0111171Y0200373D01*
X0111212Y0200300D01*
X0111251Y0200226D01*
X0111285Y0200150D01*
X0111316Y0200072D01*
X0111343Y0199993D01*
X0111367Y0199912D01*
X0111386Y0199831D01*
X0111402Y0199749D01*
X0111414Y0199666D01*
X0111422Y0199582D01*
X0111426Y0199499D01*
X0111426Y0199415D01*
X0111422Y0199332D01*
X0111414Y0199248D01*
X0111402Y0199165D01*
X0111386Y0199083D01*
X0111367Y0199002D01*
X0111343Y0198921D01*
X0111316Y0198842D01*
X0111285Y0198764D01*
X0111251Y0198688D01*
X0111212Y0198614D01*
X0111171Y0198541D01*
X0111126Y0198470D01*
X0111078Y0198402D01*
X0111026Y0198336D01*
X0110972Y0198272D01*
X0110914Y0198211D01*
X0110854Y0198153D01*
X0110791Y0198098D01*
X0110726Y0198046D01*
X0110658Y0197997D01*
X0110588Y0197951D01*
X0110516Y0197909D01*
X0110442Y0197870D01*
X0110366Y0197834D01*
X0110288Y0197802D01*
X0110210Y0197774D01*
X0110129Y0197750D01*
X0110048Y0197729D01*
X0109966Y0197713D01*
X0109884Y0197700D01*
X0109800Y0197691D01*
X0109717Y0197686D01*
X0109633Y0197685D01*
X0109549Y0197688D01*
X0109466Y0197695D01*
X0109383Y0197706D01*
X0109301Y0197721D01*
X0109219Y0197739D01*
X0109138Y0197762D01*
X0109059Y0197788D01*
X0108981Y0197818D01*
X0108904Y0197852D01*
X0108829Y0197889D01*
X0108756Y0197929D01*
X0108685Y0197974D01*
X0108616Y0198021D01*
X0108549Y0198072D01*
X0108485Y0198125D01*
X0108423Y0198182D01*
X0108365Y0198242D01*
X0108309Y0198304D01*
X0108256Y0198369D01*
X0108206Y0198436D01*
X0108159Y0198505D01*
X0108116Y0198577D01*
X0108076Y0198651D01*
X0108040Y0198726D01*
X0108007Y0198803D01*
X0107978Y0198882D01*
X0107953Y0198961D01*
X0107931Y0199042D01*
X0107914Y0199124D01*
X0107900Y0199207D01*
X0107890Y0199290D01*
X0107884Y0199373D01*
X0107882Y0199457D01*
X0108493Y0189615D02*
X0107883Y0187331D01*
X0111426Y0187331D01*
X0110816Y0189615D01*
X0062371Y0543946D02*
X0062373Y0544030D01*
X0062379Y0544113D01*
X0062389Y0544196D01*
X0062403Y0544279D01*
X0062420Y0544361D01*
X0062442Y0544442D01*
X0062467Y0544521D01*
X0062496Y0544600D01*
X0062529Y0544677D01*
X0062565Y0544752D01*
X0062605Y0544826D01*
X0062648Y0544898D01*
X0062695Y0544967D01*
X0062745Y0545034D01*
X0062798Y0545099D01*
X0062854Y0545161D01*
X0062912Y0545221D01*
X0062974Y0545278D01*
X0063038Y0545331D01*
X0063105Y0545382D01*
X0063174Y0545429D01*
X0063245Y0545474D01*
X0063318Y0545514D01*
X0063393Y0545551D01*
X0063470Y0545585D01*
X0063548Y0545615D01*
X0063627Y0545641D01*
X0063708Y0545664D01*
X0063790Y0545682D01*
X0063872Y0545697D01*
X0063955Y0545708D01*
X0064038Y0545715D01*
X0064122Y0545718D01*
X0064206Y0545717D01*
X0064289Y0545712D01*
X0064373Y0545703D01*
X0064455Y0545690D01*
X0064537Y0545674D01*
X0064618Y0545653D01*
X0064699Y0545629D01*
X0064777Y0545601D01*
X0064855Y0545569D01*
X0064931Y0545533D01*
X0065005Y0545494D01*
X0065077Y0545452D01*
X0065147Y0545406D01*
X0065215Y0545357D01*
X0065280Y0545305D01*
X0065343Y0545250D01*
X0065403Y0545192D01*
X0065461Y0545131D01*
X0065515Y0545067D01*
X0065567Y0545001D01*
X0065615Y0544933D01*
X0065660Y0544862D01*
X0065701Y0544789D01*
X0065740Y0544715D01*
X0065774Y0544639D01*
X0065805Y0544561D01*
X0065832Y0544482D01*
X0065856Y0544401D01*
X0065875Y0544320D01*
X0065891Y0544238D01*
X0065903Y0544155D01*
X0065911Y0544071D01*
X0065915Y0543988D01*
X0065915Y0543904D01*
X0065911Y0543821D01*
X0065903Y0543737D01*
X0065891Y0543654D01*
X0065875Y0543572D01*
X0065856Y0543491D01*
X0065832Y0543410D01*
X0065805Y0543331D01*
X0065774Y0543253D01*
X0065740Y0543177D01*
X0065701Y0543103D01*
X0065660Y0543030D01*
X0065615Y0542959D01*
X0065567Y0542891D01*
X0065515Y0542825D01*
X0065461Y0542761D01*
X0065403Y0542700D01*
X0065343Y0542642D01*
X0065280Y0542587D01*
X0065215Y0542535D01*
X0065147Y0542486D01*
X0065077Y0542440D01*
X0065005Y0542398D01*
X0064931Y0542359D01*
X0064855Y0542323D01*
X0064777Y0542291D01*
X0064699Y0542263D01*
X0064618Y0542239D01*
X0064537Y0542218D01*
X0064455Y0542202D01*
X0064373Y0542189D01*
X0064289Y0542180D01*
X0064206Y0542175D01*
X0064122Y0542174D01*
X0064038Y0542177D01*
X0063955Y0542184D01*
X0063872Y0542195D01*
X0063790Y0542210D01*
X0063708Y0542228D01*
X0063627Y0542251D01*
X0063548Y0542277D01*
X0063470Y0542307D01*
X0063393Y0542341D01*
X0063318Y0542378D01*
X0063245Y0542418D01*
X0063174Y0542463D01*
X0063105Y0542510D01*
X0063038Y0542561D01*
X0062974Y0542614D01*
X0062912Y0542671D01*
X0062854Y0542731D01*
X0062798Y0542793D01*
X0062745Y0542858D01*
X0062695Y0542925D01*
X0062648Y0542994D01*
X0062605Y0543066D01*
X0062565Y0543140D01*
X0062529Y0543215D01*
X0062496Y0543292D01*
X0062467Y0543371D01*
X0062442Y0543450D01*
X0062420Y0543531D01*
X0062403Y0543613D01*
X0062389Y0543696D01*
X0062379Y0543779D01*
X0062373Y0543862D01*
X0062371Y0543946D01*
X0042685Y0543946D02*
X0042687Y0544030D01*
X0042693Y0544113D01*
X0042703Y0544196D01*
X0042717Y0544279D01*
X0042734Y0544361D01*
X0042756Y0544442D01*
X0042781Y0544521D01*
X0042810Y0544600D01*
X0042843Y0544677D01*
X0042879Y0544752D01*
X0042919Y0544826D01*
X0042962Y0544898D01*
X0043009Y0544967D01*
X0043059Y0545034D01*
X0043112Y0545099D01*
X0043168Y0545161D01*
X0043226Y0545221D01*
X0043288Y0545278D01*
X0043352Y0545331D01*
X0043419Y0545382D01*
X0043488Y0545429D01*
X0043559Y0545474D01*
X0043632Y0545514D01*
X0043707Y0545551D01*
X0043784Y0545585D01*
X0043862Y0545615D01*
X0043941Y0545641D01*
X0044022Y0545664D01*
X0044104Y0545682D01*
X0044186Y0545697D01*
X0044269Y0545708D01*
X0044352Y0545715D01*
X0044436Y0545718D01*
X0044520Y0545717D01*
X0044603Y0545712D01*
X0044687Y0545703D01*
X0044769Y0545690D01*
X0044851Y0545674D01*
X0044932Y0545653D01*
X0045013Y0545629D01*
X0045091Y0545601D01*
X0045169Y0545569D01*
X0045245Y0545533D01*
X0045319Y0545494D01*
X0045391Y0545452D01*
X0045461Y0545406D01*
X0045529Y0545357D01*
X0045594Y0545305D01*
X0045657Y0545250D01*
X0045717Y0545192D01*
X0045775Y0545131D01*
X0045829Y0545067D01*
X0045881Y0545001D01*
X0045929Y0544933D01*
X0045974Y0544862D01*
X0046015Y0544789D01*
X0046054Y0544715D01*
X0046088Y0544639D01*
X0046119Y0544561D01*
X0046146Y0544482D01*
X0046170Y0544401D01*
X0046189Y0544320D01*
X0046205Y0544238D01*
X0046217Y0544155D01*
X0046225Y0544071D01*
X0046229Y0543988D01*
X0046229Y0543904D01*
X0046225Y0543821D01*
X0046217Y0543737D01*
X0046205Y0543654D01*
X0046189Y0543572D01*
X0046170Y0543491D01*
X0046146Y0543410D01*
X0046119Y0543331D01*
X0046088Y0543253D01*
X0046054Y0543177D01*
X0046015Y0543103D01*
X0045974Y0543030D01*
X0045929Y0542959D01*
X0045881Y0542891D01*
X0045829Y0542825D01*
X0045775Y0542761D01*
X0045717Y0542700D01*
X0045657Y0542642D01*
X0045594Y0542587D01*
X0045529Y0542535D01*
X0045461Y0542486D01*
X0045391Y0542440D01*
X0045319Y0542398D01*
X0045245Y0542359D01*
X0045169Y0542323D01*
X0045091Y0542291D01*
X0045013Y0542263D01*
X0044932Y0542239D01*
X0044851Y0542218D01*
X0044769Y0542202D01*
X0044687Y0542189D01*
X0044603Y0542180D01*
X0044520Y0542175D01*
X0044436Y0542174D01*
X0044352Y0542177D01*
X0044269Y0542184D01*
X0044186Y0542195D01*
X0044104Y0542210D01*
X0044022Y0542228D01*
X0043941Y0542251D01*
X0043862Y0542277D01*
X0043784Y0542307D01*
X0043707Y0542341D01*
X0043632Y0542378D01*
X0043559Y0542418D01*
X0043488Y0542463D01*
X0043419Y0542510D01*
X0043352Y0542561D01*
X0043288Y0542614D01*
X0043226Y0542671D01*
X0043168Y0542731D01*
X0043112Y0542793D01*
X0043059Y0542858D01*
X0043009Y0542925D01*
X0042962Y0542994D01*
X0042919Y0543066D01*
X0042879Y0543140D01*
X0042843Y0543215D01*
X0042810Y0543292D01*
X0042781Y0543371D01*
X0042756Y0543450D01*
X0042734Y0543531D01*
X0042717Y0543613D01*
X0042703Y0543696D01*
X0042693Y0543779D01*
X0042687Y0543862D01*
X0042685Y0543946D01*
X0034615Y0545107D02*
X0032331Y0545717D01*
X0032331Y0542174D01*
X0034615Y0542784D01*
X0073985Y0618493D02*
X0076269Y0617883D01*
X0076269Y0621426D01*
X0073985Y0620816D01*
X0062371Y0619654D02*
X0062373Y0619738D01*
X0062379Y0619821D01*
X0062389Y0619904D01*
X0062403Y0619987D01*
X0062420Y0620069D01*
X0062442Y0620150D01*
X0062467Y0620229D01*
X0062496Y0620308D01*
X0062529Y0620385D01*
X0062565Y0620460D01*
X0062605Y0620534D01*
X0062648Y0620606D01*
X0062695Y0620675D01*
X0062745Y0620742D01*
X0062798Y0620807D01*
X0062854Y0620869D01*
X0062912Y0620929D01*
X0062974Y0620986D01*
X0063038Y0621039D01*
X0063105Y0621090D01*
X0063174Y0621137D01*
X0063245Y0621182D01*
X0063318Y0621222D01*
X0063393Y0621259D01*
X0063470Y0621293D01*
X0063548Y0621323D01*
X0063627Y0621349D01*
X0063708Y0621372D01*
X0063790Y0621390D01*
X0063872Y0621405D01*
X0063955Y0621416D01*
X0064038Y0621423D01*
X0064122Y0621426D01*
X0064206Y0621425D01*
X0064289Y0621420D01*
X0064373Y0621411D01*
X0064455Y0621398D01*
X0064537Y0621382D01*
X0064618Y0621361D01*
X0064699Y0621337D01*
X0064777Y0621309D01*
X0064855Y0621277D01*
X0064931Y0621241D01*
X0065005Y0621202D01*
X0065077Y0621160D01*
X0065147Y0621114D01*
X0065215Y0621065D01*
X0065280Y0621013D01*
X0065343Y0620958D01*
X0065403Y0620900D01*
X0065461Y0620839D01*
X0065515Y0620775D01*
X0065567Y0620709D01*
X0065615Y0620641D01*
X0065660Y0620570D01*
X0065701Y0620497D01*
X0065740Y0620423D01*
X0065774Y0620347D01*
X0065805Y0620269D01*
X0065832Y0620190D01*
X0065856Y0620109D01*
X0065875Y0620028D01*
X0065891Y0619946D01*
X0065903Y0619863D01*
X0065911Y0619779D01*
X0065915Y0619696D01*
X0065915Y0619612D01*
X0065911Y0619529D01*
X0065903Y0619445D01*
X0065891Y0619362D01*
X0065875Y0619280D01*
X0065856Y0619199D01*
X0065832Y0619118D01*
X0065805Y0619039D01*
X0065774Y0618961D01*
X0065740Y0618885D01*
X0065701Y0618811D01*
X0065660Y0618738D01*
X0065615Y0618667D01*
X0065567Y0618599D01*
X0065515Y0618533D01*
X0065461Y0618469D01*
X0065403Y0618408D01*
X0065343Y0618350D01*
X0065280Y0618295D01*
X0065215Y0618243D01*
X0065147Y0618194D01*
X0065077Y0618148D01*
X0065005Y0618106D01*
X0064931Y0618067D01*
X0064855Y0618031D01*
X0064777Y0617999D01*
X0064699Y0617971D01*
X0064618Y0617947D01*
X0064537Y0617926D01*
X0064455Y0617910D01*
X0064373Y0617897D01*
X0064289Y0617888D01*
X0064206Y0617883D01*
X0064122Y0617882D01*
X0064038Y0617885D01*
X0063955Y0617892D01*
X0063872Y0617903D01*
X0063790Y0617918D01*
X0063708Y0617936D01*
X0063627Y0617959D01*
X0063548Y0617985D01*
X0063470Y0618015D01*
X0063393Y0618049D01*
X0063318Y0618086D01*
X0063245Y0618126D01*
X0063174Y0618171D01*
X0063105Y0618218D01*
X0063038Y0618269D01*
X0062974Y0618322D01*
X0062912Y0618379D01*
X0062854Y0618439D01*
X0062798Y0618501D01*
X0062745Y0618566D01*
X0062695Y0618633D01*
X0062648Y0618702D01*
X0062605Y0618774D01*
X0062565Y0618848D01*
X0062529Y0618923D01*
X0062496Y0619000D01*
X0062467Y0619079D01*
X0062442Y0619158D01*
X0062420Y0619239D01*
X0062403Y0619321D01*
X0062389Y0619404D01*
X0062379Y0619487D01*
X0062373Y0619570D01*
X0062371Y0619654D01*
X0042685Y0619654D02*
X0042687Y0619738D01*
X0042693Y0619821D01*
X0042703Y0619904D01*
X0042717Y0619987D01*
X0042734Y0620069D01*
X0042756Y0620150D01*
X0042781Y0620229D01*
X0042810Y0620308D01*
X0042843Y0620385D01*
X0042879Y0620460D01*
X0042919Y0620534D01*
X0042962Y0620606D01*
X0043009Y0620675D01*
X0043059Y0620742D01*
X0043112Y0620807D01*
X0043168Y0620869D01*
X0043226Y0620929D01*
X0043288Y0620986D01*
X0043352Y0621039D01*
X0043419Y0621090D01*
X0043488Y0621137D01*
X0043559Y0621182D01*
X0043632Y0621222D01*
X0043707Y0621259D01*
X0043784Y0621293D01*
X0043862Y0621323D01*
X0043941Y0621349D01*
X0044022Y0621372D01*
X0044104Y0621390D01*
X0044186Y0621405D01*
X0044269Y0621416D01*
X0044352Y0621423D01*
X0044436Y0621426D01*
X0044520Y0621425D01*
X0044603Y0621420D01*
X0044687Y0621411D01*
X0044769Y0621398D01*
X0044851Y0621382D01*
X0044932Y0621361D01*
X0045013Y0621337D01*
X0045091Y0621309D01*
X0045169Y0621277D01*
X0045245Y0621241D01*
X0045319Y0621202D01*
X0045391Y0621160D01*
X0045461Y0621114D01*
X0045529Y0621065D01*
X0045594Y0621013D01*
X0045657Y0620958D01*
X0045717Y0620900D01*
X0045775Y0620839D01*
X0045829Y0620775D01*
X0045881Y0620709D01*
X0045929Y0620641D01*
X0045974Y0620570D01*
X0046015Y0620497D01*
X0046054Y0620423D01*
X0046088Y0620347D01*
X0046119Y0620269D01*
X0046146Y0620190D01*
X0046170Y0620109D01*
X0046189Y0620028D01*
X0046205Y0619946D01*
X0046217Y0619863D01*
X0046225Y0619779D01*
X0046229Y0619696D01*
X0046229Y0619612D01*
X0046225Y0619529D01*
X0046217Y0619445D01*
X0046205Y0619362D01*
X0046189Y0619280D01*
X0046170Y0619199D01*
X0046146Y0619118D01*
X0046119Y0619039D01*
X0046088Y0618961D01*
X0046054Y0618885D01*
X0046015Y0618811D01*
X0045974Y0618738D01*
X0045929Y0618667D01*
X0045881Y0618599D01*
X0045829Y0618533D01*
X0045775Y0618469D01*
X0045717Y0618408D01*
X0045657Y0618350D01*
X0045594Y0618295D01*
X0045529Y0618243D01*
X0045461Y0618194D01*
X0045391Y0618148D01*
X0045319Y0618106D01*
X0045245Y0618067D01*
X0045169Y0618031D01*
X0045091Y0617999D01*
X0045013Y0617971D01*
X0044932Y0617947D01*
X0044851Y0617926D01*
X0044769Y0617910D01*
X0044687Y0617897D01*
X0044603Y0617888D01*
X0044520Y0617883D01*
X0044436Y0617882D01*
X0044352Y0617885D01*
X0044269Y0617892D01*
X0044186Y0617903D01*
X0044104Y0617918D01*
X0044022Y0617936D01*
X0043941Y0617959D01*
X0043862Y0617985D01*
X0043784Y0618015D01*
X0043707Y0618049D01*
X0043632Y0618086D01*
X0043559Y0618126D01*
X0043488Y0618171D01*
X0043419Y0618218D01*
X0043352Y0618269D01*
X0043288Y0618322D01*
X0043226Y0618379D01*
X0043168Y0618439D01*
X0043112Y0618501D01*
X0043059Y0618566D01*
X0043009Y0618633D01*
X0042962Y0618702D01*
X0042919Y0618774D01*
X0042879Y0618848D01*
X0042843Y0618923D01*
X0042810Y0619000D01*
X0042781Y0619079D01*
X0042756Y0619158D01*
X0042734Y0619239D01*
X0042717Y0619321D01*
X0042703Y0619404D01*
X0042693Y0619487D01*
X0042687Y0619570D01*
X0042685Y0619654D01*
X0097685Y0619654D02*
X0097687Y0619738D01*
X0097693Y0619821D01*
X0097703Y0619904D01*
X0097717Y0619987D01*
X0097734Y0620069D01*
X0097756Y0620150D01*
X0097781Y0620229D01*
X0097810Y0620308D01*
X0097843Y0620385D01*
X0097879Y0620460D01*
X0097919Y0620534D01*
X0097962Y0620606D01*
X0098009Y0620675D01*
X0098059Y0620742D01*
X0098112Y0620807D01*
X0098168Y0620869D01*
X0098226Y0620929D01*
X0098288Y0620986D01*
X0098352Y0621039D01*
X0098419Y0621090D01*
X0098488Y0621137D01*
X0098559Y0621182D01*
X0098632Y0621222D01*
X0098707Y0621259D01*
X0098784Y0621293D01*
X0098862Y0621323D01*
X0098941Y0621349D01*
X0099022Y0621372D01*
X0099104Y0621390D01*
X0099186Y0621405D01*
X0099269Y0621416D01*
X0099352Y0621423D01*
X0099436Y0621426D01*
X0099520Y0621425D01*
X0099603Y0621420D01*
X0099687Y0621411D01*
X0099769Y0621398D01*
X0099851Y0621382D01*
X0099932Y0621361D01*
X0100013Y0621337D01*
X0100091Y0621309D01*
X0100169Y0621277D01*
X0100245Y0621241D01*
X0100319Y0621202D01*
X0100391Y0621160D01*
X0100461Y0621114D01*
X0100529Y0621065D01*
X0100594Y0621013D01*
X0100657Y0620958D01*
X0100717Y0620900D01*
X0100775Y0620839D01*
X0100829Y0620775D01*
X0100881Y0620709D01*
X0100929Y0620641D01*
X0100974Y0620570D01*
X0101015Y0620497D01*
X0101054Y0620423D01*
X0101088Y0620347D01*
X0101119Y0620269D01*
X0101146Y0620190D01*
X0101170Y0620109D01*
X0101189Y0620028D01*
X0101205Y0619946D01*
X0101217Y0619863D01*
X0101225Y0619779D01*
X0101229Y0619696D01*
X0101229Y0619612D01*
X0101225Y0619529D01*
X0101217Y0619445D01*
X0101205Y0619362D01*
X0101189Y0619280D01*
X0101170Y0619199D01*
X0101146Y0619118D01*
X0101119Y0619039D01*
X0101088Y0618961D01*
X0101054Y0618885D01*
X0101015Y0618811D01*
X0100974Y0618738D01*
X0100929Y0618667D01*
X0100881Y0618599D01*
X0100829Y0618533D01*
X0100775Y0618469D01*
X0100717Y0618408D01*
X0100657Y0618350D01*
X0100594Y0618295D01*
X0100529Y0618243D01*
X0100461Y0618194D01*
X0100391Y0618148D01*
X0100319Y0618106D01*
X0100245Y0618067D01*
X0100169Y0618031D01*
X0100091Y0617999D01*
X0100013Y0617971D01*
X0099932Y0617947D01*
X0099851Y0617926D01*
X0099769Y0617910D01*
X0099687Y0617897D01*
X0099603Y0617888D01*
X0099520Y0617883D01*
X0099436Y0617882D01*
X0099352Y0617885D01*
X0099269Y0617892D01*
X0099186Y0617903D01*
X0099104Y0617918D01*
X0099022Y0617936D01*
X0098941Y0617959D01*
X0098862Y0617985D01*
X0098784Y0618015D01*
X0098707Y0618049D01*
X0098632Y0618086D01*
X0098559Y0618126D01*
X0098488Y0618171D01*
X0098419Y0618218D01*
X0098352Y0618269D01*
X0098288Y0618322D01*
X0098226Y0618379D01*
X0098168Y0618439D01*
X0098112Y0618501D01*
X0098059Y0618566D01*
X0098009Y0618633D01*
X0097962Y0618702D01*
X0097919Y0618774D01*
X0097879Y0618848D01*
X0097843Y0618923D01*
X0097810Y0619000D01*
X0097781Y0619079D01*
X0097756Y0619158D01*
X0097734Y0619239D01*
X0097717Y0619321D01*
X0097703Y0619404D01*
X0097693Y0619487D01*
X0097687Y0619570D01*
X0097685Y0619654D01*
X0117371Y0619654D02*
X0117373Y0619738D01*
X0117379Y0619821D01*
X0117389Y0619904D01*
X0117403Y0619987D01*
X0117420Y0620069D01*
X0117442Y0620150D01*
X0117467Y0620229D01*
X0117496Y0620308D01*
X0117529Y0620385D01*
X0117565Y0620460D01*
X0117605Y0620534D01*
X0117648Y0620606D01*
X0117695Y0620675D01*
X0117745Y0620742D01*
X0117798Y0620807D01*
X0117854Y0620869D01*
X0117912Y0620929D01*
X0117974Y0620986D01*
X0118038Y0621039D01*
X0118105Y0621090D01*
X0118174Y0621137D01*
X0118245Y0621182D01*
X0118318Y0621222D01*
X0118393Y0621259D01*
X0118470Y0621293D01*
X0118548Y0621323D01*
X0118627Y0621349D01*
X0118708Y0621372D01*
X0118790Y0621390D01*
X0118872Y0621405D01*
X0118955Y0621416D01*
X0119038Y0621423D01*
X0119122Y0621426D01*
X0119206Y0621425D01*
X0119289Y0621420D01*
X0119373Y0621411D01*
X0119455Y0621398D01*
X0119537Y0621382D01*
X0119618Y0621361D01*
X0119699Y0621337D01*
X0119777Y0621309D01*
X0119855Y0621277D01*
X0119931Y0621241D01*
X0120005Y0621202D01*
X0120077Y0621160D01*
X0120147Y0621114D01*
X0120215Y0621065D01*
X0120280Y0621013D01*
X0120343Y0620958D01*
X0120403Y0620900D01*
X0120461Y0620839D01*
X0120515Y0620775D01*
X0120567Y0620709D01*
X0120615Y0620641D01*
X0120660Y0620570D01*
X0120701Y0620497D01*
X0120740Y0620423D01*
X0120774Y0620347D01*
X0120805Y0620269D01*
X0120832Y0620190D01*
X0120856Y0620109D01*
X0120875Y0620028D01*
X0120891Y0619946D01*
X0120903Y0619863D01*
X0120911Y0619779D01*
X0120915Y0619696D01*
X0120915Y0619612D01*
X0120911Y0619529D01*
X0120903Y0619445D01*
X0120891Y0619362D01*
X0120875Y0619280D01*
X0120856Y0619199D01*
X0120832Y0619118D01*
X0120805Y0619039D01*
X0120774Y0618961D01*
X0120740Y0618885D01*
X0120701Y0618811D01*
X0120660Y0618738D01*
X0120615Y0618667D01*
X0120567Y0618599D01*
X0120515Y0618533D01*
X0120461Y0618469D01*
X0120403Y0618408D01*
X0120343Y0618350D01*
X0120280Y0618295D01*
X0120215Y0618243D01*
X0120147Y0618194D01*
X0120077Y0618148D01*
X0120005Y0618106D01*
X0119931Y0618067D01*
X0119855Y0618031D01*
X0119777Y0617999D01*
X0119699Y0617971D01*
X0119618Y0617947D01*
X0119537Y0617926D01*
X0119455Y0617910D01*
X0119373Y0617897D01*
X0119289Y0617888D01*
X0119206Y0617883D01*
X0119122Y0617882D01*
X0119038Y0617885D01*
X0118955Y0617892D01*
X0118872Y0617903D01*
X0118790Y0617918D01*
X0118708Y0617936D01*
X0118627Y0617959D01*
X0118548Y0617985D01*
X0118470Y0618015D01*
X0118393Y0618049D01*
X0118318Y0618086D01*
X0118245Y0618126D01*
X0118174Y0618171D01*
X0118105Y0618218D01*
X0118038Y0618269D01*
X0117974Y0618322D01*
X0117912Y0618379D01*
X0117854Y0618439D01*
X0117798Y0618501D01*
X0117745Y0618566D01*
X0117695Y0618633D01*
X0117648Y0618702D01*
X0117605Y0618774D01*
X0117565Y0618848D01*
X0117529Y0618923D01*
X0117496Y0619000D01*
X0117467Y0619079D01*
X0117442Y0619158D01*
X0117420Y0619239D01*
X0117403Y0619321D01*
X0117389Y0619404D01*
X0117379Y0619487D01*
X0117373Y0619570D01*
X0117371Y0619654D01*
X0128985Y0618493D02*
X0131269Y0617883D01*
X0131269Y0621426D01*
X0128985Y0620816D01*
X0552331Y0610717D02*
X0552331Y0607174D01*
X0554615Y0607784D01*
X0554615Y0610107D02*
X0552331Y0610717D01*
X0562685Y0608946D02*
X0562687Y0609030D01*
X0562693Y0609113D01*
X0562703Y0609196D01*
X0562717Y0609279D01*
X0562734Y0609361D01*
X0562756Y0609442D01*
X0562781Y0609521D01*
X0562810Y0609600D01*
X0562843Y0609677D01*
X0562879Y0609752D01*
X0562919Y0609826D01*
X0562962Y0609898D01*
X0563009Y0609967D01*
X0563059Y0610034D01*
X0563112Y0610099D01*
X0563168Y0610161D01*
X0563226Y0610221D01*
X0563288Y0610278D01*
X0563352Y0610331D01*
X0563419Y0610382D01*
X0563488Y0610429D01*
X0563559Y0610474D01*
X0563632Y0610514D01*
X0563707Y0610551D01*
X0563784Y0610585D01*
X0563862Y0610615D01*
X0563941Y0610641D01*
X0564022Y0610664D01*
X0564104Y0610682D01*
X0564186Y0610697D01*
X0564269Y0610708D01*
X0564352Y0610715D01*
X0564436Y0610718D01*
X0564520Y0610717D01*
X0564603Y0610712D01*
X0564687Y0610703D01*
X0564769Y0610690D01*
X0564851Y0610674D01*
X0564932Y0610653D01*
X0565013Y0610629D01*
X0565091Y0610601D01*
X0565169Y0610569D01*
X0565245Y0610533D01*
X0565319Y0610494D01*
X0565391Y0610452D01*
X0565461Y0610406D01*
X0565529Y0610357D01*
X0565594Y0610305D01*
X0565657Y0610250D01*
X0565717Y0610192D01*
X0565775Y0610131D01*
X0565829Y0610067D01*
X0565881Y0610001D01*
X0565929Y0609933D01*
X0565974Y0609862D01*
X0566015Y0609789D01*
X0566054Y0609715D01*
X0566088Y0609639D01*
X0566119Y0609561D01*
X0566146Y0609482D01*
X0566170Y0609401D01*
X0566189Y0609320D01*
X0566205Y0609238D01*
X0566217Y0609155D01*
X0566225Y0609071D01*
X0566229Y0608988D01*
X0566229Y0608904D01*
X0566225Y0608821D01*
X0566217Y0608737D01*
X0566205Y0608654D01*
X0566189Y0608572D01*
X0566170Y0608491D01*
X0566146Y0608410D01*
X0566119Y0608331D01*
X0566088Y0608253D01*
X0566054Y0608177D01*
X0566015Y0608103D01*
X0565974Y0608030D01*
X0565929Y0607959D01*
X0565881Y0607891D01*
X0565829Y0607825D01*
X0565775Y0607761D01*
X0565717Y0607700D01*
X0565657Y0607642D01*
X0565594Y0607587D01*
X0565529Y0607535D01*
X0565461Y0607486D01*
X0565391Y0607440D01*
X0565319Y0607398D01*
X0565245Y0607359D01*
X0565169Y0607323D01*
X0565091Y0607291D01*
X0565013Y0607263D01*
X0564932Y0607239D01*
X0564851Y0607218D01*
X0564769Y0607202D01*
X0564687Y0607189D01*
X0564603Y0607180D01*
X0564520Y0607175D01*
X0564436Y0607174D01*
X0564352Y0607177D01*
X0564269Y0607184D01*
X0564186Y0607195D01*
X0564104Y0607210D01*
X0564022Y0607228D01*
X0563941Y0607251D01*
X0563862Y0607277D01*
X0563784Y0607307D01*
X0563707Y0607341D01*
X0563632Y0607378D01*
X0563559Y0607418D01*
X0563488Y0607463D01*
X0563419Y0607510D01*
X0563352Y0607561D01*
X0563288Y0607614D01*
X0563226Y0607671D01*
X0563168Y0607731D01*
X0563112Y0607793D01*
X0563059Y0607858D01*
X0563009Y0607925D01*
X0562962Y0607994D01*
X0562919Y0608066D01*
X0562879Y0608140D01*
X0562843Y0608215D01*
X0562810Y0608292D01*
X0562781Y0608371D01*
X0562756Y0608450D01*
X0562734Y0608531D01*
X0562717Y0608613D01*
X0562703Y0608696D01*
X0562693Y0608779D01*
X0562687Y0608862D01*
X0562685Y0608946D01*
X0582371Y0608946D02*
X0582373Y0609030D01*
X0582379Y0609113D01*
X0582389Y0609196D01*
X0582403Y0609279D01*
X0582420Y0609361D01*
X0582442Y0609442D01*
X0582467Y0609521D01*
X0582496Y0609600D01*
X0582529Y0609677D01*
X0582565Y0609752D01*
X0582605Y0609826D01*
X0582648Y0609898D01*
X0582695Y0609967D01*
X0582745Y0610034D01*
X0582798Y0610099D01*
X0582854Y0610161D01*
X0582912Y0610221D01*
X0582974Y0610278D01*
X0583038Y0610331D01*
X0583105Y0610382D01*
X0583174Y0610429D01*
X0583245Y0610474D01*
X0583318Y0610514D01*
X0583393Y0610551D01*
X0583470Y0610585D01*
X0583548Y0610615D01*
X0583627Y0610641D01*
X0583708Y0610664D01*
X0583790Y0610682D01*
X0583872Y0610697D01*
X0583955Y0610708D01*
X0584038Y0610715D01*
X0584122Y0610718D01*
X0584206Y0610717D01*
X0584289Y0610712D01*
X0584373Y0610703D01*
X0584455Y0610690D01*
X0584537Y0610674D01*
X0584618Y0610653D01*
X0584699Y0610629D01*
X0584777Y0610601D01*
X0584855Y0610569D01*
X0584931Y0610533D01*
X0585005Y0610494D01*
X0585077Y0610452D01*
X0585147Y0610406D01*
X0585215Y0610357D01*
X0585280Y0610305D01*
X0585343Y0610250D01*
X0585403Y0610192D01*
X0585461Y0610131D01*
X0585515Y0610067D01*
X0585567Y0610001D01*
X0585615Y0609933D01*
X0585660Y0609862D01*
X0585701Y0609789D01*
X0585740Y0609715D01*
X0585774Y0609639D01*
X0585805Y0609561D01*
X0585832Y0609482D01*
X0585856Y0609401D01*
X0585875Y0609320D01*
X0585891Y0609238D01*
X0585903Y0609155D01*
X0585911Y0609071D01*
X0585915Y0608988D01*
X0585915Y0608904D01*
X0585911Y0608821D01*
X0585903Y0608737D01*
X0585891Y0608654D01*
X0585875Y0608572D01*
X0585856Y0608491D01*
X0585832Y0608410D01*
X0585805Y0608331D01*
X0585774Y0608253D01*
X0585740Y0608177D01*
X0585701Y0608103D01*
X0585660Y0608030D01*
X0585615Y0607959D01*
X0585567Y0607891D01*
X0585515Y0607825D01*
X0585461Y0607761D01*
X0585403Y0607700D01*
X0585343Y0607642D01*
X0585280Y0607587D01*
X0585215Y0607535D01*
X0585147Y0607486D01*
X0585077Y0607440D01*
X0585005Y0607398D01*
X0584931Y0607359D01*
X0584855Y0607323D01*
X0584777Y0607291D01*
X0584699Y0607263D01*
X0584618Y0607239D01*
X0584537Y0607218D01*
X0584455Y0607202D01*
X0584373Y0607189D01*
X0584289Y0607180D01*
X0584206Y0607175D01*
X0584122Y0607174D01*
X0584038Y0607177D01*
X0583955Y0607184D01*
X0583872Y0607195D01*
X0583790Y0607210D01*
X0583708Y0607228D01*
X0583627Y0607251D01*
X0583548Y0607277D01*
X0583470Y0607307D01*
X0583393Y0607341D01*
X0583318Y0607378D01*
X0583245Y0607418D01*
X0583174Y0607463D01*
X0583105Y0607510D01*
X0583038Y0607561D01*
X0582974Y0607614D01*
X0582912Y0607671D01*
X0582854Y0607731D01*
X0582798Y0607793D01*
X0582745Y0607858D01*
X0582695Y0607925D01*
X0582648Y0607994D01*
X0582605Y0608066D01*
X0582565Y0608140D01*
X0582529Y0608215D01*
X0582496Y0608292D01*
X0582467Y0608371D01*
X0582442Y0608450D01*
X0582420Y0608531D01*
X0582403Y0608613D01*
X0582389Y0608696D01*
X0582379Y0608779D01*
X0582373Y0608862D01*
X0582371Y0608946D01*
X0612331Y0610717D02*
X0612331Y0607174D01*
X0614615Y0607784D01*
X0614615Y0610107D02*
X0612331Y0610717D01*
X0622685Y0608946D02*
X0622687Y0609030D01*
X0622693Y0609113D01*
X0622703Y0609196D01*
X0622717Y0609279D01*
X0622734Y0609361D01*
X0622756Y0609442D01*
X0622781Y0609521D01*
X0622810Y0609600D01*
X0622843Y0609677D01*
X0622879Y0609752D01*
X0622919Y0609826D01*
X0622962Y0609898D01*
X0623009Y0609967D01*
X0623059Y0610034D01*
X0623112Y0610099D01*
X0623168Y0610161D01*
X0623226Y0610221D01*
X0623288Y0610278D01*
X0623352Y0610331D01*
X0623419Y0610382D01*
X0623488Y0610429D01*
X0623559Y0610474D01*
X0623632Y0610514D01*
X0623707Y0610551D01*
X0623784Y0610585D01*
X0623862Y0610615D01*
X0623941Y0610641D01*
X0624022Y0610664D01*
X0624104Y0610682D01*
X0624186Y0610697D01*
X0624269Y0610708D01*
X0624352Y0610715D01*
X0624436Y0610718D01*
X0624520Y0610717D01*
X0624603Y0610712D01*
X0624687Y0610703D01*
X0624769Y0610690D01*
X0624851Y0610674D01*
X0624932Y0610653D01*
X0625013Y0610629D01*
X0625091Y0610601D01*
X0625169Y0610569D01*
X0625245Y0610533D01*
X0625319Y0610494D01*
X0625391Y0610452D01*
X0625461Y0610406D01*
X0625529Y0610357D01*
X0625594Y0610305D01*
X0625657Y0610250D01*
X0625717Y0610192D01*
X0625775Y0610131D01*
X0625829Y0610067D01*
X0625881Y0610001D01*
X0625929Y0609933D01*
X0625974Y0609862D01*
X0626015Y0609789D01*
X0626054Y0609715D01*
X0626088Y0609639D01*
X0626119Y0609561D01*
X0626146Y0609482D01*
X0626170Y0609401D01*
X0626189Y0609320D01*
X0626205Y0609238D01*
X0626217Y0609155D01*
X0626225Y0609071D01*
X0626229Y0608988D01*
X0626229Y0608904D01*
X0626225Y0608821D01*
X0626217Y0608737D01*
X0626205Y0608654D01*
X0626189Y0608572D01*
X0626170Y0608491D01*
X0626146Y0608410D01*
X0626119Y0608331D01*
X0626088Y0608253D01*
X0626054Y0608177D01*
X0626015Y0608103D01*
X0625974Y0608030D01*
X0625929Y0607959D01*
X0625881Y0607891D01*
X0625829Y0607825D01*
X0625775Y0607761D01*
X0625717Y0607700D01*
X0625657Y0607642D01*
X0625594Y0607587D01*
X0625529Y0607535D01*
X0625461Y0607486D01*
X0625391Y0607440D01*
X0625319Y0607398D01*
X0625245Y0607359D01*
X0625169Y0607323D01*
X0625091Y0607291D01*
X0625013Y0607263D01*
X0624932Y0607239D01*
X0624851Y0607218D01*
X0624769Y0607202D01*
X0624687Y0607189D01*
X0624603Y0607180D01*
X0624520Y0607175D01*
X0624436Y0607174D01*
X0624352Y0607177D01*
X0624269Y0607184D01*
X0624186Y0607195D01*
X0624104Y0607210D01*
X0624022Y0607228D01*
X0623941Y0607251D01*
X0623862Y0607277D01*
X0623784Y0607307D01*
X0623707Y0607341D01*
X0623632Y0607378D01*
X0623559Y0607418D01*
X0623488Y0607463D01*
X0623419Y0607510D01*
X0623352Y0607561D01*
X0623288Y0607614D01*
X0623226Y0607671D01*
X0623168Y0607731D01*
X0623112Y0607793D01*
X0623059Y0607858D01*
X0623009Y0607925D01*
X0622962Y0607994D01*
X0622919Y0608066D01*
X0622879Y0608140D01*
X0622843Y0608215D01*
X0622810Y0608292D01*
X0622781Y0608371D01*
X0622756Y0608450D01*
X0622734Y0608531D01*
X0622717Y0608613D01*
X0622703Y0608696D01*
X0622693Y0608779D01*
X0622687Y0608862D01*
X0622685Y0608946D01*
X0642371Y0608946D02*
X0642373Y0609030D01*
X0642379Y0609113D01*
X0642389Y0609196D01*
X0642403Y0609279D01*
X0642420Y0609361D01*
X0642442Y0609442D01*
X0642467Y0609521D01*
X0642496Y0609600D01*
X0642529Y0609677D01*
X0642565Y0609752D01*
X0642605Y0609826D01*
X0642648Y0609898D01*
X0642695Y0609967D01*
X0642745Y0610034D01*
X0642798Y0610099D01*
X0642854Y0610161D01*
X0642912Y0610221D01*
X0642974Y0610278D01*
X0643038Y0610331D01*
X0643105Y0610382D01*
X0643174Y0610429D01*
X0643245Y0610474D01*
X0643318Y0610514D01*
X0643393Y0610551D01*
X0643470Y0610585D01*
X0643548Y0610615D01*
X0643627Y0610641D01*
X0643708Y0610664D01*
X0643790Y0610682D01*
X0643872Y0610697D01*
X0643955Y0610708D01*
X0644038Y0610715D01*
X0644122Y0610718D01*
X0644206Y0610717D01*
X0644289Y0610712D01*
X0644373Y0610703D01*
X0644455Y0610690D01*
X0644537Y0610674D01*
X0644618Y0610653D01*
X0644699Y0610629D01*
X0644777Y0610601D01*
X0644855Y0610569D01*
X0644931Y0610533D01*
X0645005Y0610494D01*
X0645077Y0610452D01*
X0645147Y0610406D01*
X0645215Y0610357D01*
X0645280Y0610305D01*
X0645343Y0610250D01*
X0645403Y0610192D01*
X0645461Y0610131D01*
X0645515Y0610067D01*
X0645567Y0610001D01*
X0645615Y0609933D01*
X0645660Y0609862D01*
X0645701Y0609789D01*
X0645740Y0609715D01*
X0645774Y0609639D01*
X0645805Y0609561D01*
X0645832Y0609482D01*
X0645856Y0609401D01*
X0645875Y0609320D01*
X0645891Y0609238D01*
X0645903Y0609155D01*
X0645911Y0609071D01*
X0645915Y0608988D01*
X0645915Y0608904D01*
X0645911Y0608821D01*
X0645903Y0608737D01*
X0645891Y0608654D01*
X0645875Y0608572D01*
X0645856Y0608491D01*
X0645832Y0608410D01*
X0645805Y0608331D01*
X0645774Y0608253D01*
X0645740Y0608177D01*
X0645701Y0608103D01*
X0645660Y0608030D01*
X0645615Y0607959D01*
X0645567Y0607891D01*
X0645515Y0607825D01*
X0645461Y0607761D01*
X0645403Y0607700D01*
X0645343Y0607642D01*
X0645280Y0607587D01*
X0645215Y0607535D01*
X0645147Y0607486D01*
X0645077Y0607440D01*
X0645005Y0607398D01*
X0644931Y0607359D01*
X0644855Y0607323D01*
X0644777Y0607291D01*
X0644699Y0607263D01*
X0644618Y0607239D01*
X0644537Y0607218D01*
X0644455Y0607202D01*
X0644373Y0607189D01*
X0644289Y0607180D01*
X0644206Y0607175D01*
X0644122Y0607174D01*
X0644038Y0607177D01*
X0643955Y0607184D01*
X0643872Y0607195D01*
X0643790Y0607210D01*
X0643708Y0607228D01*
X0643627Y0607251D01*
X0643548Y0607277D01*
X0643470Y0607307D01*
X0643393Y0607341D01*
X0643318Y0607378D01*
X0643245Y0607418D01*
X0643174Y0607463D01*
X0643105Y0607510D01*
X0643038Y0607561D01*
X0642974Y0607614D01*
X0642912Y0607671D01*
X0642854Y0607731D01*
X0642798Y0607793D01*
X0642745Y0607858D01*
X0642695Y0607925D01*
X0642648Y0607994D01*
X0642605Y0608066D01*
X0642565Y0608140D01*
X0642529Y0608215D01*
X0642496Y0608292D01*
X0642467Y0608371D01*
X0642442Y0608450D01*
X0642420Y0608531D01*
X0642403Y0608613D01*
X0642389Y0608696D01*
X0642379Y0608779D01*
X0642373Y0608862D01*
X0642371Y0608946D01*
X0687331Y0610717D02*
X0687331Y0607174D01*
X0689615Y0607784D01*
X0689615Y0610107D02*
X0687331Y0610717D01*
X0697685Y0608946D02*
X0697687Y0609030D01*
X0697693Y0609113D01*
X0697703Y0609196D01*
X0697717Y0609279D01*
X0697734Y0609361D01*
X0697756Y0609442D01*
X0697781Y0609521D01*
X0697810Y0609600D01*
X0697843Y0609677D01*
X0697879Y0609752D01*
X0697919Y0609826D01*
X0697962Y0609898D01*
X0698009Y0609967D01*
X0698059Y0610034D01*
X0698112Y0610099D01*
X0698168Y0610161D01*
X0698226Y0610221D01*
X0698288Y0610278D01*
X0698352Y0610331D01*
X0698419Y0610382D01*
X0698488Y0610429D01*
X0698559Y0610474D01*
X0698632Y0610514D01*
X0698707Y0610551D01*
X0698784Y0610585D01*
X0698862Y0610615D01*
X0698941Y0610641D01*
X0699022Y0610664D01*
X0699104Y0610682D01*
X0699186Y0610697D01*
X0699269Y0610708D01*
X0699352Y0610715D01*
X0699436Y0610718D01*
X0699520Y0610717D01*
X0699603Y0610712D01*
X0699687Y0610703D01*
X0699769Y0610690D01*
X0699851Y0610674D01*
X0699932Y0610653D01*
X0700013Y0610629D01*
X0700091Y0610601D01*
X0700169Y0610569D01*
X0700245Y0610533D01*
X0700319Y0610494D01*
X0700391Y0610452D01*
X0700461Y0610406D01*
X0700529Y0610357D01*
X0700594Y0610305D01*
X0700657Y0610250D01*
X0700717Y0610192D01*
X0700775Y0610131D01*
X0700829Y0610067D01*
X0700881Y0610001D01*
X0700929Y0609933D01*
X0700974Y0609862D01*
X0701015Y0609789D01*
X0701054Y0609715D01*
X0701088Y0609639D01*
X0701119Y0609561D01*
X0701146Y0609482D01*
X0701170Y0609401D01*
X0701189Y0609320D01*
X0701205Y0609238D01*
X0701217Y0609155D01*
X0701225Y0609071D01*
X0701229Y0608988D01*
X0701229Y0608904D01*
X0701225Y0608821D01*
X0701217Y0608737D01*
X0701205Y0608654D01*
X0701189Y0608572D01*
X0701170Y0608491D01*
X0701146Y0608410D01*
X0701119Y0608331D01*
X0701088Y0608253D01*
X0701054Y0608177D01*
X0701015Y0608103D01*
X0700974Y0608030D01*
X0700929Y0607959D01*
X0700881Y0607891D01*
X0700829Y0607825D01*
X0700775Y0607761D01*
X0700717Y0607700D01*
X0700657Y0607642D01*
X0700594Y0607587D01*
X0700529Y0607535D01*
X0700461Y0607486D01*
X0700391Y0607440D01*
X0700319Y0607398D01*
X0700245Y0607359D01*
X0700169Y0607323D01*
X0700091Y0607291D01*
X0700013Y0607263D01*
X0699932Y0607239D01*
X0699851Y0607218D01*
X0699769Y0607202D01*
X0699687Y0607189D01*
X0699603Y0607180D01*
X0699520Y0607175D01*
X0699436Y0607174D01*
X0699352Y0607177D01*
X0699269Y0607184D01*
X0699186Y0607195D01*
X0699104Y0607210D01*
X0699022Y0607228D01*
X0698941Y0607251D01*
X0698862Y0607277D01*
X0698784Y0607307D01*
X0698707Y0607341D01*
X0698632Y0607378D01*
X0698559Y0607418D01*
X0698488Y0607463D01*
X0698419Y0607510D01*
X0698352Y0607561D01*
X0698288Y0607614D01*
X0698226Y0607671D01*
X0698168Y0607731D01*
X0698112Y0607793D01*
X0698059Y0607858D01*
X0698009Y0607925D01*
X0697962Y0607994D01*
X0697919Y0608066D01*
X0697879Y0608140D01*
X0697843Y0608215D01*
X0697810Y0608292D01*
X0697781Y0608371D01*
X0697756Y0608450D01*
X0697734Y0608531D01*
X0697717Y0608613D01*
X0697703Y0608696D01*
X0697693Y0608779D01*
X0697687Y0608862D01*
X0697685Y0608946D01*
X0717371Y0608946D02*
X0717373Y0609030D01*
X0717379Y0609113D01*
X0717389Y0609196D01*
X0717403Y0609279D01*
X0717420Y0609361D01*
X0717442Y0609442D01*
X0717467Y0609521D01*
X0717496Y0609600D01*
X0717529Y0609677D01*
X0717565Y0609752D01*
X0717605Y0609826D01*
X0717648Y0609898D01*
X0717695Y0609967D01*
X0717745Y0610034D01*
X0717798Y0610099D01*
X0717854Y0610161D01*
X0717912Y0610221D01*
X0717974Y0610278D01*
X0718038Y0610331D01*
X0718105Y0610382D01*
X0718174Y0610429D01*
X0718245Y0610474D01*
X0718318Y0610514D01*
X0718393Y0610551D01*
X0718470Y0610585D01*
X0718548Y0610615D01*
X0718627Y0610641D01*
X0718708Y0610664D01*
X0718790Y0610682D01*
X0718872Y0610697D01*
X0718955Y0610708D01*
X0719038Y0610715D01*
X0719122Y0610718D01*
X0719206Y0610717D01*
X0719289Y0610712D01*
X0719373Y0610703D01*
X0719455Y0610690D01*
X0719537Y0610674D01*
X0719618Y0610653D01*
X0719699Y0610629D01*
X0719777Y0610601D01*
X0719855Y0610569D01*
X0719931Y0610533D01*
X0720005Y0610494D01*
X0720077Y0610452D01*
X0720147Y0610406D01*
X0720215Y0610357D01*
X0720280Y0610305D01*
X0720343Y0610250D01*
X0720403Y0610192D01*
X0720461Y0610131D01*
X0720515Y0610067D01*
X0720567Y0610001D01*
X0720615Y0609933D01*
X0720660Y0609862D01*
X0720701Y0609789D01*
X0720740Y0609715D01*
X0720774Y0609639D01*
X0720805Y0609561D01*
X0720832Y0609482D01*
X0720856Y0609401D01*
X0720875Y0609320D01*
X0720891Y0609238D01*
X0720903Y0609155D01*
X0720911Y0609071D01*
X0720915Y0608988D01*
X0720915Y0608904D01*
X0720911Y0608821D01*
X0720903Y0608737D01*
X0720891Y0608654D01*
X0720875Y0608572D01*
X0720856Y0608491D01*
X0720832Y0608410D01*
X0720805Y0608331D01*
X0720774Y0608253D01*
X0720740Y0608177D01*
X0720701Y0608103D01*
X0720660Y0608030D01*
X0720615Y0607959D01*
X0720567Y0607891D01*
X0720515Y0607825D01*
X0720461Y0607761D01*
X0720403Y0607700D01*
X0720343Y0607642D01*
X0720280Y0607587D01*
X0720215Y0607535D01*
X0720147Y0607486D01*
X0720077Y0607440D01*
X0720005Y0607398D01*
X0719931Y0607359D01*
X0719855Y0607323D01*
X0719777Y0607291D01*
X0719699Y0607263D01*
X0719618Y0607239D01*
X0719537Y0607218D01*
X0719455Y0607202D01*
X0719373Y0607189D01*
X0719289Y0607180D01*
X0719206Y0607175D01*
X0719122Y0607174D01*
X0719038Y0607177D01*
X0718955Y0607184D01*
X0718872Y0607195D01*
X0718790Y0607210D01*
X0718708Y0607228D01*
X0718627Y0607251D01*
X0718548Y0607277D01*
X0718470Y0607307D01*
X0718393Y0607341D01*
X0718318Y0607378D01*
X0718245Y0607418D01*
X0718174Y0607463D01*
X0718105Y0607510D01*
X0718038Y0607561D01*
X0717974Y0607614D01*
X0717912Y0607671D01*
X0717854Y0607731D01*
X0717798Y0607793D01*
X0717745Y0607858D01*
X0717695Y0607925D01*
X0717648Y0607994D01*
X0717605Y0608066D01*
X0717565Y0608140D01*
X0717529Y0608215D01*
X0717496Y0608292D01*
X0717467Y0608371D01*
X0717442Y0608450D01*
X0717420Y0608531D01*
X0717403Y0608613D01*
X0717389Y0608696D01*
X0717379Y0608779D01*
X0717373Y0608862D01*
X0717371Y0608946D01*
X0697331Y0300717D02*
X0697331Y0297174D01*
X0699615Y0297784D01*
X0699615Y0300107D02*
X0697331Y0300717D01*
X0707685Y0298946D02*
X0707687Y0299030D01*
X0707693Y0299113D01*
X0707703Y0299196D01*
X0707717Y0299279D01*
X0707734Y0299361D01*
X0707756Y0299442D01*
X0707781Y0299521D01*
X0707810Y0299600D01*
X0707843Y0299677D01*
X0707879Y0299752D01*
X0707919Y0299826D01*
X0707962Y0299898D01*
X0708009Y0299967D01*
X0708059Y0300034D01*
X0708112Y0300099D01*
X0708168Y0300161D01*
X0708226Y0300221D01*
X0708288Y0300278D01*
X0708352Y0300331D01*
X0708419Y0300382D01*
X0708488Y0300429D01*
X0708559Y0300474D01*
X0708632Y0300514D01*
X0708707Y0300551D01*
X0708784Y0300585D01*
X0708862Y0300615D01*
X0708941Y0300641D01*
X0709022Y0300664D01*
X0709104Y0300682D01*
X0709186Y0300697D01*
X0709269Y0300708D01*
X0709352Y0300715D01*
X0709436Y0300718D01*
X0709520Y0300717D01*
X0709603Y0300712D01*
X0709687Y0300703D01*
X0709769Y0300690D01*
X0709851Y0300674D01*
X0709932Y0300653D01*
X0710013Y0300629D01*
X0710091Y0300601D01*
X0710169Y0300569D01*
X0710245Y0300533D01*
X0710319Y0300494D01*
X0710391Y0300452D01*
X0710461Y0300406D01*
X0710529Y0300357D01*
X0710594Y0300305D01*
X0710657Y0300250D01*
X0710717Y0300192D01*
X0710775Y0300131D01*
X0710829Y0300067D01*
X0710881Y0300001D01*
X0710929Y0299933D01*
X0710974Y0299862D01*
X0711015Y0299789D01*
X0711054Y0299715D01*
X0711088Y0299639D01*
X0711119Y0299561D01*
X0711146Y0299482D01*
X0711170Y0299401D01*
X0711189Y0299320D01*
X0711205Y0299238D01*
X0711217Y0299155D01*
X0711225Y0299071D01*
X0711229Y0298988D01*
X0711229Y0298904D01*
X0711225Y0298821D01*
X0711217Y0298737D01*
X0711205Y0298654D01*
X0711189Y0298572D01*
X0711170Y0298491D01*
X0711146Y0298410D01*
X0711119Y0298331D01*
X0711088Y0298253D01*
X0711054Y0298177D01*
X0711015Y0298103D01*
X0710974Y0298030D01*
X0710929Y0297959D01*
X0710881Y0297891D01*
X0710829Y0297825D01*
X0710775Y0297761D01*
X0710717Y0297700D01*
X0710657Y0297642D01*
X0710594Y0297587D01*
X0710529Y0297535D01*
X0710461Y0297486D01*
X0710391Y0297440D01*
X0710319Y0297398D01*
X0710245Y0297359D01*
X0710169Y0297323D01*
X0710091Y0297291D01*
X0710013Y0297263D01*
X0709932Y0297239D01*
X0709851Y0297218D01*
X0709769Y0297202D01*
X0709687Y0297189D01*
X0709603Y0297180D01*
X0709520Y0297175D01*
X0709436Y0297174D01*
X0709352Y0297177D01*
X0709269Y0297184D01*
X0709186Y0297195D01*
X0709104Y0297210D01*
X0709022Y0297228D01*
X0708941Y0297251D01*
X0708862Y0297277D01*
X0708784Y0297307D01*
X0708707Y0297341D01*
X0708632Y0297378D01*
X0708559Y0297418D01*
X0708488Y0297463D01*
X0708419Y0297510D01*
X0708352Y0297561D01*
X0708288Y0297614D01*
X0708226Y0297671D01*
X0708168Y0297731D01*
X0708112Y0297793D01*
X0708059Y0297858D01*
X0708009Y0297925D01*
X0707962Y0297994D01*
X0707919Y0298066D01*
X0707879Y0298140D01*
X0707843Y0298215D01*
X0707810Y0298292D01*
X0707781Y0298371D01*
X0707756Y0298450D01*
X0707734Y0298531D01*
X0707717Y0298613D01*
X0707703Y0298696D01*
X0707693Y0298779D01*
X0707687Y0298862D01*
X0707685Y0298946D01*
X0727371Y0298946D02*
X0727373Y0299030D01*
X0727379Y0299113D01*
X0727389Y0299196D01*
X0727403Y0299279D01*
X0727420Y0299361D01*
X0727442Y0299442D01*
X0727467Y0299521D01*
X0727496Y0299600D01*
X0727529Y0299677D01*
X0727565Y0299752D01*
X0727605Y0299826D01*
X0727648Y0299898D01*
X0727695Y0299967D01*
X0727745Y0300034D01*
X0727798Y0300099D01*
X0727854Y0300161D01*
X0727912Y0300221D01*
X0727974Y0300278D01*
X0728038Y0300331D01*
X0728105Y0300382D01*
X0728174Y0300429D01*
X0728245Y0300474D01*
X0728318Y0300514D01*
X0728393Y0300551D01*
X0728470Y0300585D01*
X0728548Y0300615D01*
X0728627Y0300641D01*
X0728708Y0300664D01*
X0728790Y0300682D01*
X0728872Y0300697D01*
X0728955Y0300708D01*
X0729038Y0300715D01*
X0729122Y0300718D01*
X0729206Y0300717D01*
X0729289Y0300712D01*
X0729373Y0300703D01*
X0729455Y0300690D01*
X0729537Y0300674D01*
X0729618Y0300653D01*
X0729699Y0300629D01*
X0729777Y0300601D01*
X0729855Y0300569D01*
X0729931Y0300533D01*
X0730005Y0300494D01*
X0730077Y0300452D01*
X0730147Y0300406D01*
X0730215Y0300357D01*
X0730280Y0300305D01*
X0730343Y0300250D01*
X0730403Y0300192D01*
X0730461Y0300131D01*
X0730515Y0300067D01*
X0730567Y0300001D01*
X0730615Y0299933D01*
X0730660Y0299862D01*
X0730701Y0299789D01*
X0730740Y0299715D01*
X0730774Y0299639D01*
X0730805Y0299561D01*
X0730832Y0299482D01*
X0730856Y0299401D01*
X0730875Y0299320D01*
X0730891Y0299238D01*
X0730903Y0299155D01*
X0730911Y0299071D01*
X0730915Y0298988D01*
X0730915Y0298904D01*
X0730911Y0298821D01*
X0730903Y0298737D01*
X0730891Y0298654D01*
X0730875Y0298572D01*
X0730856Y0298491D01*
X0730832Y0298410D01*
X0730805Y0298331D01*
X0730774Y0298253D01*
X0730740Y0298177D01*
X0730701Y0298103D01*
X0730660Y0298030D01*
X0730615Y0297959D01*
X0730567Y0297891D01*
X0730515Y0297825D01*
X0730461Y0297761D01*
X0730403Y0297700D01*
X0730343Y0297642D01*
X0730280Y0297587D01*
X0730215Y0297535D01*
X0730147Y0297486D01*
X0730077Y0297440D01*
X0730005Y0297398D01*
X0729931Y0297359D01*
X0729855Y0297323D01*
X0729777Y0297291D01*
X0729699Y0297263D01*
X0729618Y0297239D01*
X0729537Y0297218D01*
X0729455Y0297202D01*
X0729373Y0297189D01*
X0729289Y0297180D01*
X0729206Y0297175D01*
X0729122Y0297174D01*
X0729038Y0297177D01*
X0728955Y0297184D01*
X0728872Y0297195D01*
X0728790Y0297210D01*
X0728708Y0297228D01*
X0728627Y0297251D01*
X0728548Y0297277D01*
X0728470Y0297307D01*
X0728393Y0297341D01*
X0728318Y0297378D01*
X0728245Y0297418D01*
X0728174Y0297463D01*
X0728105Y0297510D01*
X0728038Y0297561D01*
X0727974Y0297614D01*
X0727912Y0297671D01*
X0727854Y0297731D01*
X0727798Y0297793D01*
X0727745Y0297858D01*
X0727695Y0297925D01*
X0727648Y0297994D01*
X0727605Y0298066D01*
X0727565Y0298140D01*
X0727529Y0298215D01*
X0727496Y0298292D01*
X0727467Y0298371D01*
X0727442Y0298450D01*
X0727420Y0298531D01*
X0727403Y0298613D01*
X0727389Y0298696D01*
X0727379Y0298779D01*
X0727373Y0298862D01*
X0727371Y0298946D01*
X0632371Y0298946D02*
X0632373Y0299030D01*
X0632379Y0299113D01*
X0632389Y0299196D01*
X0632403Y0299279D01*
X0632420Y0299361D01*
X0632442Y0299442D01*
X0632467Y0299521D01*
X0632496Y0299600D01*
X0632529Y0299677D01*
X0632565Y0299752D01*
X0632605Y0299826D01*
X0632648Y0299898D01*
X0632695Y0299967D01*
X0632745Y0300034D01*
X0632798Y0300099D01*
X0632854Y0300161D01*
X0632912Y0300221D01*
X0632974Y0300278D01*
X0633038Y0300331D01*
X0633105Y0300382D01*
X0633174Y0300429D01*
X0633245Y0300474D01*
X0633318Y0300514D01*
X0633393Y0300551D01*
X0633470Y0300585D01*
X0633548Y0300615D01*
X0633627Y0300641D01*
X0633708Y0300664D01*
X0633790Y0300682D01*
X0633872Y0300697D01*
X0633955Y0300708D01*
X0634038Y0300715D01*
X0634122Y0300718D01*
X0634206Y0300717D01*
X0634289Y0300712D01*
X0634373Y0300703D01*
X0634455Y0300690D01*
X0634537Y0300674D01*
X0634618Y0300653D01*
X0634699Y0300629D01*
X0634777Y0300601D01*
X0634855Y0300569D01*
X0634931Y0300533D01*
X0635005Y0300494D01*
X0635077Y0300452D01*
X0635147Y0300406D01*
X0635215Y0300357D01*
X0635280Y0300305D01*
X0635343Y0300250D01*
X0635403Y0300192D01*
X0635461Y0300131D01*
X0635515Y0300067D01*
X0635567Y0300001D01*
X0635615Y0299933D01*
X0635660Y0299862D01*
X0635701Y0299789D01*
X0635740Y0299715D01*
X0635774Y0299639D01*
X0635805Y0299561D01*
X0635832Y0299482D01*
X0635856Y0299401D01*
X0635875Y0299320D01*
X0635891Y0299238D01*
X0635903Y0299155D01*
X0635911Y0299071D01*
X0635915Y0298988D01*
X0635915Y0298904D01*
X0635911Y0298821D01*
X0635903Y0298737D01*
X0635891Y0298654D01*
X0635875Y0298572D01*
X0635856Y0298491D01*
X0635832Y0298410D01*
X0635805Y0298331D01*
X0635774Y0298253D01*
X0635740Y0298177D01*
X0635701Y0298103D01*
X0635660Y0298030D01*
X0635615Y0297959D01*
X0635567Y0297891D01*
X0635515Y0297825D01*
X0635461Y0297761D01*
X0635403Y0297700D01*
X0635343Y0297642D01*
X0635280Y0297587D01*
X0635215Y0297535D01*
X0635147Y0297486D01*
X0635077Y0297440D01*
X0635005Y0297398D01*
X0634931Y0297359D01*
X0634855Y0297323D01*
X0634777Y0297291D01*
X0634699Y0297263D01*
X0634618Y0297239D01*
X0634537Y0297218D01*
X0634455Y0297202D01*
X0634373Y0297189D01*
X0634289Y0297180D01*
X0634206Y0297175D01*
X0634122Y0297174D01*
X0634038Y0297177D01*
X0633955Y0297184D01*
X0633872Y0297195D01*
X0633790Y0297210D01*
X0633708Y0297228D01*
X0633627Y0297251D01*
X0633548Y0297277D01*
X0633470Y0297307D01*
X0633393Y0297341D01*
X0633318Y0297378D01*
X0633245Y0297418D01*
X0633174Y0297463D01*
X0633105Y0297510D01*
X0633038Y0297561D01*
X0632974Y0297614D01*
X0632912Y0297671D01*
X0632854Y0297731D01*
X0632798Y0297793D01*
X0632745Y0297858D01*
X0632695Y0297925D01*
X0632648Y0297994D01*
X0632605Y0298066D01*
X0632565Y0298140D01*
X0632529Y0298215D01*
X0632496Y0298292D01*
X0632467Y0298371D01*
X0632442Y0298450D01*
X0632420Y0298531D01*
X0632403Y0298613D01*
X0632389Y0298696D01*
X0632379Y0298779D01*
X0632373Y0298862D01*
X0632371Y0298946D01*
X0612685Y0298946D02*
X0612687Y0299030D01*
X0612693Y0299113D01*
X0612703Y0299196D01*
X0612717Y0299279D01*
X0612734Y0299361D01*
X0612756Y0299442D01*
X0612781Y0299521D01*
X0612810Y0299600D01*
X0612843Y0299677D01*
X0612879Y0299752D01*
X0612919Y0299826D01*
X0612962Y0299898D01*
X0613009Y0299967D01*
X0613059Y0300034D01*
X0613112Y0300099D01*
X0613168Y0300161D01*
X0613226Y0300221D01*
X0613288Y0300278D01*
X0613352Y0300331D01*
X0613419Y0300382D01*
X0613488Y0300429D01*
X0613559Y0300474D01*
X0613632Y0300514D01*
X0613707Y0300551D01*
X0613784Y0300585D01*
X0613862Y0300615D01*
X0613941Y0300641D01*
X0614022Y0300664D01*
X0614104Y0300682D01*
X0614186Y0300697D01*
X0614269Y0300708D01*
X0614352Y0300715D01*
X0614436Y0300718D01*
X0614520Y0300717D01*
X0614603Y0300712D01*
X0614687Y0300703D01*
X0614769Y0300690D01*
X0614851Y0300674D01*
X0614932Y0300653D01*
X0615013Y0300629D01*
X0615091Y0300601D01*
X0615169Y0300569D01*
X0615245Y0300533D01*
X0615319Y0300494D01*
X0615391Y0300452D01*
X0615461Y0300406D01*
X0615529Y0300357D01*
X0615594Y0300305D01*
X0615657Y0300250D01*
X0615717Y0300192D01*
X0615775Y0300131D01*
X0615829Y0300067D01*
X0615881Y0300001D01*
X0615929Y0299933D01*
X0615974Y0299862D01*
X0616015Y0299789D01*
X0616054Y0299715D01*
X0616088Y0299639D01*
X0616119Y0299561D01*
X0616146Y0299482D01*
X0616170Y0299401D01*
X0616189Y0299320D01*
X0616205Y0299238D01*
X0616217Y0299155D01*
X0616225Y0299071D01*
X0616229Y0298988D01*
X0616229Y0298904D01*
X0616225Y0298821D01*
X0616217Y0298737D01*
X0616205Y0298654D01*
X0616189Y0298572D01*
X0616170Y0298491D01*
X0616146Y0298410D01*
X0616119Y0298331D01*
X0616088Y0298253D01*
X0616054Y0298177D01*
X0616015Y0298103D01*
X0615974Y0298030D01*
X0615929Y0297959D01*
X0615881Y0297891D01*
X0615829Y0297825D01*
X0615775Y0297761D01*
X0615717Y0297700D01*
X0615657Y0297642D01*
X0615594Y0297587D01*
X0615529Y0297535D01*
X0615461Y0297486D01*
X0615391Y0297440D01*
X0615319Y0297398D01*
X0615245Y0297359D01*
X0615169Y0297323D01*
X0615091Y0297291D01*
X0615013Y0297263D01*
X0614932Y0297239D01*
X0614851Y0297218D01*
X0614769Y0297202D01*
X0614687Y0297189D01*
X0614603Y0297180D01*
X0614520Y0297175D01*
X0614436Y0297174D01*
X0614352Y0297177D01*
X0614269Y0297184D01*
X0614186Y0297195D01*
X0614104Y0297210D01*
X0614022Y0297228D01*
X0613941Y0297251D01*
X0613862Y0297277D01*
X0613784Y0297307D01*
X0613707Y0297341D01*
X0613632Y0297378D01*
X0613559Y0297418D01*
X0613488Y0297463D01*
X0613419Y0297510D01*
X0613352Y0297561D01*
X0613288Y0297614D01*
X0613226Y0297671D01*
X0613168Y0297731D01*
X0613112Y0297793D01*
X0613059Y0297858D01*
X0613009Y0297925D01*
X0612962Y0297994D01*
X0612919Y0298066D01*
X0612879Y0298140D01*
X0612843Y0298215D01*
X0612810Y0298292D01*
X0612781Y0298371D01*
X0612756Y0298450D01*
X0612734Y0298531D01*
X0612717Y0298613D01*
X0612703Y0298696D01*
X0612693Y0298779D01*
X0612687Y0298862D01*
X0612685Y0298946D01*
X0604615Y0300107D02*
X0602331Y0300717D01*
X0602331Y0297174D01*
X0604615Y0297784D01*
D14*
X0632424Y0271883D02*
X0633925Y0273385D01*
X0633925Y0268881D01*
X0632424Y0268881D02*
X0635427Y0268881D01*
X0727424Y0268881D02*
X0730427Y0268881D01*
X0728925Y0268881D02*
X0728925Y0273385D01*
X0727424Y0271883D01*
X0720427Y0578881D02*
X0717424Y0578881D01*
X0718925Y0578881D02*
X0718925Y0583385D01*
X0717424Y0581883D01*
X0645427Y0578881D02*
X0642424Y0578881D01*
X0643925Y0578881D02*
X0643925Y0583385D01*
X0642424Y0581883D01*
X0585427Y0578881D02*
X0582424Y0578881D01*
X0583925Y0578881D02*
X0583925Y0583385D01*
X0582424Y0581883D01*
X0139719Y0220427D02*
X0139719Y0217424D01*
X0139719Y0218925D02*
X0135215Y0218925D01*
X0136717Y0217424D01*
X0104719Y0342424D02*
X0104719Y0345427D01*
X0104719Y0343925D02*
X0100215Y0343925D01*
X0101717Y0342424D01*
X0065427Y0513881D02*
X0062424Y0513881D01*
X0063925Y0513881D02*
X0063925Y0518385D01*
X0062424Y0516883D01*
X0045075Y0645219D02*
X0042072Y0645219D01*
X0043573Y0645219D02*
X0043573Y0649723D01*
X0042072Y0648222D01*
X0097072Y0648222D02*
X0098573Y0649723D01*
X0098573Y0645219D01*
X0097072Y0645219D02*
X0100075Y0645219D01*
M02*
