G75*
%MOIN*%
%OFA0B0*%
%FSLAX25Y25*%
%IPPOS*%
%LPD*%
%AMOC8*
5,1,8,0,0,1.08239X$1,22.5*
%
%ADD10C,0.01600*%
%ADD11C,0.00000*%
%ADD12C,0.06000*%
%ADD13C,0.07400*%
%ADD14OC8,0.07400*%
%ADD15C,0.07000*%
%ADD16C,0.09370*%
%ADD17C,0.06600*%
%ADD18R,0.07677X0.07677*%
%ADD19C,0.04000*%
%ADD20R,0.08268X0.08268*%
D10*
X0035796Y0004300D02*
X0035796Y0086977D01*
X0004300Y0086977D01*
X0004300Y0677528D01*
X0035796Y0677528D01*
X0035796Y0716898D01*
X0720835Y0716898D01*
X0720835Y0677528D01*
X0752331Y0677528D01*
X0752331Y0564300D01*
X0509300Y0564300D01*
X0509300Y0334300D01*
X0752331Y0334300D01*
X0752331Y0086977D01*
X0720835Y0086977D01*
X0720835Y0004300D01*
X0035796Y0004300D01*
X0044300Y0014300D02*
X0044300Y0044300D01*
X0149300Y0044300D01*
X0149300Y0014300D01*
X0044300Y0014300D01*
X0044300Y0015490D02*
X0149300Y0015490D01*
X0149300Y0017088D02*
X0044300Y0017088D01*
X0044300Y0018687D02*
X0149300Y0018687D01*
X0149300Y0020285D02*
X0044300Y0020285D01*
X0044300Y0021884D02*
X0149300Y0021884D01*
X0149300Y0023482D02*
X0044300Y0023482D01*
X0044300Y0025081D02*
X0149300Y0025081D01*
X0149300Y0026679D02*
X0044300Y0026679D01*
X0044300Y0028278D02*
X0149300Y0028278D01*
X0149300Y0029876D02*
X0044300Y0029876D01*
X0044300Y0031475D02*
X0149300Y0031475D01*
X0149300Y0033073D02*
X0044300Y0033073D01*
X0044300Y0034672D02*
X0149300Y0034672D01*
X0149300Y0036270D02*
X0044300Y0036270D01*
X0044300Y0037869D02*
X0149300Y0037869D01*
X0149300Y0039467D02*
X0044300Y0039467D01*
X0044300Y0041066D02*
X0149300Y0041066D01*
X0149300Y0042664D02*
X0044300Y0042664D01*
X0044300Y0044263D02*
X0149300Y0044263D01*
X0268080Y0027922D02*
X0488552Y0027922D01*
X0488552Y0142095D01*
X0374379Y0142095D01*
X0374379Y0268080D01*
X0268080Y0268080D01*
X0268080Y0027922D01*
X0604300Y0028278D02*
X0709300Y0028278D01*
X0709300Y0029876D02*
X0604300Y0029876D01*
X0604300Y0031475D02*
X0709300Y0031475D01*
X0709300Y0033073D02*
X0604300Y0033073D01*
X0604300Y0034672D02*
X0709300Y0034672D01*
X0709300Y0036270D02*
X0604300Y0036270D01*
X0604300Y0037869D02*
X0709300Y0037869D01*
X0709300Y0039467D02*
X0604300Y0039467D01*
X0604300Y0041066D02*
X0709300Y0041066D01*
X0709300Y0042664D02*
X0604300Y0042664D01*
X0604300Y0044263D02*
X0709300Y0044263D01*
X0709300Y0044300D02*
X0709300Y0014300D01*
X0604300Y0014300D01*
X0604300Y0044300D01*
X0709300Y0044300D01*
X0709300Y0026679D02*
X0604300Y0026679D01*
X0604300Y0025081D02*
X0709300Y0025081D01*
X0709300Y0023482D02*
X0604300Y0023482D01*
X0604300Y0021884D02*
X0709300Y0021884D01*
X0709300Y0020285D02*
X0604300Y0020285D01*
X0604300Y0018687D02*
X0709300Y0018687D01*
X0709300Y0017088D02*
X0604300Y0017088D01*
X0604300Y0015490D02*
X0709300Y0015490D01*
X0714300Y0679300D02*
X0609300Y0679300D01*
X0609300Y0709300D01*
X0714300Y0709300D01*
X0714300Y0679300D01*
X0714300Y0680470D02*
X0609300Y0680470D01*
X0609300Y0682069D02*
X0714300Y0682069D01*
X0714300Y0683667D02*
X0609300Y0683667D01*
X0609300Y0685266D02*
X0714300Y0685266D01*
X0714300Y0686864D02*
X0609300Y0686864D01*
X0609300Y0688463D02*
X0714300Y0688463D01*
X0714300Y0690061D02*
X0609300Y0690061D01*
X0609300Y0691660D02*
X0714300Y0691660D01*
X0714300Y0693258D02*
X0609300Y0693258D01*
X0609300Y0694857D02*
X0714300Y0694857D01*
X0714300Y0696455D02*
X0609300Y0696455D01*
X0609300Y0698054D02*
X0714300Y0698054D01*
X0714300Y0699652D02*
X0609300Y0699652D01*
X0609300Y0701251D02*
X0714300Y0701251D01*
X0714300Y0702849D02*
X0609300Y0702849D01*
X0609300Y0704448D02*
X0714300Y0704448D01*
X0714300Y0706046D02*
X0609300Y0706046D01*
X0609300Y0707645D02*
X0714300Y0707645D01*
X0714300Y0709243D02*
X0609300Y0709243D01*
X0149300Y0709300D02*
X0149300Y0679300D01*
X0044300Y0679300D01*
X0044300Y0709300D01*
X0149300Y0709300D01*
X0149300Y0709243D02*
X0044300Y0709243D01*
X0044300Y0707645D02*
X0149300Y0707645D01*
X0149300Y0706046D02*
X0044300Y0706046D01*
X0044300Y0704448D02*
X0149300Y0704448D01*
X0149300Y0702849D02*
X0044300Y0702849D01*
X0044300Y0701251D02*
X0149300Y0701251D01*
X0149300Y0699652D02*
X0044300Y0699652D01*
X0044300Y0698054D02*
X0149300Y0698054D01*
X0149300Y0696455D02*
X0044300Y0696455D01*
X0044300Y0694857D02*
X0149300Y0694857D01*
X0149300Y0693258D02*
X0044300Y0693258D01*
X0044300Y0691660D02*
X0149300Y0691660D01*
X0149300Y0690061D02*
X0044300Y0690061D01*
X0044300Y0688463D02*
X0149300Y0688463D01*
X0149300Y0686864D02*
X0044300Y0686864D01*
X0044300Y0685266D02*
X0149300Y0685266D01*
X0149300Y0683667D02*
X0044300Y0683667D01*
X0044300Y0682069D02*
X0149300Y0682069D01*
X0149300Y0680470D02*
X0044300Y0680470D01*
D11*
X0053119Y0693276D02*
X0053121Y0693434D01*
X0053127Y0693592D01*
X0053137Y0693750D01*
X0053151Y0693908D01*
X0053169Y0694065D01*
X0053190Y0694222D01*
X0053216Y0694378D01*
X0053246Y0694534D01*
X0053279Y0694689D01*
X0053317Y0694842D01*
X0053358Y0694995D01*
X0053403Y0695147D01*
X0053452Y0695298D01*
X0053505Y0695447D01*
X0053561Y0695595D01*
X0053621Y0695741D01*
X0053685Y0695886D01*
X0053753Y0696029D01*
X0053824Y0696171D01*
X0053898Y0696311D01*
X0053976Y0696448D01*
X0054058Y0696584D01*
X0054142Y0696718D01*
X0054231Y0696849D01*
X0054322Y0696978D01*
X0054417Y0697105D01*
X0054514Y0697230D01*
X0054615Y0697352D01*
X0054719Y0697471D01*
X0054826Y0697588D01*
X0054936Y0697702D01*
X0055049Y0697813D01*
X0055164Y0697922D01*
X0055282Y0698027D01*
X0055403Y0698129D01*
X0055526Y0698229D01*
X0055652Y0698325D01*
X0055780Y0698418D01*
X0055910Y0698508D01*
X0056043Y0698594D01*
X0056178Y0698678D01*
X0056314Y0698757D01*
X0056453Y0698834D01*
X0056594Y0698906D01*
X0056736Y0698976D01*
X0056880Y0699041D01*
X0057026Y0699103D01*
X0057173Y0699161D01*
X0057322Y0699216D01*
X0057472Y0699267D01*
X0057623Y0699314D01*
X0057775Y0699357D01*
X0057928Y0699396D01*
X0058083Y0699432D01*
X0058238Y0699463D01*
X0058394Y0699491D01*
X0058550Y0699515D01*
X0058707Y0699535D01*
X0058865Y0699551D01*
X0059022Y0699563D01*
X0059181Y0699571D01*
X0059339Y0699575D01*
X0059497Y0699575D01*
X0059655Y0699571D01*
X0059814Y0699563D01*
X0059971Y0699551D01*
X0060129Y0699535D01*
X0060286Y0699515D01*
X0060442Y0699491D01*
X0060598Y0699463D01*
X0060753Y0699432D01*
X0060908Y0699396D01*
X0061061Y0699357D01*
X0061213Y0699314D01*
X0061364Y0699267D01*
X0061514Y0699216D01*
X0061663Y0699161D01*
X0061810Y0699103D01*
X0061956Y0699041D01*
X0062100Y0698976D01*
X0062242Y0698906D01*
X0062383Y0698834D01*
X0062522Y0698757D01*
X0062658Y0698678D01*
X0062793Y0698594D01*
X0062926Y0698508D01*
X0063056Y0698418D01*
X0063184Y0698325D01*
X0063310Y0698229D01*
X0063433Y0698129D01*
X0063554Y0698027D01*
X0063672Y0697922D01*
X0063787Y0697813D01*
X0063900Y0697702D01*
X0064010Y0697588D01*
X0064117Y0697471D01*
X0064221Y0697352D01*
X0064322Y0697230D01*
X0064419Y0697105D01*
X0064514Y0696978D01*
X0064605Y0696849D01*
X0064694Y0696718D01*
X0064778Y0696584D01*
X0064860Y0696448D01*
X0064938Y0696311D01*
X0065012Y0696171D01*
X0065083Y0696029D01*
X0065151Y0695886D01*
X0065215Y0695741D01*
X0065275Y0695595D01*
X0065331Y0695447D01*
X0065384Y0695298D01*
X0065433Y0695147D01*
X0065478Y0694995D01*
X0065519Y0694842D01*
X0065557Y0694689D01*
X0065590Y0694534D01*
X0065620Y0694378D01*
X0065646Y0694222D01*
X0065667Y0694065D01*
X0065685Y0693908D01*
X0065699Y0693750D01*
X0065709Y0693592D01*
X0065715Y0693434D01*
X0065717Y0693276D01*
X0065715Y0693118D01*
X0065709Y0692960D01*
X0065699Y0692802D01*
X0065685Y0692644D01*
X0065667Y0692487D01*
X0065646Y0692330D01*
X0065620Y0692174D01*
X0065590Y0692018D01*
X0065557Y0691863D01*
X0065519Y0691710D01*
X0065478Y0691557D01*
X0065433Y0691405D01*
X0065384Y0691254D01*
X0065331Y0691105D01*
X0065275Y0690957D01*
X0065215Y0690811D01*
X0065151Y0690666D01*
X0065083Y0690523D01*
X0065012Y0690381D01*
X0064938Y0690241D01*
X0064860Y0690104D01*
X0064778Y0689968D01*
X0064694Y0689834D01*
X0064605Y0689703D01*
X0064514Y0689574D01*
X0064419Y0689447D01*
X0064322Y0689322D01*
X0064221Y0689200D01*
X0064117Y0689081D01*
X0064010Y0688964D01*
X0063900Y0688850D01*
X0063787Y0688739D01*
X0063672Y0688630D01*
X0063554Y0688525D01*
X0063433Y0688423D01*
X0063310Y0688323D01*
X0063184Y0688227D01*
X0063056Y0688134D01*
X0062926Y0688044D01*
X0062793Y0687958D01*
X0062658Y0687874D01*
X0062522Y0687795D01*
X0062383Y0687718D01*
X0062242Y0687646D01*
X0062100Y0687576D01*
X0061956Y0687511D01*
X0061810Y0687449D01*
X0061663Y0687391D01*
X0061514Y0687336D01*
X0061364Y0687285D01*
X0061213Y0687238D01*
X0061061Y0687195D01*
X0060908Y0687156D01*
X0060753Y0687120D01*
X0060598Y0687089D01*
X0060442Y0687061D01*
X0060286Y0687037D01*
X0060129Y0687017D01*
X0059971Y0687001D01*
X0059814Y0686989D01*
X0059655Y0686981D01*
X0059497Y0686977D01*
X0059339Y0686977D01*
X0059181Y0686981D01*
X0059022Y0686989D01*
X0058865Y0687001D01*
X0058707Y0687017D01*
X0058550Y0687037D01*
X0058394Y0687061D01*
X0058238Y0687089D01*
X0058083Y0687120D01*
X0057928Y0687156D01*
X0057775Y0687195D01*
X0057623Y0687238D01*
X0057472Y0687285D01*
X0057322Y0687336D01*
X0057173Y0687391D01*
X0057026Y0687449D01*
X0056880Y0687511D01*
X0056736Y0687576D01*
X0056594Y0687646D01*
X0056453Y0687718D01*
X0056314Y0687795D01*
X0056178Y0687874D01*
X0056043Y0687958D01*
X0055910Y0688044D01*
X0055780Y0688134D01*
X0055652Y0688227D01*
X0055526Y0688323D01*
X0055403Y0688423D01*
X0055282Y0688525D01*
X0055164Y0688630D01*
X0055049Y0688739D01*
X0054936Y0688850D01*
X0054826Y0688964D01*
X0054719Y0689081D01*
X0054615Y0689200D01*
X0054514Y0689322D01*
X0054417Y0689447D01*
X0054322Y0689574D01*
X0054231Y0689703D01*
X0054142Y0689834D01*
X0054058Y0689968D01*
X0053976Y0690104D01*
X0053898Y0690241D01*
X0053824Y0690381D01*
X0053753Y0690523D01*
X0053685Y0690666D01*
X0053621Y0690811D01*
X0053561Y0690957D01*
X0053505Y0691105D01*
X0053452Y0691254D01*
X0053403Y0691405D01*
X0053358Y0691557D01*
X0053317Y0691710D01*
X0053279Y0691863D01*
X0053246Y0692018D01*
X0053216Y0692174D01*
X0053190Y0692330D01*
X0053169Y0692487D01*
X0053151Y0692644D01*
X0053137Y0692802D01*
X0053127Y0692960D01*
X0053121Y0693118D01*
X0053119Y0693276D01*
X0131859Y0693276D02*
X0131861Y0693434D01*
X0131867Y0693592D01*
X0131877Y0693750D01*
X0131891Y0693908D01*
X0131909Y0694065D01*
X0131930Y0694222D01*
X0131956Y0694378D01*
X0131986Y0694534D01*
X0132019Y0694689D01*
X0132057Y0694842D01*
X0132098Y0694995D01*
X0132143Y0695147D01*
X0132192Y0695298D01*
X0132245Y0695447D01*
X0132301Y0695595D01*
X0132361Y0695741D01*
X0132425Y0695886D01*
X0132493Y0696029D01*
X0132564Y0696171D01*
X0132638Y0696311D01*
X0132716Y0696448D01*
X0132798Y0696584D01*
X0132882Y0696718D01*
X0132971Y0696849D01*
X0133062Y0696978D01*
X0133157Y0697105D01*
X0133254Y0697230D01*
X0133355Y0697352D01*
X0133459Y0697471D01*
X0133566Y0697588D01*
X0133676Y0697702D01*
X0133789Y0697813D01*
X0133904Y0697922D01*
X0134022Y0698027D01*
X0134143Y0698129D01*
X0134266Y0698229D01*
X0134392Y0698325D01*
X0134520Y0698418D01*
X0134650Y0698508D01*
X0134783Y0698594D01*
X0134918Y0698678D01*
X0135054Y0698757D01*
X0135193Y0698834D01*
X0135334Y0698906D01*
X0135476Y0698976D01*
X0135620Y0699041D01*
X0135766Y0699103D01*
X0135913Y0699161D01*
X0136062Y0699216D01*
X0136212Y0699267D01*
X0136363Y0699314D01*
X0136515Y0699357D01*
X0136668Y0699396D01*
X0136823Y0699432D01*
X0136978Y0699463D01*
X0137134Y0699491D01*
X0137290Y0699515D01*
X0137447Y0699535D01*
X0137605Y0699551D01*
X0137762Y0699563D01*
X0137921Y0699571D01*
X0138079Y0699575D01*
X0138237Y0699575D01*
X0138395Y0699571D01*
X0138554Y0699563D01*
X0138711Y0699551D01*
X0138869Y0699535D01*
X0139026Y0699515D01*
X0139182Y0699491D01*
X0139338Y0699463D01*
X0139493Y0699432D01*
X0139648Y0699396D01*
X0139801Y0699357D01*
X0139953Y0699314D01*
X0140104Y0699267D01*
X0140254Y0699216D01*
X0140403Y0699161D01*
X0140550Y0699103D01*
X0140696Y0699041D01*
X0140840Y0698976D01*
X0140982Y0698906D01*
X0141123Y0698834D01*
X0141262Y0698757D01*
X0141398Y0698678D01*
X0141533Y0698594D01*
X0141666Y0698508D01*
X0141796Y0698418D01*
X0141924Y0698325D01*
X0142050Y0698229D01*
X0142173Y0698129D01*
X0142294Y0698027D01*
X0142412Y0697922D01*
X0142527Y0697813D01*
X0142640Y0697702D01*
X0142750Y0697588D01*
X0142857Y0697471D01*
X0142961Y0697352D01*
X0143062Y0697230D01*
X0143159Y0697105D01*
X0143254Y0696978D01*
X0143345Y0696849D01*
X0143434Y0696718D01*
X0143518Y0696584D01*
X0143600Y0696448D01*
X0143678Y0696311D01*
X0143752Y0696171D01*
X0143823Y0696029D01*
X0143891Y0695886D01*
X0143955Y0695741D01*
X0144015Y0695595D01*
X0144071Y0695447D01*
X0144124Y0695298D01*
X0144173Y0695147D01*
X0144218Y0694995D01*
X0144259Y0694842D01*
X0144297Y0694689D01*
X0144330Y0694534D01*
X0144360Y0694378D01*
X0144386Y0694222D01*
X0144407Y0694065D01*
X0144425Y0693908D01*
X0144439Y0693750D01*
X0144449Y0693592D01*
X0144455Y0693434D01*
X0144457Y0693276D01*
X0144455Y0693118D01*
X0144449Y0692960D01*
X0144439Y0692802D01*
X0144425Y0692644D01*
X0144407Y0692487D01*
X0144386Y0692330D01*
X0144360Y0692174D01*
X0144330Y0692018D01*
X0144297Y0691863D01*
X0144259Y0691710D01*
X0144218Y0691557D01*
X0144173Y0691405D01*
X0144124Y0691254D01*
X0144071Y0691105D01*
X0144015Y0690957D01*
X0143955Y0690811D01*
X0143891Y0690666D01*
X0143823Y0690523D01*
X0143752Y0690381D01*
X0143678Y0690241D01*
X0143600Y0690104D01*
X0143518Y0689968D01*
X0143434Y0689834D01*
X0143345Y0689703D01*
X0143254Y0689574D01*
X0143159Y0689447D01*
X0143062Y0689322D01*
X0142961Y0689200D01*
X0142857Y0689081D01*
X0142750Y0688964D01*
X0142640Y0688850D01*
X0142527Y0688739D01*
X0142412Y0688630D01*
X0142294Y0688525D01*
X0142173Y0688423D01*
X0142050Y0688323D01*
X0141924Y0688227D01*
X0141796Y0688134D01*
X0141666Y0688044D01*
X0141533Y0687958D01*
X0141398Y0687874D01*
X0141262Y0687795D01*
X0141123Y0687718D01*
X0140982Y0687646D01*
X0140840Y0687576D01*
X0140696Y0687511D01*
X0140550Y0687449D01*
X0140403Y0687391D01*
X0140254Y0687336D01*
X0140104Y0687285D01*
X0139953Y0687238D01*
X0139801Y0687195D01*
X0139648Y0687156D01*
X0139493Y0687120D01*
X0139338Y0687089D01*
X0139182Y0687061D01*
X0139026Y0687037D01*
X0138869Y0687017D01*
X0138711Y0687001D01*
X0138554Y0686989D01*
X0138395Y0686981D01*
X0138237Y0686977D01*
X0138079Y0686977D01*
X0137921Y0686981D01*
X0137762Y0686989D01*
X0137605Y0687001D01*
X0137447Y0687017D01*
X0137290Y0687037D01*
X0137134Y0687061D01*
X0136978Y0687089D01*
X0136823Y0687120D01*
X0136668Y0687156D01*
X0136515Y0687195D01*
X0136363Y0687238D01*
X0136212Y0687285D01*
X0136062Y0687336D01*
X0135913Y0687391D01*
X0135766Y0687449D01*
X0135620Y0687511D01*
X0135476Y0687576D01*
X0135334Y0687646D01*
X0135193Y0687718D01*
X0135054Y0687795D01*
X0134918Y0687874D01*
X0134783Y0687958D01*
X0134650Y0688044D01*
X0134520Y0688134D01*
X0134392Y0688227D01*
X0134266Y0688323D01*
X0134143Y0688423D01*
X0134022Y0688525D01*
X0133904Y0688630D01*
X0133789Y0688739D01*
X0133676Y0688850D01*
X0133566Y0688964D01*
X0133459Y0689081D01*
X0133355Y0689200D01*
X0133254Y0689322D01*
X0133157Y0689447D01*
X0133062Y0689574D01*
X0132971Y0689703D01*
X0132882Y0689834D01*
X0132798Y0689968D01*
X0132716Y0690104D01*
X0132638Y0690241D01*
X0132564Y0690381D01*
X0132493Y0690523D01*
X0132425Y0690666D01*
X0132361Y0690811D01*
X0132301Y0690957D01*
X0132245Y0691105D01*
X0132192Y0691254D01*
X0132143Y0691405D01*
X0132098Y0691557D01*
X0132057Y0691710D01*
X0132019Y0691863D01*
X0131986Y0692018D01*
X0131956Y0692174D01*
X0131930Y0692330D01*
X0131909Y0692487D01*
X0131891Y0692644D01*
X0131877Y0692802D01*
X0131867Y0692960D01*
X0131861Y0693118D01*
X0131859Y0693276D01*
X0616111Y0693276D02*
X0616113Y0693434D01*
X0616119Y0693592D01*
X0616129Y0693750D01*
X0616143Y0693908D01*
X0616161Y0694065D01*
X0616182Y0694222D01*
X0616208Y0694378D01*
X0616238Y0694534D01*
X0616271Y0694689D01*
X0616309Y0694842D01*
X0616350Y0694995D01*
X0616395Y0695147D01*
X0616444Y0695298D01*
X0616497Y0695447D01*
X0616553Y0695595D01*
X0616613Y0695741D01*
X0616677Y0695886D01*
X0616745Y0696029D01*
X0616816Y0696171D01*
X0616890Y0696311D01*
X0616968Y0696448D01*
X0617050Y0696584D01*
X0617134Y0696718D01*
X0617223Y0696849D01*
X0617314Y0696978D01*
X0617409Y0697105D01*
X0617506Y0697230D01*
X0617607Y0697352D01*
X0617711Y0697471D01*
X0617818Y0697588D01*
X0617928Y0697702D01*
X0618041Y0697813D01*
X0618156Y0697922D01*
X0618274Y0698027D01*
X0618395Y0698129D01*
X0618518Y0698229D01*
X0618644Y0698325D01*
X0618772Y0698418D01*
X0618902Y0698508D01*
X0619035Y0698594D01*
X0619170Y0698678D01*
X0619306Y0698757D01*
X0619445Y0698834D01*
X0619586Y0698906D01*
X0619728Y0698976D01*
X0619872Y0699041D01*
X0620018Y0699103D01*
X0620165Y0699161D01*
X0620314Y0699216D01*
X0620464Y0699267D01*
X0620615Y0699314D01*
X0620767Y0699357D01*
X0620920Y0699396D01*
X0621075Y0699432D01*
X0621230Y0699463D01*
X0621386Y0699491D01*
X0621542Y0699515D01*
X0621699Y0699535D01*
X0621857Y0699551D01*
X0622014Y0699563D01*
X0622173Y0699571D01*
X0622331Y0699575D01*
X0622489Y0699575D01*
X0622647Y0699571D01*
X0622806Y0699563D01*
X0622963Y0699551D01*
X0623121Y0699535D01*
X0623278Y0699515D01*
X0623434Y0699491D01*
X0623590Y0699463D01*
X0623745Y0699432D01*
X0623900Y0699396D01*
X0624053Y0699357D01*
X0624205Y0699314D01*
X0624356Y0699267D01*
X0624506Y0699216D01*
X0624655Y0699161D01*
X0624802Y0699103D01*
X0624948Y0699041D01*
X0625092Y0698976D01*
X0625234Y0698906D01*
X0625375Y0698834D01*
X0625514Y0698757D01*
X0625650Y0698678D01*
X0625785Y0698594D01*
X0625918Y0698508D01*
X0626048Y0698418D01*
X0626176Y0698325D01*
X0626302Y0698229D01*
X0626425Y0698129D01*
X0626546Y0698027D01*
X0626664Y0697922D01*
X0626779Y0697813D01*
X0626892Y0697702D01*
X0627002Y0697588D01*
X0627109Y0697471D01*
X0627213Y0697352D01*
X0627314Y0697230D01*
X0627411Y0697105D01*
X0627506Y0696978D01*
X0627597Y0696849D01*
X0627686Y0696718D01*
X0627770Y0696584D01*
X0627852Y0696448D01*
X0627930Y0696311D01*
X0628004Y0696171D01*
X0628075Y0696029D01*
X0628143Y0695886D01*
X0628207Y0695741D01*
X0628267Y0695595D01*
X0628323Y0695447D01*
X0628376Y0695298D01*
X0628425Y0695147D01*
X0628470Y0694995D01*
X0628511Y0694842D01*
X0628549Y0694689D01*
X0628582Y0694534D01*
X0628612Y0694378D01*
X0628638Y0694222D01*
X0628659Y0694065D01*
X0628677Y0693908D01*
X0628691Y0693750D01*
X0628701Y0693592D01*
X0628707Y0693434D01*
X0628709Y0693276D01*
X0628707Y0693118D01*
X0628701Y0692960D01*
X0628691Y0692802D01*
X0628677Y0692644D01*
X0628659Y0692487D01*
X0628638Y0692330D01*
X0628612Y0692174D01*
X0628582Y0692018D01*
X0628549Y0691863D01*
X0628511Y0691710D01*
X0628470Y0691557D01*
X0628425Y0691405D01*
X0628376Y0691254D01*
X0628323Y0691105D01*
X0628267Y0690957D01*
X0628207Y0690811D01*
X0628143Y0690666D01*
X0628075Y0690523D01*
X0628004Y0690381D01*
X0627930Y0690241D01*
X0627852Y0690104D01*
X0627770Y0689968D01*
X0627686Y0689834D01*
X0627597Y0689703D01*
X0627506Y0689574D01*
X0627411Y0689447D01*
X0627314Y0689322D01*
X0627213Y0689200D01*
X0627109Y0689081D01*
X0627002Y0688964D01*
X0626892Y0688850D01*
X0626779Y0688739D01*
X0626664Y0688630D01*
X0626546Y0688525D01*
X0626425Y0688423D01*
X0626302Y0688323D01*
X0626176Y0688227D01*
X0626048Y0688134D01*
X0625918Y0688044D01*
X0625785Y0687958D01*
X0625650Y0687874D01*
X0625514Y0687795D01*
X0625375Y0687718D01*
X0625234Y0687646D01*
X0625092Y0687576D01*
X0624948Y0687511D01*
X0624802Y0687449D01*
X0624655Y0687391D01*
X0624506Y0687336D01*
X0624356Y0687285D01*
X0624205Y0687238D01*
X0624053Y0687195D01*
X0623900Y0687156D01*
X0623745Y0687120D01*
X0623590Y0687089D01*
X0623434Y0687061D01*
X0623278Y0687037D01*
X0623121Y0687017D01*
X0622963Y0687001D01*
X0622806Y0686989D01*
X0622647Y0686981D01*
X0622489Y0686977D01*
X0622331Y0686977D01*
X0622173Y0686981D01*
X0622014Y0686989D01*
X0621857Y0687001D01*
X0621699Y0687017D01*
X0621542Y0687037D01*
X0621386Y0687061D01*
X0621230Y0687089D01*
X0621075Y0687120D01*
X0620920Y0687156D01*
X0620767Y0687195D01*
X0620615Y0687238D01*
X0620464Y0687285D01*
X0620314Y0687336D01*
X0620165Y0687391D01*
X0620018Y0687449D01*
X0619872Y0687511D01*
X0619728Y0687576D01*
X0619586Y0687646D01*
X0619445Y0687718D01*
X0619306Y0687795D01*
X0619170Y0687874D01*
X0619035Y0687958D01*
X0618902Y0688044D01*
X0618772Y0688134D01*
X0618644Y0688227D01*
X0618518Y0688323D01*
X0618395Y0688423D01*
X0618274Y0688525D01*
X0618156Y0688630D01*
X0618041Y0688739D01*
X0617928Y0688850D01*
X0617818Y0688964D01*
X0617711Y0689081D01*
X0617607Y0689200D01*
X0617506Y0689322D01*
X0617409Y0689447D01*
X0617314Y0689574D01*
X0617223Y0689703D01*
X0617134Y0689834D01*
X0617050Y0689968D01*
X0616968Y0690104D01*
X0616890Y0690241D01*
X0616816Y0690381D01*
X0616745Y0690523D01*
X0616677Y0690666D01*
X0616613Y0690811D01*
X0616553Y0690957D01*
X0616497Y0691105D01*
X0616444Y0691254D01*
X0616395Y0691405D01*
X0616350Y0691557D01*
X0616309Y0691710D01*
X0616271Y0691863D01*
X0616238Y0692018D01*
X0616208Y0692174D01*
X0616182Y0692330D01*
X0616161Y0692487D01*
X0616143Y0692644D01*
X0616129Y0692802D01*
X0616119Y0692960D01*
X0616113Y0693118D01*
X0616111Y0693276D01*
X0690914Y0693276D02*
X0690916Y0693434D01*
X0690922Y0693592D01*
X0690932Y0693750D01*
X0690946Y0693908D01*
X0690964Y0694065D01*
X0690985Y0694222D01*
X0691011Y0694378D01*
X0691041Y0694534D01*
X0691074Y0694689D01*
X0691112Y0694842D01*
X0691153Y0694995D01*
X0691198Y0695147D01*
X0691247Y0695298D01*
X0691300Y0695447D01*
X0691356Y0695595D01*
X0691416Y0695741D01*
X0691480Y0695886D01*
X0691548Y0696029D01*
X0691619Y0696171D01*
X0691693Y0696311D01*
X0691771Y0696448D01*
X0691853Y0696584D01*
X0691937Y0696718D01*
X0692026Y0696849D01*
X0692117Y0696978D01*
X0692212Y0697105D01*
X0692309Y0697230D01*
X0692410Y0697352D01*
X0692514Y0697471D01*
X0692621Y0697588D01*
X0692731Y0697702D01*
X0692844Y0697813D01*
X0692959Y0697922D01*
X0693077Y0698027D01*
X0693198Y0698129D01*
X0693321Y0698229D01*
X0693447Y0698325D01*
X0693575Y0698418D01*
X0693705Y0698508D01*
X0693838Y0698594D01*
X0693973Y0698678D01*
X0694109Y0698757D01*
X0694248Y0698834D01*
X0694389Y0698906D01*
X0694531Y0698976D01*
X0694675Y0699041D01*
X0694821Y0699103D01*
X0694968Y0699161D01*
X0695117Y0699216D01*
X0695267Y0699267D01*
X0695418Y0699314D01*
X0695570Y0699357D01*
X0695723Y0699396D01*
X0695878Y0699432D01*
X0696033Y0699463D01*
X0696189Y0699491D01*
X0696345Y0699515D01*
X0696502Y0699535D01*
X0696660Y0699551D01*
X0696817Y0699563D01*
X0696976Y0699571D01*
X0697134Y0699575D01*
X0697292Y0699575D01*
X0697450Y0699571D01*
X0697609Y0699563D01*
X0697766Y0699551D01*
X0697924Y0699535D01*
X0698081Y0699515D01*
X0698237Y0699491D01*
X0698393Y0699463D01*
X0698548Y0699432D01*
X0698703Y0699396D01*
X0698856Y0699357D01*
X0699008Y0699314D01*
X0699159Y0699267D01*
X0699309Y0699216D01*
X0699458Y0699161D01*
X0699605Y0699103D01*
X0699751Y0699041D01*
X0699895Y0698976D01*
X0700037Y0698906D01*
X0700178Y0698834D01*
X0700317Y0698757D01*
X0700453Y0698678D01*
X0700588Y0698594D01*
X0700721Y0698508D01*
X0700851Y0698418D01*
X0700979Y0698325D01*
X0701105Y0698229D01*
X0701228Y0698129D01*
X0701349Y0698027D01*
X0701467Y0697922D01*
X0701582Y0697813D01*
X0701695Y0697702D01*
X0701805Y0697588D01*
X0701912Y0697471D01*
X0702016Y0697352D01*
X0702117Y0697230D01*
X0702214Y0697105D01*
X0702309Y0696978D01*
X0702400Y0696849D01*
X0702489Y0696718D01*
X0702573Y0696584D01*
X0702655Y0696448D01*
X0702733Y0696311D01*
X0702807Y0696171D01*
X0702878Y0696029D01*
X0702946Y0695886D01*
X0703010Y0695741D01*
X0703070Y0695595D01*
X0703126Y0695447D01*
X0703179Y0695298D01*
X0703228Y0695147D01*
X0703273Y0694995D01*
X0703314Y0694842D01*
X0703352Y0694689D01*
X0703385Y0694534D01*
X0703415Y0694378D01*
X0703441Y0694222D01*
X0703462Y0694065D01*
X0703480Y0693908D01*
X0703494Y0693750D01*
X0703504Y0693592D01*
X0703510Y0693434D01*
X0703512Y0693276D01*
X0703510Y0693118D01*
X0703504Y0692960D01*
X0703494Y0692802D01*
X0703480Y0692644D01*
X0703462Y0692487D01*
X0703441Y0692330D01*
X0703415Y0692174D01*
X0703385Y0692018D01*
X0703352Y0691863D01*
X0703314Y0691710D01*
X0703273Y0691557D01*
X0703228Y0691405D01*
X0703179Y0691254D01*
X0703126Y0691105D01*
X0703070Y0690957D01*
X0703010Y0690811D01*
X0702946Y0690666D01*
X0702878Y0690523D01*
X0702807Y0690381D01*
X0702733Y0690241D01*
X0702655Y0690104D01*
X0702573Y0689968D01*
X0702489Y0689834D01*
X0702400Y0689703D01*
X0702309Y0689574D01*
X0702214Y0689447D01*
X0702117Y0689322D01*
X0702016Y0689200D01*
X0701912Y0689081D01*
X0701805Y0688964D01*
X0701695Y0688850D01*
X0701582Y0688739D01*
X0701467Y0688630D01*
X0701349Y0688525D01*
X0701228Y0688423D01*
X0701105Y0688323D01*
X0700979Y0688227D01*
X0700851Y0688134D01*
X0700721Y0688044D01*
X0700588Y0687958D01*
X0700453Y0687874D01*
X0700317Y0687795D01*
X0700178Y0687718D01*
X0700037Y0687646D01*
X0699895Y0687576D01*
X0699751Y0687511D01*
X0699605Y0687449D01*
X0699458Y0687391D01*
X0699309Y0687336D01*
X0699159Y0687285D01*
X0699008Y0687238D01*
X0698856Y0687195D01*
X0698703Y0687156D01*
X0698548Y0687120D01*
X0698393Y0687089D01*
X0698237Y0687061D01*
X0698081Y0687037D01*
X0697924Y0687017D01*
X0697766Y0687001D01*
X0697609Y0686989D01*
X0697450Y0686981D01*
X0697292Y0686977D01*
X0697134Y0686977D01*
X0696976Y0686981D01*
X0696817Y0686989D01*
X0696660Y0687001D01*
X0696502Y0687017D01*
X0696345Y0687037D01*
X0696189Y0687061D01*
X0696033Y0687089D01*
X0695878Y0687120D01*
X0695723Y0687156D01*
X0695570Y0687195D01*
X0695418Y0687238D01*
X0695267Y0687285D01*
X0695117Y0687336D01*
X0694968Y0687391D01*
X0694821Y0687449D01*
X0694675Y0687511D01*
X0694531Y0687576D01*
X0694389Y0687646D01*
X0694248Y0687718D01*
X0694109Y0687795D01*
X0693973Y0687874D01*
X0693838Y0687958D01*
X0693705Y0688044D01*
X0693575Y0688134D01*
X0693447Y0688227D01*
X0693321Y0688323D01*
X0693198Y0688423D01*
X0693077Y0688525D01*
X0692959Y0688630D01*
X0692844Y0688739D01*
X0692731Y0688850D01*
X0692621Y0688964D01*
X0692514Y0689081D01*
X0692410Y0689200D01*
X0692309Y0689322D01*
X0692212Y0689447D01*
X0692117Y0689574D01*
X0692026Y0689703D01*
X0691937Y0689834D01*
X0691853Y0689968D01*
X0691771Y0690104D01*
X0691693Y0690241D01*
X0691619Y0690381D01*
X0691548Y0690523D01*
X0691480Y0690666D01*
X0691416Y0690811D01*
X0691356Y0690957D01*
X0691300Y0691105D01*
X0691247Y0691254D01*
X0691198Y0691405D01*
X0691153Y0691557D01*
X0691112Y0691710D01*
X0691074Y0691863D01*
X0691041Y0692018D01*
X0691011Y0692174D01*
X0690985Y0692330D01*
X0690964Y0692487D01*
X0690946Y0692644D01*
X0690932Y0692802D01*
X0690922Y0692960D01*
X0690916Y0693118D01*
X0690914Y0693276D01*
X0690914Y0027922D02*
X0690916Y0028080D01*
X0690922Y0028238D01*
X0690932Y0028396D01*
X0690946Y0028554D01*
X0690964Y0028711D01*
X0690985Y0028868D01*
X0691011Y0029024D01*
X0691041Y0029180D01*
X0691074Y0029335D01*
X0691112Y0029488D01*
X0691153Y0029641D01*
X0691198Y0029793D01*
X0691247Y0029944D01*
X0691300Y0030093D01*
X0691356Y0030241D01*
X0691416Y0030387D01*
X0691480Y0030532D01*
X0691548Y0030675D01*
X0691619Y0030817D01*
X0691693Y0030957D01*
X0691771Y0031094D01*
X0691853Y0031230D01*
X0691937Y0031364D01*
X0692026Y0031495D01*
X0692117Y0031624D01*
X0692212Y0031751D01*
X0692309Y0031876D01*
X0692410Y0031998D01*
X0692514Y0032117D01*
X0692621Y0032234D01*
X0692731Y0032348D01*
X0692844Y0032459D01*
X0692959Y0032568D01*
X0693077Y0032673D01*
X0693198Y0032775D01*
X0693321Y0032875D01*
X0693447Y0032971D01*
X0693575Y0033064D01*
X0693705Y0033154D01*
X0693838Y0033240D01*
X0693973Y0033324D01*
X0694109Y0033403D01*
X0694248Y0033480D01*
X0694389Y0033552D01*
X0694531Y0033622D01*
X0694675Y0033687D01*
X0694821Y0033749D01*
X0694968Y0033807D01*
X0695117Y0033862D01*
X0695267Y0033913D01*
X0695418Y0033960D01*
X0695570Y0034003D01*
X0695723Y0034042D01*
X0695878Y0034078D01*
X0696033Y0034109D01*
X0696189Y0034137D01*
X0696345Y0034161D01*
X0696502Y0034181D01*
X0696660Y0034197D01*
X0696817Y0034209D01*
X0696976Y0034217D01*
X0697134Y0034221D01*
X0697292Y0034221D01*
X0697450Y0034217D01*
X0697609Y0034209D01*
X0697766Y0034197D01*
X0697924Y0034181D01*
X0698081Y0034161D01*
X0698237Y0034137D01*
X0698393Y0034109D01*
X0698548Y0034078D01*
X0698703Y0034042D01*
X0698856Y0034003D01*
X0699008Y0033960D01*
X0699159Y0033913D01*
X0699309Y0033862D01*
X0699458Y0033807D01*
X0699605Y0033749D01*
X0699751Y0033687D01*
X0699895Y0033622D01*
X0700037Y0033552D01*
X0700178Y0033480D01*
X0700317Y0033403D01*
X0700453Y0033324D01*
X0700588Y0033240D01*
X0700721Y0033154D01*
X0700851Y0033064D01*
X0700979Y0032971D01*
X0701105Y0032875D01*
X0701228Y0032775D01*
X0701349Y0032673D01*
X0701467Y0032568D01*
X0701582Y0032459D01*
X0701695Y0032348D01*
X0701805Y0032234D01*
X0701912Y0032117D01*
X0702016Y0031998D01*
X0702117Y0031876D01*
X0702214Y0031751D01*
X0702309Y0031624D01*
X0702400Y0031495D01*
X0702489Y0031364D01*
X0702573Y0031230D01*
X0702655Y0031094D01*
X0702733Y0030957D01*
X0702807Y0030817D01*
X0702878Y0030675D01*
X0702946Y0030532D01*
X0703010Y0030387D01*
X0703070Y0030241D01*
X0703126Y0030093D01*
X0703179Y0029944D01*
X0703228Y0029793D01*
X0703273Y0029641D01*
X0703314Y0029488D01*
X0703352Y0029335D01*
X0703385Y0029180D01*
X0703415Y0029024D01*
X0703441Y0028868D01*
X0703462Y0028711D01*
X0703480Y0028554D01*
X0703494Y0028396D01*
X0703504Y0028238D01*
X0703510Y0028080D01*
X0703512Y0027922D01*
X0703510Y0027764D01*
X0703504Y0027606D01*
X0703494Y0027448D01*
X0703480Y0027290D01*
X0703462Y0027133D01*
X0703441Y0026976D01*
X0703415Y0026820D01*
X0703385Y0026664D01*
X0703352Y0026509D01*
X0703314Y0026356D01*
X0703273Y0026203D01*
X0703228Y0026051D01*
X0703179Y0025900D01*
X0703126Y0025751D01*
X0703070Y0025603D01*
X0703010Y0025457D01*
X0702946Y0025312D01*
X0702878Y0025169D01*
X0702807Y0025027D01*
X0702733Y0024887D01*
X0702655Y0024750D01*
X0702573Y0024614D01*
X0702489Y0024480D01*
X0702400Y0024349D01*
X0702309Y0024220D01*
X0702214Y0024093D01*
X0702117Y0023968D01*
X0702016Y0023846D01*
X0701912Y0023727D01*
X0701805Y0023610D01*
X0701695Y0023496D01*
X0701582Y0023385D01*
X0701467Y0023276D01*
X0701349Y0023171D01*
X0701228Y0023069D01*
X0701105Y0022969D01*
X0700979Y0022873D01*
X0700851Y0022780D01*
X0700721Y0022690D01*
X0700588Y0022604D01*
X0700453Y0022520D01*
X0700317Y0022441D01*
X0700178Y0022364D01*
X0700037Y0022292D01*
X0699895Y0022222D01*
X0699751Y0022157D01*
X0699605Y0022095D01*
X0699458Y0022037D01*
X0699309Y0021982D01*
X0699159Y0021931D01*
X0699008Y0021884D01*
X0698856Y0021841D01*
X0698703Y0021802D01*
X0698548Y0021766D01*
X0698393Y0021735D01*
X0698237Y0021707D01*
X0698081Y0021683D01*
X0697924Y0021663D01*
X0697766Y0021647D01*
X0697609Y0021635D01*
X0697450Y0021627D01*
X0697292Y0021623D01*
X0697134Y0021623D01*
X0696976Y0021627D01*
X0696817Y0021635D01*
X0696660Y0021647D01*
X0696502Y0021663D01*
X0696345Y0021683D01*
X0696189Y0021707D01*
X0696033Y0021735D01*
X0695878Y0021766D01*
X0695723Y0021802D01*
X0695570Y0021841D01*
X0695418Y0021884D01*
X0695267Y0021931D01*
X0695117Y0021982D01*
X0694968Y0022037D01*
X0694821Y0022095D01*
X0694675Y0022157D01*
X0694531Y0022222D01*
X0694389Y0022292D01*
X0694248Y0022364D01*
X0694109Y0022441D01*
X0693973Y0022520D01*
X0693838Y0022604D01*
X0693705Y0022690D01*
X0693575Y0022780D01*
X0693447Y0022873D01*
X0693321Y0022969D01*
X0693198Y0023069D01*
X0693077Y0023171D01*
X0692959Y0023276D01*
X0692844Y0023385D01*
X0692731Y0023496D01*
X0692621Y0023610D01*
X0692514Y0023727D01*
X0692410Y0023846D01*
X0692309Y0023968D01*
X0692212Y0024093D01*
X0692117Y0024220D01*
X0692026Y0024349D01*
X0691937Y0024480D01*
X0691853Y0024614D01*
X0691771Y0024750D01*
X0691693Y0024887D01*
X0691619Y0025027D01*
X0691548Y0025169D01*
X0691480Y0025312D01*
X0691416Y0025457D01*
X0691356Y0025603D01*
X0691300Y0025751D01*
X0691247Y0025900D01*
X0691198Y0026051D01*
X0691153Y0026203D01*
X0691112Y0026356D01*
X0691074Y0026509D01*
X0691041Y0026664D01*
X0691011Y0026820D01*
X0690985Y0026976D01*
X0690964Y0027133D01*
X0690946Y0027290D01*
X0690932Y0027448D01*
X0690922Y0027606D01*
X0690916Y0027764D01*
X0690914Y0027922D01*
X0616111Y0027922D02*
X0616113Y0028080D01*
X0616119Y0028238D01*
X0616129Y0028396D01*
X0616143Y0028554D01*
X0616161Y0028711D01*
X0616182Y0028868D01*
X0616208Y0029024D01*
X0616238Y0029180D01*
X0616271Y0029335D01*
X0616309Y0029488D01*
X0616350Y0029641D01*
X0616395Y0029793D01*
X0616444Y0029944D01*
X0616497Y0030093D01*
X0616553Y0030241D01*
X0616613Y0030387D01*
X0616677Y0030532D01*
X0616745Y0030675D01*
X0616816Y0030817D01*
X0616890Y0030957D01*
X0616968Y0031094D01*
X0617050Y0031230D01*
X0617134Y0031364D01*
X0617223Y0031495D01*
X0617314Y0031624D01*
X0617409Y0031751D01*
X0617506Y0031876D01*
X0617607Y0031998D01*
X0617711Y0032117D01*
X0617818Y0032234D01*
X0617928Y0032348D01*
X0618041Y0032459D01*
X0618156Y0032568D01*
X0618274Y0032673D01*
X0618395Y0032775D01*
X0618518Y0032875D01*
X0618644Y0032971D01*
X0618772Y0033064D01*
X0618902Y0033154D01*
X0619035Y0033240D01*
X0619170Y0033324D01*
X0619306Y0033403D01*
X0619445Y0033480D01*
X0619586Y0033552D01*
X0619728Y0033622D01*
X0619872Y0033687D01*
X0620018Y0033749D01*
X0620165Y0033807D01*
X0620314Y0033862D01*
X0620464Y0033913D01*
X0620615Y0033960D01*
X0620767Y0034003D01*
X0620920Y0034042D01*
X0621075Y0034078D01*
X0621230Y0034109D01*
X0621386Y0034137D01*
X0621542Y0034161D01*
X0621699Y0034181D01*
X0621857Y0034197D01*
X0622014Y0034209D01*
X0622173Y0034217D01*
X0622331Y0034221D01*
X0622489Y0034221D01*
X0622647Y0034217D01*
X0622806Y0034209D01*
X0622963Y0034197D01*
X0623121Y0034181D01*
X0623278Y0034161D01*
X0623434Y0034137D01*
X0623590Y0034109D01*
X0623745Y0034078D01*
X0623900Y0034042D01*
X0624053Y0034003D01*
X0624205Y0033960D01*
X0624356Y0033913D01*
X0624506Y0033862D01*
X0624655Y0033807D01*
X0624802Y0033749D01*
X0624948Y0033687D01*
X0625092Y0033622D01*
X0625234Y0033552D01*
X0625375Y0033480D01*
X0625514Y0033403D01*
X0625650Y0033324D01*
X0625785Y0033240D01*
X0625918Y0033154D01*
X0626048Y0033064D01*
X0626176Y0032971D01*
X0626302Y0032875D01*
X0626425Y0032775D01*
X0626546Y0032673D01*
X0626664Y0032568D01*
X0626779Y0032459D01*
X0626892Y0032348D01*
X0627002Y0032234D01*
X0627109Y0032117D01*
X0627213Y0031998D01*
X0627314Y0031876D01*
X0627411Y0031751D01*
X0627506Y0031624D01*
X0627597Y0031495D01*
X0627686Y0031364D01*
X0627770Y0031230D01*
X0627852Y0031094D01*
X0627930Y0030957D01*
X0628004Y0030817D01*
X0628075Y0030675D01*
X0628143Y0030532D01*
X0628207Y0030387D01*
X0628267Y0030241D01*
X0628323Y0030093D01*
X0628376Y0029944D01*
X0628425Y0029793D01*
X0628470Y0029641D01*
X0628511Y0029488D01*
X0628549Y0029335D01*
X0628582Y0029180D01*
X0628612Y0029024D01*
X0628638Y0028868D01*
X0628659Y0028711D01*
X0628677Y0028554D01*
X0628691Y0028396D01*
X0628701Y0028238D01*
X0628707Y0028080D01*
X0628709Y0027922D01*
X0628707Y0027764D01*
X0628701Y0027606D01*
X0628691Y0027448D01*
X0628677Y0027290D01*
X0628659Y0027133D01*
X0628638Y0026976D01*
X0628612Y0026820D01*
X0628582Y0026664D01*
X0628549Y0026509D01*
X0628511Y0026356D01*
X0628470Y0026203D01*
X0628425Y0026051D01*
X0628376Y0025900D01*
X0628323Y0025751D01*
X0628267Y0025603D01*
X0628207Y0025457D01*
X0628143Y0025312D01*
X0628075Y0025169D01*
X0628004Y0025027D01*
X0627930Y0024887D01*
X0627852Y0024750D01*
X0627770Y0024614D01*
X0627686Y0024480D01*
X0627597Y0024349D01*
X0627506Y0024220D01*
X0627411Y0024093D01*
X0627314Y0023968D01*
X0627213Y0023846D01*
X0627109Y0023727D01*
X0627002Y0023610D01*
X0626892Y0023496D01*
X0626779Y0023385D01*
X0626664Y0023276D01*
X0626546Y0023171D01*
X0626425Y0023069D01*
X0626302Y0022969D01*
X0626176Y0022873D01*
X0626048Y0022780D01*
X0625918Y0022690D01*
X0625785Y0022604D01*
X0625650Y0022520D01*
X0625514Y0022441D01*
X0625375Y0022364D01*
X0625234Y0022292D01*
X0625092Y0022222D01*
X0624948Y0022157D01*
X0624802Y0022095D01*
X0624655Y0022037D01*
X0624506Y0021982D01*
X0624356Y0021931D01*
X0624205Y0021884D01*
X0624053Y0021841D01*
X0623900Y0021802D01*
X0623745Y0021766D01*
X0623590Y0021735D01*
X0623434Y0021707D01*
X0623278Y0021683D01*
X0623121Y0021663D01*
X0622963Y0021647D01*
X0622806Y0021635D01*
X0622647Y0021627D01*
X0622489Y0021623D01*
X0622331Y0021623D01*
X0622173Y0021627D01*
X0622014Y0021635D01*
X0621857Y0021647D01*
X0621699Y0021663D01*
X0621542Y0021683D01*
X0621386Y0021707D01*
X0621230Y0021735D01*
X0621075Y0021766D01*
X0620920Y0021802D01*
X0620767Y0021841D01*
X0620615Y0021884D01*
X0620464Y0021931D01*
X0620314Y0021982D01*
X0620165Y0022037D01*
X0620018Y0022095D01*
X0619872Y0022157D01*
X0619728Y0022222D01*
X0619586Y0022292D01*
X0619445Y0022364D01*
X0619306Y0022441D01*
X0619170Y0022520D01*
X0619035Y0022604D01*
X0618902Y0022690D01*
X0618772Y0022780D01*
X0618644Y0022873D01*
X0618518Y0022969D01*
X0618395Y0023069D01*
X0618274Y0023171D01*
X0618156Y0023276D01*
X0618041Y0023385D01*
X0617928Y0023496D01*
X0617818Y0023610D01*
X0617711Y0023727D01*
X0617607Y0023846D01*
X0617506Y0023968D01*
X0617409Y0024093D01*
X0617314Y0024220D01*
X0617223Y0024349D01*
X0617134Y0024480D01*
X0617050Y0024614D01*
X0616968Y0024750D01*
X0616890Y0024887D01*
X0616816Y0025027D01*
X0616745Y0025169D01*
X0616677Y0025312D01*
X0616613Y0025457D01*
X0616553Y0025603D01*
X0616497Y0025751D01*
X0616444Y0025900D01*
X0616395Y0026051D01*
X0616350Y0026203D01*
X0616309Y0026356D01*
X0616271Y0026509D01*
X0616238Y0026664D01*
X0616208Y0026820D01*
X0616182Y0026976D01*
X0616161Y0027133D01*
X0616143Y0027290D01*
X0616129Y0027448D01*
X0616119Y0027606D01*
X0616113Y0027764D01*
X0616111Y0027922D01*
X0131859Y0027922D02*
X0131861Y0028080D01*
X0131867Y0028238D01*
X0131877Y0028396D01*
X0131891Y0028554D01*
X0131909Y0028711D01*
X0131930Y0028868D01*
X0131956Y0029024D01*
X0131986Y0029180D01*
X0132019Y0029335D01*
X0132057Y0029488D01*
X0132098Y0029641D01*
X0132143Y0029793D01*
X0132192Y0029944D01*
X0132245Y0030093D01*
X0132301Y0030241D01*
X0132361Y0030387D01*
X0132425Y0030532D01*
X0132493Y0030675D01*
X0132564Y0030817D01*
X0132638Y0030957D01*
X0132716Y0031094D01*
X0132798Y0031230D01*
X0132882Y0031364D01*
X0132971Y0031495D01*
X0133062Y0031624D01*
X0133157Y0031751D01*
X0133254Y0031876D01*
X0133355Y0031998D01*
X0133459Y0032117D01*
X0133566Y0032234D01*
X0133676Y0032348D01*
X0133789Y0032459D01*
X0133904Y0032568D01*
X0134022Y0032673D01*
X0134143Y0032775D01*
X0134266Y0032875D01*
X0134392Y0032971D01*
X0134520Y0033064D01*
X0134650Y0033154D01*
X0134783Y0033240D01*
X0134918Y0033324D01*
X0135054Y0033403D01*
X0135193Y0033480D01*
X0135334Y0033552D01*
X0135476Y0033622D01*
X0135620Y0033687D01*
X0135766Y0033749D01*
X0135913Y0033807D01*
X0136062Y0033862D01*
X0136212Y0033913D01*
X0136363Y0033960D01*
X0136515Y0034003D01*
X0136668Y0034042D01*
X0136823Y0034078D01*
X0136978Y0034109D01*
X0137134Y0034137D01*
X0137290Y0034161D01*
X0137447Y0034181D01*
X0137605Y0034197D01*
X0137762Y0034209D01*
X0137921Y0034217D01*
X0138079Y0034221D01*
X0138237Y0034221D01*
X0138395Y0034217D01*
X0138554Y0034209D01*
X0138711Y0034197D01*
X0138869Y0034181D01*
X0139026Y0034161D01*
X0139182Y0034137D01*
X0139338Y0034109D01*
X0139493Y0034078D01*
X0139648Y0034042D01*
X0139801Y0034003D01*
X0139953Y0033960D01*
X0140104Y0033913D01*
X0140254Y0033862D01*
X0140403Y0033807D01*
X0140550Y0033749D01*
X0140696Y0033687D01*
X0140840Y0033622D01*
X0140982Y0033552D01*
X0141123Y0033480D01*
X0141262Y0033403D01*
X0141398Y0033324D01*
X0141533Y0033240D01*
X0141666Y0033154D01*
X0141796Y0033064D01*
X0141924Y0032971D01*
X0142050Y0032875D01*
X0142173Y0032775D01*
X0142294Y0032673D01*
X0142412Y0032568D01*
X0142527Y0032459D01*
X0142640Y0032348D01*
X0142750Y0032234D01*
X0142857Y0032117D01*
X0142961Y0031998D01*
X0143062Y0031876D01*
X0143159Y0031751D01*
X0143254Y0031624D01*
X0143345Y0031495D01*
X0143434Y0031364D01*
X0143518Y0031230D01*
X0143600Y0031094D01*
X0143678Y0030957D01*
X0143752Y0030817D01*
X0143823Y0030675D01*
X0143891Y0030532D01*
X0143955Y0030387D01*
X0144015Y0030241D01*
X0144071Y0030093D01*
X0144124Y0029944D01*
X0144173Y0029793D01*
X0144218Y0029641D01*
X0144259Y0029488D01*
X0144297Y0029335D01*
X0144330Y0029180D01*
X0144360Y0029024D01*
X0144386Y0028868D01*
X0144407Y0028711D01*
X0144425Y0028554D01*
X0144439Y0028396D01*
X0144449Y0028238D01*
X0144455Y0028080D01*
X0144457Y0027922D01*
X0144455Y0027764D01*
X0144449Y0027606D01*
X0144439Y0027448D01*
X0144425Y0027290D01*
X0144407Y0027133D01*
X0144386Y0026976D01*
X0144360Y0026820D01*
X0144330Y0026664D01*
X0144297Y0026509D01*
X0144259Y0026356D01*
X0144218Y0026203D01*
X0144173Y0026051D01*
X0144124Y0025900D01*
X0144071Y0025751D01*
X0144015Y0025603D01*
X0143955Y0025457D01*
X0143891Y0025312D01*
X0143823Y0025169D01*
X0143752Y0025027D01*
X0143678Y0024887D01*
X0143600Y0024750D01*
X0143518Y0024614D01*
X0143434Y0024480D01*
X0143345Y0024349D01*
X0143254Y0024220D01*
X0143159Y0024093D01*
X0143062Y0023968D01*
X0142961Y0023846D01*
X0142857Y0023727D01*
X0142750Y0023610D01*
X0142640Y0023496D01*
X0142527Y0023385D01*
X0142412Y0023276D01*
X0142294Y0023171D01*
X0142173Y0023069D01*
X0142050Y0022969D01*
X0141924Y0022873D01*
X0141796Y0022780D01*
X0141666Y0022690D01*
X0141533Y0022604D01*
X0141398Y0022520D01*
X0141262Y0022441D01*
X0141123Y0022364D01*
X0140982Y0022292D01*
X0140840Y0022222D01*
X0140696Y0022157D01*
X0140550Y0022095D01*
X0140403Y0022037D01*
X0140254Y0021982D01*
X0140104Y0021931D01*
X0139953Y0021884D01*
X0139801Y0021841D01*
X0139648Y0021802D01*
X0139493Y0021766D01*
X0139338Y0021735D01*
X0139182Y0021707D01*
X0139026Y0021683D01*
X0138869Y0021663D01*
X0138711Y0021647D01*
X0138554Y0021635D01*
X0138395Y0021627D01*
X0138237Y0021623D01*
X0138079Y0021623D01*
X0137921Y0021627D01*
X0137762Y0021635D01*
X0137605Y0021647D01*
X0137447Y0021663D01*
X0137290Y0021683D01*
X0137134Y0021707D01*
X0136978Y0021735D01*
X0136823Y0021766D01*
X0136668Y0021802D01*
X0136515Y0021841D01*
X0136363Y0021884D01*
X0136212Y0021931D01*
X0136062Y0021982D01*
X0135913Y0022037D01*
X0135766Y0022095D01*
X0135620Y0022157D01*
X0135476Y0022222D01*
X0135334Y0022292D01*
X0135193Y0022364D01*
X0135054Y0022441D01*
X0134918Y0022520D01*
X0134783Y0022604D01*
X0134650Y0022690D01*
X0134520Y0022780D01*
X0134392Y0022873D01*
X0134266Y0022969D01*
X0134143Y0023069D01*
X0134022Y0023171D01*
X0133904Y0023276D01*
X0133789Y0023385D01*
X0133676Y0023496D01*
X0133566Y0023610D01*
X0133459Y0023727D01*
X0133355Y0023846D01*
X0133254Y0023968D01*
X0133157Y0024093D01*
X0133062Y0024220D01*
X0132971Y0024349D01*
X0132882Y0024480D01*
X0132798Y0024614D01*
X0132716Y0024750D01*
X0132638Y0024887D01*
X0132564Y0025027D01*
X0132493Y0025169D01*
X0132425Y0025312D01*
X0132361Y0025457D01*
X0132301Y0025603D01*
X0132245Y0025751D01*
X0132192Y0025900D01*
X0132143Y0026051D01*
X0132098Y0026203D01*
X0132057Y0026356D01*
X0132019Y0026509D01*
X0131986Y0026664D01*
X0131956Y0026820D01*
X0131930Y0026976D01*
X0131909Y0027133D01*
X0131891Y0027290D01*
X0131877Y0027448D01*
X0131867Y0027606D01*
X0131861Y0027764D01*
X0131859Y0027922D01*
X0053119Y0027922D02*
X0053121Y0028080D01*
X0053127Y0028238D01*
X0053137Y0028396D01*
X0053151Y0028554D01*
X0053169Y0028711D01*
X0053190Y0028868D01*
X0053216Y0029024D01*
X0053246Y0029180D01*
X0053279Y0029335D01*
X0053317Y0029488D01*
X0053358Y0029641D01*
X0053403Y0029793D01*
X0053452Y0029944D01*
X0053505Y0030093D01*
X0053561Y0030241D01*
X0053621Y0030387D01*
X0053685Y0030532D01*
X0053753Y0030675D01*
X0053824Y0030817D01*
X0053898Y0030957D01*
X0053976Y0031094D01*
X0054058Y0031230D01*
X0054142Y0031364D01*
X0054231Y0031495D01*
X0054322Y0031624D01*
X0054417Y0031751D01*
X0054514Y0031876D01*
X0054615Y0031998D01*
X0054719Y0032117D01*
X0054826Y0032234D01*
X0054936Y0032348D01*
X0055049Y0032459D01*
X0055164Y0032568D01*
X0055282Y0032673D01*
X0055403Y0032775D01*
X0055526Y0032875D01*
X0055652Y0032971D01*
X0055780Y0033064D01*
X0055910Y0033154D01*
X0056043Y0033240D01*
X0056178Y0033324D01*
X0056314Y0033403D01*
X0056453Y0033480D01*
X0056594Y0033552D01*
X0056736Y0033622D01*
X0056880Y0033687D01*
X0057026Y0033749D01*
X0057173Y0033807D01*
X0057322Y0033862D01*
X0057472Y0033913D01*
X0057623Y0033960D01*
X0057775Y0034003D01*
X0057928Y0034042D01*
X0058083Y0034078D01*
X0058238Y0034109D01*
X0058394Y0034137D01*
X0058550Y0034161D01*
X0058707Y0034181D01*
X0058865Y0034197D01*
X0059022Y0034209D01*
X0059181Y0034217D01*
X0059339Y0034221D01*
X0059497Y0034221D01*
X0059655Y0034217D01*
X0059814Y0034209D01*
X0059971Y0034197D01*
X0060129Y0034181D01*
X0060286Y0034161D01*
X0060442Y0034137D01*
X0060598Y0034109D01*
X0060753Y0034078D01*
X0060908Y0034042D01*
X0061061Y0034003D01*
X0061213Y0033960D01*
X0061364Y0033913D01*
X0061514Y0033862D01*
X0061663Y0033807D01*
X0061810Y0033749D01*
X0061956Y0033687D01*
X0062100Y0033622D01*
X0062242Y0033552D01*
X0062383Y0033480D01*
X0062522Y0033403D01*
X0062658Y0033324D01*
X0062793Y0033240D01*
X0062926Y0033154D01*
X0063056Y0033064D01*
X0063184Y0032971D01*
X0063310Y0032875D01*
X0063433Y0032775D01*
X0063554Y0032673D01*
X0063672Y0032568D01*
X0063787Y0032459D01*
X0063900Y0032348D01*
X0064010Y0032234D01*
X0064117Y0032117D01*
X0064221Y0031998D01*
X0064322Y0031876D01*
X0064419Y0031751D01*
X0064514Y0031624D01*
X0064605Y0031495D01*
X0064694Y0031364D01*
X0064778Y0031230D01*
X0064860Y0031094D01*
X0064938Y0030957D01*
X0065012Y0030817D01*
X0065083Y0030675D01*
X0065151Y0030532D01*
X0065215Y0030387D01*
X0065275Y0030241D01*
X0065331Y0030093D01*
X0065384Y0029944D01*
X0065433Y0029793D01*
X0065478Y0029641D01*
X0065519Y0029488D01*
X0065557Y0029335D01*
X0065590Y0029180D01*
X0065620Y0029024D01*
X0065646Y0028868D01*
X0065667Y0028711D01*
X0065685Y0028554D01*
X0065699Y0028396D01*
X0065709Y0028238D01*
X0065715Y0028080D01*
X0065717Y0027922D01*
X0065715Y0027764D01*
X0065709Y0027606D01*
X0065699Y0027448D01*
X0065685Y0027290D01*
X0065667Y0027133D01*
X0065646Y0026976D01*
X0065620Y0026820D01*
X0065590Y0026664D01*
X0065557Y0026509D01*
X0065519Y0026356D01*
X0065478Y0026203D01*
X0065433Y0026051D01*
X0065384Y0025900D01*
X0065331Y0025751D01*
X0065275Y0025603D01*
X0065215Y0025457D01*
X0065151Y0025312D01*
X0065083Y0025169D01*
X0065012Y0025027D01*
X0064938Y0024887D01*
X0064860Y0024750D01*
X0064778Y0024614D01*
X0064694Y0024480D01*
X0064605Y0024349D01*
X0064514Y0024220D01*
X0064419Y0024093D01*
X0064322Y0023968D01*
X0064221Y0023846D01*
X0064117Y0023727D01*
X0064010Y0023610D01*
X0063900Y0023496D01*
X0063787Y0023385D01*
X0063672Y0023276D01*
X0063554Y0023171D01*
X0063433Y0023069D01*
X0063310Y0022969D01*
X0063184Y0022873D01*
X0063056Y0022780D01*
X0062926Y0022690D01*
X0062793Y0022604D01*
X0062658Y0022520D01*
X0062522Y0022441D01*
X0062383Y0022364D01*
X0062242Y0022292D01*
X0062100Y0022222D01*
X0061956Y0022157D01*
X0061810Y0022095D01*
X0061663Y0022037D01*
X0061514Y0021982D01*
X0061364Y0021931D01*
X0061213Y0021884D01*
X0061061Y0021841D01*
X0060908Y0021802D01*
X0060753Y0021766D01*
X0060598Y0021735D01*
X0060442Y0021707D01*
X0060286Y0021683D01*
X0060129Y0021663D01*
X0059971Y0021647D01*
X0059814Y0021635D01*
X0059655Y0021627D01*
X0059497Y0021623D01*
X0059339Y0021623D01*
X0059181Y0021627D01*
X0059022Y0021635D01*
X0058865Y0021647D01*
X0058707Y0021663D01*
X0058550Y0021683D01*
X0058394Y0021707D01*
X0058238Y0021735D01*
X0058083Y0021766D01*
X0057928Y0021802D01*
X0057775Y0021841D01*
X0057623Y0021884D01*
X0057472Y0021931D01*
X0057322Y0021982D01*
X0057173Y0022037D01*
X0057026Y0022095D01*
X0056880Y0022157D01*
X0056736Y0022222D01*
X0056594Y0022292D01*
X0056453Y0022364D01*
X0056314Y0022441D01*
X0056178Y0022520D01*
X0056043Y0022604D01*
X0055910Y0022690D01*
X0055780Y0022780D01*
X0055652Y0022873D01*
X0055526Y0022969D01*
X0055403Y0023069D01*
X0055282Y0023171D01*
X0055164Y0023276D01*
X0055049Y0023385D01*
X0054936Y0023496D01*
X0054826Y0023610D01*
X0054719Y0023727D01*
X0054615Y0023846D01*
X0054514Y0023968D01*
X0054417Y0024093D01*
X0054322Y0024220D01*
X0054231Y0024349D01*
X0054142Y0024480D01*
X0054058Y0024614D01*
X0053976Y0024750D01*
X0053898Y0024887D01*
X0053824Y0025027D01*
X0053753Y0025169D01*
X0053685Y0025312D01*
X0053621Y0025457D01*
X0053561Y0025603D01*
X0053505Y0025751D01*
X0053452Y0025900D01*
X0053403Y0026051D01*
X0053358Y0026203D01*
X0053317Y0026356D01*
X0053279Y0026509D01*
X0053246Y0026664D01*
X0053216Y0026820D01*
X0053190Y0026976D01*
X0053169Y0027133D01*
X0053151Y0027290D01*
X0053137Y0027448D01*
X0053127Y0027606D01*
X0053121Y0027764D01*
X0053119Y0027922D01*
D12*
X0171300Y0119300D02*
X0177300Y0119300D01*
X0177300Y0129300D02*
X0171300Y0129300D01*
X0171300Y0139300D02*
X0177300Y0139300D01*
X0177300Y0149300D02*
X0171300Y0149300D01*
X0147300Y0164300D02*
X0141300Y0164300D01*
X0141300Y0174300D02*
X0147300Y0174300D01*
X0147300Y0184300D02*
X0141300Y0184300D01*
X0141300Y0249300D02*
X0147300Y0249300D01*
X0147300Y0259300D02*
X0141300Y0259300D01*
X0141300Y0269300D02*
X0147300Y0269300D01*
X0147300Y0279300D02*
X0141300Y0279300D01*
X0141300Y0289300D02*
X0147300Y0289300D01*
X0147300Y0299300D02*
X0141300Y0299300D01*
X0107300Y0299300D02*
X0101300Y0299300D01*
X0101300Y0289300D02*
X0107300Y0289300D01*
X0107300Y0279300D02*
X0101300Y0279300D01*
X0101300Y0269300D02*
X0107300Y0269300D01*
X0107300Y0259300D02*
X0101300Y0259300D01*
X0101300Y0249300D02*
X0107300Y0249300D01*
X0204300Y0082300D02*
X0204300Y0076300D01*
X0214300Y0076300D02*
X0214300Y0082300D01*
X0224300Y0082300D02*
X0224300Y0076300D01*
X0234300Y0076300D02*
X0234300Y0082300D01*
X0521300Y0269300D02*
X0527300Y0269300D01*
X0527300Y0279300D02*
X0521300Y0279300D01*
X0584300Y0262300D02*
X0584300Y0256300D01*
X0594300Y0256300D02*
X0594300Y0262300D01*
X0604300Y0262300D02*
X0604300Y0256300D01*
X0614300Y0256300D02*
X0614300Y0262300D01*
X0624300Y0262300D02*
X0624300Y0256300D01*
X0634300Y0256300D02*
X0634300Y0262300D01*
X0669300Y0262300D02*
X0669300Y0256300D01*
X0679300Y0256300D02*
X0679300Y0262300D01*
X0689300Y0262300D02*
X0689300Y0256300D01*
X0699300Y0256300D02*
X0699300Y0262300D01*
X0709300Y0262300D02*
X0709300Y0256300D01*
X0719300Y0256300D02*
X0719300Y0262300D01*
X0592300Y0159300D02*
X0586300Y0159300D01*
X0586300Y0149300D02*
X0592300Y0149300D01*
X0592300Y0139300D02*
X0586300Y0139300D01*
X0577300Y0114300D02*
X0571300Y0114300D01*
X0571300Y0104300D02*
X0577300Y0104300D01*
X0577300Y0094300D02*
X0571300Y0094300D01*
X0571300Y0084300D02*
X0577300Y0084300D01*
X0554300Y0037300D02*
X0554300Y0031300D01*
X0544300Y0031300D02*
X0544300Y0037300D01*
X0534300Y0037300D02*
X0534300Y0031300D01*
X0524300Y0031300D02*
X0524300Y0037300D01*
X0277300Y0439300D02*
X0271300Y0439300D01*
X0271300Y0449300D02*
X0277300Y0449300D01*
X0277300Y0459300D02*
X0271300Y0459300D01*
X0271300Y0469300D02*
X0277300Y0469300D01*
X0281300Y0504300D02*
X0287300Y0504300D01*
X0287300Y0514300D02*
X0281300Y0514300D01*
X0281300Y0524300D02*
X0287300Y0524300D01*
X0287300Y0534300D02*
X0281300Y0534300D01*
X0237300Y0534300D02*
X0231300Y0534300D01*
X0231300Y0524300D02*
X0237300Y0524300D01*
X0237300Y0514300D02*
X0231300Y0514300D01*
X0231300Y0504300D02*
X0237300Y0504300D01*
X0237300Y0469300D02*
X0231300Y0469300D01*
X0231300Y0459300D02*
X0237300Y0459300D01*
X0237300Y0449300D02*
X0231300Y0449300D01*
X0231300Y0439300D02*
X0237300Y0439300D01*
X0152300Y0444300D02*
X0146300Y0444300D01*
X0146300Y0454300D02*
X0152300Y0454300D01*
X0152300Y0464300D02*
X0146300Y0464300D01*
X0146300Y0474300D02*
X0152300Y0474300D01*
X0152300Y0484300D02*
X0146300Y0484300D01*
X0146300Y0494300D02*
X0152300Y0494300D01*
X0152300Y0504300D02*
X0146300Y0504300D01*
X0064300Y0576300D02*
X0064300Y0582300D01*
X0054300Y0582300D02*
X0054300Y0576300D01*
X0044300Y0576300D02*
X0044300Y0582300D01*
X0151300Y0594300D02*
X0157300Y0594300D01*
X0157300Y0604300D02*
X0151300Y0604300D01*
X0047300Y0479300D02*
X0041300Y0479300D01*
X0041300Y0469300D02*
X0047300Y0469300D01*
X0329300Y0641300D02*
X0329300Y0647300D01*
X0339300Y0647300D02*
X0339300Y0641300D01*
X0349300Y0641300D02*
X0349300Y0647300D01*
X0359300Y0647300D02*
X0359300Y0641300D01*
X0379300Y0641300D02*
X0379300Y0647300D01*
X0389300Y0647300D02*
X0389300Y0641300D01*
X0399300Y0641300D02*
X0399300Y0647300D01*
X0594300Y0642300D02*
X0594300Y0636300D01*
X0604300Y0636300D02*
X0604300Y0642300D01*
X0614300Y0642300D02*
X0614300Y0636300D01*
X0624300Y0636300D02*
X0624300Y0642300D01*
X0634300Y0642300D02*
X0634300Y0636300D01*
X0644300Y0636300D02*
X0644300Y0642300D01*
X0669300Y0642300D02*
X0669300Y0636300D01*
X0679300Y0636300D02*
X0679300Y0642300D01*
X0689300Y0642300D02*
X0689300Y0636300D01*
X0699300Y0636300D02*
X0699300Y0642300D01*
X0709300Y0642300D02*
X0709300Y0636300D01*
X0719300Y0636300D02*
X0719300Y0642300D01*
D13*
X0695300Y0544300D03*
X0685300Y0544300D03*
X0675300Y0544300D03*
X0665300Y0544300D03*
X0655300Y0544300D03*
X0645300Y0544300D03*
X0635300Y0544300D03*
X0625300Y0544300D03*
X0615300Y0544300D03*
X0605300Y0544300D03*
X0589300Y0544300D03*
X0579300Y0544300D03*
X0569300Y0544300D03*
X0559300Y0544300D03*
X0549300Y0544300D03*
X0539300Y0544300D03*
X0529300Y0544300D03*
X0519300Y0544300D03*
X0499300Y0544300D03*
X0489300Y0544300D03*
X0479300Y0544300D03*
X0469300Y0544300D03*
X0459300Y0544300D03*
X0449300Y0544300D03*
X0439300Y0544300D03*
X0429300Y0544300D03*
X0399300Y0544300D03*
X0389300Y0544300D03*
X0389300Y0374300D03*
X0399300Y0374300D03*
X0409300Y0354300D03*
X0419300Y0354300D03*
X0429300Y0354300D03*
X0439300Y0354300D03*
X0449300Y0354300D03*
X0459300Y0354300D03*
X0469300Y0354300D03*
X0479300Y0354300D03*
X0519300Y0354300D03*
X0529300Y0354300D03*
X0539300Y0354300D03*
X0549300Y0354300D03*
X0559300Y0354300D03*
X0569300Y0354300D03*
X0589300Y0354300D03*
X0599300Y0354300D03*
X0609300Y0354300D03*
X0619300Y0354300D03*
X0629300Y0354300D03*
X0639300Y0354300D03*
X0649300Y0354300D03*
X0659300Y0354300D03*
X0554300Y0239300D03*
X0524300Y0239300D03*
X0184300Y0584300D03*
X0154300Y0584300D03*
X0044300Y0449300D03*
X0044300Y0419300D03*
D14*
X0389300Y0414300D03*
X0389300Y0404300D03*
X0399300Y0404300D03*
X0399300Y0414300D03*
X0399300Y0424300D03*
X0399300Y0434300D03*
X0399300Y0444300D03*
X0389300Y0444300D03*
X0389300Y0434300D03*
X0389300Y0424300D03*
X0389300Y0454300D03*
X0389300Y0464300D03*
X0389300Y0474300D03*
X0399300Y0474300D03*
X0399300Y0464300D03*
X0399300Y0454300D03*
X0399300Y0484300D03*
X0399300Y0494300D03*
X0389300Y0494300D03*
X0389300Y0484300D03*
X0389300Y0504300D03*
X0389300Y0514300D03*
X0389300Y0524300D03*
X0399300Y0524300D03*
X0399300Y0514300D03*
X0399300Y0504300D03*
X0399300Y0534300D03*
X0389300Y0534300D03*
X0389300Y0394300D03*
X0389300Y0384300D03*
X0399300Y0384300D03*
X0399300Y0394300D03*
D15*
X0174300Y0404300D03*
X0174300Y0414300D03*
X0174300Y0424300D03*
X0174300Y0434300D03*
X0174300Y0444300D03*
X0174300Y0454300D03*
X0174300Y0464300D03*
X0174300Y0474300D03*
X0174300Y0484300D03*
X0174300Y0494300D03*
X0174300Y0504300D03*
X0174300Y0514300D03*
X0174300Y0524300D03*
X0174300Y0534300D03*
X0174300Y0544300D03*
X0114300Y0544300D03*
X0114300Y0534300D03*
X0114300Y0524300D03*
X0114300Y0514300D03*
X0114300Y0504300D03*
X0114300Y0494300D03*
X0114300Y0484300D03*
X0114300Y0474300D03*
X0114300Y0464300D03*
X0114300Y0454300D03*
X0114300Y0444300D03*
X0114300Y0434300D03*
X0114300Y0424300D03*
X0114300Y0414300D03*
X0114300Y0404300D03*
D16*
X0090757Y0344143D02*
X0081387Y0344143D01*
X0081387Y0324457D02*
X0090757Y0324457D01*
X0116387Y0219143D02*
X0125757Y0219143D01*
X0125757Y0199457D02*
X0116387Y0199457D01*
X0064143Y0527843D02*
X0064143Y0537213D01*
X0044457Y0537213D02*
X0044457Y0527843D01*
X0044457Y0626387D02*
X0044457Y0635757D01*
X0064143Y0635757D02*
X0064143Y0626387D01*
X0099457Y0626387D02*
X0099457Y0635757D01*
X0119143Y0635757D02*
X0119143Y0626387D01*
X0564457Y0602213D02*
X0564457Y0592843D01*
X0584143Y0592843D02*
X0584143Y0602213D01*
X0624457Y0602213D02*
X0624457Y0592843D01*
X0644143Y0592843D02*
X0644143Y0602213D01*
X0699457Y0602213D02*
X0699457Y0592843D01*
X0719143Y0592843D02*
X0719143Y0602213D01*
X0709457Y0292213D02*
X0709457Y0282843D01*
X0729143Y0282843D02*
X0729143Y0292213D01*
X0634143Y0292213D02*
X0634143Y0282843D01*
X0614457Y0282843D02*
X0614457Y0292213D01*
D17*
X0614457Y0287528D02*
X0614457Y0274300D01*
X0624300Y0274300D01*
X0624300Y0259300D01*
X0634300Y0259300D02*
X0634300Y0274143D01*
X0634143Y0287528D01*
X0645311Y0296839D02*
X0643733Y0299572D01*
X0641502Y0301804D01*
X0638769Y0303382D01*
X0635720Y0304198D01*
X0632565Y0304198D01*
X0629516Y0303382D01*
X0626784Y0301804D01*
X0624552Y0299572D01*
X0624300Y0299136D01*
X0624048Y0299572D01*
X0621816Y0301804D01*
X0619084Y0303382D01*
X0616035Y0304198D01*
X0612880Y0304198D01*
X0609831Y0303382D01*
X0607098Y0301804D01*
X0604867Y0299572D01*
X0603289Y0296839D01*
X0602472Y0293791D01*
X0602472Y0281265D01*
X0603289Y0278217D01*
X0603857Y0277233D01*
X0603857Y0272904D01*
X0603939Y0272600D01*
X0602944Y0272600D01*
X0600324Y0271898D01*
X0599300Y0271307D01*
X0598276Y0271898D01*
X0595656Y0272600D01*
X0592944Y0272600D01*
X0590324Y0271898D01*
X0589300Y0271307D01*
X0588276Y0271898D01*
X0585656Y0272600D01*
X0582944Y0272600D01*
X0580324Y0271898D01*
X0577976Y0270542D01*
X0576058Y0268624D01*
X0574702Y0266276D01*
X0574000Y0263656D01*
X0574000Y0254944D01*
X0574702Y0252324D01*
X0576058Y0249976D01*
X0577976Y0248058D01*
X0580324Y0246702D01*
X0582944Y0246000D01*
X0585656Y0246000D01*
X0588276Y0246702D01*
X0589300Y0247293D01*
X0590324Y0246702D01*
X0592944Y0246000D01*
X0595656Y0246000D01*
X0598276Y0246702D01*
X0599300Y0247293D01*
X0600324Y0246702D01*
X0602944Y0246000D01*
X0605656Y0246000D01*
X0608276Y0246702D01*
X0609300Y0247293D01*
X0610324Y0246702D01*
X0612944Y0246000D01*
X0615656Y0246000D01*
X0618276Y0246702D01*
X0619300Y0247293D01*
X0620324Y0246702D01*
X0622944Y0246000D01*
X0625656Y0246000D01*
X0628276Y0246702D01*
X0629300Y0247293D01*
X0630324Y0246702D01*
X0632944Y0246000D01*
X0635656Y0246000D01*
X0638276Y0246702D01*
X0640624Y0248058D01*
X0642542Y0249976D01*
X0643898Y0252324D01*
X0644600Y0254944D01*
X0644600Y0256785D01*
X0644900Y0257904D01*
X0644900Y0272810D01*
X0644916Y0272872D01*
X0644900Y0274205D01*
X0644900Y0275538D01*
X0644884Y0275599D01*
X0644862Y0277440D01*
X0645311Y0278217D01*
X0646128Y0281265D01*
X0646128Y0293791D01*
X0645311Y0296839D01*
X0645902Y0294634D02*
X0697698Y0294634D01*
X0697472Y0293791D02*
X0697472Y0281265D01*
X0698289Y0278217D01*
X0698825Y0277290D01*
X0698751Y0272600D01*
X0697944Y0272600D01*
X0695324Y0271898D01*
X0694300Y0271307D01*
X0693276Y0271898D01*
X0690656Y0272600D01*
X0687944Y0272600D01*
X0685324Y0271898D01*
X0684300Y0271307D01*
X0683276Y0271898D01*
X0680656Y0272600D01*
X0677944Y0272600D01*
X0675324Y0271898D01*
X0674300Y0271307D01*
X0673276Y0271898D01*
X0670656Y0272600D01*
X0667944Y0272600D01*
X0665324Y0271898D01*
X0662976Y0270542D01*
X0661058Y0268624D01*
X0659702Y0266276D01*
X0659000Y0263656D01*
X0659000Y0254944D01*
X0659702Y0252324D01*
X0661058Y0249976D01*
X0662976Y0248058D01*
X0665324Y0246702D01*
X0667944Y0246000D01*
X0670656Y0246000D01*
X0673276Y0246702D01*
X0674300Y0247293D01*
X0675324Y0246702D01*
X0677944Y0246000D01*
X0680656Y0246000D01*
X0683276Y0246702D01*
X0684300Y0247293D01*
X0685324Y0246702D01*
X0687944Y0246000D01*
X0690656Y0246000D01*
X0693276Y0246702D01*
X0694300Y0247293D01*
X0695324Y0246702D01*
X0697944Y0246000D01*
X0700656Y0246000D01*
X0703276Y0246702D01*
X0704300Y0247293D01*
X0705324Y0246702D01*
X0707944Y0246000D01*
X0710656Y0246000D01*
X0713276Y0246702D01*
X0714300Y0247293D01*
X0715324Y0246702D01*
X0717944Y0246000D01*
X0720656Y0246000D01*
X0723276Y0246702D01*
X0725624Y0248058D01*
X0727542Y0249976D01*
X0728898Y0252324D01*
X0729600Y0254944D01*
X0729600Y0256785D01*
X0729900Y0257904D01*
X0729900Y0263700D01*
X0730538Y0263700D01*
X0733234Y0264422D01*
X0735651Y0265818D01*
X0737625Y0267791D01*
X0739020Y0270209D01*
X0739743Y0272904D01*
X0739743Y0277233D01*
X0740311Y0278217D01*
X0741128Y0281265D01*
X0741128Y0293791D01*
X0740311Y0296839D01*
X0738733Y0299572D01*
X0736502Y0301804D01*
X0733769Y0303382D01*
X0730720Y0304198D01*
X0727565Y0304198D01*
X0724516Y0303382D01*
X0721784Y0301804D01*
X0719552Y0299572D01*
X0719300Y0299136D01*
X0719048Y0299572D01*
X0716816Y0301804D01*
X0714084Y0303382D01*
X0711035Y0304198D01*
X0707880Y0304198D01*
X0704831Y0303382D01*
X0702098Y0301804D01*
X0699867Y0299572D01*
X0698289Y0296839D01*
X0697472Y0293791D01*
X0697472Y0288036D02*
X0646128Y0288036D01*
X0646128Y0281437D02*
X0697472Y0281437D01*
X0698786Y0274839D02*
X0644900Y0274839D01*
X0644900Y0268240D02*
X0660836Y0268240D01*
X0659000Y0261642D02*
X0644900Y0261642D01*
X0644600Y0255043D02*
X0659000Y0255043D01*
X0662589Y0248445D02*
X0641011Y0248445D01*
X0603857Y0274839D02*
X0536618Y0274839D01*
X0536898Y0275324D02*
X0536307Y0274300D01*
X0536898Y0273276D01*
X0537600Y0270656D01*
X0537600Y0267944D01*
X0536898Y0265324D01*
X0535542Y0262976D01*
X0533624Y0261058D01*
X0531276Y0259702D01*
X0528656Y0259000D01*
X0519944Y0259000D01*
X0517324Y0259702D01*
X0514976Y0261058D01*
X0513058Y0262976D01*
X0511702Y0265324D01*
X0511000Y0267944D01*
X0511000Y0270656D01*
X0511702Y0273276D01*
X0512293Y0274300D01*
X0511702Y0275324D01*
X0511000Y0277944D01*
X0511000Y0280656D01*
X0511702Y0283276D01*
X0513058Y0285624D01*
X0514976Y0287542D01*
X0517324Y0288898D01*
X0519944Y0289600D01*
X0528656Y0289600D01*
X0531276Y0288898D01*
X0533624Y0287542D01*
X0535542Y0285624D01*
X0536898Y0283276D01*
X0537600Y0280656D01*
X0537600Y0277944D01*
X0536898Y0275324D01*
X0537391Y0281437D02*
X0602472Y0281437D01*
X0602472Y0288036D02*
X0532769Y0288036D01*
X0515831Y0288036D02*
X0157600Y0288036D01*
X0157600Y0287944D02*
X0157600Y0290656D01*
X0156898Y0293276D01*
X0156307Y0294300D01*
X0156898Y0295324D01*
X0157600Y0297944D01*
X0157600Y0300656D01*
X0156898Y0303276D01*
X0155542Y0305624D01*
X0153624Y0307542D01*
X0151276Y0308898D01*
X0148656Y0309600D01*
X0139944Y0309600D01*
X0137324Y0308898D01*
X0134976Y0307542D01*
X0133058Y0305624D01*
X0131702Y0303276D01*
X0131000Y0300656D01*
X0131000Y0297944D01*
X0131702Y0295324D01*
X0132293Y0294300D01*
X0131702Y0293276D01*
X0131000Y0290656D01*
X0131000Y0287944D01*
X0131702Y0285324D01*
X0132293Y0284300D01*
X0131702Y0283276D01*
X0131000Y0280656D01*
X0131000Y0277944D01*
X0131702Y0275324D01*
X0133058Y0272976D01*
X0134375Y0271658D01*
X0134373Y0271652D01*
X0134125Y0270727D01*
X0134000Y0269778D01*
X0134000Y0269300D01*
X0138824Y0269300D01*
X0134000Y0269300D01*
X0134000Y0268822D01*
X0134125Y0267873D01*
X0134373Y0266948D01*
X0134375Y0266942D01*
X0133058Y0265624D01*
X0131702Y0263276D01*
X0131000Y0260656D01*
X0131000Y0257944D01*
X0131702Y0255324D01*
X0132293Y0254300D01*
X0131702Y0253276D01*
X0131000Y0250656D01*
X0131000Y0247944D01*
X0131702Y0245324D01*
X0133058Y0242976D01*
X0134976Y0241058D01*
X0137324Y0239702D01*
X0139944Y0239000D01*
X0148656Y0239000D01*
X0151276Y0239702D01*
X0153624Y0241058D01*
X0155542Y0242976D01*
X0156898Y0245324D01*
X0157600Y0247944D01*
X0157600Y0250656D01*
X0156898Y0253276D01*
X0156307Y0254300D01*
X0156898Y0255324D01*
X0157600Y0257944D01*
X0157600Y0260656D01*
X0156898Y0263276D01*
X0155542Y0265624D01*
X0154225Y0266942D01*
X0154227Y0266948D01*
X0154475Y0267873D01*
X0154600Y0268822D01*
X0154600Y0269300D01*
X0154600Y0269778D01*
X0154475Y0270727D01*
X0154227Y0271652D01*
X0154225Y0271658D01*
X0155542Y0272976D01*
X0156898Y0275324D01*
X0157600Y0277944D01*
X0157600Y0280656D01*
X0156898Y0283276D01*
X0156307Y0284300D01*
X0156898Y0285324D01*
X0157600Y0287944D01*
X0157391Y0281437D02*
X0511209Y0281437D01*
X0511982Y0274839D02*
X0379075Y0274839D01*
X0378967Y0274947D02*
X0375990Y0276180D01*
X0266469Y0276180D01*
X0263492Y0274947D01*
X0261213Y0272668D01*
X0259980Y0269691D01*
X0259980Y0266469D01*
X0259980Y0029533D01*
X0259980Y0026311D01*
X0261213Y0023334D01*
X0263492Y0021055D01*
X0266469Y0019822D01*
X0490163Y0019822D01*
X0493140Y0021055D01*
X0495419Y0023334D01*
X0496652Y0026311D01*
X0496652Y0143706D01*
X0495419Y0146683D01*
X0493140Y0148962D01*
X0490163Y0150195D01*
X0382479Y0150195D01*
X0382479Y0269691D01*
X0381246Y0272668D01*
X0378967Y0274947D01*
X0382479Y0268240D02*
X0511000Y0268240D01*
X0514392Y0261642D02*
X0382479Y0261642D01*
X0382479Y0255043D02*
X0574000Y0255043D01*
X0574000Y0261642D02*
X0534208Y0261642D01*
X0537600Y0268240D02*
X0575836Y0268240D01*
X0577589Y0248445D02*
X0530461Y0248445D01*
X0531054Y0248102D02*
X0528546Y0249550D01*
X0525748Y0250300D01*
X0522852Y0250300D01*
X0520054Y0249550D01*
X0517546Y0248102D01*
X0515498Y0246054D01*
X0514050Y0243546D01*
X0513300Y0240748D01*
X0513300Y0237852D01*
X0514050Y0235054D01*
X0515498Y0232546D01*
X0517546Y0230498D01*
X0520054Y0229050D01*
X0522852Y0228300D01*
X0525748Y0228300D01*
X0528546Y0229050D01*
X0531054Y0230498D01*
X0533102Y0232546D01*
X0534550Y0235054D01*
X0535300Y0237852D01*
X0535300Y0240748D01*
X0534550Y0243546D01*
X0533102Y0246054D01*
X0531054Y0248102D01*
X0535006Y0241846D02*
X0546700Y0241846D01*
X0546708Y0241877D02*
X0546437Y0240864D01*
X0546300Y0239824D01*
X0546300Y0239300D01*
X0554300Y0239300D01*
X0562300Y0239300D01*
X0562300Y0239824D01*
X0562163Y0240864D01*
X0561892Y0241877D01*
X0561490Y0242846D01*
X0560966Y0243754D01*
X0560328Y0244586D01*
X0559586Y0245328D01*
X0558754Y0245966D01*
X0557846Y0246490D01*
X0556877Y0246892D01*
X0555864Y0247163D01*
X0554824Y0247300D01*
X0554300Y0247300D01*
X0554300Y0239300D01*
X0554300Y0239300D01*
X0554300Y0239300D01*
X0562300Y0239300D01*
X0562300Y0238776D01*
X0562163Y0237736D01*
X0561892Y0236723D01*
X0561490Y0235754D01*
X0560966Y0234846D01*
X0560328Y0234014D01*
X0559586Y0233272D01*
X0558754Y0232634D01*
X0557846Y0232110D01*
X0556877Y0231708D01*
X0555864Y0231437D01*
X0554824Y0231300D01*
X0554300Y0231300D01*
X0554300Y0239300D01*
X0554300Y0239300D01*
X0554300Y0239300D01*
X0554300Y0247300D01*
X0553776Y0247300D01*
X0552736Y0247163D01*
X0551723Y0246892D01*
X0550754Y0246490D01*
X0549846Y0245966D01*
X0549014Y0245328D01*
X0548272Y0244586D01*
X0547634Y0243754D01*
X0547110Y0242846D01*
X0546708Y0241877D01*
X0546300Y0239300D02*
X0546300Y0238776D01*
X0546437Y0237736D01*
X0546708Y0236723D01*
X0547110Y0235754D01*
X0547634Y0234846D01*
X0548272Y0234014D01*
X0549014Y0233272D01*
X0549846Y0232634D01*
X0550754Y0232110D01*
X0551723Y0231708D01*
X0552736Y0231437D01*
X0553776Y0231300D01*
X0554300Y0231300D01*
X0554300Y0239300D01*
X0546300Y0239300D01*
X0547402Y0235248D02*
X0534602Y0235248D01*
X0527052Y0228649D02*
X0744231Y0228649D01*
X0744231Y0222051D02*
X0382479Y0222051D01*
X0382479Y0228649D02*
X0521548Y0228649D01*
X0513998Y0235248D02*
X0382479Y0235248D01*
X0382479Y0241846D02*
X0513594Y0241846D01*
X0518139Y0248445D02*
X0382479Y0248445D01*
X0382479Y0215452D02*
X0744231Y0215452D01*
X0744231Y0208854D02*
X0382479Y0208854D01*
X0382479Y0202255D02*
X0744231Y0202255D01*
X0744231Y0195657D02*
X0382479Y0195657D01*
X0382479Y0189058D02*
X0744231Y0189058D01*
X0744231Y0182460D02*
X0382479Y0182460D01*
X0382479Y0175861D02*
X0744231Y0175861D01*
X0744231Y0169263D02*
X0594914Y0169263D01*
X0593656Y0169600D02*
X0596276Y0168898D01*
X0598624Y0167542D01*
X0600542Y0165624D01*
X0601898Y0163276D01*
X0602600Y0160656D01*
X0602600Y0157944D01*
X0601898Y0155324D01*
X0600542Y0152976D01*
X0599225Y0151658D01*
X0599227Y0151652D01*
X0599475Y0150727D01*
X0599600Y0149778D01*
X0599600Y0149300D01*
X0594776Y0149300D01*
X0594776Y0149300D01*
X0599600Y0149300D01*
X0599600Y0148822D01*
X0599475Y0147873D01*
X0599227Y0146948D01*
X0599225Y0146942D01*
X0600542Y0145624D01*
X0601898Y0143276D01*
X0602600Y0140656D01*
X0602600Y0137944D01*
X0601898Y0135324D01*
X0600542Y0132976D01*
X0598624Y0131058D01*
X0596276Y0129702D01*
X0593656Y0129000D01*
X0584944Y0129000D01*
X0582324Y0129702D01*
X0579976Y0131058D01*
X0578058Y0132976D01*
X0576702Y0135324D01*
X0576000Y0137944D01*
X0576000Y0140656D01*
X0576702Y0143276D01*
X0578058Y0145624D01*
X0579375Y0146942D01*
X0579373Y0146948D01*
X0579125Y0147873D01*
X0579000Y0148822D01*
X0579000Y0149300D01*
X0583824Y0149300D01*
X0579000Y0149300D01*
X0579000Y0149778D01*
X0579125Y0150727D01*
X0579373Y0151652D01*
X0579375Y0151658D01*
X0578058Y0152976D01*
X0576702Y0155324D01*
X0576000Y0157944D01*
X0576000Y0160656D01*
X0576702Y0163276D01*
X0578058Y0165624D01*
X0579976Y0167542D01*
X0582324Y0168898D01*
X0584944Y0169600D01*
X0593656Y0169600D01*
X0602062Y0162664D02*
X0744231Y0162664D01*
X0744231Y0156066D02*
X0602097Y0156066D01*
X0599600Y0149467D02*
X0744231Y0149467D01*
X0744231Y0142869D02*
X0602007Y0142869D01*
X0602152Y0136270D02*
X0744231Y0136270D01*
X0744231Y0129672D02*
X0596163Y0129672D01*
X0582437Y0129672D02*
X0496652Y0129672D01*
X0496652Y0136270D02*
X0576448Y0136270D01*
X0576593Y0142869D02*
X0496652Y0142869D01*
X0491920Y0149467D02*
X0579000Y0149467D01*
X0583824Y0149300D02*
X0583824Y0149300D01*
X0583824Y0149300D01*
X0576503Y0156066D02*
X0382479Y0156066D01*
X0382479Y0162664D02*
X0576538Y0162664D01*
X0583686Y0169263D02*
X0382479Y0169263D01*
X0496652Y0123073D02*
X0744231Y0123073D01*
X0744231Y0116475D02*
X0584275Y0116475D01*
X0584227Y0116652D02*
X0583861Y0117536D01*
X0583383Y0118364D01*
X0582800Y0119124D01*
X0582124Y0119800D01*
X0581364Y0120383D01*
X0580536Y0120861D01*
X0579652Y0121227D01*
X0578727Y0121475D01*
X0577778Y0121600D01*
X0574300Y0121600D01*
X0574300Y0114600D01*
X0574300Y0114600D01*
X0574300Y0121600D01*
X0570822Y0121600D01*
X0569873Y0121475D01*
X0568948Y0121227D01*
X0568064Y0120861D01*
X0567236Y0120383D01*
X0566476Y0119800D01*
X0565800Y0119124D01*
X0565217Y0118364D01*
X0564739Y0117536D01*
X0564373Y0116652D01*
X0564125Y0115727D01*
X0564000Y0114778D01*
X0564000Y0114300D01*
X0568825Y0114300D01*
X0568824Y0114300D01*
X0564000Y0114300D01*
X0564000Y0113822D01*
X0564125Y0112873D01*
X0564373Y0111948D01*
X0564375Y0111942D01*
X0563058Y0110624D01*
X0561702Y0108276D01*
X0561000Y0105656D01*
X0561000Y0102944D01*
X0561702Y0100324D01*
X0562293Y0099300D01*
X0561702Y0098276D01*
X0561000Y0095656D01*
X0561000Y0092944D01*
X0561702Y0090324D01*
X0562293Y0089300D01*
X0561702Y0088276D01*
X0561000Y0085656D01*
X0561000Y0082944D01*
X0561702Y0080324D01*
X0563058Y0077976D01*
X0564976Y0076058D01*
X0567324Y0074702D01*
X0569944Y0074000D01*
X0578656Y0074000D01*
X0581276Y0074702D01*
X0583624Y0076058D01*
X0585542Y0077976D01*
X0586898Y0080324D01*
X0587600Y0082944D01*
X0587600Y0085656D01*
X0586898Y0088276D01*
X0586307Y0089300D01*
X0586898Y0090324D01*
X0587600Y0092944D01*
X0587600Y0095656D01*
X0586898Y0098276D01*
X0586307Y0099300D01*
X0586898Y0100324D01*
X0587600Y0102944D01*
X0587600Y0105656D01*
X0586898Y0108276D01*
X0585542Y0110624D01*
X0584225Y0111942D01*
X0584227Y0111948D01*
X0584475Y0112873D01*
X0584600Y0113822D01*
X0584600Y0114300D01*
X0584600Y0114778D01*
X0584475Y0115727D01*
X0584227Y0116652D01*
X0584600Y0114300D02*
X0579775Y0114300D01*
X0579776Y0114300D01*
X0584600Y0114300D01*
X0585974Y0109876D02*
X0744231Y0109876D01*
X0744231Y0103278D02*
X0587600Y0103278D01*
X0587326Y0096679D02*
X0744231Y0096679D01*
X0744231Y0095077D02*
X0719224Y0095077D01*
X0716247Y0093844D01*
X0713969Y0091565D01*
X0712735Y0088588D01*
X0712735Y0051644D01*
X0710911Y0052400D01*
X0602689Y0052400D01*
X0599712Y0051167D01*
X0597433Y0048888D01*
X0596200Y0045911D01*
X0596200Y0012689D01*
X0596320Y0012400D01*
X0157280Y0012400D01*
X0157400Y0012689D01*
X0157400Y0045911D01*
X0156167Y0048888D01*
X0153888Y0051167D01*
X0150911Y0052400D01*
X0043896Y0052400D01*
X0043896Y0088588D01*
X0042663Y0091565D01*
X0040384Y0093844D01*
X0037407Y0095077D01*
X0012400Y0095077D01*
X0012400Y0669428D01*
X0037407Y0669428D01*
X0040384Y0670661D01*
X0041440Y0671717D01*
X0042689Y0671200D01*
X0150911Y0671200D01*
X0153888Y0672433D01*
X0156167Y0674712D01*
X0157400Y0677689D01*
X0157400Y0708798D01*
X0601200Y0708798D01*
X0601200Y0677689D01*
X0602433Y0674712D01*
X0604712Y0672433D01*
X0607689Y0671200D01*
X0715709Y0671200D01*
X0716247Y0670661D01*
X0719224Y0669428D01*
X0744231Y0669428D01*
X0744231Y0572400D01*
X0507689Y0572400D01*
X0504712Y0571167D01*
X0502433Y0568888D01*
X0501200Y0565911D01*
X0501200Y0555179D01*
X0500748Y0555300D01*
X0497852Y0555300D01*
X0495054Y0554550D01*
X0494300Y0554115D01*
X0493546Y0554550D01*
X0490748Y0555300D01*
X0487852Y0555300D01*
X0485054Y0554550D01*
X0484300Y0554115D01*
X0483546Y0554550D01*
X0480748Y0555300D01*
X0477852Y0555300D01*
X0475054Y0554550D01*
X0474300Y0554115D01*
X0473546Y0554550D01*
X0471868Y0555000D01*
X0476150Y0555000D01*
X0479568Y0556416D01*
X0482184Y0559032D01*
X0483600Y0562450D01*
X0483600Y0606150D01*
X0482544Y0608700D01*
X0558237Y0608700D01*
X0557688Y0608150D01*
X0556971Y0607216D01*
X0556382Y0606196D01*
X0555931Y0605108D01*
X0555626Y0603970D01*
X0555472Y0602802D01*
X0555472Y0597528D01*
X0555472Y0592254D01*
X0555626Y0591087D01*
X0555931Y0589949D01*
X0556382Y0588861D01*
X0556971Y0587841D01*
X0557688Y0586906D01*
X0558521Y0586073D01*
X0559455Y0585356D01*
X0560475Y0584768D01*
X0561563Y0584317D01*
X0562701Y0584012D01*
X0563869Y0583858D01*
X0564457Y0583858D01*
X0564457Y0597528D01*
X0555472Y0597528D01*
X0564457Y0597528D01*
X0564457Y0597528D01*
X0564458Y0597528D01*
X0564458Y0583858D01*
X0565046Y0583858D01*
X0566214Y0584012D01*
X0567352Y0584317D01*
X0568440Y0584768D01*
X0569460Y0585356D01*
X0570394Y0586073D01*
X0571227Y0586906D01*
X0571944Y0587841D01*
X0572533Y0588861D01*
X0572696Y0589255D01*
X0572974Y0588217D01*
X0574552Y0585484D01*
X0576784Y0583253D01*
X0579516Y0581675D01*
X0582565Y0580858D01*
X0585720Y0580858D01*
X0588769Y0581675D01*
X0591502Y0583253D01*
X0593733Y0585484D01*
X0595311Y0588217D01*
X0596128Y0591265D01*
X0596128Y0603791D01*
X0595311Y0606839D01*
X0594900Y0607551D01*
X0594900Y0620000D01*
X0603161Y0620000D01*
X0603161Y0619009D01*
X0604273Y0616326D01*
X0606326Y0614273D01*
X0609009Y0613161D01*
X0613857Y0613161D01*
X0613857Y0607824D01*
X0613289Y0606839D01*
X0612472Y0603791D01*
X0612472Y0591265D01*
X0613289Y0588217D01*
X0614867Y0585484D01*
X0617098Y0583253D01*
X0619831Y0581675D01*
X0622880Y0580858D01*
X0626035Y0580858D01*
X0629084Y0581675D01*
X0631816Y0583253D01*
X0634048Y0585484D01*
X0634300Y0585921D01*
X0634552Y0585484D01*
X0636784Y0583253D01*
X0639516Y0581675D01*
X0642565Y0580858D01*
X0645720Y0580858D01*
X0648769Y0581675D01*
X0651502Y0583253D01*
X0653733Y0585484D01*
X0655311Y0588217D01*
X0656128Y0591265D01*
X0656128Y0603791D01*
X0655311Y0606839D01*
X0654743Y0607824D01*
X0654743Y0624244D01*
X0654914Y0640584D01*
X0654600Y0641807D01*
X0654600Y0643656D01*
X0653898Y0646276D01*
X0652542Y0648624D01*
X0651166Y0650000D01*
X0662434Y0650000D01*
X0661058Y0648624D01*
X0659702Y0646276D01*
X0659000Y0643656D01*
X0659000Y0634944D01*
X0659702Y0632324D01*
X0661058Y0629976D01*
X0662976Y0628058D01*
X0665324Y0626702D01*
X0667944Y0626000D01*
X0670656Y0626000D01*
X0673276Y0626702D01*
X0674300Y0627293D01*
X0675324Y0626702D01*
X0677944Y0626000D01*
X0678161Y0626000D01*
X0678161Y0619009D01*
X0679273Y0616326D01*
X0681326Y0614273D01*
X0684009Y0613161D01*
X0688857Y0613161D01*
X0688857Y0607824D01*
X0688289Y0606839D01*
X0687472Y0603791D01*
X0687472Y0591265D01*
X0688289Y0588217D01*
X0689867Y0585484D01*
X0692098Y0583253D01*
X0694831Y0581675D01*
X0697880Y0580858D01*
X0701035Y0580858D01*
X0704084Y0581675D01*
X0706816Y0583253D01*
X0709048Y0585484D01*
X0709300Y0585921D01*
X0709552Y0585484D01*
X0711784Y0583253D01*
X0714516Y0581675D01*
X0717565Y0580858D01*
X0720720Y0580858D01*
X0723769Y0581675D01*
X0726502Y0583253D01*
X0728733Y0585484D01*
X0730311Y0588217D01*
X0731128Y0591265D01*
X0731128Y0603791D01*
X0730311Y0606839D01*
X0729743Y0607824D01*
X0729743Y0624244D01*
X0729914Y0640584D01*
X0729600Y0641807D01*
X0729600Y0643656D01*
X0728898Y0646276D01*
X0727542Y0648624D01*
X0725624Y0650542D01*
X0723276Y0651898D01*
X0720656Y0652600D01*
X0717944Y0652600D01*
X0715324Y0651898D01*
X0714300Y0651307D01*
X0713276Y0651898D01*
X0710656Y0652600D01*
X0707944Y0652600D01*
X0705324Y0651898D01*
X0702976Y0650542D01*
X0701658Y0649225D01*
X0701652Y0649227D01*
X0700727Y0649475D01*
X0699778Y0649600D01*
X0699300Y0649600D01*
X0699300Y0644776D01*
X0699300Y0649600D01*
X0698822Y0649600D01*
X0697873Y0649475D01*
X0696948Y0649227D01*
X0696942Y0649225D01*
X0695624Y0650542D01*
X0693276Y0651898D01*
X0690656Y0652600D01*
X0688600Y0652600D01*
X0688600Y0661150D01*
X0687184Y0664568D01*
X0684568Y0667184D01*
X0681150Y0668600D01*
X0458001Y0668600D01*
X0457274Y0669327D01*
X0454591Y0670439D01*
X0444009Y0670439D01*
X0441326Y0669327D01*
X0439273Y0667274D01*
X0438161Y0664591D01*
X0438161Y0654009D01*
X0439273Y0651326D01*
X0441326Y0649273D01*
X0444009Y0648161D01*
X0454591Y0648161D01*
X0457274Y0649273D01*
X0458001Y0650000D01*
X0587434Y0650000D01*
X0586058Y0648624D01*
X0584702Y0646276D01*
X0584000Y0643656D01*
X0584000Y0638600D01*
X0468001Y0638600D01*
X0467274Y0639327D01*
X0464591Y0640439D01*
X0454009Y0640439D01*
X0451326Y0639327D01*
X0449273Y0637274D01*
X0448161Y0634591D01*
X0448161Y0629900D01*
X0161899Y0629900D01*
X0159886Y0630734D01*
X0148714Y0630734D01*
X0146031Y0629622D01*
X0143977Y0627569D01*
X0142866Y0624886D01*
X0142866Y0613714D01*
X0143827Y0611394D01*
X0143058Y0610624D01*
X0141702Y0608276D01*
X0141000Y0605656D01*
X0141000Y0602944D01*
X0141702Y0600324D01*
X0142293Y0599300D01*
X0141702Y0598276D01*
X0141000Y0595656D01*
X0141000Y0592944D01*
X0141702Y0590324D01*
X0143058Y0587976D01*
X0143720Y0587314D01*
X0143300Y0585748D01*
X0143300Y0582852D01*
X0144050Y0580054D01*
X0145498Y0577546D01*
X0147546Y0575498D01*
X0150054Y0574050D01*
X0152852Y0573300D01*
X0155748Y0573300D01*
X0158546Y0574050D01*
X0161054Y0575498D01*
X0163102Y0577546D01*
X0164550Y0580054D01*
X0165300Y0582852D01*
X0165300Y0585748D01*
X0164880Y0587314D01*
X0165542Y0587976D01*
X0166898Y0590324D01*
X0167600Y0592944D01*
X0167600Y0595656D01*
X0166898Y0598276D01*
X0166307Y0599300D01*
X0166898Y0600324D01*
X0167600Y0602944D01*
X0167600Y0605656D01*
X0166898Y0608276D01*
X0166653Y0608700D01*
X0428161Y0608700D01*
X0428161Y0599009D01*
X0428331Y0598600D01*
X0327450Y0598600D01*
X0324032Y0597184D01*
X0321416Y0594568D01*
X0320000Y0591150D01*
X0320000Y0569900D01*
X0072466Y0569900D01*
X0072542Y0569976D01*
X0073898Y0572324D01*
X0074600Y0574944D01*
X0074600Y0583656D01*
X0073898Y0586276D01*
X0072542Y0588624D01*
X0070624Y0590542D01*
X0068276Y0591898D01*
X0065656Y0592600D01*
X0062944Y0592600D01*
X0060324Y0591898D01*
X0057976Y0590542D01*
X0056658Y0589225D01*
X0056652Y0589227D01*
X0055727Y0589475D01*
X0054778Y0589600D01*
X0054300Y0589600D01*
X0054300Y0584776D01*
X0054300Y0589600D01*
X0053822Y0589600D01*
X0052873Y0589475D01*
X0051948Y0589227D01*
X0051942Y0589225D01*
X0050624Y0590542D01*
X0048276Y0591898D01*
X0045656Y0592600D01*
X0042944Y0592600D01*
X0040324Y0591898D01*
X0037976Y0590542D01*
X0036058Y0588624D01*
X0034702Y0586276D01*
X0034000Y0583656D01*
X0034000Y0574944D01*
X0034702Y0572324D01*
X0036058Y0569976D01*
X0037976Y0568058D01*
X0040324Y0566702D01*
X0042944Y0566000D01*
X0045656Y0566000D01*
X0048276Y0566702D01*
X0050624Y0568058D01*
X0051942Y0569375D01*
X0051948Y0569373D01*
X0052873Y0569125D01*
X0053822Y0569000D01*
X0054300Y0569000D01*
X0054778Y0569000D01*
X0055727Y0569125D01*
X0056269Y0569270D01*
X0054273Y0567274D01*
X0053161Y0564591D01*
X0053161Y0554009D01*
X0054273Y0551326D01*
X0056326Y0549273D01*
X0059009Y0548161D01*
X0059135Y0548161D01*
X0056784Y0546804D01*
X0054552Y0544572D01*
X0054300Y0544136D01*
X0054048Y0544572D01*
X0051816Y0546804D01*
X0049084Y0548382D01*
X0046035Y0549198D01*
X0042880Y0549198D01*
X0039831Y0548382D01*
X0037098Y0546804D01*
X0034867Y0544572D01*
X0033289Y0541839D01*
X0032472Y0538791D01*
X0032472Y0526265D01*
X0033289Y0523217D01*
X0034867Y0520484D01*
X0037098Y0518253D01*
X0039831Y0516675D01*
X0042880Y0515858D01*
X0046035Y0515858D01*
X0049084Y0516675D01*
X0051816Y0518253D01*
X0054048Y0520484D01*
X0054300Y0520921D01*
X0054552Y0520484D01*
X0056784Y0518253D01*
X0059516Y0516675D01*
X0062565Y0515858D01*
X0065720Y0515858D01*
X0068769Y0516675D01*
X0071502Y0518253D01*
X0073733Y0520484D01*
X0075311Y0523217D01*
X0076128Y0526265D01*
X0076128Y0538791D01*
X0075311Y0541839D01*
X0073733Y0544572D01*
X0071502Y0546804D01*
X0069150Y0548161D01*
X0069591Y0548161D01*
X0070891Y0548700D01*
X0104370Y0548700D01*
X0104236Y0548469D01*
X0103500Y0545722D01*
X0103500Y0542878D01*
X0104236Y0540131D01*
X0104716Y0539300D01*
X0104236Y0538469D01*
X0103500Y0535722D01*
X0103500Y0532878D01*
X0104236Y0530131D01*
X0104716Y0529300D01*
X0104236Y0528469D01*
X0103500Y0525722D01*
X0103500Y0522878D01*
X0104236Y0520131D01*
X0105658Y0517669D01*
X0106817Y0516510D01*
X0106633Y0515825D01*
X0106500Y0514811D01*
X0106500Y0514300D01*
X0110020Y0514300D01*
X0106500Y0514300D01*
X0106500Y0513789D01*
X0106633Y0512775D01*
X0106817Y0512090D01*
X0105658Y0510931D01*
X0104236Y0508469D01*
X0103500Y0505722D01*
X0103500Y0502878D01*
X0104236Y0500131D01*
X0104716Y0499300D01*
X0104236Y0498469D01*
X0103500Y0495722D01*
X0103500Y0492878D01*
X0104236Y0490131D01*
X0104716Y0489300D01*
X0104236Y0488469D01*
X0103500Y0485722D01*
X0103500Y0482878D01*
X0104236Y0480131D01*
X0104716Y0479300D01*
X0104236Y0478469D01*
X0103500Y0475722D01*
X0103500Y0472878D01*
X0104236Y0470131D01*
X0104716Y0469300D01*
X0104236Y0468469D01*
X0103500Y0465722D01*
X0103500Y0462878D01*
X0104236Y0460131D01*
X0104716Y0459300D01*
X0104236Y0458469D01*
X0103500Y0455722D01*
X0103500Y0452878D01*
X0104236Y0450131D01*
X0104716Y0449300D01*
X0104236Y0448469D01*
X0103500Y0445722D01*
X0103500Y0442878D01*
X0104236Y0440131D01*
X0104716Y0439300D01*
X0104236Y0438469D01*
X0103500Y0435722D01*
X0103500Y0432878D01*
X0104236Y0430131D01*
X0104716Y0429300D01*
X0104236Y0428469D01*
X0103500Y0425722D01*
X0103500Y0422878D01*
X0104236Y0420131D01*
X0104716Y0419300D01*
X0104236Y0418469D01*
X0103500Y0415722D01*
X0103500Y0412878D01*
X0104236Y0410131D01*
X0104716Y0409300D01*
X0104236Y0408469D01*
X0103500Y0405722D01*
X0103500Y0402878D01*
X0104236Y0400131D01*
X0105658Y0397669D01*
X0107669Y0395658D01*
X0110131Y0394236D01*
X0112878Y0393500D01*
X0115722Y0393500D01*
X0118469Y0394236D01*
X0120931Y0395658D01*
X0122942Y0397669D01*
X0124364Y0400131D01*
X0125100Y0402878D01*
X0125100Y0405722D01*
X0124364Y0408469D01*
X0123884Y0409300D01*
X0124364Y0410131D01*
X0125100Y0412878D01*
X0125100Y0415722D01*
X0124364Y0418469D01*
X0123884Y0419300D01*
X0124364Y0420131D01*
X0125100Y0422878D01*
X0125100Y0425722D01*
X0124364Y0428469D01*
X0123884Y0429300D01*
X0124364Y0430131D01*
X0125100Y0432878D01*
X0125100Y0435722D01*
X0124364Y0438469D01*
X0123884Y0439300D01*
X0124364Y0440131D01*
X0125100Y0442878D01*
X0125100Y0443161D01*
X0134591Y0443161D01*
X0137274Y0444273D01*
X0138001Y0445000D01*
X0139029Y0445000D01*
X0139000Y0444778D01*
X0139000Y0444300D01*
X0143824Y0444300D01*
X0143825Y0444300D01*
X0139000Y0444300D01*
X0139000Y0443822D01*
X0139125Y0442873D01*
X0139373Y0441948D01*
X0139739Y0441064D01*
X0140217Y0440236D01*
X0140800Y0439476D01*
X0141476Y0438800D01*
X0142236Y0438217D01*
X0143064Y0437739D01*
X0143948Y0437373D01*
X0144873Y0437125D01*
X0145822Y0437000D01*
X0149300Y0437000D01*
X0152778Y0437000D01*
X0153727Y0437125D01*
X0154652Y0437373D01*
X0155536Y0437739D01*
X0156364Y0438217D01*
X0157124Y0438800D01*
X0157800Y0439476D01*
X0158383Y0440236D01*
X0158861Y0441064D01*
X0159227Y0441948D01*
X0159475Y0442873D01*
X0159600Y0443822D01*
X0159600Y0444300D01*
X0159600Y0444778D01*
X0159475Y0445727D01*
X0159227Y0446652D01*
X0159225Y0446658D01*
X0160542Y0447976D01*
X0161898Y0450324D01*
X0162600Y0452944D01*
X0162600Y0455656D01*
X0161898Y0458276D01*
X0161307Y0459300D01*
X0161898Y0460324D01*
X0162600Y0462944D01*
X0162600Y0465656D01*
X0161898Y0468276D01*
X0161307Y0469300D01*
X0161898Y0470324D01*
X0162600Y0472944D01*
X0162600Y0475656D01*
X0161898Y0478276D01*
X0161307Y0479300D01*
X0161898Y0480324D01*
X0162600Y0482944D01*
X0162600Y0485656D01*
X0161898Y0488276D01*
X0161307Y0489300D01*
X0161898Y0490324D01*
X0162600Y0492944D01*
X0162600Y0495656D01*
X0161898Y0498276D01*
X0161307Y0499300D01*
X0161898Y0500324D01*
X0162600Y0502944D01*
X0162600Y0505656D01*
X0161898Y0508276D01*
X0160542Y0510624D01*
X0159900Y0511266D01*
X0159900Y0537709D01*
X0160439Y0539009D01*
X0160439Y0548700D01*
X0164370Y0548700D01*
X0164236Y0548469D01*
X0163500Y0545722D01*
X0163500Y0542878D01*
X0164236Y0540131D01*
X0164716Y0539300D01*
X0164236Y0538469D01*
X0163500Y0535722D01*
X0163500Y0532878D01*
X0164236Y0530131D01*
X0164716Y0529300D01*
X0164236Y0528469D01*
X0163500Y0525722D01*
X0163500Y0522878D01*
X0164236Y0520131D01*
X0164716Y0519300D01*
X0164236Y0518469D01*
X0163500Y0515722D01*
X0163500Y0512878D01*
X0164236Y0510131D01*
X0164716Y0509300D01*
X0164236Y0508469D01*
X0163500Y0505722D01*
X0163500Y0502878D01*
X0164236Y0500131D01*
X0164716Y0499300D01*
X0164236Y0498469D01*
X0163500Y0495722D01*
X0163500Y0492878D01*
X0164236Y0490131D01*
X0164716Y0489300D01*
X0164236Y0488469D01*
X0163500Y0485722D01*
X0163500Y0482878D01*
X0164236Y0480131D01*
X0164716Y0479300D01*
X0164236Y0478469D01*
X0163500Y0475722D01*
X0163500Y0472878D01*
X0164236Y0470131D01*
X0164716Y0469300D01*
X0164236Y0468469D01*
X0163500Y0465722D01*
X0163500Y0462878D01*
X0164236Y0460131D01*
X0164716Y0459300D01*
X0164236Y0458469D01*
X0163500Y0455722D01*
X0163500Y0452878D01*
X0164236Y0450131D01*
X0164716Y0449300D01*
X0164236Y0448469D01*
X0163500Y0445722D01*
X0163500Y0442878D01*
X0164236Y0440131D01*
X0164716Y0439300D01*
X0164236Y0438469D01*
X0163500Y0435722D01*
X0163500Y0432878D01*
X0164236Y0430131D01*
X0164716Y0429300D01*
X0164236Y0428469D01*
X0163500Y0425722D01*
X0163500Y0422878D01*
X0164236Y0420131D01*
X0164716Y0419300D01*
X0164236Y0418469D01*
X0163500Y0415722D01*
X0163500Y0412878D01*
X0164236Y0410131D01*
X0164716Y0409300D01*
X0164236Y0408469D01*
X0163500Y0405722D01*
X0163500Y0402878D01*
X0164236Y0400131D01*
X0165658Y0397669D01*
X0167669Y0395658D01*
X0170131Y0394236D01*
X0172878Y0393500D01*
X0175722Y0393500D01*
X0178469Y0394236D01*
X0180931Y0395658D01*
X0182942Y0397669D01*
X0184364Y0400131D01*
X0185100Y0402878D01*
X0185100Y0403161D01*
X0194591Y0403161D01*
X0196800Y0404077D01*
X0199009Y0403161D01*
X0203161Y0403161D01*
X0203161Y0399009D01*
X0204273Y0396326D01*
X0206326Y0394273D01*
X0209009Y0393161D01*
X0213161Y0393161D01*
X0213161Y0389009D01*
X0214273Y0386326D01*
X0216326Y0384273D01*
X0219009Y0383161D01*
X0229591Y0383161D01*
X0232274Y0384273D01*
X0233001Y0385000D01*
X0321150Y0385000D01*
X0324568Y0386416D01*
X0327184Y0389032D01*
X0328600Y0392450D01*
X0328600Y0430000D01*
X0371150Y0430000D01*
X0374568Y0431416D01*
X0377184Y0434032D01*
X0378300Y0436726D01*
X0378300Y0429744D01*
X0378744Y0429300D01*
X0378300Y0428856D01*
X0378300Y0419744D01*
X0378744Y0419300D01*
X0378300Y0418856D01*
X0378300Y0409744D01*
X0378744Y0409300D01*
X0378300Y0408856D01*
X0378300Y0399744D01*
X0378744Y0399300D01*
X0378300Y0398856D01*
X0378300Y0389744D01*
X0378744Y0389300D01*
X0378300Y0388856D01*
X0378300Y0379744D01*
X0379214Y0378830D01*
X0379050Y0378546D01*
X0378300Y0375748D01*
X0378300Y0372852D01*
X0379050Y0370054D01*
X0380498Y0367546D01*
X0382546Y0365498D01*
X0385054Y0364050D01*
X0387852Y0363300D01*
X0390748Y0363300D01*
X0393546Y0364050D01*
X0394300Y0364485D01*
X0395054Y0364050D01*
X0397852Y0363300D01*
X0400748Y0363300D01*
X0403546Y0364050D01*
X0405856Y0365383D01*
X0406087Y0364827D01*
X0405054Y0364550D01*
X0402546Y0363102D01*
X0400498Y0361054D01*
X0399050Y0358546D01*
X0398300Y0355748D01*
X0398300Y0352852D01*
X0399050Y0350054D01*
X0399889Y0348600D01*
X0168001Y0348600D01*
X0167274Y0349327D01*
X0164591Y0350439D01*
X0154009Y0350439D01*
X0151326Y0349327D01*
X0149273Y0347274D01*
X0148161Y0344591D01*
X0148161Y0334009D01*
X0149273Y0331326D01*
X0151326Y0329273D01*
X0154009Y0328161D01*
X0158161Y0328161D01*
X0158161Y0324009D01*
X0159273Y0321326D01*
X0161326Y0319273D01*
X0164009Y0318161D01*
X0174591Y0318161D01*
X0177274Y0319273D01*
X0178001Y0320000D01*
X0501150Y0320000D01*
X0504568Y0321416D01*
X0507184Y0324032D01*
X0508082Y0326200D01*
X0744231Y0326200D01*
X0744231Y0095077D01*
X0713354Y0090081D02*
X0586757Y0090081D01*
X0587600Y0083482D02*
X0712735Y0083482D01*
X0712735Y0076884D02*
X0584450Y0076884D01*
X0564150Y0076884D02*
X0496652Y0076884D01*
X0496652Y0083482D02*
X0561000Y0083482D01*
X0561843Y0090081D02*
X0496652Y0090081D01*
X0496652Y0096679D02*
X0561274Y0096679D01*
X0561000Y0103278D02*
X0496652Y0103278D01*
X0496652Y0109876D02*
X0562626Y0109876D01*
X0564325Y0116475D02*
X0496652Y0116475D01*
X0496652Y0070285D02*
X0712735Y0070285D01*
X0712735Y0063687D02*
X0496652Y0063687D01*
X0496652Y0057088D02*
X0712735Y0057088D01*
X0599034Y0050490D02*
X0496652Y0050490D01*
X0496652Y0043891D02*
X0516325Y0043891D01*
X0516058Y0043624D02*
X0514702Y0041276D01*
X0514000Y0038656D01*
X0514000Y0029944D01*
X0514702Y0027324D01*
X0516058Y0024976D01*
X0517976Y0023058D01*
X0520324Y0021702D01*
X0522944Y0021000D01*
X0525656Y0021000D01*
X0528276Y0021702D01*
X0529300Y0022293D01*
X0530324Y0021702D01*
X0532944Y0021000D01*
X0535656Y0021000D01*
X0538276Y0021702D01*
X0539300Y0022293D01*
X0540324Y0021702D01*
X0542944Y0021000D01*
X0545656Y0021000D01*
X0548276Y0021702D01*
X0550624Y0023058D01*
X0551942Y0024375D01*
X0551948Y0024373D01*
X0552873Y0024125D01*
X0553822Y0024000D01*
X0554300Y0024000D01*
X0554778Y0024000D01*
X0555727Y0024125D01*
X0556652Y0024373D01*
X0557536Y0024739D01*
X0558364Y0025217D01*
X0559124Y0025800D01*
X0559800Y0026476D01*
X0560383Y0027236D01*
X0560861Y0028064D01*
X0561227Y0028948D01*
X0561475Y0029873D01*
X0561600Y0030822D01*
X0561600Y0034300D01*
X0561600Y0037778D01*
X0561475Y0038727D01*
X0561227Y0039652D01*
X0560861Y0040536D01*
X0560383Y0041364D01*
X0559800Y0042124D01*
X0559124Y0042800D01*
X0558364Y0043383D01*
X0557536Y0043861D01*
X0556652Y0044227D01*
X0555727Y0044475D01*
X0554778Y0044600D01*
X0554300Y0044600D01*
X0554300Y0039775D01*
X0554300Y0039776D01*
X0554300Y0044600D01*
X0553822Y0044600D01*
X0552873Y0044475D01*
X0551948Y0044227D01*
X0551942Y0044225D01*
X0550624Y0045542D01*
X0548276Y0046898D01*
X0545656Y0047600D01*
X0542944Y0047600D01*
X0540324Y0046898D01*
X0539300Y0046307D01*
X0538276Y0046898D01*
X0535656Y0047600D01*
X0532944Y0047600D01*
X0530324Y0046898D01*
X0529300Y0046307D01*
X0528276Y0046898D01*
X0525656Y0047600D01*
X0522944Y0047600D01*
X0520324Y0046898D01*
X0517976Y0045542D01*
X0516058Y0043624D01*
X0514000Y0037293D02*
X0496652Y0037293D01*
X0496652Y0030694D02*
X0514000Y0030694D01*
X0516938Y0024096D02*
X0495734Y0024096D01*
X0551662Y0024096D02*
X0553096Y0024096D01*
X0554300Y0024096D02*
X0554300Y0024096D01*
X0554300Y0024000D02*
X0554300Y0028824D01*
X0554300Y0028825D01*
X0554300Y0024000D01*
X0555504Y0024096D02*
X0596200Y0024096D01*
X0596200Y0030694D02*
X0561583Y0030694D01*
X0561600Y0034300D02*
X0554600Y0034300D01*
X0561600Y0034300D01*
X0561600Y0037293D02*
X0596200Y0037293D01*
X0596200Y0043891D02*
X0557464Y0043891D01*
X0554300Y0043891D02*
X0554300Y0043891D01*
X0554600Y0034300D02*
X0554600Y0034300D01*
X0596200Y0017497D02*
X0157400Y0017497D01*
X0157400Y0024096D02*
X0260898Y0024096D01*
X0259980Y0030694D02*
X0157400Y0030694D01*
X0157400Y0037293D02*
X0259980Y0037293D01*
X0259980Y0043891D02*
X0157400Y0043891D01*
X0154566Y0050490D02*
X0259980Y0050490D01*
X0259980Y0057088D02*
X0043896Y0057088D01*
X0043896Y0063687D02*
X0259980Y0063687D01*
X0259980Y0070285D02*
X0238453Y0070285D01*
X0238364Y0070217D02*
X0239124Y0070800D01*
X0239800Y0071476D01*
X0240383Y0072236D01*
X0240861Y0073064D01*
X0241227Y0073948D01*
X0241475Y0074873D01*
X0241600Y0075822D01*
X0241600Y0079300D01*
X0241600Y0082778D01*
X0241475Y0083727D01*
X0241227Y0084652D01*
X0240861Y0085536D01*
X0240383Y0086364D01*
X0239800Y0087124D01*
X0239124Y0087800D01*
X0238364Y0088383D01*
X0237536Y0088861D01*
X0236652Y0089227D01*
X0235727Y0089475D01*
X0234778Y0089600D01*
X0234300Y0089600D01*
X0234300Y0084775D01*
X0234300Y0084776D01*
X0234300Y0089600D01*
X0233822Y0089600D01*
X0232873Y0089475D01*
X0231948Y0089227D01*
X0231942Y0089225D01*
X0230624Y0090542D01*
X0228276Y0091898D01*
X0225656Y0092600D01*
X0222944Y0092600D01*
X0220324Y0091898D01*
X0219300Y0091307D01*
X0218276Y0091898D01*
X0215656Y0092600D01*
X0212944Y0092600D01*
X0210324Y0091898D01*
X0209300Y0091307D01*
X0208276Y0091898D01*
X0205656Y0092600D01*
X0202944Y0092600D01*
X0200324Y0091898D01*
X0197976Y0090542D01*
X0196058Y0088624D01*
X0194702Y0086276D01*
X0194000Y0083656D01*
X0194000Y0074944D01*
X0194702Y0072324D01*
X0196058Y0069976D01*
X0197976Y0068058D01*
X0200324Y0066702D01*
X0202944Y0066000D01*
X0205656Y0066000D01*
X0208276Y0066702D01*
X0209300Y0067293D01*
X0210324Y0066702D01*
X0212944Y0066000D01*
X0215656Y0066000D01*
X0218276Y0066702D01*
X0219300Y0067293D01*
X0220324Y0066702D01*
X0222944Y0066000D01*
X0225656Y0066000D01*
X0228276Y0066702D01*
X0230624Y0068058D01*
X0231942Y0069375D01*
X0231948Y0069373D01*
X0232873Y0069125D01*
X0233822Y0069000D01*
X0234300Y0069000D01*
X0234778Y0069000D01*
X0235727Y0069125D01*
X0236652Y0069373D01*
X0237536Y0069739D01*
X0238364Y0070217D01*
X0234300Y0070285D02*
X0234300Y0070285D01*
X0234300Y0069000D02*
X0234300Y0073824D01*
X0234300Y0073825D01*
X0234300Y0069000D01*
X0241600Y0076884D02*
X0259980Y0076884D01*
X0259980Y0083482D02*
X0241507Y0083482D01*
X0241600Y0079300D02*
X0234600Y0079300D01*
X0234600Y0079300D01*
X0241600Y0079300D01*
X0231086Y0090081D02*
X0259980Y0090081D01*
X0259980Y0096679D02*
X0012400Y0096679D01*
X0012400Y0103278D02*
X0259980Y0103278D01*
X0259980Y0109876D02*
X0181577Y0109876D01*
X0181276Y0109702D02*
X0183624Y0111058D01*
X0185542Y0112976D01*
X0186898Y0115324D01*
X0187600Y0117944D01*
X0187600Y0120656D01*
X0186898Y0123276D01*
X0186307Y0124300D01*
X0186898Y0125324D01*
X0187600Y0127944D01*
X0187600Y0130656D01*
X0186898Y0133276D01*
X0186307Y0134300D01*
X0186898Y0135324D01*
X0187600Y0137944D01*
X0187600Y0140656D01*
X0186898Y0143276D01*
X0185542Y0145624D01*
X0184225Y0146942D01*
X0184227Y0146948D01*
X0184475Y0147873D01*
X0184600Y0148822D01*
X0184600Y0149300D01*
X0184600Y0149778D01*
X0184475Y0150727D01*
X0184227Y0151652D01*
X0183861Y0152536D01*
X0183383Y0153364D01*
X0182800Y0154124D01*
X0182124Y0154800D01*
X0181364Y0155383D01*
X0180536Y0155861D01*
X0179652Y0156227D01*
X0178727Y0156475D01*
X0177778Y0156600D01*
X0174300Y0156600D01*
X0174300Y0149600D01*
X0174300Y0149600D01*
X0174300Y0156600D01*
X0170822Y0156600D01*
X0169873Y0156475D01*
X0168948Y0156227D01*
X0168064Y0155861D01*
X0167236Y0155383D01*
X0166476Y0154800D01*
X0165800Y0154124D01*
X0165217Y0153364D01*
X0164739Y0152536D01*
X0164373Y0151652D01*
X0164125Y0150727D01*
X0164000Y0149778D01*
X0164000Y0149300D01*
X0168825Y0149300D01*
X0168824Y0149300D01*
X0164000Y0149300D01*
X0164000Y0148822D01*
X0164125Y0147873D01*
X0164373Y0146948D01*
X0164375Y0146942D01*
X0163058Y0145624D01*
X0161702Y0143276D01*
X0161000Y0140656D01*
X0161000Y0137944D01*
X0161702Y0135324D01*
X0162293Y0134300D01*
X0161702Y0133276D01*
X0161000Y0130656D01*
X0161000Y0127944D01*
X0161702Y0125324D01*
X0162293Y0124300D01*
X0161702Y0123276D01*
X0161000Y0120656D01*
X0161000Y0117944D01*
X0161702Y0115324D01*
X0163058Y0112976D01*
X0164976Y0111058D01*
X0167324Y0109702D01*
X0169944Y0109000D01*
X0178656Y0109000D01*
X0181276Y0109702D01*
X0187206Y0116475D02*
X0259980Y0116475D01*
X0259980Y0123073D02*
X0186952Y0123073D01*
X0187600Y0129672D02*
X0259980Y0129672D01*
X0259980Y0136270D02*
X0187152Y0136270D01*
X0187007Y0142869D02*
X0259980Y0142869D01*
X0259980Y0149467D02*
X0184600Y0149467D01*
X0184600Y0149300D02*
X0179775Y0149300D01*
X0179776Y0149300D01*
X0184600Y0149300D01*
X0180042Y0156066D02*
X0259980Y0156066D01*
X0259980Y0162664D02*
X0157525Y0162664D01*
X0157600Y0162944D02*
X0157600Y0165656D01*
X0156898Y0168276D01*
X0155542Y0170624D01*
X0154225Y0171942D01*
X0154227Y0171948D01*
X0154475Y0172873D01*
X0154600Y0173822D01*
X0154600Y0174300D01*
X0154600Y0174778D01*
X0154475Y0175727D01*
X0154227Y0176652D01*
X0154225Y0176658D01*
X0155542Y0177976D01*
X0156898Y0180324D01*
X0157600Y0182944D01*
X0157600Y0185656D01*
X0156898Y0188276D01*
X0155542Y0190624D01*
X0153624Y0192542D01*
X0151276Y0193898D01*
X0148656Y0194600D01*
X0139944Y0194600D01*
X0137324Y0193898D01*
X0134976Y0192542D01*
X0133058Y0190624D01*
X0131702Y0188276D01*
X0131000Y0185656D01*
X0131000Y0182944D01*
X0131702Y0180324D01*
X0133058Y0177976D01*
X0134375Y0176658D01*
X0134373Y0176652D01*
X0134125Y0175727D01*
X0134000Y0174778D01*
X0134000Y0174300D01*
X0138824Y0174300D01*
X0134000Y0174300D01*
X0134000Y0173822D01*
X0134125Y0172873D01*
X0134373Y0171948D01*
X0134375Y0171942D01*
X0133058Y0170624D01*
X0131702Y0168276D01*
X0131000Y0165656D01*
X0131000Y0162944D01*
X0131702Y0160324D01*
X0133058Y0157976D01*
X0134976Y0156058D01*
X0137324Y0154702D01*
X0139944Y0154000D01*
X0148656Y0154000D01*
X0151276Y0154702D01*
X0153624Y0156058D01*
X0155542Y0157976D01*
X0156898Y0160324D01*
X0157600Y0162944D01*
X0156328Y0169263D02*
X0259980Y0169263D01*
X0259980Y0175861D02*
X0154439Y0175861D01*
X0154600Y0174300D02*
X0149776Y0174300D01*
X0149776Y0174300D01*
X0154600Y0174300D01*
X0149776Y0174300D02*
X0149776Y0174300D01*
X0138824Y0174300D02*
X0138824Y0174300D01*
X0138824Y0174300D01*
X0134161Y0175861D02*
X0012400Y0175861D01*
X0012400Y0169263D02*
X0132272Y0169263D01*
X0131075Y0162664D02*
X0012400Y0162664D01*
X0012400Y0156066D02*
X0134968Y0156066D01*
X0153632Y0156066D02*
X0168558Y0156066D01*
X0174300Y0156066D02*
X0174300Y0156066D01*
X0164000Y0149467D02*
X0012400Y0149467D01*
X0012400Y0142869D02*
X0161593Y0142869D01*
X0161448Y0136270D02*
X0012400Y0136270D01*
X0012400Y0129672D02*
X0161000Y0129672D01*
X0161648Y0123073D02*
X0012400Y0123073D01*
X0012400Y0116475D02*
X0161394Y0116475D01*
X0167023Y0109876D02*
X0012400Y0109876D01*
X0043278Y0090081D02*
X0197514Y0090081D01*
X0194000Y0083482D02*
X0043896Y0083482D01*
X0043896Y0076884D02*
X0194000Y0076884D01*
X0195879Y0070285D02*
X0043896Y0070285D01*
X0012400Y0182460D02*
X0131130Y0182460D01*
X0132154Y0189058D02*
X0012400Y0189058D01*
X0012400Y0195657D02*
X0108236Y0195657D01*
X0108311Y0195475D02*
X0108900Y0194455D01*
X0109617Y0193521D01*
X0110450Y0192688D01*
X0111384Y0191971D01*
X0112404Y0191382D01*
X0113492Y0190931D01*
X0114630Y0190626D01*
X0115798Y0190472D01*
X0121072Y0190472D01*
X0126346Y0190472D01*
X0127513Y0190626D01*
X0128651Y0190931D01*
X0129739Y0191382D01*
X0130759Y0191971D01*
X0131694Y0192688D01*
X0132526Y0193521D01*
X0133244Y0194455D01*
X0133832Y0195475D01*
X0134283Y0196563D01*
X0134588Y0197701D01*
X0134742Y0198869D01*
X0134742Y0199457D01*
X0121072Y0199457D01*
X0121072Y0190472D01*
X0121072Y0199457D01*
X0121072Y0199457D01*
X0121072Y0199458D01*
X0134742Y0199458D01*
X0134742Y0200046D01*
X0134588Y0201214D01*
X0134283Y0202352D01*
X0133832Y0203440D01*
X0133244Y0204460D01*
X0132526Y0205394D01*
X0131694Y0206227D01*
X0130759Y0206944D01*
X0129739Y0207533D01*
X0129345Y0207696D01*
X0130383Y0207974D01*
X0133116Y0209552D01*
X0135347Y0211784D01*
X0136925Y0214516D01*
X0137742Y0217565D01*
X0137742Y0220720D01*
X0136925Y0223769D01*
X0135347Y0226502D01*
X0133116Y0228733D01*
X0130383Y0230311D01*
X0127335Y0231128D01*
X0114809Y0231128D01*
X0111761Y0230311D01*
X0109028Y0228733D01*
X0106796Y0226502D01*
X0105218Y0223769D01*
X0104402Y0220720D01*
X0104402Y0217565D01*
X0105218Y0214516D01*
X0106796Y0211784D01*
X0109028Y0209552D01*
X0111761Y0207974D01*
X0112798Y0207696D01*
X0112404Y0207533D01*
X0111384Y0206944D01*
X0110450Y0206227D01*
X0109617Y0205394D01*
X0108900Y0204460D01*
X0108311Y0203440D01*
X0107860Y0202352D01*
X0107555Y0201214D01*
X0107402Y0200046D01*
X0107402Y0199458D01*
X0121072Y0199458D01*
X0121072Y0199457D01*
X0107402Y0199457D01*
X0107402Y0198869D01*
X0107555Y0197701D01*
X0107860Y0196563D01*
X0108311Y0195475D01*
X0107834Y0202255D02*
X0012400Y0202255D01*
X0012400Y0208854D02*
X0110237Y0208854D01*
X0104968Y0215452D02*
X0012400Y0215452D01*
X0012400Y0222051D02*
X0104758Y0222051D01*
X0108944Y0228649D02*
X0012400Y0228649D01*
X0012400Y0235248D02*
X0259980Y0235248D01*
X0259980Y0241846D02*
X0154413Y0241846D01*
X0157600Y0248445D02*
X0259980Y0248445D01*
X0259980Y0255043D02*
X0156736Y0255043D01*
X0157336Y0261642D02*
X0259980Y0261642D01*
X0259980Y0268240D02*
X0154523Y0268240D01*
X0154600Y0269300D02*
X0149776Y0269300D01*
X0149776Y0269300D01*
X0154600Y0269300D01*
X0149776Y0269300D02*
X0149776Y0269300D01*
X0156618Y0274839D02*
X0263384Y0274839D01*
X0259980Y0228649D02*
X0133199Y0228649D01*
X0137385Y0222051D02*
X0259980Y0222051D01*
X0259980Y0215452D02*
X0137176Y0215452D01*
X0131906Y0208854D02*
X0259980Y0208854D01*
X0259980Y0202255D02*
X0134309Y0202255D01*
X0133908Y0195657D02*
X0259980Y0195657D01*
X0259980Y0189058D02*
X0156446Y0189058D01*
X0157470Y0182460D02*
X0259980Y0182460D01*
X0156500Y0294634D02*
X0602698Y0294634D01*
X0606528Y0301233D02*
X0157445Y0301233D01*
X0153123Y0307832D02*
X0744231Y0307832D01*
X0744231Y0314430D02*
X0097359Y0314430D01*
X0098116Y0314867D02*
X0100347Y0317098D01*
X0101925Y0319831D01*
X0102742Y0322880D01*
X0102742Y0326035D01*
X0101925Y0329084D01*
X0100347Y0331816D01*
X0098116Y0334048D01*
X0097679Y0334300D01*
X0098116Y0334552D01*
X0100347Y0336784D01*
X0101925Y0339516D01*
X0102742Y0342565D01*
X0102742Y0345720D01*
X0101925Y0348769D01*
X0100347Y0351502D01*
X0098116Y0353733D01*
X0095383Y0355311D01*
X0092335Y0356128D01*
X0079809Y0356128D01*
X0076761Y0355311D01*
X0074028Y0353733D01*
X0071796Y0351502D01*
X0070218Y0348769D01*
X0069402Y0345720D01*
X0069402Y0342565D01*
X0070218Y0339516D01*
X0071796Y0336784D01*
X0074028Y0334552D01*
X0074464Y0334300D01*
X0074028Y0334048D01*
X0071796Y0331816D01*
X0070218Y0329084D01*
X0069402Y0326035D01*
X0069402Y0322880D01*
X0070218Y0319831D01*
X0071796Y0317098D01*
X0074028Y0314867D01*
X0076761Y0313289D01*
X0079809Y0312472D01*
X0092335Y0312472D01*
X0095383Y0313289D01*
X0098116Y0314867D01*
X0099944Y0309600D02*
X0097324Y0308898D01*
X0094976Y0307542D01*
X0093058Y0305624D01*
X0091702Y0303276D01*
X0091000Y0300656D01*
X0091000Y0297944D01*
X0091702Y0295324D01*
X0092293Y0294300D01*
X0091702Y0293276D01*
X0091000Y0290656D01*
X0091000Y0287944D01*
X0091702Y0285324D01*
X0092293Y0284300D01*
X0091702Y0283276D01*
X0091000Y0280656D01*
X0091000Y0277944D01*
X0091702Y0275324D01*
X0093058Y0272976D01*
X0094375Y0271658D01*
X0094373Y0271652D01*
X0094125Y0270727D01*
X0094000Y0269778D01*
X0094000Y0269300D01*
X0098824Y0269300D01*
X0094000Y0269300D01*
X0094000Y0268822D01*
X0094125Y0267873D01*
X0094373Y0266948D01*
X0094375Y0266942D01*
X0093058Y0265624D01*
X0091702Y0263276D01*
X0091000Y0260656D01*
X0091000Y0257944D01*
X0091702Y0255324D01*
X0092293Y0254300D01*
X0091702Y0253276D01*
X0091000Y0250656D01*
X0091000Y0247944D01*
X0091702Y0245324D01*
X0093058Y0242976D01*
X0094976Y0241058D01*
X0097324Y0239702D01*
X0099944Y0239000D01*
X0108656Y0239000D01*
X0111276Y0239702D01*
X0113624Y0241058D01*
X0115542Y0242976D01*
X0116898Y0245324D01*
X0117600Y0247944D01*
X0117600Y0250656D01*
X0116898Y0253276D01*
X0116307Y0254300D01*
X0116898Y0255324D01*
X0117600Y0257944D01*
X0117600Y0260656D01*
X0116898Y0263276D01*
X0115542Y0265624D01*
X0114225Y0266942D01*
X0114227Y0266948D01*
X0114475Y0267873D01*
X0114600Y0268822D01*
X0114600Y0269300D01*
X0114600Y0269778D01*
X0114475Y0270727D01*
X0114227Y0271652D01*
X0114225Y0271658D01*
X0115542Y0272976D01*
X0116898Y0275324D01*
X0117600Y0277944D01*
X0117600Y0280656D01*
X0116898Y0283276D01*
X0116307Y0284300D01*
X0116898Y0285324D01*
X0117600Y0287944D01*
X0117600Y0290656D01*
X0116898Y0293276D01*
X0116307Y0294300D01*
X0116898Y0295324D01*
X0117600Y0297944D01*
X0117600Y0300656D01*
X0116898Y0303276D01*
X0115542Y0305624D01*
X0113624Y0307542D01*
X0111276Y0308898D01*
X0108656Y0309600D01*
X0099944Y0309600D01*
X0095477Y0307832D02*
X0012400Y0307832D01*
X0012400Y0314430D02*
X0074785Y0314430D01*
X0069898Y0321029D02*
X0012400Y0321029D01*
X0012400Y0327627D02*
X0069828Y0327627D01*
X0074335Y0334226D02*
X0012400Y0334226D01*
X0012400Y0340824D02*
X0069868Y0340824D01*
X0069858Y0347423D02*
X0012400Y0347423D01*
X0012400Y0354021D02*
X0074527Y0354021D01*
X0097617Y0354021D02*
X0398300Y0354021D01*
X0400247Y0360620D02*
X0012400Y0360620D01*
X0012400Y0367218D02*
X0380826Y0367218D01*
X0378300Y0373817D02*
X0012400Y0373817D01*
X0012400Y0380415D02*
X0378300Y0380415D01*
X0378300Y0387014D02*
X0325166Y0387014D01*
X0328600Y0393612D02*
X0378300Y0393612D01*
X0378300Y0400211D02*
X0328600Y0400211D01*
X0328600Y0406809D02*
X0378300Y0406809D01*
X0378300Y0413408D02*
X0328600Y0413408D01*
X0328600Y0420006D02*
X0378300Y0420006D01*
X0378300Y0426605D02*
X0328600Y0426605D01*
X0376355Y0433203D02*
X0378300Y0433203D01*
X0320000Y0488600D02*
X0257450Y0488600D01*
X0254032Y0487184D01*
X0251416Y0484568D01*
X0250000Y0481150D01*
X0250000Y0448001D01*
X0249273Y0447274D01*
X0248161Y0444591D01*
X0248161Y0438600D01*
X0247600Y0438600D01*
X0247600Y0440656D01*
X0246898Y0443276D01*
X0246307Y0444300D01*
X0246898Y0445324D01*
X0247600Y0447944D01*
X0247600Y0450656D01*
X0246898Y0453276D01*
X0245542Y0455624D01*
X0244225Y0456942D01*
X0244227Y0456948D01*
X0244475Y0457873D01*
X0244600Y0458822D01*
X0244600Y0459300D01*
X0244600Y0459778D01*
X0244475Y0460727D01*
X0244227Y0461652D01*
X0244225Y0461658D01*
X0245542Y0462976D01*
X0246898Y0465324D01*
X0247600Y0467944D01*
X0247600Y0470656D01*
X0246898Y0473276D01*
X0245542Y0475624D01*
X0243624Y0477542D01*
X0241276Y0478898D01*
X0238656Y0479600D01*
X0229944Y0479600D01*
X0227623Y0478978D01*
X0227274Y0479327D01*
X0224591Y0480439D01*
X0214009Y0480439D01*
X0212709Y0479900D01*
X0199900Y0479900D01*
X0199900Y0523700D01*
X0224016Y0523700D01*
X0224125Y0522873D01*
X0224373Y0521948D01*
X0224375Y0521942D01*
X0223058Y0520624D01*
X0221702Y0518276D01*
X0221000Y0515656D01*
X0221000Y0515439D01*
X0214009Y0515439D01*
X0211326Y0514327D01*
X0209273Y0512274D01*
X0208161Y0509591D01*
X0208161Y0499009D01*
X0209273Y0496326D01*
X0211326Y0494273D01*
X0214009Y0493161D01*
X0224591Y0493161D01*
X0227274Y0494273D01*
X0227623Y0494622D01*
X0229944Y0494000D01*
X0238656Y0494000D01*
X0241276Y0494702D01*
X0243624Y0496058D01*
X0245542Y0497976D01*
X0245649Y0498161D01*
X0254591Y0498161D01*
X0257274Y0499273D01*
X0258161Y0500161D01*
X0258161Y0499009D01*
X0259273Y0496326D01*
X0261326Y0494273D01*
X0264009Y0493161D01*
X0274591Y0493161D01*
X0277274Y0494273D01*
X0277623Y0494622D01*
X0279944Y0494000D01*
X0288656Y0494000D01*
X0291276Y0494702D01*
X0293624Y0496058D01*
X0295542Y0497976D01*
X0295649Y0498161D01*
X0304591Y0498161D01*
X0307274Y0499273D01*
X0309327Y0501326D01*
X0310439Y0504009D01*
X0310439Y0514591D01*
X0309327Y0517274D01*
X0307274Y0519327D01*
X0304591Y0520439D01*
X0295649Y0520439D01*
X0295542Y0520624D01*
X0294225Y0521942D01*
X0294227Y0521948D01*
X0294475Y0522873D01*
X0294600Y0523822D01*
X0294600Y0524300D01*
X0294600Y0524778D01*
X0294475Y0525727D01*
X0294227Y0526652D01*
X0294225Y0526658D01*
X0295542Y0527976D01*
X0296898Y0530324D01*
X0297600Y0532944D01*
X0297600Y0535656D01*
X0296898Y0538276D01*
X0295542Y0540624D01*
X0294900Y0541266D01*
X0294900Y0545696D01*
X0294178Y0548391D01*
X0293999Y0548700D01*
X0308161Y0548700D01*
X0308161Y0539009D01*
X0309273Y0536326D01*
X0311326Y0534273D01*
X0314009Y0533161D01*
X0320000Y0533161D01*
X0320000Y0488600D01*
X0320000Y0492590D02*
X0199900Y0492590D01*
X0199900Y0499188D02*
X0208161Y0499188D01*
X0208161Y0505787D02*
X0199900Y0505787D01*
X0199900Y0512385D02*
X0209384Y0512385D01*
X0199900Y0518984D02*
X0222111Y0518984D01*
X0239776Y0524300D02*
X0239776Y0524300D01*
X0239776Y0524300D01*
X0244600Y0524300D01*
X0244600Y0524778D01*
X0244475Y0525727D01*
X0244227Y0526652D01*
X0244225Y0526658D01*
X0245542Y0527976D01*
X0246898Y0530324D01*
X0247600Y0532944D01*
X0247600Y0533700D01*
X0271000Y0533700D01*
X0271000Y0532944D01*
X0271702Y0530324D01*
X0273058Y0527976D01*
X0274375Y0526658D01*
X0274373Y0526652D01*
X0274125Y0525727D01*
X0274000Y0524778D01*
X0274000Y0524300D01*
X0278824Y0524300D01*
X0274000Y0524300D01*
X0274000Y0523822D01*
X0274125Y0522873D01*
X0274373Y0521948D01*
X0274375Y0521942D01*
X0273058Y0520624D01*
X0271702Y0518276D01*
X0271000Y0515656D01*
X0271000Y0515439D01*
X0264009Y0515439D01*
X0261326Y0514327D01*
X0260439Y0513439D01*
X0260439Y0514591D01*
X0259327Y0517274D01*
X0257274Y0519327D01*
X0254591Y0520439D01*
X0245649Y0520439D01*
X0245542Y0520624D01*
X0244225Y0521942D01*
X0244227Y0521948D01*
X0244475Y0522873D01*
X0244600Y0523822D01*
X0244600Y0524300D01*
X0239776Y0524300D01*
X0244494Y0525582D02*
X0274106Y0525582D01*
X0278824Y0524300D02*
X0278824Y0524300D01*
X0278824Y0524300D01*
X0272111Y0518984D02*
X0257617Y0518984D01*
X0247396Y0532181D02*
X0271204Y0532181D01*
X0284300Y0534300D02*
X0284300Y0544300D01*
X0189300Y0544300D01*
X0189300Y0534300D01*
X0234300Y0534300D01*
X0257070Y0499188D02*
X0258161Y0499188D01*
X0252839Y0485991D02*
X0199900Y0485991D01*
X0189300Y0469300D02*
X0219300Y0469300D01*
X0227115Y0479393D02*
X0229171Y0479393D01*
X0239429Y0479393D02*
X0250000Y0479393D01*
X0250000Y0472794D02*
X0247027Y0472794D01*
X0247132Y0466196D02*
X0250000Y0466196D01*
X0250000Y0459597D02*
X0244600Y0459597D01*
X0244600Y0459300D02*
X0239776Y0459300D01*
X0239776Y0459300D01*
X0244600Y0459300D01*
X0239776Y0459300D02*
X0239776Y0459300D01*
X0246972Y0452999D02*
X0250000Y0452999D01*
X0248911Y0446400D02*
X0247186Y0446400D01*
X0247600Y0439802D02*
X0248161Y0439802D01*
X0203161Y0400211D02*
X0184385Y0400211D01*
X0176140Y0393612D02*
X0207921Y0393612D01*
X0213988Y0387014D02*
X0012400Y0387014D01*
X0012400Y0393612D02*
X0112460Y0393612D01*
X0116140Y0393612D02*
X0172460Y0393612D01*
X0164215Y0400211D02*
X0124385Y0400211D01*
X0124809Y0406809D02*
X0163791Y0406809D01*
X0163500Y0413408D02*
X0125100Y0413408D01*
X0124292Y0420006D02*
X0164308Y0420006D01*
X0163737Y0426605D02*
X0124863Y0426605D01*
X0125100Y0433203D02*
X0163500Y0433203D01*
X0164426Y0439802D02*
X0158050Y0439802D01*
X0159600Y0444300D02*
X0154775Y0444300D01*
X0154776Y0444300D01*
X0159600Y0444300D01*
X0159295Y0446400D02*
X0163682Y0446400D01*
X0163500Y0452999D02*
X0162600Y0452999D01*
X0161478Y0459597D02*
X0164544Y0459597D01*
X0163627Y0466196D02*
X0162455Y0466196D01*
X0162560Y0472794D02*
X0163522Y0472794D01*
X0164662Y0479393D02*
X0161360Y0479393D01*
X0162510Y0485991D02*
X0163572Y0485991D01*
X0163577Y0492590D02*
X0162505Y0492590D01*
X0161371Y0499188D02*
X0164652Y0499188D01*
X0163517Y0505787D02*
X0162565Y0505787D01*
X0163632Y0512385D02*
X0159900Y0512385D01*
X0159900Y0518984D02*
X0164533Y0518984D01*
X0163500Y0525582D02*
X0159900Y0525582D01*
X0159900Y0532181D02*
X0163687Y0532181D01*
X0164415Y0538779D02*
X0160343Y0538779D01*
X0160439Y0545378D02*
X0163500Y0545378D01*
X0149300Y0544300D02*
X0149300Y0559300D01*
X0319300Y0559300D01*
X0319300Y0544300D01*
X0320000Y0532181D02*
X0297396Y0532181D01*
X0296607Y0538779D02*
X0308257Y0538779D01*
X0308161Y0545378D02*
X0294900Y0545378D01*
X0294494Y0525582D02*
X0320000Y0525582D01*
X0320000Y0518984D02*
X0307617Y0518984D01*
X0310439Y0512385D02*
X0320000Y0512385D01*
X0320000Y0505787D02*
X0310439Y0505787D01*
X0307070Y0499188D02*
X0320000Y0499188D01*
X0294600Y0524300D02*
X0289776Y0524300D01*
X0289776Y0524300D01*
X0294600Y0524300D01*
X0289776Y0524300D02*
X0289776Y0524300D01*
X0320000Y0571772D02*
X0073579Y0571772D01*
X0074600Y0578370D02*
X0145022Y0578370D01*
X0143300Y0584969D02*
X0074248Y0584969D01*
X0068848Y0591568D02*
X0141369Y0591568D01*
X0141673Y0598166D02*
X0055089Y0598166D01*
X0055439Y0599009D02*
X0055439Y0609591D01*
X0054900Y0610891D01*
X0054900Y0620504D01*
X0055626Y0621761D01*
X0055904Y0622798D01*
X0056067Y0622404D01*
X0056656Y0621384D01*
X0057373Y0620450D01*
X0058206Y0619617D01*
X0059140Y0618900D01*
X0060160Y0618311D01*
X0061248Y0617860D01*
X0062386Y0617555D01*
X0063554Y0617402D01*
X0064142Y0617402D01*
X0064142Y0631072D01*
X0064142Y0644742D01*
X0063554Y0644742D01*
X0062386Y0644588D01*
X0061248Y0644283D01*
X0060160Y0643832D01*
X0059140Y0643244D01*
X0058206Y0642526D01*
X0057373Y0641694D01*
X0056656Y0640759D01*
X0056067Y0639739D01*
X0055904Y0639345D01*
X0055626Y0640383D01*
X0054048Y0643116D01*
X0051816Y0645347D01*
X0049084Y0646925D01*
X0046035Y0647742D01*
X0042880Y0647742D01*
X0039831Y0646925D01*
X0037098Y0645347D01*
X0034867Y0643116D01*
X0033289Y0640383D01*
X0032472Y0637335D01*
X0032472Y0624809D01*
X0033289Y0621761D01*
X0033700Y0621049D01*
X0033700Y0610891D01*
X0033161Y0609591D01*
X0033161Y0599009D01*
X0034273Y0596326D01*
X0036326Y0594273D01*
X0039009Y0593161D01*
X0049591Y0593161D01*
X0052274Y0594273D01*
X0054327Y0596326D01*
X0055439Y0599009D01*
X0055439Y0604765D02*
X0141000Y0604765D01*
X0143797Y0611363D02*
X0054900Y0611363D01*
X0054900Y0617962D02*
X0061003Y0617962D01*
X0064142Y0617962D02*
X0064143Y0617962D01*
X0064143Y0617402D02*
X0064731Y0617402D01*
X0065899Y0617555D01*
X0067037Y0617860D01*
X0068125Y0618311D01*
X0069145Y0618900D01*
X0070079Y0619617D01*
X0070912Y0620450D01*
X0071629Y0621384D01*
X0072218Y0622404D01*
X0072669Y0623492D01*
X0072974Y0624630D01*
X0073128Y0625798D01*
X0073128Y0631072D01*
X0073128Y0636346D01*
X0072974Y0637513D01*
X0072669Y0638651D01*
X0072218Y0639739D01*
X0071629Y0640759D01*
X0070912Y0641694D01*
X0070079Y0642526D01*
X0069145Y0643244D01*
X0068125Y0643832D01*
X0067037Y0644283D01*
X0065899Y0644588D01*
X0064731Y0644742D01*
X0064143Y0644742D01*
X0064143Y0631072D01*
X0073128Y0631072D01*
X0064143Y0631072D01*
X0064143Y0631072D01*
X0064142Y0631072D01*
X0064143Y0631072D01*
X0064143Y0617402D01*
X0067282Y0617962D02*
X0090933Y0617962D01*
X0089867Y0619028D02*
X0092098Y0616796D01*
X0094831Y0615218D01*
X0097880Y0614402D01*
X0101035Y0614402D01*
X0104084Y0615218D01*
X0106816Y0616796D01*
X0109048Y0619028D01*
X0109300Y0619464D01*
X0109552Y0619028D01*
X0111784Y0616796D01*
X0114516Y0615218D01*
X0117565Y0614402D01*
X0120720Y0614402D01*
X0123769Y0615218D01*
X0126502Y0616796D01*
X0128733Y0619028D01*
X0130311Y0621761D01*
X0131128Y0624809D01*
X0131128Y0637335D01*
X0130311Y0640383D01*
X0128733Y0643116D01*
X0126502Y0645347D01*
X0123769Y0646925D01*
X0120720Y0647742D01*
X0117565Y0647742D01*
X0114516Y0646925D01*
X0111784Y0645347D01*
X0109552Y0643116D01*
X0109300Y0642679D01*
X0109048Y0643116D01*
X0106816Y0645347D01*
X0104084Y0646925D01*
X0101035Y0647742D01*
X0097880Y0647742D01*
X0094831Y0646925D01*
X0092098Y0645347D01*
X0089867Y0643116D01*
X0088289Y0640383D01*
X0087472Y0637335D01*
X0087472Y0624809D01*
X0088289Y0621761D01*
X0089867Y0619028D01*
X0087539Y0624560D02*
X0072955Y0624560D01*
X0073128Y0631159D02*
X0087472Y0631159D01*
X0087586Y0637757D02*
X0072909Y0637757D01*
X0064143Y0637757D02*
X0064142Y0637757D01*
X0064142Y0631159D02*
X0064143Y0631159D01*
X0064142Y0624560D02*
X0064143Y0624560D01*
X0064142Y0644356D02*
X0064143Y0644356D01*
X0066766Y0644356D02*
X0091107Y0644356D01*
X0107808Y0644356D02*
X0110792Y0644356D01*
X0127493Y0644356D02*
X0319000Y0644356D01*
X0319000Y0648656D02*
X0319000Y0639944D01*
X0319702Y0637324D01*
X0321058Y0634976D01*
X0322976Y0633058D01*
X0325324Y0631702D01*
X0327944Y0631000D01*
X0330656Y0631000D01*
X0333276Y0631702D01*
X0334300Y0632293D01*
X0335324Y0631702D01*
X0337944Y0631000D01*
X0340656Y0631000D01*
X0343276Y0631702D01*
X0344300Y0632293D01*
X0345324Y0631702D01*
X0347944Y0631000D01*
X0350656Y0631000D01*
X0353276Y0631702D01*
X0355624Y0633058D01*
X0356942Y0634375D01*
X0356948Y0634373D01*
X0357873Y0634125D01*
X0358822Y0634000D01*
X0359300Y0634000D01*
X0359778Y0634000D01*
X0360727Y0634125D01*
X0361652Y0634373D01*
X0362536Y0634739D01*
X0363364Y0635217D01*
X0364124Y0635800D01*
X0364800Y0636476D01*
X0365383Y0637236D01*
X0365861Y0638064D01*
X0366227Y0638948D01*
X0366475Y0639873D01*
X0366600Y0640822D01*
X0366600Y0644300D01*
X0366600Y0647778D01*
X0366475Y0648727D01*
X0366227Y0649652D01*
X0365861Y0650536D01*
X0365383Y0651364D01*
X0364800Y0652124D01*
X0364124Y0652800D01*
X0363364Y0653383D01*
X0362536Y0653861D01*
X0361652Y0654227D01*
X0360727Y0654475D01*
X0359778Y0654600D01*
X0359300Y0654600D01*
X0359300Y0649775D01*
X0359300Y0649776D01*
X0359300Y0654600D01*
X0358822Y0654600D01*
X0357873Y0654475D01*
X0356948Y0654227D01*
X0356942Y0654225D01*
X0355624Y0655542D01*
X0353276Y0656898D01*
X0350656Y0657600D01*
X0347944Y0657600D01*
X0345324Y0656898D01*
X0344300Y0656307D01*
X0343276Y0656898D01*
X0340656Y0657600D01*
X0337944Y0657600D01*
X0335324Y0656898D01*
X0334300Y0656307D01*
X0333276Y0656898D01*
X0330656Y0657600D01*
X0327944Y0657600D01*
X0325324Y0656898D01*
X0322976Y0655542D01*
X0321058Y0653624D01*
X0319702Y0651276D01*
X0319000Y0648656D01*
X0319616Y0650954D02*
X0012400Y0650954D01*
X0012400Y0644356D02*
X0036107Y0644356D01*
X0032586Y0637757D02*
X0012400Y0637757D01*
X0012400Y0631159D02*
X0032472Y0631159D01*
X0032539Y0624560D02*
X0012400Y0624560D01*
X0012400Y0617962D02*
X0033700Y0617962D01*
X0033700Y0611363D02*
X0012400Y0611363D01*
X0012400Y0604765D02*
X0033161Y0604765D01*
X0033511Y0598166D02*
X0012400Y0598166D01*
X0012400Y0591568D02*
X0039752Y0591568D01*
X0034352Y0584969D02*
X0012400Y0584969D01*
X0012400Y0578370D02*
X0034000Y0578370D01*
X0035021Y0571772D02*
X0012400Y0571772D01*
X0012400Y0565173D02*
X0053403Y0565173D01*
X0054300Y0569000D02*
X0054300Y0573824D01*
X0054300Y0573824D01*
X0054300Y0569000D01*
X0054300Y0571772D02*
X0054300Y0571772D01*
X0054300Y0573824D02*
X0054300Y0573824D01*
X0054300Y0584776D02*
X0054300Y0584776D01*
X0054300Y0584776D01*
X0054300Y0584969D02*
X0054300Y0584969D01*
X0048848Y0591568D02*
X0059752Y0591568D01*
X0044300Y0604300D02*
X0044300Y0631072D01*
X0044457Y0631072D01*
X0052808Y0644356D02*
X0061519Y0644356D01*
X0040473Y0670750D02*
X0716159Y0670750D01*
X0724911Y0650954D02*
X0744231Y0650954D01*
X0744231Y0644356D02*
X0729413Y0644356D01*
X0729884Y0637757D02*
X0744231Y0637757D01*
X0744231Y0631159D02*
X0729815Y0631159D01*
X0729746Y0624560D02*
X0744231Y0624560D01*
X0744231Y0617962D02*
X0729743Y0617962D01*
X0729743Y0611363D02*
X0744231Y0611363D01*
X0744231Y0604765D02*
X0730867Y0604765D01*
X0731128Y0598166D02*
X0744231Y0598166D01*
X0744231Y0591568D02*
X0731128Y0591568D01*
X0728218Y0584969D02*
X0744231Y0584969D01*
X0744231Y0578370D02*
X0483600Y0578370D01*
X0483600Y0571772D02*
X0506173Y0571772D01*
X0501200Y0565173D02*
X0483600Y0565173D01*
X0481727Y0558575D02*
X0501200Y0558575D01*
X0483600Y0584969D02*
X0560126Y0584969D01*
X0564457Y0584969D02*
X0564458Y0584969D01*
X0568789Y0584969D02*
X0575067Y0584969D01*
X0564458Y0591568D02*
X0564457Y0591568D01*
X0555563Y0591568D02*
X0483600Y0591568D01*
X0483600Y0598166D02*
X0555472Y0598166D01*
X0555839Y0604765D02*
X0483600Y0604765D01*
X0448161Y0631159D02*
X0401248Y0631159D01*
X0400656Y0631000D02*
X0403276Y0631702D01*
X0405624Y0633058D01*
X0407542Y0634976D01*
X0408898Y0637324D01*
X0409600Y0639944D01*
X0409600Y0648656D01*
X0408898Y0651276D01*
X0407542Y0653624D01*
X0405624Y0655542D01*
X0403276Y0656898D01*
X0400656Y0657600D01*
X0397944Y0657600D01*
X0395324Y0656898D01*
X0392976Y0655542D01*
X0391658Y0654225D01*
X0391652Y0654227D01*
X0390727Y0654475D01*
X0389778Y0654600D01*
X0389300Y0654600D01*
X0389300Y0649776D01*
X0389300Y0654600D01*
X0388822Y0654600D01*
X0387873Y0654475D01*
X0386948Y0654227D01*
X0386942Y0654225D01*
X0385624Y0655542D01*
X0383276Y0656898D01*
X0380656Y0657600D01*
X0377944Y0657600D01*
X0375324Y0656898D01*
X0372976Y0655542D01*
X0371058Y0653624D01*
X0369702Y0651276D01*
X0369000Y0648656D01*
X0369000Y0639944D01*
X0369702Y0637324D01*
X0371058Y0634976D01*
X0372976Y0633058D01*
X0375324Y0631702D01*
X0377944Y0631000D01*
X0380656Y0631000D01*
X0383276Y0631702D01*
X0385624Y0633058D01*
X0386942Y0634375D01*
X0386948Y0634373D01*
X0387873Y0634125D01*
X0388822Y0634000D01*
X0389300Y0634000D01*
X0389778Y0634000D01*
X0390727Y0634125D01*
X0391652Y0634373D01*
X0391658Y0634375D01*
X0392976Y0633058D01*
X0395324Y0631702D01*
X0397944Y0631000D01*
X0400656Y0631000D01*
X0397352Y0631159D02*
X0381248Y0631159D01*
X0377352Y0631159D02*
X0351248Y0631159D01*
X0347352Y0631159D02*
X0341248Y0631159D01*
X0337352Y0631159D02*
X0331248Y0631159D01*
X0327352Y0631159D02*
X0131128Y0631159D01*
X0131014Y0637757D02*
X0319586Y0637757D01*
X0327767Y0657553D02*
X0012400Y0657553D01*
X0012400Y0664151D02*
X0438161Y0664151D01*
X0438161Y0657553D02*
X0400833Y0657553D01*
X0397767Y0657553D02*
X0380833Y0657553D01*
X0377767Y0657553D02*
X0350833Y0657553D01*
X0347767Y0657553D02*
X0340833Y0657553D01*
X0337767Y0657553D02*
X0330833Y0657553D01*
X0359300Y0650954D02*
X0359300Y0650954D01*
X0365620Y0650954D02*
X0369616Y0650954D01*
X0369000Y0644356D02*
X0366600Y0644356D01*
X0366600Y0644300D02*
X0359600Y0644300D01*
X0359600Y0644300D01*
X0366600Y0644300D01*
X0365684Y0637757D02*
X0369586Y0637757D01*
X0359300Y0637757D02*
X0359300Y0637757D01*
X0359300Y0638824D02*
X0359300Y0638825D01*
X0359300Y0634000D01*
X0359300Y0638824D01*
X0389300Y0638824D02*
X0389300Y0638824D01*
X0389300Y0634000D01*
X0389300Y0638824D01*
X0389300Y0638824D01*
X0389300Y0637757D02*
X0389300Y0637757D01*
X0389300Y0649776D02*
X0389300Y0649776D01*
X0389300Y0649776D01*
X0389300Y0650954D02*
X0389300Y0650954D01*
X0408984Y0650954D02*
X0439645Y0650954D01*
X0449756Y0637757D02*
X0409014Y0637757D01*
X0409600Y0644356D02*
X0584187Y0644356D01*
X0584300Y0619300D02*
X0154300Y0619300D01*
X0142866Y0617962D02*
X0127667Y0617962D01*
X0131061Y0624560D02*
X0142866Y0624560D01*
X0167600Y0604765D02*
X0428161Y0604765D01*
X0326402Y0598166D02*
X0166927Y0598166D01*
X0167231Y0591568D02*
X0180940Y0591568D01*
X0180754Y0591490D02*
X0179846Y0590966D01*
X0179014Y0590328D01*
X0178272Y0589586D01*
X0177634Y0588754D01*
X0177110Y0587846D01*
X0176708Y0586877D01*
X0176437Y0585864D01*
X0176300Y0584824D01*
X0176300Y0584300D01*
X0184300Y0584300D01*
X0192300Y0584300D01*
X0192300Y0584824D01*
X0192163Y0585864D01*
X0191892Y0586877D01*
X0191490Y0587846D01*
X0190966Y0588754D01*
X0190328Y0589586D01*
X0189586Y0590328D01*
X0188754Y0590966D01*
X0187846Y0591490D01*
X0186877Y0591892D01*
X0185864Y0592163D01*
X0184824Y0592300D01*
X0184300Y0592300D01*
X0184300Y0584300D01*
X0184300Y0584300D01*
X0184300Y0584300D01*
X0192300Y0584300D01*
X0192300Y0583776D01*
X0192163Y0582736D01*
X0191892Y0581723D01*
X0191490Y0580754D01*
X0190966Y0579846D01*
X0190328Y0579014D01*
X0189586Y0578272D01*
X0188754Y0577634D01*
X0187846Y0577110D01*
X0186877Y0576708D01*
X0185864Y0576437D01*
X0184824Y0576300D01*
X0184300Y0576300D01*
X0184300Y0584300D01*
X0184300Y0584300D01*
X0184300Y0584300D01*
X0184300Y0592300D01*
X0183776Y0592300D01*
X0182736Y0592163D01*
X0181723Y0591892D01*
X0180754Y0591490D01*
X0184300Y0591568D02*
X0184300Y0591568D01*
X0187660Y0591568D02*
X0320173Y0591568D01*
X0320000Y0584969D02*
X0192281Y0584969D01*
X0189684Y0578370D02*
X0320000Y0578370D01*
X0184300Y0578370D02*
X0184300Y0578370D01*
X0184300Y0576300D02*
X0184300Y0584300D01*
X0176300Y0584300D01*
X0176300Y0583776D01*
X0176437Y0582736D01*
X0176708Y0581723D01*
X0177110Y0580754D01*
X0177634Y0579846D01*
X0178272Y0579014D01*
X0179014Y0578272D01*
X0179846Y0577634D01*
X0180754Y0577110D01*
X0181723Y0576708D01*
X0182736Y0576437D01*
X0183776Y0576300D01*
X0184300Y0576300D01*
X0178916Y0578370D02*
X0163578Y0578370D01*
X0165300Y0584969D02*
X0176319Y0584969D01*
X0184300Y0584969D02*
X0184300Y0584969D01*
X0149300Y0559300D02*
X0064300Y0559300D01*
X0053161Y0558575D02*
X0012400Y0558575D01*
X0012400Y0551976D02*
X0054003Y0551976D01*
X0053242Y0545378D02*
X0055358Y0545378D01*
X0072927Y0545378D02*
X0103500Y0545378D01*
X0104415Y0538779D02*
X0076128Y0538779D01*
X0076128Y0532181D02*
X0103687Y0532181D01*
X0103500Y0525582D02*
X0075945Y0525582D01*
X0072232Y0518984D02*
X0104898Y0518984D01*
X0106738Y0512385D02*
X0012400Y0512385D01*
X0012400Y0505787D02*
X0103517Y0505787D01*
X0104652Y0499188D02*
X0012400Y0499188D01*
X0012400Y0492590D02*
X0103577Y0492590D01*
X0103572Y0485991D02*
X0055175Y0485991D01*
X0055542Y0485624D02*
X0053624Y0487542D01*
X0051276Y0488898D01*
X0048656Y0489600D01*
X0039944Y0489600D01*
X0037324Y0488898D01*
X0034976Y0487542D01*
X0033058Y0485624D01*
X0031702Y0483276D01*
X0031000Y0480656D01*
X0031000Y0477944D01*
X0031702Y0475324D01*
X0032293Y0474300D01*
X0031702Y0473276D01*
X0031000Y0470656D01*
X0031000Y0467944D01*
X0031702Y0465324D01*
X0033058Y0462976D01*
X0034976Y0461058D01*
X0037324Y0459702D01*
X0039368Y0459154D01*
X0037546Y0458102D01*
X0035498Y0456054D01*
X0034050Y0453546D01*
X0033300Y0450748D01*
X0033300Y0447852D01*
X0034050Y0445054D01*
X0035498Y0442546D01*
X0037546Y0440498D01*
X0040054Y0439050D01*
X0042852Y0438300D01*
X0045748Y0438300D01*
X0048546Y0439050D01*
X0051054Y0440498D01*
X0053102Y0442546D01*
X0054550Y0445054D01*
X0055300Y0447852D01*
X0055300Y0450748D01*
X0054550Y0453546D01*
X0053102Y0456054D01*
X0051054Y0458102D01*
X0049232Y0459154D01*
X0051276Y0459702D01*
X0053624Y0461058D01*
X0055542Y0462976D01*
X0056898Y0465324D01*
X0057600Y0467944D01*
X0057600Y0470656D01*
X0056898Y0473276D01*
X0056307Y0474300D01*
X0056898Y0475324D01*
X0057600Y0477944D01*
X0057600Y0480656D01*
X0056898Y0483276D01*
X0055542Y0485624D01*
X0057600Y0479393D02*
X0104662Y0479393D01*
X0103522Y0472794D02*
X0057027Y0472794D01*
X0057132Y0466196D02*
X0103627Y0466196D01*
X0104544Y0459597D02*
X0050885Y0459597D01*
X0054697Y0452999D02*
X0103500Y0452999D01*
X0103682Y0446400D02*
X0054911Y0446400D01*
X0049849Y0439802D02*
X0104426Y0439802D01*
X0103500Y0433203D02*
X0012400Y0433203D01*
X0012400Y0426605D02*
X0041030Y0426605D01*
X0040754Y0426490D02*
X0039846Y0425966D01*
X0039014Y0425328D01*
X0038272Y0424586D01*
X0037634Y0423754D01*
X0037110Y0422846D01*
X0036708Y0421877D01*
X0036437Y0420864D01*
X0036300Y0419824D01*
X0036300Y0419300D01*
X0044300Y0419300D01*
X0044300Y0419300D01*
X0044300Y0427300D01*
X0044824Y0427300D01*
X0045864Y0427163D01*
X0046877Y0426892D01*
X0047846Y0426490D01*
X0048754Y0425966D01*
X0049586Y0425328D01*
X0050328Y0424586D01*
X0050966Y0423754D01*
X0051490Y0422846D01*
X0051892Y0421877D01*
X0052163Y0420864D01*
X0052300Y0419824D01*
X0052300Y0419300D01*
X0044300Y0419300D01*
X0044300Y0419300D01*
X0044300Y0419300D01*
X0044300Y0427300D01*
X0043776Y0427300D01*
X0042736Y0427163D01*
X0041723Y0426892D01*
X0040754Y0426490D01*
X0044300Y0426605D02*
X0044300Y0426605D01*
X0047570Y0426605D02*
X0103737Y0426605D01*
X0104308Y0420006D02*
X0052276Y0420006D01*
X0052300Y0419300D02*
X0044300Y0419300D01*
X0044300Y0411300D01*
X0044824Y0411300D01*
X0045864Y0411437D01*
X0046877Y0411708D01*
X0047846Y0412110D01*
X0048754Y0412634D01*
X0049586Y0413272D01*
X0050328Y0414014D01*
X0050966Y0414846D01*
X0051490Y0415754D01*
X0051892Y0416723D01*
X0052163Y0417736D01*
X0052300Y0418776D01*
X0052300Y0419300D01*
X0049721Y0413408D02*
X0103500Y0413408D01*
X0103791Y0406809D02*
X0012400Y0406809D01*
X0012400Y0400211D02*
X0104215Y0400211D01*
X0124174Y0439802D02*
X0140550Y0439802D01*
X0149300Y0439802D02*
X0149300Y0439802D01*
X0149300Y0437000D02*
X0149300Y0444000D01*
X0149300Y0444000D01*
X0149300Y0437000D01*
X0189300Y0414300D02*
X0189300Y0469300D01*
X0189300Y0534300D01*
X0149300Y0544300D02*
X0149300Y0504300D01*
X0110021Y0514300D02*
X0110020Y0514300D01*
X0110021Y0514300D01*
X0056053Y0518984D02*
X0052547Y0518984D01*
X0036367Y0518984D02*
X0012400Y0518984D01*
X0012400Y0525582D02*
X0032655Y0525582D01*
X0032472Y0532181D02*
X0012400Y0532181D01*
X0012400Y0538779D02*
X0032472Y0538779D01*
X0035673Y0545378D02*
X0012400Y0545378D01*
X0012400Y0485991D02*
X0033425Y0485991D01*
X0031000Y0479393D02*
X0012400Y0479393D01*
X0012400Y0472794D02*
X0031573Y0472794D01*
X0031468Y0466196D02*
X0012400Y0466196D01*
X0012400Y0459597D02*
X0037715Y0459597D01*
X0033903Y0452999D02*
X0012400Y0452999D01*
X0012400Y0446400D02*
X0033689Y0446400D01*
X0038751Y0439802D02*
X0012400Y0439802D01*
X0012400Y0420006D02*
X0036324Y0420006D01*
X0036300Y0419300D02*
X0036300Y0418776D01*
X0036437Y0417736D01*
X0036708Y0416723D01*
X0037110Y0415754D01*
X0037634Y0414846D01*
X0038272Y0414014D01*
X0039014Y0413272D01*
X0039846Y0412634D01*
X0040754Y0412110D01*
X0041723Y0411708D01*
X0042736Y0411437D01*
X0043776Y0411300D01*
X0044300Y0411300D01*
X0044300Y0419300D01*
X0044300Y0419300D01*
X0036300Y0419300D01*
X0038879Y0413408D02*
X0012400Y0413408D01*
X0044300Y0413408D02*
X0044300Y0413408D01*
X0044300Y0420006D02*
X0044300Y0420006D01*
X0102286Y0347423D02*
X0149422Y0347423D01*
X0148161Y0340824D02*
X0102275Y0340824D01*
X0097808Y0334226D02*
X0148161Y0334226D01*
X0158161Y0327627D02*
X0102315Y0327627D01*
X0102246Y0321029D02*
X0159571Y0321029D01*
X0135477Y0307832D02*
X0113123Y0307832D01*
X0117445Y0301233D02*
X0131155Y0301233D01*
X0132100Y0294634D02*
X0116500Y0294634D01*
X0117600Y0288036D02*
X0131000Y0288036D01*
X0131209Y0281437D02*
X0117391Y0281437D01*
X0116618Y0274839D02*
X0131982Y0274839D01*
X0134076Y0268240D02*
X0114523Y0268240D01*
X0114600Y0269300D02*
X0109776Y0269300D01*
X0109776Y0269300D01*
X0114600Y0269300D01*
X0109776Y0269300D02*
X0109776Y0269300D01*
X0117336Y0261642D02*
X0131264Y0261642D01*
X0131864Y0255043D02*
X0116736Y0255043D01*
X0117600Y0248445D02*
X0131000Y0248445D01*
X0134187Y0241846D02*
X0114413Y0241846D01*
X0094187Y0241846D02*
X0012400Y0241846D01*
X0012400Y0248445D02*
X0091000Y0248445D01*
X0091864Y0255043D02*
X0012400Y0255043D01*
X0012400Y0261642D02*
X0091264Y0261642D01*
X0094076Y0268240D02*
X0012400Y0268240D01*
X0012400Y0274839D02*
X0091982Y0274839D01*
X0091209Y0281437D02*
X0012400Y0281437D01*
X0012400Y0288036D02*
X0091000Y0288036D01*
X0092100Y0294634D02*
X0012400Y0294634D01*
X0012400Y0301233D02*
X0091155Y0301233D01*
X0098824Y0269300D02*
X0098824Y0269300D01*
X0098824Y0269300D01*
X0138824Y0269300D02*
X0138824Y0269300D01*
X0138824Y0269300D01*
X0121072Y0195657D02*
X0121072Y0195657D01*
X0503633Y0321029D02*
X0744231Y0321029D01*
X0744231Y0301233D02*
X0737072Y0301233D01*
X0740902Y0294634D02*
X0744231Y0294634D01*
X0744231Y0288036D02*
X0741128Y0288036D01*
X0741128Y0281437D02*
X0744231Y0281437D01*
X0744231Y0274839D02*
X0739743Y0274839D01*
X0737884Y0268240D02*
X0744231Y0268240D01*
X0744231Y0261642D02*
X0729900Y0261642D01*
X0729600Y0255043D02*
X0744231Y0255043D01*
X0744231Y0248445D02*
X0726011Y0248445D01*
X0719300Y0259300D02*
X0719300Y0274300D01*
X0729143Y0274300D01*
X0729143Y0287528D01*
X0721213Y0301233D02*
X0717387Y0301233D01*
X0709457Y0287528D02*
X0709457Y0279300D01*
X0709300Y0269300D01*
X0709300Y0259300D01*
X0744231Y0241846D02*
X0561900Y0241846D01*
X0561198Y0235248D02*
X0744231Y0235248D01*
X0701528Y0301233D02*
X0642072Y0301233D01*
X0626213Y0301233D02*
X0622387Y0301233D01*
X0554300Y0241846D02*
X0554300Y0241846D01*
X0554300Y0235248D02*
X0554300Y0235248D01*
X0594776Y0149300D02*
X0594776Y0149300D01*
X0574300Y0116475D02*
X0574300Y0116475D01*
X0593218Y0584969D02*
X0615382Y0584969D01*
X0612472Y0591568D02*
X0596128Y0591568D01*
X0596128Y0598166D02*
X0612472Y0598166D01*
X0612733Y0604765D02*
X0595867Y0604765D01*
X0594900Y0611363D02*
X0613857Y0611363D01*
X0603595Y0617962D02*
X0594900Y0617962D01*
X0584300Y0619300D02*
X0584300Y0597528D01*
X0584143Y0597528D01*
X0614300Y0624300D02*
X0614300Y0639300D01*
X0624457Y0624300D02*
X0624457Y0597528D01*
X0633533Y0584969D02*
X0635067Y0584969D01*
X0644143Y0597528D02*
X0644143Y0624300D01*
X0644300Y0639300D01*
X0634300Y0639300D02*
X0634300Y0624300D01*
X0624457Y0624300D01*
X0654746Y0624560D02*
X0678161Y0624560D01*
X0678595Y0617962D02*
X0654743Y0617962D01*
X0654743Y0611363D02*
X0688857Y0611363D01*
X0687733Y0604765D02*
X0655867Y0604765D01*
X0656128Y0598166D02*
X0687472Y0598166D01*
X0687472Y0591568D02*
X0656128Y0591568D01*
X0653218Y0584969D02*
X0690382Y0584969D01*
X0699457Y0597528D02*
X0699457Y0624300D01*
X0709300Y0624300D01*
X0709300Y0639300D01*
X0719300Y0639300D02*
X0719143Y0624300D01*
X0719143Y0597528D01*
X0710067Y0584969D02*
X0708533Y0584969D01*
X0689300Y0624300D02*
X0689300Y0639300D01*
X0699300Y0644776D02*
X0699300Y0644776D01*
X0699300Y0644776D01*
X0694911Y0650954D02*
X0703689Y0650954D01*
X0688600Y0657553D02*
X0744231Y0657553D01*
X0744231Y0664151D02*
X0687357Y0664151D01*
X0659187Y0644356D02*
X0654413Y0644356D01*
X0654884Y0637757D02*
X0659000Y0637757D01*
X0660375Y0631159D02*
X0654815Y0631159D01*
X0601341Y0677348D02*
X0157259Y0677348D01*
X0157400Y0683947D02*
X0601200Y0683947D01*
X0601200Y0690545D02*
X0157400Y0690545D01*
X0157400Y0697144D02*
X0601200Y0697144D01*
X0601200Y0703742D02*
X0157400Y0703742D01*
X0110618Y0617962D02*
X0107982Y0617962D01*
D18*
X0064300Y0559300D03*
X0044300Y0604300D03*
X0149300Y0544300D03*
X0129300Y0494300D03*
X0129300Y0484300D03*
X0129300Y0474300D03*
X0129300Y0464300D03*
X0129300Y0454300D03*
X0189300Y0414300D03*
X0204300Y0414300D03*
X0214300Y0404300D03*
X0224300Y0394300D03*
X0259300Y0439300D03*
X0249300Y0459300D03*
X0219300Y0449300D03*
X0219300Y0469300D03*
X0219300Y0504300D03*
X0204300Y0514300D03*
X0249300Y0509300D03*
X0269300Y0504300D03*
X0299300Y0509300D03*
X0319300Y0544300D03*
X0374300Y0474300D03*
X0374300Y0464300D03*
X0374300Y0454300D03*
X0469300Y0529300D03*
X0479300Y0519300D03*
X0429300Y0579300D03*
X0439300Y0589300D03*
X0439300Y0604300D03*
X0459300Y0629300D03*
X0449300Y0659300D03*
X0419300Y0639300D03*
X0614300Y0624300D03*
X0689300Y0624300D03*
X0479300Y0369300D03*
X0619300Y0204300D03*
X0554300Y0069300D03*
X0249300Y0309300D03*
X0169300Y0329300D03*
X0159300Y0339300D03*
X0054300Y0374300D03*
X0159300Y0204300D03*
X0144300Y0134300D03*
X0214300Y0604300D03*
D19*
X0234300Y0514300D02*
X0249300Y0509300D01*
X0234300Y0504300D02*
X0219300Y0504300D01*
X0259300Y0479300D02*
X0259300Y0439300D01*
X0274300Y0449300D02*
X0289300Y0449300D01*
X0289300Y0469300D01*
X0339300Y0469300D01*
X0339300Y0579300D01*
X0429300Y0579300D01*
X0439300Y0589300D02*
X0329300Y0589300D01*
X0329300Y0479300D01*
X0259300Y0479300D01*
X0269300Y0504300D02*
X0284300Y0504300D01*
X0284300Y0514300D02*
X0299300Y0509300D01*
X0299300Y0459300D02*
X0349300Y0459300D01*
X0349300Y0474300D01*
X0374300Y0474300D01*
X0374300Y0464300D02*
X0359300Y0464300D01*
X0359300Y0449300D01*
X0309300Y0449300D01*
X0309300Y0404300D01*
X0214300Y0404300D01*
X0224300Y0394300D02*
X0319300Y0394300D01*
X0319300Y0439300D01*
X0369300Y0439300D01*
X0369300Y0454300D01*
X0374300Y0454300D01*
X0434300Y0389300D02*
X0434300Y0519300D01*
X0479300Y0519300D01*
X0469300Y0529300D02*
X0424300Y0529300D01*
X0424300Y0379300D01*
X0489300Y0379300D01*
X0489300Y0339300D01*
X0159300Y0339300D01*
X0169300Y0329300D02*
X0499300Y0329300D01*
X0499300Y0389300D01*
X0434300Y0389300D01*
X0414300Y0369300D02*
X0479300Y0369300D01*
X0414300Y0369300D02*
X0414300Y0564300D01*
X0474300Y0564300D01*
X0474300Y0604300D01*
X0439300Y0604300D01*
X0459300Y0629300D02*
X0604300Y0629300D01*
X0604300Y0639300D01*
X0679300Y0639300D02*
X0679300Y0659300D01*
X0449300Y0659300D01*
X0299300Y0459300D02*
X0299300Y0414300D01*
X0204300Y0414300D01*
X0219300Y0429300D02*
X0289300Y0429300D01*
X0289300Y0449300D01*
X0219300Y0449300D02*
X0219300Y0429300D01*
X0149300Y0454300D02*
X0129300Y0454300D01*
X0129300Y0464300D02*
X0149300Y0464300D01*
X0149300Y0474300D02*
X0129300Y0474300D01*
X0129300Y0484300D02*
X0149300Y0484300D01*
X0149300Y0494300D02*
X0129300Y0494300D01*
D20*
X0154300Y0619300D03*
M02*
