G75*
%MOIN*%
%OFA0B0*%
%FSLAX25Y25*%
%IPPOS*%
%LPD*%
%AMOC8*
5,1,8,0,0,1.08239X$1,22.5*
%
%ADD10C,0.06000*%
%ADD11C,0.07400*%
%ADD12OC8,0.07400*%
%ADD13C,0.07000*%
%ADD14C,0.09370*%
%ADD15C,0.06600*%
%ADD16R,0.07677X0.07677*%
%ADD17C,0.04000*%
%ADD18R,0.08268X0.08268*%
D10*
X0171300Y0119300D02*
X0177300Y0119300D01*
X0177300Y0129300D02*
X0171300Y0129300D01*
X0171300Y0139300D02*
X0177300Y0139300D01*
X0177300Y0149300D02*
X0171300Y0149300D01*
X0147300Y0164300D02*
X0141300Y0164300D01*
X0141300Y0174300D02*
X0147300Y0174300D01*
X0147300Y0184300D02*
X0141300Y0184300D01*
X0141300Y0249300D02*
X0147300Y0249300D01*
X0147300Y0259300D02*
X0141300Y0259300D01*
X0141300Y0269300D02*
X0147300Y0269300D01*
X0147300Y0279300D02*
X0141300Y0279300D01*
X0141300Y0289300D02*
X0147300Y0289300D01*
X0147300Y0299300D02*
X0141300Y0299300D01*
X0107300Y0299300D02*
X0101300Y0299300D01*
X0101300Y0289300D02*
X0107300Y0289300D01*
X0107300Y0279300D02*
X0101300Y0279300D01*
X0101300Y0269300D02*
X0107300Y0269300D01*
X0107300Y0259300D02*
X0101300Y0259300D01*
X0101300Y0249300D02*
X0107300Y0249300D01*
X0204300Y0082300D02*
X0204300Y0076300D01*
X0214300Y0076300D02*
X0214300Y0082300D01*
X0224300Y0082300D02*
X0224300Y0076300D01*
X0234300Y0076300D02*
X0234300Y0082300D01*
X0521300Y0269300D02*
X0527300Y0269300D01*
X0527300Y0279300D02*
X0521300Y0279300D01*
X0584300Y0262300D02*
X0584300Y0256300D01*
X0594300Y0256300D02*
X0594300Y0262300D01*
X0604300Y0262300D02*
X0604300Y0256300D01*
X0614300Y0256300D02*
X0614300Y0262300D01*
X0624300Y0262300D02*
X0624300Y0256300D01*
X0634300Y0256300D02*
X0634300Y0262300D01*
X0669300Y0262300D02*
X0669300Y0256300D01*
X0679300Y0256300D02*
X0679300Y0262300D01*
X0689300Y0262300D02*
X0689300Y0256300D01*
X0699300Y0256300D02*
X0699300Y0262300D01*
X0709300Y0262300D02*
X0709300Y0256300D01*
X0719300Y0256300D02*
X0719300Y0262300D01*
X0592300Y0159300D02*
X0586300Y0159300D01*
X0586300Y0149300D02*
X0592300Y0149300D01*
X0592300Y0139300D02*
X0586300Y0139300D01*
X0577300Y0114300D02*
X0571300Y0114300D01*
X0571300Y0104300D02*
X0577300Y0104300D01*
X0577300Y0094300D02*
X0571300Y0094300D01*
X0571300Y0084300D02*
X0577300Y0084300D01*
X0554300Y0037300D02*
X0554300Y0031300D01*
X0544300Y0031300D02*
X0544300Y0037300D01*
X0534300Y0037300D02*
X0534300Y0031300D01*
X0524300Y0031300D02*
X0524300Y0037300D01*
X0277300Y0439300D02*
X0271300Y0439300D01*
X0271300Y0449300D02*
X0277300Y0449300D01*
X0277300Y0459300D02*
X0271300Y0459300D01*
X0271300Y0469300D02*
X0277300Y0469300D01*
X0281300Y0504300D02*
X0287300Y0504300D01*
X0287300Y0514300D02*
X0281300Y0514300D01*
X0281300Y0524300D02*
X0287300Y0524300D01*
X0287300Y0534300D02*
X0281300Y0534300D01*
X0237300Y0534300D02*
X0231300Y0534300D01*
X0231300Y0524300D02*
X0237300Y0524300D01*
X0237300Y0514300D02*
X0231300Y0514300D01*
X0231300Y0504300D02*
X0237300Y0504300D01*
X0237300Y0469300D02*
X0231300Y0469300D01*
X0231300Y0459300D02*
X0237300Y0459300D01*
X0237300Y0449300D02*
X0231300Y0449300D01*
X0231300Y0439300D02*
X0237300Y0439300D01*
X0152300Y0444300D02*
X0146300Y0444300D01*
X0146300Y0454300D02*
X0152300Y0454300D01*
X0152300Y0464300D02*
X0146300Y0464300D01*
X0146300Y0474300D02*
X0152300Y0474300D01*
X0152300Y0484300D02*
X0146300Y0484300D01*
X0146300Y0494300D02*
X0152300Y0494300D01*
X0152300Y0504300D02*
X0146300Y0504300D01*
X0064300Y0576300D02*
X0064300Y0582300D01*
X0054300Y0582300D02*
X0054300Y0576300D01*
X0044300Y0576300D02*
X0044300Y0582300D01*
X0151300Y0594300D02*
X0157300Y0594300D01*
X0157300Y0604300D02*
X0151300Y0604300D01*
X0047300Y0479300D02*
X0041300Y0479300D01*
X0041300Y0469300D02*
X0047300Y0469300D01*
X0329300Y0641300D02*
X0329300Y0647300D01*
X0339300Y0647300D02*
X0339300Y0641300D01*
X0349300Y0641300D02*
X0349300Y0647300D01*
X0359300Y0647300D02*
X0359300Y0641300D01*
X0379300Y0641300D02*
X0379300Y0647300D01*
X0389300Y0647300D02*
X0389300Y0641300D01*
X0399300Y0641300D02*
X0399300Y0647300D01*
X0594300Y0642300D02*
X0594300Y0636300D01*
X0604300Y0636300D02*
X0604300Y0642300D01*
X0614300Y0642300D02*
X0614300Y0636300D01*
X0624300Y0636300D02*
X0624300Y0642300D01*
X0634300Y0642300D02*
X0634300Y0636300D01*
X0644300Y0636300D02*
X0644300Y0642300D01*
X0669300Y0642300D02*
X0669300Y0636300D01*
X0679300Y0636300D02*
X0679300Y0642300D01*
X0689300Y0642300D02*
X0689300Y0636300D01*
X0699300Y0636300D02*
X0699300Y0642300D01*
X0709300Y0642300D02*
X0709300Y0636300D01*
X0719300Y0636300D02*
X0719300Y0642300D01*
D11*
X0695300Y0544300D03*
X0685300Y0544300D03*
X0675300Y0544300D03*
X0665300Y0544300D03*
X0655300Y0544300D03*
X0645300Y0544300D03*
X0635300Y0544300D03*
X0625300Y0544300D03*
X0615300Y0544300D03*
X0605300Y0544300D03*
X0589300Y0544300D03*
X0579300Y0544300D03*
X0569300Y0544300D03*
X0559300Y0544300D03*
X0549300Y0544300D03*
X0539300Y0544300D03*
X0529300Y0544300D03*
X0519300Y0544300D03*
X0499300Y0544300D03*
X0489300Y0544300D03*
X0479300Y0544300D03*
X0469300Y0544300D03*
X0459300Y0544300D03*
X0449300Y0544300D03*
X0439300Y0544300D03*
X0429300Y0544300D03*
X0399300Y0544300D03*
X0389300Y0544300D03*
X0389300Y0374300D03*
X0399300Y0374300D03*
X0409300Y0354300D03*
X0419300Y0354300D03*
X0429300Y0354300D03*
X0439300Y0354300D03*
X0449300Y0354300D03*
X0459300Y0354300D03*
X0469300Y0354300D03*
X0479300Y0354300D03*
X0519300Y0354300D03*
X0529300Y0354300D03*
X0539300Y0354300D03*
X0549300Y0354300D03*
X0559300Y0354300D03*
X0569300Y0354300D03*
X0589300Y0354300D03*
X0599300Y0354300D03*
X0609300Y0354300D03*
X0619300Y0354300D03*
X0629300Y0354300D03*
X0639300Y0354300D03*
X0649300Y0354300D03*
X0659300Y0354300D03*
X0554300Y0239300D03*
X0524300Y0239300D03*
X0184300Y0584300D03*
X0154300Y0584300D03*
X0044300Y0449300D03*
X0044300Y0419300D03*
D12*
X0389300Y0414300D03*
X0389300Y0404300D03*
X0399300Y0404300D03*
X0399300Y0414300D03*
X0399300Y0424300D03*
X0399300Y0434300D03*
X0399300Y0444300D03*
X0389300Y0444300D03*
X0389300Y0434300D03*
X0389300Y0424300D03*
X0389300Y0454300D03*
X0389300Y0464300D03*
X0389300Y0474300D03*
X0399300Y0474300D03*
X0399300Y0464300D03*
X0399300Y0454300D03*
X0399300Y0484300D03*
X0399300Y0494300D03*
X0389300Y0494300D03*
X0389300Y0484300D03*
X0389300Y0504300D03*
X0389300Y0514300D03*
X0389300Y0524300D03*
X0399300Y0524300D03*
X0399300Y0514300D03*
X0399300Y0504300D03*
X0399300Y0534300D03*
X0389300Y0534300D03*
X0389300Y0394300D03*
X0389300Y0384300D03*
X0399300Y0384300D03*
X0399300Y0394300D03*
D13*
X0174300Y0404300D03*
X0174300Y0414300D03*
X0174300Y0424300D03*
X0174300Y0434300D03*
X0174300Y0444300D03*
X0174300Y0454300D03*
X0174300Y0464300D03*
X0174300Y0474300D03*
X0174300Y0484300D03*
X0174300Y0494300D03*
X0174300Y0504300D03*
X0174300Y0514300D03*
X0174300Y0524300D03*
X0174300Y0534300D03*
X0174300Y0544300D03*
X0114300Y0544300D03*
X0114300Y0534300D03*
X0114300Y0524300D03*
X0114300Y0514300D03*
X0114300Y0504300D03*
X0114300Y0494300D03*
X0114300Y0484300D03*
X0114300Y0474300D03*
X0114300Y0464300D03*
X0114300Y0454300D03*
X0114300Y0444300D03*
X0114300Y0434300D03*
X0114300Y0424300D03*
X0114300Y0414300D03*
X0114300Y0404300D03*
D14*
X0090757Y0344143D02*
X0081387Y0344143D01*
X0081387Y0324457D02*
X0090757Y0324457D01*
X0116387Y0219143D02*
X0125757Y0219143D01*
X0125757Y0199457D02*
X0116387Y0199457D01*
X0064143Y0527843D02*
X0064143Y0537213D01*
X0044457Y0537213D02*
X0044457Y0527843D01*
X0044457Y0626387D02*
X0044457Y0635757D01*
X0064143Y0635757D02*
X0064143Y0626387D01*
X0099457Y0626387D02*
X0099457Y0635757D01*
X0119143Y0635757D02*
X0119143Y0626387D01*
X0564457Y0602213D02*
X0564457Y0592843D01*
X0584143Y0592843D02*
X0584143Y0602213D01*
X0624457Y0602213D02*
X0624457Y0592843D01*
X0644143Y0592843D02*
X0644143Y0602213D01*
X0699457Y0602213D02*
X0699457Y0592843D01*
X0719143Y0592843D02*
X0719143Y0602213D01*
X0709457Y0292213D02*
X0709457Y0282843D01*
X0729143Y0282843D02*
X0729143Y0292213D01*
X0634143Y0292213D02*
X0634143Y0282843D01*
X0614457Y0282843D02*
X0614457Y0292213D01*
D15*
X0109300Y0184300D02*
X0109300Y0079300D01*
X0174300Y0079300D01*
X0174300Y0054300D01*
X0249300Y0054300D01*
X0249300Y0284300D01*
X0394300Y0284300D01*
X0394300Y0154300D01*
X0504300Y0154300D01*
X0504300Y0034300D01*
X0504300Y0019300D01*
X0574300Y0019300D01*
X0574300Y0084300D01*
X0619300Y0084300D01*
X0619300Y0159300D01*
X0589300Y0159300D01*
X0586785Y0169600D02*
X0584944Y0169600D01*
X0582324Y0168898D01*
X0579976Y0167542D01*
X0578058Y0165624D01*
X0576702Y0163276D01*
X0576000Y0160656D01*
X0576000Y0157944D01*
X0576702Y0155324D01*
X0578058Y0152976D01*
X0579375Y0151658D01*
X0579373Y0151652D01*
X0579125Y0150727D01*
X0579000Y0149778D01*
X0579000Y0149300D01*
X0583824Y0149300D01*
X0579000Y0149300D01*
X0579000Y0148822D01*
X0579029Y0148600D01*
X0568600Y0148600D01*
X0568600Y0206150D01*
X0567184Y0209568D01*
X0564568Y0212184D01*
X0561150Y0213600D01*
X0453600Y0213600D01*
X0453600Y0341150D01*
X0452513Y0343773D01*
X0453546Y0344050D01*
X0454300Y0344485D01*
X0455054Y0344050D01*
X0457852Y0343300D01*
X0460748Y0343300D01*
X0463546Y0344050D01*
X0464300Y0344485D01*
X0465054Y0344050D01*
X0467852Y0343300D01*
X0470748Y0343300D01*
X0473546Y0344050D01*
X0474300Y0344485D01*
X0475054Y0344050D01*
X0477852Y0343300D01*
X0480000Y0343300D01*
X0480000Y0277450D01*
X0481416Y0274032D01*
X0484032Y0271416D01*
X0487450Y0270000D01*
X0511000Y0270000D01*
X0511000Y0267944D01*
X0511702Y0265324D01*
X0513058Y0262976D01*
X0514976Y0261058D01*
X0515000Y0261044D01*
X0515000Y0245192D01*
X0514050Y0243546D01*
X0513300Y0240748D01*
X0513300Y0237852D01*
X0514050Y0235054D01*
X0515498Y0232546D01*
X0517546Y0230498D01*
X0520054Y0229050D01*
X0522852Y0228300D01*
X0525748Y0228300D01*
X0528546Y0229050D01*
X0531054Y0230498D01*
X0533102Y0232546D01*
X0534550Y0235054D01*
X0535300Y0237852D01*
X0535300Y0240748D01*
X0534550Y0243546D01*
X0533600Y0245192D01*
X0533600Y0261044D01*
X0533624Y0261058D01*
X0535542Y0262976D01*
X0536898Y0265324D01*
X0537600Y0267944D01*
X0537600Y0270656D01*
X0536898Y0273276D01*
X0536307Y0274300D01*
X0536898Y0275324D01*
X0537600Y0277944D01*
X0537600Y0280656D01*
X0536898Y0283276D01*
X0535542Y0285624D01*
X0533624Y0287542D01*
X0531276Y0288898D01*
X0528656Y0289600D01*
X0519944Y0289600D01*
X0517324Y0288898D01*
X0516808Y0288600D01*
X0498600Y0288600D01*
X0498600Y0386150D01*
X0497184Y0389568D01*
X0494568Y0392184D01*
X0491150Y0393600D01*
X0410300Y0393600D01*
X0410300Y0398856D01*
X0409856Y0399300D01*
X0410300Y0399744D01*
X0410300Y0408856D01*
X0409856Y0409300D01*
X0410300Y0409744D01*
X0410300Y0418856D01*
X0409856Y0419300D01*
X0410300Y0419744D01*
X0410300Y0428856D01*
X0409856Y0429300D01*
X0410300Y0429744D01*
X0410300Y0438856D01*
X0409856Y0439300D01*
X0410300Y0439744D01*
X0410300Y0448856D01*
X0409856Y0449300D01*
X0410300Y0449744D01*
X0410300Y0458856D01*
X0409856Y0459300D01*
X0410300Y0459744D01*
X0410300Y0468856D01*
X0409856Y0469300D01*
X0410300Y0469744D01*
X0410300Y0478856D01*
X0409856Y0479300D01*
X0410300Y0479744D01*
X0410300Y0488856D01*
X0409856Y0489300D01*
X0410300Y0489744D01*
X0410300Y0498856D01*
X0409856Y0499300D01*
X0410300Y0499744D01*
X0410300Y0508856D01*
X0409856Y0509300D01*
X0410300Y0509744D01*
X0410300Y0515000D01*
X0421150Y0515000D01*
X0424568Y0516416D01*
X0427184Y0519032D01*
X0428600Y0522450D01*
X0428600Y0533300D01*
X0430748Y0533300D01*
X0433546Y0534050D01*
X0434300Y0534485D01*
X0435054Y0534050D01*
X0437852Y0533300D01*
X0440748Y0533300D01*
X0443546Y0534050D01*
X0444300Y0534485D01*
X0445054Y0534050D01*
X0447852Y0533300D01*
X0450748Y0533300D01*
X0453546Y0534050D01*
X0454300Y0534485D01*
X0455054Y0534050D01*
X0457852Y0533300D01*
X0458161Y0533300D01*
X0458161Y0524009D01*
X0459273Y0521326D01*
X0461326Y0519273D01*
X0464009Y0518161D01*
X0468161Y0518161D01*
X0468161Y0514009D01*
X0469273Y0511326D01*
X0471326Y0509273D01*
X0474009Y0508161D01*
X0484591Y0508161D01*
X0487274Y0509273D01*
X0489327Y0511326D01*
X0490439Y0514009D01*
X0490439Y0524591D01*
X0489327Y0527274D01*
X0488600Y0528001D01*
X0488600Y0533300D01*
X0490748Y0533300D01*
X0493546Y0534050D01*
X0494300Y0534485D01*
X0495054Y0534050D01*
X0497852Y0533300D01*
X0500748Y0533300D01*
X0501200Y0533421D01*
X0501200Y0332689D01*
X0502433Y0329712D01*
X0504712Y0327433D01*
X0507689Y0326200D01*
X0744231Y0326200D01*
X0744231Y0095077D01*
X0719224Y0095077D01*
X0716247Y0093844D01*
X0713969Y0091565D01*
X0712735Y0088588D01*
X0712735Y0051644D01*
X0710911Y0052400D01*
X0602689Y0052400D01*
X0599712Y0051167D01*
X0597433Y0048888D01*
X0596200Y0045911D01*
X0596200Y0012689D01*
X0596320Y0012400D01*
X0582391Y0012400D01*
X0582782Y0012791D01*
X0584178Y0015209D01*
X0584900Y0017904D01*
X0584900Y0073700D01*
X0620696Y0073700D01*
X0623391Y0074422D01*
X0625809Y0075818D01*
X0627782Y0077791D01*
X0629178Y0080209D01*
X0629900Y0082904D01*
X0629900Y0160696D01*
X0629178Y0163391D01*
X0627782Y0165809D01*
X0625809Y0167782D01*
X0623391Y0169178D01*
X0620696Y0169900D01*
X0587904Y0169900D01*
X0586785Y0169600D01*
X0583686Y0169263D02*
X0568600Y0169263D01*
X0568600Y0175861D02*
X0744231Y0175861D01*
X0744231Y0169263D02*
X0623074Y0169263D01*
X0629372Y0162664D02*
X0744231Y0162664D01*
X0744231Y0156066D02*
X0629900Y0156066D01*
X0629900Y0149467D02*
X0744231Y0149467D01*
X0744231Y0142869D02*
X0629900Y0142869D01*
X0629900Y0136270D02*
X0744231Y0136270D01*
X0744231Y0129672D02*
X0629900Y0129672D01*
X0629900Y0123073D02*
X0744231Y0123073D01*
X0744231Y0116475D02*
X0629900Y0116475D01*
X0629900Y0109876D02*
X0744231Y0109876D01*
X0744231Y0103278D02*
X0629900Y0103278D01*
X0629900Y0096679D02*
X0744231Y0096679D01*
X0713354Y0090081D02*
X0629900Y0090081D01*
X0629900Y0083482D02*
X0712735Y0083482D01*
X0712735Y0076884D02*
X0626874Y0076884D01*
X0608700Y0094900D02*
X0587600Y0094900D01*
X0587600Y0095656D01*
X0586898Y0098276D01*
X0586307Y0099300D01*
X0586898Y0100324D01*
X0587600Y0102944D01*
X0587600Y0105656D01*
X0586898Y0108276D01*
X0585542Y0110624D01*
X0584225Y0111942D01*
X0584227Y0111948D01*
X0584475Y0112873D01*
X0584600Y0113822D01*
X0584600Y0114300D01*
X0584600Y0114778D01*
X0584475Y0115727D01*
X0584227Y0116652D01*
X0583861Y0117536D01*
X0583383Y0118364D01*
X0582800Y0119124D01*
X0582124Y0119800D01*
X0581364Y0120383D01*
X0580536Y0120861D01*
X0579652Y0121227D01*
X0578727Y0121475D01*
X0577778Y0121600D01*
X0574300Y0121600D01*
X0574300Y0114600D01*
X0574300Y0114600D01*
X0574300Y0121600D01*
X0570822Y0121600D01*
X0569873Y0121475D01*
X0568948Y0121227D01*
X0568064Y0120861D01*
X0567236Y0120383D01*
X0566476Y0119800D01*
X0565800Y0119124D01*
X0565217Y0118364D01*
X0564739Y0117536D01*
X0564373Y0116652D01*
X0564125Y0115727D01*
X0564000Y0114778D01*
X0564000Y0114300D01*
X0568825Y0114300D01*
X0568824Y0114300D01*
X0564000Y0114300D01*
X0564000Y0113822D01*
X0564029Y0113600D01*
X0558600Y0113600D01*
X0558600Y0130000D01*
X0581808Y0130000D01*
X0582324Y0129702D01*
X0584944Y0129000D01*
X0593656Y0129000D01*
X0596276Y0129702D01*
X0598624Y0131058D01*
X0600542Y0132976D01*
X0601898Y0135324D01*
X0602600Y0137944D01*
X0602600Y0140656D01*
X0601898Y0143276D01*
X0600542Y0145624D01*
X0599225Y0146942D01*
X0599227Y0146948D01*
X0599475Y0147873D01*
X0599584Y0148700D01*
X0608700Y0148700D01*
X0608700Y0094900D01*
X0608700Y0096679D02*
X0587326Y0096679D01*
X0587600Y0103278D02*
X0608700Y0103278D01*
X0608700Y0109876D02*
X0585974Y0109876D01*
X0584600Y0114300D02*
X0579776Y0114300D01*
X0579775Y0114300D01*
X0584600Y0114300D01*
X0584275Y0116475D02*
X0608700Y0116475D01*
X0608700Y0123073D02*
X0558600Y0123073D01*
X0558600Y0116475D02*
X0564325Y0116475D01*
X0574300Y0116475D02*
X0574300Y0116475D01*
X0582437Y0129672D02*
X0558600Y0129672D01*
X0568600Y0149467D02*
X0579000Y0149467D01*
X0583824Y0149300D02*
X0583824Y0149300D01*
X0583824Y0149300D01*
X0576503Y0156066D02*
X0568600Y0156066D01*
X0568600Y0162664D02*
X0576538Y0162664D01*
X0568600Y0182460D02*
X0744231Y0182460D01*
X0744231Y0189058D02*
X0568600Y0189058D01*
X0568600Y0195657D02*
X0744231Y0195657D01*
X0744231Y0202255D02*
X0568600Y0202255D01*
X0567480Y0208854D02*
X0744231Y0208854D01*
X0744231Y0215452D02*
X0453600Y0215452D01*
X0453600Y0222051D02*
X0744231Y0222051D01*
X0744231Y0228649D02*
X0527052Y0228649D01*
X0521548Y0228649D02*
X0453600Y0228649D01*
X0453600Y0235248D02*
X0513998Y0235248D01*
X0513594Y0241846D02*
X0453600Y0241846D01*
X0453600Y0248445D02*
X0515000Y0248445D01*
X0515000Y0255043D02*
X0453600Y0255043D01*
X0453600Y0261642D02*
X0514392Y0261642D01*
X0511000Y0268240D02*
X0453600Y0268240D01*
X0453600Y0274839D02*
X0481082Y0274839D01*
X0480000Y0281437D02*
X0453600Y0281437D01*
X0453600Y0288036D02*
X0480000Y0288036D01*
X0480000Y0294634D02*
X0453600Y0294634D01*
X0453600Y0301233D02*
X0480000Y0301233D01*
X0480000Y0307832D02*
X0453600Y0307832D01*
X0453600Y0314430D02*
X0480000Y0314430D01*
X0480000Y0321029D02*
X0453600Y0321029D01*
X0453600Y0327627D02*
X0480000Y0327627D01*
X0480000Y0334226D02*
X0453600Y0334226D01*
X0453600Y0340824D02*
X0480000Y0340824D01*
X0498600Y0340824D02*
X0501200Y0340824D01*
X0501200Y0334226D02*
X0498600Y0334226D01*
X0498600Y0327627D02*
X0504518Y0327627D01*
X0498600Y0321029D02*
X0744231Y0321029D01*
X0744231Y0314430D02*
X0498600Y0314430D01*
X0498600Y0307832D02*
X0744231Y0307832D01*
X0744231Y0301233D02*
X0737072Y0301233D01*
X0736502Y0301804D02*
X0733769Y0303382D01*
X0730720Y0304198D01*
X0727565Y0304198D01*
X0724516Y0303382D01*
X0721784Y0301804D01*
X0719552Y0299572D01*
X0719300Y0299136D01*
X0719048Y0299572D01*
X0716816Y0301804D01*
X0714084Y0303382D01*
X0711035Y0304198D01*
X0707880Y0304198D01*
X0704831Y0303382D01*
X0702098Y0301804D01*
X0699867Y0299572D01*
X0698289Y0296839D01*
X0697472Y0293791D01*
X0697472Y0281265D01*
X0698289Y0278217D01*
X0699867Y0275484D01*
X0702098Y0273253D01*
X0704831Y0271675D01*
X0704904Y0271656D01*
X0704300Y0271307D01*
X0703276Y0271898D01*
X0700656Y0272600D01*
X0697944Y0272600D01*
X0695324Y0271898D01*
X0694300Y0271307D01*
X0693276Y0271898D01*
X0690656Y0272600D01*
X0687944Y0272600D01*
X0685324Y0271898D01*
X0684300Y0271307D01*
X0683276Y0271898D01*
X0680656Y0272600D01*
X0677944Y0272600D01*
X0675324Y0271898D01*
X0674300Y0271307D01*
X0673276Y0271898D01*
X0670656Y0272600D01*
X0667944Y0272600D01*
X0665324Y0271898D01*
X0662976Y0270542D01*
X0661058Y0268624D01*
X0659702Y0266276D01*
X0659000Y0263656D01*
X0659000Y0254944D01*
X0659702Y0252324D01*
X0661058Y0249976D01*
X0662976Y0248058D01*
X0665324Y0246702D01*
X0667944Y0246000D01*
X0670656Y0246000D01*
X0673276Y0246702D01*
X0674300Y0247293D01*
X0675324Y0246702D01*
X0677944Y0246000D01*
X0680656Y0246000D01*
X0683276Y0246702D01*
X0684300Y0247293D01*
X0685324Y0246702D01*
X0687944Y0246000D01*
X0690656Y0246000D01*
X0693276Y0246702D01*
X0694300Y0247293D01*
X0695324Y0246702D01*
X0697944Y0246000D01*
X0700656Y0246000D01*
X0703276Y0246702D01*
X0704300Y0247293D01*
X0705324Y0246702D01*
X0707944Y0246000D01*
X0710656Y0246000D01*
X0713276Y0246702D01*
X0714300Y0247293D01*
X0715324Y0246702D01*
X0717944Y0246000D01*
X0720656Y0246000D01*
X0723276Y0246702D01*
X0725624Y0248058D01*
X0727542Y0249976D01*
X0728898Y0252324D01*
X0729600Y0254944D01*
X0729600Y0263656D01*
X0728898Y0266276D01*
X0727542Y0268624D01*
X0725624Y0270542D01*
X0723276Y0271898D01*
X0720656Y0272600D01*
X0717944Y0272600D01*
X0715324Y0271898D01*
X0714300Y0271307D01*
X0713796Y0271598D01*
X0714084Y0271675D01*
X0716816Y0273253D01*
X0719048Y0275484D01*
X0719300Y0275921D01*
X0719552Y0275484D01*
X0721784Y0273253D01*
X0724516Y0271675D01*
X0727565Y0270858D01*
X0730720Y0270858D01*
X0733769Y0271675D01*
X0736502Y0273253D01*
X0738733Y0275484D01*
X0740311Y0278217D01*
X0741128Y0281265D01*
X0741128Y0293791D01*
X0740311Y0296839D01*
X0738733Y0299572D01*
X0736502Y0301804D01*
X0740902Y0294634D02*
X0744231Y0294634D01*
X0744231Y0288036D02*
X0741128Y0288036D01*
X0741128Y0281437D02*
X0744231Y0281437D01*
X0744231Y0274839D02*
X0738088Y0274839D01*
X0744231Y0268240D02*
X0727764Y0268240D01*
X0729600Y0261642D02*
X0744231Y0261642D01*
X0744231Y0255043D02*
X0729600Y0255043D01*
X0726011Y0248445D02*
X0744231Y0248445D01*
X0744231Y0241846D02*
X0561900Y0241846D01*
X0561892Y0241877D02*
X0561490Y0242846D01*
X0560966Y0243754D01*
X0560328Y0244586D01*
X0559586Y0245328D01*
X0558754Y0245966D01*
X0557846Y0246490D01*
X0556877Y0246892D01*
X0555864Y0247163D01*
X0554824Y0247300D01*
X0554300Y0247300D01*
X0554300Y0239300D01*
X0562300Y0239300D01*
X0562300Y0239824D01*
X0562163Y0240864D01*
X0561892Y0241877D01*
X0562300Y0239300D02*
X0554300Y0239300D01*
X0554300Y0239300D01*
X0554300Y0239300D01*
X0554300Y0231300D01*
X0554824Y0231300D01*
X0555864Y0231437D01*
X0556877Y0231708D01*
X0557846Y0232110D01*
X0558754Y0232634D01*
X0559586Y0233272D01*
X0560328Y0234014D01*
X0560966Y0234846D01*
X0561490Y0235754D01*
X0561892Y0236723D01*
X0562163Y0237736D01*
X0562300Y0238776D01*
X0562300Y0239300D01*
X0561198Y0235248D02*
X0744231Y0235248D01*
X0720197Y0274839D02*
X0718403Y0274839D01*
X0700512Y0274839D02*
X0643088Y0274839D01*
X0643733Y0275484D02*
X0645311Y0278217D01*
X0646128Y0281265D01*
X0646128Y0293791D01*
X0645311Y0296839D01*
X0643733Y0299572D01*
X0641502Y0301804D01*
X0638769Y0303382D01*
X0635720Y0304198D01*
X0632565Y0304198D01*
X0629516Y0303382D01*
X0626784Y0301804D01*
X0624552Y0299572D01*
X0624300Y0299136D01*
X0624048Y0299572D01*
X0621816Y0301804D01*
X0619084Y0303382D01*
X0616035Y0304198D01*
X0612880Y0304198D01*
X0609831Y0303382D01*
X0607098Y0301804D01*
X0604867Y0299572D01*
X0603289Y0296839D01*
X0602472Y0293791D01*
X0602472Y0281265D01*
X0603289Y0278217D01*
X0604867Y0275484D01*
X0607098Y0273253D01*
X0609831Y0271675D01*
X0609904Y0271656D01*
X0609300Y0271307D01*
X0608276Y0271898D01*
X0605656Y0272600D01*
X0602944Y0272600D01*
X0600324Y0271898D01*
X0599300Y0271307D01*
X0598276Y0271898D01*
X0595656Y0272600D01*
X0592944Y0272600D01*
X0590324Y0271898D01*
X0589300Y0271307D01*
X0588276Y0271898D01*
X0585656Y0272600D01*
X0582944Y0272600D01*
X0580324Y0271898D01*
X0577976Y0270542D01*
X0576058Y0268624D01*
X0574702Y0266276D01*
X0574000Y0263656D01*
X0574000Y0254944D01*
X0574702Y0252324D01*
X0576058Y0249976D01*
X0577976Y0248058D01*
X0580324Y0246702D01*
X0582944Y0246000D01*
X0585656Y0246000D01*
X0588276Y0246702D01*
X0589300Y0247293D01*
X0590324Y0246702D01*
X0592944Y0246000D01*
X0595656Y0246000D01*
X0598276Y0246702D01*
X0599300Y0247293D01*
X0600324Y0246702D01*
X0602944Y0246000D01*
X0605656Y0246000D01*
X0608276Y0246702D01*
X0609300Y0247293D01*
X0610324Y0246702D01*
X0612944Y0246000D01*
X0615656Y0246000D01*
X0618276Y0246702D01*
X0619300Y0247293D01*
X0620324Y0246702D01*
X0622944Y0246000D01*
X0625656Y0246000D01*
X0628276Y0246702D01*
X0629300Y0247293D01*
X0630324Y0246702D01*
X0632944Y0246000D01*
X0635656Y0246000D01*
X0638276Y0246702D01*
X0640624Y0248058D01*
X0642542Y0249976D01*
X0643898Y0252324D01*
X0644600Y0254944D01*
X0644600Y0263656D01*
X0643898Y0266276D01*
X0642542Y0268624D01*
X0640624Y0270542D01*
X0638696Y0271656D01*
X0638769Y0271675D01*
X0641502Y0273253D01*
X0643733Y0275484D01*
X0646128Y0281437D02*
X0697472Y0281437D01*
X0697472Y0288036D02*
X0646128Y0288036D01*
X0645902Y0294634D02*
X0697698Y0294634D01*
X0701528Y0301233D02*
X0642072Y0301233D01*
X0626213Y0301233D02*
X0622387Y0301233D01*
X0606528Y0301233D02*
X0498600Y0301233D01*
X0498600Y0294634D02*
X0602698Y0294634D01*
X0602472Y0288036D02*
X0532769Y0288036D01*
X0537391Y0281437D02*
X0602472Y0281437D01*
X0605512Y0274839D02*
X0536618Y0274839D01*
X0537600Y0268240D02*
X0575836Y0268240D01*
X0574000Y0261642D02*
X0534208Y0261642D01*
X0533600Y0255043D02*
X0574000Y0255043D01*
X0577589Y0248445D02*
X0533600Y0248445D01*
X0535006Y0241846D02*
X0546700Y0241846D01*
X0546708Y0241877D02*
X0546437Y0240864D01*
X0546300Y0239824D01*
X0546300Y0239300D01*
X0554300Y0239300D01*
X0554300Y0239300D01*
X0554300Y0239300D01*
X0554300Y0247300D01*
X0553776Y0247300D01*
X0552736Y0247163D01*
X0551723Y0246892D01*
X0550754Y0246490D01*
X0549846Y0245966D01*
X0549014Y0245328D01*
X0548272Y0244586D01*
X0547634Y0243754D01*
X0547110Y0242846D01*
X0546708Y0241877D01*
X0546300Y0239300D02*
X0546300Y0238776D01*
X0546437Y0237736D01*
X0546708Y0236723D01*
X0547110Y0235754D01*
X0547634Y0234846D01*
X0548272Y0234014D01*
X0549014Y0233272D01*
X0549846Y0232634D01*
X0550754Y0232110D01*
X0551723Y0231708D01*
X0552736Y0231437D01*
X0553776Y0231300D01*
X0554300Y0231300D01*
X0554300Y0239300D01*
X0546300Y0239300D01*
X0547402Y0235248D02*
X0534602Y0235248D01*
X0554300Y0235248D02*
X0554300Y0235248D01*
X0554300Y0241846D02*
X0554300Y0241846D01*
X0641011Y0248445D02*
X0662589Y0248445D01*
X0659000Y0255043D02*
X0644600Y0255043D01*
X0644600Y0261642D02*
X0659000Y0261642D01*
X0660836Y0268240D02*
X0642764Y0268240D01*
X0717387Y0301233D02*
X0721213Y0301233D01*
X0608700Y0142869D02*
X0602007Y0142869D01*
X0602152Y0136270D02*
X0608700Y0136270D01*
X0608700Y0129672D02*
X0596163Y0129672D01*
X0561000Y0085000D02*
X0561000Y0082944D01*
X0561702Y0080324D01*
X0563058Y0077976D01*
X0563700Y0077334D01*
X0563700Y0029900D01*
X0561479Y0029900D01*
X0561600Y0030822D01*
X0561600Y0034300D01*
X0561600Y0037778D01*
X0561475Y0038727D01*
X0561227Y0039652D01*
X0560861Y0040536D01*
X0560383Y0041364D01*
X0559800Y0042124D01*
X0559124Y0042800D01*
X0558364Y0043383D01*
X0557536Y0043861D01*
X0556652Y0044227D01*
X0555727Y0044475D01*
X0554778Y0044600D01*
X0554300Y0044600D01*
X0554300Y0039775D01*
X0554300Y0039776D01*
X0554300Y0044600D01*
X0553822Y0044600D01*
X0553600Y0044571D01*
X0553600Y0061150D01*
X0552184Y0064568D01*
X0549568Y0067184D01*
X0546150Y0068600D01*
X0538600Y0068600D01*
X0538600Y0085000D01*
X0561000Y0085000D01*
X0561000Y0083482D02*
X0538600Y0083482D01*
X0538600Y0076884D02*
X0563700Y0076884D01*
X0563700Y0070285D02*
X0538600Y0070285D01*
X0552549Y0063687D02*
X0563700Y0063687D01*
X0563700Y0057088D02*
X0553600Y0057088D01*
X0553600Y0050490D02*
X0563700Y0050490D01*
X0563700Y0043891D02*
X0557464Y0043891D01*
X0554300Y0043891D02*
X0554300Y0043891D01*
X0561600Y0037293D02*
X0563700Y0037293D01*
X0561600Y0034300D02*
X0554600Y0034300D01*
X0554600Y0034300D01*
X0561600Y0034300D01*
X0561583Y0030694D02*
X0563700Y0030694D01*
X0584900Y0030694D02*
X0596200Y0030694D01*
X0596200Y0024096D02*
X0584900Y0024096D01*
X0584791Y0017497D02*
X0596200Y0017497D01*
X0596200Y0037293D02*
X0584900Y0037293D01*
X0584900Y0043891D02*
X0596200Y0043891D01*
X0599034Y0050490D02*
X0584900Y0050490D01*
X0584900Y0057088D02*
X0712735Y0057088D01*
X0712735Y0063687D02*
X0584900Y0063687D01*
X0584900Y0070285D02*
X0712735Y0070285D01*
X0524300Y0034300D02*
X0504300Y0034300D01*
X0238700Y0064900D02*
X0184900Y0064900D01*
X0184900Y0068700D01*
X0197334Y0068700D01*
X0197976Y0068058D01*
X0200324Y0066702D01*
X0202944Y0066000D01*
X0205656Y0066000D01*
X0208276Y0066702D01*
X0209300Y0067293D01*
X0210324Y0066702D01*
X0212944Y0066000D01*
X0215656Y0066000D01*
X0218276Y0066702D01*
X0219300Y0067293D01*
X0220324Y0066702D01*
X0222944Y0066000D01*
X0225656Y0066000D01*
X0228276Y0066702D01*
X0230624Y0068058D01*
X0231942Y0069375D01*
X0231948Y0069373D01*
X0232873Y0069125D01*
X0233822Y0069000D01*
X0234300Y0069000D01*
X0234778Y0069000D01*
X0235727Y0069125D01*
X0236652Y0069373D01*
X0237536Y0069739D01*
X0238364Y0070217D01*
X0238700Y0070475D01*
X0238700Y0064900D01*
X0238700Y0070285D02*
X0238453Y0070285D01*
X0234300Y0070285D02*
X0234300Y0070285D01*
X0234300Y0069000D02*
X0234300Y0073824D01*
X0234300Y0073825D01*
X0234300Y0069000D01*
X0234300Y0084775D02*
X0234300Y0084776D01*
X0234300Y0089600D01*
X0234300Y0084775D01*
X0234300Y0089600D02*
X0234778Y0089600D01*
X0235727Y0089475D01*
X0236652Y0089227D01*
X0237536Y0088861D01*
X0238364Y0088383D01*
X0238700Y0088125D01*
X0238700Y0285696D01*
X0239422Y0288391D01*
X0240818Y0290809D01*
X0242791Y0292782D01*
X0245209Y0294178D01*
X0247904Y0294900D01*
X0305000Y0294900D01*
X0305000Y0296150D01*
X0305000Y0400000D01*
X0253600Y0400000D01*
X0253600Y0327450D01*
X0252184Y0324032D01*
X0249568Y0321416D01*
X0246150Y0320000D01*
X0233600Y0320000D01*
X0233600Y0089571D01*
X0233822Y0089600D01*
X0234300Y0089600D01*
X0233600Y0090081D02*
X0238700Y0090081D01*
X0238700Y0096679D02*
X0233600Y0096679D01*
X0233600Y0103278D02*
X0238700Y0103278D01*
X0238700Y0109876D02*
X0233600Y0109876D01*
X0233600Y0116475D02*
X0238700Y0116475D01*
X0238700Y0123073D02*
X0233600Y0123073D01*
X0233600Y0129672D02*
X0238700Y0129672D01*
X0238700Y0136270D02*
X0233600Y0136270D01*
X0233600Y0142869D02*
X0238700Y0142869D01*
X0238700Y0149467D02*
X0233600Y0149467D01*
X0233600Y0156066D02*
X0238700Y0156066D01*
X0238700Y0162664D02*
X0233600Y0162664D01*
X0233600Y0169263D02*
X0238700Y0169263D01*
X0238700Y0175861D02*
X0233600Y0175861D01*
X0233600Y0182460D02*
X0238700Y0182460D01*
X0238700Y0189058D02*
X0233600Y0189058D01*
X0233600Y0195657D02*
X0238700Y0195657D01*
X0238700Y0202255D02*
X0233600Y0202255D01*
X0233600Y0208854D02*
X0238700Y0208854D01*
X0238700Y0215452D02*
X0233600Y0215452D01*
X0233600Y0222051D02*
X0238700Y0222051D01*
X0238700Y0228649D02*
X0233600Y0228649D01*
X0233600Y0235248D02*
X0238700Y0235248D01*
X0238700Y0241846D02*
X0233600Y0241846D01*
X0233600Y0248445D02*
X0238700Y0248445D01*
X0238700Y0255043D02*
X0233600Y0255043D01*
X0233600Y0261642D02*
X0238700Y0261642D01*
X0238700Y0268240D02*
X0233600Y0268240D01*
X0233600Y0274839D02*
X0238700Y0274839D01*
X0238700Y0281437D02*
X0233600Y0281437D01*
X0233600Y0288036D02*
X0239327Y0288036D01*
X0233600Y0294634D02*
X0246914Y0294634D01*
X0233600Y0301233D02*
X0305000Y0301233D01*
X0305000Y0307832D02*
X0233600Y0307832D01*
X0233600Y0314430D02*
X0305000Y0314430D01*
X0305000Y0321029D02*
X0248633Y0321029D01*
X0253600Y0327627D02*
X0305000Y0327627D01*
X0305000Y0334226D02*
X0253600Y0334226D01*
X0253600Y0340824D02*
X0305000Y0340824D01*
X0305000Y0347423D02*
X0253600Y0347423D01*
X0253600Y0354021D02*
X0305000Y0354021D01*
X0305000Y0360620D02*
X0253600Y0360620D01*
X0253600Y0367218D02*
X0305000Y0367218D01*
X0305000Y0373817D02*
X0253600Y0373817D01*
X0253600Y0380415D02*
X0305000Y0380415D01*
X0305000Y0387014D02*
X0253600Y0387014D01*
X0253600Y0393612D02*
X0305000Y0393612D01*
X0261000Y0450439D02*
X0254009Y0450439D01*
X0251326Y0449327D01*
X0250599Y0448600D01*
X0247600Y0448600D01*
X0247600Y0450656D01*
X0246898Y0453276D01*
X0245542Y0455624D01*
X0244225Y0456942D01*
X0244227Y0456948D01*
X0244475Y0457873D01*
X0244600Y0458822D01*
X0244600Y0459300D01*
X0244600Y0459778D01*
X0244475Y0460727D01*
X0244227Y0461652D01*
X0244225Y0461658D01*
X0245542Y0462976D01*
X0246898Y0465324D01*
X0247600Y0467944D01*
X0247600Y0470656D01*
X0246898Y0473276D01*
X0245902Y0475000D01*
X0262698Y0475000D01*
X0261702Y0473276D01*
X0261000Y0470656D01*
X0261000Y0467944D01*
X0261702Y0465324D01*
X0263058Y0462976D01*
X0264375Y0461658D01*
X0264373Y0461652D01*
X0264125Y0460727D01*
X0264000Y0459778D01*
X0264000Y0459300D01*
X0268824Y0459300D01*
X0264000Y0459300D01*
X0264000Y0458822D01*
X0264125Y0457873D01*
X0264373Y0456948D01*
X0264375Y0456942D01*
X0263058Y0455624D01*
X0261702Y0453276D01*
X0261000Y0450656D01*
X0261000Y0450439D01*
X0261628Y0452999D02*
X0246972Y0452999D01*
X0244600Y0459300D02*
X0239776Y0459300D01*
X0239776Y0459300D01*
X0244600Y0459300D01*
X0244600Y0459597D02*
X0264000Y0459597D01*
X0268824Y0459300D02*
X0268824Y0459300D01*
X0268824Y0459300D01*
X0261468Y0466196D02*
X0247132Y0466196D01*
X0247027Y0472794D02*
X0261573Y0472794D01*
X0274300Y0469300D02*
X0319300Y0469300D01*
X0319300Y0544300D01*
X0300000Y0535000D02*
X0300000Y0520439D01*
X0295649Y0520439D01*
X0295542Y0520624D01*
X0294225Y0521942D01*
X0294227Y0521948D01*
X0294475Y0522873D01*
X0294600Y0523822D01*
X0294600Y0524300D01*
X0294600Y0524778D01*
X0294475Y0525727D01*
X0294227Y0526652D01*
X0294225Y0526658D01*
X0295542Y0527976D01*
X0296898Y0530324D01*
X0297600Y0532944D01*
X0297600Y0535000D01*
X0300000Y0535000D01*
X0300000Y0532181D02*
X0297396Y0532181D01*
X0300000Y0525582D02*
X0294494Y0525582D01*
X0294600Y0524300D02*
X0289776Y0524300D01*
X0289776Y0524300D01*
X0294600Y0524300D01*
X0289776Y0524300D02*
X0289776Y0524300D01*
X0260000Y0525582D02*
X0244494Y0525582D01*
X0244475Y0525727D02*
X0244227Y0526652D01*
X0244225Y0526658D01*
X0245542Y0527976D01*
X0246898Y0530324D01*
X0247600Y0532944D01*
X0247600Y0535000D01*
X0260000Y0535000D01*
X0260000Y0515649D01*
X0259327Y0517274D01*
X0257274Y0519327D01*
X0254591Y0520439D01*
X0245649Y0520439D01*
X0245542Y0520624D01*
X0244225Y0521942D01*
X0244227Y0521948D01*
X0244475Y0522873D01*
X0244600Y0523822D01*
X0244600Y0524300D01*
X0244600Y0524778D01*
X0244475Y0525727D01*
X0244600Y0524300D02*
X0239776Y0524300D01*
X0239776Y0524300D01*
X0244600Y0524300D01*
X0239776Y0524300D02*
X0239776Y0524300D01*
X0247396Y0532181D02*
X0260000Y0532181D01*
X0260000Y0518984D02*
X0257617Y0518984D01*
X0210000Y0518984D02*
X0184067Y0518984D01*
X0183884Y0519300D02*
X0184364Y0520131D01*
X0185100Y0522878D01*
X0185100Y0525722D01*
X0184364Y0528469D01*
X0183884Y0529300D01*
X0184364Y0530131D01*
X0185100Y0532878D01*
X0185100Y0535722D01*
X0184364Y0538469D01*
X0183884Y0539300D01*
X0184364Y0540131D01*
X0185100Y0542878D01*
X0185100Y0545000D01*
X0210000Y0545000D01*
X0210000Y0542450D01*
X0210000Y0513001D01*
X0209273Y0512274D01*
X0208161Y0509591D01*
X0208161Y0503600D01*
X0185100Y0503600D01*
X0185100Y0505722D01*
X0184364Y0508469D01*
X0183884Y0509300D01*
X0184364Y0510131D01*
X0185100Y0512878D01*
X0185100Y0515722D01*
X0184364Y0518469D01*
X0183884Y0519300D01*
X0185100Y0525582D02*
X0210000Y0525582D01*
X0210000Y0532181D02*
X0184913Y0532181D01*
X0184185Y0538779D02*
X0210000Y0538779D01*
X0209384Y0512385D02*
X0184968Y0512385D01*
X0185083Y0505787D02*
X0208161Y0505787D01*
X0219300Y0469300D02*
X0234300Y0469300D01*
X0239776Y0459300D02*
X0239776Y0459300D01*
X0189300Y0414300D02*
X0189300Y0379300D01*
X0124300Y0379300D01*
X0124300Y0279300D01*
X0104300Y0279300D01*
X0098824Y0269300D02*
X0098824Y0269300D01*
X0094000Y0269300D01*
X0098824Y0269300D01*
X0098824Y0269300D01*
X0094000Y0269300D02*
X0094000Y0269778D01*
X0094125Y0270727D01*
X0094373Y0271652D01*
X0094375Y0271658D01*
X0093058Y0272976D01*
X0091702Y0275324D01*
X0091000Y0277944D01*
X0091000Y0280000D01*
X0062450Y0280000D01*
X0059032Y0281416D01*
X0056416Y0284032D01*
X0055000Y0287450D01*
X0055000Y0326150D01*
X0056416Y0329568D01*
X0059032Y0332184D01*
X0062450Y0333600D01*
X0067489Y0333600D01*
X0073632Y0333652D01*
X0074028Y0334048D01*
X0074464Y0334300D01*
X0074028Y0334552D01*
X0071796Y0336784D01*
X0070218Y0339516D01*
X0069402Y0342565D01*
X0069402Y0345720D01*
X0070218Y0348769D01*
X0071796Y0351502D01*
X0074028Y0353733D01*
X0076761Y0355311D01*
X0079809Y0356128D01*
X0092335Y0356128D01*
X0095383Y0355311D01*
X0098116Y0353733D01*
X0098277Y0353571D01*
X0099175Y0353581D01*
X0099222Y0353600D01*
X0101023Y0353600D01*
X0102824Y0353619D01*
X0102871Y0353600D01*
X0113700Y0353600D01*
X0113700Y0380696D01*
X0114422Y0383391D01*
X0115818Y0385809D01*
X0117791Y0387782D01*
X0120209Y0389178D01*
X0122904Y0389900D01*
X0178700Y0389900D01*
X0178700Y0394370D01*
X0178469Y0394236D01*
X0175722Y0393500D01*
X0172878Y0393500D01*
X0170131Y0394236D01*
X0167669Y0395658D01*
X0165658Y0397669D01*
X0164236Y0400131D01*
X0163500Y0402878D01*
X0163500Y0405722D01*
X0164236Y0408469D01*
X0164716Y0409300D01*
X0164236Y0410131D01*
X0163500Y0412878D01*
X0163500Y0415722D01*
X0164236Y0418469D01*
X0164716Y0419300D01*
X0164236Y0420131D01*
X0163500Y0422878D01*
X0163500Y0425722D01*
X0164236Y0428469D01*
X0164716Y0429300D01*
X0164236Y0430131D01*
X0163500Y0432878D01*
X0163500Y0435722D01*
X0164236Y0438469D01*
X0164716Y0439300D01*
X0164236Y0440131D01*
X0163500Y0442878D01*
X0163500Y0445722D01*
X0164236Y0448469D01*
X0164716Y0449300D01*
X0164236Y0450131D01*
X0163500Y0452878D01*
X0163500Y0455722D01*
X0164236Y0458469D01*
X0164716Y0459300D01*
X0164236Y0460131D01*
X0163500Y0462878D01*
X0163500Y0465722D01*
X0164236Y0468469D01*
X0164716Y0469300D01*
X0164236Y0470131D01*
X0163500Y0472878D01*
X0163500Y0475722D01*
X0164236Y0478469D01*
X0164716Y0479300D01*
X0164236Y0480131D01*
X0163500Y0482878D01*
X0163500Y0485722D01*
X0164236Y0488469D01*
X0164716Y0489300D01*
X0164236Y0490131D01*
X0163500Y0492878D01*
X0163500Y0495722D01*
X0164236Y0498469D01*
X0164716Y0499300D01*
X0164236Y0500131D01*
X0163500Y0502878D01*
X0163500Y0505722D01*
X0164236Y0508469D01*
X0164716Y0509300D01*
X0164236Y0510131D01*
X0163500Y0512878D01*
X0163500Y0515722D01*
X0164236Y0518469D01*
X0164716Y0519300D01*
X0164236Y0520131D01*
X0163500Y0522878D01*
X0163500Y0525722D01*
X0164236Y0528469D01*
X0164716Y0529300D01*
X0164236Y0530131D01*
X0163500Y0532878D01*
X0163500Y0533700D01*
X0155891Y0533700D01*
X0154591Y0533161D01*
X0144009Y0533161D01*
X0141326Y0534273D01*
X0139273Y0536326D01*
X0138161Y0539009D01*
X0138161Y0545000D01*
X0125100Y0545000D01*
X0125100Y0542878D01*
X0124364Y0540131D01*
X0123884Y0539300D01*
X0124364Y0538469D01*
X0125100Y0535722D01*
X0125100Y0532878D01*
X0124364Y0530131D01*
X0123884Y0529300D01*
X0124364Y0528469D01*
X0125100Y0525722D01*
X0125100Y0522878D01*
X0124364Y0520131D01*
X0122942Y0517669D01*
X0121783Y0516510D01*
X0121967Y0515825D01*
X0122100Y0514811D01*
X0122100Y0514300D01*
X0118580Y0514300D01*
X0118579Y0514300D01*
X0118580Y0514300D01*
X0122100Y0514300D01*
X0122100Y0513789D01*
X0121967Y0512775D01*
X0121783Y0512090D01*
X0122942Y0510931D01*
X0124083Y0508955D01*
X0129358Y0505439D01*
X0134591Y0505439D01*
X0136000Y0504855D01*
X0136000Y0505656D01*
X0136702Y0508276D01*
X0138058Y0510624D01*
X0139976Y0512542D01*
X0142324Y0513898D01*
X0144944Y0514600D01*
X0153656Y0514600D01*
X0156276Y0513898D01*
X0158624Y0512542D01*
X0160542Y0510624D01*
X0161898Y0508276D01*
X0162600Y0505656D01*
X0162600Y0502944D01*
X0161898Y0500324D01*
X0161307Y0499300D01*
X0161898Y0498276D01*
X0162600Y0495656D01*
X0162600Y0492944D01*
X0161898Y0490324D01*
X0161307Y0489300D01*
X0161898Y0488276D01*
X0162600Y0485656D01*
X0162600Y0482944D01*
X0161898Y0480324D01*
X0161307Y0479300D01*
X0161898Y0478276D01*
X0162600Y0475656D01*
X0162600Y0472944D01*
X0161898Y0470324D01*
X0161307Y0469300D01*
X0161898Y0468276D01*
X0162600Y0465656D01*
X0162600Y0462944D01*
X0161898Y0460324D01*
X0161307Y0459300D01*
X0161898Y0458276D01*
X0162600Y0455656D01*
X0162600Y0452944D01*
X0161898Y0450324D01*
X0160542Y0447976D01*
X0159225Y0446658D01*
X0159227Y0446652D01*
X0159475Y0445727D01*
X0159600Y0444778D01*
X0159600Y0444300D01*
X0154776Y0444300D01*
X0154775Y0444300D01*
X0159600Y0444300D01*
X0159600Y0443822D01*
X0159475Y0442873D01*
X0159227Y0441948D01*
X0158861Y0441064D01*
X0158383Y0440236D01*
X0157800Y0439476D01*
X0157124Y0438800D01*
X0156364Y0438217D01*
X0155536Y0437739D01*
X0154652Y0437373D01*
X0153727Y0437125D01*
X0152778Y0437000D01*
X0149300Y0437000D01*
X0149300Y0444000D01*
X0149300Y0444000D01*
X0149300Y0437000D01*
X0145822Y0437000D01*
X0144873Y0437125D01*
X0143948Y0437373D01*
X0143064Y0437739D01*
X0142236Y0438217D01*
X0141476Y0438800D01*
X0140800Y0439476D01*
X0140217Y0440236D01*
X0139739Y0441064D01*
X0139373Y0441948D01*
X0139125Y0442873D01*
X0139000Y0443822D01*
X0139000Y0444300D01*
X0143824Y0444300D01*
X0143825Y0444300D01*
X0139000Y0444300D01*
X0139000Y0444778D01*
X0139125Y0445727D01*
X0139270Y0446269D01*
X0137274Y0444273D01*
X0134591Y0443161D01*
X0125100Y0443161D01*
X0125100Y0442878D01*
X0124364Y0440131D01*
X0123884Y0439300D01*
X0124364Y0438469D01*
X0125100Y0435722D01*
X0125100Y0432878D01*
X0124364Y0430131D01*
X0123884Y0429300D01*
X0124364Y0428469D01*
X0125100Y0425722D01*
X0125100Y0422878D01*
X0124364Y0420131D01*
X0123884Y0419300D01*
X0124364Y0418469D01*
X0125100Y0415722D01*
X0125100Y0412878D01*
X0124364Y0410131D01*
X0123884Y0409300D01*
X0124364Y0408469D01*
X0125100Y0405722D01*
X0125100Y0402878D01*
X0124364Y0400131D01*
X0122942Y0397669D01*
X0120931Y0395658D01*
X0118469Y0394236D01*
X0115722Y0393500D01*
X0112878Y0393500D01*
X0110131Y0394236D01*
X0107669Y0395658D01*
X0105658Y0397669D01*
X0104236Y0400131D01*
X0103500Y0402878D01*
X0103500Y0405722D01*
X0104236Y0408469D01*
X0104716Y0409300D01*
X0104236Y0410131D01*
X0103500Y0412878D01*
X0103500Y0415722D01*
X0104236Y0418469D01*
X0104716Y0419300D01*
X0104236Y0420131D01*
X0103500Y0422878D01*
X0103500Y0425000D01*
X0082450Y0425000D01*
X0079032Y0426416D01*
X0076416Y0429032D01*
X0075000Y0432450D01*
X0075000Y0522679D01*
X0073733Y0520484D01*
X0071502Y0518253D01*
X0068769Y0516675D01*
X0065720Y0515858D01*
X0062565Y0515858D01*
X0059516Y0516675D01*
X0056784Y0518253D01*
X0054973Y0520064D01*
X0054900Y0509421D01*
X0054900Y0486266D01*
X0055542Y0485624D01*
X0056898Y0483276D01*
X0057600Y0480656D01*
X0057600Y0477944D01*
X0056898Y0475324D01*
X0056307Y0474300D01*
X0056898Y0473276D01*
X0057600Y0470656D01*
X0057600Y0467944D01*
X0056898Y0465324D01*
X0055542Y0462976D01*
X0054900Y0462334D01*
X0054900Y0452241D01*
X0055300Y0450748D01*
X0055300Y0447852D01*
X0054550Y0445054D01*
X0053102Y0442546D01*
X0051054Y0440498D01*
X0048546Y0439050D01*
X0045748Y0438300D01*
X0042852Y0438300D01*
X0040054Y0439050D01*
X0037546Y0440498D01*
X0035498Y0442546D01*
X0034050Y0445054D01*
X0033300Y0447852D01*
X0033300Y0450748D01*
X0033700Y0452241D01*
X0033700Y0462334D01*
X0033058Y0462976D01*
X0031702Y0465324D01*
X0031000Y0467944D01*
X0031000Y0470656D01*
X0031702Y0473276D01*
X0032293Y0474300D01*
X0031702Y0475324D01*
X0031000Y0477944D01*
X0031000Y0480656D01*
X0031702Y0483276D01*
X0033058Y0485624D01*
X0033700Y0486266D01*
X0033700Y0488700D01*
X0029900Y0488700D01*
X0029900Y0244900D01*
X0091947Y0244900D01*
X0091702Y0245324D01*
X0091000Y0247944D01*
X0091000Y0250656D01*
X0091702Y0253276D01*
X0092293Y0254300D01*
X0091702Y0255324D01*
X0091000Y0257944D01*
X0091000Y0260656D01*
X0091702Y0263276D01*
X0093058Y0265624D01*
X0094375Y0266942D01*
X0094373Y0266948D01*
X0094125Y0267873D01*
X0094000Y0268822D01*
X0094000Y0269300D01*
X0094076Y0268240D02*
X0029900Y0268240D01*
X0029900Y0261642D02*
X0091264Y0261642D01*
X0091864Y0255043D02*
X0029900Y0255043D01*
X0029900Y0248445D02*
X0091000Y0248445D01*
X0116653Y0244900D02*
X0116898Y0245324D01*
X0117600Y0247944D01*
X0117600Y0250656D01*
X0116898Y0253276D01*
X0116307Y0254300D01*
X0116898Y0255324D01*
X0117600Y0257944D01*
X0117600Y0260656D01*
X0116898Y0263276D01*
X0115542Y0265624D01*
X0114225Y0266942D01*
X0114227Y0266948D01*
X0114475Y0267873D01*
X0114584Y0268700D01*
X0125696Y0268700D01*
X0128391Y0269422D01*
X0130809Y0270818D01*
X0132782Y0272791D01*
X0132973Y0273122D01*
X0133058Y0272976D01*
X0134375Y0271658D01*
X0134373Y0271652D01*
X0134125Y0270727D01*
X0134000Y0269778D01*
X0134000Y0269300D01*
X0138824Y0269300D01*
X0134000Y0269300D01*
X0134000Y0268822D01*
X0134125Y0267873D01*
X0134373Y0266948D01*
X0134375Y0266942D01*
X0133058Y0265624D01*
X0131702Y0263276D01*
X0131000Y0260656D01*
X0131000Y0257944D01*
X0131702Y0255324D01*
X0132293Y0254300D01*
X0131702Y0253276D01*
X0131000Y0250656D01*
X0131000Y0247944D01*
X0131702Y0245324D01*
X0131947Y0244900D01*
X0116653Y0244900D01*
X0117600Y0248445D02*
X0131000Y0248445D01*
X0131864Y0255043D02*
X0116736Y0255043D01*
X0117336Y0261642D02*
X0131264Y0261642D01*
X0134076Y0268240D02*
X0114523Y0268240D01*
X0091982Y0274839D02*
X0029900Y0274839D01*
X0029900Y0281437D02*
X0059010Y0281437D01*
X0055000Y0288036D02*
X0029900Y0288036D01*
X0029900Y0294634D02*
X0055000Y0294634D01*
X0055000Y0301233D02*
X0029900Y0301233D01*
X0029900Y0307832D02*
X0055000Y0307832D01*
X0055000Y0314430D02*
X0029900Y0314430D01*
X0029900Y0321029D02*
X0055000Y0321029D01*
X0055612Y0327627D02*
X0029900Y0327627D01*
X0029900Y0334226D02*
X0074335Y0334226D01*
X0069868Y0340824D02*
X0029900Y0340824D01*
X0029900Y0347423D02*
X0069858Y0347423D01*
X0074527Y0354021D02*
X0029900Y0354021D01*
X0029900Y0360620D02*
X0113700Y0360620D01*
X0113700Y0367218D02*
X0029900Y0367218D01*
X0029900Y0373817D02*
X0113700Y0373817D01*
X0113700Y0380415D02*
X0029900Y0380415D01*
X0029900Y0387014D02*
X0117023Y0387014D01*
X0116140Y0393612D02*
X0172460Y0393612D01*
X0176140Y0393612D02*
X0178700Y0393612D01*
X0164215Y0400211D02*
X0124385Y0400211D01*
X0124809Y0406809D02*
X0163791Y0406809D01*
X0163500Y0413408D02*
X0125100Y0413408D01*
X0124292Y0420006D02*
X0164308Y0420006D01*
X0163737Y0426605D02*
X0124863Y0426605D01*
X0125100Y0433203D02*
X0163500Y0433203D01*
X0164426Y0439802D02*
X0158050Y0439802D01*
X0159295Y0446400D02*
X0163682Y0446400D01*
X0163500Y0452999D02*
X0162600Y0452999D01*
X0161478Y0459597D02*
X0164544Y0459597D01*
X0163627Y0466196D02*
X0162455Y0466196D01*
X0162560Y0472794D02*
X0163522Y0472794D01*
X0164662Y0479393D02*
X0161360Y0479393D01*
X0162510Y0485991D02*
X0163572Y0485991D01*
X0163577Y0492590D02*
X0162505Y0492590D01*
X0161371Y0499188D02*
X0164652Y0499188D01*
X0163517Y0505787D02*
X0162565Y0505787D01*
X0163632Y0512385D02*
X0158781Y0512385D01*
X0164533Y0518984D02*
X0123701Y0518984D01*
X0125100Y0525582D02*
X0163500Y0525582D01*
X0163687Y0532181D02*
X0124913Y0532181D01*
X0124185Y0538779D02*
X0138257Y0538779D01*
X0149300Y0544300D02*
X0174300Y0544300D01*
X0139819Y0512385D02*
X0121862Y0512385D01*
X0128835Y0505787D02*
X0136035Y0505787D01*
X0075000Y0505787D02*
X0054900Y0505787D01*
X0054920Y0512385D02*
X0075000Y0512385D01*
X0075000Y0518984D02*
X0072232Y0518984D01*
X0064143Y0532528D02*
X0064143Y0559300D01*
X0064300Y0559300D01*
X0064300Y0579300D01*
X0053700Y0569016D02*
X0053700Y0565891D01*
X0053161Y0564591D01*
X0053161Y0554009D01*
X0053543Y0553089D01*
X0053543Y0545078D01*
X0051816Y0546804D01*
X0049084Y0548382D01*
X0046035Y0549198D01*
X0042880Y0549198D01*
X0039831Y0548382D01*
X0037098Y0546804D01*
X0034867Y0544572D01*
X0033289Y0541839D01*
X0032472Y0538791D01*
X0032472Y0526265D01*
X0033289Y0523217D01*
X0033788Y0522354D01*
X0033710Y0510889D01*
X0033700Y0510853D01*
X0033700Y0509900D01*
X0029900Y0509900D01*
X0029900Y0658700D01*
X0318700Y0658700D01*
X0318700Y0642904D01*
X0319000Y0641785D01*
X0319000Y0639944D01*
X0319702Y0637324D01*
X0321058Y0634976D01*
X0322976Y0633058D01*
X0325324Y0631702D01*
X0327944Y0631000D01*
X0330000Y0631000D01*
X0330000Y0607450D01*
X0331416Y0604032D01*
X0334032Y0601416D01*
X0337450Y0600000D01*
X0400000Y0600000D01*
X0400000Y0555300D01*
X0397852Y0555300D01*
X0395054Y0554550D01*
X0394300Y0554115D01*
X0393546Y0554550D01*
X0390748Y0555300D01*
X0387852Y0555300D01*
X0385054Y0554550D01*
X0383600Y0553711D01*
X0383600Y0576150D01*
X0382184Y0579568D01*
X0379568Y0582184D01*
X0376150Y0583600D01*
X0192277Y0583600D01*
X0192300Y0583776D01*
X0192300Y0584300D01*
X0192300Y0584824D01*
X0192163Y0585864D01*
X0191892Y0586877D01*
X0191490Y0587846D01*
X0190966Y0588754D01*
X0190328Y0589586D01*
X0189586Y0590328D01*
X0188754Y0590966D01*
X0187846Y0591490D01*
X0186877Y0591892D01*
X0185864Y0592163D01*
X0184824Y0592300D01*
X0184300Y0592300D01*
X0184300Y0584300D01*
X0192300Y0584300D01*
X0184300Y0584300D01*
X0184300Y0584300D01*
X0184300Y0584300D01*
X0184300Y0584300D01*
X0176300Y0584300D01*
X0176300Y0584824D01*
X0176437Y0585864D01*
X0176708Y0586877D01*
X0177110Y0587846D01*
X0177634Y0588754D01*
X0178272Y0589586D01*
X0179014Y0590328D01*
X0179846Y0590966D01*
X0180754Y0591490D01*
X0181723Y0591892D01*
X0182736Y0592163D01*
X0183776Y0592300D01*
X0184300Y0592300D01*
X0184300Y0584300D01*
X0176300Y0584300D01*
X0176300Y0583776D01*
X0176323Y0583600D01*
X0165300Y0583600D01*
X0165300Y0585748D01*
X0164900Y0587241D01*
X0164900Y0587334D01*
X0165542Y0587976D01*
X0166898Y0590324D01*
X0167600Y0592944D01*
X0167600Y0595656D01*
X0166898Y0598276D01*
X0166307Y0599300D01*
X0166898Y0600324D01*
X0167600Y0602944D01*
X0167600Y0605656D01*
X0166898Y0608276D01*
X0165542Y0610624D01*
X0164900Y0611266D01*
X0164900Y0611701D01*
X0165734Y0613714D01*
X0165734Y0624886D01*
X0164900Y0626899D01*
X0164900Y0632467D01*
X0164178Y0635163D01*
X0162782Y0637580D01*
X0160809Y0639554D01*
X0158391Y0640949D01*
X0155696Y0641672D01*
X0129567Y0641672D01*
X0128733Y0643116D01*
X0126502Y0645347D01*
X0123769Y0646925D01*
X0120720Y0647742D01*
X0117565Y0647742D01*
X0114516Y0646925D01*
X0111784Y0645347D01*
X0109552Y0643116D01*
X0109300Y0642679D01*
X0109048Y0643116D01*
X0106816Y0645347D01*
X0104084Y0646925D01*
X0101035Y0647742D01*
X0097880Y0647742D01*
X0094831Y0646925D01*
X0092098Y0645347D01*
X0089867Y0643116D01*
X0088289Y0640383D01*
X0087472Y0637335D01*
X0087472Y0624809D01*
X0088289Y0621761D01*
X0088700Y0621049D01*
X0088700Y0614900D01*
X0050891Y0614900D01*
X0049591Y0615439D01*
X0049465Y0615439D01*
X0051816Y0616796D01*
X0054048Y0619028D01*
X0055626Y0621761D01*
X0055904Y0622798D01*
X0056067Y0622404D01*
X0056656Y0621384D01*
X0057373Y0620450D01*
X0058206Y0619617D01*
X0059140Y0618900D01*
X0060160Y0618311D01*
X0061248Y0617860D01*
X0062386Y0617555D01*
X0063554Y0617402D01*
X0064142Y0617402D01*
X0064142Y0631072D01*
X0064142Y0644742D01*
X0063554Y0644742D01*
X0062386Y0644588D01*
X0061248Y0644283D01*
X0060160Y0643832D01*
X0059140Y0643244D01*
X0058206Y0642526D01*
X0057373Y0641694D01*
X0056656Y0640759D01*
X0056067Y0639739D01*
X0055904Y0639345D01*
X0055626Y0640383D01*
X0054048Y0643116D01*
X0051816Y0645347D01*
X0049084Y0646925D01*
X0046035Y0647742D01*
X0042880Y0647742D01*
X0039831Y0646925D01*
X0037098Y0645347D01*
X0034867Y0643116D01*
X0033289Y0640383D01*
X0032472Y0637335D01*
X0032472Y0624809D01*
X0033289Y0621761D01*
X0034867Y0619028D01*
X0037098Y0616796D01*
X0039450Y0615439D01*
X0039009Y0615439D01*
X0036326Y0614327D01*
X0034273Y0612274D01*
X0033161Y0609591D01*
X0033161Y0599009D01*
X0033700Y0597709D01*
X0033700Y0577904D01*
X0034000Y0576785D01*
X0034000Y0574944D01*
X0034702Y0572324D01*
X0036058Y0569976D01*
X0037976Y0568058D01*
X0040324Y0566702D01*
X0042944Y0566000D01*
X0045656Y0566000D01*
X0048276Y0566702D01*
X0050624Y0568058D01*
X0051942Y0569375D01*
X0051948Y0569373D01*
X0052873Y0569125D01*
X0053700Y0569016D01*
X0053403Y0565173D02*
X0029900Y0565173D01*
X0029900Y0558575D02*
X0053161Y0558575D01*
X0053543Y0551976D02*
X0029900Y0551976D01*
X0029900Y0545378D02*
X0035673Y0545378D01*
X0032472Y0538779D02*
X0029900Y0538779D01*
X0029900Y0532181D02*
X0032472Y0532181D01*
X0032655Y0525582D02*
X0029900Y0525582D01*
X0029900Y0518984D02*
X0033765Y0518984D01*
X0033720Y0512385D02*
X0029900Y0512385D01*
X0044300Y0509457D02*
X0044300Y0499300D01*
X0044300Y0479300D01*
X0044300Y0469300D02*
X0044300Y0449300D01*
X0049849Y0439802D02*
X0075000Y0439802D01*
X0075000Y0446400D02*
X0054911Y0446400D01*
X0054900Y0452999D02*
X0075000Y0452999D01*
X0075000Y0459597D02*
X0054900Y0459597D01*
X0057132Y0466196D02*
X0075000Y0466196D01*
X0075000Y0472794D02*
X0057027Y0472794D01*
X0057600Y0479393D02*
X0075000Y0479393D01*
X0075000Y0485991D02*
X0055175Y0485991D01*
X0054900Y0492590D02*
X0075000Y0492590D01*
X0075000Y0499188D02*
X0054900Y0499188D01*
X0044300Y0499300D02*
X0019300Y0499300D01*
X0019300Y0234300D01*
X0164300Y0234300D01*
X0164300Y0279300D01*
X0144300Y0279300D01*
X0138824Y0269300D02*
X0138824Y0269300D01*
X0138824Y0269300D01*
X0174900Y0268240D02*
X0175000Y0268240D01*
X0174900Y0261642D02*
X0175000Y0261642D01*
X0174900Y0255043D02*
X0175000Y0255043D01*
X0174900Y0248445D02*
X0175000Y0248445D01*
X0174900Y0241846D02*
X0175000Y0241846D01*
X0174900Y0235248D02*
X0175000Y0235248D01*
X0174900Y0232904D02*
X0174900Y0280696D01*
X0174678Y0281525D01*
X0175000Y0281848D01*
X0175000Y0173600D01*
X0154571Y0173600D01*
X0154600Y0173822D01*
X0154600Y0174300D01*
X0154600Y0174778D01*
X0154475Y0175727D01*
X0154227Y0176652D01*
X0154225Y0176658D01*
X0155542Y0177976D01*
X0156898Y0180324D01*
X0157600Y0182944D01*
X0157600Y0185656D01*
X0156898Y0188276D01*
X0155542Y0190624D01*
X0153624Y0192542D01*
X0151276Y0193898D01*
X0148656Y0194600D01*
X0146815Y0194600D01*
X0145696Y0194900D01*
X0133500Y0194900D01*
X0133832Y0195475D01*
X0134283Y0196563D01*
X0134588Y0197701D01*
X0134742Y0198869D01*
X0134742Y0199457D01*
X0121072Y0199457D01*
X0121072Y0199458D01*
X0134742Y0199458D01*
X0134742Y0200046D01*
X0134588Y0201214D01*
X0134283Y0202352D01*
X0133832Y0203440D01*
X0133244Y0204460D01*
X0132526Y0205394D01*
X0131694Y0206227D01*
X0130759Y0206944D01*
X0129739Y0207533D01*
X0129345Y0207696D01*
X0130383Y0207974D01*
X0133116Y0209552D01*
X0135347Y0211784D01*
X0136925Y0214516D01*
X0137742Y0217565D01*
X0137742Y0220720D01*
X0136943Y0223700D01*
X0165696Y0223700D01*
X0168391Y0224422D01*
X0170809Y0225818D01*
X0172782Y0227791D01*
X0174178Y0230209D01*
X0174900Y0232904D01*
X0175000Y0228649D02*
X0173277Y0228649D01*
X0175000Y0222051D02*
X0137385Y0222051D01*
X0137176Y0215452D02*
X0175000Y0215452D01*
X0175000Y0208854D02*
X0131906Y0208854D01*
X0134309Y0202255D02*
X0175000Y0202255D01*
X0175000Y0195657D02*
X0133908Y0195657D01*
X0121072Y0199457D02*
X0107402Y0199457D01*
X0107402Y0198869D01*
X0107555Y0197701D01*
X0107860Y0196563D01*
X0108311Y0195475D01*
X0108643Y0194900D01*
X0029900Y0194900D01*
X0029900Y0208700D01*
X0046060Y0208700D01*
X0110739Y0208564D01*
X0111761Y0207974D01*
X0112798Y0207696D01*
X0112404Y0207533D01*
X0111384Y0206944D01*
X0110450Y0206227D01*
X0109617Y0205394D01*
X0108900Y0204460D01*
X0108311Y0203440D01*
X0107860Y0202352D01*
X0107555Y0201214D01*
X0107402Y0200046D01*
X0107402Y0199458D01*
X0121072Y0199458D01*
X0121072Y0199457D01*
X0108236Y0195657D02*
X0029900Y0195657D01*
X0029900Y0202255D02*
X0107834Y0202255D01*
X0121072Y0219143D02*
X0046072Y0219300D01*
X0019300Y0219300D01*
X0019300Y0184300D01*
X0109300Y0184300D01*
X0144300Y0184300D01*
X0149776Y0174300D02*
X0149776Y0174300D01*
X0149776Y0174300D01*
X0154600Y0174300D01*
X0149776Y0174300D01*
X0154439Y0175861D02*
X0175000Y0175861D01*
X0175000Y0182460D02*
X0157470Y0182460D01*
X0156446Y0189058D02*
X0175000Y0189058D01*
X0166737Y0155000D02*
X0151792Y0155000D01*
X0151276Y0154702D01*
X0148656Y0154000D01*
X0139944Y0154000D01*
X0137324Y0154702D01*
X0134976Y0156058D01*
X0133058Y0157976D01*
X0131702Y0160324D01*
X0131000Y0162944D01*
X0131000Y0165656D01*
X0131702Y0168276D01*
X0133058Y0170624D01*
X0134375Y0171942D01*
X0134373Y0171948D01*
X0134125Y0172873D01*
X0134016Y0173700D01*
X0119900Y0173700D01*
X0119900Y0089900D01*
X0163700Y0089900D01*
X0163700Y0112334D01*
X0163058Y0112976D01*
X0161702Y0115324D01*
X0161000Y0117944D01*
X0161000Y0120656D01*
X0161702Y0123276D01*
X0162293Y0124300D01*
X0161702Y0125324D01*
X0161000Y0127944D01*
X0161000Y0130656D01*
X0161702Y0133276D01*
X0162293Y0134300D01*
X0161702Y0135324D01*
X0161000Y0137944D01*
X0161000Y0140656D01*
X0161702Y0143276D01*
X0163058Y0145624D01*
X0164375Y0146942D01*
X0164373Y0146948D01*
X0164125Y0147873D01*
X0164000Y0148822D01*
X0164000Y0149300D01*
X0168825Y0149300D01*
X0168824Y0149300D01*
X0164000Y0149300D01*
X0164000Y0149778D01*
X0164125Y0150727D01*
X0164373Y0151652D01*
X0164739Y0152536D01*
X0165217Y0153364D01*
X0165800Y0154124D01*
X0166476Y0154800D01*
X0166737Y0155000D01*
X0164000Y0149467D02*
X0119900Y0149467D01*
X0119900Y0142869D02*
X0161593Y0142869D01*
X0161448Y0136270D02*
X0119900Y0136270D01*
X0119900Y0129672D02*
X0161000Y0129672D01*
X0161648Y0123073D02*
X0119900Y0123073D01*
X0119900Y0116475D02*
X0161394Y0116475D01*
X0163700Y0109876D02*
X0119900Y0109876D01*
X0119900Y0103278D02*
X0163700Y0103278D01*
X0163700Y0096679D02*
X0119900Y0096679D01*
X0119900Y0090081D02*
X0163700Y0090081D01*
X0174300Y0079300D02*
X0204300Y0079300D01*
X0174300Y0079300D02*
X0174300Y0119300D01*
X0134968Y0156066D02*
X0119900Y0156066D01*
X0119900Y0162664D02*
X0131075Y0162664D01*
X0132272Y0169263D02*
X0119900Y0169263D01*
X0019300Y0219300D02*
X0019300Y0234300D01*
X0097617Y0354021D02*
X0113700Y0354021D01*
X0112460Y0393612D02*
X0029900Y0393612D01*
X0029900Y0400211D02*
X0104215Y0400211D01*
X0103791Y0406809D02*
X0029900Y0406809D01*
X0029900Y0413408D02*
X0038879Y0413408D01*
X0039014Y0413272D02*
X0039846Y0412634D01*
X0040754Y0412110D01*
X0041723Y0411708D01*
X0042736Y0411437D01*
X0043776Y0411300D01*
X0044300Y0411300D01*
X0044824Y0411300D01*
X0045864Y0411437D01*
X0046877Y0411708D01*
X0047846Y0412110D01*
X0048754Y0412634D01*
X0049586Y0413272D01*
X0050328Y0414014D01*
X0050966Y0414846D01*
X0051490Y0415754D01*
X0051892Y0416723D01*
X0052163Y0417736D01*
X0052300Y0418776D01*
X0052300Y0419300D01*
X0052300Y0419824D01*
X0052163Y0420864D01*
X0051892Y0421877D01*
X0051490Y0422846D01*
X0050966Y0423754D01*
X0050328Y0424586D01*
X0049586Y0425328D01*
X0048754Y0425966D01*
X0047846Y0426490D01*
X0046877Y0426892D01*
X0045864Y0427163D01*
X0044824Y0427300D01*
X0044300Y0427300D01*
X0044300Y0419300D01*
X0044300Y0419300D01*
X0052300Y0419300D01*
X0044300Y0419300D01*
X0044300Y0419300D01*
X0044300Y0419300D01*
X0036300Y0419300D01*
X0036300Y0419824D01*
X0036437Y0420864D01*
X0036708Y0421877D01*
X0037110Y0422846D01*
X0037634Y0423754D01*
X0038272Y0424586D01*
X0039014Y0425328D01*
X0039846Y0425966D01*
X0040754Y0426490D01*
X0041723Y0426892D01*
X0042736Y0427163D01*
X0043776Y0427300D01*
X0044300Y0427300D01*
X0044300Y0419300D01*
X0044300Y0411300D01*
X0044300Y0419300D01*
X0044300Y0419300D01*
X0036300Y0419300D01*
X0036300Y0418776D01*
X0036437Y0417736D01*
X0036708Y0416723D01*
X0037110Y0415754D01*
X0037634Y0414846D01*
X0038272Y0414014D01*
X0039014Y0413272D01*
X0044300Y0413408D02*
X0044300Y0413408D01*
X0049721Y0413408D02*
X0103500Y0413408D01*
X0104308Y0420006D02*
X0052276Y0420006D01*
X0044300Y0420006D02*
X0044300Y0420006D01*
X0044300Y0426605D02*
X0044300Y0426605D01*
X0041030Y0426605D02*
X0029900Y0426605D01*
X0029900Y0433203D02*
X0075000Y0433203D01*
X0078843Y0426605D02*
X0047570Y0426605D01*
X0036324Y0420006D02*
X0029900Y0420006D01*
X0029900Y0439802D02*
X0038751Y0439802D01*
X0033689Y0446400D02*
X0029900Y0446400D01*
X0029900Y0452999D02*
X0033700Y0452999D01*
X0033700Y0459597D02*
X0029900Y0459597D01*
X0029900Y0466196D02*
X0031468Y0466196D01*
X0031573Y0472794D02*
X0029900Y0472794D01*
X0029900Y0479393D02*
X0031000Y0479393D01*
X0029900Y0485991D02*
X0033425Y0485991D01*
X0019300Y0499300D02*
X0019300Y0669300D01*
X0329300Y0669300D01*
X0329300Y0644300D01*
X0318700Y0644356D02*
X0127493Y0644356D01*
X0119143Y0631072D02*
X0154300Y0631072D01*
X0154300Y0619300D01*
X0154300Y0604300D01*
X0164900Y0611363D02*
X0330000Y0611363D01*
X0330000Y0617962D02*
X0165734Y0617962D01*
X0165734Y0624560D02*
X0330000Y0624560D01*
X0327352Y0631159D02*
X0164900Y0631159D01*
X0162605Y0637757D02*
X0319586Y0637757D01*
X0318700Y0650954D02*
X0029900Y0650954D01*
X0029900Y0644356D02*
X0036107Y0644356D01*
X0032586Y0637757D02*
X0029900Y0637757D01*
X0029900Y0631159D02*
X0032472Y0631159D01*
X0032539Y0624560D02*
X0029900Y0624560D01*
X0029900Y0617962D02*
X0035933Y0617962D01*
X0033896Y0611363D02*
X0029900Y0611363D01*
X0029900Y0604765D02*
X0033161Y0604765D01*
X0033511Y0598166D02*
X0029900Y0598166D01*
X0029900Y0591568D02*
X0033700Y0591568D01*
X0033700Y0584969D02*
X0029900Y0584969D01*
X0029900Y0578370D02*
X0033700Y0578370D01*
X0035021Y0571772D02*
X0029900Y0571772D01*
X0044300Y0579300D02*
X0044300Y0604300D01*
X0099300Y0604300D01*
X0099300Y0631072D01*
X0099457Y0631072D01*
X0087472Y0631159D02*
X0073128Y0631159D01*
X0073128Y0631072D02*
X0073128Y0636346D01*
X0072974Y0637513D01*
X0072669Y0638651D01*
X0072218Y0639739D01*
X0071629Y0640759D01*
X0070912Y0641694D01*
X0070079Y0642526D01*
X0069145Y0643244D01*
X0068125Y0643832D01*
X0067037Y0644283D01*
X0065899Y0644588D01*
X0064731Y0644742D01*
X0064143Y0644742D01*
X0064143Y0631072D01*
X0073128Y0631072D01*
X0064143Y0631072D01*
X0064143Y0631072D01*
X0064142Y0631072D01*
X0064143Y0631072D01*
X0064143Y0617402D01*
X0064731Y0617402D01*
X0065899Y0617555D01*
X0067037Y0617860D01*
X0068125Y0618311D01*
X0069145Y0618900D01*
X0070079Y0619617D01*
X0070912Y0620450D01*
X0071629Y0621384D01*
X0072218Y0622404D01*
X0072669Y0623492D01*
X0072974Y0624630D01*
X0073128Y0625798D01*
X0073128Y0631072D01*
X0072955Y0624560D02*
X0087539Y0624560D01*
X0088700Y0617962D02*
X0067282Y0617962D01*
X0064143Y0617962D02*
X0064142Y0617962D01*
X0061003Y0617962D02*
X0052982Y0617962D01*
X0064142Y0624560D02*
X0064143Y0624560D01*
X0064142Y0631159D02*
X0064143Y0631159D01*
X0064142Y0637757D02*
X0064143Y0637757D01*
X0064142Y0644356D02*
X0064143Y0644356D01*
X0066766Y0644356D02*
X0091107Y0644356D01*
X0087586Y0637757D02*
X0072909Y0637757D01*
X0061519Y0644356D02*
X0052808Y0644356D01*
X0029900Y0657553D02*
X0318700Y0657553D01*
X0329300Y0669300D02*
X0379300Y0669300D01*
X0379300Y0644300D01*
X0389300Y0638824D02*
X0389300Y0638824D01*
X0389300Y0638824D01*
X0389300Y0634000D01*
X0389778Y0634000D01*
X0390727Y0634125D01*
X0391652Y0634373D01*
X0391658Y0634375D01*
X0392976Y0633058D01*
X0395324Y0631702D01*
X0397944Y0631000D01*
X0400656Y0631000D01*
X0403276Y0631702D01*
X0405624Y0633058D01*
X0407542Y0634976D01*
X0408898Y0637324D01*
X0409600Y0639944D01*
X0409600Y0648656D01*
X0409240Y0650000D01*
X0430000Y0650000D01*
X0430000Y0613001D01*
X0429273Y0612274D01*
X0428600Y0610649D01*
X0428600Y0621150D01*
X0427184Y0624568D01*
X0424568Y0627184D01*
X0421150Y0628600D01*
X0358600Y0628600D01*
X0358600Y0634029D01*
X0358822Y0634000D01*
X0359300Y0634000D01*
X0359778Y0634000D01*
X0360727Y0634125D01*
X0361652Y0634373D01*
X0362536Y0634739D01*
X0363364Y0635217D01*
X0364124Y0635800D01*
X0364800Y0636476D01*
X0365383Y0637236D01*
X0365861Y0638064D01*
X0366227Y0638948D01*
X0366475Y0639873D01*
X0366600Y0640822D01*
X0366600Y0644300D01*
X0366600Y0647778D01*
X0366475Y0648727D01*
X0366227Y0649652D01*
X0365861Y0650536D01*
X0365383Y0651364D01*
X0364800Y0652124D01*
X0364124Y0652800D01*
X0363364Y0653383D01*
X0362536Y0653861D01*
X0361652Y0654227D01*
X0360727Y0654475D01*
X0359778Y0654600D01*
X0359300Y0654600D01*
X0359300Y0649775D01*
X0359300Y0649776D01*
X0359300Y0654600D01*
X0358822Y0654600D01*
X0357873Y0654475D01*
X0356948Y0654227D01*
X0356942Y0654225D01*
X0355624Y0655542D01*
X0353276Y0656898D01*
X0350656Y0657600D01*
X0347944Y0657600D01*
X0345324Y0656898D01*
X0344300Y0656307D01*
X0343276Y0656898D01*
X0340656Y0657600D01*
X0339900Y0657600D01*
X0339900Y0658700D01*
X0368700Y0658700D01*
X0368700Y0642904D01*
X0369000Y0641785D01*
X0369000Y0639944D01*
X0369702Y0637324D01*
X0371058Y0634976D01*
X0372976Y0633058D01*
X0375324Y0631702D01*
X0377944Y0631000D01*
X0380656Y0631000D01*
X0383276Y0631702D01*
X0385624Y0633058D01*
X0386942Y0634375D01*
X0386948Y0634373D01*
X0387873Y0634125D01*
X0388822Y0634000D01*
X0389300Y0634000D01*
X0389300Y0638824D01*
X0389300Y0637757D02*
X0389300Y0637757D01*
X0381248Y0631159D02*
X0397352Y0631159D01*
X0401248Y0631159D02*
X0430000Y0631159D01*
X0430000Y0637757D02*
X0409014Y0637757D01*
X0409600Y0644356D02*
X0430000Y0644356D01*
X0430000Y0624560D02*
X0427187Y0624560D01*
X0428600Y0617962D02*
X0430000Y0617962D01*
X0428896Y0611363D02*
X0428600Y0611363D01*
X0400000Y0598166D02*
X0166927Y0598166D01*
X0167231Y0591568D02*
X0180940Y0591568D01*
X0184300Y0591568D02*
X0184300Y0591568D01*
X0187660Y0591568D02*
X0400000Y0591568D01*
X0400000Y0584969D02*
X0192281Y0584969D01*
X0184300Y0584969D02*
X0184300Y0584969D01*
X0176319Y0584969D02*
X0165300Y0584969D01*
X0154300Y0584300D02*
X0154300Y0594300D01*
X0167600Y0604765D02*
X0331112Y0604765D01*
X0358600Y0631159D02*
X0377352Y0631159D01*
X0369586Y0637757D02*
X0365684Y0637757D01*
X0359300Y0637757D02*
X0359300Y0637757D01*
X0359300Y0638824D02*
X0359300Y0638825D01*
X0359300Y0634000D01*
X0359300Y0638824D01*
X0359600Y0644300D02*
X0359600Y0644300D01*
X0366600Y0644300D01*
X0359600Y0644300D01*
X0359300Y0650954D02*
X0359300Y0650954D01*
X0365620Y0650954D02*
X0368700Y0650954D01*
X0368700Y0644356D02*
X0366600Y0644356D01*
X0368700Y0657553D02*
X0350833Y0657553D01*
X0347767Y0657553D02*
X0340833Y0657553D01*
X0379300Y0669300D02*
X0734300Y0669300D01*
X0734300Y0624300D01*
X0689300Y0624300D01*
X0614300Y0624300D01*
X0603161Y0624560D02*
X0470439Y0624560D01*
X0470439Y0624009D02*
X0470439Y0634591D01*
X0469327Y0637274D01*
X0467274Y0639327D01*
X0464591Y0640439D01*
X0458600Y0640439D01*
X0458600Y0650599D01*
X0459327Y0651326D01*
X0460439Y0654009D01*
X0460439Y0658700D01*
X0723700Y0658700D01*
X0723700Y0651653D01*
X0723276Y0651898D01*
X0720656Y0652600D01*
X0717944Y0652600D01*
X0715324Y0651898D01*
X0714300Y0651307D01*
X0713276Y0651898D01*
X0710656Y0652600D01*
X0707944Y0652600D01*
X0705324Y0651898D01*
X0702976Y0650542D01*
X0701658Y0649225D01*
X0701652Y0649227D01*
X0700727Y0649475D01*
X0699778Y0649600D01*
X0699300Y0649600D01*
X0699300Y0644776D01*
X0699300Y0649600D01*
X0698822Y0649600D01*
X0697873Y0649475D01*
X0696948Y0649227D01*
X0696942Y0649225D01*
X0695624Y0650542D01*
X0693276Y0651898D01*
X0690656Y0652600D01*
X0687944Y0652600D01*
X0685324Y0651898D01*
X0684300Y0651307D01*
X0683276Y0651898D01*
X0680656Y0652600D01*
X0677944Y0652600D01*
X0675324Y0651898D01*
X0674300Y0651307D01*
X0673276Y0651898D01*
X0670656Y0652600D01*
X0667944Y0652600D01*
X0665324Y0651898D01*
X0662976Y0650542D01*
X0661058Y0648624D01*
X0659702Y0646276D01*
X0659000Y0643656D01*
X0659000Y0634944D01*
X0659012Y0634900D01*
X0654588Y0634900D01*
X0654600Y0634944D01*
X0654600Y0643656D01*
X0653898Y0646276D01*
X0652542Y0648624D01*
X0650624Y0650542D01*
X0648276Y0651898D01*
X0645656Y0652600D01*
X0642944Y0652600D01*
X0640324Y0651898D01*
X0639300Y0651307D01*
X0638276Y0651898D01*
X0635656Y0652600D01*
X0632944Y0652600D01*
X0630324Y0651898D01*
X0627976Y0650542D01*
X0626658Y0649225D01*
X0626652Y0649227D01*
X0625727Y0649475D01*
X0624778Y0649600D01*
X0624300Y0649600D01*
X0624300Y0644776D01*
X0624300Y0649600D01*
X0623822Y0649600D01*
X0622873Y0649475D01*
X0621948Y0649227D01*
X0621942Y0649225D01*
X0620624Y0650542D01*
X0618276Y0651898D01*
X0615656Y0652600D01*
X0612944Y0652600D01*
X0610324Y0651898D01*
X0609300Y0651307D01*
X0608276Y0651898D01*
X0605656Y0652600D01*
X0602944Y0652600D01*
X0600324Y0651898D01*
X0599300Y0651307D01*
X0598276Y0651898D01*
X0595656Y0652600D01*
X0592944Y0652600D01*
X0590324Y0651898D01*
X0587976Y0650542D01*
X0586058Y0648624D01*
X0584702Y0646276D01*
X0584000Y0643656D01*
X0584000Y0634944D01*
X0584702Y0632324D01*
X0586058Y0629976D01*
X0587976Y0628058D01*
X0590324Y0626702D01*
X0592944Y0626000D01*
X0595656Y0626000D01*
X0598276Y0626702D01*
X0599300Y0627293D01*
X0600324Y0626702D01*
X0602944Y0626000D01*
X0603161Y0626000D01*
X0603161Y0619009D01*
X0604273Y0616326D01*
X0606326Y0614273D01*
X0609009Y0613161D01*
X0619450Y0613161D01*
X0617098Y0611804D01*
X0614867Y0609572D01*
X0613289Y0606839D01*
X0612472Y0603791D01*
X0612472Y0591265D01*
X0613289Y0588217D01*
X0614867Y0585484D01*
X0617098Y0583253D01*
X0619831Y0581675D01*
X0622880Y0580858D01*
X0626035Y0580858D01*
X0629084Y0581675D01*
X0631816Y0583253D01*
X0634048Y0585484D01*
X0634300Y0585921D01*
X0634552Y0585484D01*
X0636784Y0583253D01*
X0639516Y0581675D01*
X0642565Y0580858D01*
X0645720Y0580858D01*
X0648769Y0581675D01*
X0651502Y0583253D01*
X0653733Y0585484D01*
X0655311Y0588217D01*
X0656128Y0591265D01*
X0656128Y0603791D01*
X0655311Y0606839D01*
X0653733Y0609572D01*
X0651502Y0611804D01*
X0648769Y0613382D01*
X0647580Y0613700D01*
X0682709Y0613700D01*
X0684009Y0613161D01*
X0694450Y0613161D01*
X0692098Y0611804D01*
X0689867Y0609572D01*
X0688289Y0606839D01*
X0687472Y0603791D01*
X0687472Y0591265D01*
X0688289Y0588217D01*
X0689867Y0585484D01*
X0692098Y0583253D01*
X0694831Y0581675D01*
X0697880Y0580858D01*
X0701035Y0580858D01*
X0704084Y0581675D01*
X0706816Y0583253D01*
X0709048Y0585484D01*
X0709300Y0585921D01*
X0709552Y0585484D01*
X0711784Y0583253D01*
X0714516Y0581675D01*
X0717565Y0580858D01*
X0720720Y0580858D01*
X0723769Y0581675D01*
X0726502Y0583253D01*
X0728733Y0585484D01*
X0730311Y0588217D01*
X0731128Y0591265D01*
X0731128Y0603791D01*
X0730311Y0606839D01*
X0728733Y0609572D01*
X0726502Y0611804D01*
X0723769Y0613382D01*
X0722580Y0613700D01*
X0735696Y0613700D01*
X0738391Y0614422D01*
X0740809Y0615818D01*
X0742782Y0617791D01*
X0744178Y0620209D01*
X0744231Y0620408D01*
X0744231Y0572400D01*
X0507689Y0572400D01*
X0504712Y0571167D01*
X0502433Y0568888D01*
X0501200Y0565911D01*
X0501200Y0555179D01*
X0500748Y0555300D01*
X0497852Y0555300D01*
X0495054Y0554550D01*
X0494300Y0554115D01*
X0493546Y0554550D01*
X0490748Y0555300D01*
X0487852Y0555300D01*
X0485054Y0554550D01*
X0484300Y0554115D01*
X0483546Y0554550D01*
X0480748Y0555300D01*
X0477852Y0555300D01*
X0475054Y0554550D01*
X0474300Y0554115D01*
X0473546Y0554550D01*
X0470748Y0555300D01*
X0468600Y0555300D01*
X0468600Y0620599D01*
X0469327Y0621326D01*
X0470439Y0624009D01*
X0468600Y0617962D02*
X0603595Y0617962D01*
X0593733Y0609572D02*
X0591502Y0611804D01*
X0588769Y0613382D01*
X0585720Y0614198D01*
X0582565Y0614198D01*
X0579516Y0613382D01*
X0576784Y0611804D01*
X0574552Y0609572D01*
X0572974Y0606839D01*
X0572696Y0605802D01*
X0572533Y0606196D01*
X0571944Y0607216D01*
X0571227Y0608150D01*
X0570394Y0608983D01*
X0569460Y0609700D01*
X0568440Y0610289D01*
X0567352Y0610740D01*
X0566214Y0611045D01*
X0565046Y0611198D01*
X0564458Y0611198D01*
X0564458Y0597528D01*
X0564458Y0583858D01*
X0565046Y0583858D01*
X0566214Y0584012D01*
X0567352Y0584317D01*
X0568440Y0584768D01*
X0569460Y0585356D01*
X0570394Y0586073D01*
X0571227Y0586906D01*
X0571944Y0587841D01*
X0572533Y0588861D01*
X0572696Y0589255D01*
X0572974Y0588217D01*
X0574552Y0585484D01*
X0576784Y0583253D01*
X0579516Y0581675D01*
X0582565Y0580858D01*
X0585720Y0580858D01*
X0588769Y0581675D01*
X0591502Y0583253D01*
X0593733Y0585484D01*
X0595311Y0588217D01*
X0596128Y0591265D01*
X0596128Y0603791D01*
X0595311Y0606839D01*
X0593733Y0609572D01*
X0591942Y0611363D02*
X0616658Y0611363D01*
X0612733Y0604765D02*
X0595867Y0604765D01*
X0596128Y0598166D02*
X0612472Y0598166D01*
X0612472Y0591568D02*
X0596128Y0591568D01*
X0593218Y0584969D02*
X0615382Y0584969D01*
X0633533Y0584969D02*
X0635067Y0584969D01*
X0653218Y0584969D02*
X0690382Y0584969D01*
X0687472Y0591568D02*
X0656128Y0591568D01*
X0656128Y0598166D02*
X0687472Y0598166D01*
X0687733Y0604765D02*
X0655867Y0604765D01*
X0651942Y0611363D02*
X0691658Y0611363D01*
X0708533Y0584969D02*
X0710067Y0584969D01*
X0728218Y0584969D02*
X0744231Y0584969D01*
X0744231Y0578370D02*
X0468600Y0578370D01*
X0468600Y0571772D02*
X0506173Y0571772D01*
X0501200Y0565173D02*
X0468600Y0565173D01*
X0468600Y0558575D02*
X0501200Y0558575D01*
X0501200Y0532181D02*
X0488600Y0532181D01*
X0490028Y0525582D02*
X0501200Y0525582D01*
X0501200Y0518984D02*
X0490439Y0518984D01*
X0489766Y0512385D02*
X0501200Y0512385D01*
X0501200Y0505787D02*
X0410300Y0505787D01*
X0410300Y0512385D02*
X0468834Y0512385D01*
X0462024Y0518984D02*
X0427136Y0518984D01*
X0428600Y0525582D02*
X0458161Y0525582D01*
X0458161Y0532181D02*
X0428600Y0532181D01*
X0400000Y0558575D02*
X0383600Y0558575D01*
X0383600Y0565173D02*
X0400000Y0565173D01*
X0400000Y0571772D02*
X0383600Y0571772D01*
X0382680Y0578370D02*
X0400000Y0578370D01*
X0468600Y0584969D02*
X0560126Y0584969D01*
X0560475Y0584768D02*
X0561563Y0584317D01*
X0562701Y0584012D01*
X0563869Y0583858D01*
X0564457Y0583858D01*
X0564457Y0597528D01*
X0555472Y0597528D01*
X0555472Y0592254D01*
X0555626Y0591087D01*
X0555931Y0589949D01*
X0556382Y0588861D01*
X0556971Y0587841D01*
X0557688Y0586906D01*
X0558521Y0586073D01*
X0559455Y0585356D01*
X0560475Y0584768D01*
X0564457Y0584969D02*
X0564458Y0584969D01*
X0568789Y0584969D02*
X0575067Y0584969D01*
X0564458Y0591568D02*
X0564457Y0591568D01*
X0564457Y0597528D02*
X0564458Y0597528D01*
X0564457Y0597528D01*
X0564457Y0597528D01*
X0555472Y0597528D01*
X0555472Y0602802D01*
X0555626Y0603970D01*
X0555931Y0605108D01*
X0556382Y0606196D01*
X0556971Y0607216D01*
X0557688Y0608150D01*
X0558521Y0608983D01*
X0559455Y0609700D01*
X0560475Y0610289D01*
X0561563Y0610740D01*
X0562701Y0611045D01*
X0563869Y0611198D01*
X0564457Y0611198D01*
X0564457Y0597528D01*
X0564457Y0598166D02*
X0564458Y0598166D01*
X0564457Y0604765D02*
X0564458Y0604765D01*
X0555839Y0604765D02*
X0468600Y0604765D01*
X0468600Y0611363D02*
X0576343Y0611363D01*
X0585375Y0631159D02*
X0470439Y0631159D01*
X0468844Y0637757D02*
X0584000Y0637757D01*
X0584187Y0644356D02*
X0458600Y0644356D01*
X0458955Y0650954D02*
X0588689Y0650954D01*
X0619911Y0650954D02*
X0628689Y0650954D01*
X0624300Y0644776D02*
X0624300Y0644776D01*
X0624300Y0644776D01*
X0649911Y0650954D02*
X0663689Y0650954D01*
X0659187Y0644356D02*
X0654413Y0644356D01*
X0654600Y0637757D02*
X0659000Y0637757D01*
X0694911Y0650954D02*
X0703689Y0650954D01*
X0699300Y0644776D02*
X0699300Y0644776D01*
X0699300Y0644776D01*
X0723700Y0657553D02*
X0460439Y0657553D01*
X0468600Y0598166D02*
X0555472Y0598166D01*
X0555563Y0591568D02*
X0468600Y0591568D01*
X0501200Y0499188D02*
X0409968Y0499188D01*
X0410300Y0492590D02*
X0501200Y0492590D01*
X0501200Y0485991D02*
X0410300Y0485991D01*
X0409949Y0479393D02*
X0501200Y0479393D01*
X0501200Y0472794D02*
X0410300Y0472794D01*
X0410300Y0466196D02*
X0501200Y0466196D01*
X0501200Y0459597D02*
X0410154Y0459597D01*
X0410300Y0452999D02*
X0501200Y0452999D01*
X0501200Y0446400D02*
X0410300Y0446400D01*
X0410300Y0439802D02*
X0501200Y0439802D01*
X0501200Y0433203D02*
X0410300Y0433203D01*
X0410300Y0426605D02*
X0501200Y0426605D01*
X0501200Y0420006D02*
X0410300Y0420006D01*
X0410300Y0413408D02*
X0501200Y0413408D01*
X0501200Y0406809D02*
X0410300Y0406809D01*
X0410300Y0400211D02*
X0501200Y0400211D01*
X0501200Y0393612D02*
X0410300Y0393612D01*
X0498242Y0387014D02*
X0501200Y0387014D01*
X0501200Y0380415D02*
X0498600Y0380415D01*
X0498600Y0373817D02*
X0501200Y0373817D01*
X0501200Y0367218D02*
X0498600Y0367218D01*
X0498600Y0360620D02*
X0501200Y0360620D01*
X0501200Y0354021D02*
X0498600Y0354021D01*
X0498600Y0347423D02*
X0501200Y0347423D01*
X0731128Y0591568D02*
X0744231Y0591568D01*
X0744231Y0598166D02*
X0731128Y0598166D01*
X0730867Y0604765D02*
X0744231Y0604765D01*
X0744231Y0611363D02*
X0726942Y0611363D01*
X0742880Y0617962D02*
X0744231Y0617962D01*
X0189300Y0414300D02*
X0174300Y0414300D01*
X0149300Y0439802D02*
X0149300Y0439802D01*
X0140550Y0439802D02*
X0124174Y0439802D01*
X0056053Y0518984D02*
X0054965Y0518984D01*
X0044300Y0509457D02*
X0044457Y0532528D01*
X0053242Y0545378D02*
X0053543Y0545378D01*
X0107808Y0644356D02*
X0110792Y0644356D01*
X0174701Y0281437D02*
X0175000Y0281437D01*
X0174900Y0274839D02*
X0175000Y0274839D01*
D16*
X0169300Y0329300D03*
X0159300Y0339300D03*
X0214300Y0404300D03*
X0224300Y0394300D03*
X0204300Y0414300D03*
X0189300Y0414300D03*
X0219300Y0449300D03*
X0219300Y0469300D03*
X0249300Y0459300D03*
X0259300Y0439300D03*
X0269300Y0504300D03*
X0249300Y0509300D03*
X0219300Y0504300D03*
X0204300Y0514300D03*
X0149300Y0544300D03*
X0129300Y0494300D03*
X0129300Y0484300D03*
X0129300Y0474300D03*
X0129300Y0464300D03*
X0129300Y0454300D03*
X0054300Y0374300D03*
X0159300Y0204300D03*
X0144300Y0134300D03*
X0249300Y0309300D03*
X0374300Y0454300D03*
X0374300Y0464300D03*
X0374300Y0474300D03*
X0299300Y0509300D03*
X0319300Y0544300D03*
X0419300Y0639300D03*
X0449300Y0659300D03*
X0459300Y0629300D03*
X0439300Y0604300D03*
X0439300Y0589300D03*
X0429300Y0579300D03*
X0469300Y0529300D03*
X0479300Y0519300D03*
X0614300Y0624300D03*
X0689300Y0624300D03*
X0479300Y0369300D03*
X0619300Y0204300D03*
X0554300Y0069300D03*
X0064300Y0559300D03*
X0044300Y0604300D03*
X0214300Y0604300D03*
D17*
X0219300Y0544300D02*
X0269300Y0544300D01*
X0269300Y0504300D01*
X0249300Y0509300D02*
X0249300Y0494300D01*
X0184300Y0494300D01*
X0184300Y0484300D01*
X0174300Y0484300D01*
X0174300Y0474300D02*
X0194300Y0474300D01*
X0194300Y0484300D01*
X0309300Y0484300D01*
X0309300Y0544300D01*
X0269300Y0544300D01*
X0299300Y0509300D02*
X0299300Y0494300D01*
X0249300Y0494300D01*
X0219300Y0504300D02*
X0219300Y0544300D01*
X0129300Y0494300D02*
X0114300Y0504300D01*
X0114300Y0494300D02*
X0129300Y0484300D01*
X0129300Y0474300D02*
X0114300Y0484300D01*
X0114300Y0474300D02*
X0129300Y0464300D01*
X0129300Y0454300D02*
X0114300Y0464300D01*
X0114300Y0454300D02*
X0104300Y0454300D01*
X0104300Y0554300D01*
X0354300Y0554300D01*
X0354300Y0514300D01*
X0389300Y0514300D01*
X0389300Y0524300D02*
X0364300Y0524300D01*
X0364300Y0564300D01*
X0094300Y0564300D01*
X0094300Y0444300D01*
X0114300Y0444300D01*
X0114300Y0434300D02*
X0084300Y0434300D01*
X0084300Y0574300D01*
X0374300Y0574300D01*
X0374300Y0534300D01*
X0389300Y0534300D01*
X0399300Y0534300D02*
X0409300Y0534300D01*
X0409300Y0609300D01*
X0339300Y0609300D01*
X0339300Y0644300D01*
X0349300Y0644300D02*
X0349300Y0619300D01*
X0419300Y0619300D01*
X0419300Y0524300D01*
X0399300Y0524300D01*
X0429300Y0544300D02*
X0429300Y0579300D01*
X0439300Y0589300D02*
X0439300Y0544300D01*
X0449300Y0544300D02*
X0449300Y0659300D01*
X0439300Y0659300D02*
X0439300Y0604300D01*
X0459300Y0629300D02*
X0459300Y0544300D01*
X0469300Y0544300D02*
X0469300Y0529300D01*
X0479300Y0519300D02*
X0479300Y0544300D01*
X0389300Y0474300D02*
X0374300Y0474300D01*
X0374300Y0464300D02*
X0389300Y0464300D01*
X0389300Y0454300D02*
X0374300Y0454300D01*
X0389300Y0444300D02*
X0294300Y0444300D01*
X0294300Y0419300D01*
X0234300Y0419300D01*
X0234300Y0339300D01*
X0214300Y0339300D01*
X0214300Y0079300D01*
X0224300Y0079300D02*
X0224300Y0329300D01*
X0244300Y0329300D01*
X0244300Y0409300D01*
X0304300Y0409300D01*
X0304300Y0434300D01*
X0389300Y0434300D01*
X0389300Y0424300D02*
X0314300Y0424300D01*
X0314300Y0294300D01*
X0404300Y0294300D01*
X0404300Y0164300D01*
X0519300Y0164300D01*
X0519300Y0049300D01*
X0534300Y0049300D01*
X0534300Y0034300D01*
X0544300Y0034300D02*
X0544300Y0059300D01*
X0529300Y0059300D01*
X0529300Y0174300D01*
X0414300Y0174300D01*
X0414300Y0304300D01*
X0324300Y0304300D01*
X0324300Y0414300D01*
X0389300Y0414300D01*
X0389300Y0404300D02*
X0334300Y0404300D01*
X0334300Y0314300D01*
X0424300Y0314300D01*
X0424300Y0184300D01*
X0539300Y0184300D01*
X0539300Y0094300D01*
X0574300Y0094300D01*
X0574300Y0104300D02*
X0549300Y0104300D01*
X0549300Y0194300D01*
X0434300Y0194300D01*
X0434300Y0324300D01*
X0344300Y0324300D01*
X0344300Y0394300D01*
X0389300Y0394300D01*
X0389300Y0384300D02*
X0354300Y0384300D01*
X0354300Y0339300D01*
X0444300Y0339300D01*
X0444300Y0204300D01*
X0559300Y0204300D01*
X0559300Y0139300D01*
X0589300Y0139300D01*
X0524300Y0239300D02*
X0524300Y0269300D01*
X0524300Y0279300D02*
X0489300Y0279300D01*
X0489300Y0384300D01*
X0399300Y0384300D01*
X0479300Y0369300D02*
X0479300Y0354300D01*
X0274300Y0439300D02*
X0259300Y0439300D01*
X0234300Y0439300D01*
X0234300Y0449300D02*
X0219300Y0449300D01*
X0204300Y0414300D02*
X0204300Y0369300D01*
X0184300Y0369300D01*
X0184300Y0164300D01*
X0144300Y0164300D01*
X0174300Y0139300D02*
X0194300Y0139300D01*
X0194300Y0359300D01*
X0214300Y0359300D01*
X0214300Y0404300D01*
X0224300Y0394300D02*
X0224300Y0349300D01*
X0204300Y0349300D01*
X0204300Y0129300D01*
X0174300Y0129300D01*
X0169300Y0289300D02*
X0144300Y0289300D01*
X0144300Y0299300D02*
X0159300Y0299300D01*
X0159300Y0339300D01*
X0169300Y0329300D02*
X0169300Y0289300D01*
X0114300Y0299300D02*
X0114300Y0344300D01*
X0101072Y0344300D01*
X0086072Y0344143D01*
X0086072Y0324457D02*
X0067528Y0324300D01*
X0064300Y0324300D01*
X0064300Y0289300D01*
X0104300Y0289300D01*
X0104300Y0299300D02*
X0114300Y0299300D01*
X0399300Y0644300D02*
X0399300Y0659300D01*
X0439300Y0659300D01*
D18*
X0154300Y0619300D03*
M02*
