%
M48
M72
T01C0.03543
T02C0.04000
T03C0.05118
T04C0.05512
T05C0.12598
%
T01
X44300Y419300
X44300Y449300
X154300Y584300
X184300Y584300
X524300Y239300
X554300Y239300
T02
X584300Y259300
X594300Y259300
X604300Y259300
X614300Y259300
X624300Y259300
X634300Y259300
X669300Y259300
X679300Y259300
X689300Y259300
X699300Y259300
X709300Y259300
X719300Y259300
X659300Y354300
X649300Y354300
X639300Y354300
X629300Y354300
X619300Y354300
X609300Y354300
X599300Y354300
X589300Y354300
X569300Y354300
X559300Y354300
X549300Y354300
X539300Y354300
X529300Y354300
X519300Y354300
X479300Y354300
X469300Y354300
X459300Y354300
X449300Y354300
X439300Y354300
X429300Y354300
X419300Y354300
X409300Y354300
X399300Y374300
X399300Y384300
X399300Y394300
X389300Y394300
X389300Y384300
X389300Y374300
X389300Y404300
X389300Y414300
X399300Y414300
X399300Y404300
X399300Y424300
X399300Y434300
X399300Y444300
X389300Y444300
X389300Y434300
X389300Y424300
X389300Y454300
X389300Y464300
X389300Y474300
X399300Y474300
X399300Y464300
X399300Y454300
X399300Y484300
X399300Y494300
X389300Y494300
X389300Y484300
X389300Y504300
X389300Y514300
X389300Y524300
X399300Y524300
X399300Y514300
X399300Y504300
X399300Y534300
X399300Y544300
X389300Y544300
X389300Y534300
X429300Y544300
X439300Y544300
X449300Y544300
X459300Y544300
X469300Y544300
X479300Y544300
X489300Y544300
X499300Y544300
X519300Y544300
X529300Y544300
X539300Y544300
X549300Y544300
X559300Y544300
X569300Y544300
X579300Y544300
X589300Y544300
X605300Y544300
X615300Y544300
X625300Y544300
X635300Y544300
X645300Y544300
X655300Y544300
X665300Y544300
X675300Y544300
X685300Y544300
X695300Y544300
X699300Y639300
X709300Y639300
X719300Y639300
X689300Y639300
X679300Y639300
X669300Y639300
X644300Y639300
X634300Y639300
X624300Y639300
X614300Y639300
X604300Y639300
X594300Y639300
X399300Y644300
X389300Y644300
X379300Y644300
X359300Y644300
X349300Y644300
X339300Y644300
X329300Y644300
X284300Y534300
X284300Y524300
X284300Y514300
X284300Y504300
X274300Y469300
X274300Y459300
X274300Y449300
X274300Y439300
X234300Y439300
X234300Y449300
X234300Y459300
X234300Y469300
X234300Y504300
X234300Y514300
X234300Y524300
X234300Y534300
X174300Y534300
X174300Y544300
X174300Y524300
X174300Y514300
X174300Y504300
X174300Y494300
X174300Y484300
X174300Y474300
X174300Y464300
X174300Y454300
X174300Y444300
X174300Y434300
X174300Y424300
X174300Y414300
X174300Y404300
X149300Y444300
X149300Y454300
X149300Y464300
X149300Y474300
X149300Y484300
X149300Y494300
X149300Y504300
X114300Y504300
X114300Y514300
X114300Y524300
X114300Y534300
X114300Y544300
X114300Y494300
X114300Y484300
X114300Y474300
X114300Y464300
X114300Y454300
X114300Y444300
X114300Y434300
X114300Y424300
X114300Y414300
X114300Y404300
X44300Y469300
X44300Y479300
X44300Y579300
X54300Y579300
X64300Y579300
X154300Y594300
X154300Y604300
X144300Y299300
X144300Y289300
X144300Y279300
X144300Y269300
X144300Y259300
X144300Y249300
X104300Y249300
X104300Y259300
X104300Y269300
X104300Y279300
X104300Y289300
X104300Y299300
X144300Y184300
X144300Y174300
X144300Y164300
X174300Y149300
X174300Y139300
X174300Y129300
X174300Y119300
X204300Y79300
X214300Y79300
X224300Y79300
X234300Y79300
X524300Y34300
X534300Y34300
X544300Y34300
X554300Y34300
X574300Y84300
X574300Y94300
X574300Y104300
X574300Y114300
X589300Y139300
X589300Y149300
X589300Y159300
X524300Y269300
X524300Y279300
T03
X619300Y204300
X554300Y69300
X249300Y309300
X169300Y329300
X159300Y339300
X214300Y404300
X224300Y394300
X204300Y414300
X189300Y414300
X219300Y449300
X219300Y469300
X249300Y459300
X259300Y439300
X269300Y504300
X249300Y509300
X219300Y504300
X204300Y514300
X149300Y544300
X129300Y494300
X129300Y484300
X129300Y474300
X129300Y464300
X129300Y454300
X54300Y374300
X159300Y204300
X144300Y134300
X479300Y369300
X374300Y454300
X374300Y464300
X374300Y474300
X299300Y509300
X319300Y544300
X419300Y639300
X449300Y659300
X459300Y629300
X439300Y604300
X439300Y589300
X429300Y579300
X469300Y529300
X479300Y519300
X614300Y624300
X689300Y624300
X214300Y604300
X64300Y559300
X44300Y604300
T04
X44457Y631072
X64143Y631072
X99457Y631072
X119143Y631072
X154300Y619300
X64143Y532528
X44457Y532528
X86072Y344143
X86072Y324457
X121072Y219143
X121072Y199457
X564457Y597528
X584143Y597528
X624457Y597528
X644143Y597528
X699457Y597528
X719143Y597528
X709457Y287528
X729143Y287528
X634143Y287528
X614457Y287528
T05
X59418Y27922
X138158Y27922
X622410Y27922
X697213Y27922
X697213Y693276
X622410Y693276
X138158Y693276
X59418Y693276
M30
