G75*
%MOIN*%
%OFA0B0*%
%FSLAX25Y25*%
%IPPOS*%
%LPD*%
%AMOC8*
5,1,8,0,0,1.08239X$1,22.5*
%
%ADD10C,0.13398*%
%ADD11C,0.06800*%
%ADD12OC8,0.06800*%
%ADD13C,0.08200*%
%ADD14OC8,0.08200*%
%ADD15R,0.08477X0.08477*%
D10*
X0029024Y0039024D03*
X0217528Y0036071D03*
X0523551Y0036071D03*
X0711858Y0039024D03*
X0586701Y0715205D03*
X0711858Y0721858D03*
X0154417Y0715205D03*
X0029024Y0721858D03*
D11*
X0125000Y0688000D02*
X0131000Y0688000D01*
X0131000Y0678000D02*
X0125000Y0678000D01*
X0125000Y0668000D02*
X0131000Y0668000D01*
X0131000Y0653000D02*
X0125000Y0653000D01*
X0125000Y0643000D02*
X0131000Y0643000D01*
X0131000Y0633000D02*
X0125000Y0633000D01*
X0125000Y0618000D02*
X0131000Y0618000D01*
X0131000Y0608000D02*
X0125000Y0608000D01*
X0125000Y0598000D02*
X0131000Y0598000D01*
X0111000Y0578000D02*
X0105000Y0578000D01*
X0105000Y0568000D02*
X0111000Y0568000D01*
X0125000Y0538000D02*
X0131000Y0538000D01*
X0131000Y0528000D02*
X0125000Y0528000D01*
X0066000Y0373000D02*
X0060000Y0373000D01*
X0060000Y0363000D02*
X0066000Y0363000D01*
X0066000Y0353000D02*
X0060000Y0353000D01*
X0060000Y0343000D02*
X0066000Y0343000D01*
X0080000Y0343000D02*
X0086000Y0343000D01*
X0086000Y0333000D02*
X0080000Y0333000D01*
X0066000Y0323000D02*
X0060000Y0323000D01*
X0060000Y0313000D02*
X0066000Y0313000D01*
X0066000Y0303000D02*
X0060000Y0303000D01*
X0060000Y0278000D02*
X0066000Y0278000D01*
X0066000Y0268000D02*
X0060000Y0268000D01*
X0090000Y0263000D02*
X0096000Y0263000D01*
X0096000Y0273000D02*
X0090000Y0273000D01*
X0090000Y0243000D02*
X0096000Y0243000D01*
X0096000Y0233000D02*
X0090000Y0233000D01*
X0103000Y0216000D02*
X0103000Y0210000D01*
X0113000Y0210000D02*
X0113000Y0216000D01*
X0185000Y0243000D02*
X0191000Y0243000D01*
X0191000Y0253000D02*
X0185000Y0253000D01*
X0185000Y0263000D02*
X0191000Y0263000D01*
X0195000Y0293000D02*
X0201000Y0293000D01*
X0201000Y0303000D02*
X0195000Y0303000D01*
X0195000Y0313000D02*
X0201000Y0313000D01*
X0201000Y0323000D02*
X0195000Y0323000D01*
X0163000Y0350000D02*
X0163000Y0356000D01*
X0153000Y0356000D02*
X0153000Y0350000D01*
X0288000Y0306000D02*
X0288000Y0300000D01*
X0298000Y0300000D02*
X0298000Y0306000D01*
X0335000Y0288000D02*
X0341000Y0288000D01*
X0341000Y0278000D02*
X0335000Y0278000D01*
X0335000Y0268000D02*
X0341000Y0268000D01*
X0341000Y0258000D02*
X0335000Y0258000D01*
X0335000Y0248000D02*
X0341000Y0248000D01*
X0390000Y0248000D02*
X0396000Y0248000D01*
X0396000Y0258000D02*
X0390000Y0258000D01*
X0390000Y0268000D02*
X0396000Y0268000D01*
X0396000Y0278000D02*
X0390000Y0278000D01*
X0390000Y0288000D02*
X0396000Y0288000D01*
X0450000Y0288000D02*
X0456000Y0288000D01*
X0456000Y0278000D02*
X0450000Y0278000D01*
X0450000Y0268000D02*
X0456000Y0268000D01*
X0456000Y0258000D02*
X0450000Y0258000D01*
X0450000Y0248000D02*
X0456000Y0248000D01*
X0505000Y0248000D02*
X0511000Y0248000D01*
X0511000Y0258000D02*
X0505000Y0258000D01*
X0505000Y0268000D02*
X0511000Y0268000D01*
X0511000Y0278000D02*
X0505000Y0278000D01*
X0505000Y0288000D02*
X0511000Y0288000D01*
X0565000Y0283000D02*
X0571000Y0283000D01*
X0571000Y0273000D02*
X0565000Y0273000D01*
X0565000Y0263000D02*
X0571000Y0263000D01*
X0571000Y0253000D02*
X0565000Y0253000D01*
X0610000Y0253000D02*
X0616000Y0253000D01*
X0616000Y0263000D02*
X0610000Y0263000D01*
X0610000Y0273000D02*
X0616000Y0273000D01*
X0616000Y0283000D02*
X0610000Y0283000D01*
X0675000Y0343000D02*
X0681000Y0343000D01*
X0681000Y0353000D02*
X0675000Y0353000D01*
X0675000Y0363000D02*
X0681000Y0363000D01*
X0681000Y0373000D02*
X0675000Y0373000D01*
X0636000Y0373000D02*
X0630000Y0373000D01*
X0630000Y0363000D02*
X0636000Y0363000D01*
X0636000Y0383000D02*
X0630000Y0383000D01*
X0630000Y0393000D02*
X0636000Y0393000D01*
X0636000Y0403000D02*
X0630000Y0403000D01*
X0630000Y0413000D02*
X0636000Y0413000D01*
X0596000Y0413000D02*
X0590000Y0413000D01*
X0590000Y0403000D02*
X0596000Y0403000D01*
X0596000Y0393000D02*
X0590000Y0393000D01*
X0590000Y0383000D02*
X0596000Y0383000D01*
X0596000Y0373000D02*
X0590000Y0373000D01*
X0590000Y0363000D02*
X0596000Y0363000D01*
X0526000Y0478000D02*
X0520000Y0478000D01*
X0520000Y0488000D02*
X0526000Y0488000D01*
X0526000Y0498000D02*
X0520000Y0498000D01*
X0520000Y0508000D02*
X0526000Y0508000D01*
X0526000Y0518000D02*
X0520000Y0518000D01*
X0520000Y0528000D02*
X0526000Y0528000D01*
X0555000Y0528000D02*
X0561000Y0528000D01*
X0561000Y0538000D02*
X0555000Y0538000D01*
X0555000Y0548000D02*
X0561000Y0548000D01*
X0561000Y0558000D02*
X0555000Y0558000D01*
X0555000Y0568000D02*
X0561000Y0568000D01*
X0585000Y0603000D02*
X0591000Y0603000D01*
X0591000Y0613000D02*
X0585000Y0613000D01*
X0585000Y0623000D02*
X0591000Y0623000D01*
X0591000Y0633000D02*
X0585000Y0633000D01*
X0585000Y0643000D02*
X0591000Y0643000D01*
X0591000Y0653000D02*
X0585000Y0653000D01*
X0571000Y0683000D02*
X0565000Y0683000D01*
X0565000Y0693000D02*
X0571000Y0693000D01*
X0511000Y0633000D02*
X0505000Y0633000D01*
X0505000Y0623000D02*
X0511000Y0623000D01*
X0511000Y0613000D02*
X0505000Y0613000D01*
X0505000Y0603000D02*
X0511000Y0603000D01*
X0511000Y0593000D02*
X0505000Y0593000D01*
X0505000Y0583000D02*
X0511000Y0583000D01*
X0496000Y0544535D02*
X0490000Y0544535D01*
X0490000Y0534535D02*
X0496000Y0534535D01*
X0496000Y0524535D02*
X0490000Y0524535D01*
X0490000Y0514535D02*
X0496000Y0514535D01*
X0496000Y0504535D02*
X0490000Y0504535D01*
X0490000Y0494535D02*
X0496000Y0494535D01*
X0496000Y0484535D02*
X0490000Y0484535D01*
X0555000Y0518000D02*
X0561000Y0518000D01*
X0615000Y0513000D02*
X0621000Y0513000D01*
X0621000Y0503000D02*
X0615000Y0503000D01*
X0615000Y0493000D02*
X0621000Y0493000D01*
X0621000Y0483000D02*
X0615000Y0483000D01*
X0665000Y0483000D02*
X0671000Y0483000D01*
X0671000Y0493000D02*
X0665000Y0493000D01*
X0665000Y0503000D02*
X0671000Y0503000D01*
X0671000Y0513000D02*
X0665000Y0513000D01*
X0431000Y0388000D02*
X0425000Y0388000D01*
X0425000Y0378000D02*
X0431000Y0378000D01*
X0431000Y0368000D02*
X0425000Y0368000D01*
X0425000Y0358000D02*
X0431000Y0358000D01*
X0431000Y0348000D02*
X0425000Y0348000D01*
X0426000Y0558000D02*
X0420000Y0558000D01*
X0420000Y0568000D02*
X0426000Y0568000D01*
X0426000Y0578000D02*
X0420000Y0578000D01*
X0420000Y0588000D02*
X0426000Y0588000D01*
X0426000Y0598000D02*
X0420000Y0598000D01*
X0420000Y0608000D02*
X0426000Y0608000D01*
X0426000Y0618000D02*
X0420000Y0618000D01*
X0420000Y0628000D02*
X0426000Y0628000D01*
X0081000Y0068000D02*
X0075000Y0068000D01*
X0075000Y0058000D02*
X0081000Y0058000D01*
X0061000Y0058000D02*
X0055000Y0058000D01*
X0055000Y0068000D02*
X0061000Y0068000D01*
D12*
X0063000Y0233000D03*
X0063000Y0243000D03*
X0073000Y0243000D03*
X0073000Y0233000D03*
X0123000Y0578000D03*
D13*
X0098000Y0538000D03*
X0068000Y0538000D03*
X0063000Y0578000D03*
X0048000Y0578000D03*
X0033000Y0578000D03*
X0033000Y0608000D03*
X0048000Y0608000D03*
X0063000Y0608000D03*
X0123000Y0368000D03*
X0153000Y0368000D03*
X0103000Y0333000D03*
X0103000Y0303000D03*
X0128000Y0243000D03*
X0128000Y0213000D03*
X0378354Y0384534D03*
X0378354Y0394534D03*
X0378354Y0404534D03*
X0378354Y0414534D03*
X0378354Y0424534D03*
X0378354Y0434534D03*
X0378354Y0444534D03*
X0378354Y0454534D03*
X0462331Y0454535D03*
X0462331Y0444535D03*
X0462331Y0434535D03*
X0462331Y0424535D03*
X0462331Y0414535D03*
X0462331Y0404535D03*
X0462331Y0394535D03*
X0462331Y0384535D03*
X0462331Y0494535D03*
X0462331Y0504535D03*
X0462331Y0514535D03*
X0462331Y0524535D03*
X0462331Y0534535D03*
X0652331Y0544535D03*
X0652331Y0554535D03*
D14*
X0368354Y0344534D03*
X0358354Y0344534D03*
X0348354Y0344534D03*
X0338354Y0344534D03*
X0328354Y0344534D03*
X0318354Y0344534D03*
X0308354Y0344534D03*
X0298354Y0344534D03*
X0288354Y0344534D03*
X0278354Y0344534D03*
X0268354Y0344534D03*
D15*
X0298354Y0368000D03*
X0308000Y0358000D03*
X0318000Y0398000D03*
X0278354Y0443000D03*
X0268354Y0433000D03*
X0288000Y0453000D03*
X0398000Y0444534D03*
X0408000Y0454534D03*
X0438000Y0454535D03*
X0448000Y0444535D03*
X0478000Y0458000D03*
X0508000Y0458000D03*
X0478000Y0494535D03*
X0478000Y0504535D03*
X0478000Y0514535D03*
X0478000Y0524535D03*
X0478000Y0534535D03*
X0478000Y0544535D03*
X0528000Y0588000D03*
X0523000Y0623000D03*
X0573000Y0643000D03*
X0628000Y0613000D03*
X0668000Y0588000D03*
X0608000Y0553000D03*
X0603000Y0473000D03*
X0593000Y0458000D03*
X0653000Y0393000D03*
X0668000Y0393000D03*
X0693000Y0458000D03*
X0683000Y0473000D03*
X0538000Y0383000D03*
X0528000Y0394535D03*
X0538000Y0333000D03*
X0568000Y0298000D03*
X0538000Y0238000D03*
X0508000Y0228000D03*
X0493000Y0268000D03*
X0483000Y0278000D03*
X0468000Y0293000D03*
X0438000Y0268000D03*
X0428000Y0278000D03*
X0413000Y0268000D03*
X0368000Y0278000D03*
X0358000Y0268000D03*
X0368000Y0238000D03*
X0348000Y0303000D03*
X0358000Y0313000D03*
X0368354Y0323000D03*
X0338000Y0318000D03*
X0328000Y0303000D03*
X0303000Y0273000D03*
X0258000Y0263000D03*
X0253000Y0188000D03*
X0143000Y0153000D03*
X0098000Y0183000D03*
X0078000Y0078000D03*
X0058000Y0078000D03*
X0038000Y0363000D03*
X0028000Y0373000D03*
X0078000Y0463000D03*
X0088000Y0568000D03*
X0078000Y0608000D03*
X0113000Y0608000D03*
X0113000Y0643000D03*
X0113000Y0678000D03*
X0048000Y0643000D03*
X0033000Y0678000D03*
X0418000Y0414534D03*
X0428000Y0404534D03*
X0598000Y0238000D03*
X0648000Y0308000D03*
X0703000Y0238000D03*
X0563000Y0158000D03*
X0713000Y0658000D03*
X0563000Y0713000D03*
M02*
