%
M48
M72
T01C0.03543
T02C0.04000
T03C0.05118
T04C0.12598
%
T01
X128000Y213000
X128000Y243000
X103000Y303000
X103000Y333000
X123000Y368000
X153000Y368000
X98000Y538000
X68000Y538000
X63000Y578000
X48000Y578000
X33000Y578000
X33000Y608000
X48000Y608000
X63000Y608000
T02
X108000Y578000
X108000Y568000
X123000Y578000
X128000Y598000
X128000Y608000
X128000Y618000
X128000Y633000
X128000Y643000
X128000Y653000
X128000Y668000
X128000Y678000
X128000Y688000
X128000Y538000
X128000Y528000
X63000Y373000
X63000Y363000
X63000Y353000
X63000Y343000
X63000Y323000
X63000Y313000
X63000Y303000
X63000Y278000
X63000Y268000
X63000Y243000
X63000Y233000
X73000Y233000
X73000Y243000
X93000Y243000
X93000Y233000
X103000Y213000
X113000Y213000
X93000Y263000
X93000Y273000
X83000Y333000
X83000Y343000
X153000Y353000
X163000Y353000
X198000Y323000
X198000Y313000
X198000Y303000
X198000Y293000
X188000Y263000
X188000Y253000
X188000Y243000
X288000Y303000
X298000Y303000
X298354Y344534
X308354Y344534
X318354Y344534
X328354Y344534
X338354Y344534
X348354Y344534
X358354Y344534
X368354Y344534
X378354Y384534
X378354Y394534
X378354Y404534
X378354Y414534
X378354Y424534
X378354Y434534
X378354Y444534
X378354Y454534
X428000Y388000
X428000Y378000
X428000Y368000
X428000Y358000
X428000Y348000
X462331Y384535
X462331Y394535
X462331Y404535
X462331Y414535
X462331Y424535
X462331Y434535
X462331Y444535
X462331Y454535
X493000Y484535
X493000Y494535
X493000Y504535
X493000Y514535
X493000Y524535
X493000Y534535
X493000Y544535
X462331Y534535
X462331Y524535
X462331Y514535
X462331Y504535
X462331Y494535
X523000Y498000
X523000Y508000
X523000Y518000
X523000Y528000
X558000Y528000
X558000Y538000
X558000Y548000
X558000Y558000
X558000Y568000
X588000Y603000
X588000Y613000
X588000Y623000
X588000Y633000
X588000Y643000
X588000Y653000
X568000Y683000
X568000Y693000
X508000Y633000
X508000Y623000
X508000Y613000
X508000Y603000
X508000Y593000
X508000Y583000
X558000Y518000
X523000Y488000
X523000Y478000
X593000Y413000
X593000Y403000
X593000Y393000
X593000Y383000
X593000Y373000
X593000Y363000
X633000Y363000
X633000Y373000
X633000Y383000
X633000Y393000
X633000Y403000
X633000Y413000
X678000Y373000
X678000Y363000
X678000Y353000
X678000Y343000
X613000Y283000
X613000Y273000
X613000Y263000
X613000Y253000
X568000Y253000
X568000Y263000
X568000Y273000
X568000Y283000
X508000Y278000
X508000Y288000
X508000Y268000
X508000Y258000
X508000Y248000
X453000Y248000
X453000Y258000
X453000Y268000
X453000Y278000
X453000Y288000
X393000Y288000
X393000Y278000
X393000Y268000
X393000Y258000
X393000Y248000
X338000Y248000
X338000Y258000
X338000Y268000
X338000Y278000
X338000Y288000
X288354Y344534
X278354Y344534
X268354Y344534
X423000Y558000
X423000Y568000
X423000Y578000
X423000Y588000
X423000Y598000
X423000Y608000
X423000Y618000
X423000Y628000
X618000Y513000
X618000Y503000
X618000Y493000
X618000Y483000
X668000Y483000
X668000Y493000
X668000Y503000
X668000Y513000
X652331Y544535
X652331Y554535
X78000Y68000
X78000Y58000
X58000Y58000
X58000Y68000
T03
X58000Y78000
X78000Y78000
X143000Y153000
X98000Y183000
X253000Y188000
X258000Y263000
X303000Y273000
X328000Y303000
X338000Y318000
X348000Y303000
X358000Y313000
X368354Y323000
X368000Y278000
X358000Y268000
X368000Y238000
X413000Y268000
X428000Y278000
X438000Y268000
X468000Y293000
X483000Y278000
X493000Y268000
X508000Y228000
X538000Y238000
X598000Y238000
X568000Y298000
X538000Y333000
X538000Y383000
X528000Y394535
X508000Y458000
X478000Y458000
X448000Y444535
X438000Y454535
X408000Y454534
X398000Y444534
X418000Y414534
X428000Y404534
X478000Y494535
X478000Y504535
X478000Y514535
X478000Y524535
X478000Y534535
X478000Y544535
X528000Y588000
X523000Y623000
X573000Y643000
X628000Y613000
X668000Y588000
X608000Y553000
X603000Y473000
X593000Y458000
X653000Y393000
X668000Y393000
X693000Y458000
X683000Y473000
X648000Y308000
X703000Y238000
X563000Y158000
X318000Y398000
X298354Y368000
X308000Y358000
X268354Y433000
X278354Y443000
X288000Y453000
X113000Y608000
X113000Y643000
X113000Y678000
X48000Y643000
X33000Y678000
X78000Y608000
X88000Y568000
X78000Y463000
X28000Y373000
X38000Y363000
X563000Y713000
X713000Y658000
T04
X29024Y39024
X217528Y36071
X523551Y36071
X711858Y39024
X586701Y715205
X711858Y721858
X154417Y715205
X29024Y721858
M30
